<?xml version="1.0" encoding="UTF-8"?>
<svg xmlns="http://www.w3.org/2000/svg" viewBox="0 0 2000 2000">
  <defs>
    <style>
      .cls-1 {
        fill: #fbfbfb;
        fill-rule: evenodd;
        opacity: .4;
      }

      .cls-2 {
        fill: #fff;
      }

      .cls-3 {
        fill: #d9d9d9;
        mix-blend-mode: multiply;
      }

      .cls-4 {
        isolation: isolate;
      }

      .cls-5 {
        fill: #0b5b07;
      }

      .cls-6 {
        fill: #d1edfc;
      }
    </style>
  </defs>
  <g class="cls-4">
    <g id="Layer_1" data-name="Layer 1">
      <path class="cls-6" d="m1737,1000c0,114.46-26.09,222.82-72.65,319.47-119.02,247.05-371.77,417.53-664.35,417.53s-545.33-170.48-664.35-417.53c-46.56-96.65-72.65-205.01-72.65-319.47,0-407.03,329.97-737,737-737s737,329.97,737,737Z"/>
      <path class="cls-1" d="m652.84,1364.02l-108.2-29.93c-4.88-1.35-7.75-6.41-6.4-11.3l76.71-277.31c1.35-4.88,6.41-7.75,11.3-6.4l108.2,29.93-4.92,17.77c-14.58,5.86-26.36,18.2-30.87,34.5-7.67,27.74,8.62,56.5,36.36,64.17,27.74,7.67,56.5-8.62,64.17-36.36,4.51-16.3.75-32.94-8.75-45.46l4.92-17.77,108.2,29.93c4.88,1.35,7.75,6.41,6.4,11.3l-29.93,108.2,17.59,4.87c12.52-9.5,29.16-13.26,45.46-8.75,27.74,7.67,44.04,36.43,36.36,64.17-7.67,27.74-36.43,44.04-64.17,36.36-16.3-4.51-28.64-16.29-34.5-30.87l-17.59-4.87-29.93,108.2c-1.35,4.88-6.41,7.75-11.3,6.4l-108.2-29.93-4.28,15.46c9.5,12.52,13.26,29.16,8.75,45.46-7.67,27.74-36.43,44.04-64.17,36.36-27.74-7.67-44.04-36.43-36.36-64.17,4.51-16.3,16.29-28.64,30.87-34.5l4.28-15.46h0Zm776.6-172.41l29.37,101.52c2.35,8.13-2.34,16.63-10.46,18.98l-101.52,29.37,4.36,15.08c14.96,5.81,27.14,18.27,31.93,34.86,8.17,28.24-8.12,57.79-36.36,65.96-28.24,8.17-57.79-8.12-65.96-36.36-4.8-16.59-1.16-33.63,8.39-46.52l-4.36-15.08-101.52,29.37c-8.13,2.35-16.63-2.34-18.98-10.46l-29.37-101.52-15.18,4.39c-5.81,14.96-18.27,27.14-34.86,31.93-28.24,8.17-57.79-8.12-65.96-36.36-8.17-28.24,8.12-57.79,36.36-65.96,16.59-4.8,33.63-1.16,46.52,8.39l15.18-4.39-29.37-101.52c-2.35-8.13,2.34-16.63,10.46-18.98l101.52-29.37-4.36-15.08c-14.96-5.81-27.14-18.27-31.93-34.86-8.17-28.24,8.12-57.79,36.36-65.96,28.24-8.17,57.79,8.12,65.96,36.36,4.8,16.59,1.16,33.63-8.39,46.52l4.36,15.07,101.52-29.37c8.13-2.35,16.63,2.34,18.98,10.46l29.37,101.52-18.56,5.37c-12.9-9.55-29.94-13.19-46.52-8.39-28.24,8.17-44.53,37.72-36.36,65.96,8.17,28.24,37.72,44.53,65.96,36.36,16.59-4.8,29.05-16.98,34.86-31.93l18.56-5.37h0Zm-776.6-634.23l100.51-32.65c8.05-2.61,16.7,1.8,19.31,9.84l32.65,100.51,14.93-4.85c5.32-15.14,17.38-27.71,33.8-33.05,27.96-9.08,58.02,6.24,67.1,34.2,9.08,27.96-6.24,58.03-34.2,67.11-16.42,5.33-33.57,2.25-46.77-6.88l-14.93,4.85,32.65,100.51c2.61,8.05-1.8,16.7-9.84,19.31l-100.51,32.65,4.88,15.03c15.14,5.32,27.71,17.38,33.05,33.8,9.08,27.96-6.24,58.03-34.2,67.11-27.96,9.08-58.02-6.24-67.11-34.2-5.33-16.42-2.25-33.57,6.88-46.77l-4.88-15.03-100.51,32.65c-8.05,2.61-16.7-1.8-19.31-9.84l-32.65-100.51-14.93,4.85c-5.32,15.14-17.38,27.71-33.8,33.05-27.96,9.08-58.02-6.24-67.11-34.2-9.08-27.96,6.24-58.02,34.2-67.1,16.42-5.33,33.57-2.25,46.77,6.88l14.93-4.85-32.65-100.51c-2.61-8.05,1.8-16.7,9.84-19.31l100.51-32.65,5.97,18.38c-9.12,13.2-12.21,30.35-6.88,46.77,9.08,27.96,39.15,43.28,67.1,34.2,27.96-9.08,43.28-39.15,34.2-67.1-5.33-16.42-17.91-28.48-33.05-33.8l-5.97-18.38h0Zm815.06,247.23l-23.5,109.77c-1.06,4.96-5.95,8.12-10.9,7.06l-281.35-60.23c-4.96-1.06-8.12-5.95-7.06-10.9l23.5-109.77,18.03,3.86c6.71,14.21,19.73,25.24,36.26,28.78,28.15,6.03,55.89-11.93,61.92-40.08,6.03-28.15-11.93-55.89-40.08-61.92-16.53-3.54-32.93,1.2-44.87,11.41l-18.03-3.86,23.5-109.77c1.06-4.96,5.95-8.12,10.9-7.06l109.77,23.5,3.82-17.85c-10.22-11.94-14.95-28.33-11.41-44.87,6.03-28.15,33.77-46.11,61.92-40.08,28.15,6.03,46.11,33.77,40.08,61.92-3.54,16.53-14.57,29.55-28.78,36.26l-3.82,17.85,109.77,23.5c4.96,1.06,8.12,5.95,7.06,10.9l-23.5,109.77,15.68,3.36c11.94-10.22,28.33-14.95,44.87-11.41,28.15,6.03,46.11,33.77,40.08,61.92-6.03,28.15-33.77,46.11-61.92,40.08-16.53-3.54-29.55-14.57-36.26-28.78l-15.68-3.36Z"/>
      <g>
        <path class="cls-3" d="m1337.43,1281.34s55.1-20.9,26.61-77.9c0,0,91.19,30.41,91.19-56.99,0,0,66.5-30.39,20.89-119.69,0,0,32.3-58.89-15.19-85.5,0,0-15.2-100.7-76-117.8,0,0-5.7-104.49-74.09-104.49,0,0-79.78-176.69-290.68-112.09,0,0-49.39-45.6-110.2-3.8,0,0-70.3-36.09-95,22.8,0,0-57-32.3-79.8,11.39,0,0-72.21-20.89-95,47.5,0,0-72.19-7.6-74.09,68.4,0,0-138.69,72.2-79.79,189.99,0,0-20.9,53.19,30.4,79.79,0,0-11.41,104.49,172.89,93.09,0,0-11.4,89.29,87.4,94.99,0,0,66.5,43.69,172.9,0,0,0-17.11,51.29,77.89,89.29,0,0,53.2,51.3,89.3,144.4h53.2s-1.91-64.6-30.41-96.9c0,0,45.6,13.3,60.79-19,0,0,140.59,30.41,136.79-47.49Z"/>
        <path class="cls-5" d="m676.35,654.61s-72.19-7.6-74.09,68.4c0,0-138.69,72.2-79.79,189.99,0,0-20.9,53.19,30.4,79.79,0,0-11.41,104.49,172.89,93.09,0,0-11.4,89.29,87.4,94.99,0,0,66.5,43.69,172.9,0,0,0-17.11,51.29,77.89,89.29,0,0,53.2,51.3,89.3,144.4h53.2s-1.91-64.6-30.41-96.9c0,0,45.6,13.3,60.79-19,0,0,140.59,30.41,136.79-47.49,0,0,55.1-20.9,26.61-77.9,0,0,91.19,30.41,91.19-56.99,0,0,66.5-30.39,20.89-119.69,0,0,32.3-58.89-15.19-85.5,0,0-15.2-100.7-76-117.8,0,0-5.7-104.49-74.09-104.49,0,0-79.78-176.69-290.68-112.09,0,0-49.39-45.6-110.2-3.8,0,0-70.3-36.09-95,22.8,0,0-57-32.3-79.8,11.39,0,0-72.21-20.89-95,47.5Z"/>
        <g>
          <path class="cls-2" d="m901.84,1168v-19.33c6.51-1.79,12.69-4.37,18.42-7.65l13.69,13.69,29.99-29.98-13.69-13.7c3.28-5.73,5.87-11.91,7.66-18.43h19.33v-42.4h-19.33c-1.79-6.51-4.38-12.69-7.66-18.43l13.69-13.69-29.99-29.98-13.69,13.69c-5.73-3.28-11.91-5.87-18.42-7.66v-19.33h-42.4v19.33c-6.51,1.79-12.68,4.38-18.42,7.66l-13.69-13.69-29.98,29.98,13.69,13.69c-3.28,5.74-5.87,11.92-7.65,18.43h-19.34v42.4h19.34c1.78,6.51,4.37,12.69,7.66,18.43l-13.7,13.69,29.98,29.98,13.69-13.69c5.73,3.28,11.91,5.86,18.42,7.65v19.33h42.4Zm-58.94-96.6c0-20.8,16.93-37.73,37.74-37.73s37.72,16.93,37.72,37.73-16.92,37.73-37.72,37.73-37.74-16.92-37.74-37.73Z"/>
          <g>
            <path class="cls-2" d="m747.59,893.66v-42.4h-19.33c-1.79-6.51-4.39-12.69-7.66-18.43l13.69-13.69-29.99-29.98-13.69,13.69c-5.73-3.28-11.91-5.87-18.42-7.66v-19.33h-42.4v19.33c-6.51,1.79-12.69,4.38-18.42,7.66l-13.69-13.69-29.98,29.98,13.69,13.69c-3.28,5.74-5.87,11.92-7.65,18.43h-19.34v42.4h19.34c1.78,6.51,4.37,12.69,7.66,18.42l-13.7,13.7,29.98,29.98,13.69-13.69c5.74,3.28,11.91,5.86,18.42,7.65v19.33h42.4v-19.33c6.51-1.79,12.69-4.37,18.42-7.65l13.69,13.69,29.99-29.98-13.69-13.7c3.27-5.73,5.86-11.91,7.66-18.42h19.33Zm-96.6,16.53c-20.8,0-37.74-16.92-37.74-37.73s16.93-37.73,37.74-37.73,37.73,16.93,37.73,37.73-16.93,37.73-37.73,37.73Z"/>
            <path class="cls-2" d="m650.99,850.24c-12.27,0-22.21,9.95-22.21,22.21s9.95,22.21,22.21,22.21,22.21-9.94,22.21-22.21-9.94-22.21-22.21-22.21Z"/>
          </g>
          <g>
            <path class="cls-2" d="m1447.29,957.3v-64.83h-29.55c-2.73-9.95-6.7-19.39-11.71-28.16l20.93-20.93-45.84-45.84-20.93,20.93c-8.76-5.01-18.22-8.97-28.17-11.71v-29.56h-64.83v29.56c-9.95,2.74-19.4,6.7-28.17,11.71l-20.92-20.93-45.85,45.84,20.93,20.93c-5.01,8.77-8.97,18.22-11.71,28.17h-29.56v64.83h29.56c2.74,9.95,6.7,19.39,11.71,28.17l-20.93,20.93,45.85,45.84,20.92-20.93c8.78,5.01,18.22,8.97,28.17,11.71v29.55h64.83v-29.55c9.95-2.74,19.4-6.7,28.17-11.71l20.93,20.93,45.84-45.84-20.93-20.93c5.01-8.77,8.98-18.22,11.7-28.17h29.56Zm-147.69,25.27c-31.81,0-57.69-25.88-57.69-57.69s25.88-57.68,57.69-57.68,57.68,25.88,57.68,57.68-25.87,57.69-57.68,57.69Z"/>
            <circle class="cls-2" cx="1299.6" cy="924.88" r="22.21"/>
          </g>
          <g>
            <path class="cls-2" d="m1140.56,1044.2v-16.54h-16.49c-1.17-6.38-3.67-12.3-7.22-17.45l11.66-11.66-11.69-11.69-11.66,11.66c-5.15-3.55-11.07-6.05-17.45-7.23v-16.5h-16.54v16.5c-6.38,1.18-12.29,3.67-17.44,7.22l-11.66-11.67-11.69,11.69,11.66,11.67c-3.55,5.15-6.05,11.06-7.23,17.44h-16.49v16.53h16.49c1.17,6.38,3.67,12.29,7.22,17.44l-11.66,11.67,11.69,11.7,11.67-11.66c5.15,3.55,11.06,6.05,17.44,7.23v16.49h16.54v-16.49c6.38-1.18,12.3-3.68,17.45-7.22l11.66,11.66,11.69-11.69-11.66-11.66c3.55-5.15,6.05-11.07,7.23-17.45h16.49Zm-61.12,20.14c-15.67,0-28.41-12.75-28.41-28.42s12.75-28.41,28.41-28.41,28.41,12.74,28.41,28.41-12.75,28.42-28.41,28.42Z"/>
            <circle class="cls-2" cx="1079.45" cy="1035.93" r="11.66"/>
          </g>
          <g>
            <path class="cls-2" d="m1285,1185.08c0-7.72-1.12-15.17-3.05-22.3l15.13-8.74-21.98-38.07-15.1,8.72c-10.52-10.57-23.81-18.32-38.65-22.27v-17.49h-43.96v17.49c-14.83,3.95-28.13,11.7-38.65,22.27l-15.11-8.72-21.98,38.07,15.14,8.74c-1.93,7.12-3.05,14.58-3.05,22.3s1.12,15.17,3.05,22.29l-15.14,8.74,21.98,38.07,15.1-8.72c10.53,10.57,23.82,18.32,38.65,22.27v17.48h43.96v-17.48c14.83-3.95,28.13-11.7,38.65-22.27l15.1,8.71,21.98-38.07-15.13-8.74c1.92-7.12,3.05-14.57,3.05-22.3Zm-85.62,51.61c-28.45,0-51.61-23.15-51.61-51.61s23.16-51.61,51.61-51.61,51.6,23.15,51.6,51.61-23.15,51.61-51.6,51.61Z"/>
            <circle class="cls-2" cx="1199.38" cy="1185.08" r="22.21"/>
          </g>
          <g>
            <g>
              <path class="cls-2" d="m966.47,701.1c0-7.24-1.05-14.23-2.86-20.9l14.18-8.19-20.59-35.67-14.15,8.17c-9.86-9.9-22.32-17.17-36.22-20.87v-16.39h-41.2v16.39c-13.9,3.7-26.35,10.96-36.22,20.87l-14.16-8.17-20.6,35.68,14.19,8.19c-1.81,6.67-2.86,13.66-2.86,20.9s1.05,14.21,2.85,20.88l-14.19,8.2,20.6,35.68,14.15-8.17c9.86,9.9,22.32,17.17,36.22,20.87v16.38h41.2v-16.38c13.9-3.7,26.36-10.96,36.22-20.86l14.15,8.16,20.59-35.67-14.18-8.19c1.81-6.67,2.86-13.66,2.86-20.9Zm-80.24,48.36c-26.67,0-48.36-21.69-48.36-48.36s21.69-48.37,48.36-48.37,48.36,21.69,48.36,48.37-21.69,48.36-48.36,48.36Z"/>
              <path class="cls-2" d="m886.22,687.17c-7.69,0-13.93,6.24-13.93,13.93s6.24,13.93,13.93,13.93,13.93-6.23,13.93-13.93-6.23-13.93-13.93-13.93Z"/>
            </g>
            <g>
              <path class="cls-2" d="m904.03,895.95v-16.54h-16.48c-1.18-6.37-3.68-12.29-7.23-17.44l11.66-11.66-11.69-11.69-11.66,11.66c-5.15-3.55-11.07-6.05-17.45-7.23v-16.5h-16.54v16.5c-6.37,1.18-12.29,3.68-17.44,7.22l-11.67-11.67-11.7,11.69,11.67,11.67c-3.55,5.15-6.05,11.06-7.23,17.44h-16.49v16.53h16.49c1.18,6.38,3.68,12.29,7.22,17.44l-11.67,11.66,11.69,11.69,11.67-11.66c5.15,3.55,11.06,6.05,17.44,7.23v16.49h16.54v-16.49c6.38-1.18,12.3-3.67,17.45-7.22l11.66,11.66,11.69-11.69-11.66-11.66c3.56-5.15,6.05-11.07,7.23-17.45h16.49Zm-61.12,20.14c-15.67,0-28.42-12.75-28.42-28.41s12.75-28.41,28.42-28.41,28.42,12.74,28.42,28.41-12.75,28.41-28.42,28.41Z"/>
              <path class="cls-2" d="m842.91,873.74c-7.69,0-13.93,6.24-13.93,13.93s6.24,13.93,13.93,13.93,13.93-6.24,13.93-13.93-6.23-13.93-13.93-13.93Z"/>
            </g>
            <g>
              <path class="cls-2" d="m1238.6,711.82v-42.4h-19.34c-1.79-6.51-4.38-12.69-7.65-18.43l13.68-13.69-29.99-29.98-13.68,13.69c-5.73-3.28-11.91-5.87-18.42-7.66v-19.34h-42.4v19.34c-6.51,1.79-12.68,4.38-18.42,7.66l-13.7-13.69-29.98,29.98,13.68,13.69c-3.28,5.74-5.87,11.92-7.65,18.43h-19.34v42.4h19.34c1.78,6.51,4.38,12.69,7.66,18.43l-13.7,13.7,29.98,29.98,13.7-13.69c5.74,3.28,11.91,5.86,18.42,7.65v19.34h42.4v-19.34c6.51-1.79,12.69-4.37,18.42-7.65l13.68,13.69,29.99-29.98-13.68-13.7c3.27-5.73,5.86-11.91,7.65-18.42h19.34Zm-96.6,16.53c-20.8,0-37.74-16.92-37.74-37.73s16.93-37.73,37.74-37.73,37.73,16.93,37.73,37.73-16.93,37.73-37.73,37.73Z"/>
              <path class="cls-2" d="m1142,676.69c-7.7,0-13.93,6.24-13.93,13.93s6.23,13.93,13.93,13.93,13.93-6.24,13.93-13.93-6.24-13.93-13.93-13.93Z"/>
            </g>
          </g>
          <circle class="cls-2" cx="880.64" cy="1072.84" r="22.21"/>
          <g>
            <path class="cls-2" d="m1077.88,894.45h19.4s0-43.95,0-43.95h-19.39c-.59-1.62-1.25-3.21-1.97-4.76l13.72-13.72-31.09-31.08-13.71,13.71c-1.55-.72-3.13-1.37-4.75-1.97v-19.41h-43.96v19.4c-1.62.6-3.2,1.25-4.75,1.97l-13.72-13.72-31.08,31.08,13.72,13.72c-.72,1.55-1.37,3.14-1.96,4.75h-19.41v43.96h19.41c.59,1.62,1.24,3.2,1.96,4.75l-13.72,13.72,31.09,31.08,13.71-13.72c1.55.72,3.14,1.37,4.76,1.97v19.41s43.95,0,43.95,0v-19.39c1.61-.6,3.2-1.25,4.75-1.97l13.72,13.72,31.08-31.09-13.71-13.71c.72-1.55,1.37-3.14,1.97-4.76Zm-59.78,19.11c-22.65,0-41.09-18.43-41.09-41.09s18.43-41.09,41.09-41.09,41.09,18.43,41.09,41.09-18.43,41.09-41.09,41.09Z"/>
            <path class="cls-2" d="m1018.08,850.24c-12.27,0-22.21,9.95-22.21,22.21s9.94,22.21,22.21,22.21,22.21-9.94,22.21-22.21-9.94-22.21-22.21-22.21Z"/>
          </g>
        </g>
      </g>
    </g>
  </g>
</svg>