<?xml version="1.0" encoding="UTF-8"?>
<svg id="Layer_1" data-name="Layer 1" xmlns="http://www.w3.org/2000/svg" viewBox="0 0 2000 2000">
  <defs>
    <style>
      .cls-1 {
        fill: none;
        stroke: #021833;
        stroke-linecap: round;
        stroke-linejoin: round;
        stroke-width: 4.46px;
      }

      .cls-2 {
        fill: #fff;
      }

      .cls-3 {
        opacity: .6;
      }

      .cls-4 {
        fill: #141a46;
      }

      .cls-5 {
        fill: #0b181b;
      }

      .cls-6 {
        fill: #252e3b;
      }

      .cls-7 {
        fill: #a77860;
      }

      .cls-8 {
        fill: #f8ba8c;
      }

      .cls-9 {
        fill: #0b5b07;
      }

      .cls-10 {
        fill: #a1c9de;
      }

      .cls-11 {
        fill: #d1edfc;
      }
    </style>
  </defs>
  <path class="cls-11" d="m1737,1000c0,114.46-26.09,222.82-72.65,319.47-119.02,247.05-371.77,417.53-664.35,417.53s-545.33-170.48-664.35-417.53c-46.56-96.65-72.65-205.01-72.65-319.47,0-407.03,329.97-737,737-737s737,329.97,737,737Z"/>
  <path class="cls-10" d="m1594.73,1435.36c-134.11,182.9-350.56,301.64-594.73,301.64s-460.62-118.74-594.73-301.64h1189.46Z"/>
  <g class="cls-3">
    <path class="cls-2" d="m676.32,505.36h72.61l160.71,422.6h-84.52l-39.28-105.35h-147.61l-38.69,105.35h-84.52l161.3-422.6Zm94.64,259.51l-58.33-166.06-60.71,166.06h119.04Z"/>
  </g>
  <g class="cls-3">
    <rect class="cls-2" x="1236.7" y="639.4" width="78.89" height="17.8" transform="translate(2552.29 1296.6) rotate(180)"/>
    <g>
      <rect class="cls-2" x="1323.85" y="1177.55" width="173.86" height="17.8" transform="translate(2821.55 2372.91) rotate(180)"/>
      <rect class="cls-2" x="1149.67" y="1043.51" width="125.53" height="17.8" transform="translate(2424.86 2104.82) rotate(180)"/>
      <rect class="cls-2" x="1046.81" y="1043.51" width="83.3" height="17.8" transform="translate(2176.92 2104.82) rotate(180)"/>
      <rect class="cls-2" x="1412.43" y="706.42" width="83.3" height="17.8" transform="translate(2908.17 1430.65) rotate(180)"/>
      <rect class="cls-2" x="829.24" y="1043.51" width="201.12" height="17.8" transform="translate(1859.59 2104.82) rotate(180)"/>
      <rect class="cls-2" x="1366.5" y="773.94" width="129.23" height="17.8" transform="translate(2862.23 1565.68) rotate(180)"/>
      <rect class="cls-2" x="1339.43" y="639.4" width="156.31" height="17.8" transform="translate(2835.16 1296.6) rotate(180)"/>
      <rect class="cls-2" x="1166.6" y="1177.55" width="123.42" height="17.8" transform="translate(2456.63 2372.91) rotate(180)"/>
      <rect class="cls-2" x="1166.6" y="976.49" width="123.42" height="17.8" transform="translate(2456.63 1970.78) rotate(180)"/>
      <rect class="cls-2" x="1299" y="909.47" width="52.73" height="17.8" transform="translate(2650.74 1836.73) rotate(180)"/>
      <rect class="cls-2" x="1286.02" y="841.46" width="118.45" height="17.8" transform="translate(2690.49 1700.71) rotate(180)"/>
      <rect class="cls-2" x="1104.6" y="841.46" width="163.52" height="17.8" transform="translate(2372.71 1700.71) rotate(180)"/>
      <rect class="cls-2" x="1372.31" y="908.97" width="123.42" height="17.8" transform="translate(2868.05 1835.75) rotate(180)"/>
      <rect class="cls-2" x="1422.5" y="841.46" width="73.23" height="17.8" transform="translate(2918.23 1700.71) rotate(180)"/>
      <rect class="cls-2" x="1205.05" y="908.97" width="69.09" height="17.8" transform="translate(2479.19 1835.75) rotate(180)"/>
      <rect class="cls-2" x="1372.81" y="505.36" width="120.86" height="17.8" transform="translate(2866.47 1028.51) rotate(180)"/>
      <rect class="cls-2" x="1372.81" y="1043.51" width="123.42" height="17.8" transform="translate(2869.03 2104.82) rotate(180)"/>
      <rect class="cls-2" x="1049.74" y="706.42" width="337.34" height="17.8" transform="translate(2436.82 1430.65) rotate(180)"/>
      <rect class="cls-2" x="936.24" y="572.38" width="557.42" height="17.8" transform="translate(2429.9 1162.56) rotate(180)"/>
      <rect class="cls-2" x="1320.29" y="976.49" width="175.94" height="17.8" transform="translate(2816.52 1970.78) rotate(180)"/>
      <rect class="cls-2" x="522.27" y="1177.55" width="149.51" height="17.8" transform="translate(1194.05 2372.91) rotate(180)"/>
      <rect class="cls-2" x="889.36" y="505.36" width="222.09" height="17.8" transform="translate(2000.81 1028.51) rotate(180)"/>
      <rect class="cls-2" x="882.47" y="1177.55" width="250.9" height="17.8" transform="translate(2015.85 2372.91) rotate(180)"/>
      <rect class="cls-2" x="451.61" y="1110.53" width="69.09" height="17.8" transform="translate(972.31 2238.87) rotate(180)"/>
      <rect class="cls-2" x="391.45" y="1043.51" width="322.1" height="17.8" transform="translate(1105.01 2104.82) rotate(180)"/>
      <rect class="cls-2" x="702.59" y="1177.55" width="157.24" height="17.8" transform="translate(1562.41 2372.91) rotate(180)"/>
      <rect class="cls-2" x="671.78" y="976.49" width="367.48" height="17.8" transform="translate(1711.03 1970.78) rotate(180)"/>
      <rect class="cls-2" x="1075.82" y="976.49" width="57.56" height="17.8" transform="translate(2209.19 1970.78) rotate(180)"/>
      <rect class="cls-2" x="1407.66" y="1110.53" width="90.04" height="17.8" transform="translate(2905.37 2238.87) rotate(180)"/>
      <rect class="cls-2" x="1356.48" y="1110.53" width="29.07" height="17.8" transform="translate(2742.04 2238.87) rotate(180)"/>
      <rect class="cls-2" x="1305.45" y="1110.53" width="29.67" height="17.8" transform="translate(2640.58 2238.87) rotate(180)"/>
      <rect class="cls-2" x="732.25" y="1043.51" width="78.62" height="17.8" transform="translate(1543.13 2104.82) rotate(180)"/>
      <rect class="cls-2" x="1136.54" y="505.36" width="210.28" height="17.8" transform="translate(2483.36 1028.51) rotate(180)"/>
      <rect class="cls-2" x="536.53" y="1110.53" width="541.07" height="17.8" transform="translate(1614.12 2238.87) rotate(180)"/>
      <rect class="cls-2" x="1101.33" y="1110.53" width="57.56" height="17.8" transform="translate(2260.22 2238.87) rotate(180)"/>
      <rect class="cls-2" x="1295.07" y="1043.51" width="57.56" height="17.8" transform="translate(2647.7 2104.82) rotate(180)"/>
      <rect class="cls-2" x="1158.89" y="773.45" width="182.26" height="17.8" transform="translate(2500.04 1564.69) rotate(180)"/>
      <rect class="cls-2" x="1180.84" y="1110.53" width="100.28" height="17.8" transform="translate(2461.97 2238.87) rotate(180)"/>
    </g>
  </g>
  <g>
    <rect class="cls-2" x="406.42" y="1412.28" width="1183.31" height="21.63"/>
    <g>
      <path class="cls-6" d="m1097.76,775.97s50.77-148.9-46.12-195.06c-96.89-46.16-179.16,20.57-194.7,56.67-15.54,36.11-11.43,101.76,1.83,147.55,13.25,45.78,11.32,115.48-17.47,138.79-28.79,23.31-64.5,62.02-62.73,140.82,1.1,48.89,192.37-125.05,192.37-125.05l126.81-163.71Z"/>
      <path class="cls-9" d="m961.62,953.1s-79.64,17.65-111.25,36.12c-31.61,18.47-101.81,103.45-101.81,139.98s306.98,70.67,306.98,70.67l58.19,212.43s155.16-37.87,173.64-69.27c18.47-31.4-58.94-256.47-72.18-302.02-13.51-46.46-69.13-78.86-133.78-87.92-64.65-9.06-119.79,0-119.79,0Z"/>
      <path class="cls-8" d="m1075.89,952.37s-1.79,96.79-78.55,99.66c-76.76,2.87-60.79-92.84-60.79-92.84,0,0,56.15-22.75,139.34-6.83Z"/>
      <path class="cls-6" d="m1108.37,660.28s27.15,155.68-50.18,268.13c-80.09,116.47,50.18-268.13,50.18-268.13Z"/>
      <path class="cls-8" d="m1059.41,883.93s-5.34,46.3,3.58,75.1c8.91,28.79-117.38,29.59-117.3,5.91.08-26.9,12.92-49.37.82-95.47-12.1-46.1,112.9,14.46,112.9,14.46Z"/>
      <path class="cls-7" d="m961.45,889.83s39.87,41.54,90.86,4.34c0,0-4.21,26.55-40.88,29.98-36.67,3.43-49.98-34.31-49.98-34.31Z"/>
      <path class="cls-8" d="m1011.39,606.31s100.77,29.82,86.37,169.67c-14.4,139.85-80.21,132.65-86.37,133.68-6.17,1.03-84.32,6.17-109-163.5-24.68-169.67,109-139.85,109-139.85Z"/>
      <path class="cls-6" d="m985.37,668.66s54.76,87.1,112.39,107.31c0,0,31.47-146.16-98.5-176.78-129.97-30.62-109.61,147.62-99.91,195.16,0,0,27.07-69.93,86.03-125.69Z"/>
    </g>
    <polygon class="cls-4" points="1110.08 1094.56 1144.25 1412.28 694.46 1412.28 660.28 1094.56 1110.08 1094.56"/>
    <path class="cls-4" d="m1133.42,1401.38h-453.73l-34.6-321.64h453.74l34.59,321.64Zm-450.21-3.92h445.85l-33.75-313.79h-445.85l33.75,313.79Z"/>
    <path class="cls-2" d="m930.17,1248.29c4.04,19.77-5.18,38.34-20.59,41.49-15.41,3.15-31.18-10.32-35.22-30.08-4.04-19.76,5.18-38.34,20.59-41.49,15.41-3.15,31.18,10.32,35.22,30.09Z"/>
    <rect class="cls-4" x="1101.73" y="1380.34" width="83.93" height="31.94" transform="translate(2287.39 2792.62) rotate(180)"/>
  </g>
  <g>
    <path class="cls-4" d="m1221.81,565.82h251.42c19.58,0,35.45,15.87,35.45,35.45v137.63c0,19.58-15.87,35.45-35.45,35.45h-170.4s-53.04,56.41-53.04,56.41v-56.41s-27.98,0-27.98,0c-19.58,0-35.45-15.87-35.45-35.45v-137.63c0-19.58,15.87-35.45,35.45-35.45Z"/>
    <path class="cls-2" d="m1345.73,609.85c-33.79,0-61.28,27.49-61.28,61.28s27.49,61.28,61.28,61.28,61.28-27.49,61.28-61.28-27.49-61.28-61.28-61.28Zm-21.8,103.38c1.33,2.99,2.8,5.65,4.37,7.98-6.14-2.14-11.76-5.38-16.64-9.49,2.9-2.44,6.03-4.55,9.33-6.3.87,2.75,1.85,5.37,2.94,7.81Zm4.69-11.09c5.44-1.85,11.21-2.82,17.12-2.82s11.68.97,17.12,2.81c-4.2,13.71-10.88,22.02-17.12,22.02s-12.92-8.31-17.12-22.01Zm-7.62-65.29c-3.3-1.75-6.43-3.85-9.33-6.3,4.88-4.1,10.51-7.34,16.64-9.49-1.57,2.32-3.04,4.99-4.37,7.98-1.09,2.44-2.06,5.06-2.94,7.81Zm24.74-18.73c6.24,0,12.92,8.31,17.12,22.02-5.44,1.85-11.2,2.81-17.12,2.81s-11.68-.97-17.12-2.82c4.2-13.71,10.88-22.01,17.12-22.01Zm21.8,10.92c-1.33-2.99-2.8-5.65-4.37-7.98,6.14,2.14,11.76,5.38,16.64,9.49-2.9,2.44-6.03,4.55-9.33,6.3-.87-2.75-1.85-5.37-2.94-7.81Zm-21.8,22.17c6.61,0,13.05-1.04,19.15-3.04,1.16,5.68,1.93,12,2.15,18.83h-42.6c.22-6.83.98-13.16,2.15-18.83,6.1,2,12.55,3.04,19.15,3.04Zm21.3,24.06c-.22,6.83-.98,13.15-2.15,18.83-6.1-2-12.55-3.04-19.15-3.04s-13.05,1.04-19.15,3.04c-1.16-5.68-1.93-12-2.15-18.83h42.6Zm.5,37.96c1.09-2.44,2.06-5.06,2.94-7.81,3.3,1.75,6.43,3.85,9.33,6.3-4.88,4.1-10.51,7.34-16.64,9.49,1.57-2.32,3.04-4.99,4.37-7.98Zm5.11-15.97c1.5-6.84,2.4-14.28,2.64-21.99h23.3c-.9,11.67-5.6,22.3-12.87,30.64-4.01-3.47-8.4-6.36-13.08-8.65Zm2.64-30.25c-.24-7.71-1.14-15.15-2.64-21.99,4.67-2.29,9.07-5.18,13.08-8.65,7.26,8.34,11.96,18.96,12.87,30.64h-23.3Zm-69.55-30.64c4.01,3.46,8.4,6.36,13.08,8.65-1.5,6.84-2.4,14.28-2.64,21.99h-23.3c.9-11.67,5.61-22.3,12.87-30.64Zm-12.87,38.9h23.3c.24,7.71,1.14,15.15,2.64,21.99-4.67,2.29-9.06,5.18-13.08,8.65-7.26-8.34-11.96-18.97-12.87-30.64Z"/>
  </g>
  <g>
    <path class="cls-2" d="m1431.49,742.05c-1.1,0-2.14-.43-2.92-1.21l-10.64-10.64-4.29,7.97c-.72,1.34-2.11,2.17-3.63,2.17-1.78,0-3.36-1.13-3.93-2.83l-12.56-37.68c-.43-1.28-.22-2.63.56-3.72.78-1.08,2.03-1.73,3.35-1.73.44,0,.89.07,1.32.22l37.68,12.56c1.59.53,2.67,1.9,2.81,3.56.14,1.67-.68,3.2-2.16,3.99l-7.97,4.29,10.64,10.64c1.61,1.61,1.61,4.23,0,5.84l-5.33,5.33c-.78.78-1.82,1.21-2.92,1.21Z"/>
    <path class="cls-4" d="m1397.43,696.47c.22,0,.44.03.66.11l37.68,12.56c1.72.57,1.92,2.92.33,3.78l-7.97,4.29c-1.22.66-1.46,2.3-.48,3.28l10.64,10.64c.81.81.81,2.11,0,2.92l-2.66,2.66-2.66,2.66c-.4.4-.93.61-1.46.61s-1.06-.2-1.46-.61l-10.64-10.64c-.41-.41-.94-.61-1.46-.61-.72,0-1.44.38-1.82,1.09l-4.29,7.97c-.4.73-1.11,1.09-1.81,1.09-.83,0-1.66-.49-1.97-1.41l-12.56-37.68c-.46-1.39.61-2.72,1.95-2.72m0-4.13c-1.98,0-3.86.97-5.02,2.58-1.16,1.61-1.47,3.69-.85,5.58l12.56,37.68c.85,2.54,3.21,4.24,5.89,4.24,2.28,0,4.37-1.25,5.45-3.26l2.98-5.53,8.68,8.68c1.17,1.17,2.73,1.82,4.38,1.82s3.21-.64,4.38-1.82l2.66-2.66,2.66-2.66c1.17-1.17,1.82-2.73,1.82-4.38s-.64-3.21-1.82-4.38l-8.68-8.68,5.53-2.98c2.18-1.17,3.45-3.52,3.24-5.99-.21-2.47-1.87-4.56-4.22-5.35l-37.68-12.56c-.64-.21-1.3-.32-1.97-.32h0Z"/>
  </g>
  <g>
    <g>
      <path class="cls-5" d="m971.79,787.25c0,4.87-3.95,8.81-8.81,8.81s-8.81-3.95-8.81-8.81,3.95-8.81,8.81-8.81,8.81,3.95,8.81,8.81Z"/>
      <path class="cls-5" d="m1053.4,787.25c0,4.87-3.95,8.81-8.81,8.81s-8.81-3.95-8.81-8.81,3.95-8.81,8.81-8.81,8.81,3.95,8.81,8.81Z"/>
    </g>
    <path class="cls-1" d="m999.36,806.45v11.89c.02,3,2.68,5.25,5.52,4.65l6.33-1.33"/>
    <path class="cls-5" d="m989.16,759.94l-53.42,6.42s4.29-14.17,26.12-16.6c21.83-2.43,27.31,10.18,27.31,10.18Z"/>
    <path class="cls-5" d="m1019.96,759.94l53.42,6.42s-4.29-14.17-26.12-16.6c-21.83-2.43-27.31,10.18-27.31,10.18Z"/>
    <path class="cls-2" d="m977.08,836.63h53.93s.91,20.08-27.04,18.9c-27.95-1.18-26.89-18.9-26.89-18.9Z"/>
  </g>
</svg>