<?xml version="1.0" encoding="UTF-8"?>
<svg id="Layer_1" data-name="Layer 1" xmlns="http://www.w3.org/2000/svg" xmlns:xlink="http://www.w3.org/1999/xlink" viewBox="0 0 2000 2000">
  <defs>
    <style>
      .cls-1 {
        fill: #ddd;
      }

      .cls-2 {
        fill: #fff;
      }

      .cls-3 {
        opacity: .6;
      }

      .cls-4 {
        fill: #141a46;
      }

      .cls-5 {
        fill: #eaeaea;
      }

      .cls-6 {
        fill: #2b2b2b;
      }

      .cls-7 {
        fill: #fbfbfb;
      }

      .cls-8 {
        fill: #fca990;
      }

      .cls-9 {
        clip-path: url(#clippath);
      }

      .cls-10 {
        fill: #ed985f;
      }

      .cls-11 {
        fill: none;
      }

      .cls-12 {
        fill: #f8ba8c;
      }

      .cls-13 {
        fill: #352e35;
      }

      .cls-14 {
        fill: #f7f6fb;
      }

      .cls-15 {
        fill: #0b5b07;
      }

      .cls-16 {
        fill: #a1c9de;
      }

      .cls-17 {
        fill: #d1edfc;
      }

      .cls-18 {
        fill: #cadff5;
      }
    </style>
    <clipPath id="clippath">
      <path class="cls-11" d="m1737,1000c0,114.46-26.09,222.82-72.65,319.47-119.02,247.05-371.77,417.53-664.35,417.53s-545.33-170.48-664.35-417.53c-46.56-96.65-72.65-205.01-72.65-319.47,0-407.03,329.97-737,737-737s737,329.97,737,737Z"/>
    </clipPath>
  </defs>
  <g class="cls-9">
    <path class="cls-17" d="m1737,1000c0,114.46-26.09,222.82-72.65,319.47-119.02,247.05-371.77,417.53-664.35,417.53s-545.33-170.48-664.35-417.53c-46.56-96.65-72.65-205.01-72.65-319.47,0-407.03,329.97-737,737-737s737,329.97,737,737Z"/>
    <g class="cls-3">
      <g>
        <path class="cls-7" d="m757.9,1153.44s4.93,7.4,0,7.89c-4.93.49-2.96-1.48-5.92,2.96-2.96,4.44-.98,5.42-6.4,6.9-5.42,1.48-6.9.98-9.86,3.45-2.97,2.47-4.94,2.96-2.97,8.38,1.97,5.43,5.43,8.88,3.95,11.35-1.48,2.46-2.58,7.39-4.74,10.36-2.16,2.96-1.78,3.95,0,8.87,1.78,4.93-2.66,10.84,2.28,11.83,4.93.99,7.31,2.47,11.05,0,3.73-2.46,6.7,1.48,8.17-7.88,1.49-9.37,4.88-14.79,6.64-22.19,1.75-7.4,8.66-12.33,5.7-17.75-2.97-5.42-5.91-8.87-2.97-8.87s5.9-1.48,3.7-3.45c-2.21-1.97-.73-4.44-2.7-8.87-1.97-4.44-7.62-6.26-5.92-2.96Z"/>
        <path class="cls-7" d="m702.18,807.97s9.86-1.15,7.41,2.3c-2.48,3.45.39,3.45-3.51,4.44-3.9.99-6.85-5.42-6.85,0s3.45,7.89,0,8.87c-3.46.98-1.49-1.48-6.41,0-4.93,1.48-6.41.24-6.41.24,0,0-2.96-5.94,0-7.78,2.96-1.83,9.43-8.24,11.13-4.79,1.7,3.45,4.65-3.29,4.65-3.29Z"/>
        <g>
          <path class="cls-7" d="m629.21,875.86c-.62.92-1.8-.46-3.21-1.87,1.54,6.15,4.14.46,3.21,1.87Z"/>
          <path class="cls-7" d="m1491.11,625.57c-1-2.67-1.48-10.06-5.92-10.55-4.44-.5-4.93-2.96-8.87,0-3.94,2.96-5.42,4.93-8.39,3.45-2.95-1.48.99-11.34-1.97-11.83-2.96-.5-32.05-24.66-37.95-27.12-5.92-2.47-1.49-3.45-10.35-4.93-8.89-1.48-.51-4.44-10.36-3.94-9.87.49-16.29-5.05-15.79-.06.5,4.99,1.49,4.99.5,9.43-1,4.43-2.96,12.33-5.92,10.85-2.96-1.48-2.47-4.93-5.43-8.87-2.96-3.94-1.48-10.35-7.89-6.9-6.41,3.45-1.97.99-10.36,1.48-8.36.49-11.83-3.45-13.8,0-1.97,3.45-4.93,7.88-4.93,9.37s-4.93,6.9-4.93,6.9l.98-8.39s1.98-10.35,0-8.87c-1.97,1.48-6.4,1.48-5.42-4.44.98-5.92,11.83-12.33-.99-13.31-12.82-.99-16.28.98-22.68,0-6.41-.99-9.86-2.05-11.83-.28-1.97,1.76-4.93.77-5.43-3.66s-1.48-2.46-4.93-4.93c-3.45-2.46-3.94-4.93-2.97-6.41.99-1.48-1.47-5.42-10.35-6.41-8.88-.98-1.96,5.42-8.88-.98-6.9-6.41-7.39-10.85-13.8-10.85s-10.36-5.92-13.32-2.47c-2.97,3.45,1.97.5-2.97,3.45-4.92,2.95-7.39,1.97-7.88,5.92-.5,3.94.49,6.41,2.47,5.42,1.97-.99.98-.99.49,2.47-.49,3.45-.99,3.94-.49,6.9.49,2.95-1.98,5.42-4.46,3.45-2.44-1.97-1.46-2.46-5.4-1.97-3.95.49-1.98-11.34-9.87-4.93-7.89,6.41-7.4,10.84-10.36,6.41-2.96-4.44-1.98-11.34-5.42-7.89-3.45,3.45-3.45,4.93-5.92,9.37-2.47,4.43-.99,7.89-4.45,6.41-3.44-1.48-5.42-3.94-6.89-8.87-1.49-4.93-8.38-6.41-4.94-9.86,3.45-3.45,4.94-2.46,3.45-7.4-1.48-4.93,1.98-6.1-1.48-9.95-3.45-3.85-6.9-13.22-9.37-8.78-2.46,4.44,1.98,7.89-4.93,3.95-6.9-3.95-5.43-11.83-8.87-7.39-3.45,4.43-6.41,7.39-6.9,10.85-.5,3.45-3.95,4.93-5.43,5.92-1.48.98,1.48-1.48-6.41-1.98-7.9-.49-7.9,0-12.33-4.93-4.43-4.93,6.91-4.44,1.49-7.89-5.44-3.45-5.44-5.09-9.87-3.29-4.43,1.81-12.83-3.3-14.79-.74-1.97,2.55-2.46-2.53-6.41-.73-3.95,1.8-7.89-2.1-10.84-.39-2.96,1.7-4.45,6.14-4.45,6.14,0,0-3.44,5.42-5.91,6.41-2.46.98-14.3,3.45-12.81-1.48,1.47-4.93,3.93-3.45,6.9-5.92,2.96-2.46,4.94-2.32,6.91-5.6,1.96-3.27,3.45-4.75,6.91-7.22,3.44-2.46,6.4-5.42,9.36-6.9,2.97-1.48,5.43-5.42,5.91-9.86.51-4.44,3.95-7.89,1.5-9.86-2.47-1.97-1.5-8.38-5.43-13.81-3.95-5.43,2.46-11.34-4.93-11.34h-12.33c-6.9,0-5.42,2.47-8.86,3.45-3.46.99-6.41,4.93-5.92.99.48-3.94,9.37-5.42,2.95-8.38-6.39-2.95-6.9-1.97-9.37-3.45-2.47-1.48,0-2.46,2.47-5.43,2.47-2.96,8.38-3.94,1.48-6.41-6.9-2.47-8.88-10.35-11.84-4.93-2.96,5.42-5.92,7.4-8.39,10.85-2.46,3.45-5.42,13.81-5.42,13.81l2.96,6.9s5.43,1.48,2.46,2.96c-2.95,1.48-3.94-.5-8.38-.5s-9.87-4.44-8.87-.49c.99,3.95,4.93,10.85-3.94,9.86-8.89-.98-2.48-9.86-8.39-9.37-5.92.5-9.86,5.42-11.83,5.92-1.97.5-6.91,1.97-9.86,4.44-2.96,2.47-10.85,3.94-12.82,7.4-1.98,3.45-10.35,7.4-9.86,10.85,0,0-1.97,1.97-4.93,4.93-2.96,2.96-5.28,2.96-4.11,5.42,1.15,2.47,7.07.49,5.59,5.92-1.48,5.43,1.48,6.41-2.96,7.4-4.44.99-3.46,0-8.39,1.48-4.93,1.48-3.94.98-10.35,2.46-6.41,1.48-25.14-4.44-18.73,1.48,6.4,5.91.98,10.85,2.96,13.8,1.97,2.96,6.41,2.96,7.89,5.92,1.47,2.96,5.92,4.44,5.92,6.9s3.45-6.41,3.94.49c.5,6.91,3.45,6.91,1.97,9.87-1.47,2.95-1.47.49-1.47,5.42s3.44,11.83-.99,8.88c-4.44-2.96-3.45-1.49-3.94-7.89-.5-6.41,1.97-.49-.5-6.41-2.46-5.92-.98-1.98-4.93-6.9-3.95-4.93-1.48-7.89-6.91-7.89s-8.87-6.41-10.34-1.97c-1.48,4.43,5.41,9.86-1.98,7.39-7.39-2.46-6.9,4.93-7.39-2.46-.5-7.4-4.43-18.74-7.4-16.77-2.95,1.97-4.43,2.96-2.46,7.4,1.97,4.44,5.92,5.42,1.48,9.86-4.43,4.44-6.41,1.47-6.41,5.91s-4.44,6.41-1.97,8.38c2.47,1.98,9.86,9.86,7.4,11.84-2.46,1.97-4.44,1.97-3.94,5.91.49,3.95-.99,8.38,1.48,9.87,2.46,1.48,4.93.98,8.87,1.48,3.95.49,6.41-1.97,7.89,3.45,1.48,5.42,5.91,4.44,4.44,9.86-1.48,5.42-4.44.49-1.48,5.42,2.95,4.93.49,10.36-2.47,5.92-2.96-4.44,1.97-10.36-1.97-13.81-3.95-3.45-2.96-7.4-6.41-3.45-3.45,3.94-1.97,6.4-4.44,11.33-2.46,4.93-.49,7.89-4.43,9.86-3.95,1.97-3.46,9.37-9.38,10.85-5.9,1.48-7.39.49-12.31-1.48-4.95-1.97-6.41-7.4-1.98-7.4s8.87,7.4,10.36,2.96c1.47-4.44,4.93-6.41,5.91-9.87,1-3.45,1.98-5.91,2.47-10.85.5-4.93,3.94,1.48.5-4.93-3.45-6.41-1.48-4.44-2.47-11.83-.98-7.4,0-6.9-.98-12.82-1-5.92.48-14.79-2.47-15.78-2.96-.99-4.93-1.97-3.94-4.44.99-2.47.99-3.45,3.94-5.42,2.95-1.97,7.89-2.46,4.44-7.89-3.46-5.43,0-7.89-5.43-7.89s-7.9-3.94-11.34.49c-3.45,4.44,0,7.89-3.45,12.32-3.45,4.44-2.95,10.85-6.41,12.33-3.45,1.48-5.42-.49-5.42,4.93s-.51,4.93.98,8.38c1.47,3.45,2.46,6.42,1.47,8.88-.98,2.47-3.44,6.9-1.47,7.89,1.96.99,5.91-1.48,6.41,1.98.49,3.45,3.45.98,4.43,5.91.99,4.93,2.96,8.87-.51,9.86-3.43.98-4.92,1.48-8.37-3.45-3.45-4.93-5.9-7.89-10.35-10.36-4.44-2.46-3.95-2.46-8.87-5.42-4.93-2.96-6.91-4.93-9.86-3.94-2.97.98-8.4-6.91-7.9-.99.5,5.92.99,6.9.99,10.85s1.97,5.42-2.47,6.9c-4.44,1.48-1.97-4.44-5.42-3.45-3.46.99-1.48,0-5.43,3.95-3.94,3.94-3.44-.49-8.37.49-4.94.99-2.96,1.97-6.91,4.44-3.94,2.47.5,5.43-3.94,2.47-4.43-2.96.98-4.44-.99-7.89-1.96-3.45,1.97-5.91-1.96-3.45-3.95,2.47-3.46,2.96-7.41,5.92-3.94,2.96,3.46,0-3.94,2.96-7.39,2.96-7.39,0-10.36,3.95-2.96,3.95-6.4,2.96-7.89,6.41-1.48,3.45-.99,8.87-5.42,9.37-4.44.49-10.36.49-8.38-5.92q1.97-6.41,4.93-9.37c2.96-2.95.99-5.42-1.48-5.42s-4.44-3.95-6.4-.99c-1.97,2.96-2.47,5.92-2.47,9.37s-1.48,8.38-1.48,8.38c0,0,3.46,2.46,3.46,5.42s0,4.93-1.98,7.4c-1.98,2.47-3.45-5.92-5.92-3.95-2.46,1.97-5.42.98-5.42,3.45s-3.45,3.95-6.4,4.44c-2.97.49-2.47,1.97-4.94,5.42-2.46,3.45,5.43.98,2.96,6.41-2.47,5.42-1.48,4.44-7.89,3.46-6.41-.99-5.92-5.42-8.88-5.42s-5.92,1.97-2.46,4.93c3.44,2.96,8.87,1.48,6.4,5.92-2.47,4.43-4.93,7.39-8.87,3.45-3.95-3.95-.49.98-4.93-6.91-4.43-7.89-4.43-4.93-4.43-10.85s1.47-10.36-2.47-11.83c-3.95-1.48-8.88-1.48-8.88-6.41s1.48-4.93,3.95-1.48c2.47,3.45,4.44,2.96,8.87,3.95,4.44.98.98,2.96,9.37,4.43,8.38,1.48,8.87,5.92,13.81,2.47,4.93-3.45,14.79-.98,12.33-8.88-2.46-7.89,6.9-10.35-1.48-14.79-8.38-4.44-6.41-7.89-12.82-11.84-6.41-3.94-18.24-20.21-21.7-14.79-3.45,5.42-6.41,8.88-10.84,4.44-4.44-4.44-6.9-5.42-9.86-7.89-2.96-2.47-6.9-1.48-4.93-6.91,1.96-5.42.49-7.4-2.97-7.4s-8.38-5.42-13.3-3.45c-4.93,1.97-13.32-3.94-17.76,5.43-4.43,9.37-3.45,10.35-10.35,10.85-6.9.49-18.73,6.41-22.19,12.82-3.45,6.41-10.84,3.94-13.31,8.87-2.47,4.93-6.41,5.92-6.41,8.38s.49,0,5.91-1.48c5.43-1.48,11.84-8.87,9.86-2.46-1.96,6.4-3.45,7.89-6.41,11.83-2.96,3.94-6.41,5.42-7.4,10.35-.99,4.93-3.64,6.9-5.77,8.38-2.11,1.48-2.61,2.46-2.61,7.39s-.49,7.4-3.45,8.38c-2.97.99-2.97-6.41-2.97.99s3.46,5.92,0,7.39c-3.43,1.48-4.91-.99-6.39,2.47-1.48,3.45-9.38,2.47-10.36,6.41-.99,3.95-4.93,5.93-6.41,8.39-1.48,2.47-3.94,4.93-3.46,7.4.5,2.47-1.96,12.82,0,15.78,1.98,2.96-1.96,6.91-3.94,11.34-1.97,4.44,0,3.45,2.95,7.89,2.97,4.43,3.46,8.87,9.38,4.93,5.92-3.94,7.89-10.36,10.85-10.36s2.95-1.97,4.92-4.44c1.98-2.46,4.44-6.9,4.94,1.48.49,8.38-.99,6.41,2.46,10.35,3.46,3.95,5.23,6.41,4.1,10.36-1.13,3.94-4.28,3.45,0,6.9q4.29,3.46,2.31,6.42c-1.97,2.95,0,10.84,3.94,4.93,3.95-5.92,4.94-10.84,8.38-10.84s9.38-2.47,8.87-5.92c-.49-3.45.99-10.85,2.46-11.34,0,0,7.89-3.45,7.89-8.38s3.94-4.43,0-7.89c-3.94-3.45-4.44-1.97-6.9-5.92-2.47-3.94,6.4-8.87,2.95-11.83-3.46-2.96-5.42-2.96-2.95-8.87,2.46-5.92-2.47-2.47,2.46-5.92,4.93-3.45,6.41-1.48,8.87-6.41,2.46-4.93,3.93-7.4,5.91-7.4s6.41-4.44,4.94-5.42c-1.48-.98-1.48-12.32,1.47-13.31,2.96-.99,3.95-2.47,7.89-1.97,3.95.49,5.92-.49,7.39,2.96,1.49,3.45,4.94,6.9,2.47,9.37-2.47,2.47-2.47,2.96-6.9,6.9-4.43,3.95-4.44,4.44-7.89,7.4-3.45,2.96-.99,5.42-1.97,6.9-.99,1.48-.49-2.46-3.45,1.98-2.96,4.44-4.93,5.42-.99,8.87,3.95,3.45,3.45,8.87,1.48,10.36-1.98,1.48-7.9-3.45-1.98,1.48,5.92,4.93,12.82,4.43,11.34,7.89-1.47,3.45-4.93,5.42,1.98,3.45,6.9-1.97,5.9-3.94,11.82-5.42,5.92-1.48,7.9-.99,10.86-1.48,2.95-.49,5.92-.98,4.43,3.45-1.48,4.44-.98,5.92-5.91,7.4-4.94,1.48-2.96-.49-9.87.98-6.91,1.48-7.89-1.48-9.86.99-1.97,2.46-5.92,2.96-1.97,5.42,3.95,2.47,6.4-3.45,3.95,2.47-2.47,5.92-1.48,8.87-.99,11.34.5,2.46-.99,6.91-4.93,4.43-3.95-2.46-.99-9.86-5.43-7.4-4.43,2.47-1.48,5.42-6.41,8.88-4.94,3.45-3.46.99-3.46,7.4s2.97,8.87-1.97,10.35c-4.93,1.48-10.84,1.48-10.84,1.48,0,0-7.39-1.48-13.31,2.47-5.91,3.95-9.37,3.45-11.84,3.45s.31-3.94-4.29-2.95c-4.58.98-12.98,1.97-12.47-2.47.49-4.44-1-3.95,2.46-7.89,3.46-3.94,1.49-5.43,0-8.88-1.48-3.45.5-3.45,0-5.91-.49-2.46.5-8.87-2.96-5.92-3.44,2.96-3.93,6.9-5.9,8.38-1.98,1.48-2.47,4.93-2.47,8.88s3.95,7.4,1.97,9.86c-1.97,2.46.99,4.44-2.46,6.9-3.46,2.47-7.89,3.95-10.36,4.93-2.47.99-2.96.99-6.91,4.93-3.94,3.94.99,7.4-4.93,10.36-5.92,2.96-13.81,2.96-13.81,4.93s.98,5.42-1.97,6.9c-2.96,1.48-2.96,1.97-6.91,3.95-3.95,1.97-6.9-2.96-6.9,0s3.94,2.47.49,6.41c-3.45,3.94-7.89-3.46-9.38.49-1.48,3.95-8.86.99-6.9,2.96,1.97,1.97.49,6.91,2.96,6.91s5.43-3.45,6.41.49c.99,3.95,1.97,4.44,3.93,6.9,1.97,2.47,3.46,2.96,3.46,6.9s0,5.42.99,7.89c.98,2.47,2.96,4.93,0,6.9-2.96,1.97-1.97,0-5.92,1.48-3.95,1.48-4.44-.98-7.89-.49-3.45.49-2.96,1.48-8.88.49-5.91-.98-6.4-6.91-10.35-3.95-3.95,2.96-4.93,4.43-6.9,6.41-1.97,1.97-3.94,3.45-1.48,7.89,2.47,4.43.5,6.41,0,7.88-.49,1.48,1.98,3.45.5,6.41-1.47,2.96-3.95,5.42-2.47,8.38,1.48,2.96,4.93,2.96,3.95,5.92-.99,2.95-.5,6.9,2.46,5.92,2.96-.98,5.92-1.48,8.88-.98,2.96.49,3.45,5.92,7.4,5.42,3.95-.49,3.46-.98,7.89-2.46,4.44-1.48,7.4-.98,9.87-3.45,2.46-2.46,7.4-5.42,7.4-5.42,0,0,3.45-1.98,3.45-4.44s-2.96-2.47-.98-6.9c1.97-4.44,3.94-2.47,6.4-7.89,2.47-5.42,6.42-3.09,8.38-4.99,1.97-1.91,2.96.06,2.47-5.36-.5-5.42-1.48-5.92,1.48-6.9,2.96-.99,2.96-1.48,7.89-.5,4.93.99,4.93,1.97,7.88,1.48,2.96-.49,7.39-2.96,11.84-5.42,4.44-2.47,6.9-3.45,7.39.49.5,3.95-3.93,0,.5,3.95,4.44,3.94,6.41,3.45,6.9,7.89.5,4.44,1.78,6.41,3.6,6.41s5.28-.99,7.74,1.48c2.47,2.47,9.37,2.47,9.37,2.47,0,0,.99.98.99,5.42s4.44,5.42,2.47,7.89c-1.99,2.47-3.46,6.41-.99,5.92,2.47-.5,9.37-9.37,6.9-9.37s-6.41-3.46-3.94-5.92c2.47-2.46,1.97-3.45,5.43-1.97,3.45,1.48,6.41-6.41,1.48-3.94-4.93,2.47-6.41-3.09-8.87-4.01-2.47-.92.49-3.39-1.48-3.88-1.98-.49-6.91,2.47-9.86-1.97-2.97-4.44-.49-4.44-3.45-6.41-2.97-1.97-4.64-3.45-5.77-5.92-1.13-2.47-1.82-7.4,0-8.88,1.82-1.48,4.78-6.9,6.26-3.94,1.48,2.95-1.47,3.94,3.46,5.42,4.93,1.48,2.46,4.44,5.43,6.91,2.95,2.47,6.41,3.95,8.37,4.93,1.98.98.99.98,4.93,4.44,3.95,3.45,7.41,0,7.9,6.41.49,6.41-.99,9.37,1.47,11.83,2.46,2.47,5.92,2.96,4.94,4.93-.99,1.97,4.93,6.91,4.93,6.91-3.95,2.96-2.96,6.9-.5,8.38,2.47,1.48,8.38,5.92,8.38,3.46s-.49-6.91-.49-6.91l-4.94-3.45s2.47-2.96,4.94-1.97c.92.37,1.85,1.23,2.7,2.08-.08-.33-.17-.69-.24-1.1-1.48-7.88,2.47-8.38-.99-11.34-3.46-2.96-3.46-6.9.99-5.91,4.44.98,4.44-.49,7.89,0,3.46.49,6.91,2.47,8.88,1.97,1.97-.49,4.93,0,6.91-1.48,1.97-1.48,6.4-2.95,5.91,0-.49,2.96-4.93,4.44-9.37,5.92-4.43,1.48-10.35.49-6.4,3.94,3.95,3.46,6.9,6.9,4.93,7.89-1.97.98-2.96,2.96,1.47,5.43,4.44,2.47,3.46.49,4.44,2.47.99,1.97,2.96.98,5.92,3.45,2.96,2.47,6.9,4.44,7.88,2.96l.99-1.48s-2.96-2.46,0-3.45c2.96-.99,1.48-1.98,4.43.99,2.96,2.95,2.96,5.42,5.92,4.44,2.96-.99,7.89-4.44,9.86-5.42,1.98-.99,5.43-5.42,6.42-.99.98,4.44.49,3.95-.99,7.89-1.35,3.62,3.92,5.16,3.29,7.3-.4.52-1.11,1.46-2.29,3.06-5.91,7.88-7.89,9.86-6.42,11.83,1.48,1.97.99,1.97-2.46,3.45-3.45,1.48-1.48,3.45-4.93,5.42-3.46,1.97-2.47,4.44-5.43.49-2.96-3.95-2.47-10.36-5.92-8.38-3.45,1.97-2.47,1.48-7.89,4.44-5.43,2.96-.99,7.89-5.43,2.96-4.44-4.93-6.41-3.95-9.37-4.93-2.96-.98-3.95-2.96-7.4-1.97-3.45.98-5.91.49-8.37.98-2.47.49-2.96-5.42-4.44-5.42s-4.93-3.03-6.9-2.75c-1.98.28-2.47,3.73-5.42,4.23-2.97.49-2.48-.49-3.45,2.46-.99,2.96.97,4.93-.99,7.4-1.97,2.47,4.44,5.42-3.95,2.47-8.38-2.96-1.47-3.95-10.84-4.44-9.38-.49-4.44-5.42-8.87-6.91-4.44-1.47,4.92.99-4.44-1.47-9.37-2.47-2.47.49-9.37-2.47-6.91-2.96-2.47,1.98-6.91-2.96l-4.43-4.93s-5.43-1.48-2.47-3.45c2.96-1.97,3.43-1.97,2.96-5.42-.49-3.45-1.98-4.44-.49-6.41,1.48-1.97,4.43-4.93,2.46-4.93s-3.46.5-5.92,1.48c-2.46.99-4.93,0-10.84,0s-4.93-2.46-9.37.99c-4.43,3.45-4.43,2.47-7.89.5-3.46-1.97.98-3.95-6.41.49-7.39,4.44,1.48,2.46-7.39,4.44-8.88,1.97-4.95.98-13.31,4.44-8.38,3.45-3.46,0-9.38,0s-5.92,5.42-10.35,1.48c-4.43-3.95-8.79-4.66-9.37-1.49,0,0-.99,7.4-2.97,8.87-1.97,1.48-2.95-.98-5.43,1.98-2.46,2.96-.98,3.45-4.92,5.92-3.95,2.47-14.8,7.4-11.35,10.85,3.46,3.45,8.87,7.88,3.95,8.87-4.92.98-4.43,3.94-7.89,7.4-3.46,3.45-7.4,1.97-7.4,4.43s-1.97,7.89-4.92,8.88c-2.96.98-4.45,2.96-3.95,5.92.49,2.96-6.41,8.88-6.41,10.85s2.96,3.94,0,5.92c-2.96,1.97-8.38,4.43-6.42,6.41,1.98,1.97,3.95,7.8,3.95,10.31s0,7.45-.98,10.89c-.98,3.45-5.77,15.29-3.38,16.76,2.4,1.48,6.83,10.85,6.83,12.33s.98,1.97,5.91,6.41c4.94,4.44,5.92,5.42,5.92,9.37s-.49,1.97,4.44,5.43c4.94,3.45,10.35,6.9,14.3,8.87,3.94,1.97,4.44,8.38,10.84,8.87,6.41.5,11.83,1.97,14.3,0,2.47-1.97,9.37,1.5,14.3.99,4.92-.5,7.89-3.46,10.85-4.94,2.96-1.48,7.88-5.43,7.88-5.43,0,0,4.45-.98,7.9-.98s10.85-3.95,12.82-.49c1.97,3.45,4.93,10.97,8.38,11.89,3.46.92,11.34-1.42,13.31,0,1.98,1.42,4.93.43,4.93,3.88s3.46,3.94,0,6.9c-3.44,2.96-3.44,4.44-2.46,6.41.98,1.97.98,3.45-1.48,5.92-2.47,2.47-3.45-2.46-2.47,2.47.99,4.93,3.95,7.39,4.44,10.85.49,3.45,2.47,4.93,6.41,7.39,3.94,2.46,5.91,1.97,6.41,5.91.49,3.95-.99,0,.49,3.95,1.48,3.95,5.91,1.97,4.93,5.92-.98,3.94,1.77,5.43.15,8.38-1.63,2.96-4.73,6.41.52,9.37,5.26,2.96,2.14,3.94,0,7.89-2.15,3.94-5.1,6.9-6.08,9.87-.99,2.95.49,6.9-.99,8.87-1.48,1.97-1.48,5.91-.99,9.86.5,3.95,6.41,4.44,6.9,8.87.5,4.44,0,6.91,1.98,8.88,1.97,1.96-1.28,4.43,2.08,8.88,3.35,4.43,4.33,6.4,3.84,11.34-.49,4.93-2.72,8.39.12,10.35,2.84,1.98,5.3,5.92,5.3,8.88s5.92,4.93,7.39,8.38c1.49,3.46.5,4.93,2.46,8.39,1.98,3.45,5.92,7.39,5.92,8.87s2.47,3.95,0,5.92c-2.46,1.97-2.97,2.95-1.48,5.42,1.48,2.47,3.45,5.42,5.92,6.41,2.47.99,4.43-.98,7.88-1.98,3.46-.98,3.46-1.47,8.38-2.46,4.94-.99,8.38-2.47,12.33,0,3.95,2.46,11.84.49,12.82-2.47.99-2.96,9.37-6.9,10.86-10.36,1.48-3.45,1.48-2.47,4.43-6.9,2.96-4.44,5.91-7.89,6.4-9.87.51-1.97,3.47.5,4.95-4.43,1.48-4.93,2.96-12.83,2.96-12.83,0,0-2.47-1.47,0-3.94,2.47-2.47,9.86-5.42,11.33-7.4,1.48-1.97,5.92-4.43,3.45-7.89-2.46-3.45-3.45-12.82-3.45-12.82,0,0-3.45-1.47-2.96-3.94.5-2.47,1.47-1.97,7.15-5.91,5.68-3.95,12.58-10.85,17.01-12.33,4.43-1.48,9.87-5.92,8.39-10.36-1.49-4.44,1.48-.98.25-8.87-1.24-7.89,4.32-12.82.31-16.27-4.01-3.45-4.01,9.86-5.98-4.43-1.97-14.3-1.97-14.79-3.94-14.79s-.49-2.96.99-5.42c1.47-2.47,1.98-11.83,5.43-16.76,3.45-4.93,4.93-4.93,10.85-9.86,5.91-4.93,20.71-15.29,25.64-19.72,4.93-4.44,11.34-8.87,10.36-12.82-.99-3.95,0-2.96,3.45-7.89,3.44-4.93,8.38-6.9,7.89-12.82-.5-5.92,3.95-14.3-2.46-10.35-6.42,3.95-9.87,4.43-11.35,4.43,0,0-1.48,3.95-1.48,6.41s.99,6.41-2.97,8.38c-3.94,1.97-2.95.99-9.36.99s-3.45-1.48-8.37-3.94c-4.94-2.46-7.4-.99-7.9-6.9-.49-5.92,1.98-4.44.99-8.88-.99-4.43-1.97-6.9-5.43-9.37-3.46-2.46-.98-6.9-5.91-7.4-4.94-.49-6.42.49-7.9-2.96-1.47-3.45-.97-12.82-5.9-14.79-4.94-1.97-9.87-10.36-9.38-15.78.5-5.42,6.4-5.92-.98-13.31-7.39-7.4-10.35-10.85-12.82-14.29-2.46-3.46-.49-10.85-5.42-14.8-4.94-3.94-5.43-8.38-3.46-8.38s2.96,2.47,5.92,5.92c2.96,3.45.51,1.48,2.96,3.45,2.47,1.97,5.91-8.38,5.91-8.38l-.99,9.37s2.96,1.48,3.95,5.42c.98,3.95,1.97,3.95,4.93,6.9,2.96,2.96,3.94,6.41,4.43,7.89.49,1.48,2.96,2.47,4.93,3.45,1.98.99,4.94,1.48,4.94,6.9s-5.92,4.44-.99,9.86c4.93,5.42,9.87,5.33,10.36,11.29.49,5.96,2.95,10.4,4.92,12.38,1.97,1.97,3.45,3.45,3.95,7.89.5,4.44.87,7.4,3.63,9.86,2.78,2.47,4.75,5.43,8.21,2.96,3.45-2.47,5.63-5.92,10.21-6.41,4.57-.49,11.97-2.96,15.42-3.95,3.46-.98,8.88,1.48,10.84-3.45,1.97-4.93,3.95-5.43,5.93-6.41,1.97-.98,3.44,0,8.37-2.96,4.93-2.96,5.92-1.48,9.87-4.44,3.94-2.96,7.39,3.36,8.38-5.47.99-8.83,3.95-7.35,5.43-11.79,1.47-4.44,4.93-5.92,2.46-7.89-2.46-1.97-.99-2.47-4.44-4.93-3.45-2.47-2.46-2.96-5.42-2.96s-4.93.98-6.91-2.96c-1.97-3.95.5-9.38-1.97-8.88-2.47.5-.49.99-4.44,4.43-3.95,3.45-5.92,6.41-8.38,7.4-2.46.98-5.91.49-9.37-1.97-3.45-2.47-1.47-2.96-2.46-6.41-.99-3.45-5.39-7.4-4.92-5.42.48,1.97.48,6.41-1.99,6.41s-2.96-2.47-2.96-5.42,0-4.94-1.48-6.41c-1.48-1.48-1.96-3.94-5.43-7.4-3.45-3.45-4.93-5.42-1.97-6.9,2.97-1.48,3.95-2.95,5.92-4.44,1.97-1.48.99-4.44,4.93,0,3.95,4.44-1.93,4.93,2.98,7.89,4.92,2.96,5.41,3.45,6.89,6.9,1.49,3.45,6.41,4.44,6.41,4.44,0,0,4.94,2.96,7.89,2.96s7.4-2.47,8.88-1.97c1.48.49,2.96.99,4.44,4.44,1.48,3.45,8.38,5.43,11.83,5.92,3.45.5,8.88-.98,12.82-.49,3.94.49,10.86,0,15.29,0s5.91-.98,8.87-1.48c2.96-.5,4.94,2.47,6.42,5.42,1.48,2.96-1,5.92,3.44,6.41,4.45.49,6.91.98,7.89,2.47,1,1.48,2.48,4.43,0,5.42-2.46.98-6.89-2.95-2.46.98,4.44,3.95,5.43,9.87,8.88,7.89,3.45-1.97,3.94-4.93,5.91-6.9,1.98-1.97,3.45-4.93,3.45,1.48s1.48,8.38,0,11.83c-1.47,3.45-1.64,3.94.67,8.88,2.29,4.93,1.8,4.93,2.29,12.33.5,7.4,3.95,8.88,5.43,12.32,1.48,3.45,3.45,7.4,3.95,9.86.49,2.46.49,3.45,2.96,7.89,2.46,4.44,2.96,4.44,5.91,7.4,2.96,2.96.5,7.4,2.96,2.96,2.47-4.44,2.96-5.92,5.42-7.4,2.48-1.48-.48-.98,3.46-4.44,3.94-3.45.99,4.93,4.94-5.92,3.94-10.85,8.86-9.86,5.91-14.79-2.96-4.93-6.91-7.89-3.45-9.86,3.45-1.98,4.43.49,6.91-3.95,2.47-4.44,5.42-5.42,9.36-9.37,3.95-3.95-.49-7.4,3.95-8.88,4.43-1.48,6.9,1.97,9.37-1.48,2.46-3.45,4.43-7.39,6.9-8.39,2.47-.98,3.46,2.96,7.4.5,3.95-2.47,7.89-3.45,7.89-3.45,0,0-2.46-3.94,0-4.93,2.46-.99,2.96-3.95,4.43,1.48,1.48,5.42-.98,5.92,2.96,9.86,3.95,3.94,6.9,4.43,7.4,9.37.5,4.93,3.45,4.93,4.93,8.38q1.48,3.45,0,6.9c-1.48,3.45-4.93,4.43-.98,5.42,3.94.99,6.9.49,8.88-.49,1.96-.98.98.98,4.43-5.42,3.46-6.41,5.92-6.9,5.92-2.96v10.85c0,3.45-1.97,2.96,0,7.4,1.96,4.44,2.47,5.42,2.47,9.86s.49,8.87,0,12.33c-.51,3.45-2.51,5.42.21,6.9,2.75,1.48,5.21.99,5.21,3.95s3.95,13.31,8.39,17.75c4.43,4.44,5.43,7.4,9.87,10.85,4.44,3.45,10.85,8.87,7.4,4.44-3.46-4.44-5.92-9.37-4.94-13.31.99-3.94,1.98-5.42-2.46-8.87-4.44-3.45-4.93-4.93-7.9-6.91-2.96-1.97-1.97-4.93-4.93-7.89-2.97-2.96-6.41-3.94-6.9-6.9-.5-2.96,2.96-13.81,2.96-13.81,0,0,.49-8.87,4.43-6.41,3.95,2.47,7.41,4.44,11.35,6.91,3.95,2.46,3.95,5.42,6.9,8.87,2.97,3.45,2.96,6.41,2.47,8.38-.5,1.97-.5,5.42,3.46,2.96,3.94-2.47,10.35-5.43,11.83-8.87,1.48-3.45,3.46-2.47,6.42-7.39,2.95-4.93,4.43-7.89,2.95-11.84-1.48-3.95-3.45-10.36-5.91-11.84-2.47-1.48-3.46-3.94-5.44-5.92-1.97-1.97-3.94-6.41-3.94-6.41,0,0-2.95-1.97-1.47-7.39,1.47-5.43,3.94-5.43,5.91-8.88,1.97-3.45,1.97-4.43,5.43-4.43s.99-4.93,3.44,0c2.47,4.93-1.79,5.43,2.56,6.9,4.35,1.48,7.31-4.93,10.27-4.93s10.85,2.47,10.36-2.47c-.5-4.93-4.95-6.41-.5-4.93,4.43,1.48,1.96,4.44,7.39,2.47,5.43-1.97,16.28-4.93,18.75-10.36,0,0,1.48-5.42,4.43-7.39,2.97-1.98,2.97-3.95,3.95-7.4.98-3.45,1.49-3.45,5.92-6.9,4.43-3.45,10.36-7.89,7.4-10.36-2.97-2.47-6.4-2.47-7.89-1.97-1.48.49,0-5.43,2.95-6.41,0,0,3.95-4.93-.49-6.9-4.43-1.97-3.94-1.54-4.93-5.7-.98-4.16,1.49-9.59-2.46-10.57-3.95-.98-8.87,1.47-3.95-3.94,4.95-5.42,2.97-5.92,6.91-7.89,3.95-1.97,12.44-1.97,10.66-4.93-1.78-2.96-6.23-6.91-9.67-4.44-3.46,2.47-5.93,7.89-8.39,7.4-2.45-.49,2.46-9.93-2.45-8.17-4.94,1.76-5.92,6.18-5.92-.22s-.49-6.9,3.44-8.38c3.96-1.48,5.92-2.96,8.4-4.44,2.46-1.48,2.96-6.41,7.89-4.93,4.93,1.48,5.92,3.45,2.95,6.41-2.95,2.96-7.87,3.45-1.97,5.92,5.92,2.47,13.32-2.47,15.78-1.48,2.46.99,1.97,1.48,5.42,6.9,3.45,5.43,6.41,4.44,4.43,9.37-1.97,4.93-4.65,7.39.63,10.36,5.29,2.96,11.21,7.89,13.18-.99,1.98-8.87,4.94-13.31,0-17.26-4.93-3.95-10.84-8.88-7.88-10.85,2.96-1.97,14.79-7.89,13.31-13.31-1.48-5.42-.49-8.87,3.94-10.85,4.44-1.97.99-7.39,6.91-3.45,5.91,3.94,1.48,2.46,5.91,3.94,4.45,1.48,9.38,2.12,11.84-5.35,2.47-7.47,5.92-10.93,9.86-17.33,3.94-6.41,6.91-6.41,9.87-14.3,2.96-7.89,6.4-9.86,5.42-14.79-.98-4.93-5.57-3.45.17-10.35,5.75-6.9,8.21-10.36,4.26-12.82-3.95-2.47,1.49-2.96-3.95-7.89-5.41-4.93,1.49-7.4-5.41-4.93-6.9,2.47-2.97,5.92-10.86,2.47-7.89-3.45-.99-8.38-8.37-8.38s-8.39-.49-3.46-4.44c4.94-3.94,16.27-12.33,17.26-15.78.97-3.45,8.87-8.38,10.84-11.34,1.96-2.96,13.8-11.34,13.8-11.34,0,0,12.34-2.96,18.75-2.47,6.41.49,6.9,6.3,16.76-.05,9.87-6.36,12.33-3.51,9.87,0-2.47,3.51-9.87,1.04-2.47,3.51,7.4,2.46,15.28.49,17.75-1.98,2.47-2.46-6.41-1.47,0-8.87,6.4-7.39,6.9-18.24,14.29-16.76,7.4,1.48,13.32-5.2,11.84-.13-1.47,5.06-9.36,12.46-1.97,10.98,7.41-1.48,15.29-2.96,17.26-9.37,1.98-6.41-2.46-12.33,2.47-12.33s12.33-.99,9.37,1.97c-2.96,2.96-3.94,1.48-4.93,7.89-.99,6.41,1.48,8.38-1.48,9.86-2.96,1.48-2.47,3.45-7.89,5.92-5.43,2.47-6.41,6.9-9.87,9.86-3.45,2.96-3.94,4.93-8.38,9.37-4.44,4.44-4.44.99-8.87,6.41-4.44,5.42-1.48,6.9-5.43,10.84-3.93,3.95-3.93,13.31-1.97,19.73,1.97,6.4,2.46,11.34,1.97,15.28-.48,3.95-.99,7.4,1.48,11.34,2.47,3.95,2.47,4.43,5.43-.49,2.95-4.93,6.91-3.45,5.91-8.38-.99-4.93,0-6.91,2.96-7.89,2.96-.99,3.45-6.9,5.92-8.39,2.46-1.48,2.46,1.97,5.92-2.96,3.45-4.93,3.45-.99,3.94-7.89.5-6.91.5-5.92,2.96-8.88,2.47-2.96,1.97-3.45,2.96-7.89.99-4.44,1.48-5.43-1.47-4.44-2.96.99-1.98,7.89-2.96.99-.99-6.91,0-4.93,2.96-10.36,2.96-5.43-.5-10.85,4.93-11.34,5.43-.5,7.9,0,9.37-2.96,1.48-2.96-1.97-5.92,1.48-2.96,3.46,2.96-1.48,5.92,0,6.41,1.48.49,5.92-2.96,8.39-4.44,2.47-1.48,6.91-3.45,8.87.49,1.97,3.94,2.96,9.37,4.92,5.42,1.99-3.94-.97-6.9,6.42-10.35,7.4-3.45,11.34-9.37,18.24-11.83,6.91-2.46,10.85-10.51,10.85-10.51,0,0-3.94-5.27,0-1.82,3.94,3.45-.98,3.45,3.94,3.45s12.33-1.36,8.88-4.62c-3.45-3.27-5.43-5.24-5.43-8.69s2.96-5.91-2.46-6.41c-5.43-.49-9.86-5.42-5.43-6.41,4.43-.98,8.39,5.42,12.33,0,3.94-5.42,6.91-6.9,5.91-10.85-.97-3.94-3.56-4.93.21-5.42,3.75-.49,5.23-.99,5.23,3.94s0,5.43,3.93,5.43,12.83-1.98,12.83,1.97-.5,9.37,2.46,9.86c2.96.49,14.31,6.9,15.29,1.48.98-5.42,2.46-11.83,0-12.82-2.48-.98-3.23-2.96,1.34-2.96s6.55-4.54,5.56-7.2Zm-797,271.93c-.06.18-.16.35-.31.54-.87,1.09-.2.16.31-.54Zm24.84-43.34c-7.89,2.46-4.43,3.45-13.31,2.46-8.87-.98-6.91-4.07-12.33-4.99-5.43-.92-4.94-6.57-9.87-4.98-4.93,1.6-2.96,3.43-9.36,4.98-6.41,1.55-1.97.56-10.36,2.53-8.38,1.97-14.79-4.66-14.79-7.51s-3.45-7.78,0-8.76c3.46-.98,3.95-1.97,4.94-7.4.98-5.42,1.47-5.09,2.96-6.24,1.48-1.16,4.43-5.87,6.9-8.2,2.48-2.32,7.41-6.76,7.41-3.31s-5.92-1.27-3.96,3.31c1.98,4.58,4.95-.63,7.9,0,0,0,5.92.14,5.92,3.1,0,0-8.87,1.45-6.91,5.16,0,0,3.95-.72,4.43,2.73.49,3.45.99,5.92,3.95,4.93,2.95-.99,4.93-4.54,9.86-3.75,4.93.79,5.91-7.7,10.35,0,4.43,7.69,7.4,7.69,9.37,9.18,1.97,1.48,3.95,0,5.92,3.94,1.97,3.95,4.92.76,2.95,5.31-1.97,4.55,5.92,5.04-1.97,7.51Zm59.37,5.92c2.26,2.47,8.18,3.94,7.2,5.42-.99,1.48-2.95,5.43-1.48,7.39,1.48,1.97,1.48,6.91,1.48,6.91,0,0,7.4,6.41.98,5.42-6.4-.98-1.08-4.44-8.18-2.46-7.11,1.97-5.32,3.94-11.64,0-6.31-3.95-1.88,1.48-6.31-3.95-4.44-5.42-4.94-7.89-1.98-10.85,2.96-2.96,0-5.92,2.47-6.9,2.46-.98,8.88-.49,5.92-2.47-2.96-1.97,1.98.99-2.96-1.97-4.93-2.96-5.21-1.61-7.29-4.99-2.08-3.38.39-4.87-3.07-7.33-3.45-2.47-2.96,3.45-3.45-2.47-.5-5.92.99-.99-.5-5.92-1.47-4.93-2.95.99-1.47-4.93,1.47-5.92,1.97-6.9,3.95-8.88,1.96-1.97,6.9-2.47,6.9-2.47l2.46-3.45,5.91-4.93s2.47-1.48,4.94,0c2.46,1.48,1.48,0,4.92,0s4.45-7.4,3.46,0c-.98,7.39.51,6.41-1.97,9.86-2.47,3.45-4.92.98-2.47,3.45,2.47,2.47-3.45,4.93-5.42,4.93s-5.43-.49-3.46,1.97c1.98,2.47,1.98,2.96,3.95,6.9,1.97,3.95,7.89,1.98,6.91,4.94-1,2.96-7.13,7.27-4.31,8.32,1.25.47,2.8,1.31,4.13,2.1.04-.54.37-1.22,1.15-2.1,3.46-3.88,6.41-9.79,6.91-4.87.49,4.93,3.95-.62,3.95,4.87s-2.47,5.49-4.94,6.48c-2.46.99-8.97-.49-6.7,1.97Z"/>
        </g>
        <path class="cls-7" d="m1164.93,1167.01c4.49.24,7.39,2.96,12.58-4.44,5.16-7.39.74-9.05,7.39-10.81,6.67-1.76,3.71-7.68,10.37-3.98,6.66,3.7,11.09,2.78,14.79,3.98,3.7,1.19,10.35-9.33,6.65,0-3.69,9.33-5.16,11.38-6.65,15.53-1.49,4.15,5.12,4.15,7.73,4.89,2.62.74.4,2.96,5.58,5.92,5.16,2.96,8.14,5.18,10.35,5.18s-.73,5.17,4.43-3.7c5.19-8.87,4.44-3.7,5.19-8.87.74-5.17.74-3.7,0-8.14-.75-4.43,1.11-9.05.55-10.81-.55-1.76-3.67-11.54.1-5.17,3.79,6.37,5.99,7.11,8.21,12.29,2.23,5.17,2.23,3.69,5.19,8.87,2.95,5.18,4.43.74,5.91,8.88,1.48,8.14-8.14,16.27,0,16.27s7.4-8.13,11.84,0c4.44,8.14,6.65,6.66,8.13,11.84,1.48,5.18,4.44,1.48,6.66,7.4,2.22,5.91,9.62,3.44,12.57,14.67,2.96,11.22,4.44,14.18,0,24.53-4.43,10.35-.73,17.01-5.91,20.71-5.18,3.7-5.18,0-5.92,7.4-.73,7.39-2.21,13.31-5.18,17.75-2.96,4.44-5.17,2.95-8.86,4.44-3.71,1.48-5.18,3.7-8.88,6.66-3.71,2.96-2.96-8.88-8.14-5.92-5.18,2.96-4.44,6.87-11.11,6.39-6.65-.48-7.55-8.62-13.38-8.62s-3.62-8.13-7.32-9.61c-3.7-1.48-6.65-1.68-5.92-7.12l.74-5.45s-3.7-8.14-6.66-3.7c-2.95,4.44-3.69,12.58-8.87,5.92-5.17-6.65.75-13.31-7.39-14.05-8.14-.74-5.18,1.48-14.8-3.7-9.6-5.18-13.3,0-15.52,2.22-2.22,2.22-5.92-3.69-8.14,0-2.22,3.7-8.14,6.66-12.57,11.84-4.44,5.17,0,7.93-11.84,6.93-11.84-1.01-8.14,4.17-17.75,4.91-9.61.74-14.79-5.18-17.01-11.1-2.22-5.91-2.95.74,0-7.39,2.96-8.14-1.68-8.87-1.95-17.02-.27-8.13,4.7-5.91,0-11.83-4.71-5.92-8.4-6.66-5.43-9.62,2.95-2.95,5.91,6.08,2.21-4.73-3.71-10.8-9.52-21.16-3.29-21.16s7.72-1.48,12.9-3.7c5.18-2.21,10.35-3.7,14.8-4.43,4.43-.74,11.09-.74,15.53-.74s15.53-7.25,11.1-7.33c-4.44-.07-7.4-6.73-2.22-8.94,5.16-2.22,8.13-5.18,11.1-6.66,2.95-1.48,2.88-6.93,8.13-6.65Z"/>
        <path class="cls-7" d="m1255.17,1321.59s1.48,1.48,11.09,0c9.61-1.48,8.15-5.18,9.61-1.48,1.48,3.7,2.22,8.87,0,11.09-2.22,2.22.75,3.71-2.22,5.92-2.95,2.22-1.55,4.44-7.42,3.7-5.89-.74-10.32-7.37-11.06-11.08-.74-3.71-5.23-8.78,0-8.15Z"/>
        <path class="cls-7" d="m923.82,1039.05s5.91,5.18,4.43,10.35c-1.48,5.18,2.22.74-1.48,5.18-3.7,4.44-5.92,5.18-6.66,0-.74-5.18-2.23-14.79,3.7-15.53Z"/>
        <path class="cls-7" d="m997.79,1058.2c2.29-.61,7.4-4.53,12.57,0,5.18,4.52-.74,8.22,7.4,11.92,8.13,3.7,1.47-3.7,8.13,3.7,6.65,7.4,12.57,6.65,13.31,11.84.74,5.18,7.39-.74,7.39,8.14s2.97,5.18,6.67,9.61c3.7,4.44,5.17,5.18,3.7,11.84-1.48,6.66.73,13.31-6.67,7.4-7.39-5.92-.73-2.96-12.57-11.83-11.83-8.88-1.64-9.61-10.07-15.53-8.41-5.92.46-2.96-8.41-5.92-8.87-2.96-.73-5.92-11.09-13.31-10.35-7.39-15.55-16.45-10.35-17.84Z"/>
        <path class="cls-7" d="m1062.12,1119.67c3.14-.18,2.97,4.58,11.1,5.25,8.14.67,3.7-.67,11.83,0,8.14.67,5.93-5.46,11.85.19,5.91,5.65,16.27,8.62,16.27,8.62,0,0-8.14,4.43,0,4.43s10.36-4.43,16.27-5.18c5.93-.74,14.06-6.65,11.1-.74-2.97,5.92-7.39.74-11.1,5.92-3.7,5.18-7.39,11.84-16.27,6.29-8.87-5.55-6.78-11.22-11.52-11.34-4.74-.12.94.13-10.77,0-11.73-.12-20.61-6.04-24.3-4.56-3.7,1.48-17.02-8.14-4.45-8.88Z"/>
        <path class="cls-7" d="m1147.18,1133.11c1.05.29,2.75,1.33,4.66,1.86,2.12.59,4.47.54,6.43-1.86l3.7-4.56s5.17-2.96,5.17,0,1.48,8.9-3.7,6.73c-5.18-2.17-16.27-2.17-16.27-2.17Z"/>
        <path class="cls-7" d="m1090.87,1104.88c5.9-2.51,7.51,4.44,11.94,5.18,4.43.74,8.88-8.87,8.88-8.87,0,0-6.66,0,0-5.18,6.65-5.18,5.9-1.43,8.87-5.52,2.96-4.09,4.43-4.09,0-7.05-4.44-2.96-3.71,4.43-4.44-2.96-.75-7.39-.75-12.57,1.47-13.31,2.22-.74,7.09,2.96,5.76-2.96-1.31-5.92-2.05-4.61-5.01-6-2.97-1.39,0-5.14-6.65-2.16-6.66,2.98,0-2.94-6.66,2.98-6.65,5.92-11.31,3.7-14.16,9.62-2.86,5.91-8.02.74-8.02,5.91s-5.18,7.95-5.18,7.95c0,0-7.41-3.14-7.41,0s1.49,4.67,4.45,7.97c2.96,3.3,2.22-4.83,2.96,3.3.73,8.14-2.22,10.35,0,11.83,2.22,1.48,2.74,3.7,13.2-.74Z"/>
        <path class="cls-7" d="m1247.04,755.04c2.34,2.34-3.7,2.96,0,10.35,3.7,7.4,0-4.44,3.7,7.4,3.7,11.84,7.4,17.01,5.18,22.19-2.22,5.18-1.22-7.39-4.68,0-3.45,7.4-.24,4.91,0,12.81.24,7.9-2.06,9.36-5.35,8.26-3.29-1.1-4.76.11-4.76-8.26s-1.48-5.41,0-14.29c1.47-8.87-.32-13.83-.66-20.72-.32-6.89,2.14-22.18,6.59-17.74Z"/>
        <path class="cls-7" d="m1243.33,824.31c1.68,1.54-.76,3.21,5.17,4.7,5.92,1.48,6.52,2.95,8.08,5.92,1.55,2.96,11.16,0,5.23,3.7-5.9,3.7-1.04,6.65-8.28,8.87-7.24,2.22-7.87-.74-13.1,0-5.24.74-6.71.87-6.71,4.13s3.8,1.78,6.71,6.22c2.9,4.43,3.01,9.61,0,12.57-3.01,2.96-9.66,1.48-6.71,8.87,2.95,7.4,13.43,5.18,6.71,12.58-6.71,7.4-5.24,10.35-11.9,7.4-6.65-2.96-2.95-11.84-6.65-6.66-3.7,5.18,8.89-2.21-3.7,5.18-12.56,7.39-15.52,3.75-15.52,2.61s2.68-5.57-4.58-2.61c-7.25,2.96-14.65,4.52-14.65,4.52,0,0,2.96-4.52,8.14-8.96,5.17-4.44,5.17-6.66,10.36-5.92,5.17.74,5.17,4.44,11.1,2.96,5.91-1.48,7.39-5.18,7.39-7.4s1.91-4.77,3.17-6.08c1.27-1.31,4.95-9.44,4.95-9.44,0,0,5.93-.17,4.45-4.16-1.48-3.98-4.45-11.68-4.45-11.68l6.67-10.79,5.24-3.7s-2.27-17.52,2.9-12.83Z"/>
        <path class="cls-7" d="m1131.53,993.2c.36,1.33.98,1.85,0,2.84-.99.98-1.48,1.36-.99,1.97.49.62,1.65.62.64,1.85-1.01,1.23-1.53,2.71-.84,3.57.68.86,1.9.86.68,1.24-1.23.36-1.85-1.97-2.59-1.24-.73.74-.73,1.11-.61,2.59.12,1.48.12,1.72.73,3.33.62,1.6,1.06,1.23,1.32,2.46.29,1.23-.33,1.72.66,1.85.99.13,0-2.83.99-2.34.98.49,2.71-.5,1.85,1.6-.87,2.1-1.74,1.85-1.48,2.96.24,1.11.83,1.73,1.71,1.48.87-.25,1.49,1.11,1.99.86.49-.24-.13-2.34,1.34-1.97,1.48.37,3.2-1.11,2.47.86-.74,1.97-2.72,2.84-1.24,3.09,1.48.24,2.35-2.46,3.34-1.48.98.98.86,2.71.98.98.12-1.72-1.24-3.45,0-2.96,1.24.49,1.73.86,2.1,1.97.37,1.11,1.11.6,1.35,1.72.25,1.11.13,1.85,1.24,1.97,1.12.12,1.85-.98,1.97,0,.12.99,1.85,1.01.86,0-.98-.99.25-2.35-1.23-2.97-1.48-.62-2.59.25-2.1-1.23.5-1.48,2.71.25,2.47-.62-.25-.86-.86,0-1.97-.86-1.11-.87-.5-1.85-1.11-.87-.62.99.12.99-.62.99s-.24-.37-1.47-1.35c-1.23-.99-1.36-1.86-2.58-1.73-1.24.12-1.61.12-2.36-.74-.73-.87-1.84-1.6-1.48-2.22.38-.62.99-1.47-.36-2.65-1.36-1.18-1.98-1.79-.99-2.41.99-.62.99-.98,1.97-1.6.99-.61,1.61-.86,2.1-3.08.49-2.22,1.98-4.32.49-4.56-1.48-.25-2.96-.49-1.73-1.48,1.24-.99,2.6-1.48,1.61-2.34-.99-.87-.5-1.36-1.61-.75-1.1.62-.49,1.11-1.84.37-1.36-.74-2.96-3.45-4.07-2.47-1.11.98-1.85,2.46-1.6,3.33Z"/>
      </g>
      <path class="cls-7" d="m1153.84,1079.73c-1.23.97.36,1.49-3.51,2.78-3.88,1.29-4.24.55-6.84,1.66-2.58,1.11-5.54-1.85-7.39,0-1.85,1.85-2.96-2.44-4.07.26-1.11,2.7-4.82,4.6-4.25,6.05.54,1.46.92,1.46,0,4.04-.93,2.59-2.4,4.07-2.4,5.18s-1.78,4.44-1.78,4.44c0,0-.31,1.85,0,3.33.3,1.48,2.52.08,2.14,2.63-.36,2.55.75-.41-.36,2.55-1.11,2.96-1.85,8.12-.37,7.02,1.48-1.1,4.81-5.91,5.55-7.02.74-1.11-2.96-4.07-2.78-5.55.19-1.48.54-6.65,3.14-4.81,2.59,1.85,2.59,3.7,2.59,5.55s-.37-.29,2.22,2.26c2.59,2.55.67,4.4,2.92,4.4s4.47-5.1,5.58-4.4c1.11.7-.6.33-3.07-1.51-2.48-1.85.41-1.85-2.51-5.55-2.92-3.7-1.44-7.4-3.66-7.4s-4.07-5.12-1.48-5.15c2.59-.02,4.37,3.3,5.14,4.78.78,1.48,4.47-4.78,4.47-4.78,0,0,1.85.77,4.07,0,2.21-.76,6.65-.76,6.65-3.35s3.52-10.17,0-7.4Z"/>
      <path class="cls-7" d="m1188.98,1090.48c2.58-1.13,4.81-3.72,7.02-1.5,2.22,2.22,3.7,1.85,5.55,4.07,1.85,2.21,2.96,5.09,2.22,6.43-.74,1.34.37,3.92,2.58,5.03,2.22,1.11,3.33,3.33,5.56,0,2.22-3.32,2.59-3.04,5.16-5.03,2.59-1.99,3.71-2.95,5.56-2.29,1.85.67,7.39-.9,9.61,2.29,2.22,3.19.74,2.81,6.66,4.66,5.92,1.85,15.16,5.26,18.12,5.96,2.97.7,6.66,1.81,5.91,3.66-.73,1.85-3.14,2.59.09,3.7,3.24,1.11,8.05,1.03,8.79,2.37.73,1.33,4.43,4.8,1.84,5.1-2.57.3-7.01-3.99-5.9,0,1.11,4,3.7,6.18,5.17,6.57,1.49.38-1.51-1.59,1.65,1.62,3.16,3.2,7.22,2.09,8.7,4.31,1.48,2.22,2.22,2.22,3.71,4.44,1.48,2.21,2.21,4.57,0,4.69-2.22.12-.38-2.09-4.44-2.09-4.05,0-4.05,2.59-7.39,0-3.32-2.59-4.43-4.44-5.91-6.66-1.48-2.22-.74-4.1-3.7-6.3-2.96-2.2-1.49-5.57-5.18-4.26-3.69,1.32-7.76.54-8.5,4.26-.75,3.71,2.58,1.1-3.34,4.26-5.92,3.15-9.24,1.65-11.84,0-2.58-1.65,1.85-5.75-4.8-4.26-6.65,1.5-8.14,5.07-9.99,1.62-1.84-3.45-.37-3.86,2.96-5.88,3.33-2.01,5.17,2.75,7.02,0,1.85-2.75.74-5.34-2.22-4.97-2.96.37-3.7-.44-5.18-2.44-1.48-2-.37-.39-3.69-2.49-3.33-2.1-.74-2.1-6.29-3.21-5.55-1.11-3.71-1.85-8.14-2.22-4.43-.37-7.29-4.07-8.27-3.7-.97.37-2.45,1.48-4.29-.37-1.85-1.85-1.48-3.7,1.11-4.07,2.59-.37,5.18-3.41,4.44-4.29-.74-.88-1.85-1.71-3.7,0-1.85,1.71-2.22,2.36-4.07,0-1.85-2.36-4.07-3.47-5.18-3.47s-7.76-1.48-4.81-2.22c2.96-.74,9.25-.37,9.25-.37l-1.85-2.93Z"/>
    </g>
    <path class="cls-16" d="m1594.73,1435.36c-134.11,182.9-350.56,301.64-594.73,301.64s-460.62-118.74-594.73-301.64h1189.46Z"/>
    <g>
      <path class="cls-14" d="m1465.44,892.46l-66.32,110.65c-2.49,4.15-7.43,6.13-12.1,4.86l-62.5-17.08c-6.77-1.85-10-9.57-6.56-15.69l63.09-112.38c2.45-4.36,7.57-6.47,12.37-5.09l65.73,18.81c6.82,1.95,9.93,9.84,6.29,15.92Z"/>
      <path class="cls-6" d="m1137.25,1381.49s17.64,469.73,17.64,839.01h-131.64l-72.66-653.34-90.53,653.34h-123.7l28.37-839.01h372.51Z"/>
      <path class="cls-15" d="m1113.52,898.47c37.74,49.54,110.39,307.09,110.39,307.09l-94.19,70.18s-94.8-122.66-133.98-266.96c-26.79-98.69,79.1-161.06,117.78-110.31Z"/>
      <path class="cls-12" d="m1346.39,1018.87s-260.54,160.81-244.25,197.8c16.29,36.99-.37,68.68,79.84,56.37,63.22-9.7,203.25-216.72,203.25-216.72l-38.84-37.45Z"/>
      <path class="cls-12" d="m1028.64,734.98s-37.67,92.1,13.46,123.07c51.13,30.97,63.24,12.73,84.77,83.44,21.53,70.71,2.92,479.17,2.92,479.17,0,0-152.91,78.82-410.39,14.07,0,0-.22-443.45,21.3-516.11,21.53-72.66,115.72-76.58,145.32-96.15,29.6-19.57,77.29-148.74,77.29-148.74l65.33,61.24Z"/>
      <path class="cls-15" d="m740.7,918.63c20.6-69.53,107.7-76.12,141.1-93.71,33.36,41.56,75.74,87.63,103.38,93.04,27.91,5.46,43.57-29.77,52.09-63.23,1.52,1.17,3.12,2.29,4.83,3.32,51.13,30.97,63.24,12.73,84.77,83.44,21.53,70.71,28.03,491.73,28.03,491.73,0,0-196.86,66.26-454.34,1.51,0,0,18.61-443.45,40.14-516.11Z"/>
      <path class="cls-10" d="m966.08,676.35l62.56,58.64s-31.53,77.17,2.37,113.98c-80.97,8-79.5-112.35-79.5-112.35l14.57-60.26Z"/>
      <path class="cls-12" d="m777.98,868.08c-104.78,29.76-162.56,265.85-165.26,347.7-2.69,81.85,118.41,312.86,118.41,312.86,0,0,29.01,10.17,63.39-20.95,0,0-71.46-290.79-63.39-312.32,8.07-21.53,119.9-128.46,127.97-216.05,8.07-87.59-35.77-124.11-81.13-111.23Z"/>
      <path class="cls-10" d="m777.98,868.08c45.35-12.88,89.2,23.64,81.13,111.23-6.37,69.11-77.29,150.22-110.92,191.96-53.56-.19-98.36-11.86-126.96-21.88,19.77-103.3,73.36-257.64,156.75-281.32Z"/>
      <path class="cls-15" d="m777.98,868.07c4.44-1.26,9.28-1.95,9.28-1.95,18.06-3.22,42.45-4.23,53.27.17,27.2,11.05,24.23,78.85,23.65,89.65-4.77,88.9-53.95,163.65-96.4,212.93-32.01-8.05-104.14-31.2-148.71-65.88,25.13-97.96,87.32-214.59,158.91-234.92Z"/>
      <path class="cls-12" d="m977.51,560.72c59.2-28.26,161.46,13.46,161.46,86.12s-53.82,185.68-104.95,174.92c-51.13-10.76-89.55-65.45-89.55-134.61s1.12-111.19,33.04-126.43Z"/>
      <path class="cls-13" d="m1169.92,673.74c-33.1,17.42-106.3,13.46-161.46-61.9,0,0,.36,64.48-50.27,75.3l-26.35,62.21s-33.71-17.76-13.53-110.6c20.18-92.84,66.87-86.95,66.87-86.95,0,0,11.46-18,55.72-20.69,44.26-2.69,180.16,115.72,129.03,142.63Z"/>
      <path class="cls-8" d="m980.22,689.6s-2.71-65.64-25.59-41.42c-22.87,24.22,0,67.28,0,67.28l25.59-25.86Z"/>
      <path class="cls-12" d="m1385.22,1056.32s67.26-74.45,68.6-106.74c1.35-32.29-74-49.78-91.5-48.44-17.49,1.35,22.89,32.29,22.89,32.29,0,0-30.97-12.11-44.42-1.35-13.46,10.76,5.59,86.79,5.59,86.79l38.84,37.45Z"/>
      <path class="cls-12" d="m794.52,1507.68s51.13,8.45,56.51,22.54c5.38,14.09-14.8,36.93-14.8,36.95,0,.01,4.95,45.76-13,55.18-17.95,9.42-76.71-6.73-83.66-24.22-6.95-17.49-8.44-69.49-8.44-69.49l63.39-20.95Z"/>
    </g>
    <g>
      <path class="cls-4" d="m1491.35,648.69v102.29c0,13.52-10.97,24.49-24.49,24.49h-185.74l-56.07,20.12c-5.76,2.07-11.27-3.59-9.06-9.29l21.21-54.78v-82.84c0-13.52,10.97-24.49,24.5-24.49h205.16c13.52,0,24.49,10.97,24.49,24.49Z"/>
      <g>
        <path class="cls-2" d="m1452.2,677.63h-170.4c-3.73,0-6.76-3.03-6.76-6.76h0c0-3.73,3.03-6.76,6.76-6.76h170.4c3.73,0,6.76,3.03,6.76,6.76h0c0,3.73-3.03,6.76-6.76,6.76Z"/>
        <path class="cls-2" d="m1452.2,704.85h-170.4c-3.73,0-6.76-3.03-6.76-6.76h0c0-3.73,3.03-6.76,6.76-6.76h170.4c3.73,0,6.76,3.03,6.76,6.76h0c0,3.73-3.03,6.76-6.76,6.76Z"/>
        <path class="cls-2" d="m1452.2,732.07h-170.4c-3.73,0-6.76-3.03-6.76-6.76h0c0-3.73,3.03-6.76,6.76-6.76h170.4c3.73,0,6.76,3.03,6.76,6.76h0c0,3.73-3.03,6.76-6.76,6.76Z"/>
      </g>
    </g>
    <g>
      <g>
        <path class="cls-18" d="m554.78,894.8c.26.06.53.07.8,0,2.89-.76,4.57-1.07,4.59-1.07.88-.16,1.46-1,1.3-1.87-.16-.88-1-1.46-1.87-1.3-.07.01-1.8.33-4.83,1.12-.86.23-1.38,1.11-1.15,1.97.16.59.61,1.02,1.17,1.16Z"/>
        <g>
          <path class="cls-18" d="m461.09,968.71c-1.5,2.74-2.95,5.58-4.3,8.44-.34.71-1.12,1.06-1.85.88-.1-.03-.2-.06-.29-.11-.81-.38-1.15-1.34-.77-2.15,1.38-2.92,2.86-5.82,4.39-8.62.43-.78,1.4-1.07,2.19-.64.78.43,1.07,1.41.64,2.19Z"/>
          <path class="cls-18" d="m453,985.84c-1.16,2.89-2.27,5.89-3.29,8.89-.27.8-1.11,1.25-1.92,1.05-.04,0-.08-.02-.12-.04-.84-.29-1.3-1.2-1.01-2.04,1.04-3.07,2.16-6.11,3.35-9.06.33-.83,1.27-1.23,2.1-.89.83.33,1.23,1.27.89,2.1Z"/>
          <path class="cls-18" d="m439.32,1033.08c-.78-.2-1.31-.95-1.2-1.77.41-3.21.9-6.42,1.44-9.54.15-.88.99-1.46,1.87-1.31.89.16,1.46.99,1.31,1.87-.54,3.07-1.02,6.24-1.42,9.4-.11.88-.92,1.51-1.81,1.39-.07,0-.13-.02-.19-.04Z"/>
          <path class="cls-18" d="m445.8,1001.81c.86.24,1.36,1.13,1.12,1.99-.4,1.42-.78,2.85-1.13,4.26-.41,1.63-.81,3.29-1.18,4.95-.2.87-1.06,1.42-1.93,1.22-.01,0-.03,0-.04-.01-.84-.21-1.37-1.06-1.18-1.92.38-1.68.78-3.38,1.2-5.03.36-1.44.75-2.89,1.15-4.34.24-.85,1.1-1.34,1.95-1.13.01,0,.03,0,.04,0Z"/>
          <path class="cls-18" d="m465.9,960.55c-.38.6-1.1.87-1.76.7-.16-.04-.32-.11-.47-.2-.75-.48-.98-1.47-.5-2.23,1.72-2.72,3.55-5.42,5.43-8.01.52-.72,1.53-.88,2.25-.36.72.52.88,1.53.36,2.25-1.84,2.54-3.63,5.18-5.31,7.84Z"/>
          <path class="cls-18" d="m546.53,897.54c-2.94,1.01-5.93,2.13-8.88,3.35-.33.14-.69.16-1.01.07-.48-.12-.89-.46-1.1-.95-.34-.82.05-1.77.88-2.11,3.01-1.24,6.06-2.39,9.06-3.42.84-.29,1.76.16,2.05,1,.29.84-.16,1.76-1.01,2.05Z"/>
          <path class="cls-18" d="m520.57,909.15c-.37.21-.8.25-1.18.15-.41-.1-.79-.37-1.01-.78-.43-.78-.16-1.76.62-2.19,2.81-1.57,5.69-3.07,8.59-4.47.8-.39,1.77-.05,2.15.75.39.8.05,1.77-.75,2.15-2.83,1.37-5.67,2.84-8.42,4.38Z"/>
          <path class="cls-18" d="m489.99,931.42c-.42.39-.98.52-1.5.39-.29-.07-.56-.23-.78-.46-.61-.65-.58-1.67.07-2.28,2.34-2.19,4.79-4.34,7.27-6.39.69-.57,1.7-.47,2.27.22.57.69.47,1.7-.22,2.27-2.43,2.01-4.82,4.11-7.12,6.26Z"/>
          <path class="cls-18" d="m504.6,919.36c-.4.29-.9.37-1.35.26-.35-.09-.68-.3-.91-.61-.52-.72-.36-1.73.36-2.25,2.59-1.88,5.28-3.72,8-5.45.75-.48,1.75-.26,2.23.49.48.75.26,1.75-.49,2.23-2.66,1.7-5.3,3.5-7.84,5.34Z"/>
          <path class="cls-18" d="m477.01,945.22c-.41.5-1.05.68-1.64.54-.22-.06-.44-.16-.63-.32-.69-.57-.78-1.58-.21-2.27,2.05-2.48,4.2-4.92,6.4-7.26.61-.65,1.63-.68,2.28-.07.65.61.68,1.63.07,2.28-2.15,2.29-4.26,4.68-6.27,7.1Z"/>
        </g>
      </g>
      <g>
        <polygon class="cls-2" points="556.38 883.88 553.12 857 638.62 870.06 556.38 883.88"/>
        <polygon class="cls-5" points="638.62 870.06 559.64 890.73 559.43 890.78 555.46 895.63 556.38 883.88 638.62 870.06"/>
        <polygon class="cls-1" points="555.46 895.63 562.56 895.53 559.43 890.78 555.46 895.63"/>
        <polygon class="cls-2" points="569.36 888.18 559.42 890.78 575.59 915.3 638.62 870.06 569.36 888.18"/>
      </g>
    </g>
    <g>
      <g>
        <path class="cls-18" d="m1181.41,771.1c-.18-.05-.35-.14-.5-.27-1.55-1.44-2.49-2.19-2.5-2.2-.49-.39-.57-1.11-.18-1.6.39-.49,1.11-.57,1.6-.18.04.03,1.01.81,2.64,2.31.46.43.49,1.15.06,1.61-.29.31-.72.43-1.11.33Z"/>
        <g>
          <path class="cls-18" d="m1215.1,848.44c.02,2.21-.03,4.46-.14,6.7-.03.55.34,1.04.86,1.16.07.02.14.03.22.03.63.03,1.16-.45,1.2-1.08.12-2.28.16-4.58.14-6.83,0-.63-.52-1.13-1.15-1.13-.63,0-1.14.52-1.13,1.15Z"/>
          <path class="cls-18" d="m1214.42,861.81c-.24,2.19-.55,4.43-.92,6.64-.1.59.28,1.15.85,1.29.03,0,.06.01.09.02.62.1,1.21-.32,1.31-.94.38-2.26.69-4.53.94-6.77.07-.63-.38-1.19-1.01-1.26-.63-.07-1.19.38-1.26,1.01Z"/>
          <path class="cls-18" d="m1207.16,895.81c.55.14,1.13-.16,1.34-.7.82-2.14,1.59-4.3,2.29-6.43.2-.6-.13-1.24-.73-1.44-.61-.2-1.24.13-1.44.73-.69,2.1-1.45,4.22-2.25,6.33-.22.59.07,1.25.66,1.47.04.02.09.03.13.04Z"/>
          <path class="cls-18" d="m1213.57,874.17c-.61-.14-1.22.25-1.36.86-.23,1.01-.47,2.03-.72,3.03-.29,1.15-.59,2.32-.92,3.48-.17.61.19,1.24.79,1.4.01,0,.02,0,.03,0,.6.15,1.21-.2,1.37-.8.33-1.17.64-2.37.93-3.54.25-1.02.5-2.05.73-3.09.14-.61-.24-1.21-.84-1.35,0,0-.02,0-.03,0Z"/>
          <path class="cls-18" d="m1214.83,841.75c.04.5.4.91.86,1.02.11.03.23.04.36.03.63-.04,1.1-.59,1.06-1.22-.16-2.27-.4-4.56-.7-6.8-.09-.62-.66-1.06-1.28-.98-.62.08-1.06.66-.98,1.28.3,2.2.53,4.44.69,6.66Z"/>
          <path class="cls-18" d="m1185.64,775.56c1.5,1.61,2.98,3.31,4.41,5.05.16.2.38.33.61.38.34.08.71.01,1-.22.49-.4.56-1.12.16-1.6-1.46-1.78-2.98-3.51-4.5-5.16-.43-.46-1.15-.49-1.61-.06-.46.43-.49,1.15-.06,1.61Z"/>
          <path class="cls-18" d="m1197.93,791.46c.16.26.41.42.68.49.29.07.62.03.89-.15.53-.34.68-1.04.35-1.57-1.23-1.91-2.52-3.81-3.86-5.65-.37-.51-1.08-.62-1.59-.25-.51.37-.62,1.08-.25,1.59,1.31,1.8,2.58,3.66,3.78,5.54Z"/>
          <path class="cls-18" d="m1209.55,815.56c.13.38.44.65.81.74.2.05.43.05.64-.03.6-.2.92-.85.71-1.45-.73-2.15-1.53-4.3-2.39-6.41-.24-.58-.9-.86-1.49-.62-.58.24-.86.9-.62,1.49.84,2.06,1.63,4.17,2.34,6.28Z"/>
          <path class="cls-18" d="m1204.47,803.16c.15.32.43.53.75.61.25.06.52.04.77-.08.57-.27.8-.96.53-1.52-.98-2.04-2.05-4.08-3.16-6.07-.31-.55-1-.75-1.55-.44-.55.31-.75,1-.44,1.55,1.09,1.95,2.13,3.95,3.1,5.95Z"/>
          <path class="cls-18" d="m1213.02,828.49c.09.45.43.78.84.88.16.04.33.05.5.01.62-.12,1.02-.73.89-1.34-.45-2.23-.98-4.47-1.56-6.66-.16-.61-.79-.97-1.4-.81-.61.16-.97.79-.81,1.4.58,2.15,1.09,4.34,1.53,6.52Z"/>
        </g>
      </g>
      <g>
        <polygon class="cls-2" points="1184.06 763.76 1195.07 748.1 1137.44 727.69 1184.06 763.76"/>
        <polygon class="cls-5" points="1137.44 727.68 1179.75 766.94 1179.86 767.04 1180.71 771.39 1184.06 763.76 1137.44 727.68"/>
        <polygon class="cls-1" points="1180.71 771.39 1176.32 768.96 1179.86 767.04 1180.71 771.39"/>
        <polygon class="cls-2" points="1174.54 762.11 1179.86 767.05 1161.6 776.92 1137.44 727.69 1174.54 762.11"/>
      </g>
    </g>
  </g>
  <g>
    <path class="cls-4" d="m792.21,639.67h-310.07c-19.46,0-35.23,15.77-35.23,35.23v50.15c0,19.46,15.77,35.23,35.23,35.23h266.94c6.99,0,13.65,3,18.27,8.25l20.26,22.97c2.02,1.75,5.17.31,5.17-2.36v-28.86h.46c19.46,0,35.23-15.77,35.23-35.23v-49.14c0-20.02-16.23-36.24-36.24-36.24Z"/>
    <g>
      <path class="cls-2" d="m502.23,673.73c.67-1.62,1.76-1.62,2.43,0l5.08,12.31c.66,1.63,2.64,3.05,4.4,3.2l13.29,1.01c1.75.14,2.09,1.17.75,2.32l-10.14,8.65c-1.33,1.14-2.09,3.46-1.67,5.17l3.12,12.96c.42,1.7-.46,2.34-1.97,1.43l-11.35-6.99c-1.49-.93-3.95-.93-5.43,0l-11.36,6.99c-1.49.91-2.37.27-1.97-1.43l3.12-12.96c.41-1.71-.35-4.03-1.68-5.17l-10.13-8.65c-1.34-1.14-1-2.18.75-2.32l13.27-1.01c1.75-.14,3.73-1.57,4.4-3.2l5.09-12.31Z"/>
      <path class="cls-2" d="m569.93,673.73c.67-1.62,1.76-1.62,2.43,0l5.08,12.31c.66,1.63,2.64,3.05,4.4,3.2l13.29,1.01c1.75.14,2.09,1.17.75,2.32l-10.14,8.65c-1.33,1.14-2.09,3.46-1.67,5.17l3.12,12.96c.42,1.7-.46,2.34-1.97,1.43l-11.35-6.99c-1.49-.93-3.95-.93-5.43,0l-11.36,6.99c-1.49.91-2.37.27-1.97-1.43l3.12-12.96c.41-1.71-.35-4.03-1.68-5.17l-10.12-8.65c-1.34-1.14-1.01-2.18.75-2.32l13.27-1.01c1.75-.14,3.73-1.57,4.4-3.2l5.09-12.31Z"/>
      <path class="cls-2" d="m637.63,673.73c.67-1.62,1.76-1.62,2.43,0l5.08,12.31c.66,1.63,2.65,3.05,4.4,3.2l13.29,1.01c1.75.14,2.09,1.17.75,2.32l-10.14,8.65c-1.33,1.14-2.09,3.46-1.67,5.17l3.12,12.96c.42,1.7-.46,2.34-1.97,1.43l-11.35-6.99c-1.49-.93-3.95-.93-5.43,0l-11.36,6.99c-1.49.91-2.37.27-1.97-1.43l3.12-12.96c.41-1.71-.35-4.03-1.68-5.17l-10.12-8.65c-1.34-1.14-1-2.18.75-2.32l13.27-1.01c1.75-.14,3.73-1.57,4.4-3.2l5.09-12.31Z"/>
      <path class="cls-2" d="m773.03,673.73c.67-1.62,1.77-1.62,2.43,0l5.08,12.31c.66,1.63,2.64,3.05,4.4,3.2l13.29,1.01c1.75.14,2.09,1.17.75,2.32l-10.14,8.65c-1.33,1.14-2.09,3.46-1.67,5.17l3.12,12.96c.42,1.7-.46,2.34-1.97,1.43l-11.35-6.99c-1.49-.93-3.95-.93-5.43,0l-11.36,6.99c-1.49.91-2.37.27-1.97-1.43l3.12-12.96c.41-1.71-.35-4.03-1.68-5.17l-10.12-8.65c-1.34-1.14-1.01-2.18.75-2.32l13.27-1.01c1.75-.14,3.73-1.57,4.4-3.2l5.09-12.31Z"/>
      <path class="cls-2" d="m705.69,673.73c.67-1.62,1.76-1.62,2.43,0l5.08,12.31c.66,1.63,2.65,3.05,4.4,3.2l13.29,1.01c1.75.14,2.09,1.17.75,2.32l-10.14,8.65c-1.33,1.14-2.09,3.46-1.67,5.17l3.12,12.96c.42,1.7-.46,2.34-1.97,1.43l-11.35-6.99c-1.49-.93-3.95-.93-5.43,0l-11.36,6.99c-1.49.91-2.37.27-1.97-1.43l3.12-12.96c.41-1.71-.35-4.03-1.68-5.17l-10.12-8.65c-1.34-1.14-1.01-2.18.75-2.32l13.27-1.01c1.75-.14,3.73-1.57,4.4-3.2l5.09-12.31Z"/>
    </g>
  </g>
  <g>
    <circle cx="1015.67" cy="719.49" r="6.52"/>
    <circle cx="1075.6" cy="735.5" r="6.52"/>
    <path d="m1052.73,689.46s-3.64.39-18.42-3.56c-14.79-3.95-21.92-3.63-21.1-5.64,3.54-8.61,31.11-6.03,35.27-3.9,4.16,2.14,7.61,7.84,4.26,13.09Z"/>
    <path d="m1075.97,695.67s2.95,2.16,17.74,6.11c14.79,3.95,20.81,7.78,21.1,5.64,1.22-9.23-23.96-20.74-28.63-20.97-4.67-.22-10.51,3-10.22,9.22Z"/>
    <path d="m1037.26,779.6s-16.3-6.13-25.93-16.01c0,0-2.58,20.91,25.93,16.01Z"/>
    <path d="m1042.26,768.08c3.94,1.05,7.89.69,10.36-.66,1.78-.97,2.72-2.41,2.64-4.05-.2-4.29-3.15-30.95-3.16-31.08l-2.24.19c.01.13,2.96,26.75,3.16,31,.04.94-.78,1.59-1.47,1.97-2.99,1.64-9.03,1.41-13.55-1.8l-1.3,1.84c1.74,1.23,3.66,2.08,5.58,2.6Z"/>
  </g>
</svg>