<?xml version="1.0" encoding="UTF-8"?>
<svg xmlns="http://www.w3.org/2000/svg" xmlns:xlink="http://www.w3.org/1999/xlink" viewBox="0 0 2000 2000">
  <defs>
    <style>
      .cls-1 {
        fill: #fff;
      }

      .cls-2 {
        opacity: .6;
      }

      .cls-3 {
        isolation: isolate;
      }

      .cls-4 {
        fill: #e88a4b;
      }

      .cls-4, .cls-5 {
        mix-blend-mode: multiply;
        opacity: .5;
      }

      .cls-6 {
        fill: #bc6337;
      }

      .cls-7 {
        fill: #e8e2db;
      }

      .cls-8 {
        fill: #7c5349;
      }

      .cls-9 {
        fill: #141a46;
      }

      .cls-10 {
        fill: #ffb359;
      }

      .cls-11 {
        fill: #331b19;
      }

      .cls-12 {
        fill: #0b181b;
      }

      .cls-13 {
        fill: #cc7646;
      }

      .cls-14 {
        clip-path: url(#clippath);
      }

      .cls-15, .cls-16 {
        fill: none;
      }

      .cls-17 {
        fill: #fcd590;
      }

      .cls-5 {
        fill: #efb378;
      }

      .cls-18 {
        fill: #cecece;
      }

      .cls-16 {
        stroke: #021833;
        stroke-linecap: round;
        stroke-linejoin: round;
        stroke-width: 8.29px;
      }

      .cls-19 {
        fill: #f8ba8c;
      }

      .cls-20 {
        fill: #d88155;
      }

      .cls-21 {
        fill: #31558a;
      }

      .cls-22 {
        fill: #0b5b07;
      }

      .cls-23 {
        fill: #f2f2f2;
      }

      .cls-24 {
        fill: #d1edfc;
      }
    </style>
    <clipPath id="clippath">
      <path class="cls-15" d="m1737,1000c0,114.46-26.09,222.82-72.65,319.47-119.02,247.05-371.77,417.53-664.35,417.53s-545.33-170.48-664.35-417.53c-46.56-96.65-72.65-205.01-72.65-319.47,0-407.03,329.97-737,737-737s737,329.97,737,737Z"/>
    </clipPath>
  </defs>
  <g class="cls-3">
    <g id="Layer_1" data-name="Layer 1">
      <g class="cls-14">
        <path class="cls-24" d="m1737,1000c0,114.46-26.09,222.82-72.65,319.47-119.02,247.05-371.77,417.53-664.35,417.53s-545.33-170.48-664.35-417.53c-46.56-96.65-72.65-205.01-72.65-319.47,0-407.03,329.97-737,737-737s737,329.97,737,737Z"/>
        <g class="cls-2">
          <path class="cls-23" d="m1086.34,1514.39c24.75-6.18,52.09-84.17,71.23-104.32,20.16-21.22,42.39-40.65,65.39-58.23,10.02-7.66,22.78,5,15.43,15.24-15.58,21.69-39.28,45.42-47.57,57.52-12.11,17.69-57.13,95.07-10.83,85.51,37.95-7.83,35.66-82.59,53.06-110.37,12.58-20.09,35.45-57.77,56.13-78.34,6.91-6.87,18.83-1.88,18.66,7.86-.42,23.73-19.98,60.27-21.21,79.22-1.74,26.96,10.01,73.94,36.12,33.88,26.08-40.02-4.37-109.09,16.11-156.69,4.38-10.17,19.38-8.04,20.93,2.92,6.11,43.32,6.73,122.77,40.18,123.08,66.9.61-7.34-133.47-17.14-154.73-5.99-13.01-35.82-75.64-1.26-51.31,13.47,9.48,26.05,51.15,36.25,65.3,15.52,21.53,34.13,54.32,57.98,67.37,36.34,19.87,40.44-10.92,29.47-41.3-14.03-38.85-44.16-28.75-68.27-56.14-16.52-18.77-21.71-41.68-23.74-65.35-.91-10.64,12.5-16.18,19.33-7.96,16.16,19.46,35.95,49.6,45.11,58.52,20.28,19.76,45.45,73.46,72.57,82.54,54.2,18.15,7.34-70.61-9.78-88.07-26.26-26.79-54.29-46.34-76.73-76.93-6-8.18-29.38-33.26-27.61-44.45,3.87-24.48,32.43,8.29,40.56,16.98,26.09,27.9,51.16,57.54,81.2,82.44,39.15,32.45,99.66,17.38,56.61-37.61-27.54-35.18-86.77-42.56-124.07-64.26-15.67-9.12-39.75-20.59-42.27-42.02-4.06-34.58,22.47-25.95,39.96-8.75,16.34,16.08,28.01,37.81,49.86,48.48,23.12,11.29,200.76,72.39,162.77.75-25.56-48.21-82.22-20.04-123.36-29.71-27.07-6.37-56.27-17.6-76.44-36.75-21.44-20.36-55.95-70.51-1.6-46.19,35.62,15.94,70,51.68,111.4,51.4,58.99-.39,34.45-49.46-13.26-54.42-38.48-4-88.65,2.48-113.02-34.93-9.71-14.91-20.9-53.16.53-59.49,11.1-3.28,64.05,34.75,75.97,42.51,17.44,11.35,37.01,34.56,59,30.44,6.73-1.26,10.75-8.52,8.08-14.83-25.3-59.58-145.37-49.39-154.17-120.51-5.32-42.98,55.01,3.42,78.5,11.96,20.67,7.51,86.12,19.32,72.81-22.73-9.26-29.26-47.02-18.08-67.24-15.17-30.02,4.32-62.53,7.37-90.33-8.37-24.97-14.13-45.05-49.9-2.06-53.21,23.44-1.8,64.5,36.06,86.76,11.55,32.93-36.27-55.35-42.47-72.76-45.58-29.21-5.21-32.36-9.27-29.25-42.22,2.8-29.75,9.59-55.83,10.99-84.65.34-7.13-5.94-12.78-12.95-11.44-7.84,1.5-17.79,3-25.78,4.11-6.9.96-11.16,8.02-8.77,14.56,8.57,23.47,18.37,56.92,11.64,76.77-13.66,40.32-55.39,21.13-72.11-4.52-14.7-22.55-17.61-51.84-38.02-69.97-27.86-24.75-46.43-7.98-38.44,24.06,6.1,24.47,27.43,47.41,43.45,65.68,25.29,28.84,40.94,19.8,71.56,28.05,18.85,5.08,48.15,43.87,18.97,62.14-20.68,12.95-58.76-31.05-73.24-44.21-23.99-21.8-49.5-43.07-82.75-46.98-28.77-3.39-67.04,13.83-49,43.9,2.29,3.82,6.63,5.98,11.04,5.35,43.59-6.29,67.87-4.76,110.86,18.36,16.81,9.04,89.84,48.79,87.42,71.72-2.44,23.11-39.64,21.6-54.54,15.24-22.59-9.65-36.22-34.15-55.36-48.82-15.88-12.16-38.86-29.48-60.05-24.22-23.91,5.93-25.06,23.39-9.54,41.87,14.98,17.84,36.57,12.62,55.43,21.29,21.77,10.01,30.15,31.95,52.47,40.78,31.98,12.65,96.66-12.13,98.06,43.77,1.45,57.92-74.65,1.99-93.39-14.15-36.23-31.19-79.98-53.99-126.86-26.61-22.44,13.1-40.31,46.84-.66,51.68,12.9,1.57,28.18-9.93,41.29-10.87,12.74-.91,26.49.62,38.98,3.32,33.42,7.22,113.33,13.6,138.88,45.21,4.51,5.58,2.16,13.94-4.41,16.81-47.82,20.87-107.72-36.68-154.37-41.56-15.41-1.61-52.76-4.22-64.12,8.8-22.57,25.88,19.78,36.06,40.08,36.78,25.33.89,47.92-3.13,73.14,2.49,20.08,4.47,68.82,14.86,84.47,26.72,28.11,21.29-9.3,35.42-33.39,36.56-24.72,1.16-53.78-11.21-76.92-19.39-26.99-9.54-143.07-34.55-108.12,27.53,2.48,4.4,7.57,6.7,12.44,5.39,13.9-3.74,25.66-13.23,40.71-11.2,20.51,2.77,165.9,23.03,154.56,56.89-13.87,41.4-94.13-16.19-111.44-22.97-37.72-14.77-106.28,20.56-50.54,32.41,20.54,4.37,41.08-3.01,63.98,3.58,17.99,5.18,31.3,12.78,44.5,22.82,7.72,5.88,4.73,18.27-4.88,19.65-41.26,5.92-92.53-41.4-133.35-31.56-18.08,4.36-48.54,20.41-24.91,40.51,14.08,11.98,52.14,0,69.98.71,17.75.71,68.22,1.04,77.42,21.32,16.32,35.96-50.12,10.66-64.66,6.33-23.01-6.85-128.4-39.65-117.82,11.81,9.12,44.36,72.37,26.88,113.09,28.4,14,.53,13.66,21.44-.34,21.9-45.16,1.47-110.4-12.03-121.1,28.98-11.01,42.17,31.13,23.03,48.68,16.41,13.75-5.19,29.82-9.95,45.13-10.84,11.7-.69,15.9,15.32,5.49,20.71-25.02,12.96-54.4,9.37-83.34,21.52-40.48,17-63.34,38.83-85.21,76.69-10.73,18.59-39.34,122.6,11.68,109.87Z"/>
        </g>
        <g class="cls-2">
          <path class="cls-23" d="m1056.83,414.96c-25.44,1.84-65.76,73.99-88.07,90.56-23.5,17.45-48.73,32.77-74.41,46.15-11.18,5.82-21.59-8.83-12.59-17.66,19.07-18.7,46.49-38.01,56.73-48.51,14.97-15.35,72.58-83.86,25.34-82.39-38.73,1.21-49.3,75.25-71.2,99.64-15.84,17.64-44.84,50.83-68.73,67.55-7.99,5.59-18.88-1.38-17.03-10.95,4.49-23.3,30.02-55.95,34.48-74.41,6.34-26.26,2.82-74.56-29.78-39.57-32.55,34.95-14.4,108.22-42.75,151.6-6.05,9.27-20.47,4.6-20.12-6.46,1.41-43.73,14.43-122.11-18.47-128.14-65.81-12.07-15.65,132.75-9.65,155.37,3.67,13.85,22.32,80.67-7.56,50.77-11.64-11.65-16.89-54.86-24.51-70.55-11.6-23.87-24.3-59.37-45.57-76.32-32.4-25.81-41.71,3.82-36.12,35.64,7.16,40.69,38.58,35.9,57.63,67.02,13.06,21.33,14.24,44.79,12.18,68.46-.93,10.64-15.09,13.79-20.41,4.53-12.59-21.95-26.91-55.04-34.4-65.39-16.59-22.95-32.18-80.16-57.33-93.76-50.28-27.18-19.34,68.3-5.47,88.44,21.28,30.9,45.54,54.97,62.39,88.95,4.51,9.09,23.24,37.81,19.58,48.53-8.01,23.45-30.53-13.73-37.04-23.69-20.91-31.96-40.54-65.47-65.86-95.14-33.01-38.68-95.2-34.22-62.22,27.35,21.09,39.38,78.19,56.81,111.21,84.59,13.87,11.67,35.63,27.1,34.43,48.64-1.93,34.76-26.59,21.71-40.87,1.77-13.34-18.64-21.11-42.06-40.81-56.31-20.84-15.09-185.37-105.75-160.23-28.65,16.92,51.88,77.56,33.84,116.43,50.43,25.57,10.91,52.42,26.99,69,49.31,17.64,23.73,43.03,79.06-6.35,45.78-32.36-21.81-60.1-62.92-100.93-69.75-58.18-9.73-42.42,42.82,3.73,55.89,37.23,10.55,87.76,12.76,105.36,53.8,7.01,16.35,11.47,55.96-10.73,58.52-11.49,1.32-57.14-45.22-67.56-54.91-15.24-14.17-30.53-40.39-52.9-40.11-6.85.09-12.06,6.55-10.5,13.22,14.71,63.04,134.74,73.59,131.22,145.16-2.13,43.26-53.61-12.8-75.29-25.24-19.07-10.95-81.53-33.81-75.63,9.91,4.11,30.42,43.23,25.87,63.64,26.47,30.32.89,62.86,3.47,87.55,23.73,22.17,18.2,35.82,56.89-7.1,52.78-23.4-2.24-57.36-46.59-83.49-26.26-38.67,30.08,47.25,51.34,63.86,57.38,27.88,10.14,30.29,14.68,21.58,46.61-7.86,28.83-19.02,53.36-25.35,81.51-1.56,6.96,3.66,13.61,10.8,13.5,7.98-.13,18.04.1,26.1.38,6.96.24,12.37-5.99,11.14-12.84-4.42-24.6-8.33-59.23,1.7-77.63,20.37-37.38,58.19-11.32,70.26,16.82,10.61,24.74,8.46,54.09,25.46,75.45,23.2,29.16,44.37,15.82,42-17.11-1.81-25.15-18.89-51.41-31.54-72.16-19.97-32.75-36.93-26.52-65.69-39.91-17.7-8.24-39.92-51.48-8.03-64.48,22.59-9.21,52.56,40.66,64.58,56.12,19.89,25.59,41.38,50.92,73.46,60.48,27.76,8.27,68.42-2.12,55.8-34.84-1.6-4.16-5.5-7.03-9.96-7.16-44.02-1.28-67.68-6.95-106.07-37.1-15.01-11.79-80.14-63.48-73.82-85.65,6.37-22.35,42.76-14.48,56.34-5.66,20.6,13.38,29.82,39.86,46.16,57.59,13.55,14.71,33.23,35.7,55.01,34.16,24.57-1.74,28.7-18.75,16.58-39.62-11.7-20.14-33.87-18.7-50.96-30.48-19.73-13.59-24.22-36.64-44.7-49.17-29.33-17.95-97.31-4.63-89.1-59.94,8.51-57.31,73.89,10.84,89.58,29.95,30.34,36.94,69.53,66.91,120.42,47.98,24.35-9.06,47.74-39.23,9.51-50.8-12.44-3.76-29.47,4.95-42.55,3.63-12.71-1.29-25.99-5.15-37.84-9.95-31.69-12.85-109.32-32.84-129.07-68.36-3.49-6.27.26-14.11,7.23-15.81,50.7-12.36,99.83,54.62,144.96,67.42,14.9,4.23,51.26,13.21,64.68,2.32,26.67-21.63-13.3-38.92-33.17-43.1-24.81-5.22-47.75-5.14-71.63-14.99-19.02-7.85-65.25-26.45-78.63-40.81-24.04-25.8,15.23-33.3,39.16-30.29,24.55,3.09,51.06,20.27,72.46,32.3,24.95,14.03,135.03,58.58,111.24-8.58-1.69-4.76-6.31-7.9-11.33-7.44-14.33,1.3-27.55,8.64-42.03,4.05-19.73-6.25-159.49-51.14-142.51-82.56,20.76-38.41,89.96,32.1,105.85,41.74,34.63,21.02,108.23-2.02,55.35-23.26-19.48-7.83-40.98-4.08-62.41-14.5-16.84-8.19-28.65-17.96-39.92-30.12-6.6-7.12-1.53-18.81,8.17-18.52,41.67,1.24,84.06,56.66,125.96,53.96,18.56-1.19,51.32-11.78,31.49-35.64-11.82-14.22-51.37-8.94-68.82-12.7-17.37-3.74-67.03-12.73-72.62-34.28-9.91-38.22,51.2-1.91,64.79,4.85,21.5,10.69,119.69,61.09,118.1,8.57-1.37-45.27-66.69-38.89-106.55-47.38-13.71-2.92-9.78-23.47,4.09-21.51,44.74,6.3,106.7,30.78,124.27-7.78,18.08-39.66-26.72-28.03-45.14-24.51-14.43,2.76-31.08,4.69-46.32,2.94-11.65-1.33-13.03-17.82-1.85-21.35,26.87-8.48,55.2.1,85.79-6.91,42.8-9.8,69.06-27.39,97.1-60.94,13.76-16.47,59.79-114.04,7.33-110.24Z"/>
        </g>
        <g class="cls-2">
          <path class="cls-23" d="m1256.82,571.63c-25.4-2.37-77.03,62.17-101.76,74.84-26.05,13.35-53.46,24.31-80.99,33.28-11.99,3.91-19.84-12.26-9.51-19.49,21.89-15.31,52.11-29.84,63.94-38.52,17.29-12.68,85.39-70.78,38.54-77.1-38.41-5.18-61.01,66.11-86.62,86.57-18.53,14.79-52.59,42.77-78.91,55.32-8.8,4.2-18.39-4.47-15-13.6,8.26-22.25,38.82-50.25,46.25-67.72,10.58-24.86,15.04-73.09-22.86-43.93-37.86,29.12-32.01,104.38-67.11,142.5-7.5,8.14-20.95,1.17-18.78-9.68,8.58-42.9,34.32-118.07,2.86-129.44-62.92-22.73-37.28,128.37-35.08,151.67,1.34,14.27,8.75,83.24-15.81,48.83-9.57-13.41-7.64-56.89-12.57-73.62-7.51-25.46-14.2-62.56-32.39-82.77-27.71-30.79-41.78-3.09-41.49,29.21.37,41.31,32.15,41.76,45.82,75.58,9.37,23.19,6.67,46.52.75,69.53-2.67,10.35-17.15,11.12-20.87,1.11-8.8-23.72-17.49-58.71-23.17-70.16-12.59-25.37-18.55-84.37-41.13-101.92-45.13-35.08-30.32,64.19-19.95,86.34,15.91,33.98,35.87,61.71,46.91,98,2.95,9.71,16.71,41.12,11.33,51.09-11.76,21.82-27.85-18.57-32.64-29.46-15.37-34.97-29.21-71.24-49.31-104.68-26.19-43.59-88.27-49.41-65.87,16.74,14.33,42.31,67.77,68.9,95.78,101.73,11.77,13.79,30.68,32.6,25.96,53.65-7.62,33.97-29.8,17.04-40.6-4.98-10.1-20.58-13.91-44.96-30.99-62.26-18.07-18.31-165.45-134.8-153.33-54.62,8.15,53.96,70.94,46.14,106.55,68.9,23.43,14.97,47.26,35.24,59.95,59.99,13.49,26.31,29.44,85.06-13.79,44.11-28.33-26.83-48.93-71.95-88.09-85.4-55.79-19.17-48.89,35.26-5.51,55.74,34.98,16.53,84.47,27.03,95.07,70.4,4.22,17.28,2.11,57.09-20.21,55.95-11.56-.59-48.92-54.01-57.6-65.28-12.7-16.49-23.47-44.86-45.59-48.26-6.77-1.04-12.97,4.48-12.53,11.31,4.14,64.6,120.8,94.76,105.55,164.77-9.21,42.32-50.77-21.44-70.11-37.28-17.01-13.94-74.86-46.76-76.23-2.67-.95,30.68,38.38,32.63,58.42,36.58,29.76,5.87,61.44,13.76,82.46,37.81,18.88,21.6,25.98,62.01-15.69,50.89-22.72-6.06-48.91-55.39-78.03-39.63-43.09,23.31,38.16,58.41,53.55,67.11,25.83,14.59,27.46,19.46,13.62,49.52-12.5,27.14-27.54,49.5-38.41,76.23-2.69,6.61,1.37,14.03,8.43,15.09,7.89,1.18,17.77,3.06,25.68,4.66,6.83,1.38,13.18-3.87,13.1-10.84-.31-24.99,1.52-59.79,14.44-76.29,26.24-33.52,59.26-1.6,66.54,28.15,6.4,26.15-.55,54.75,12.7,78.62,18.09,32.58,41.16,22.91,44.24-9.97,2.35-25.11-10.18-53.82-19.24-76.37-14.31-35.59-32.07-32.24-58.23-50.17-16.1-11.04-30.91-57.34,2.68-64.92,23.8-5.37,45.16,48.76,54.46,65.98,15.41,28.51,32.44,57.04,62.51,71.74,26.02,12.72,67.84,9.16,60.77-25.19-.9-4.36-4.27-7.84-8.64-8.7-43.21-8.51-65.61-17.99-98.52-54.04-12.86-14.1-68.61-75.8-58.73-96.63,9.96-21,44.56-7.25,56.51,3.69,18.11,16.59,22.86,44.22,36.06,64.4,10.95,16.74,26.9,40.68,48.64,42.74,24.53,2.33,31.4-13.77,22.87-36.35-8.23-21.79-30.33-24.02-45.25-38.45-17.23-16.65-17.86-40.13-36-55.86-25.98-22.53-95.22-20.57-78.02-73.78,17.82-55.13,71.1,22.85,83.44,44.28,23.85,41.43,57.58,77.44,110.88,67.13,25.51-4.93,53.55-30.85,17.74-48.54-11.66-5.76-29.88.03-42.56-3.42-12.33-3.36-24.79-9.36-35.68-16.04-29.14-17.89-102.43-50.37-116.07-88.66-2.41-6.76,2.58-13.87,9.73-14.4,52.04-3.85,89.48,70.29,131.89,90.35,14,6.62,48.39,21.46,63.41,12.93,29.87-16.94-6.72-40.58-25.63-47.97-23.61-9.23-46.25-12.92-68.19-26.57-17.47-10.87-60.01-36.82-70.85-53.19-19.47-29.4,20.51-30.34,43.61-23.43,23.71,7.09,47.03,28.39,66.16,43.77,22.31,17.94,123.55,79.99,111.13,9.84-.88-4.97-4.92-8.83-9.95-9.21-14.35-1.08-28.59,3.99-42.12-2.92-18.43-9.41-148.91-76.68-126.99-104.88,26.8-34.47,83.46,46.46,97.54,58.59,30.7,26.43,107.09,15.81,58.43-13.84-17.93-10.92-39.75-10.77-59.18-24.57-15.26-10.84-25.3-22.43-34.42-36.27-5.34-8.11,1.59-18.8,11.11-16.92,40.89,8.08,73.6,69.72,115.37,73.95,18.5,1.88,52.56-3.18,36.92-29.97-9.32-15.97-49.2-17.27-65.79-23.85-16.52-6.55-64.02-23.58-65.99-45.76-3.49-39.33,50.82,6.54,63.11,15.44,19.44,14.08,108.02,79.94,115.08,27.89,6.09-44.88-59.38-49.33-97.3-64.26-13.04-5.13-5.79-24.76,7.58-20.55,43.09,13.57,100.18,47.91,123.86,12.77,24.35-36.14-21.75-32.05-40.49-31.6-14.69.35-31.43-.49-46.17-4.72-11.27-3.23-9.92-19.72,1.68-21.36,27.9-3.94,54.43,9.18,85.76,7.3,43.83-2.63,72.63-15.66,105.8-44.14,16.29-13.98,77.73-102.65,25.37-107.53Z"/>
        </g>
        <g>
          <g>
            <path class="cls-18" d="m1130.09,721.51c.14-38.78,10.59-74.53,30.57-107.31,24-39.36,57.16-68.07,98.19-87.35,19.04-8.95,38.97-14.95,59.64-18.36,14.98-2.47,30.08-3.41,45.23-2.71,36.88,1.72,71.43,11.7,103,31.58,34.97,22.02,60.9,52.2,76.91,91.11,6.41,15.6,10.59,31.82,12.64,48.63,5.04,41.4-2.59,80.41-21.1,117.34-5.96,11.88-13.08,23.01-21.12,33.52-3.1,4.05-6.77,4.93-11.28,2.73-2.09-1.01-3.86-2.47-5.42-4.22-5.41-6.08-10.18-12.63-13.88-19.97-2.88-5.72-5.85-11.39-8.69-17.14-3.58-7.25-8.16-13.74-13.82-19.43-2.24-2.25-4.44-4.56-6.75-6.74-4.44-4.18-9.36-7.68-14.73-10.49-5.97-3.12-11.96-6.21-18-9.19-7.89-3.89-16.28-6.25-24.78-8.19-8.91-2.03-17.84-4-26.94-4.92-12.94-1.31-25.91-1.83-38.91-1.13-5.13.28-10.24.76-15.36,1.18-10.69.88-21.18,3-31.6,5.54-14.31,3.5-28.34,7.92-41.8,14.08-4.68,2.14-9.26,4.56-13.76,7.09-8.47,4.77-15.66,11.22-22.15,18.5-2.69,3.02-5.23,6.19-7.74,9.38-2.16,2.74-3.87,5.78-5.23,9.03-3.41,8.19-8.17,15.4-14.8,21.25-2.06,1.81-3.93,3.86-6.06,5.56-1.9,1.51-3.96,2.89-6.11,3.98-3.46,1.75-4.95,1.27-7.34-1.91-.78-1.04-1.43-2.19-2.1-3.31-9.74-16.37-16.81-33.88-21.3-52.49-3.62-14.99-5.44-30.21-5.38-45.67Z"/>
            <path class="cls-8" d="m1343.99,1443.73c-15.65-.2-31.15-.11-46.62-.67-15.31-.55-30.6-1.69-45.89-2.71-5.51-.37-10.99-1.17-16.49-1.72-5.34-.54-10.69-1-16.04-1.5-16.04-1.51-32.02-3.42-47.9-6.04-24.89-4.11-49.75-8.35-74.66-12.34-15.1-2.41-30.27-4.47-45.42-6.62-9.69-1.38-19.31-3.04-28.85-5.15-13.37-2.96-26.82-5.64-40.1-8.9-15.17-3.72-29.7-9.1-43.55-16.02-8.28-4.13-15.62-9.5-22.52-15.36-4.13-3.51-6.92-8.03-9.3-12.7-.72-1.41-.87-3.12-.99-4.72-.29-3.85.27-7.67,1.27-11.39,3.24-12.01,7.26-23.78,13.02-34.99,7.81-15.2,18.88-27.79,33.71-37.52,9.34-6.13,19.26-11.28,29.53-15.89,21.22-9.51,42.71-18.45,64.31-27.19,23.33-9.44,46.68-18.86,69.86-28.62,15.4-6.48,30.71-13.2,45.73-20.42,16.6-7.97,32.53-17.06,46.26-29.05,6.95-6.06,13.13-12.77,17.99-20.43,5.53-8.73,8.72-18.23,10.46-28.22,2.08-11.99,2.27-24.05,2.03-36.14-.18-8.98-.49-17.97-1.1-26.93-.65-9.55-1.68-19.08-2.6-28.61-.65-6.75-1.4-13.49-2.12-20.23-.42-3.96-.95-7.9-1.31-11.87-.29-3.22-.34-6.46-.59-9.69-.17-2.26.76-4.11,2.57-5.43,2.48-1.8,5.04-3.57,7.78-5,7.19-3.75,14.86-6.51,22.69-8.87,14.65-4.42,29.7-6.93,45.03-8.12,11.67-.9,23.35-1.36,35.05-1.28,16.6.11,33.18.74,49.61,3.23,15.35,2.33,30.24,6.16,44.39,12.28,3.15,1.36,6.22,2.91,9.2,4.56,1.75.97,3.33,2.24,4.84,3.53,1.58,1.34,2.19,3.01,2.18,5.12,0,6.95-1.02,13.81-1.75,20.69-.81,7.62-1.72,15.23-2.48,22.86-.91,9.09-1.95,18.18-2.48,27.29-.89,15.15-1.6,30.3-.73,45.49.52,9.15,1.55,18.21,4.1,27.06,2.69,9.34,7.13,17.9,13.48,25.61,8.16,9.92,17.95,18.2,28.92,25.31,15.62,10.13,32.37,18.38,49.52,25.98,24.41,10.81,49.26,20.69,73.98,30.85,27.61,11.36,55.41,22.3,82.61,34.51,11.26,5.05,22.3,10.45,32.6,17.1,15.45,9.99,26.93,23,34.88,38.84,5.58,11.12,9.64,22.72,12.65,34.64.68,2.71.97,5.52,1.31,8.29.44,3.63-.49,6.96-2.52,10.13-3.34,5.24-7.38,9.8-12.45,13.75-10.31,8.04-21.87,13.94-34.17,18.76-15.94,6.25-32.51,10.52-49.36,13.95-10.96,2.23-21.89,4.59-32.88,6.64-6.97,1.3-14.03,2.11-21.05,3.16-14.82,2.22-29.66,4.34-44.44,6.72-25.53,4.11-51,8.55-76.55,12.55-16.83,2.64-33.79,4.47-50.81,5.75-5.83.44-11.62,1.2-17.43,1.78-4.87.48-9.74,1.03-14.62,1.33-11.67.72-23.34,1.55-35.02,1.88-15.64.45-31.29.46-46.77.66Z"/>
            <path class="cls-4" d="m1294.26,1119.67c11.34,8.07,23.44,13.8,36.59,16.21,14.93,2.74,29.42,1.34,43.12-6.89,7.61-4.57,14.8-9.81,21.57-15.86,20.47-18.26,38.01-39.65,52.45-64.3.21-5.28.46-10.57.77-15.85.53-9.11,1.58-18.2,2.48-27.29.76-7.62,1.68-15.23,2.48-22.86.73-6.89,1.75-13.74,1.75-20.69,0-.47-.04-.9-.11-1.33-.03-.02-.06-.05-.09-.08-3.18-2.25-6.45-4.35-9.8-6.21-15.07-8.33-30.93-13.53-47.28-16.71-17.5-3.4-35.16-4.25-52.85-4.4-.16,0-.31,0-.47,0-4.51-.02-9.02.08-13.53.21-7.78.27-15.56.76-23.33,1.53-16.34,1.61-32.36,5.03-47.97,11.05-8.34,3.22-16.51,6.97-24.17,12.08-1.27.84-2.49,1.8-3.69,2.79-.03.34-.08.68-.05,1.04.24,3.23.3,6.47.58,9.69.35,3.96.88,7.91,1.31,11.87.72,6.74,1.46,13.48,2.12,20.23.92,9.53,1.95,19.06,2.6,28.61.61,8.96.92,17.95,1.1,26.93.03,1.32.02,2.63.03,3.95,15.04,22.29,33.1,41.14,54.38,56.28Z"/>
            <g>
              <g>
                <path class="cls-8" d="m1202.58,898.35c0,5.45-.08,10.9.04,16.34.06,2.5-.96,4.59-2.06,6.65-.34.63-1.37,1.06-2.17,1.25-3.97.95-7.93.35-11.81-.51-10.26-2.26-18.77-7.52-25.73-15.35-7.21-8.12-12.73-17.29-16.87-27.3-5.59-13.52-9.41-27.58-11.9-41.97-1.55-9-2.27-18.11-2.1-27.27.08-4.15.8-8.18,1.76-12.21,2.97-12.45,13.36-18.24,24.71-17.47,8.96.61,16.75,4.17,23.34,10.36,6.45,6.05,10.56,13.39,12.11,22.07,1.6,8.98,3.02,18,4.38,27.02,1.21,8,2.37,16.02,3.28,24.06.88,7.75,1.47,15.53,2.1,23.31.3,3.67.38,7.35.56,11.03.12,0,.24,0,.36,0Z"/>
                <path class="cls-8" d="m1485.15,902.17c.64-14.28,1.47-28.53,3.6-42.68,1.42-9.46,2.43-18.98,3.84-28.45,1-6.69,1.98-13.42,3.62-19.98,3.77-15.08,13.25-24.98,28.22-29.39,4.26-1.26,8.64-1.63,13.1-.82,8.9,1.63,14.96,6.48,17.79,15.18,2.18,6.68,2.73,13.56,2.33,20.51-.43,7.49-.96,14.98-2.33,22.39-2.61,14.08-6.36,27.84-11.88,41.06-4.16,9.98-9.73,19.14-17.06,27.18-6.84,7.52-15.12,12.58-25.06,14.84-4.04.92-8.13,1.5-12.24.53-.78-.18-1.77-.71-2.09-1.36-1.08-2.22-2.14-4.4-1.94-7.1.29-3.95.07-7.94.07-11.92Z"/>
              </g>
              <g>
                <path class="cls-8" d="m1191.9,812.94c-1.54-8.68-5.66-16.01-12.11-22.07-6.59-6.19-14.38-9.75-23.34-10.36-11.35-.78-21.74,5.02-24.71,17.47-.08.35-.15.7-.23,1.05,24.73,16.01,47.48,34.37,66.99,56.58-.69-5.22-1.43-10.44-2.21-15.65-1.36-9.02-2.78-18.04-4.38-27.02Z"/>
                <path class="cls-8" d="m1522.78,823.3c6.69-5.53,13.7-10.71,20.78-15.74,4.11-2.92,8.32-5.73,12.57-8.53-.25-1-.47-2-.79-2.99-2.83-8.7-8.89-13.54-17.79-15.18-4.47-.82-8.85-.44-13.11.82-14.96,4.42-24.45,14.31-28.22,29.39-1.64,6.55-2.62,13.28-3.62,19.98-1.2,8.03-2.14,16.1-3.26,24.14,4.55-4.82,9.04-9.61,13.73-14.16,6.35-6.14,12.9-12.1,19.71-17.73Z"/>
              </g>
            </g>
            <path class="cls-8" d="m1510.2,747.75c-.45,8.01-.89,16.53-1.41,25.04-.29,4.8-.76,9.59-1.06,14.39-.96,15.18-2.46,30.29-4.34,45.37-1.07,8.61-1.84,17.27-2.88,25.89-2.03,16.77-4.04,33.55-6.3,50.29-1.49,11.05-3.12,22.1-5.21,33.04-2.41,12.61-5.44,25.1-9.06,37.4-3.01,10.25-8.46,19.06-15.08,27.13-5.43,6.62-11.6,12.27-18.76,16.8-10.66,6.75-21.67,12.61-33.75,15.91-15.12,4.14-30.42,7.34-46,8.94-4.84.5-9.66,1.11-14.5,1.65-5.59.63-11.18.53-16.76-.04-19.07-1.94-38-4.72-56.63-9.67-11.97-3.18-23.12-8.25-33.71-14.8-1.14-.71-2.25-1.48-3.39-2.19-12.44-7.64-21.46-18.74-28.67-31.63-2.48-4.43-4.3-9.2-5.58-14.15-2.17-8.38-4.14-16.81-6.29-25.19-2.47-9.61-3.78-19.44-5.25-29.24-.94-6.28-1.99-12.55-2.83-18.84-1.17-8.75-2.21-17.53-3.28-26.3-1.04-8.46-2.07-16.93-3.05-25.4-1.12-9.7-2.26-19.4-3.24-29.12-1.18-11.72-2.38-23.45-3.26-35.2-1.25-16.7-2.85-33.41-2.02-50.2.43-8.83,1.11-17.65,1.96-26.44,1.21-12.51,3.29-24.89,5.89-37.16,5.13-24.19,15.51-45.43,32.29-63,5.68-5.94,12.15-10.81,19.11-14.94,14.69-8.72,30.19-15.44,46.38-20.35,9.05-2.74,18.12-5.51,27.44-7.09,8-1.35,16.03-2.44,24.17-2.34,4.86.06,9.72.06,14.58,0,14.84-.2,29.31,2.29,43.63,6.26,14.84,4.12,29.36,9.14,43.28,15.99,8.97,4.4,17.66,9.26,25.53,15.65,6.69,5.44,12.66,11.64,17.65,18.82,11.22,16.11,18.89,33.85,22.67,53.53,2.99,15.54,5.2,31.17,6.57,46.93.68,7.87.78,15.8,1.16,24.24Z"/>
            <g>
              <path class="cls-21" d="m1782.07,1346.67c-.34-2.78-.63-5.58-1.31-8.29-3.01-11.92-7.07-23.51-12.65-34.64-7.94-15.84-19.42-28.85-34.88-38.84-10.3-6.66-21.33-12.05-32.6-17.1-27.2-12.2-55-23.15-82.61-34.51-24.72-10.17-49.57-20.04-73.98-30.85-11.24-4.98-22.26-10.3-32.95-16.18-16.86,35.64-42.21,65.66-76.69,89.55-17.79,12.33-37.35,21.49-58.83,26.88-13.84,3.47-27.87,5.3-42.22,3.8-13.1-1.37-25.77-4.44-38.04-8.93-22.95-8.41-43.22-20.79-61.23-36.36-24.88-21.5-44-46.46-57.45-74.8-4.44,2.4-8.96,4.7-13.53,6.9-15.02,7.21-30.33,13.93-45.73,20.42-23.18,9.75-46.53,19.18-69.86,28.62-21.6,8.74-43.09,17.68-64.31,27.19-10.27,4.6-20.19,9.76-29.53,15.89-14.83,9.73-25.91,22.31-33.71,37.52-5.76,11.21-9.78,22.98-13.02,34.99-1,3.72-1.56,7.54-1.27,11.39.12,1.59.27,3.31.99,4.72,2.38,4.67,5.17,9.19,9.3,12.7,6.9,5.86,14.24,11.23,22.52,15.36,13.85,6.91,28.38,12.3,43.55,16.02,13.28,3.26,26.73,5.94,40.1,8.9,9.54,2.11,19.16,3.78,28.85,5.15,15.15,2.15,30.32,4.21,45.42,6.62,24.91,3.98,49.77,8.23,74.66,12.34,15.88,2.62,31.86,4.53,47.9,6.04,5.34.5,10.69.97,16.04,1.5,5.5.55,10.98,1.36,16.49,1.72,15.29,1.02,30.58,2.15,45.89,2.71,15.47.56,30.97.47,46.62.67,15.49-.2,31.14-.21,46.77-.66,11.68-.33,23.35-1.17,35.02-1.88,4.88-.3,9.75-.85,14.62-1.33,5.81-.58,11.61-1.35,17.43-1.78,17.02-1.27,33.98-3.11,50.81-5.75,25.55-4,51.02-8.44,76.55-12.55,14.79-2.38,29.63-4.5,44.44-6.72,7.02-1.05,14.09-1.87,21.05-3.16,11-2.05,21.92-4.41,32.88-6.64,16.85-3.43,33.42-7.7,49.36-13.95,12.3-4.82,23.86-10.73,34.17-18.76,5.07-3.95,9.11-8.51,12.45-13.75,2.02-3.17,2.96-6.5,2.52-10.13Z"/>
              <path class="cls-9" d="m1234.08,1241.19c18.02,15.57,38.29,27.95,61.23,36.36,12.27,4.5,24.93,7.56,38.04,8.93,14.35,1.5,28.39-.33,42.22-3.8,21.48-5.39,41.03-14.56,58.83-26.88,34.49-23.89,59.83-53.9,76.69-89.55-5.63-3.1-11.18-6.3-16.57-9.8-2.4-1.56-4.73-3.2-7.01-4.88-5.24,9.61-10.95,18.97-17.34,27.99-12.51,17.68-26.9,33.85-44.06,47.8-11.01,8.95-22.89,16.72-36.09,22.63-14.88,6.67-30.44,10.43-47.11,10.19-10.87-.15-21.38-1.72-31.63-4.96-15.6-4.94-29.5-12.72-42.38-22.17-17.66-12.95-32.49-28.38-45.49-45.39-8.78-11.48-16.47-23.52-23.3-36.03-7.42,5.49-15.3,10.34-23.48,14.76,13.45,28.33,32.56,53.3,57.45,74.8Z"/>
            </g>
            <path class="cls-1" d="m1278.97,669.49c-.38,1-.76,2-1.13,3.01,0,0,.1.09.11.09-.43-1.97-.34-2.24,1-3.09h.03Z"/>
            <path class="cls-1" d="m1278.94,669.51c-.04-.53-.07-1.06-.11-1.59.05,0,.09,0,.14-.01v1.58s-.03.01-.03.01Z"/>
            <path class="cls-18" d="m1413.89,672.6s.87.29.98.57c.5,1.22.86,2.5,1.31,3.75,4.11,11.5,10.09,21.93,18.02,31.2,2.67,3.12,5.72,5.93,8.81,8.65,3.83,3.37,8.5,5.24,13.36,6.61.95.27,1.99.22,3.32.35,0-.91.1-1.61-.01-2.27-.73-4.36-1.53-8.7-2.24-13.06-1.43-8.74-1.82-17.57-2-26.41-.2-9.87-.44-19.73-.59-29.6-.05-3.24.12-6.48.22-9.71.02-.7-.06-1.51,1.06-2,.38,1.54.82,3.03,1.1,4.54,4.4,23.5,11.54,46.26,18.69,69.01,2.81,8.94,7.13,17.11,12.88,24.51,3.79,4.89,7.49,9.86,11.41,14.64,6.57,8.01,10.92,17.08,13.42,27.08.31,1.24.52,2.5.92,4.42.52-1.69.95-2.77,1.18-3.89,1.66-8.07,3.38-16.13,4.89-24.24.65-3.47.96-7.01,1.21-10.53,1.13-15.75.84-31.49-.44-47.23-1.01-12.35-2.55-24.61-5.64-36.63-6.12-23.82-17.09-45.14-33.64-63.36-9.86-10.85-21.18-20.03-34.21-26.95-7.05-3.74-14.5-6.53-21.98-9.2-15.98-5.72-32.35-9.94-49.14-12.51-13.29-2.03-26.63-3.13-40.06-2.5-6.76.32-13.5,1.1-20.22,1.94-11.99,1.51-23.79,4.09-35.51,7.04-7.01,1.76-13.87,4.04-20.45,6.99-14.03,6.3-27.25,13.96-39.28,23.61-8.7,6.99-15.96,15.24-22.04,24.57-9.41,14.46-15.86,30.17-20.19,46.84-4.16,16-7.1,32.21-8.65,48.65-1.05,11.15-1.44,22.34-.61,33.54.55,7.34.84,14.7,1.33,22.05.25,3.67.65,7.34,1.06,10.99.09.83.5,1.62.81,2.57,1.94-.68,3.13-1.99,4.29-3.28,3.95-4.37,7.8-8.83,11.78-13.17,7.29-7.95,13.67-16.59,19.71-25.5,9.79-14.45,15.82-30.53,20.59-47.16,2.44-8.51,3.68-17.27,5.22-25.97,1.16-6.52,2.19-13.07,3.2-19.62.54-3.48.91-6.98,1.45-11.25.79,1.38,1.31,2.05,1.59,2.81,4.91,13.19,8,26.78,8.98,40.84.53,7.65,1.06,15.3.46,22.95-.51,6.61-1.26,13.19-1.86,19.79-.17,1.86-.61,3.77.24,5.41,1.11.65,1.92.2,2.72-.11,1.92-.76,3.82-1.55,5.72-2.35,10.44-4.42,21.41-6.36,32.67-6.92,7.06-.36,14.12-.65,21.18-1.03,7.71-.42,15.15-1.95,22.22-5.21,6.29-2.9,12.76-5.39,19.63-6.58,5.38-.93,10.78-1.36,16.27-.94,7.06.55,14.07,1.26,20.97,2.94,6.03,1.47,11.81,3.65,17.57,5.9,2.19.86,4.36,1.82,6.62,2.47,1.67.49,3.45.68,5.19.77,1.31.07,2.25-.89,2.2-2.24-.07-1.9-.27-3.82-.68-5.68-1.99-8.91-4.07-17.79-6.1-26.69-.32-1.43-.88-4.23-.88-4.23Z"/>
            <path class="cls-9" d="m1047.51,1222.32c-21.6,8.74-43.09,17.68-64.31,27.19-10.27,4.6-20.19,9.76-29.53,15.89-14.83,9.73-25.91,22.31-33.71,37.52-5.76,11.21-9.78,22.98-13.02,34.99-1,3.72-1.56,7.54-1.27,11.39.12,1.59.27,3.31.99,4.72,2.38,4.67,5.17,9.19,9.3,12.7,6.9,5.86,14.23,11.23,22.52,15.36,13.85,6.91,28.38,12.3,43.55,16.02,13.28,3.26,26.73,5.94,40.1,8.9,9.54,2.11,19.16,3.78,28.85,5.15,15.15,2.15,30.32,4.21,45.42,6.62,1.19.19,2.37.39,3.56.58-6.71-69.29-15.53-138.08-32.7-205.03-6.58,2.67-13.16,5.35-19.75,8.01Z"/>
            <path class="cls-9" d="m1782.07,1346.67c-.34-2.78-.63-5.58-1.31-8.29-3.01-11.92-7.07-23.52-12.65-34.64-7.94-15.84-19.42-28.85-34.88-38.84-10.3-6.66-21.33-12.05-32.6-17.1-27.2-12.2-55-23.15-82.61-34.51-2.08-.86-4.17-1.7-6.25-2.56-22.71,69.55-39.39,140.81-49.69,212.87,7.7-1.28,15.4-2.57,23.11-3.81,14.79-2.38,29.63-4.5,44.44-6.72,7.02-1.05,14.09-1.87,21.05-3.17,11-2.05,21.92-4.41,32.88-6.64,16.85-3.43,33.42-7.7,49.36-13.95,12.3-4.82,23.86-10.73,34.17-18.76,5.07-3.95,9.11-8.51,12.45-13.75,2.02-3.17,2.96-6.5,2.52-10.13Z"/>
          </g>
          <g>
            <path class="cls-11" d="m908.35,694.17c73.29-27.64,69.44-93.83,69.44-93.83-39.52,12.47-67.27,14.23-85.55,12.63,18.48-8.28,52.55-29.18,52.55-70.86-94.95,28.09-208.85-20.12-228.36-25.75-10.16-2.93-20.34-5.87-30.75-7.48-8.04-1.24-16.12-2.29-24.21-2.97-12.95-1.09-25.74.18-38.22,4.44-9.88,3.37-19.09,8.2-26.7,16.23-6.65,7.02-12.82,14.48-16.1,24.31-.09.26-.38.43-.7.76-2.26-.94-4.56-2.06-6.94-2.84-11.15-3.63-22.37-3.5-33.62-.51-9.9,2.63-17.47,8.92-23.04,18.31-1.47,2.47-2.91,5.01-4.02,7.7-2.41,5.82-4.88,11.64-6.83,17.66-6.73,20.85-10.69,42.46-13.42,64.36-1.02,8.21-1.75,16.49-2.22,24.76-.53,9.22-.85,18.47-.81,27.7.03,7.19.59,14.39,1.22,21.55,1.07,12.16,2.6,24.25,5.18,36.14,1.32,6.08,2.66,12.16,4.83,17.97,2.03,5.45,5,10.14,9.01,13.96,4.79,4.57,10.36,6.74,16.68,6.2,2.39-.21,4.86-.63,6.62-2.58,3.62-4.02,8.19-5.95,12.85-7.64,7.06-2.56,14.29-4.45,21.61-5.83,13.84-2.62,27.81-3.57,41.83-3.73,8.69-.1,17.36.57,25.99,1.7,9.73,1.28,19.48,2.44,29.15,4.19,17.82,3.23,35.61,6.7,53.52,9.28,14.85,2.15,29.69,4.41,44.54,6.59,15.01,2.2,30.1,3.22,45.23,3.53,10.51.21,21-.09,31.43-1.78,14.23-2.31,27.88-6.7,40.84-13.71,4.85-2.62,8.57-13.69,11.15-28.98,68.81-.65,84.04-59.32,84.04-59.32-24.76,7.04-48.12-1.16-66.24-12.16Z"/>
            <g>
              <g>
                <path class="cls-20" d="m894.56,843.8c-.04-8.88-.79-17.68-2.11-26.46-1.27-8.43-4.04-16.27-8.73-23.42-1.74-2.65-3.71-5.1-6.21-7.07-7.04-5.56-14.66-6.46-22.77-2.67-4.37,2.04-8.19,4.95-12.05,7.83-5.12,3.82-8.42,8.74-10.54,14.74-5.18,14.64-8.53,29.65-10.21,45.08-.67,6.14-.8,12.27-.76,18.42.04,6.34.88,12.58,2.78,18.62.76,2.41,1.81,4.77,3,7,1.16,2.17,3.06,3.52,5.48,4.36,6.35,2.22,12.71,2.1,19.05.37,10.2-2.79,19.69-7.2,28.49-13.08,5.73-3.83,9.44-9.13,11.45-15.66,1.55-5.04,2.42-10.22,2.74-15.47.26-4.19.26-8.4.38-12.59Z"/>
                <path class="cls-20" d="m497.42,844.16c-.05,6.61-.15,13.23,1.17,19.74.75,3.66,1.64,7.32,2.9,10.83,1.87,5.22,5.35,9.32,9.92,12.49,7.08,4.9,14.76,8.62,22.85,11.48,3.24,1.14,6.6,2.03,9.97,2.69,5.09.99,10.12.55,15.08-1.11,2.6-.87,4.56-2.35,5.75-4.7,1.15-2.26,2.17-4.62,2.91-7.04,1.64-5.33,2.48-10.82,2.63-16.39.63-23.26-3.71-45.65-11.74-67.4-1.64-4.45-4.17-8.22-7.94-11.23-3.88-3.09-7.8-6.08-12.15-8.5-11.44-6.34-22.16-2.37-28.77,6.28-4.79,6.28-8.07,13.32-9.66,21.1-2.06,10.12-2.84,18.65-2.93,31.76Z"/>
              </g>
              <g>
                <path class="cls-6" d="m832.15,806.75c2.12-6,5.42-10.92,10.54-14.74,3.86-2.88,7.68-5.79,12.05-7.83,8.11-3.78,15.73-2.88,22.77,2.67,2.5,1.97,4.47,4.42,6.21,7.07,2.7,4.11,4.7,8.48,6.2,13.03-25.05,15.71-47.85,34.5-68.65,56.21.09-3.78.26-7.56.67-11.34,1.67-15.43,5.03-30.44,10.21-45.08Z"/>
                <path class="cls-6" d="m554.77,847.53c-3.21-2.95-6.47-5.84-9.77-8.67-3.3-2.84-6.66-5.62-10.05-8.34-3.51-2.82-7.07-5.59-10.67-8.29-3.48-2.61-7.01-5.17-10.6-7.63-3.72-2.54-7.56-4.9-11.32-7.38-.18-.12-.37-.22-.55-.33,1.82-5.62,4.57-10.82,8.2-15.58,6.61-8.66,17.33-12.62,28.77-6.28,4.35,2.41,8.27,5.41,12.15,8.5,3.77,3,6.3,6.77,7.94,11.23,6.99,18.96,11.19,38.4,11.73,58.48-2.03-2.2-4.03-4.34-6.05-6.38-3.18-3.19-6.47-6.27-9.78-9.32Z"/>
              </g>
            </g>
            <path class="cls-13" d="m695.88,1442.78c3.3,0,6.6.02,9.9,0,7.06-.04,14.12.04,21.17-.19,9.75-.32,19.49-.84,29.24-1.38,5.25-.29,10.48-.85,15.72-1.19,13.78-.88,27.57-1.72,41.36-2.56,6.14-.37,12.3-.59,18.43-1.06,9.58-.73,19.15-1.53,28.71-2.46,8.96-.87,17.92-1.86,26.85-2.95,9.98-1.22,19.95-2.54,29.91-3.94,9.21-1.29,18.42-2.66,27.6-4.14,24.31-3.89,48.45-8.56,72.25-14.91,10.14-2.71,20.4-5,30.53-7.73,10.44-2.81,20.59-6.49,30.54-10.73,4.43-1.89,8.71-4.04,12.73-6.71,3.92-2.6,7.28-5.78,10.09-9.55,2.77-3.71,4.34-7.8,4.58-12.47.24-4.69-.05-9.29-1.07-13.86-1.14-5.13-2.01-10.32-3.29-15.4-4.5-17.87-11.67-34.67-20.78-50.66-2.52-4.43-5.23-8.77-8.06-13.02-10.96-16.44-25.32-29.24-42.52-38.8-18.91-10.5-38.5-19.55-58.68-27.39-17.21-6.69-34.74-12.41-52.28-18.13-9.12-2.98-18.39-5.53-27.5-8.55-17.23-5.72-34.38-11.66-51.03-18.94-11.58-5.06-21.71-11.99-30.67-23.45-8.96-11.46-17.45-35.26-16.12-61.89-.4-20.87.13-41.75.85-62.61.4-11.7,1.36-23.37,2.05-35.06.12-1.95.06-3.91.28-5.85.56-4.92-1.63-8.73-4.83-12.11-2.81-2.97-6.1-5.39-9.76-7.16-4.17-2.03-18.15-3.98-22.51-5.54-10.76-3.85-21.84-6.44-33.14-8.24-6.98-1.12-14-1.98-21.03-2.22-13.06-.45-26.08-.05-39.05,2.06-10.84,1.77-31.22,4.2-41.66,7.59-5,1.63-9.94,3.45-14.49,6.11-2.84,1.66-5.61,3.49-8.17,5.55-1.72,1.38-3.15,3.2-4.49,4.99-1.85,2.47-2.67,5.27-2.42,8.45.53,6.88.89,13.78,1.32,20.67.17,2.7.36,5.39.49,8.09.78,16.05,1.01,32.11,1.33,48.18.29,14.27-.11,28.52-.47,42.78-.17,6.61-.99,13.17-2.65,19.59-1.36,5.28-11.87,33.92-38.83,48.17-20.16,10.66-51.36,19.66-75.04,26.92-19.5,5.98-38.87,12.34-57.94,19.61-19.95,7.6-39.25,16.53-58.07,26.57-21.03,11.22-37.77,26.87-50.12,47.33-8.66,14.34-15.64,29.4-21.12,45.19-2.91,8.38-4.64,17.08-6.34,25.77-.55,2.8-1.11,5.61-1.31,8.45-.2,2.83-.09,5.7.13,8.53.31,4,2,7.5,4.37,10.7,3.73,5.04,8.39,9.04,13.94,11.88,4.93,2.52,9.97,4.9,15.11,6.95,11.44,4.56,23.17,8.23,35.15,11.12,14.87,3.58,29.67,7.49,44.6,10.83,12,2.68,24.11,4.94,36.23,6.99,15.09,2.55,30.23,4.82,45.38,6.97,17.68,2.5,35.4,4.78,53.2,6.39,14.05,1.27,28.11,2.48,42.22,3.07,11.25.47,22.47,1.42,33.71,2.14,5.09.33,10.19.64,15.28.95,11.69.7,23.37,1.54,35.06,2.04,7.2.31,14.41.06,21.62.15,4.5.05,9,.27,13.5.41,0-.1,0-.2,0-.31Z"/>
            <path class="cls-6" d="m628.48,1085.97c9.28,6.09,19.7,9.4,31.09,10.48,2.27.22,4.54.41,6.81.63,9.6.89,18.89-.64,28.05-2.92,15.98-3.97,29.99-11.24,42.68-20.58,9.75-7.18,18.62-15.16,26.68-23.84,10.85-11.68,20.39-24.17,29.09-37.19.48-.72.92-1.46,1.39-2.19.03-.76.05-1.51.07-2.27.4-11.7,1.36-23.37,2.05-35.06.12-1.95.06-3.91.28-5.85.56-4.92-1.63-8.73-4.83-12.11-2.81-2.97-6.1-5.39-9.76-7.16-4.17-2.03-18.15-3.98-22.51-5.54-10.76-3.85-21.84-6.44-33.14-8.24-6.98-1.12-14-1.98-21.03-2.22-13.06-.45-26.08-.05-39.05,2.06-10.84,1.77-31.22,4.2-41.66,7.59-5,1.63-9.94,3.45-14.49,6.11-2.84,1.66-5.61,3.49-8.17,5.55-1.72,1.38-3.15,3.2-4.49,4.99-1.85,2.47-2.67,5.27-2.42,8.45.53,6.88.89,13.78,1.32,20.67.17,2.7.36,5.39.49,8.09.78,16.05,1.01,32.11,1.33,48.18.09,4.54.03,9.08,0,13.62,4.3,5.61,9.06,10.92,14.13,16.02,4.78,4.81,10.27,8.91,16.08,12.72Z"/>
            <path class="cls-13" d="m529.06,719.46c.4,8.85.84,17.7,1.2,26.55.47,11.56,1.82,23.04,3.27,34.51.88,7,1.38,14.04,2.15,21.06,1.39,12.68,3.1,25.32,5.51,37.86,1.62,8.4,2.68,16.9,4.24,25.31,2.34,12.69,4.33,25.48,7.47,37.98,7.09,28.22,14.25,40.65,31.08,59.52,6.71,7.52,14,14.46,22.05,20.56,10.77,8.16,21.61,16.22,33.3,23.07,14.35,8.41,29.55,14.63,45.8,18.25,7.15,1.6,14.26,1.63,21.42.04,16.1-3.57,31.21-9.65,45.43-17.97,13.51-7.91,26.16-17.07,38.25-26.97,12.86-10.53,23.84-22.84,32.98-36.75,1.64-2.5,3.2-5.1,4.45-7.82,4.89-10.65,9.22-21.52,11.64-33.05,3.34-15.86,6.33-31.79,8.91-47.79,1.55-9.63,3.38-19.21,4.93-28.84.93-5.78,1.63-11.59,2.3-17.4,1.46-12.67,2.81-25.36,4.27-38.03,1.32-11.5,1.93-23.04,2.34-34.59.28-7.8.49-15.61.77-23.41.11-3.15.43-6.29.49-9.44.48-24.16-3.43-47.6-12.47-70.01-13.34-33.08-36.64-57-68.48-72.73-14.5-7.16-29.8-11.81-45.74-14.51-10.99-1.86-22.03-2.82-33.17-2.69-8.41.09-16.84-.21-25.23.2-28.64,1.41-55.76,8.37-80.42,23.38-31.87,19.4-52.65,47.2-62.44,83.24-2.44,9-4.59,18.06-5.59,27.32-1.1,10.15-1.59,20.35-.97,30.57.26,4.19.3,8.4.45,12.6-.06,0-.12,0-.18,0Z"/>
            <path class="cls-11" d="m533.01,780.84c.35-.34.66-.78,1.08-1.02,12.47-7.22,21.42-17.74,28.26-30.21,5.75-10.48,9.54-21.69,11.91-33.38,3.75-18.44,3.93-36.96,1.2-55.55-.04-.28.05-.59.09-.97,1.38.25,1.73,1.51,2.35,2.42,7.89,11.65,17.32,21.88,28.35,30.63,13.82,10.97,29.11,19.03,46.4,22.99,9.89,2.26,19.88,3.01,29.95,1.31.68-.11,1.34-.37,2.36-.66-1.51-2.59-3.75-3.92-5.45-5.72-1.76-1.85-3.63-3.59-5.39-5.44-1.75-1.85-3.46-3.75-5.12-5.69-1.66-1.94-3.27-3.92-4.83-5.94-1.66-2.13-3.24-4.32-4.84-6.5-1.51-2.06-3-4.13-4.5-6.2-1.49-2.07-2.99-4.14-4.46-6.23s-2.96-4.16-4.38-6.28c-1.42-2.12-2.8-4.27-4.12-6.45-1.29-2.11-2.71-4.17-2.92-6.92,1.17,1.1,2.35,2.18,3.5,3.3,13.14,12.82,27.16,24.61,42.18,35.15,21.37,14.99,44.78,25.51,70.31,31.21,9.4,2.1,18.93,3.23,28.52,3.96,2.09.16,4.21.1,6.3-.02.77-.04,1.51-.52,2.61-.93-3.76-2.7-7.22-5.05-10.53-7.59-14.92-11.47-28.72-24.17-41.28-38.19-4.71-5.26-8.98-10.87-12.72-16.97,1.06-.63,1.38.3,1.78.72,19.78,20.55,42.89,36.58,67.99,49.86,7.3,3.86,14.64,7.64,21.86,11.63,13.64,7.52,26,16.72,36.39,28.43,3.4,3.82,6.59,7.8,9.28,12.16.38.61.84,1.17,1.6,2.22.57-1.83,1.05-3.17,1.41-4.53,2.05-7.88,2.62-15.98,3.56-24.03,1.4-11.99.79-23.99.28-35.99-.22-5.25-.2-10.51-.33-15.76-.6-24.24-4.6-47.84-14.5-70.1-8.89-19.98-21.02-37.75-37.94-51.92-7.27-6.09-15.17-11.31-23.39-16-17.01-9.72-34.86-17.45-53.89-22.31-10.97-2.8-22.15-3.99-33.42-4.26-7.65-.18-15.32-.12-22.97.07-21.99.55-43.12,5.15-63.48,13.49-14.5,5.93-28.27,13.2-41.36,21.78-8.71,5.71-16.65,12.32-23.63,20.06-2.82,3.12-5.64,6.23-8.44,9.37-8.68,9.72-15.56,20.56-20.42,32.68-4.7,11.71-8.86,23.6-11.94,35.84-1.25,4.96-2,10.01-2.28,15.12-.43,7.94-.79,15.89-1.14,23.84-.38,8.45.74,16.78,2.21,25.07,2.52,14.19,5.49,28.28,9.09,42.24,1.46,5.67,3.03,11.3,7.03,16.03"/>
            <path class="cls-23" d="m918.81,1183.54c17.53,5.72,35.06,11.44,52.28,18.13,20.18,7.84,39.77,16.89,58.68,27.39,17.21,9.56,31.56,22.36,42.52,38.8,2.83,4.24,5.53,8.59,8.06,13.02,9.11,15.98,16.28,32.78,20.78,50.66,1.28,5.09,2.16,10.28,3.29,15.4,1.02,4.58,1.31,9.18,1.07,13.86-.24,4.68-1.81,8.77-4.58,12.47-2.81,3.77-6.17,6.95-10.09,9.55-4.02,2.66-8.3,4.82-12.73,6.71-9.95,4.24-20.1,7.92-30.54,10.74-10.14,2.73-20.39,5.02-30.53,7.72-23.8,6.35-47.95,11.02-72.25,14.91-9.19,1.47-18.39,2.84-27.6,4.14-9.96,1.4-19.93,2.72-29.91,3.94-8.94,1.09-17.89,2.08-26.85,2.95-9.56.93-19.14,1.73-28.71,2.46-6.14.47-12.29.69-18.43,1.06-13.79.84-27.57,1.67-41.36,2.56-5.24.34-10.47.9-15.72,1.19-9.74.54-19.48,1.06-29.23,1.38-7.05.23-14.11.15-21.17.19-3.3.02-6.6,0-9.9,0,0,.1,0,.2,0,.31-4.5-.14-9-.35-13.5-.41-7.21-.09-14.42.16-21.62-.15-11.7-.5-23.38-1.34-35.06-2.04-5.09-.31-10.19-.62-15.28-.95-11.24-.73-22.46-1.67-33.71-2.14-14.11-.59-28.16-1.81-42.22-3.07-17.79-1.6-35.51-3.88-53.2-6.39-15.15-2.14-30.29-4.42-45.38-6.96-12.13-2.05-24.23-4.31-36.23-6.99-14.93-3.34-29.73-7.24-44.6-10.82-11.98-2.89-23.71-6.56-35.15-11.12-5.15-2.05-10.18-4.43-15.11-6.95-5.55-2.84-10.21-6.84-13.94-11.88-2.37-3.2-4.06-6.7-4.37-10.7-.22-2.83-.33-5.7-.13-8.53.2-2.83.76-5.65,1.31-8.45,1.7-8.69,3.43-17.38,6.34-25.77,5.48-15.79,12.46-30.85,21.12-45.19,12.35-20.46,29.09-36.11,50.12-47.33,18.82-10.04,38.12-18.97,58.07-26.57,11.72-4.46,23.55-8.56,35.45-12.46.94,3.32,2.04,6.6,3.43,9.79,10.98,25.19,28.46,44.26,53.28,56.36,16.98,8.28,34.95,13.5,53.45,17.02,12.56,2.39,25.27,3.55,38.02,4.16,11.86.57,23.71.42,35.57-.42,14.11-1,28.07-2.9,41.86-6,21.87-4.91,43.06-12.02,63.63-20.87,27.09-11.65,52.86-25.75,77.23-42.42,18.12-12.39,36.45-24.46,56.17-34.19,3.3,1.12,6.6,2.24,9.9,3.34,9.11,3.03,18.37,5.57,27.5,8.55Z"/>
            <path d="m543.15,1000.29c-.03.27-.05.53-.08.8-.02.13-.06.27-.09.4.06-.13.15-.25.16-.39.03-.26.03-.53.04-.79,0,0-.03-.02-.03-.02Z"/>
            <g>
              <path class="cls-1" d="m365.26,1227.25c-21.03,11.22-37.77,26.87-50.12,47.33-8.66,14.34-15.64,29.4-21.12,45.19-2.91,8.38-4.64,17.08-6.34,25.77-.55,2.79-1.11,5.61-1.31,8.45-.2,2.83-.09,5.7.12,8.53.31,4,2,7.5,4.37,10.7,3.73,5.04,8.39,9.04,13.94,11.88,4.93,2.52,9.97,4.9,15.11,6.95,11.44,4.56,23.17,8.23,35.15,11.12,14.87,3.58,29.67,7.49,44.6,10.82,12,2.68,24.11,4.94,36.23,6.99,15.09,2.55,30.23,4.82,45.38,6.97,9.2,1.3,18.41,2.53,27.63,3.65-32.03-75.55-62.74-151.66-92.11-228.29-17.63,7.02-34.79,15.02-51.54,23.95Z"/>
              <path class="cls-1" d="m1104.42,1346.94c-1.14-5.13-2.01-10.32-3.29-15.41-4.5-17.87-11.67-34.67-20.78-50.66-2.52-4.43-5.23-8.77-8.06-13.02-10.96-16.44-25.31-29.24-42.52-38.8-18.91-10.5-38.5-19.55-58.68-27.39-9.77-3.8-19.65-7.27-29.57-10.62-13.23,77.7-19.89,156.51-19.95,235.33,7.74-1.11,15.47-2.24,23.19-3.48,24.31-3.89,48.45-8.56,72.25-14.91,10.14-2.71,20.4-5,30.53-7.73,10.44-2.81,20.59-6.49,30.54-10.74,4.43-1.89,8.71-4.04,12.73-6.71,3.92-2.6,7.28-5.78,10.09-9.55,2.77-3.71,4.34-7.8,4.58-12.47.24-4.69-.05-9.29-1.07-13.86Z"/>
            </g>
          </g>
          <g>
            <g>
              <g>
                <path class="cls-12" d="m643.75,818.82c0,9.05-7.34,16.39-16.39,16.39s-16.39-7.34-16.39-16.39,7.34-16.39,16.39-16.39,16.39,7.34,16.39,16.39Z"/>
                <path class="cls-12" d="m795.53,818.82c0,9.05-7.34,16.39-16.39,16.39s-16.39-7.34-16.39-16.39,7.34-16.39,16.39-16.39,16.39,7.34,16.39,16.39Z"/>
              </g>
              <path class="cls-16" d="m695.03,854.53l.02,22.12c0,5.58,4.96,9.76,10.25,8.65l11.76-2.47"/>
              <path class="cls-12" d="m676.07,768.02l-99.36,11.94s7.97-26.35,48.57-30.88c40.6-4.52,50.78,18.94,50.78,18.94Z"/>
              <path class="cls-12" d="m733.35,768.02l99.35,11.94s-7.97-26.35-48.57-30.88c-40.6-4.52-50.78,18.94-50.78,18.94Z"/>
              <path class="cls-1" d="m653.6,910.66h100.31s1.7,37.34-50.29,35.14c-51.98-2.2-50.02-35.14-50.02-35.14Z"/>
            </g>
            <g>
              <g>
                <path class="cls-12" d="m1283.2,841.62c0,9.05-7.34,16.39-16.39,16.39s-16.39-7.34-16.39-16.39,7.34-16.39,16.39-16.39,16.39,7.34,16.39,16.39Z"/>
                <path class="cls-12" d="m1434.98,841.62c0,9.05-7.34,16.39-16.39,16.39s-16.39-7.34-16.39-16.39,7.34-16.39,16.39-16.39,16.39,7.34,16.39,16.39Z"/>
              </g>
              <path class="cls-16" d="m1334.48,877.33l.02,22.12c0,5.58,4.96,9.76,10.25,8.65l11.76-2.47"/>
              <path class="cls-12" d="m1315.52,790.82l-99.36,11.94s7.97-26.35,48.57-30.88c40.6-4.52,50.78,18.94,50.78,18.94Z"/>
              <path class="cls-12" d="m1372.8,790.82l99.35,11.94s-7.97-26.35-48.57-30.88c-40.6-4.52-50.78,18.94-50.78,18.94Z"/>
              <path class="cls-1" d="m1293.05,933.46h100.31s1.7,37.34-50.29,35.14c-51.98-2.2-50.02-35.14-50.02-35.14Z"/>
            </g>
          </g>
          <g>
            <path class="cls-17" d="m1242.03,1157.5c.6,1.84,1.07,3.06,1.41,4.35,3.05,11.49,4.35,23.44,4.26,35.6-.14,18.34-2.09,36.34-6.21,53.82-2.44,10.35-5.69,20.24-9.12,30.02-1.09,3.1-2.26,6.18-2.98,9.83.93.58,1.68,1.3,2.49,1.52,7.58,2,15.07,1.74,22.4-1.95,1.43-.72,2.55-1.82,3.46-3.61,7.62-14.98,14.34-30.64,19.32-47.66,4.03-13.74,6.76-27.95,8.49-42.56,2.92-24.62,3.09-49.35,2.08-74.18-.55-13.52-1.38-26.97-2.73-40.38-1.49-14.84-3.79-29.45-6.51-43.93-7.38-39.26-14.65-78.56-23.26-117.35-4.74-21.35-9.84-42.55-14.6-63.88-3.58-16.05-6.71-32.3-10.36-48.32-6.32-27.76-13.31-55.19-22.21-81.65-10.99-32.68-24.49-63.24-40.24-91.95-7.57-13.79-16.21-21.36-25.81-32.52-10.79-12.54-22.73-17.52-35.91-24.49-14.64-7.75-29.71-13.11-45.29-15.7-13.52-2.25-27-1.99-40.39,1.75-3.2.89-6.43,1.67-9.64,2.48-2.08.53-4.11.28-6.19-.3-8.31-2.31-16.64-4.35-25.12-5.11-10.16-.91-20.22.3-30.23,2.38-14.76,3.07-29.01,8.77-42.81,16.63-11.36,6.47-21.65,10.51-31.15,21.25-12.87,14.55-23.62,26.92-33.22,45.55-20.63,40.04-36.71,83.27-48.3,129.71-4.88,19.57-9.4,39.28-13.59,59.15-4.68,22.22-9.75,44.29-14.87,66.33-7.66,32.99-14.25,66.38-20.61,99.87-3.54,18.62-6.98,37.29-10.19,56.02-2.74,15.97-4.19,32.24-5.15,48.61-.91,15.54-1.49,31.1-1.33,46.67.24,23.22,1.97,46.22,6.79,68.61,4.22,19.59,10.54,37.85,18.81,54.79,2.4,4.91,4.51,10.11,7.56,14.41,1.7,2.39,3.58,4.26,5.75,5.7,4.75,3.15,9.81,4.79,14.97,5.76,7.24,1.35,14.55,1.55,21.82.89,12.61-1.15,25.19-2.9,37.8-3.93,17.39-1.41,34.8-1.55,52.08,2.21,9.99,2.17,19.8,5.55,29.59,9.06,14.52,5.21,29.02,10.59,43.57,15.64,14.14,4.91,28.51,8.36,43.01,10.38,17.06,2.38,34.12,2.26,51.21-.23,19.47-2.84,38.32-9.25,56.96-17.17,10.08-4.28,20.17-8.56,30.37-12.24,13.1-4.74,26.41-8.02,39.93-9.62,3.7-.44,7.36-1.32,11.05-1.94,2.64-.44,4.82-2.16,6.6-4.73,1.94-2.82,3.82-5.75,5.49-8.88,4.25-7.97,7.44-16.75,10.04-25.96,7.74-27.37,13.52-55.51,17.74-84.29.59-4.02,1.24-8.01,1.93-12,.12-.7.53-1.3,1.03-2.49Z"/>
            <g>
              <path class="cls-19" d="m1116.36,1096.79c.18,10.84.16,21.68.58,32.51.65,16.91,1.91,33.79,4.3,50.56.94,6.61,2.09,13.19,4.19,19.56,1.37,4.15,3.35,7.9,6.14,11.26,4.19,5.03,8.73,9.72,13.69,14,12.76,10.99,26.59,20.39,41.38,28.46,17.21,9.38,34.88,17.81,52.51,26.34,6.41,3.1,12.86,6.13,19.21,9.34,7.29,3.67,14.52,7.45,21.72,11.28,17.81,9.48,35.58,19.05,53.4,28.53,12.2,6.49,24.06,13.53,35.57,21.17,19.12,12.7,32.14,30.07,39.84,51.57,4.96,13.86,6.81,28.23,7.06,42.86.07,3.86.09,7.72-.02,11.58-.07,2.52-.41,5.02-.6,7.54-.17,2.3-1.48,3.82-3.36,4.94-.76.46-1.58.83-2.38,1.22-15.97,7.8-32.73,13.14-50.29,15.94-8.94,1.43-17.86,2.97-26.83,4.17-6.76.9-13.59,1.34-20.39,1.99-3.99.38-7.97.85-11.97,1.14-8.44.61-16.88,1.15-25.32,1.7-7.26.47-14.52.94-21.78,1.36-8.89.52-17.79.98-26.68,1.47-8.15.44-16.3.88-24.45,1.32-6.67.36-13.34.69-20.01,1.11-11.11.71-22.22,1.48-33.32,2.22-1.63.11-3.26.26-4.89.36-7.26.44-14.52.92-21.78,1.3-9.49.5-18.98.88-28.47,1.41-7.85.43-15.7,1.03-23.55,1.51-8.44.51-16.89.95-25.34,1.45-7.11.42-14.22.92-21.33,1.34-2.07.12-4.15.11-6.23.16-15.01.38-29.97-.61-44.94-1.55-12-.75-23.99-1.59-35.99-2.27-9.93-.56-19.87-.89-29.8-1.43-7.41-.4-14.81-.98-22.22-1.44-6.96-.43-13.93-.76-20.89-1.23-11.7-.77-23.39-1.69-35.09-2.41-9.78-.6-19.57-.97-29.35-1.51-17.19-.95-34.38-1.97-51.57-2.94-7.11-.4-14.24-.67-21.35-1.15-4.88-.33-9.75-.92-14.62-1.39-3.99-.38-7.97-.82-11.97-1.12-17.05-1.27-33.89-3.95-50.62-7.39-11.66-2.39-22.99-5.84-33.77-10.98-2.68-1.28-5.41-2.44-8.13-3.62-3.18-1.37-4.87-3.73-5-7.23-.62-16.65-.57-33.25,3.47-49.58,4.94-19.95,14.53-37.25,29.35-51.53,3.3-3.18,6.91-6.1,10.67-8.73,10.71-7.5,21.88-14.28,33.38-20.48,22.2-11.97,44.33-24.09,66.71-35.72,16.06-8.34,32.43-16.08,48.75-23.91,14.05-6.75,27.93-13.82,41.53-21.43,14.05-7.85,27.08-17.18,38.99-28,3.94-3.58,7.45-7.65,11.05-11.59,3.05-3.34,5.19-7.28,6.33-11.64,1.36-5.16,2.71-10.35,3.54-15.61,1.91-12.02,3.03-24.14,3.89-36.29,1.86-26.54,1.59-53.12,1.76-79.7.03-5.2.06-10.4-.03-15.59-.12-7.51,2.33-13.91,7.61-19.32,3.23-3.31,6.62-6.37,10.43-8.99,10.53-7.26,22.11-12.01,34.54-14.85,8.99-2.06,18.08-3.28,27.3-3.76,9.2-.47,18.38-.99,27.59-.58,2.37.11,4.75-.14,7.12-.15,11.3-.06,22.59.42,33.77,1.9,14.94,1.98,29.4,5.73,42.55,13.52,6.55,3.88,12.63,8.29,17.68,14.09,4.07,4.68,6.39,9.92,6.36,16.17-.02,4.45.05,8.91.05,13.36,0,11.14,0,22.27,0,33.41.09,0,.19,0,.28,0Z"/>
              <path class="cls-5" d="m940.78,1209.02c7.88,9.33,16.63,17.77,26.71,24.76,6.14,4.26,12.73,7.6,19.87,9.83,5.87,1.84,11.87,2.76,18.01,1.96,5.33-.7,10.42-2.28,15.23-4.72,5.59-2.83,10.73-6.34,15.58-10.28,9.95-8.1,18.65-17.42,26.8-27.28,9.94-12.03,19.03-24.71,27.66-37.68,8.87-13.33,17.5-26.81,26.17-40.27-.28-9.51-.29-19.03-.44-28.54-.09,0-.19,0-.28,0,0-11.14,0-22.27,0-33.41,0-4.45-.08-8.91-.05-13.36.03-6.25-2.29-11.49-6.36-16.17-5.05-5.8-11.12-10.21-17.68-14.09-13.15-7.79-27.62-11.55-42.55-13.52-11.18-1.48-22.48-1.97-33.77-1.9-2.37.01-4.76.26-7.12.15-9.21-.41-18.4.11-27.59.58-9.22.47-18.31,1.7-27.3,3.76-12.42,2.85-24.01,7.59-34.54,14.85-3.81,2.63-7.2,5.68-10.43,8.99-5.28,5.41-7.74,11.81-7.61,19.32.08,5.2.06,10.4.03,15.59-.17,26.57.1,53.15-1.76,79.7,0,.1-.01.2-.02.3,8.78,15.63,18.33,30.79,28.87,45.31,4.01,5.52,8.22,10.91,12.62,16.13Z"/>
            </g>
            <g>
              <g>
                <path class="cls-19" d="m1140.32,936.39c.47-14.14,2.24-30.34,8.04-45.82,2.5-6.66,5.38-13.19,8.34-19.66,1.28-2.81,3.08-5.42,4.83-7.99,5.63-8.26,12.12-15.77,19.83-22.17,4.7-3.91,9.74-7.29,15.38-9.72,4.82-2.08,9.8-3.39,15.11-3.24,6.37.18,11.84,2.46,16.42,6.9,2.81,2.73,4.91,5.94,6.57,9.46,2.24,4.74,3.54,9.76,4.3,14.92,1.27,8.59,1.09,17.2-.18,25.75-3.85,25.93-13.82,49.32-29.72,70.16-4.97,6.52-10.6,12.42-17.03,17.53-4.55,3.62-9.42,6.71-14.8,8.98-3.73,1.57-7.6,2.54-11.61,2.92-4.7.45-9.15-.54-13.38-2.59-2.07-1-3.73-2.49-4.66-4.6-1.13-2.58-2.29-5.16-3.14-7.84-3.18-10.03-4.41-19.21-4.31-32.98Z"/>
                <path class="cls-19" d="m876.99,936.94c.06,11.8-1.03,21.81-4.08,31.53-.84,2.68-1.92,5.3-2.98,7.9-1.19,2.9-3.4,4.75-6.26,5.99-6,2.6-12.09,2.62-18.3.98-4.48-1.18-8.65-3.09-12.61-5.48-6.8-4.09-12.73-9.24-18.08-15.06-12.53-13.62-21.59-29.37-28.21-46.57-4.45-11.55-7.5-23.47-8.66-35.81-.95-10.1-.73-20.17,2.24-30.01,1.26-4.15,2.94-8.09,5.47-11.63,6.57-9.19,15.5-12.46,26.48-10.44,5.32.98,10.19,3.15,14.81,5.9,7.08,4.23,13.17,9.64,18.69,15.71,7.95,8.74,14.52,18.34,19.01,29.37,4.05,9.92,7.77,19.9,9.63,30.49,1.68,9.52,2.56,19.12,2.84,27.12Z"/>
              </g>
              <g>
                <path class="cls-19" d="m1234.84,844.14c-1.66-3.52-3.77-6.73-6.57-9.46-4.57-4.44-10.04-6.73-16.42-6.9-5.3-.15-10.29,1.16-15.11,3.24-5.64,2.43-10.68,5.81-15.38,9.72-7.71,6.41-14.21,13.91-19.83,22.17-1.75,2.57-3.54,5.17-4.83,7.99-2.96,6.48-5.84,13-8.34,19.66-2.86,7.64-4.74,15.45-5.97,23.11,32.14-19.34,64.15-38.6,96.18-57.89-.8-4.01-1.97-7.92-3.74-11.65Z"/>
                <path class="cls-19" d="m864.51,879.34c-4.5-11.03-11.06-20.63-19.01-29.37-5.52-6.07-11.61-11.48-18.69-15.71-4.62-2.76-9.48-4.92-14.81-5.9-10.99-2.02-19.91,1.25-26.48,10.44-2.53,3.54-4.22,7.48-5.47,11.63-.54,1.79-.99,3.58-1.36,5.38,32.05,19.29,64.05,38.55,96.08,57.82-.2-1.26-.4-2.53-.63-3.8-1.87-10.59-5.59-20.57-9.63-30.49Z"/>
              </g>
            </g>
            <path class="cls-19" d="m1175.37,796.36c.14,13.91-.59,23.52-1.19,33.15-.82,13.2-2.89,26.24-4.46,39.34-1.95,16.2-3.62,32.43-5.5,48.64-.79,6.78-1.77,13.53-2.7,20.28-1.37,9.99-2.58,20.01-4.19,29.95-2.07,12.73-4.17,25.46-7.63,37.89-2.76,9.88-6.68,19.3-11.68,28.17-5.46,9.68-12.19,18.38-20.58,25.57-4.53,3.89-9.22,7.59-13.96,11.21-5.23,3.99-11.04,6.95-17.03,9.51-2.39,1.02-4.78,2.05-7.16,3.11-11.82,5.23-24.2,8.45-36.74,11.17-9.86,2.13-19.82,3.64-29.8,4.95-2.41.31-4.91.43-7.31.13-12.14-1.5-24.25-3.36-36.15-6.22-10.91-2.62-21.78-5.54-32.04-10.37-3.92-1.85-7.93-3.51-11.86-5.33-4.48-2.08-8.65-4.7-12.62-7.67-10.54-7.86-20.52-16.34-28-27.51-2.37-3.53-4.74-7.1-6.71-10.88-6.38-12.22-11.09-25.09-13.51-38.8-1.86-10.51-3.84-20.99-5.57-31.52-1.13-6.87-1.93-13.8-2.85-20.71-1.03-7.79-2.08-15.58-3.04-23.38-.82-6.62-1.48-13.27-2.28-19.89-1.94-16.05-3.97-32.08-5.86-48.14-.76-6.48-1.29-12.99-1.87-19.49-1.38-15.4-1.23-30.85-.86-46.28.13-5.47.79-10.94,1.42-16.39.6-5.15,1.44-10.28,2.25-15.4,1.16-7.35,3.27-14.44,5.67-21.44,4.39-12.8,9.95-24.98,17.93-35.86,10.56-14.39,22.39-27.52,36.43-38.38,9.17-7.1,19.49-12,30.35-15.65,12.6-4.23,25.52-7.1,38.6-9.28,9.57-1.59,19.16-2.04,28.82-1.7,3.3.12,6.62.14,9.93,0,11.27-.49,22.4.47,33.5,2.51,11.91,2.19,23.65,4.98,35.14,8.92,14.24,4.9,27,12.37,38.19,22.77,10.3,9.58,19.58,20.08,27.88,31.53,8.46,11.67,13.98,24.83,18.57,38.49,3.03,9.03,4.52,18.38,6.04,27.75,2.13,13.09,2.55,26.27,2.45,35.24Z"/>
            <path class="cls-17" d="m1183.21,837.32c-.37-.31-.69-.72-1.14-.95-13.22-6.69-22.7-16.42-29.95-27.97-6.1-9.7-10.11-20.08-12.62-30.9-3.97-17.07-4.16-34.22-1.27-51.42.04-.26-.05-.54-.09-.9-1.47.23-1.83,1.39-2.49,2.24-8.37,10.79-18.36,20.26-30.05,28.36-14.66,10.15-30.86,17.62-49.19,21.28-10.48,2.09-21.07,2.78-31.75,1.21-.72-.11-1.42-.34-2.5-.61,1.6-2.4,3.97-3.63,5.78-5.29,1.86-1.71,3.85-3.33,5.71-5.04,1.86-1.72,3.67-3.47,5.43-5.27,1.76-1.8,3.46-3.63,5.12-5.5,1.76-1.98,3.44-4,5.14-6.02,1.6-1.91,3.18-3.82,4.77-5.74,1.58-1.92,3.16-3.83,4.73-5.76,1.56-1.93,3.14-3.85,4.64-5.82,1.5-1.96,2.96-3.95,4.37-5.97,1.36-1.95,2.87-3.86,3.1-6.4-1.24,1.02-2.49,2.02-3.71,3.06-13.93,11.86-28.79,22.79-44.71,32.54-22.65,13.88-47.47,23.62-74.53,28.9-9.96,1.94-20.07,2.99-30.23,3.67-2.22.15-4.46.09-6.68-.02-.82-.04-1.61-.48-2.77-.86,3.98-2.5,7.65-4.67,11.16-7.03,15.82-10.62,30.45-22.37,43.76-35.35,4.99-4.87,9.52-10.06,13.49-15.71-1.12-.59-1.46.28-1.89.66-20.97,19.03-45.46,33.86-72.08,46.16-7.73,3.57-15.51,7.07-23.17,10.76-14.46,6.96-27.56,15.48-38.57,26.31-3.6,3.54-6.99,7.22-9.83,11.26-.4.57-.89,1.08-1.7,2.06-.61-1.7-1.11-2.93-1.49-4.19-2.18-7.29-2.78-14.79-3.77-22.24-1.48-11.1-.83-22.2-.3-33.31.24-4.86.21-9.73.35-14.59.63-22.44,4.88-44.29,15.37-64.89,9.42-18.49,22.28-34.94,40.22-48.06,7.71-5.64,16.08-10.47,24.8-14.81,18.03-8.99,36.95-16.15,57.13-20.65,11.63-2.59,23.48-3.7,35.43-3.94,8.11-.17,16.24-.11,24.35.07,23.31.51,45.7,4.77,67.3,12.49,15.37,5.49,29.96,12.22,43.84,20.16,9.23,5.29,17.65,11.4,25.05,18.57,2.99,2.89,5.98,5.77,8.95,8.67,9.2,9,16.49,19.03,21.65,30.25,4.98,10.84,9.39,21.85,12.66,33.18,1.32,4.59,2.12,9.27,2.42,13.99.46,7.35.84,14.71,1.21,22.07.4,7.82-.78,15.53-2.34,23.21-2.67,13.14-5.82,26.18-9.64,39.1-1.55,5.25-3.21,10.46-7.45,14.84"/>
            <path class="cls-10" d="m1203.95,961.33c-1.65,1.84-3.36,3.62-5.14,5.33,6.6,10.41,10.95,28.11,10.95,48.21,0,32.04-11.04,58.01-24.67,58.01s-23.91-25.98-24.67-58.01c-.27-11.44.7-21.92,1.83-30.4,1.68-12.57,3.71-20.7,2.65-20.7-3.03,0-5.94,8.52-8.06,19.71-2.03,10.72-3.35,23.87-3.35,34.36,0,38.95,14.15,70.53,31.6,70.53s31.6-31.58,31.6-70.53c0-23.16-5.02-43.64-12.74-56.5Z"/>
            <path class="cls-10" d="m812.95,961.33c1.65,1.84,3.36,3.62,5.14,5.33-6.6,10.41-10.95,28.11-10.95,48.21,0,32.04,11.04,58.01,24.67,58.01s23.91-25.98,24.67-58.01c.27-11.44-.7-21.92-1.83-30.4-1.68-12.57-3.71-20.7-2.65-20.7,3.03,0,5.94,8.52,8.06,19.71,2.03,10.72,3.35,23.87,3.35,34.36,0,38.95-14.15,70.53-31.6,70.53s-31.6-31.58-31.6-70.53c0-23.16,5.02-43.64,12.74-56.5Z"/>
            <path class="cls-7" d="m1408.88,1401.38c-7.7-21.51-20.72-38.88-39.84-51.57-11.51-7.64-23.37-14.68-35.57-21.17-17.82-9.48-35.58-19.05-53.4-28.53-7.2-3.83-14.44-7.61-21.72-11.28-6.36-3.21-12.8-6.24-19.21-9.34-17.63-8.53-35.3-16.96-52.51-26.34-14.79-8.07-28.62-17.47-41.38-28.46-.35-.3-.66-.65-1.01-.95-6.44,4.17-13.12,7.98-20.05,11.31-22.64,10.86-47.43,16.65-72.36,19.66-60.19,7.25-124.04-2.73-175.12-34.49-.74.73-1.44,1.51-2.21,2.22-11.91,10.82-24.94,20.14-38.99,28-13.6,7.6-27.48,14.68-41.53,21.43-16.32,7.83-32.69,15.57-48.75,23.91-22.38,11.63-44.51,23.75-66.72,35.72-11.5,6.2-22.68,12.98-33.38,20.48-3.75,2.63-7.37,5.55-10.67,8.73-14.82,14.28-24.41,31.59-29.35,51.54-4.05,16.33-4.09,32.93-3.47,49.58.13,3.49,1.81,5.85,5,7.23,2.72,1.17,5.45,2.34,8.13,3.62,10.78,5.14,22.11,8.59,33.77,10.98,16.73,3.44,33.57,6.11,50.62,7.39,4,.3,7.98.74,11.97,1.12,4.88.47,9.74,1.06,14.63,1.39,7.11.48,14.23.75,21.34,1.16,17.19.97,34.38,1.99,51.57,2.94,9.78.54,19.57.91,29.35,1.51,11.7.72,23.39,1.63,35.09,2.41,6.96.46,13.93.79,20.89,1.22,7.41.46,14.81,1.04,22.22,1.44,9.93.53,19.87.86,29.8,1.43,12,.68,23.99,1.52,35.99,2.27,14.96.94,29.93,1.93,44.94,1.55,2.08-.05,4.16-.04,6.23-.16,7.11-.42,14.22-.92,21.33-1.34,8.44-.51,16.89-.94,25.34-1.45,7.85-.47,15.7-1.07,23.55-1.51,9.49-.53,18.98-.9,28.47-1.41,7.26-.38,14.52-.86,21.78-1.3,1.63-.1,3.26-.25,4.89-.36,11.11-.75,22.21-1.52,33.32-2.23,6.67-.42,13.34-.75,20.01-1.11,8.15-.44,16.3-.88,24.45-1.32,8.89-.48,17.79-.95,26.68-1.47,7.26-.42,14.52-.89,21.78-1.36,8.44-.55,16.88-1.08,25.32-1.7,4-.29,7.98-.76,11.97-1.14,6.8-.65,13.62-1.08,20.39-1.99,8.97-1.2,17.89-2.74,26.83-4.17,17.56-2.81,34.32-8.14,50.29-15.94.8-.39,1.61-.76,2.38-1.22,1.87-1.12,3.18-2.64,3.36-4.94.19-2.51.53-5.02.6-7.54.1-3.86.08-7.72.02-11.58-.25-14.63-2.1-29-7.06-42.86Z"/>
            <path class="cls-22" d="m1408.88,1401.38c-7.7-21.51-20.72-38.88-39.84-51.57-11.51-7.64-23.37-14.68-35.57-21.17-17.82-9.48-35.58-19.05-53.4-28.53-3.82-2.03-7.67-3.99-11.51-5.98-22.56,27.23-49.31,50.42-80.77,66.84-67.12,35.05-149.29,35.07-220.55,9.44-59.34-21.34-112.24-60-151.11-109.61-7.33,3.79-14.71,7.47-22.15,11.04-16.32,7.83-32.69,15.57-48.75,23.91-22.38,11.63-44.51,23.75-66.72,35.72-11.5,6.2-22.68,12.98-33.38,20.48-3.75,2.63-7.37,5.55-10.67,8.73-14.82,14.28-24.41,31.59-29.35,51.54-4.05,16.33-4.09,32.93-3.47,49.58.13,3.49,1.81,5.85,5,7.23,2.72,1.17,5.45,2.34,8.13,3.62,10.78,5.14,22.11,8.59,33.77,10.98,16.73,3.44,33.57,6.11,50.62,7.39,4,.3,7.98.74,11.97,1.12,4.88.47,9.74,1.06,14.63,1.39,7.11.48,14.23.75,21.34,1.16,17.19.97,34.38,1.99,51.57,2.94,9.78.54,19.57.91,29.35,1.51,11.7.72,23.39,1.63,35.09,2.41,6.96.46,13.93.79,20.89,1.22,7.41.46,14.81,1.04,22.22,1.44,9.93.53,19.87.86,29.8,1.43,12,.68,23.99,1.52,35.99,2.27,14.96.94,29.93,1.93,44.94,1.55,2.08-.05,4.16-.04,6.23-.16,7.11-.42,14.22-.92,21.33-1.34,8.44-.51,16.89-.94,25.34-1.45,7.85-.47,15.7-1.07,23.55-1.51,9.49-.53,18.98-.9,28.47-1.41,7.26-.38,14.52-.86,21.78-1.3,1.63-.1,3.26-.25,4.89-.36,11.11-.75,22.21-1.52,33.32-2.23,6.67-.42,13.34-.75,20.01-1.11,8.15-.44,16.3-.88,24.45-1.32,8.89-.48,17.79-.95,26.68-1.47,7.26-.42,14.52-.89,21.78-1.36,8.44-.55,16.88-1.08,25.32-1.7,4-.29,7.98-.76,11.97-1.14,6.8-.65,13.62-1.08,20.39-1.99,8.97-1.2,17.89-2.74,26.83-4.17,17.56-2.81,34.32-8.14,50.29-15.94.8-.39,1.61-.76,2.38-1.22,1.87-1.12,3.18-2.64,3.36-4.94.19-2.51.53-5.02.6-7.54.1-3.86.08-7.72.02-11.58-.25-14.63-2.1-29-7.06-42.86Z"/>
            <g>
              <path class="cls-1" d="m1008.05,1256.88c-.39,0-.78-.03-1.17-.04-1-.02-2-.08-3-.11-2.71-.09-5.42-.21-8.13-.37-1.04-.06-2.08-.15-3.13-.23-2.68-.19-5.36-.41-8.04-.68-1.01-.1-2.02-.22-3.02-.33-2.73-.3-5.45-.64-8.17-1.01-.92-.13-1.84-.27-2.76-.4-2.84-.42-5.66-.89-8.48-1.4-.78-.14-1.57-.28-2.35-.43-3.01-.57-6-1.19-8.98-1.87-.58-.13-1.16-.25-1.74-.39-3.29-.76-6.56-1.59-9.82-2.48-.26-.07-.52-.14-.78-.21-21.81-6.02-42.68-14.84-61.77-26.71-.74.73-1.44,1.51-2.21,2.22-11.91,10.82-24.94,20.14-38.99,28-10.63,5.94-21.47,11.5-32.38,16.89,108.19,133.03,204.93-10.43,204.93-10.43Z"/>
              <path class="cls-1" d="m1213.09,1266.81c-8.89-4.4-17.74-8.91-26.46-13.66-14.79-8.07-28.62-17.47-41.38-28.46-.35-.3-.66-.65-1.01-.95-3.21,2.08-6.48,4.08-9.82,5.96-3.35,1.89-6.76,3.68-10.23,5.35-11.32,5.43-23.18,9.59-35.32,12.77-3.04.8-6.09,1.53-9.16,2.21-8.84,1.95-17.79,3.41-26.77,4.53-.37.05-.74.11-1.11.15-.01,0-.03,0-.04,0-3.68.44-7.38.82-11.08,1.13-1.09.09-2.19.14-3.28.22-2.64.2-5.27.39-7.92.52-1.24.06-2.49.08-3.74.12-2.51.09-5.02.18-7.53.22-1.24.01-2.48-.01-3.72-.01-2.15,0-4.31.03-6.46-.02,0,0,86.92,155.31,205.04,9.93Z"/>
            </g>
          </g>
        </g>
      </g>
      <g>
        <g>
          <path class="cls-12" d="m949.02,894.71c0,9.05-7.34,16.39-16.39,16.39s-16.39-7.34-16.39-16.39,7.34-16.39,16.39-16.39,16.39,7.34,16.39,16.39Z"/>
          <path class="cls-12" d="m1100.81,894.71c0,9.05-7.34,16.39-16.39,16.39s-16.39-7.34-16.39-16.39,7.34-16.39,16.39-16.39,16.39,7.34,16.39,16.39Z"/>
        </g>
        <path class="cls-16" d="m1000.3,930.42l.02,22.12c0,5.58,4.96,9.76,10.25,8.65l11.76-2.47"/>
        <path class="cls-12" d="m981.34,843.92l-99.36,11.94s7.97-26.35,48.57-30.88c40.6-4.52,50.78,18.94,50.78,18.94Z"/>
        <path class="cls-12" d="m1038.62,843.92l99.35,11.94s-7.97-26.35-48.57-30.88c-40.6-4.52-50.78,18.94-50.78,18.94Z"/>
        <path class="cls-1" d="m958.87,986.56h100.31s1.7,37.34-50.29,35.14c-51.98-2.2-50.02-35.14-50.02-35.14Z"/>
      </g>
    </g>
  </g>
</svg>