<?xml version="1.0" encoding="UTF-8"?>
<svg xmlns="http://www.w3.org/2000/svg" viewBox="0 0 2000 2000">
  <defs>
    <style>
      .cls-1 {
        fill: #fff;
      }

      .cls-2 {
        fill: #d9d9d9;
        mix-blend-mode: multiply;
      }

      .cls-3 {
        fill: #303b63;
      }

      .cls-4 {
        fill: #b2b2b2;
      }

      .cls-5 {
        isolation: isolate;
      }

      .cls-6 {
        fill: #403834;
      }

      .cls-7 {
        fill: #141a46;
      }

      .cls-8 {
        fill: #331b19;
      }

      .cls-9 {
        fill: #0b181b;
      }

      .cls-10 {
        fill: #181d3a;
      }

      .cls-11 {
        opacity: .4;
      }

      .cls-12 {
        fill: #feb542;
      }

      .cls-13 {
        fill: #cc7646;
      }

      .cls-14 {
        fill: #fbfbfb;
      }

      .cls-15 {
        fill: #342d3a;
      }

      .cls-16 {
        fill-rule: evenodd;
      }

      .cls-16, .cls-17 {
        fill: #0643a3;
      }

      .cls-18 {
        fill: #f8ba8c;
      }

      .cls-19 {
        fill: #352e35;
      }

      .cls-20 {
        fill: #e4a47f;
      }

      .cls-21 {
        fill: #0b5b07;
      }

      .cls-22 {
        fill: none;
        stroke: #021833;
        stroke-linecap: round;
        stroke-linejoin: round;
        stroke-width: 7.35px;
      }

      .cls-23 {
        fill: #84b2fe;
      }

      .cls-24 {
        fill: #a1c9de;
      }

      .cls-25 {
        fill: #d1edfc;
      }

      .cls-26 {
        fill: #dfdfdf;
      }
    </style>
  </defs>
  <g class="cls-5">
    <g id="Layer_1" data-name="Layer 1">
      <path class="cls-25" d="m1737,1000c0,114.46-26.09,222.82-72.65,319.47-119.02,247.05-371.77,417.53-664.35,417.53s-545.33-170.48-664.35-417.53c-46.56-96.65-72.65-205.01-72.65-319.47,0-407.03,329.97-737,737-737s737,329.97,737,737Z"/>
      <path class="cls-24" d="m1594.73,1435.36c-134.11,182.9-350.56,301.64-594.73,301.64s-460.62-118.74-594.73-301.64h1189.46Z"/>
      <g class="cls-11">
        <g>
          <g>
            <path class="cls-14" d="m1377.18,1253.4h-788.08c10.64-90.86,52.05-172.44,113.49-233.88,50.12-50.01,113.6-86.78,184.66-104.43,30.78-7.58,62.91-11.66,95.95-11.66s65.29,4.07,95.95,11.77c158.18,39.15,278.69,173.23,298.03,338.2Z"/>
            <path class="cls-4" d="m1079.14,915.2v338.2h-191.9v-338.31c30.78-7.58,62.91-11.66,95.95-11.66s65.29,4.07,95.95,11.77Z"/>
            <rect class="cls-4" x="674.98" y="1135.21" width="163.89" height="51.43"/>
          </g>
          <g>
            <path class="cls-4" d="m928.59,291.58h109.09c90.32,0,163.65,73.33,163.65,163.65v112.62c0,105.71-85.82,191.53-191.53,191.53h-53.34c-105.71,0-191.53-85.82-191.53-191.53v-112.62c0-90.32,73.33-163.65,163.65-163.65Z"/>
            <g>
              <g>
                <g>
                  <path class="cls-14" d="m983.14,1009.56h0c52.68,0,95.38-42.71,95.38-95.38v-184.93h-190.77v184.93c0,52.68,42.7,95.38,95.38,95.38Z"/>
                  <path class="cls-15" d="m887.77,810.1v4.31c34.42,32.27,80.76,52.02,131.71,52.02,20.59,0,40.41-3.23,59.03-9.22v-47.12c-28.08,16.04-60.64,25.21-95.37,25.21s-67.29-9.16-95.37-25.21Z"/>
                </g>
                <path class="cls-14" d="m1232.62,580.23c-12.76-19.63-34.98-29.35-56.78-27.17v-30.15c0-113.25-86.27-205.04-192.71-205.04-53.22,0-101.41,22.93-136.26,60.06-34.9,37.07-56.45,88.35-56.45,144.97v29.93c-20.74-.96-41.43,8.73-53.56,27.39-18.2,28-10.26,65.46,17.74,83.66,12.34,8.02,26.5,10.95,40.05,9.34,1.06,5.32,2.28,10.58,3.73,15.74,12.09,43.57,37.42,81.09,71.06,107.27,5.87,4.52,11.97,8.73,18.32,12.61,28.08,17.07,60.64,26.81,95.37,26.81s67.29-9.74,95.37-26.81h.06c6.35-3.89,12.39-8.09,18.26-12.61,33.64-26.18,58.97-63.7,71.06-107.27,1.5-5.32,2.73-10.75,3.82-16.25,14.48,2.49,29.89-.2,43.17-8.83,28-18.2,35.94-55.65,17.74-83.66Z"/>
              </g>
              <path class="cls-4" d="m935.86,317.87h245.05v20.51c0,81.29-66,147.29-147.29,147.29h-245.05v-20.51c0-81.29,66-147.29,147.29-147.29Z"/>
            </g>
          </g>
        </g>
        <g>
          <g>
            <path class="cls-14" d="m1695.34,1251.36h-535.49c7.23-61.74,35.37-117.17,77.11-158.92,34.06-33.98,77.19-58.97,125.47-70.96,20.91-5.15,42.75-7.92,65.2-7.92s44.36,2.77,65.2,8c107.49,26.6,189.37,117.71,202.51,229.8Z"/>
            <path class="cls-4" d="m1492.83,1021.56v229.8h-130.39v-229.88c20.91-5.15,42.75-7.92,65.2-7.92s44.36,2.77,65.2,8Z"/>
            <rect class="cls-4" x="1218.2" y="1171.06" width="111.36" height="34.95"/>
          </g>
          <g>
            <path class="cls-4" d="m1390.53,597.81h74.13c61.37,0,111.2,49.83,111.2,111.2v76.53c0,71.83-58.32,130.15-130.15,130.15h-36.24c-71.83,0-130.15-58.32-130.15-130.15v-76.53c0-61.37,49.83-111.2,111.2-111.2Z"/>
            <g>
              <g>
                <g>
                  <path class="cls-14" d="m1427.6,1085.67h0c35.79,0,64.81-29.02,64.81-64.81v-125.66h-129.62v125.66c0,35.79,29.02,64.81,64.81,64.81Z"/>
                  <path class="cls-15" d="m1362.79,950.14v2.93c23.39,21.93,54.88,35.35,89.49,35.35,13.99,0,27.46-2.2,40.11-6.26v-32.02c-19.08,10.9-41.21,17.13-64.8,17.13s-45.72-6.22-64.8-17.13Z"/>
                </g>
                <path class="cls-14" d="m1597.12,793.95c-8.67-13.34-23.77-19.95-38.58-18.46v-20.48c0-76.95-58.62-139.32-130.94-139.32-36.16,0-68.91,15.58-92.59,40.81-23.71,25.19-38.36,60.03-38.36,98.51v20.33c-14.09-.65-28.15,5.93-36.39,18.61-12.37,19.03-6.97,44.48,12.05,56.84,8.38,5.45,18.01,7.44,27.21,6.35.72,3.62,1.55,7.19,2.53,10.69,8.22,29.6,25.42,55.1,48.29,72.89,3.99,3.07,8.14,5.93,12.45,8.57,19.08,11.6,41.21,18.22,64.8,18.22s45.72-6.62,64.8-18.22h.04c4.31-2.64,8.42-5.5,12.41-8.57,22.86-17.79,40.07-43.28,48.29-72.89,1.02-3.61,1.86-7.31,2.59-11.04,9.84,1.69,20.31-.13,29.34-6,19.03-12.37,24.42-37.82,12.06-56.84Z"/>
              </g>
              <path class="cls-4" d="m1395.47,615.68h166.51v13.93c0,55.24-44.85,100.08-100.08,100.08h-166.51v-13.93c0-55.24,44.85-100.08,100.08-100.08Z"/>
            </g>
          </g>
        </g>
        <g>
          <g>
            <path class="cls-14" d="m840.15,1235.45H304.66c7.23-61.74,35.37-117.17,77.11-158.92,34.06-33.98,77.19-58.97,125.47-70.96,20.91-5.15,42.75-7.92,65.2-7.92s44.36,2.77,65.2,8c107.49,26.6,189.37,117.71,202.51,229.8Z"/>
            <path class="cls-4" d="m637.64,1005.65v229.8h-130.39v-229.88c20.91-5.15,42.75-7.92,65.2-7.92s44.36,2.77,65.2,8Z"/>
            <rect class="cls-4" x="363.01" y="1155.14" width="111.36" height="34.95"/>
          </g>
          <g>
            <path class="cls-4" d="m535.34,581.9h74.13c61.37,0,111.2,49.83,111.2,111.2v76.53c0,71.83-58.32,130.15-130.15,130.15h-36.24c-71.83,0-130.15-58.32-130.15-130.15v-76.53c0-61.37,49.83-111.2,111.2-111.2Z"/>
            <g>
              <g>
                <g>
                  <path class="cls-14" d="m572.4,1069.76h0c35.79,0,64.81-29.02,64.81-64.81v-125.66h-129.62v125.66c0,35.79,29.02,64.81,64.81,64.81Z"/>
                  <path class="cls-15" d="m507.6,934.23v2.93c23.39,21.93,54.88,35.35,89.49,35.35,13.99,0,27.46-2.2,40.11-6.26v-32.02c-19.08,10.9-41.21,17.13-64.8,17.13s-45.72-6.22-64.8-17.13Z"/>
                </g>
                <path class="cls-14" d="m741.93,778.03c-8.67-13.34-23.77-19.95-38.58-18.46v-20.48c0-76.95-58.62-139.32-130.94-139.32-36.16,0-68.91,15.58-92.59,40.81-23.71,25.19-38.36,60.03-38.36,98.51v20.33c-14.09-.65-28.15,5.93-36.39,18.61-12.37,19.03-6.97,44.48,12.05,56.84,8.38,5.45,18.01,7.44,27.21,6.35.72,3.62,1.55,7.19,2.53,10.69,8.22,29.6,25.42,55.1,48.29,72.89,3.99,3.07,8.14,5.93,12.45,8.57,19.08,11.6,41.21,18.22,64.8,18.22s45.72-6.62,64.8-18.22h.04c4.31-2.64,8.42-5.5,12.41-8.57,22.86-17.79,40.07-43.28,48.29-72.89,1.02-3.61,1.86-7.31,2.59-11.04,9.84,1.69,20.31-.13,29.34-6,19.03-12.37,24.42-37.82,12.06-56.84Z"/>
              </g>
              <path class="cls-4" d="m540.28,599.76h166.51v13.93c0,55.24-44.85,100.08-100.08,100.08h-166.51v-13.93c0-55.24,44.85-100.08,100.08-100.08Z"/>
            </g>
          </g>
        </g>
      </g>
      <path class="cls-1" d="m821.81,1400.29s-46.77,38.94-138.97,38.94-130.12-38.94-130.12-38.94c0,0-86.21-274.23-69.71-318.8,16.49-44.57,120.84-49.82,120.84-49.82h168.1s94.97,9.53,112.6,49.82c17.64,40.27-62.75,318.8-62.75,318.8Z"/>
      <g>
        <path class="cls-8" d="m1088.78,1137.51c-34.41-.58-64.22-35.1-59.79-69.22,2.41-18.58,13.24-35.56,13.93-54.28,1.21-32.86-27.9-58.09-40.34-88.52-17.71-43.28-.26-92.15,17.11-135.57,13.81-34.52,26.91-67.7,31.81-104.82,4.8-36.38,5.02-73.67,16.59-108.85,17.91-54.48,75.84-90.63,131.74-84.72,7.16.76,22.34-8.75,30.23-10.4,11.14-2.33,22.59-3.18,33.94-2.52,20.86,1.23,39.61,1.78,60.07,7.63,47.24,13.5,80.44,58.03,94.43,105.01,7.58,25.46,11.27,54.23,9.01,80.67-2.35,27.5-7.23,54.74,4.82,81.06,7.97,17.4,21.57,30.85,31.34,47.07,7.13,11.85,9.52,24.91,14.13,37.83,12.95,36.34,11.32,71.83,1.42,108.94-3.57,13.39-7.83,27.23-5.29,40.85,3.16,16.93,16.21,30.31,21.94,46.55,6.76,19.15,2.56,41.01-7.8,58.48-10.36,17.47-26.31,31-43.4,41.97"/>
        <path class="cls-6" d="m506.76,755.92c-11.95-31.84-15.48-66.66-10.92-100.32,4.02-29.74,9.9-69.46,37.61-86.06,8.14-4.87,17.42-6.73,25.64-11.07,6.77-3.57,10.29-9.01,16.07-14.28,38.65-35.29,94.81-43.67,144.96-35.26,25.88,4.34,51.16,13.15,73.84,26.39,25.02,14.61,38.1,30.94,50.61,56.75,6.66,13.74,11.78,28.25,15.24,43.13,3.05,13.1.51,24.36,1.17,37.5,1.77,35.39.39,70.4-6.22,105.28"/>
        <g>
          <path class="cls-21" d="m1389.36,1399.86s-48.91,40.72-145.31,40.72-136.05-40.72-136.05-40.72c0,0-90.15-286.75-72.9-333.36,17.25-46.61,126.36-52.09,126.36-52.09h175.78s99.31,9.97,117.74,52.09c18.45,42.11-65.61,333.36-65.61,333.36Z"/>
          <path class="cls-13" d="m1337.23,1014.41c.64.52,3.44,1.65,4.51,4.39,3.98,10.22-19.85,28.19-21.9,29.72-25.66,19.06-55.71,19.4-74.16,19.6-6.68.07-35.88.04-66.98-13.48,0,0-24.29-10.56-30.96-27.02-.45-1.11-1.7-4.19-.74-7.54.97-3.36,3.66-5.27,4.19-5.67,51.38-39.48,34.26-100.57,34.26-100.57h121.42s-16.76,62.4,30.37,100.57Z"/>
          <path class="cls-13" d="m1378.32,781.9s20.38-35.77,34.26-28.83c29.1,14.56,4.89,91.6-11.87,99.55-16.76,7.96-23.18-18.15-23.18-18.15"/>
          <path class="cls-18" d="m1102.23,781.9s-20.38-35.77-34.25-28.83c-29.1,14.56-4.9,91.6,11.87,99.55,16.76,7.96,23.18-18.15,23.18-18.15"/>
          <path class="cls-13" d="m1084.43,734.54s24.91,169.29,40.47,187.97c15.57,18.67,93.56,75.49,118.47,75.49s107.47-57.2,121.47-82.88c15.04-27.6,30.92-180.57,30.92-180.57,0,0,17.88-170.6-152.39-170.6s-158.94,170.6-158.94,170.6Z"/>
          <g>
            <path class="cls-8" d="m1376.77,574.43c27.75,31.59,27.21,116.93,21.49,174.52-.14.28-9.84,24.09-14.78,41.82,0,0-16.84-129.04-48.03-139.24-31.23-10.05-27.86,18.58-100.34,18.58v-153.84c45.51,1.24,104.95,16.41,141.65,58.16Z"/>
            <path class="cls-8" d="m1093.47,574.43c-27.78,31.59-27.22,116.93-21.42,174.52.04.28,9.74,24.09,14.67,41.82,0,0,16.88-129.04,48.11-139.24,31.19-10.05,27.82,18.58,100.3,18.58v-153.84c-45.51,1.24-104.95,16.41-141.65,58.16Z"/>
          </g>
        </g>
        <path class="cls-20" d="m774.76,1019.21c1.25,1.01,7.92,5.33,9.18,12.64,0,0,.8,4.66-1.55,9.96-4.49,10.12-41.92,39.54-100.71,37.18-62.4-2.51-93.36-38.58-96.16-44.44-2.47-5.16-1.31-9.22-1.31-9.22,1.05-3.67,4.02-5.75,4.5-6.12,51.37-39.48,34.25-100.57,34.25-100.57h121.42s-16.77,62.4,30.37,100.57Z"/>
        <path class="cls-18" d="m815.85,786.7s20.37-35.77,34.25-28.83c29.1,14.56,4.89,91.6-11.86,99.55-16.76,7.96-23.18-18.15-23.18-18.15"/>
        <path class="cls-18" d="m539.76,786.7s-20.38-35.77-34.25-28.83c-29.1,14.56-4.89,91.6,11.86,99.55,16.76,7.96,23.18-18.15,23.18-18.15"/>
        <path class="cls-18" d="m521.97,739.35s24.91,169.29,40.47,187.97c15.57,18.67,93.56,75.49,118.46,75.49s107.47-57.2,121.48-82.88c15.05-27.6,30.92-180.57,30.92-180.57,0,0,17.88-170.6-152.39-170.6s-158.93,170.6-158.93,170.6Z"/>
        <rect class="cls-26" x="742.84" y="1242.24" width="91.01" height="16.34"/>
        <g>
          <g>
            <g>
              <path class="cls-9" d="m637.07,803.13c0,8.02-6.5,14.52-14.52,14.52s-14.52-6.5-14.52-14.52,6.5-14.52,14.52-14.52,14.52,6.5,14.52,14.52Z"/>
              <path class="cls-9" d="m771.55,803.13c0,8.02-6.5,14.52-14.52,14.52s-14.53-6.5-14.53-14.52,6.5-14.52,14.53-14.52,14.52,6.5,14.52,14.52Z"/>
            </g>
            <path class="cls-22" d="m682.5,834.78l.02,19.6c0,4.94,4.39,8.65,9.08,7.66l10.42-2.19"/>
            <path class="cls-9" d="m665.7,758.13l-88.03,10.58s7.07-23.35,43.04-27.36c35.97-4.01,45,16.78,45,16.78Z"/>
            <path class="cls-9" d="m716.46,758.13l88.03,10.58s-7.07-23.35-43.03-27.36c-35.97-4.01-45,16.78-45,16.78Z"/>
            <path class="cls-1" d="m645.79,884.51h88.88s1.5,33.08-44.56,31.14c-46.06-1.95-44.32-31.14-44.32-31.14Z"/>
          </g>
          <g>
            <path class="cls-9" d="m1228.23,751.34l-88.03,10.58s7.07-23.35,43.04-27.36c35.97-4.01,45,16.78,45,16.78Z"/>
            <g>
              <path class="cls-9" d="m1199.6,796.35c0,8.02-6.5,14.52-14.52,14.52s-14.52-6.5-14.52-14.52,6.5-14.52,14.52-14.52,14.52,6.5,14.52,14.52Z"/>
              <path class="cls-9" d="m1334.09,796.35c0,8.02-6.5,14.52-14.52,14.52s-14.53-6.5-14.53-14.52,6.5-14.52,14.53-14.52,14.52,6.5,14.52,14.52Z"/>
            </g>
            <path class="cls-22" d="m1245.03,827.99l.02,19.6c0,4.94,4.39,8.65,9.08,7.66l10.42-2.19"/>
            <path class="cls-9" d="m1278.99,751.34l88.03,10.58s-7.07-23.35-43.03-27.36c-35.97-4.01-45,16.78-45,16.78Z"/>
            <path class="cls-1" d="m1208.33,877.73h88.88s1.5,33.08-44.56,31.14c-46.06-1.95-44.32-31.14-44.32-31.14Z"/>
          </g>
        </g>
        <path class="cls-2" d="m1299.03,1209.96c-12.73-26.83-68.96-53.33-117.17-71.81-8.72-21.15-24.63-47.62-49.16-57.79-15.82-6.57-33.02-5.29-49.72,3.68-5.32-10.59-7.71-21.52-8.27-31.92,29.11-19.16,55.42-40.58,63.52-54.28,7.22-12.22,14.58-45.6,20.94-82.22,4.49,7.44,12.25,14.88,24.18,9.65,21.09-9.24,51.55-98.71,14.93-115.63,0,0-15.29-114.05-52.71-170.09-41.79-62.6-141.47-70.46-187.06-70.5-119.93-.11-191.35,119.32-199.2,153.66-7.83,34.34,0,90.32,0,90.36-27.94,23.03.35,103.47,20.29,112.21,16.19,7.1,24.69-9.11,27.77-17.03h.01s-.01,0-.01,0h.01c9.47,45.48,20.33,88.67,28.92,98.19,9.46,10.47,37.25,31.27,66.98,49.99.03,9.48-1.11,19.02-4.15,27.73-7.44-3.18-25.23-7.06-42.74-.08-16.23,6.48-27.93,20.11-34.79,40.52-.72,2.15-1.37,4.61-1.95,7.29-55.13,17.51-126.23,45.75-139.21,78.1-9.36,23.32,6.38,96.11,27.32,171.4-3.38,6.17-6.48,12.4-9.11,18.6l3.07.07c-7.32,17.2-11.62,34.42-10.2,49.62,2.27,24.3,20.99,44.84,55.71,61.19,14.22,43.55,24.95,73.87,24.95,73.87,0,0,73.38,49.62,217.83,49.62,131.75,0,226.43-49.62,226.43-49.62,0,0,105.78-325.84,82.58-374.74Zm-175.97-109.82c10.44,4.33,19.71,14.64,27.07,26.5-24.59-8.45-42.23-13.49-42.23-13.49-4.63-3.46-8.6-7.1-12.11-10.85,9.77-4.98,18.7-5.71,27.27-2.16Zm-34.43-6.64c-1.36-1.94-2.6-3.9-3.73-5.88l3.73,5.88Zm-312.67-283.36c6.83.19,13.48,2.7,15.01,11.36h0c-4.69-4.86-9.88-9.18-15.01-11.36Zm118.54,283.95l2.43-4.61c-.73,1.58-1.55,3.11-2.43,4.61Zm-28.77,9.87c8.83-3.52,17.78-1.96,21.82-.75-3.75,3.85-8.26,7.23-13.76,9.93-2.13,1.05-3.54,2.52-4.38,4.33-6.19,1.62-13.83,3.69-22.38,6.13,4.62-9.89,10.86-16.52,18.7-19.64Zm-151.98,343.93c-.82-8.83,1.06-18.96,4.63-29.58,6.46,21.83,13.07,43.22,19.35,63.01-12.81-8.88-22.72-19.98-23.97-33.43Z"/>
        <path class="cls-6" d="m538.56,625.31c-13.15,21.62-12.87,48.14-25.34,69.73-6.04,10.46-9.98,17.46-1.51,28.07,5.49,6.89,12.84,10.85,21.33,6.71,17.06-8.31,28.73-31.49,34.8-48.4,6.92-19.27,10.03-39.94,8.67-60.39,25.19,20.61,58.72,30.71,91.1,27.42,21.74-2.21,42.64-10.12,64.44-11.65,35.74-2.52,70.41,12.26,101.7,29.73.82-13.98-4.55-27.71-12.1-39.51-19.6-30.61-53.63-49.98-89.09-57.95-35.46-7.97-72.46-5.59-108.4-.2-35.89,5.38-66.59,25.19-85.59,56.43Z"/>
        <path class="cls-7" d="m586.06,1020.31c-13.57,1.2-24.93,3.18-33.56,5.01-11.62,2.47-20,5.03-22.37,5.76-9.89,3.07-18.86,5.91-29.6,11.88-2.12,1.18-10.36,5.85-18.05,13.27-1.79,1.72-5.38,5.38-7.45,9.49-1.68,3.35-3.05,7.64-3.05,7.64,0,0-.19.58-.35,1.13-.96,3.4-2.19,10.89-.27,31.34,1.34,14.27.59,6.7,2.76,21.65,1.13,7.77,2.63,18.1,4.59,28.9,1.69,9.35,3.44,17.55,12.91,55.65,4.16,16.74,6.24,25.11,8.33,33.24,10.43,40.48,19.25,70.99,25.38,92.1,5.2,17.92,11.96,40.74,20.19,67.28,1.21,1.17,2.99,2.82,5.26,4.68,2.37,1.94,7.95,6.31,19.93,12.4,8.59,4.37,15.44,7.06,17.01,7.68,19.95,7.77,41.32,11.55,51.31,13.09-17.66-140.73-35.31-281.47-52.97-422.2Z"/>
        <path class="cls-7" d="m777.21,1018.98c13.83,1.2,25.42,3.18,34.2,5.01,11.85,2.47,20.39,5.03,22.8,5.76,10.08,3.07,19.23,5.91,30.17,11.88,2.16,1.18,10.56,5.85,18.4,13.27,1.82,1.72,5.49,5.38,7.59,9.49,1.71,3.35,3.11,7.64,3.11,7.64,0,0,.2.58.35,1.13.98,3.4,2.24,10.89.28,31.34-1.37,14.27-.6,6.7-2.82,21.65-1.15,7.77-2.69,18.1-4.67,28.9-1.72,9.35-3.51,17.55-13.16,55.65-4.24,16.74-6.36,25.11-8.49,33.24-10.63,40.48-19.63,70.99-25.87,92.1-5.3,17.92-12.2,40.74-20.58,67.28-1.23,1.17-3.05,2.82-5.36,4.68-2.41,1.94-8.1,6.31-20.32,12.4-8.76,4.37-15.74,7.06-17.34,7.68-20.34,7.77-42.11,11.55-52.3,13.09,18-140.73,36-281.47,53.99-422.2Z"/>
        <path class="cls-3" d="m602.39,1436.87c12.13,1.7,24.3,2.94,36.5,3.7-17.82-137-28.55-275.63-42.26-413.6-2.86-2.5-5.68-5.07-8.4-7.82-4.71,2.59-9.58,4.81-14.4,7.02-.59.27-1.17.56-1.76.84-17.44,56.48-30.13,115.35-37.75,175.27-3.04,23.93-5.18,49.22,1.76,71.79,6.94,22.57,25.82,40.97,44.32,35.33-2.6,44.09,5.63,88.56,22,127.48Z"/>
        <path class="cls-3" d="m760.34,1436.88c-12.34,1.7-24.72,2.94-37.12,3.7,18.12-136.85,29.04-275.34,42.98-413.17,2.91-2.49,5.78-5.07,8.54-7.82,4.79,2.58,9.74,4.81,14.64,7.01.6.27,1.19.56,1.79.83,17.74,56.42,30.65,115.23,38.4,175.09,3.1,23.91,5.27,49.17-1.79,71.72-7.06,22.55-26.27,40.92-45.08,35.29,2.64,44.04-5.72,88.46-22.38,127.34Z"/>
        <g>
          <path class="cls-1" d="m1195.92,1577.53s-87.2,49.53-208.57,49.53c-133.06,0-200.65-49.53-200.65-49.53,0,0-104.5-320-84.5-374.03,20-54.04,189.99-96.63,189.99-96.63h203.74s154.67,47.8,176.05,96.63c21.37,48.81-76.06,374.03-76.06,374.03Z"/>
          <path class="cls-20" d="m1095.93,1106.87c1.18.95,5.52,2.5,6,5.8,1.34,9.2-27.11,22.65-52.18,28.09-21.24,4.61-23.85-.05-61.09.82-36.65.86-45.83,5.65-74.74,1.88-4.03-.53-35.19-4.84-40.38-18.32-.55-1.44-2.39-6.19-.57-10.87,1.86-4.79,6.57-7.01,7.33-7.41,49.79-26.52,15.96-116.57,15.96-116.57h179.99s-34.94,72.34,19.69,116.57Z"/>
          <path class="cls-18" d="m1139.49,837.37s23.61-41.46,39.69-33.42c33.74,16.89,5.68,106.18-13.75,115.4-19.42,9.22-26.87-21.05-26.87-21.05"/>
          <path class="cls-18" d="m819.47,837.37s-23.61-41.46-39.69-33.42c-33.74,16.89-5.68,106.18,13.75,115.4,19.43,9.22,26.86-21.05,26.86-21.05"/>
          <path class="cls-18" d="m798.86,782.47s28.86,196.23,46.91,217.88c18.04,21.65,108.44,87.49,137.31,87.49s124.56-66.3,140.79-96.06c17.45-31.99,35.85-209.31,35.85-209.31-1.17-17.19-8.09-93.41-63.66-126.89-26.45-15.94-55.05-15.1-112.24-13.41-62.54,1.84-93.81,2.76-123.53,23.29-49.62,34.28-59.19,96.55-61.44,117Z"/>
          <path class="cls-21" d="m1096.26,1107.14c-30.16,20.2-65.78,32.33-102.07,33.86-40.9,1.73-82.06-10.06-116.39-32.28-4.82,1.99-9.76,3.76-14.65,5.51-1.05.38-2.07.77-3.12,1.16.98,4.44,2.2,8.84,3.56,13.15,12.48,39.31,36.45,75.6,68.83,104.18,18.75-30.38,37.49-60.76,56.24-91.14,18.75,30.38,37.49,60.76,56.24,91.14,32.37-28.58,56.35-64.87,68.83-104.18,1.38-4.35,2.62-8.8,3.6-13.3-.91-.33-1.8-.68-2.72-1.01-6.15-2.21-12.38-4.42-18.35-7.09Z"/>
          <g>
            <path class="cls-19" d="m910.31,648.41c-30.74-5.13-55.5-30.3-66.83-59.33-29.13-74.59,19.53-162.98,98.78-179.15,63.2-12.89,131.69,15.89,164.04,72.32,35.73,62.32,7.21,139.57-52.82,175.59"/>
            <g>
              <path d="m1065.84,437.3c-10.13,2.58-20.98,4.92-32.33,7.47-24.92,5.56-52.83,11.22-80.19,23.31-13.61,6.08-26.3,13.54-37.18,22.62-5.41,4.58-10.33,9.61-14.37,15.19-4.06,5.56-7.13,11.67-9.26,17.88-4.23,12.49-4.68,25.2-3.35,36.66,1.36,11.51,4.68,21.86,8.51,30.83,7.85,17.95,17.21,30.77,23.52,39.54,3.21,4.37,5.8,7.69,7.58,9.92,1.79,2.22,2.79,3.35,2.9,3.27.11-.08-.67-1.37-2.26-3.74-2.15-3.19-4.44-6.59-6.97-10.33-5.91-9.01-14.84-22-22.2-39.73-3.59-8.87-6.66-18.97-7.83-30.12-1.16-11.1-.57-23.3,3.53-35.11,2.07-5.87,5-11.59,8.87-16.83,3.86-5.26,8.58-10.06,13.82-14.46,10.54-8.74,22.96-16.03,36.3-21.98,26.81-11.87,54.48-17.62,79.37-23.37,12.3-2.79,24-5.52,34.87-8.49-1.1-.86-2.21-1.7-3.33-2.53Z"/>
              <path d="m1116.75,506.2c-.99.21-1.95.46-2.96.63-9.22,1.56-19.28,1.74-29.86,1-10.59-.67-21.72-2.14-33.44-2.8-11.71-.73-24.06-.08-36.32,2.38-24.59,4.82-46.49,16.98-61.22,33.09-14.82,16.24-21.3,35.91-22.45,52.18-.61,8.2.07,15.66,1.33,22.04.36,1.56.72,3.09,1.07,4.59.39,1.46.91,2.83,1.33,4.16.77,2.68,1.96,4.96,2.84,7.06,2.03,4.09,3.85,7.15,5.35,9.03,1.43,1.93,2.22,2.89,2.33,2.81.11-.08-.47-1.2-1.67-3.25-1.27-2-2.84-5.12-4.61-9.22-.76-2.11-1.81-4.36-2.46-7.01-.36-1.31-.8-2.65-1.13-4.09-.29-1.47-.59-2.97-.89-4.5-1.02-6.24-1.48-13.48-.72-21.4,1.46-15.74,8.01-34.55,22.34-49.96,14.3-15.34,35.46-27,59.33-31.69,11.93-2.38,23.83-3.06,35.34-2.39,11.52.6,22.67,1.99,33.42,2.57,10.74.65,21.13.35,30.65-1.41,1.11-.21,2.17-.5,3.25-.75-.29-1.03-.55-2.07-.87-3.1Z"/>
              <path d="m1098.5,580.15c-16.5-2.44-32.44-5.1-47.21-4.78-7.36.11-14.38.95-20.79,2.54-6.4,1.59-12.12,3.94-17.04,6.62-9.87,5.39-16.25,12.27-19.49,17.58-.87,1.3-1.52,2.52-2.03,3.61-.56,1.06-.96,1.99-1.21,2.77-.56,1.54-.78,2.36-.66,2.41.34.15,1.59-3.05,5.16-7.93,3.51-4.87,9.91-11.13,19.52-15.99,4.79-2.41,10.34-4.52,16.5-5.91,6.15-1.38,12.92-2.07,20.07-2.08,14.33-.12,30,2.59,46.6,5.05,5.3.78,10.57,1.42,15.77,1.88.47-1.26.9-2.53,1.33-3.8-5.42-.47-10.94-1.15-16.54-1.98Z"/>
              <path d="m928.04,637.56c.5-.67-12.12-8.01-28.02-24.81-7.94-8.36-16.45-19.23-24.04-32.42-7.59-13.17-14.04-28.77-17.97-45.86-3.77-17.13-4.62-33.98-3.4-49.14.41-5.15,1.04-10.09,1.82-14.81-1.66,2.64-3.23,5.33-4.72,8.08-.27,2.11-.52,4.24-.72,6.43-1.45,15.47-.69,32.75,3.18,50.31,4.03,17.52,10.75,33.47,18.68,46.82,7.92,13.39,16.84,24.29,25.17,32.54,8.32,8.27,15.83,14.12,21.27,17.74,5.43,3.64,8.64,5.32,8.76,5.13Z"/>
            </g>
            <path class="cls-19" d="m850.58,651.17c-6.5,4.45-12.69,9.33-18.55,14.6-15.41,13.85-28.46,30.3-38.55,48.39-9.95,17.83-14.54,35.93-15.31,56.43-.53,14.11,2.02,35.15,20.29,35.39,17.89.23,36.32-5.93,46.7-21.13,9.07-13.29,13.58-28.96,20.74-43.24,8.93-17.81,21.4-35.32,39.93-42.65,10.72-4.24,22.53-4.7,33.66-7.66,30.41-8.09,54.19-36.69,56.61-68.07-49.57-11.14-103.6-.76-145.51,27.95Z"/>
            <path class="cls-19" d="m967.36,636.82c-3.08,18.07-2.93,37.06,3.42,54.26,6.35,17.2,19.48,32.4,36.75,38.54,18.07,6.42,39.22,2.81,55.83,12.4,16.81,9.71,24.36,30.35,39.94,41.94,8.78,6.53,19.07,9.63,29.26,13.06,9.41,3.16,25,15.7,35.36,12.63,17.64-5.22,6.28-36.62,5.06-47.45-1.73-15.41-4.69-30.72-9.49-45.48-9.39-28.91-26.29-56.05-51.01-73.73-34.65-24.79-79.92-28.4-122.51-27.32"/>
          </g>
        </g>
      </g>
      <g>
        <path class="cls-21" d="m681.56,1636.84h588.2c36.91,0,66.83-29.92,66.83-66.83v-95.14c0-36.91-29.92-66.83-66.83-66.83h-506.37c-13.26,0-25.89-5.7-34.66-15.65l-38.42-43.57c-3.84-3.32-9.8-.59-9.8,4.48v54.74h-.87c-36.91,0-66.83,29.92-66.83,66.83v93.22c0,37.97,30.78,68.75,68.75,68.75Z"/>
        <g>
          <path class="cls-1" d="m1231.64,1572.23c-1.26,3.07-3.35,3.07-4.61,0l-9.63-23.35c-1.26-3.08-5.02-5.79-8.34-6.06l-25.2-1.91c-3.32-.27-3.97-2.22-1.42-4.4l19.23-16.41c2.52-2.16,3.97-6.56,3.17-9.8l-5.92-24.58c-.8-3.22.87-4.44,3.73-2.71l21.52,13.25c2.83,1.76,7.49,1.76,10.3,0l21.55-13.25c2.83-1.73,4.5-.51,3.73,2.71l-5.92,24.58c-.77,3.24.67,7.65,3.19,9.8l19.21,16.41c2.55,2.15,1.91,4.13-1.42,4.4l-25.18,1.91c-3.32.27-7.08,2.98-8.34,6.06l-9.66,23.35Z"/>
          <path class="cls-1" d="m1103.22,1572.23c-1.26,3.07-3.35,3.07-4.61,0l-9.63-23.35c-1.26-3.08-5.02-5.79-8.34-6.06l-25.2-1.91c-3.32-.27-3.96-2.22-1.42-4.4l19.23-16.41c2.52-2.16,3.97-6.56,3.17-9.8l-5.92-24.58c-.8-3.22.88-4.44,3.73-2.71l21.52,13.25c2.84,1.76,7.49,1.76,10.3,0l21.55-13.25c2.83-1.73,4.5-.51,3.73,2.71l-5.92,24.58c-.77,3.24.67,7.65,3.19,9.8l19.21,16.41c2.55,2.15,1.91,4.13-1.42,4.4l-25.18,1.91c-3.32.27-7.08,2.98-8.34,6.06l-9.65,23.35Z"/>
          <path class="cls-1" d="m974.8,1572.23c-1.26,3.07-3.35,3.07-4.61,0l-9.63-23.35c-1.26-3.08-5.02-5.79-8.34-6.06l-25.2-1.91c-3.32-.27-3.97-2.22-1.42-4.4l19.23-16.41c2.52-2.16,3.97-6.56,3.17-9.8l-5.92-24.58c-.8-3.22.87-4.44,3.73-2.71l21.52,13.25c2.83,1.76,7.49,1.76,10.3,0l21.55-13.25c2.83-1.73,4.5-.51,3.73,2.71l-5.92,24.58c-.77,3.24.67,7.65,3.19,9.8l19.21,16.41c2.55,2.15,1.91,4.13-1.42,4.4l-25.18,1.91c-3.32.27-7.08,2.98-8.34,6.06l-9.65,23.35Z"/>
          <path class="cls-1" d="m717.95,1572.23c-1.26,3.07-3.35,3.07-4.61,0l-9.63-23.35c-1.26-3.08-5.02-5.79-8.34-6.06l-25.2-1.91c-3.32-.27-3.97-2.22-1.42-4.4l19.23-16.41c2.52-2.16,3.97-6.56,3.17-9.8l-5.92-24.58c-.8-3.22.87-4.44,3.73-2.71l21.52,13.25c2.83,1.76,7.49,1.76,10.3,0l21.55-13.25c2.83-1.73,4.5-.51,3.73,2.71l-5.92,24.58c-.77,3.24.67,7.65,3.19,9.8l19.21,16.41c2.55,2.15,1.91,4.13-1.42,4.4l-25.18,1.91c-3.32.27-7.08,2.98-8.34,6.06l-9.65,23.35Z"/>
          <path class="cls-1" d="m845.69,1572.23c-1.26,3.07-3.35,3.07-4.61,0l-9.63-23.35c-1.26-3.08-5.02-5.79-8.34-6.06l-25.2-1.91c-3.32-.27-3.97-2.22-1.42-4.4l19.23-16.41c2.52-2.16,3.97-6.56,3.17-9.8l-5.92-24.58c-.8-3.22.88-4.44,3.73-2.71l21.52,13.25c2.84,1.76,7.49,1.76,10.3,0l21.55-13.25c2.83-1.73,4.5-.51,3.73,2.71l-5.92,24.58c-.77,3.24.67,7.65,3.19,9.8l19.21,16.41c2.55,2.15,1.91,4.13-1.42,4.4l-25.18,1.91c-3.32.27-7.08,2.98-8.34,6.06l-9.65,23.35Z"/>
        </g>
      </g>
      <g>
        <circle class="cls-23" cx="1534.79" cy="993.45" r="82.05" transform="translate(-252.95 1376.23) rotate(-45)"/>
        <g>
          <path class="cls-16" d="m1562.93,964.53c-1.44,7.01.27,14.33,5.2,19.69,4.93,5.36,12.02,7.55,19.02,6.54-6.24-.99-12.1-3.92-16.6-8.83-4.54-4.92-7.04-11.03-7.61-17.4h0Z"/>
          <path class="cls-17" d="m1577.3,990.12c-3.51-1.08-6.67-3.06-9.23-5.85-4.82-5.24-6.72-12.44-5.22-19.76l.11-.54.05.55c.59,6.61,3.22,12.61,7.59,17.36,4.34,4.73,10.06,7.77,16.56,8.8l.53.08-.53.08c-3.43.49-6.77.23-9.86-.72Zm-14.4-25.03c-1.29,7.08.62,14.01,5.28,19.08,4.66,5.06,11.34,7.44,18.42,6.59-6.31-1.12-11.88-4.14-16.12-8.76-4.28-4.64-6.89-10.47-7.58-16.9Z"/>
        </g>
        <g>
          <path class="cls-16" d="m1603.48,971.64c-8.79,3.87-18.12,3.73-25.06-1.31-6.97-5.05-10.04-13.84-9.14-23.38,1.53,8,5.53,14.91,11.9,19.53,6.38,4.62,14.21,6.21,22.3,5.16h0Z"/>
          <path class="cls-17" d="m1584.47,973.44c-2.19-.68-4.24-1.69-6.1-3.05-6.77-4.9-10.12-13.45-9.18-23.46l.05-.56.11.55c1.58,8.27,5.69,15,11.87,19.48,6.15,4.46,13.84,6.23,22.25,5.14l.56-.07-.51.23c-6.68,2.94-13.32,3.5-19.04,1.73Zm-15.16-25.92c-.76,9.7,2.56,17.97,9.16,22.75,6.57,4.77,15.46,5.32,24.47,1.52-8.23.95-15.76-.86-21.8-5.24-6.08-4.4-10.16-10.97-11.82-19.03Z"/>
        </g>
        <g>
          <path class="cls-16" d="m1490.41,936.67c5.07,8.15,12.82,13.3,21.42,13.07,8.61-.23,16.1-5.75,20.75-14.14-5.81,5.73-12.98,9.19-20.85,9.4-7.9.2-15.23-2.9-21.32-8.34h0Z"/>
          <path class="cls-17" d="m1505.08,948.89c-5.72-1.77-10.89-5.98-14.75-12.18l-.3-.48.42.37c6.31,5.64,13.67,8.51,21.27,8.32,7.59-.21,14.78-3.45,20.8-9.38l.4-.39-.27.49c-4.87,8.79-12.46,13.96-20.82,14.18-2.3.06-4.57-.26-6.75-.93Zm-14.31-11.79c5.28,8.21,12.93,12.78,21.05,12.56,8.14-.22,15.55-5.17,20.4-13.61-5.97,5.71-13.04,8.83-20.5,9.04-7.47.19-14.71-2.57-20.96-7.99Z"/>
        </g>
        <g>
          <path class="cls-16" d="m1524.87,952.76c-2.8,6.59-8.31,11.68-15.41,13.32-7.12,1.63-14.21-.56-19.39-5.34,5.68,2.7,12.2,3.6,18.69,2.09,6.49-1.51,12.04-5.13,16.11-10.07h0Z"/>
          <path class="cls-17" d="m1498.53,965.76c-3.08-.95-5.98-2.62-8.52-4.96l-.39-.36.48.23c5.93,2.82,12.38,3.54,18.64,2.08,6.31-1.47,11.86-4.94,16.06-10.04l.35-.43-.22.51c-2.94,6.9-8.57,11.77-15.46,13.36-3.7.85-7.44.69-10.95-.4Zm-8.01-4.72c5.33,4.69,12.19,6.5,18.92,4.96,6.67-1.54,12.15-6.18,15.12-12.76-4.18,4.89-9.63,8.23-15.79,9.66-6.12,1.42-12.42.78-18.26-1.87Z"/>
        </g>
        <g>
          <path class="cls-17" d="m1482.84,1034.56c4.22-16.81,23.04-26.07,42.65-20.74,19.57,5.32,32.68,23.21,29.77,40.39-6.66-11.47-18.47-20.83-33.06-24.79-14.59-3.96-28.82-1.67-39.36,5.14h0Z"/>
          <path class="cls-17" d="m1480.59,1037.71l.88-3.49c1.93-7.69,6.93-14.22,14.06-18.4,8.61-5.04,19.67-6.27,30.33-3.37,9.76,2.65,18.32,8.43,24.08,16.27,5.8,7.88,8.18,17.02,6.71,25.72l-.66,3.87-1.97-3.39c-6.75-11.62-18.48-20.41-32.2-24.13-13.67-3.71-27.6-1.9-38.21,4.96l-3.02,1.95Zm45.98-22.1c-.48-.15-.96-.29-1.45-.42-9.94-2.7-20.2-1.58-28.15,3.08-5.37,3.14-9.4,7.75-11.61,13.19,10.79-5.69,24.13-6.95,37.22-3.4,13.02,3.53,24.35,11.42,31.67,21.93.35-14.83-11.05-29.22-27.67-34.37Z"/>
        </g>
      </g>
      <g>
        <circle class="cls-23" cx="606.45" cy="1418.31" r="49.49" transform="translate(-34.4 15.21) rotate(-1.4)"/>
        <g>
          <path class="cls-16" d="m613.6,1395.05c1.16,4.16,4.09,7.62,8.21,9.14,4.12,1.52,8.53.75,12.01-1.72-3.62,1.19-7.57,1.23-11.34-.17-3.79-1.39-6.81-3.98-8.87-7.25h0Z"/>
          <path class="cls-17" d="m628.35,1404.83c-2.18.38-4.43.19-6.56-.6-4.03-1.49-7.03-4.83-8.24-9.17l-.09-.32.18.28c2.14,3.39,5.2,5.89,8.85,7.23,3.63,1.35,7.54,1.4,11.31.17l.31-.1-.26.19c-1.7,1.21-3.57,1.99-5.49,2.32Zm-14.61-9.47c1.26,4.16,4.19,7.35,8.08,8.79,3.89,1.44,8.14.88,11.7-1.53-3.69,1.14-7.51,1.05-11.06-.27-3.57-1.31-6.58-3.73-8.72-6.99Z"/>
        </g>
        <g>
          <path class="cls-16" d="m637.32,1387.71c-3.66,4.49-8.7,6.99-13.81,6.19-5.13-.79-9.19-4.66-11.34-10.04,3.02,3.87,7.07,6.48,11.76,7.21,4.69.73,9.34-.58,13.39-3.37h0Z"/>
          <path class="cls-17" d="m627.61,1393.91c-1.36.24-2.74.26-4.11.04-4.98-.77-9.13-4.44-11.38-10.07l-.13-.32.21.27c3.12,4,7.18,6.49,11.73,7.19,4.53.7,9.14-.46,13.36-3.36l.28-.19-.21.26c-2.78,3.41-6.19,5.54-9.75,6.17Zm-15.27-9.74c2.26,5.42,6.32,8.94,11.17,9.69,4.84.75,9.76-1.4,13.55-5.92-4.16,2.77-8.7,3.87-13.15,3.19-4.47-.69-8.47-3.1-11.58-6.96Z"/>
        </g>
        <g>
          <path class="cls-16" d="m567.01,1400.04c4.97,2.98,10.54,3.61,15.1,1.12,4.56-2.49,7.06-7.52,7.25-13.3-1.54,4.67-4.44,8.5-8.61,10.78-4.19,2.28-8.97,2.63-13.74,1.39h0Z"/>
          <path class="cls-17" d="m578.25,1402.56c-3.56.62-7.49-.22-11.26-2.48l-.29-.17.33.09c4.94,1.29,9.68.81,13.7-1.39,4.02-2.2,6.98-5.92,8.58-10.76l.11-.32v.34c-.21,6.06-2.86,10.92-7.28,13.34-1.22.67-2.52,1.12-3.88,1.36Zm-10.92-2.39c5.09,2.95,10.45,3.3,14.76.95,4.31-2.36,6.93-7.05,7.21-12.92-1.63,4.71-4.57,8.33-8.52,10.49-3.96,2.16-8.6,2.67-13.44,1.48Z"/>
        </g>
        <g>
          <path class="cls-16" d="m589.93,1399.2c.31,4.31-1.25,8.56-4.61,11.39-3.38,2.83-7.78,3.61-11.88,2.47,3.79-.11,7.54-1.42,10.61-4.02,3.07-2.6,5.05-6.06,5.88-9.84h0Z"/>
          <path class="cls-17" d="m579.37,1413.42c-1.92.34-3.93.24-5.94-.32l-.31-.09h.32c3.96-.13,7.62-1.52,10.58-4.02,2.98-2.52,5.01-5.91,5.86-9.81l.07-.33.02.34c.32,4.51-1.36,8.68-4.62,11.43-1.75,1.47-3.8,2.42-5.98,2.8Zm-5.6-.33c4.15,1.05,8.33.13,11.52-2.54,3.15-2.66,4.82-6.66,4.61-11.01-.9,3.78-2.9,7.07-5.82,9.53-2.9,2.45-6.46,3.84-10.31,4.02Z"/>
        </g>
        <g>
          <path class="cls-17" d="m589.88,1454.67c-2.36-10.18,5.2-20.34,17.19-22.87,11.97-2.53,23.92,3.47,27.09,13.49-6.73-4.32-15.64-6.1-24.56-4.21-8.92,1.89-15.93,7.03-19.71,13.59h0Z"/>
          <path class="cls-17" d="m589.53,1456.97l-.49-2.12c-1.08-4.66-.19-9.54,2.49-13.75,3.24-5.07,8.83-8.77,15.36-10.15,5.97-1.26,12.15-.51,17.41,2.11,5.28,2.64,9.07,6.88,10.68,11.96l.71,2.26-1.99-1.28c-6.82-4.38-15.54-5.87-23.92-4.09-8.36,1.77-15.34,6.57-19.15,13.18l-1.09,1.88Zm18.6-24.51c-.3.05-.6.11-.9.17-6.08,1.28-11.28,4.71-14.27,9.4-2.02,3.16-2.92,6.74-2.61,10.27,4.23-6.02,11.04-10.37,19.04-12.07,7.96-1.69,16.21-.57,23.03,3.06-3.89-8.06-13.97-12.65-24.31-10.83Z"/>
        </g>
      </g>
      <g>
        <circle class="cls-12" cx="458.13" cy="1012.31" r="105.62" transform="translate(-581.63 620.44) rotate(-45)"/>
        <g>
          <path class="cls-16" d="m509.6,1037.26c4.01-.62,8.25.42,11.46,3.18,4.28,3.75,5.56,9.48,3.74,14.61-.87-4.56-3.68-9.43-8.23-13.32-2.18-1.93-4.59-3.4-6.97-4.47h0Z"/>
          <path class="cls-17" d="m524.77,1055.45l-.07-.38c-.9-4.74-3.89-9.57-8.2-13.26-2.03-1.79-4.36-3.29-6.95-4.45l-.32-.14.35-.05c4.21-.65,8.41.51,11.55,3.2,4.17,3.65,5.65,9.43,3.77,14.73l-.13.36Zm-14.81-18.13c2.48,1.15,4.72,2.61,6.68,4.34,4.23,3.62,7.2,8.34,8.19,13,1.66-5.12.18-10.63-3.84-14.14-3-2.57-7-3.73-11.03-3.2Z"/>
        </g>
        <g>
          <path class="cls-16" d="m519.87,1044.02c-7.61,19.05-23.78,34.47-45.09,40.38-21.34,5.92-43.11,1.02-59.49-11.38,17.64,6.53,37.45,7.75,56.98,2.33,19.53-5.42,35.84-16.66,47.59-31.34h0Z"/>
          <path class="cls-17" d="m474.82,1084.5c-10.45,2.9-21.1,3.3-31.65,1.18-10.06-2.02-19.72-6.36-27.92-12.58l-.56-.42.66.24c18.3,6.78,37.98,7.58,56.92,2.33,18.91-5.24,35.35-16.07,47.54-31.31l.44-.54-.26.65c-3.81,9.54-9.84,18.24-17.43,25.16-7.96,7.25-17.28,12.39-27.72,15.29Zm-58.89-11.14c17.01,12.61,38.41,16.6,58.83,10.94,20.44-5.67,36.71-20.11,44.75-39.67-12.18,14.98-28.48,25.64-47.21,30.83-18.75,5.2-38.23,4.47-56.38-2.09Z"/>
        </g>
        <g>
          <path class="cls-16" d="m511.97,946.26c-3.14-7.8-9.77-14.05-18.46-16.4-8.71-2.39-17.58-.37-24.24,4.77,7.21-2.71,15.28-3.26,23.21-1.1,7.99,2.19,14.67,6.73,19.49,12.73h0Z"/>
          <path class="cls-17" d="m514.49,950.57l-3.09-3.85c-4.89-6.08-11.5-10.4-19.12-12.49-7.55-2.05-15.42-1.68-22.76,1.08l-4.57,1.72,3.87-2.98c7.12-5.49,16.19-7.27,24.88-4.89,8.68,2.34,15.58,8.47,18.95,16.83l1.84,4.58Zm-40.3-18.17c6.08-1.37,12.38-1.23,18.47.43,6.13,1.68,11.64,4.75,16.17,8.99-3.58-5.5-9.03-9.49-15.52-11.24-6.51-1.78-13.25-1.1-19.12,1.83Z"/>
        </g>
        <g>
          <path class="cls-16" d="m425.06,984.29c-5.49-5.37-12.55-7.9-19.2-6.06-6.61,1.83-11.35,7.64-13.33,15.08,3.38-5.61,8.28-9.72,14.35-11.41,6.07-1.68,12.39-.68,18.18,2.38h0Z"/>
          <path class="cls-17" d="m392.24,993.99l.19-.7c2.09-7.85,6.98-13.37,13.41-15.15,6.47-1.8,13.51.42,19.3,6.08l.51.5-.63-.34c-6-3.17-12.26-4-18.1-2.37-5.85,1.62-10.79,5.55-14.29,11.36l-.38.62Zm14.61-12.18c5.69-1.58,11.77-.87,17.61,2.06-5.63-5.24-12.37-7.26-18.58-5.54-6.16,1.71-10.9,6.91-13.07,14.31,3.5-5.51,8.34-9.25,14.03-10.83Z"/>
        </g>
        <g>
          <path class="cls-16" d="m495.82,964.66c-5.49-5.37-12.55-7.9-19.2-6.06-6.61,1.83-11.35,7.64-13.33,15.08,3.38-5.61,8.28-9.72,14.35-11.41,6.11-1.69,12.43-.69,18.18,2.38h0Z"/>
          <path class="cls-17" d="m496.41,965.09l-.64-.34c-5.95-3.19-12.21-4.01-18.1-2.37-5.85,1.62-10.79,5.55-14.29,11.36l-.38.62.19-.7c2.09-7.85,6.98-13.37,13.41-15.15,6.47-1.8,13.51.42,19.3,6.08l.52.51Zm-19.76-6.39c-6.16,1.71-10.9,6.9-13.07,14.31,3.5-5.51,8.34-9.25,14.03-10.83,5.73-1.59,11.8-.88,17.61,2.05-5.63-5.24-12.37-7.25-18.57-5.53Z"/>
        </g>
        <g>
          <path class="cls-16" d="m377.96,983.44c-1.32-8.3,1.13-17.08,7.38-23.57,6.24-6.53,14.87-9.37,23.23-8.4-7.57,1.39-14.78,5.08-20.51,11.02-5.68,5.98-9.07,13.32-10.11,20.94h0Z"/>
          <path class="cls-17" d="m378.01,988.42l-.78-4.87c-1.42-8.9,1.34-17.71,7.57-24.19,6.22-6.52,14.91-9.66,23.85-8.62l4.85.56-4.8.88c-7.71,1.41-14.66,5.15-20.11,10.81-5.43,5.71-8.85,12.81-9.91,20.54l-.67,4.89Zm20.13-35.44c-4.61,1.28-8.84,3.79-12.28,7.39-4.66,4.85-7.28,11.07-7.51,17.63,1.7-5.96,4.82-11.42,9.18-16.01,4.4-4.57,9.75-7.93,15.66-9.9-1.72.13-3.41.43-5.05.89Z"/>
        </g>
      </g>
      <g>
        <circle class="cls-12" cx="1416.02" cy="1351.77" r="66.54" transform="translate(-71.76 2624.12) rotate(-84.21)"/>
        <g>
          <path class="cls-16" d="m1440.52,1378.19c2.49.55,4.75,2.14,6,4.49,1.66,3.18,1.1,6.84-1.15,9.43.54-2.88,0-6.38-1.78-9.7-.84-1.63-1.92-3.04-3.07-4.22h0Z"/>
          <path class="cls-17" d="m1445.27,1392.34l.04-.24c.56-2.99-.09-6.51-1.78-9.66-.78-1.52-1.81-2.93-3.06-4.2l-.15-.16.22.05c2.62.58,4.82,2.23,6.04,4.52,1.61,3.1,1.16,6.83-1.15,9.51l-.16.18Zm-4.54-14.03c1.19,1.24,2.18,2.61,2.93,4.07,1.65,3.09,2.32,6.54,1.83,9.51,2.15-2.62,2.54-6.2.98-9.18-1.17-2.2-3.26-3.79-5.74-4.4Z"/>
        </g>
        <g>
          <path class="cls-16" d="m1445.01,1384.51c-8.83,9.44-21.85,14.79-35.7,13.39s-25.54-9.26-32.31-20.29c8.86,7.87,20.21,13.12,32.91,14.41,12.7,1.29,24.85-1.58,35.11-7.51h0Z"/>
          <path class="cls-17" d="m1409.3,1397.96c-6.8-.69-13.14-2.89-18.85-6.55-5.44-3.49-10.12-8.25-13.51-13.77l-.23-.38.33.29c9.19,8.17,20.56,13.14,32.87,14.39,12.3,1.25,24.42-1.35,35.07-7.5l.38-.22-.3.32c-4.42,4.73-9.95,8.45-15.99,10.78-6.33,2.43-12.98,3.32-19.77,2.63Zm-32.02-20.01c7.1,11.3,18.75,18.53,32.03,19.88,13.29,1.35,26.15-3.4,35.35-13.05-10.57,6.01-22.59,8.53-34.76,7.3-12.19-1.24-23.46-6.12-32.61-14.13Z"/>
        </g>
        <g>
          <path class="cls-16" d="m1462.73,1325.32c-.06-5.3-2.52-10.48-7.09-13.85-4.57-3.39-10.23-4.24-15.32-2.75,4.85.06,9.71,1.58,13.88,4.66,4.19,3.11,7.07,7.31,8.53,11.93h0Z"/>
          <path class="cls-17" d="m1463.23,1328.42l-.93-2.97c-1.48-4.69-4.37-8.74-8.36-11.7-3.96-2.93-8.67-4.51-13.61-4.57l-3.08-.04,2.95-.87c5.44-1.59,11.17-.57,15.72,2.82,4.56,3.36,7.21,8.54,7.27,14.21l.04,3.11Zm-19.5-19.89c3.88.59,7.55,2.11,10.75,4.48,3.22,2.39,5.74,5.45,7.43,8.98-.84-4.05-3.13-7.64-6.54-10.15-3.41-2.54-7.52-3.68-11.64-3.3Z"/>
        </g>
        <g>
          <path class="cls-16" d="m1403.02,1327.75c-1.99-4.41-5.56-7.51-9.88-7.95-4.3-.44-8.41,1.89-11.28,5.8,3.27-2.52,7.09-3.81,11.03-3.41,3.95.4,7.43,2.44,10.13,5.56h0Z"/>
          <path class="cls-17" d="m1381.54,1325.94l.27-.37c3.02-4.13,7.15-6.25,11.34-5.83,4.21.43,7.83,3.34,9.94,7.99l.19.41-.29-.34c-2.79-3.24-6.28-5.15-10.08-5.54s-7.6.79-10.99,3.4l-.36.28Zm11.37-3.81c3.7.38,7.1,2.18,9.87,5.24-2.11-4.37-5.6-7.09-9.64-7.5-4.01-.41-7.98,1.56-10.94,5.41,3.32-2.44,7.01-3.52,10.71-3.15Z"/>
        </g>
        <g>
          <path class="cls-16" d="m1449.05,1332.42c-1.99-4.41-5.56-7.51-9.88-7.95s-8.41,1.89-11.28,5.8c3.27-2.52,7.09-3.81,11.03-3.41,3.97.4,7.46,2.44,10.13,5.56h0Z"/>
          <path class="cls-17" d="m1449.29,1332.81l-.3-.35c-2.76-3.23-6.25-5.15-10.08-5.54-3.8-.39-7.6.79-10.99,3.4l-.36.28.27-.37c3.02-4.13,7.15-6.25,11.34-5.83,4.21.43,7.83,3.34,9.94,7.99l.19.42Zm-10.14-8.27c-4.01-.41-7.98,1.56-10.94,5.41,3.32-2.44,7.01-3.52,10.71-3.15,3.73.38,7.13,2.18,9.86,5.23-2.11-4.36-5.6-7.08-9.64-7.49Z"/>
        </g>
        <g>
          <path class="cls-16" d="m1375.57,1316.48c1.12-5.18,4.57-9.76,9.72-12.14,5.15-2.41,10.87-2.1,15.56.38-4.76-.92-9.83-.4-14.56,1.78-4.7,2.21-8.37,5.74-10.72,9.98h0Z"/>
          <path class="cls-17" d="m1374.46,1319.42l.66-3.04c1.2-5.55,4.84-10.09,9.98-12.46,5.14-2.4,10.96-2.26,15.97.4l2.72,1.44-3.02-.58c-4.85-.93-9.78-.33-14.28,1.74-4.49,2.11-8.13,5.5-10.52,9.79l-1.51,2.72Zm19.92-16.2c-3-.3-6.06.2-8.9,1.53-3.85,1.78-6.81,4.83-8.44,8.63,2.36-3.11,5.44-5.6,9.06-7.3,3.63-1.67,7.54-2.43,11.46-2.23-1.04-.31-2.1-.53-3.17-.63Z"/>
        </g>
      </g>
      <g>
        <circle class="cls-10" cx="1035.04" cy="887.81" r="11.33"/>
        <path class="cls-10" d="m938.6,887.81c0-6.26-5.07-11.33-11.33-11.33-6.26,0-11.33,5.07-11.33,11.33,0,6.26,5.07,11.33,11.33,11.33,6.26,0,11.33-5.07,11.33-11.33Z"/>
        <path class="cls-10" d="m986.31,820.79s5.93,2.29,32.52,2.29c26.6,0,38.43,3.73,37.94,0-2.09-16.03-49.51-24.08-57.45-22.36-7.94,1.72-16.3,9.74-13.01,20.06Z"/>
        <path class="cls-10" d="m944.51,820.79s-5.93,2.29-32.52,2.29c-26.6,0-38.43,3.73-37.94,0,2.09-16.03,49.51-24.08,57.45-22.36,7.94,1.72,16.3,9.74,13.01,20.06Z"/>
        <path class="cls-10" d="m968.62,957.45c-7.08,0-13.56-2.38-17.09-5.74-2.56-2.43-3.49-5.27-2.62-7.99,2.27-7.12,19.17-50.55,19.25-50.76l3.68,1.32c-.08.21-16.96,43.57-19.2,50.63-.5,1.56.59,3.02,1.59,3.97,4.29,4.09,14.52,6.42,23.56,3.05l1.36,3.67c-3.47,1.29-7.08,1.86-10.53,1.86Z"/>
      </g>
      <path class="cls-1" d="m934.72,990.19h88.88s1.5,16.54-44.56,15.57c-46.06-.97-44.32-15.57-44.32-15.57Z"/>
    </g>
  </g>
</svg>