<?xml version="1.0" encoding="UTF-8"?>
<svg xmlns="http://www.w3.org/2000/svg" xmlns:xlink="http://www.w3.org/1999/xlink" viewBox="0 0 2000 2000">
  <defs>
    <style>
      .cls-1 {
        fill: #fff;
      }

      .cls-2 {
        opacity: .6;
      }

      .cls-3 {
        isolation: isolate;
      }

      .cls-4 {
        fill: #1b79a1;
      }

      .cls-4, .cls-5, .cls-6, .cls-7 {
        mix-blend-mode: multiply;
      }

      .cls-4, .cls-6, .cls-7 {
        opacity: .5;
      }

      .cls-8 {
        fill: #7c5349;
      }

      .cls-9 {
        fill: #141a46;
      }

      .cls-10 {
        fill: #333;
      }

      .cls-5 {
        fill: #b3b3b3;
      }

      .cls-11 {
        fill: #fab29a;
      }

      .cls-6 {
        fill: #875c50;
      }

      .cls-7 {
        fill: #cc8a79;
      }

      .cls-12 {
        clip-path: url(#clippath);
      }

      .cls-13 {
        fill: none;
      }

      .cls-14 {
        fill: #f8ba8c;
      }

      .cls-15 {
        fill: #0b5b07;
      }

      .cls-16 {
        fill: #a1c9de;
      }

      .cls-17 {
        fill: #d1edfc;
      }
    </style>
    <clipPath id="clippath">
      <path class="cls-13" d="m1737,1000c0,114.46-26.09,222.82-72.65,319.47-119.02,247.05-371.77,417.53-664.35,417.53s-545.33-170.48-664.35-417.53c-46.56-96.65-72.65-205.01-72.65-319.47,0-407.03,329.97-737,737-737s737,329.97,737,737Z"/>
    </clipPath>
  </defs>
  <g class="cls-3">
    <g id="Layer_1" data-name="Layer 1">
      <g class="cls-12">
        <path class="cls-17" d="m1737,1000c0,114.46-26.09,222.82-72.65,319.47-119.02,247.05-371.77,417.53-664.35,417.53s-545.33-170.48-664.35-417.53c-46.56-96.65-72.65-205.01-72.65-319.47,0-407.03,329.97-737,737-737s737,329.97,737,737Z"/>
        <path class="cls-16" d="m1594.73,1435.36c-134.11,182.9-350.56,301.64-594.73,301.64s-460.62-118.74-594.73-301.64h1189.46Z"/>
        <g class="cls-2">
          <path class="cls-1" d="m1198.51,565.56c-8.86,2.17-16.8,6.13-23.58,11.39-2.38,1.84-4.97,3.36-7.73,4.49l-30.73-125.26c-2.26-9.22-11.57-14.86-20.79-12.6l-130.33,31.98,3.63,14.79c.84,3.42,2.35,6.63,4.4,9.48,4.14,5.74,7.29,12.33,9.08,19.63,7.69,31.32-12.14,62.95-44.05,69.45-28.12,5.72-56.81-11.09-65.57-38.42-3.09-9.63-3.44-19.36-1.61-28.49.82-4.08.84-8.27-.15-12.31l-2.54-10.37-132.15,31.98c-11.32,2.78-18.25,14.21-15.47,25.53l28.37,116.2-9,2.21c-1.02.25-2.07.48-3.12.66-13.14-5.4-28.04-6.85-42.9-3.2-37.26,9.14-60.05,46.75-50.91,84.01,9.14,37.26,46.75,60.05,84.01,50.91,12.19-2.99,22.81-9.04,31.29-17.11,1.7-.83,3.47-1.49,5.32-1.94l11.55-2.83,31.81,129.65c2.78,11.32,14.21,18.25,25.53,15.47l360.64-88.48c9.22-2.26,14.86-11.57,12.6-20.79l-32.39-132.01c2.36.01,4.72.28,7.05.78,12.35,2.66,25.72,1.72,38.69-3.92,25.73-11.18,41.18-38.75,37.46-66.72-5.12-38.49-41.98-63.08-78.41-54.14Z"/>
          <path class="cls-1" d="m1510.2,1139.26c-6.93-1.92-13.92-2.26-20.6-1.27-2.34.35-4.71.4-7.05.11l27.19-97.98c2-7.21-2.22-14.68-9.44-16.68l-101.94-28.29-3.21,11.57c-.74,2.67-.94,5.46-.63,8.22.63,5.54.25,11.29-1.33,17-6.8,24.5-32.63,38.6-57.08,30.76-21.54-6.91-34.78-29.54-30.26-51.71,1.59-7.81,5.1-14.64,9.89-20.21,2.14-2.49,3.77-5.36,4.65-8.52l2.25-8.11-103.19-28.99c-8.86-2.46-18.03,2.73-20.49,11.59l-25.32,90.84-7.04-1.95c-.8-.22-1.6-.47-2.4-.75-6.95-8.78-16.64-15.52-28.26-18.75-29.14-8.09-59.32,8.98-67.41,38.12-8.09,29.14,8.98,59.32,38.12,67.41,9.53,2.65,19.17,2.58,28.11.3,1.49.09,2.96.32,4.41.72l9.04,2.51-28.14,101.41c-2.46,8.86,2.73,18.03,11.59,20.49l282.09,78.29c7.21,2,14.68-2.22,16.68-9.43l28.66-103.26c1.62.92,3.14,2.01,4.54,3.26,7.46,6.59,17.02,11.1,28.11,12.23,22,2.24,43.26-10.76,51.49-31.42,11.33-28.44-4.53-59.56-33.03-67.47Z"/>
          <path class="cls-1" d="m534.99,1154.95c6.33,2.36,12.84,3.24,19.18,2.85,2.22-.14,4.44,0,6.6.47l-33.33,89.49c-2.45,6.59.9,13.92,7.49,16.37l93.12,34.68,3.94-10.57c.91-2.44,1.32-5.04,1.25-7.64-.15-5.24.67-10.59,2.61-15.8,8.34-22.38,33.64-33.5,55.89-24.19,19.6,8.2,30.17,30.45,24.16,50.83-2.12,7.18-5.95,13.29-10.88,18.12-2.2,2.16-3.96,4.71-5.03,7.6l-2.76,7.41,94.23,35.44c8.09,3.01,17.09-1.1,20.1-9.19l31-82.96,6.43,2.4c.73.27,1.46.57,2.18.9,5.8,8.78,14.32,15.87,24.94,19.82,26.62,9.91,56.24-3.63,66.15-30.25,9.91-26.62-3.63-56.24-30.25-66.15-8.71-3.24-17.73-3.96-26.28-2.55-1.38-.2-2.75-.54-4.06-1.03l-8.25-3.07,34.5-92.63c3.01-8.09-1.1-17.09-9.19-20.1l-257.67-95.97c-6.59-2.45-13.92.9-16.37,7.49l-35.13,94.32c-1.44-.99-2.77-2.14-3.99-3.41-6.45-6.77-15.03-11.76-25.32-13.71-20.41-3.87-41.35,6.58-50.72,25.26-12.89,25.7-.56,56.1,25.47,65.8Z"/>
        </g>
        <g>
          <path class="cls-4" d="m1760.06,633.4l-233.73,85.98,6.29,15.34h0s-25.13,9.22-25.13,9.22l-121.68,44.64,3.97,11.5-28.58,10.56-80.56,29.78-259.46-26.12c-11.1-1.11-22.29,1.13-32.1,6.44l-128.81,69.68-125.88,29.17-68.3-29.85-24.53-10.72,7.24-15.78-115.58-55.66-25.34-12.2v-.02s7.76-14.61,7.76-14.61l-224.27-108.3L-2.28,494.91v592.23l26.62,15.54.03.02c5.42,15.56,19.82,27.07,37.29,27.92,3.22.16,6.36-.09,9.4-.64l.03.02,198.1,115.69,58.43-110.24,52.59,23.87,109.93,49.91,15.2-33.16,50.9,24.38,34.38,16.47c18.95,13.97,50.13,38.78,79.59,62.57-10.1-.87-14.38,3.41-14.38,3.41-20.71,14.68,5.26,64.89,32.86,77.68,8.53,3.95,16.58,4.99,23.6,4.04,7.28-.98,13.43-4.11,17.85-8.31-2.38,7.02-4.21,13.67-5.6,19.53-5.83,24.62,9.47,49.69,34.22,54.95,25.24,5.36,50.24-7.42,50.24-7.42,0,0-4.46,18.93,17.12,37.22,1.54,1.31,3.2,2.6,5,3.89,27.64,19.65,60.32,8.43,62.17,7.56,0,0,1.63,15.86,16.94,27.46,1.29.98,2.72,1.91,4.21,2.82l-.02.02s.35.2.86.48c2.66,1.54,5.6,2.97,8.93,4.18.45.16.86.29,1.3.44,12.41,4.71,33.11,9.55,51.06-.87,16.72-9.71,30.39-17.99,38.64-23.05,18.83,8.92,36.6,13.95,58.11,13.78,16.32-.13,26.83-7.84,33.53-16.86,9.55-12.86,11.38-28.38,11.38-28.38,0,0,10.7,8.48,20.18,11.46,9.48,2.98,40.73,9.28,63.29-17.44,2.34-2.76,4.3-5.5,5.94-8.17,14.07-22.73,5.29-41.36,4.97-42.06h-.01c13.54,4.44,62.78,1.65,78.77-34.8.12-.26.22-.5.32-.76,15.18-35.72-6.15-68.29-6.65-69.05,53.82,30.1,80.29,10.31,93.08-8.47,9.49-13.95,10.17-35.66,9.88-45.91,0-.21-.02-.42-.04-.63-.16-3.31-.93-6.57-2.27-9.59t-.03-.03l-12.15-27.27s9.37-5.24,22.86-14.5c2.23-1.52,4.57-3.16,6.99-4.89.51-.37,1.07-.78,1.59-1.16,1.94-1.4,3.89-2.82,5.92-4.34.75-.56,1.53-1.18,2.29-1.76,1.85-1.41,3.69-2.82,5.59-4.32.91-.72,1.84-1.5,2.76-2.24,1.78-1.43,3.55-2.86,5.35-4.37,1.04-.87,2.08-1.8,3.12-2.69,1.69-1.46,3.38-2.9,5.07-4.42,1.14-1.02,2.27-2.1,3.41-3.15,1.58-1.46,3.16-2.91,4.72-4.42,1.22-1.18,2.42-2.4,3.63-3.61,1.45-1.45,2.9-2.9,4.33-4.39,1.27-1.33,2.49-2.7,3.74-4.06.96-1.05,1.95-2.07,2.89-3.14.76-.87,1.52-1.74,2.27-2.62l38.56-14.1,11.47,33.19,122.14-41.69,46.75-15.96v.02s47.44,115.36,47.44,115.36l300.2-138.17V505.78l-266.56,127.62Zm-1023.41,700.3c.72.6,1.37,1.13,2.01,1.66-.45.94-.87,1.87-1.3,2.8-.17-1.49-.38-2.98-.72-4.46Z"/>
          <g>
            <path class="cls-11" d="m914.44,1441.48s34.42,20.33,62.16,4.23c27.74-16.11,47.19-28.34,47.19-28.34l-60.96-35.76-48.38,59.87Z"/>
            <path class="cls-7" d="m914.44,1441.48s34.42,20.33,62.16,4.23c27.74-16.11,47.19-28.34,47.19-28.34l-60.96-35.76-48.38,59.87Z"/>
            <path class="cls-8" d="m1378.14,1221.9c-12.78,18.79-39.28,38.59-93.09,8.48,0,0,.04.04.08.12,1.22,1.95,17.61,28,9.98,58.72-.81,3.37-1.95,6.78-3.41,10.23-.12.24-.2.49-.32.73-15.99,36.48-65.21,39.24-78.76,34.78v.04c.32.69,9.13,19.32-4.95,42.04-1.66,2.68-3.61,5.4-5.96,8.2-22.56,26.7-53.81,20.41-63.26,17.41-9.5-2.96-20.21-11.44-20.21-11.44,0,0-1.83,15.5-11.36,28.36-6.7,9.05-17.21,16.76-33.52,16.88-26.17.2-46.75-7.18-70.44-20-5.36-2.88-10.83-6.05-16.6-9.45-7.43-4.42-15.3-9.25-23.78-14.45-44.35-27.15-216.93-112.32-216.93-112.32,0,0-31.89-26.38-68.33-55.84-31.41-25.44-66.18-53.24-86.67-68.33l-34.37-16.47-100.31-48.04-47.07-22.56-135.17-64.72,185.85-265.62,91.62,40.05,114.92,50.19,68.29,29.87,155.7-36.07,37.29-8.76,124.82,79.13,309,195.95,12.34,49.51,12.17,27.27.04.04c1.34,3,2.11,6.29,2.27,9.58,0,.2,0,.45.04.65.28,10.23-.41,31.93-9.9,45.89Z"/>
            <path class="cls-6" d="m986.32,1406.97c-7.42-4.42-15.28-9.26-23.79-14.45-44.35-27.13-216.9-112.29-216.9-112.29,0,0-31.93-26.39-68.33-55.87-31.43-25.45-66.2-53.21-86.69-68.31l-34.38-16.47-100.32-48.06,21.29-37.1,151.74,71.62s188.34,158.65,242.75,192.87c54.4,34.22,112.63,78.78,112.63,78.78l1.99,9.29Z"/>
            <polygon class="cls-6" points="666.07 828.88 556.24 1139.59 408.85 1068.98 551.16 778.67 666.07 828.88"/>
            <path class="cls-6" d="m1385.71,1165.78s-.01-.01-.03-.03l-12.15-27.27-12.34-49.49-309-195.95h0s-124.83-79.15-124.83-79.15l-37.27,8.76-23.5,33.78-104.88,143.81s17.92,45.08,75.41,40.24c57.49-4.85,106.04-84.59,126.33-94.08,8.06-3.76,53.05,12.26,108.86,35.81,82.44,45.64,243.25,135.22,277.5,158.25,18.66,12.56,30.59,24.78,38.17,34.91-.16-3.31-.93-6.57-2.27-9.59Z"/>
            <path class="cls-6" d="m1295.12,1289.22c-32.42-22.76-86.96-59.89-114.79-78.96-45.61-31.25-39.93-70.69-39.93-70.69l144.66,90.81s.04.04.08.12c1.22,1.95,17.61,28,9.98,58.72Z"/>
            <path class="cls-6" d="m1207.67,1377.04c-23.06-15.55-60.87-41.09-83.88-56.72-34.88-23.69-36.4-69.25-36.4-69.25l125.24,83.9h.01c.32.71,9.1,19.33-4.97,42.07Z"/>
            <path class="cls-6" d="m1118.26,1391.19s-1.83,15.52-11.38,28.38c-19.98-11.89-49.02-29.83-67.42-44.13-30.34-23.57-28.77-48.11-28.77-48.11l107.56,63.86Z"/>
            <path class="cls-14" d="m1825.54,934.7l-259.88,95.08-105.59,38.62c-.75.88-1.51,1.75-2.27,2.62-19.77,22.53-44,41.07-61.4,52.97-13.49,9.26-22.86,14.5-22.86,14.5l-7.32-9.39c-7.38-9.47-16.46-17.5-26.76-23.65l-44.08-26.42-83.47-50.04-15.54-9.32-9.97-5.97-176.96-106.08c-6.53-3.92-14.24-5.17-21.59-3.63-1.22.25-2.42.59-3.62,1l-50.93,17.58-2.91,1c-.99.34-1.97.74-2.91,1.19-3.24,1.5-6.16,3.58-8.66,6.11-1.49,1.5-2.83,3.19-3.97,5-38.97,61.57-79.56,80.81-110.03,84.46-3.84.47-7.5.69-10.99.71-7.98.03-15-.93-20.78-2.27-12.52-2.9-19.44-16.35-14.67-28.28l55.35-121.06c4.84-12.11,13.77-22.13,25.23-28.32l150.11-81.19c9.81-5.31,21-7.55,32.1-6.44l259.46,26.12,80.56-29.78,105.1-38.82,241.91-89.4,98.67,263.34,18.66,49.8Z"/>
            <polygon class="cls-1" points="648.77 802.37 490.13 1148.36 380.21 1098.45 268.69 1047.82 455.53 709.3 533.19 746.71 648.77 802.37"/>
            <path class="cls-6" d="m1002.91,1416.43c-12.23-6.61-25.29-14.68-40.38-23.91-44.35-27.13-216.9-112.29-216.9-112.29,0,0-31.93-26.39-68.33-55.87,16.39.5,49.26,6.37,83.08,40.56l44.95-21.34s49.06,4.03,67.83,68.72l46.3-20.62s33.04,15.9,38.06,58.37c0,0,37.21,13.28,43.41,36.66,3.28,12.35,2.99,22.7,1.98,29.72Z"/>
            <path class="cls-14" d="m712.28,1303.75c-7.02.95-15.08-.09-23.6-4.04-27.6-12.79-53.57-63-32.86-77.68,0,0,11.08-11.14,39.84,6.14,16.88,10.13,27.86,19.9,34.34,29.59,4.56,6.8,6.89,13.57,7.5,20.4,1.01,11.43-9.51,23.47-25.22,25.59Z"/>
            <path class="cls-7" d="m712.28,1303.75c4.42-17.69,12.73-35.89,17.72-45.99,4.56,6.8,6.89,13.57,7.5,20.4,1.01,11.43-9.51,23.47-25.22,25.59Z"/>
            <path class="cls-14" d="m758.76,1369.92c-24.75-5.26-40.05-30.32-34.22-54.95,3.74-15.78,10.63-37.2,23.04-56.54,24.51-38.19,96.19-22.03,89.02,41.97l-27.6,62.09s-25,12.79-50.24,7.42Z"/>
            <path class="cls-14" d="m926.55,1341.95l-33.25,69.22c-1.85.87-34.53,12.08-62.17-7.56-1.81-1.29-3.47-2.58-5-3.89-21.58-18.29-17.12-37.22-17.12-37.22l27.6-62.09s19.8-37.93,54.16-29.14c.71.17,1.42.37,2.14.59,35.67,10.96,42.54,43.92,33.65,70.1Z"/>
            <path class="cls-14" d="m988.14,1379.54c-3.59,18.1-18.78,64.37-18.78,64.37-6.3,5.98-16.72,12.53-45.13,2.22-5.61-2.03-10.23-4.64-13.99-7.5-15.32-11.61-16.94-27.46-16.94-27.46l27.25-56.75c12.16-10.45,23.75-12.81,33.79-10.78,21.12,4.26,35.41,27.85,33.8,35.9Z"/>
            <path class="cls-7" d="m890.76,1271.26c-9.78,7.25-27.97,24.29-40.33,57.15-9.23,24.54-18.03,51.34-24.3,71.3-21.58-18.29-17.12-37.22-17.12-37.22l27.6-62.09s19.8-37.93,54.16-29.14Z"/>
            <path class="cls-7" d="m954.34,1343.64c-6.53,5.64-16.21,17.43-25.3,41.49-7.6,20.12-14.1,39.2-18.79,53.5-15.32-11.61-16.94-27.46-16.94-27.46l27.25-56.75c12.16-10.45,23.75-12.81,33.79-10.78Z"/>
            <path class="cls-7" d="m1806.88,884.9c-191.18,64.54-412.19,140.32-431.97,152.39-17.05,10.4-34.44,16.03-47.9,19.09-20.69-13.18-47.14-29.85-76.06-47.92,48.23-38.11,44-99.69,44-99.69-14.87,47.24-39.23,73.51-62.63,88.07-102.13-63.59-224.76-138.17-233.77-138.41-15.01-.4-79.55,20.6-79.55,20.6,0,0-4.01,65.04-56.95,105.52-22.39,17.12-41.94,28.4-57.23,35.75,30.47-3.64,71.05-22.89,110.03-84.46,1.14-1.81,2.48-3.5,3.97-5,.56-.57,1.15-1.1,1.75-1.63.13-.11.26-.22.39-.33.61-.51,1.23-1,1.87-1.45.06-.04.11-.08.17-.12.62-.43,1.25-.83,1.9-1.22.12-.07.23-.14.35-.21.72-.41,1.46-.8,2.22-1.16.45-.22.91-.42,1.37-.61.51-.21,1.02-.4,1.54-.58l2.91-1,50.93-17.58c.57-.19,1.15-.37,1.72-.53.16-.04.31-.08.47-.12.4-.11.81-.21,1.21-.3,7.41-1.61,15.21-.37,21.8,3.58l176.96,106.08,25.52,15.29,83.47,50.04h0s44.08,26.43,44.08,26.43c10.3,6.16,19.37,14.19,26.76,23.65l7.32,9.39s9.37-5.24,22.86-14.5c18.07-12.36,43.5-31.88,63.67-55.59l365.47-133.7-18.66-49.8Z"/>
            <path class="cls-7" d="m1565.66,1029.78l-105.59,38.62c-.75.88-1.51,1.75-2.27,2.62l-96.6-321.23,105.1-38.82,99.36,318.82Z"/>
            <polygon class="cls-1" points="1740.26 1008.91 1632.23 1045.79 1510.1 1087.48 1385.81 727.72 1507.49 683.08 1587.17 653.86 1740.26 1008.91"/>
            <polygon class="cls-5" points="1740.26 1008.91 1632.23 1045.79 1507.49 683.08 1587.17 653.86 1740.26 1008.91"/>
            <polygon class="cls-9" points="2026.62 444.92 2026.62 1007.04 1726.42 1145.21 1678.99 1029.85 1664.14 993.73 1642.39 940.78 1607.49 855.89 1598.64 834.34 1537.13 684.77 1532.62 673.86 1526.33 658.52 1760.06 572.54 2026.62 444.92"/>
            <polygon class="cls-5" points="533.19 746.71 380.21 1098.45 268.69 1047.82 455.53 709.3 533.19 746.71"/>
            <polygon class="cls-15" points="515.62 719.87 507.87 734.48 496.99 755.01 426.59 887.83 415.72 908.4 346.45 1039.06 327.62 1074.57 269.19 1184.82 71.09 1069.13 24.34 1041.82 -2.28 1026.28 -2.28 434.04 291.34 611.57 515.62 719.87"/>
            <path class="cls-10" d="m105.28,1030.18c-1.12,22.97-20.64,40.69-43.61,39.57-22.97-1.12-40.69-20.64-39.57-43.61,1.12-22.97,20.64-40.69,43.61-39.57,22.97,1.12,40.69,20.64,39.57,43.61Z"/>
          </g>
        </g>
        <path class="cls-1" d="m653.03,652.55c-36.48,7.3-42.4,13.21-49.69,49.69-7.3-36.48-13.21-42.4-49.69-49.69,36.48-7.3,42.4-13.21,49.69-49.69,7.3,36.48,13.21,42.4,49.69,49.69Z"/>
        <path class="cls-1" d="m680.41,536.87c-20.1,4.02-23.36,7.28-27.38,27.38-4.02-20.1-7.28-23.36-27.38-27.38,20.1-4.02,23.36-7.28,27.38-27.38,4.02,20.1,7.28,23.36,27.38,27.38Z"/>
        <path class="cls-1" d="m1638.27,1214.4c-20.1,4.02-23.36,7.28-27.38,27.38-4.02-20.1-7.28-23.36-27.38-27.38,20.1-4.02,23.36-7.28,27.38-27.38,4.02,20.1,7.28,23.36,27.38,27.38Z"/>
        <path class="cls-1" d="m1298.76,500.87c-15.63,3.13-18.16,5.66-21.29,21.29-3.13-15.63-5.66-18.16-21.29-21.29,15.63-3.13,18.16-5.66,21.29-21.29,3.13,15.63,5.66,18.16,21.29,21.29Z"/>
        <path class="cls-1" d="m549.79,1345.74c-18.61,3.72-21.63,6.74-25.35,25.35-3.72-18.61-6.74-21.63-25.35-25.35,18.61-3.72,21.63-6.74,25.35-25.35,3.72,18.61,6.74,21.63,25.35,25.35Z"/>
        <path class="cls-1" d="m448.4,1230.7c-29.04,5.81-33.74,10.51-39.55,39.55-5.81-29.04-10.51-33.74-39.55-39.55,29.04-5.81,33.74-10.51,39.55-39.55,5.81,29.04,10.51,33.74,39.55,39.55Z"/>
        <path class="cls-1" d="m1464.91,602.85c-29.04,5.81-33.74,10.51-39.55,39.55-5.81-29.04-10.51-33.74-39.55-39.55,29.04-5.81,33.74-10.51,39.55-39.55,5.81,29.04,10.51,33.74,39.55,39.55Z"/>
        <path class="cls-1" d="m1565.3,1361c-42.44,8.49-49.32,15.37-57.81,57.81-8.49-42.44-15.37-49.32-57.81-57.81,42.44-8.49,49.32-15.37,57.81-57.81,8.49,42.44,15.37,49.32,57.81,57.81Z"/>
        <path class="cls-1" d="m994.63,402.3c-47.41,9.48-55.09,17.16-64.57,64.57-9.48-47.41-17.16-55.09-64.57-64.57,47.41-9.48,55.09-17.16,64.57-64.57,9.48,47.41,17.16,55.09,64.57,64.57Z"/>
      </g>
    </g>
  </g>
</svg>