<?xml version="1.0" encoding="UTF-8"?>
<svg xmlns="http://www.w3.org/2000/svg" xmlns:xlink="http://www.w3.org/1999/xlink" viewBox="0 0 2000 2000">
  <defs>
    <style>
      .cls-1 {
        stroke: #ececec;
      }

      .cls-1, .cls-2 {
        stroke-width: 2.31px;
      }

      .cls-1, .cls-2, .cls-3, .cls-4, .cls-5, .cls-6, .cls-7, .cls-8, .cls-9, .cls-10, .cls-11, .cls-12 {
        fill: none;
      }

      .cls-1, .cls-2, .cls-3, .cls-4, .cls-6, .cls-8, .cls-9 {
        stroke-miterlimit: 10;
      }

      .cls-13 {
        fill: #f4f4f4;
      }

      .cls-14 {
        fill: #fff;
      }

      .cls-15 {
        fill: #4e250d;
      }

      .cls-16 {
        fill: #14171c;
      }

      .cls-17 {
        fill: #ee9849;
      }

      .cls-18 {
        fill: #27437c;
      }

      .cls-19 {
        fill: #0e1115;
      }

      .cls-20 {
        fill: #1a213d;
      }

      .cls-21 {
        fill: #eaad8f;
      }

      .cls-22 {
        fill: #b68067;
      }

      .cls-23 {
        fill: #212a44;
      }

      .cls-2 {
        stroke: #d9eceb;
      }

      .cls-24 {
        fill: #28333a;
      }

      .cls-25 {
        isolation: isolate;
      }

      .cls-26 {
        fill: #bc6337;
      }

      .cls-27 {
        fill: #f4a37f;
      }

      .cls-28 {
        fill: #403834;
      }

      .cls-29 {
        fill: #12183a;
      }

      .cls-3 {
        stroke-width: 15px;
      }

      .cls-3, .cls-6 {
        stroke: #fff;
      }

      .cls-30 {
        fill: #d8353b;
      }

      .cls-31 {
        fill: #141a46;
      }

      .cls-32 {
        fill: #11193f;
      }

      .cls-33 {
        fill: #09284e;
      }

      .cls-34 {
        fill: #ffb359;
      }

      .cls-35 {
        fill: #331b19;
      }

      .cls-36 {
        fill: #2a2f37;
      }

      .cls-37 {
        fill: #0b181b;
      }

      .cls-38 {
        clip-path: url(#clippath-1);
      }

      .cls-39 {
        fill: #1c2027;
      }

      .cls-40 {
        fill: #793641;
      }

      .cls-41 {
        fill: #111419;
      }

      .cls-42 {
        fill: #dfedf6;
      }

      .cls-4 {
        stroke-width: 3.78px;
      }

      .cls-4, .cls-9 {
        stroke: #c6c6c5;
      }

      .cls-43 {
        fill: #52a1c5;
      }

      .cls-44 {
        fill: #55a6cc;
      }

      .cls-45 {
        mix-blend-mode: multiply;
        opacity: .12;
      }

      .cls-46 {
        fill: #eaeaea;
      }

      .cls-47 {
        fill: #051e3e;
      }

      .cls-48 {
        fill: #e83434;
      }

      .cls-49 {
        fill: #f4a886;
      }

      .cls-5 {
        stroke-width: 2.58px;
      }

      .cls-5, .cls-10, .cls-11, .cls-12 {
        stroke-linecap: round;
        stroke-linejoin: round;
      }

      .cls-5, .cls-11 {
        stroke: #021833;
      }

      .cls-50 {
        fill: #739af0;
      }

      .cls-51 {
        fill: #cc7646;
      }

      .cls-52 {
        fill: #171f3a;
      }

      .cls-53 {
        fill: #e79677;
      }

      .cls-54 {
        fill: #e58638;
      }

      .cls-55 {
        clip-path: url(#clippath);
      }

      .cls-56 {
        fill: #d3d3d3;
      }

      .cls-57 {
        fill: #ed985f;
      }

      .cls-58 {
        fill: #0b4c06;
      }

      .cls-6 {
        stroke-dasharray: 0 0 30 14;
        stroke-width: 10px;
      }

      .cls-59 {
        fill: #d0886b;
      }

      .cls-60 {
        fill: #e89c7a;
      }

      .cls-61 {
        fill: #c1c1c1;
      }

      .cls-62 {
        fill: #041b39;
      }

      .cls-8 {
        stroke: #222b47;
        stroke-width: 2.37px;
      }

      .cls-63 {
        fill: #311613;
      }

      .cls-64 {
        fill: #b5cdcf;
      }

      .cls-9 {
        stroke-width: 3.89px;
      }

      .cls-10 {
        stroke-width: 3.09px;
      }

      .cls-10, .cls-12 {
        stroke: #1b172c;
      }

      .cls-65 {
        fill: #ffb27d;
      }

      .cls-66 {
        fill: #181c22;
      }

      .cls-67 {
        fill: #e98e72;
      }

      .cls-11 {
        stroke-width: 1.97px;
      }

      .cls-68 {
        fill: #d9d9d9;
      }

      .cls-69 {
        fill: #f8ba8c;
      }

      .cls-70 {
        fill: #352e35;
      }

      .cls-71 {
        fill: #16191f;
      }

      .cls-72 {
        fill: #ececec;
      }

      .cls-73 {
        fill: #d9eceb;
      }

      .cls-74 {
        fill: #0b5b07;
      }

      .cls-75 {
        fill: #e18a72;
      }

      .cls-76 {
        fill: #1d1d1b;
      }

      .cls-77 {
        fill: #2b478b;
      }

      .cls-12 {
        stroke-width: 3.87px;
      }

      .cls-78 {
        fill: #d1edfc;
      }

      .cls-79 {
        fill: #111738;
      }
    </style>
    <clipPath id="clippath">
      <path class="cls-7" d="m1736.62,998.94c0,27.36-1.49,54.38-4.4,80.97H267.02c-2.91-26.59-4.4-53.61-4.4-80.97,0-407.03,329.97-737,737-737s737,329.97,737,737Z"/>
    </clipPath>
    <clipPath id="clippath-1">
      <path class="cls-7" d="m1736.04,1079.91c-9.25,84.9-32.82,165.49-68.26,239.27-119.01,247.85-371.77,418.88-664.34,418.88s-545.33-171.03-664.35-418.88c-35.43-73.78-59.01-154.37-68.25-239.27h1465.2Z"/>
    </clipPath>
  </defs>
  <g class="cls-25">
    <g id="Layer_1" data-name="Layer 1">
      <path class="cls-78" d="m1737.38,998.94c0,114.46-26.09,222.82-72.65,319.47-119.02,247.05-371.77,417.53-664.35,417.53s-545.33-170.48-664.35-417.53c-46.56-96.65-72.65-205.01-72.65-319.47,0-407.03,329.97-737,737-737s737,329.97,737,737Z"/>
      <path class="cls-48" d="m1457.73,1182.18c-8.28-.64-18.67,3.83-21.12,10.9-2.52-7.05-15.23-11.34-23.5-10.63-21.82,1.88-29.1,26.26-19.77,42.59,5.02,8.79,12.22,16.46,20.06,23.34,6.57,5.76,23.5,17.97,23.55,17.93.05.04,16.87-12.32,23.38-18.15,7.78-6.95,14.9-14.69,19.85-23.53,9.18-16.42-.6-40.79-22.44-42.47Z"/>
      <g class="cls-45">
        <path d="m1475.94,1226.73c-5.41,6.6-11.68,12.8-18.5,18.13-6.59,5.15-14.32,9.65-22.85,11.18-4.09.74-8.11.65-11.91-.2,6.99,5.34,14.58,10.8,14.62,10.77.05.04,16.87-12.32,23.38-18.15,7.78-6.95,14.9-14.69,19.85-23.53,1.6-2.86,2.62-5.96,3.11-9.14-2.25,3.83-4.86,7.47-7.7,10.93Z"/>
      </g>
      <g class="cls-55">
        <g>
          <path class="cls-35" d="m818.81,434.63c3.94,9.78-.75,22.65,3.4,31.36,4.21,8.82,15.45,9.27,19.61,17.42,14.15,27.7-1.88,33.47-.1,54.51,2,23.5,26.38,35.57,5.68,60.15-17.04,20.24-51.54,17.01-59.3-9.77.56-.77.58-.76.04.04-40.11,26.41-71.35-44.26-23.23-58.35-17.62-12.48-25.39-39.15-5.37-54.59-19.04-13.15-17.85-39.18,1.02-51.25,3.04-1.95-9.53-27.06,15.65-29.23,18.14-1.56,37.08,26.03,42.6,39.72Z"/>
          <g>
            <g>
              <path class="cls-53" d="m816.37,563.42c19.53-.54,35.82,14.84,36.36,34.39.54,19.53-10.1,69.94-24.98,57.26-29.25-24.91-43.84-39.89-44.39-59.43-.55-19.54,13.47-31.68,33.01-32.22Z"/>
              <path class="cls-53" d="m841.7,583.81l-33.87,11.26-6.12,36.15s74.52,90.6,98.8,103.22c25.87,13.45,18.93-10.1,17.24-19.82,0,0-56.89-118.47-76.04-130.82Z"/>
              <path class="cls-53" d="m915.52,737.46s63.19-31.48,103.93-66.74c0,0,3.85-12.31-6.91-9.57-10.31,2.63-112.33,29.13-118.88,37.54-6.55,8.41,21.87,38.76,21.87,38.76Z"/>
              <path class="cls-49" d="m1063.96,662.33l-9.8,4.51s19.88-4.19,22.74-12.73c0,0,1.01-1.63-2.27-2.56,0,0-15.87,7.18-23.71,8.61,0,0,17.28-3.91,27.73-10.45,0,0,2.91-4.96-3-5.23,2.83-3.09-1.3-3.92-1.3-3.92,0,0-4.02-.2-12.51,1.14,0,0-13.09,1.98-28.73,2.51,0,0,6.89-11.69.43-15.18l-11.62,16.04-9.7,16.17,2.86,10.55,19.87,2.96s17.22-1.32,25.5-5.07c0,0,22.93-12.37,3.51-7.37Z"/>
            </g>
            <path class="cls-74" d="m824.4,563.41s27.27,4.86,30.84,31.49c0,0,79.23,111.55,64.63,143.17-6.21,2.43-37.01,20.3-132.56-116.24,0,0-25.6-68.13,37.1-58.42Z"/>
            <path class="cls-74" d="m892.33,690.59s41.19-17.68,116.19-33.5c0,0,12.87,12.88,11.59,21.43,0,0-90.12,61.07-103.34,59.97,0,0-30-21.24-24.44-47.9Z"/>
          </g>
          <g>
            <g>
              <path class="cls-53" d="m752.11,1471.72c16.79,7.8,35.23,6.73,35.23,6.73l-15.35-15.73s-13.27-29.53-14.65-39.06c-.89-6.11,3.27-24.02,3.27-24.02l-22.96-4.81-3.5,12.64-13.47,16.98s-3.23,8.86,12.69,15.16c0,0,8.03,16.08,18.71,32.12Z"/>
              <path class="cls-76" d="m772,1462.71c-6.86,1.19-17.77-.98-21.8-8.09-16.24-28.63-16.02-47.16-16.02-47.16-14.73,9.36-14.57,20.57-14.57,20.57l-.33,4.52-2.56,34.86,2.36.5,13.88-25.6,8.79,29.64c36.21,15.16,47.94,7.42,47.94,7.42l-17.69-16.67Z"/>
            </g>
            <path class="cls-41" d="m856.87,1147.1s-92.7,256.75-98.23,267.29c0,0-27.36-4.33-25.39-10.68,4.72-15.34,13.63-129.36,18.77-154.02,8.27-39.61,15.61-64.13,50.15-110.98,0,0,52.49-23.42,54.71,8.4Z"/>
          </g>
          <path class="cls-49" d="m816.89,839.38s14.24,50.13,20.6,81.86c11.26,56.13,15.79,200.72,15.79,200.72,0,0-47.1,25.51-53.66,13.58-31.65-57.6-35.36-41.8-79.31-236.86l96.58-59.29Z"/>
          <path class="cls-41" d="m722.96,904.87s17.84,147.78,74.89,231.53c0,0,17.23,45.57,59.01,10.7,0,0,5.2-240.66-35.39-315.09,0,0-115.96-5.73-98.52,72.86Z"/>
          <path class="cls-60" d="m777.34,741.78c4.48-.81,22.97,8.73,22.97,8.73,0,0,23.09,74.21,24.08,85.5,1,11.27-76.61,69.69-163.29,36.43,0,0,40.13-104.5,42.59-130.24,2.46-25.74,73.66-.42,73.66-.42Z"/>
          <path class="cls-71" d="m800.3,750.51s22.13,66.92,24.08,85.5c6.91,65.74-82.05,93.31-168.74,60.05,0,0-5.62-90.39,48.03-153.86,0,0,14.26,13,96.62,8.31Z"/>
          <path class="cls-71" d="m718.34,944.83l-62.7-34.41s10.17,198.35,18.12,254.07c0,0,35.07,9.76,45.94,2.55,32.52-76.28,51.36-241.9,51.36-241.9l-52.71,19.69Z"/>
          <path class="cls-71" d="m680.36,852.37s-30.09,8.68-23.86,64.43c6.08,54.44,106.21,59.61,115.56,3.79,10.06-60.06-38.67-91.9-91.7-68.22Z"/>
          <path class="cls-69" d="m722.64,559.52h60.34c-2.74-8.79-8.43-31.53.37-47l-60.97-40.03s10.84,67.17.26,87.03Z"/>
          <path class="cls-75" d="m778.65,533.13c-.18-6.72.93-13.99,4.7-20.62l-60.97-40.03s4.42,27.38,4.87,52.34c22.01,7,31.07,9.71,51.4,8.31Z"/>
          <path class="cls-69" d="m681.18,564.73c-27.16,13.28-12.07,45.19-12.07,45.19l36.71,133.59s34.3,14.02,94.48,7c8.36-11.97,25.53-62.08,31.29-100.34,4.74-31.52,19.46-62.57,3.43-80.14-6.15-6.74-52.98-13.46-53.22-14.56h-56.36l-44.26,9.27Z"/>
          <g>
            <path class="cls-69" d="m792.73,517.99l3.65-8.9,9.16-26.27c1.29-4.18,2.1-9.94.85-14.15-1.49-5.06-2.43-13.23-.11-22.19,6.2-24.02-3.93-37.22-3.93-37.22-13.03-23.03-46.46-24.62-46.46-24.62-41.43.05-46.83,39.89-46.83,39.89-8,26.29,12.11,49.47,12.14,49.51,2.55,2.93,2.6,7.48,3.72,11.01,1.2,3.77,3.11,7.32,5.55,10.42,5.47,6.96,12.73,13.72,20.32,18.09,7.19,4.14,21.31,8.72,31.48,9.13,4.22.17,8.36.43,10.46-4.68Z"/>
            <path class="cls-35" d="m725.05,489.69c.74-18.88,1.16-17.7,1.16-17.7.73-5.49,10.93,6.94,11.08-.25.64-32.93,13.38-47.98,18.19-50.27,13.03-6.22,26.52-7.51,37.02-5.09,16.49,3.8,14.72,25.9,14.72,25.9,18.28-80.32-73.41-59.01-73.41-59.01-44.6,9.32-42.17,51.03-42.17,51.03-7.66,44.26,34.89,72.14,34.89,72.14l-1.49-16.75Z"/>
            <g>
              <path class="cls-27" d="m728.27,483.42c-1.54,1.06-3.46,1.62-5.82,1.45-6.39-.41-11.41-6.68-11.19-13.97.22-7.28,5.57-12.85,11.97-12.44,3.03.2,5.74,1.71,7.74,4.02,2.91,3.37,2.7,9.31,1.77,13.35-.74,3.24-2.18,5.98-4.47,7.58Z"/>
              <g>
                <path class="cls-67" d="m725.46,465.37c-.18-3.84-8.1-.58-7.04,1.63.62,1.27,1.93,2.25,2.95,3.17,1.4,1.26,2.06,2.39,2.16,4.3.02.22.03.89-.2,1.03-1.03.64-4.13-3.26-4.81-4.08-1.34-1.62-1.39-4.27-.62-6.16.82-2,2.21-2.9,4.38-2.65,1.74.19,3.5.4,3.29,2.55,0,.04-.1.39-.11.2h0Z"/>
                <path class="cls-67" d="m722.78,469.22c.85-.77,1.59-.05,2.38.58.74.6,1.12,1.41,1.28,2.32.34,2.01-.06,4.66-1.29,6.33-.99,1.35-2.58,2.13-4.26,1.99-2.33-.18-2.92-2.27-2.91-4.25,0-.53.03-1.78.55-2.08.58-.33.93.56,1.28.95.5.52,1.26.75,1.94.85,1.32.18,2.65-.43,3.54-1.37.16-.17.31-.37.39-.58-.07,1.29-.15,1.57-.25.86-.08-.33-.22-.64-.4-.94-.49-.91-1.37-1.57-1.93-2.45-.27-.41-.74-1.82-.32-2.21h0Z"/>
              </g>
            </g>
            <path class="cls-14" d="m728.51,484.76c-.12,2.16-1.96,3.83-4.12,3.72-2.17-.11-3.82-1.95-3.72-4.11.12-2.17,1.95-3.83,4.11-3.72,2.17.11,3.83,1.96,3.72,4.12Z"/>
          </g>
          <path class="cls-74" d="m798.36,558.73l26.04,4.67s18.98,4.16,19.61,20.4c0,0,1.06,30.77-15.69,86.42,0,0-27.7-85.39-29.96-111.49Z"/>
          <path class="cls-74" d="m791.71,557.71l11.73,1.81s22.77,44.02,28.15,90.64c-5.76,38.27-17.3,96.2-31.29,100.34-47.44,14.03-96.96-8.03-96.96-8.03l-22.69-90.59c60.94-23.72,30.14-93.37,30.14-93.37l12.8-3.07,53.85,54.44,14.27-52.19"/>
          <path class="cls-74" d="m815.78,587.76s23.81,32.98,27.96,49.97c2.73,11.17-16.73,36.31-32.45,40.75-8.59,2.42-8.79-88.49,4.5-90.72Z"/>
          <g>
            <polygon class="cls-46" points="769.34 570.62 768.67 601.18 757.41 590.18 769.34 570.62"/>
            <path class="cls-14" d="m769.34,569.94s-34.13-13.98-42.59-27.89l-15.96,16.48,41.41,40.16,17.14-28.06"/>
          </g>
          <path class="cls-14" d="m799.72,571.49s-3.31-12.79-19.53-23.61l2.12,44.11s9-22.56,17.41-20.5Z"/>
          <path class="cls-46" d="m801.2,591.99l-1.48-20.5c-4.95-1.21-9.38,5.72-12.99,11.4l14.47,9.1Z"/>
          <g>
            <path class="cls-49" d="m707.02,1484.05c18.04,4.19,35.86-.64,35.86-.64l-18.25-12.24s-19.05-26.18-22.36-35.23c-2.12-5.8-1.72-24.18-1.72-24.18h-23.45l-.83,13.09-9.69,19.38s-1.35,9.34,15.53,12.23c0,0,11.16,14.08,24.91,27.59Z"/>
            <path class="cls-76" d="m724.63,1471.16c-6.47,2.56-17.59,2.68-23-3.45-21.76-24.69-25.36-42.87-25.36-42.87-12.49,12.18-10.03,23.13-10.03,23.13l.61,4.5,4.65,34.64h2.41l8.34-27.91,14.69,27.21c38.54,7.41,48.44-2.57,48.44-2.57l-20.74-12.68Z"/>
          </g>
          <path class="cls-71" d="m671.32,1143.78l51.24,15.16s-17.62,245.76-19.89,257.45c0,0-27.44,3.7-27.38-2.95.12-16.05-18.72-116.33-20.53-141.46-3.11-43.19-14.85-72.16,16.57-128.21Z"/>
          <g>
            <g>
              <path class="cls-53" d="m694.27,563.42c-19.53-.54-35.81,14.84-36.36,34.39-.54,19.53,10.1,69.94,24.98,57.26,29.25-24.91,43.84-39.89,44.39-59.43.55-19.54-13.47-31.68-33.01-32.22Z"/>
              <path class="cls-53" d="m668.94,583.81l33.87,11.26,6.12,36.15s-74.52,90.6-98.8,103.22c-25.87,13.45-18.93-10.1-17.24-19.82,0,0,56.89-118.47,76.04-130.82Z"/>
              <path class="cls-53" d="m595.12,737.46s-63.19-31.48-103.93-66.74c0,0-3.85-12.31,6.91-9.57,10.31,2.63,112.33,29.13,118.88,37.54,6.55,8.41-21.87,38.76-21.87,38.76Z"/>
              <path class="cls-53" d="m446.68,662.33l9.8,4.51s-19.88-4.19-22.74-12.73c0,0-1.01-1.63,2.27-2.56,0,0,15.87,7.18,23.71,8.61,0,0-17.28-3.91-27.73-10.45,0,0-2.91-4.96,3-5.23-2.83-3.09,1.3-3.92,1.3-3.92,0,0,4.02-.2,12.51,1.14,0,0,13.09,1.98,28.73,2.51,0,0-6.89-11.69-.43-15.18l11.62,16.04,9.7,16.17-2.86,10.55-19.87,2.96s-17.22-1.32-25.5-5.07c0,0-22.93-12.37-3.51-7.37Z"/>
            </g>
            <path class="cls-74" d="m723.34,621.83c-95.55,136.54-126.36,118.67-132.56,116.24-14.6-31.62,61.85-146.07,61.85-146.07,12.31-26.56,33.62-28.58,33.62-28.58l24.55-4.88,15.75,20.08s9.96,21.18-3.21,43.23Z"/>
            <path class="cls-43" d="m618.31,690.59s-41.19-17.68-116.19-33.5c0,0-12.87,12.88-11.59,21.43,0,0,90.12,61.07,103.35,59.97,0,0,30-21.24,24.44-47.9Z"/>
          </g>
          <path class="cls-35" d="m675.15,434.63c-3.94,9.78.75,22.65-3.4,31.36-4.21,8.82-15.45,9.27-19.61,17.42-14.15,27.7,1.88,33.47.1,54.51-2,23.5-26.38,35.57-5.68,60.15,17.04,20.24,51.54,17.01,59.3-9.77-.57-.77-.58-.76-.04.04,40.11,26.41,71.35-44.26,23.23-58.35,17.63-12.48,25.39-39.15,5.37-54.59,19.04-13.15,17.85-39.18-1.02-51.25-3.04-1.95,9.53-27.06-15.65-29.23-18.14-1.56-37.08,26.03-42.6,39.72Z"/>
          <path class="cls-74" d="m820.34,699.1s-5.4,100.06,34.9,152.61c0,0-110.62,48.38-214.59,1.43,9.68-30.48,7.49-30.44,40-100.65,0,0,16.29-35.56,11.82-53.39h127.86Z"/>
        </g>
        <g>
          <g>
            <g>
              <g>
                <path class="cls-59" d="m746.66,1015.73l2.51,16.89-9.83,22.41s4.16,3.72,8.76-3.63l8.76-18.47-1.23-19.03-8.97,1.83Z"/>
                <path class="cls-59" d="m751.17,1021.44l3.44,16.73-8.56,22.92s4.36,3.48,8.54-4.11l7.72-18.94-2.3-18.93-8.84,2.33Z"/>
                <path class="cls-53" d="m770.05,1025.19l-3.06-19.64-3.36-24.38-15.25-2.11-5.24,25.7-1.28,13.5-1.53,18.43-.81,5.95s4.77,1.54,8.49-7.93l3.89-17.38,6.6,13.66-5.6,23.99s1.44,12.52,5.19,7.79l12.61-33.66-.66-3.92Z"/>
              </g>
              <path class="cls-53" d="m711.38,815.17s33.75,133,36.99,163.89c0,0,13.1,15.56,15.25,2.11,4.29-26.85-1.8-167.45-8.67-178.58-6.86-11.13-43.57,12.58-43.57,12.58Z"/>
            </g>
            <g>
              <path class="cls-53" d="m738.77,654.93l11.08,3.61s17.54,136.43,2.69,166.9c-14.84,30.47-31.93-.15-37.49-3.6-5.56-3.45-41.06-157.96-41.06-157.96l64.78-8.94Z"/>
              <path class="cls-16" d="m762.61,809.61l-7.08-170.91c-8.02-41.96-50.97-29.46-50.97-29.46-34.83,9.07-33.16,48.1-33.16,48.1l29.95,163.7s6.28,25.03,38.5,25.03c0,0,23.78-3.21,22.76-36.47Z"/>
            </g>
            <rect class="cls-14" x="742.3" y="982.85" width="27.08" height="15.56" transform="translate(-33.91 26.82) rotate(-1.99)"/>
            <path class="cls-16" d="m704.31,826.79s14.94,100.47,36.38,162c0,0,18.38,1.72,28.86-1,0,0,1.6-144.06-10.26-190.67,0,0-59.24,1.24-54.97,29.66Z"/>
          </g>
          <path class="cls-63" d="m726.09,1462.33s6.04,23.53,13.47,29.91c7.43,6.39,35.77,15.77,35.77,15.77l15.7,2.26s10.91,7.83-19.04,16.06c-29.95,8.24-82.52-16.61-82.52-16.61l11.85-48.1,24.78.71Z"/>
          <path class="cls-63" d="m566.04,1527.03c-5.29-8.24-16.37-53.13-16.37-53.13l-24.47-.74-15.32,49.43s-2.45,8.28,2.55,11.38c0,0,30.52,10.59,56.58-.51,0,0-.27-2.21-2.97-6.42Z"/>
          <path class="cls-49" d="m717.77,845.32l31.25-190.99s10.76-28.71-10.76-43.06l-82.08-38.58h-57.89l-98.68,58.32,64.67,214.32h153.48Z"/>
          <path class="cls-39" d="m564.29,845.32s-17.73,40.47-22,133.51c0,0,133.4,41.84,175.25,0l.24-133.51h-153.48Z"/>
          <g>
            <path class="cls-39" d="m651.74,978.42c.23,31.22-24.08,56.71-54.3,56.93-30.23.22-54.92-24.91-55.15-56.13-.23-31.22,24.08-56.7,54.31-56.93,30.22-.22,54.91,24.91,55.14,56.12Z"/>
            <path class="cls-39" d="m542.34,986.11l-14.51,237.74s25.69,61.83,71.16,23.82l49.38-244.56s-23.97-82.2-106.03-17Z"/>
          </g>
          <path class="cls-39" d="m527.83,1223.85s-13.68,44.64-9.62,122.37l-4.07,145.32,50.36,1,34.24-244.13s-34.29-79.12-70.92-24.57Z"/>
          <g>
            <path class="cls-39" d="m717.28,978.98c3.17,31.06-7.93,57.63-38,60.7-30.06,3.07-57.01-19.62-60.18-50.69-3.17-31.06,18.63-58.72,48.7-61.79,30.07-3.07,46.31,20.72,49.47,51.78Z"/>
            <path class="cls-39" d="m631.93,1019.87l27.63,219.04s59.89,26.55,70.53-10.61c0,0-1.39-166.86-12.81-249.33,0,0-73.96-36.02-85.35,40.89Z"/>
          </g>
          <path class="cls-39" d="m659.56,1229.95s-8.41,32.13.67,90.78l20.78,166.02,53.05-2.81-3.97-264.45s-33.04-34.65-70.53,10.46Z"/>
          <g>
            <path class="cls-49" d="m512.33,828.3c-11.28,113.12-6.66,120.6-5.48,165.97,0,0-6.02,15.96-16.27,7-10.26-8.96-26.62-159.6-21.46-171.61,7.66-17.83,43.21-1.36,43.21-1.36Z"/>
            <path class="cls-49" d="m505.19,989.76l15.91,15.91,13.51,19.81c-6.69,4.5-13.7-6.58-13.7-6.58,4.38,17.46,12.86,32.87,12.86,32.87,2.05,6.26-3.86,5.79-3.86,5.79-6.6-6.77-15.05-26.76-15.05-26.76,3.17,11.91,11.25,30.88,11.25,30.88.76,5.44-4.69,3.9-4.69,3.9-11.23-6.64-14.95-30.89-14.95-30.89,1.11,9.19,8.36,28.08,8.36,28.08-1.3,3.74-3.12,2.47-3.12,2.47-9.7-3.9-13.22-27.24-13.22-27.24l1.55,8.7c3.17,11.73-4.1,8.7-4.1,8.7l-2.62-5.88c-7.67-18.05-5.36-34.3-5.36-34.3l.05-21.11,17.18-4.34Z"/>
            <path class="cls-49" d="m537.37,634.51c-38.09-8.68-51.11,26.53-51.11,26.53,0,0-19.12,117.21-18.9,167.43.16,33.89,41.52,6.6,44.23.64,5.99-13.15,49.45-154.32,49.45-154.32,0,0,2.26-33.17-23.67-40.28Z"/>
            <path class="cls-66" d="m518.04,831.08l49.41-160.18c-1.11-39.81-40.07-45.76-40.07-45.76-36.64-3.51-44.67,28.02-44.67,28.02l-17.73,160.36s-6,36.04,14.82,36.56c0,0,34.95,3.79,38.25-19Z"/>
            <rect class="cls-14" x="483.99" y="981.98" width="27.07" height="15.56" transform="translate(-184.12 116.54) rotate(-11.29)"/>
            <path class="cls-66" d="m521.04,821.36s-6.4,134.56-8.7,162.08l-30.04,6.32s-27.15-134.85-17.31-176.24c0,0,39.25-21.42,56.06,7.84Z"/>
          </g>
          <path class="cls-69" d="m597.99,530.5v61.87h65.43s-16.09-24.53-8.04-61.87h-57.39Z"/>
          <path class="cls-75" d="m631.19,583.04c5.9,3.79,18.42,11.87,25.58,7.14,1.92-1.27,2.81-2.94,3.1-4.8-4.21-9.8-9.99-29.34-4.49-54.89h-57.39v5.61c7.17,18.11,16.35,36.07,33.2,46.93Z"/>
          <g>
            <path class="cls-27" d="m596.43,531.36s-11.14-4.84-23.74-32.4c0,0-27.37-32.59-7.97-69.59,0,0,11.47-31.29,67.01-22.53,0,0,5,83.86-35.3,124.52Z"/>
            <path class="cls-69" d="m664.85,548.1l3.7-9.7s10.23-36.1,10.23-36.1c1.28-4.54,1.36-10.61.53-15.28-.9-5.08-1.47-10.38-.15-15.73,6.46-25.96-6.85-40.7-6.85-40.7-14.66-24.48-50.75-25.3-50.75-25.3-44.68,1.16-49.44,44.26-49.44,44.26-7.91,28.56,14.38,53.01,14.43,53.06,1.78,1.95.63,11.38,1.11,14.08,2.09,11.52,12.9,18.82,22.5,23.9,10.56,5.58,23.34,11.55,35.26,12.92,4.52.53,17.3.15,19.43-5.41Z"/>
          </g>
          <path class="cls-31" d="m553.67,840.13c.14,6.36-9.53,72.94-5.47,73.79.03,0,110.45,25.45,169.34,0l.24-68.6,31.25-190.99s10.76-28.71-10.76-43.06l-82.08-38.58,5.54,16.64-11.86,33.75-51.56-50.39-98.68,58.32c5.51,18.27,10.99,36.56,16.5,54.83,10.18,33.69,20.08,67.47,30.55,101.06,0,0,8.67,36.44,7,53.24Z"/>
          <polygon class="cls-20" points="642.73 584.69 642.04 615.44 630.71 604.37 642.73 584.69"/>
          <path class="cls-73" d="m657.15,634.28c0,2.42-1.97,4.39-4.39,4.39s-4.39-1.97-4.39-4.39,1.97-4.39,4.39-4.39,4.39,1.97,4.39,4.39Z"/>
          <path class="cls-73" d="m657.15,713.96c0,2.42-1.97,4.38-4.39,4.38s-4.39-1.96-4.39-4.38,1.97-4.39,4.39-4.39,4.39,1.96,4.39,4.39Z"/>
          <path class="cls-73" d="m657.15,793.62c0,2.43-1.97,4.39-4.39,4.39s-4.39-1.96-4.39-4.39,1.97-4.38,4.39-4.38,4.39,1.96,4.39,4.38Z"/>
          <path class="cls-23" d="m657.15,873.3c0,2.42-1.97,4.39-4.39,4.39s-4.39-1.97-4.39-4.39,1.97-4.39,4.39-4.39,4.39,1.97,4.39,4.39Z"/>
          <line class="cls-8" x1="642.73" y1="618.95" x2="642.73" y2="921.32"/>
          <g>
            <path class="cls-15" d="m716.85,920.22s-56.4,26.42-171.83-.58c-1.9-.45-1.1-5.37-1.1-5.37l1.1-11.11c.5-3.56,2.49-3.39,2.49-3.39.03,0,110.44,25.45,169.33,0,0,0,2.38-.42,2.48,3.15v13.85s0,2.77-2.48,3.46Z"/>
            <g>
              <path class="cls-9" d="m659.56,928.6c0,1.76-1.39,3.19-3.12,3.19h-22.46c-1.72,0-3.11-1.43-3.11-3.19v-16.18c0-1.76,1.4-3.19,3.11-3.19h22.46c1.73,0,3.12,1.43,3.12,3.19v16.18Z"/>
              <line class="cls-9" x1="630.87" y1="919.49" x2="642.76" y2="919.49"/>
            </g>
          </g>
          <path class="cls-32" d="m642.73,584s-36.21-14.07-44.73-28.07l-10.7,20.39,38.17,36.61,17.26-28.24"/>
          <path class="cls-61" d="m641.29,428.43c7.1-2.01,15.28-3.37,22.61-2.03,7.33,1.34,11.46,11.16,19.02,6.17,3.06-2.02,8.9-6.44,10.82-9.48,2.95-4.68-3.42-13.47-7.79-15.05-4.88-1.77-4.4-3.38-6.81-8.17-2.04-4.07-2.54-7.83-7.58-9.22-4.82-1.33-9.44,1.88-14.13,1.19-8.1-1.2-9.62-9.93-18.13-11.42-9.39-1.65-14.37,14.11-23.66,13.48-8.05-.54-13.26-7.56-21.98-5.89-9,1.73-11.3,11.37-19.44,14.18-8.31,2.86-17.48,1.34-19.96,12.11-2.02,8.76,1.82,14.73-4.4,22.2-6.9,8.3-4.4,16.95-.72,25.7,6.62,15.74,13.22,31.3,23.47,45.07,2.86,3.84,6.02,7.54,9.48,10.86.58.56,3.52,2.43,3.67,3.2,0-.02-5.95-33.49,11.75-28.9l3.05-.17s-6.09-19.63,6.52-29.32c-5.98-7.69-1.12-23.05.09-25.25,6.12-11.05,23.78-6.34,34.1-9.27Z"/>
          <path class="cls-69" d="m593.25,506.81c-1.58,1.34-3.65,2.16-6.29,2.25-7.12.22-13.34-6.16-13.88-14.26-.54-8.08,4.77-14.82,11.89-15.05,3.37-.1,6.55,1.27,9,3.62,3.59,3.42,4,10,3.4,14.59-.48,3.66-1.76,6.85-4.13,8.86Z"/>
          <path class="cls-66" d="m581.89,582.37l43.89,154.18-6.51,280.13s-68.21-4.18-98-31.14l21.02-163.63-42.67-190.91,82.28-48.63Z"/>
          <path class="cls-24" d="m581.89,582.37l43.89,154.18-.19,7.32-55.27-56.58s-5.81-9.82,2.05-15.63l13.06-12.49-9.31-6.68s-13.06-6.33-11.47-18.21l3.73-44.65,13.51-7.26Z"/>
          <path class="cls-66" d="m679.1,583.46l49.99,23.49s28.44,7.51,22.63,36.98l-16.44,163.27,8.23,173s7.05,32.15-50.9,26.7l-20.5-274.51,7-148.94Z"/>
          <path class="cls-32" d="m673.3,585.56s-3.34-12.88-19.66-23.76l2.14,44.39s9.06-22.71,17.52-20.63Z"/>
          <path class="cls-20" d="m674.78,606.2l-1.48-20.63c-4.99-1.22-9.44,5.76-13.07,11.48l14.55,9.16Z"/>
          <g>
            <polygon class="cls-14" points="639.17 595.81 637.82 593.31 628.73 607.28 636.55 610.07 639.17 595.81"/>
            <path class="cls-14" d="m660.23,597.04l2.55-3.91s9.73,8.17-.49,16.94c0,0,0-7.23-2.07-13.03Z"/>
            <path class="cls-14" d="m639.17,595.81s7.71,6.86,21.06,1.23c2.92,3.72,2.91,8.44,2.07,13.03l-6.92,14.26h-9.66l-9.18-14.26s-.95-3.15,2.62-14.26Z"/>
            <polygon class="cls-14" points="645.72 624.34 637.92 828.42 654.21 860.12 667.5 828.58 655.38 624.34 645.72 624.34"/>
          </g>
          <path class="cls-24" d="m679.1,583.46l12.89,6.06,9.31,42.99s4.67,11.13-2.09,14.04l-12.14,7.09,17.12,10.83s9.01,5.65,3.46,13.96l-34.34,67.04-1.08-11.46,6.87-150.54Z"/>
        </g>
        <g>
          <path class="cls-69" d="m409.71,991.2s17.96,148.73,75.38,233.02c0,0,26.77,45,59.39,10.77,0,0,5.23-242.2-35.61-317.12,0,0-116.71-5.76-99.16,73.33Z"/>
          <path class="cls-35" d="m498.3,562.27c2.36,29.38,7.94,58.22,24.03,83.66,4.46,7.06,9.01,14.56,15.21,20.26-24.01,5.1-87.2,4.92-96.84-30.97-6.3-23.47-7.67-48.03-6.83-72.22.76-21.87,1.25-46.31,10.53-66.52,8.45-18.39,38.26-18.14,49.33-1.3,5.38,8.17,2.36,18.22,2.67,27.49.42,13.14.84,26.42,1.9,39.61Z"/>
          <path class="cls-53" d="m503.73,647.55c19.67-.55,30.45,16.94,36.59,34.61,6.46,18.58-10.16,70.39-25.14,57.63-29.44-25.07-44.12-40.15-44.68-59.81-.55-19.67,13.56-31.88,33.23-32.43Z"/>
          <g>
            <g>
              <path class="cls-53" d="m528.54,1569.55c18.37,3.13,35.99-2.79,35.99-2.79l-19.06-11.22s-20.69-25.17-24.55-34.06c-2.48-5.69-3.17-24.19-3.17-24.19l-23.56,1.4-.05,13.2-8.58,20.05s-.79,9.46,16.34,11.36c0,0,12.05,13.49,26.67,26.24Z"/>
              <path class="cls-30" d="m545.47,1555.55c-6.34,2.96-17.52,3.74-23.3-2.09-23.35-23.5-28.04-41.55-28.04-41.55-11.82,12.99-8.7,23.83-8.7,23.83l.87,4.48,6.74,34.53,2.42-.14,6.71-28.53,16.38,26.46c39.16,5.14,48.51-5.48,48.51-5.48l-21.59-11.5Z"/>
            </g>
            <path class="cls-69" d="m544.48,1234.99s-24.16,250.62-26.74,262.32c0,0-23.8,8.08-23.56,1.4.53-16.14-22.94-119.41-24.47-144.73-2.46-40.64,4.16-67.7,25.3-122.33,0,0,38.9-26.97,49.48,3.34Z"/>
          </g>
          <path class="cls-60" d="m464.44,827.05c4.51-.82,23.12,8.79,23.12,8.79,0,0,23.24,74.69,24.24,86.04,1,11.35-77.1,70.14-164.35,36.67,0,0,40.39-105.18,42.87-131.08,2.46-25.9,74.12-.42,74.12-.42Z"/>
          <path class="cls-71" d="m487.56,835.84s22.27,67.36,24.24,86.04c6.95,66.17-82.58,93.92-169.83,60.44,0,0-5.67-90.97,48.35-154.85,0,0,14.34,13.08,97.24,8.37Z"/>
          <path class="cls-69" d="m405.06,1031.41l-63.09-34.64s10.23,199.63,18.22,255.71c0,0,35.31,9.83,46.24,2.56,32.73-76.77,51.68-243.45,51.68-243.45l-53.05,19.82Z"/>
          <path class="cls-49" d="m366.84,938.35s-30.28,8.74-24.01,64.84c6.12,54.8,106.9,60,116.31,3.82,10.12-60.45-38.92-92.49-92.29-68.66Z"/>
          <path class="cls-51" d="m409.39,643.62h60.73c-2.76-8.85-8.48-31.73.37-47.31l-61.35-40.29s10.91,67.6.25,87.59Z"/>
          <path class="cls-26" d="m465.76,617.06c-.18-6.77.94-14.09,4.73-20.76l-61.35-40.29s4.44,27.55,4.9,52.68c22.15,7.04,31.27,9.77,51.73,8.36Z"/>
          <path class="cls-51" d="m368.69,649.34c-28.42,13.59-13.17,45-13.17,45l36.94,134.45s34.51,14.11,95.09,7.05c8.41-12.04,25.7-62.48,31.49-100.99,4.77-31.72,19.59-62.97,3.45-80.66-6.2-6.78-53.32-13.55-53.57-14.66l-55.65-.23-44.6,10.04Z"/>
          <g>
            <path class="cls-51" d="m479.93,601.82l3.68-8.96,9.22-26.43c1.3-4.21,2.11-10.01.86-14.24-1.5-5.09-2.45-13.31-.12-22.34,6.24-24.17-3.95-37.47-3.95-37.47-13.11-23.18-46.75-24.78-46.75-24.78-41.71.05-47.14,40.15-47.14,40.15-8.05,26.45,12.19,49.78,12.23,49.82,2.56,2.95,2.62,7.53,3.74,11.08,1.21,3.79,3.13,7.37,5.58,10.49,5.51,7,12.81,13.81,20.45,18.2,7.25,4.17,21.45,8.78,31.68,9.19,4.25.17,8.41.43,10.52-4.71Z"/>
            <path class="cls-35" d="m411.82,573.34c.75-19,1.17-17.81,1.17-17.81.73-5.53,11.01,6.99,11.15-.25.65-33.14,13.48-48.28,18.31-50.59,13.11-6.25,26.69-7.56,37.26-5.12,16.59,3.82,14.82,26.07,14.82,26.07,18.4-80.83-73.87-59.39-73.87-59.39-44.89,9.38-42.44,51.36-42.44,51.36-7.71,44.54,35.11,72.6,35.11,72.6l-1.5-16.85Z"/>
            <g>
              <path class="cls-27" d="m415.05,567.02c-1.54,1.07-3.48,1.63-5.86,1.46-6.44-.42-11.48-6.72-11.26-14.06.23-7.32,5.61-12.94,12.04-12.52,3.05.2,5.78,1.73,7.79,4.05,2.93,3.39,2.72,9.37,1.79,13.44-.74,3.25-2.18,6.02-4.5,7.62Z"/>
              <g>
                <path class="cls-67" d="m412.23,548.86c-.18-3.87-8.16-.59-7.09,1.64.62,1.28,1.94,2.27,2.96,3.19,1.41,1.27,2.07,2.4,2.18,4.33.01.22.03.89-.21,1.03-1.04.65-4.15-3.28-4.84-4.11-1.34-1.63-1.4-4.3-.62-6.2.83-2.01,2.23-2.91,4.41-2.66,1.75.19,3.52.4,3.32,2.57-.01.04-.11.4-.11.2h0Z"/>
                <path class="cls-67" d="m409.53,552.73c.86-.77,1.6-.05,2.39.58.74.6,1.13,1.42,1.28,2.34.34,2.03-.06,4.69-1.3,6.38-.99,1.36-2.6,2.14-4.29,2.01-2.34-.18-2.93-2.29-2.92-4.28,0-.52.02-1.79.55-2.09.59-.33.94.57,1.3.96.5.52,1.26.76,1.95.85,1.32.18,2.67-.43,3.56-1.38.16-.17.3-.37.38-.59-.07,1.3-.15,1.58-.24.86-.09-.33-.23-.64-.4-.94-.5-.92-1.38-1.58-1.94-2.47-.27-.41-.75-1.83-.32-2.22h0Z"/>
              </g>
            </g>
            <path class="cls-14" d="m415.3,568.38c-.11,2.17-1.97,3.85-4.15,3.74-2.18-.11-3.85-1.97-3.74-4.14.11-2.18,1.97-3.85,4.14-3.74,2.18.11,3.85,1.97,3.75,4.15Z"/>
          </g>
          <path class="cls-14" d="m519.05,650.54s14.91,0,23.35,37.74c0,0,41.35,125.53,14.83,132.79,0,0-39.59-7.81-76.86-107.77,0,0-3.41-60.37,38.67-62.76Z"/>
          <path class="cls-14" d="m485.6,642.83l26.2,4.71s19.1,4.18,19.73,20.53c0,0,1.07,30.97-15.79,86.98,0,0-27.88-85.94-30.15-112.21Z"/>
          <path class="cls-14" d="m478.91,641.8l11.82,1.82s22.91,44.3,28.32,91.23c-5.79,38.51-17.4,96.83-31.49,100.99-47.75,14.12-97.6-8.08-97.6-8.08l-22.83-91.17c61.33-23.87,30.34-93.97,30.34-93.97l12.88-3.09,54.2,54.8,14.36-52.53"/>
          <path class="cls-44" d="m503.14,672.04s23.96,33.19,28.13,50.29c2.75,11.24-16.84,36.55-32.66,41.01-8.64,2.44-8.85-89.07,4.52-91.3Z"/>
          <path class="cls-71" d="m503.14,672.04s23.96,33.19,28.13,50.29c2.75,11.24-16.84,36.55-32.66,41.01-8.64,2.44-8.85-89.07,4.52-91.3Z"/>
          <g>
            <path class="cls-71" d="m492.54,643.62s21.83,44.58,27.24,91.5c-5.79,38.51-18.13,96.55-32.22,100.72-47.75,14.12-97.6-8.08-97.6-8.08l-22.83-91.17c61.33-23.87,30.34-93.97,30.34-93.97l12.88-3.09,57.35,81.98,11.21-79.71,13.63,1.82Z"/>
            <path class="cls-36" d="m410.35,639.53l57.35,81.98h0l-41.25-11.16s-5.98-5.08-2.18-10.62l5.68-11.07-7.56-2.25s-9.92-1.18-11.56-9.26l-6.19-36.25,5.71-1.37Z"/>
            <path class="cls-36" d="m478.71,641.92l-11.01,79.58h0l22.4-20.82s9.22-7.49.59-11.24l-10.67-3.31,12.52-11.25s2.61-3.44,0-9.93l-7.52-22.35-6.3-.69Z"/>
          </g>
          <g>
            <polygon class="cls-64" points="456.4 654.79 455.71 685.54 444.39 674.47 456.4 654.79"/>
            <path class="cls-14" d="m456.4,654.1s-34.35-14.07-42.88-28.07l-16.05,16.58,41.67,40.42,17.26-28.24"/>
          </g>
          <path class="cls-14" d="m486.97,655.66s-3.33-12.88-19.65-23.76l2.13,44.39s9.06-22.71,17.52-20.63Z"/>
          <path class="cls-64" d="m488.46,676.3l-1.49-20.63c-4.98-1.22-9.44,5.75-13.07,11.47l14.55,9.16Z"/>
          <g>
            <path class="cls-49" d="m393.67,1574.11c18.15,4.21,36.09-.65,36.09-.65l-18.36-12.33s-19.17-26.35-22.49-35.45c-2.14-5.83-1.73-24.34-1.73-24.34h-23.61l-.84,13.18-9.75,19.51s-1.36,9.4,15.63,12.31c0,0,11.24,14.17,25.07,27.77Z"/>
            <path class="cls-30" d="m411.39,1561.13c-6.5,2.58-17.71,2.7-23.14-3.47-21.91-24.85-25.53-43.15-25.53-43.15-12.57,12.26-10.1,23.27-10.1,23.27l.61,4.52,4.68,34.87h2.42l8.38-28.09,14.79,27.38c38.79,7.46,48.75-2.59,48.75-2.59l-20.87-12.76Z"/>
          </g>
          <path class="cls-69" d="m357.75,1231.64l51.56,15.27s-19.85,242.68-22.14,254.44c0,0-23.67,6.69-23.61,0,.12-16.15-20.67-115.37-22.5-140.66-3.13-43.47-14.94-72.63,16.68-129.04Z"/>
          <path class="cls-71" d="m342.49,956.64l-10.19,239.97s130.72,30.25,221.48-11.24c0,0-8.3-205.28-45.21-273.36,0,0-158.68-14.68-166.09,44.63Z"/>
          <path class="cls-14" d="m356.24,658.62s-6.37,6.65-11.51,25.7c0,0-25.14,91.91-6.63,138.61,0,0,6.04,9.48,21.61,13.71l49.43-118.93s21.08-49.79-12.41-75.54l-28.04,7.16s-8.14,3.09-12.45,9.29Z"/>
          <path class="cls-51" d="m399.75,757.97l-17.65-13.95s-26.57-3.9-39.84-2.22c0,0-4.39,6.1,29.13,7.03,0,0-23.51,7.51-31.05,13.09,0,0-1.21,6.96,20.29-3.15l9.78-.72-22.74,11.35s.88,4.33,21.59-1.3l20.77,2.28,9.74-12.43Z"/>
          <path class="cls-14" d="m512.77,760.56l-113.74-13.6c-5.69,6.95-11.16,19.55-8.72,32.76l145.29,46.08s38.39,6.81,28.26-39.42c0,0-16.21-23.57-51.08-25.82Z"/>
          <path class="cls-51" d="m512.77,760.56s-20.43,11.02-28.1,11.89l-11.89-20.52,16.25-10.53,11.14-2.57s18.32-4.73,23.14,20.41l-10.54,1.32Z"/>
          <path class="cls-13" d="m361.87,837.26s-31.17,2.85-23.35-31.06c6.74-19.08,31.54-26.87,31.54-26.87l102.72-31s9.77,3.73,14.12,27.62c0,0-89.83,62.22-125.03,61.31Z"/>
          <path class="cls-35" d="m425.38,561.36c-3.78,29.23-4.31,58.6,6.15,86.83,2.9,7.83,5.79,16.11,10.68,22.98-24.54,0-86.32-13.29-88.3-50.4-1.29-24.26,2.46-48.58,8.31-72.07,5.28-21.24,10.83-45.04,24.11-62.89,12.08-16.23,41.18-9.81,48.53,8.97,3.57,9.11-1.47,18.31-3.1,27.44-2.32,12.94-4.67,26.02-6.37,39.13Z"/>
        </g>
        <g>
          <path class="cls-61" d="m1192.06,435.26s-34.88.03-28.81-39.64c0,0,21.01,19.84,43.5,11.63,0,0,1.7,26.63-14.68,28.02Z"/>
          <g>
            <g>
              <path class="cls-53" d="m1128.86,622.33l-11.09,2.41s-30.32,130.48-18.91,161.45c11.41,30.98,29.75.31,35.47-2.49,5.72-2.8,56.42-146.39,56.42-146.39l-61.89-14.99Z"/>
              <path class="cls-47" d="m1090.65,769.86l19.93-151.54c11.87-39.87,55.68-25.15,55.68-25.15,32.86,12.19,27.63,38.05,27.63,38.05l-45,155.7s-8.53,23.64-39.75,20.5c0,0-22.73-5.43-18.5-37.56Z"/>
            </g>
            <path class="cls-63" d="m1144.35,1435.59s-5.89,22.91-13.12,29.13c-7.23,6.21-34.83,15.36-34.83,15.36l-15.29,2.2s-10.63,7.62,18.55,15.63c29.17,8.02,80.37-16.17,80.37-16.17l-11.54-46.84-24.12.7Z"/>
            <path class="cls-63" d="m1298.18,1485.46c5.15-8.02,15.94-51.74,15.94-51.74l23.83-.72,14.92,48.14s2.39,8.06-2.48,11.07c0,0-29.72,10.32-55.1-.49,0,0,.27-2.15,2.89-6.25Z"/>
            <path class="cls-51" d="m1150.42,821.58l-30.44-186s-10.48-27.96,10.49-41.93l79.93-37.57h56.37l96.1,56.79-62.99,208.71h-149.46Z"/>
            <path class="cls-33" d="m1299.88,821.58s17.26,39.41,21.43,130.02c0,0-129.91,40.75-170.66,0l-.23-130.02h149.46Z"/>
            <g>
              <path class="cls-29" d="m1214.72,951.2c-.22,30.41,23.46,55.23,52.89,55.45,29.44.21,53.48-24.26,53.7-54.66.22-30.4-23.46-55.22-52.89-55.44-29.44-.22-53.48,24.26-53.7,54.65Z"/>
              <path class="cls-29" d="m1321.26,958.69l14.13,258.92s-25.02,32.82-69.3-4.2l-48.09-238.17s23.34-80.04,103.26-16.55Z"/>
            </g>
            <path class="cls-29" d="m1324.37,1187.38s24.34,46.3,20.38,122l3.96,141.53-40.17,1.2-42.22-237.97s22.36-79.89,58.04-26.76Z"/>
            <g>
              <path class="cls-29" d="m1150.89,951.74c-3.08,30.25,7.72,56.13,37.01,59.11,29.28,2.99,55.52-19.11,58.61-49.36,3.08-30.25-18.15-57.19-47.44-60.17-29.28-2.99-45.09,20.17-48.18,50.42Z"/>
              <path class="cls-29" d="m1234.01,991.56l-30.05,236.66s-53.17,7.07-63.52-29.12c0,0-.67-167.06,10.45-247.37,0,0,72.03-35.08,83.12,39.82Z"/>
            </g>
            <path class="cls-29" d="m1200.62,1207.25s9.61,35.45.77,92.57l-21.82,159.85-43-3.04,3.87-257.54s23.66-35.79,60.17,8.15Z"/>
            <g>
              <path class="cls-49" d="m1354.47,635.73l10.95,2.93s17.1,131.16,4.27,161.57c-12.82,30.41-24.88.25-30.47-2.82-5.59-3.07-47.27-149.55-47.27-149.55l62.52-12.13Z"/>
              <path class="cls-31" d="m1325.05,796.23l-35.91-154.47c7.41-41.77,47.17-38.83,47.17-38.83,34.91,3.17,36.62,29.5,36.62,29.5l2.31,157.1s2.3,26.85-17.94,25.43c0,0-28.96-4.53-32.26-18.72Z"/>
            </g>
            <path class="cls-51" d="m1267.06,514.99v60.25h-63.72s15.67-23.89,7.83-60.25h55.89Z"/>
            <path class="cls-26" d="m1234.74,566.15c-5.75,3.69-17.95,11.56-24.92,6.96-1.87-1.24-2.74-2.87-3.02-4.67,4.1-9.54,9.73-28.58,4.37-53.45h55.89v5.46c-6.98,17.64-15.92,35.12-32.32,45.7Z"/>
            <g>
              <path class="cls-27" d="m1268.58,515.83s10.85-4.71,23.12-31.55c0,0,26.66-31.74,7.76-67.77,0,0-11.16-30.47-65.26-21.94,0,0-4.87,81.66,34.38,121.26Z"/>
              <path class="cls-51" d="m1201.96,532.12l-3.61-9.44s-9.96-35.15-9.96-35.16c-1.25-4.42-1.32-10.34-.52-14.88.88-4.94,1.43-10.1.15-15.32-6.28-25.28,6.67-39.63,6.67-39.63,14.28-23.84,49.41-24.64,49.41-24.64,43.51,1.13,48.15,43.1,48.15,43.1,7.7,27.81-14.01,51.62-14.06,51.67-1.73,1.9-.6,11.08-1.08,13.71-2.04,11.21-12.56,18.33-21.91,23.27-10.28,5.43-22.73,11.25-34.34,12.58-4.4.51-16.85.15-18.91-5.27Z"/>
            </g>
            <path class="cls-14" d="m1310.23,816.53c-.13,6.19,9.28,71.02,5.33,71.85-.03,0-107.55,24.79-164.9,0l-.23-66.8-30.44-186s-10.48-27.96,10.49-41.93l79.93-37.57-5.4,16.2,11.56,32.87,50.21-49.07,96.1,56.79c-5.37,17.8-10.71,35.6-16.08,53.39-9.91,32.8-19.55,65.71-29.75,98.42,0,0-8.45,35.48-6.81,51.84Z"/>
            <polygon class="cls-64" points="1223.5 567.77 1224.17 597.71 1235.2 586.93 1223.5 567.77"/>
            <path class="cls-73" d="m1209.46,616.05c0,2.36,1.91,4.27,4.27,4.27s4.27-1.91,4.27-4.27-1.91-4.27-4.27-4.27-4.27,1.92-4.27,4.27Z"/>
            <path class="cls-73" d="m1209.46,693.65c0,2.35,1.91,4.27,4.27,4.27s4.27-1.91,4.27-4.27-1.91-4.27-4.27-4.27-4.27,1.91-4.27,4.27Z"/>
            <path class="cls-73" d="m1209.46,771.23c0,2.37,1.91,4.28,4.27,4.28s4.27-1.92,4.27-4.28-1.91-4.27-4.27-4.27-4.27,1.91-4.27,4.27Z"/>
            <path class="cls-73" d="m1209.46,848.83c0,2.35,1.91,4.27,4.27,4.27s4.27-1.92,4.27-4.27-1.91-4.27-4.27-4.27-4.27,1.91-4.27,4.27Z"/>
            <line class="cls-2" x1="1223.5" y1="601.13" x2="1223.5" y2="895.6"/>
            <g>
              <path class="cls-15" d="m1151.31,894.52s54.93,25.73,167.33-.57c1.85-.44,1.07-5.23,1.07-5.23l-1.07-10.82c-.48-3.47-2.42-3.3-2.42-3.3-.02,0-107.55,24.79-164.91,0,0,0-2.31-.4-2.41,3.07v13.49s0,2.69,2.41,3.37Z"/>
              <g>
                <path class="cls-4" d="m1207.1,902.68c0,1.71,1.36,3.11,3.04,3.11h21.87c1.67,0,3.03-1.39,3.03-3.11v-15.75c0-1.71-1.36-3.1-3.03-3.1h-21.87c-1.68,0-3.04,1.39-3.04,3.1v15.75Z"/>
                <line class="cls-4" x1="1235.05" y1="893.81" x2="1223.47" y2="893.81"/>
              </g>
            </g>
            <path class="cls-72" d="m1223.5,567.09s35.27-13.7,43.56-27.33l10.42,19.86-37.17,35.65-16.81-27.5"/>
            <path class="cls-61" d="m1193.31,419.51c1.58-11.48,39-5.35,48.79-3.56,5.89,1.08,12.8,2.88,16.01,8.67,1.18,2.14,5.91,17.1.09,24.59,5.14,16.1,6.35,28.55,6.35,28.55l2.97.17c5.85,15.09,7,33.22,7,33.22,0,0,21.83-9.41,36.98-49.25,15.34-50.73-22.37-73.09-22.37-73.09-34.59-15.01-69.1-10.9-69.1-10.9,0,0-34.79,3.18-42.65-17.58,0,0-22.04,47.66,15.92,59.18Z"/>
            <path class="cls-51" d="m1271.69,491.92c1.54,1.3,3.56,2.11,6.12,2.19,6.94.22,12.99-6,13.52-13.88.53-7.87-4.65-14.44-11.58-14.66-3.28-.1-6.38,1.24-8.77,3.52-3.48,3.33-3.89,9.74-3.32,14.21.47,3.57,1.71,6.67,4.02,8.62Z"/>
            <path class="cls-31" d="m1282.75,565.51l-42.75,150.15,6.35,272.81s73.35,5.47,102.37-20.8l-27.4-168.88,41.56-185.92-80.13-47.35Z"/>
            <path class="cls-31" d="m1188.08,566.56l-48.67,22.88s-27.71,7.31-22.05,36.02l16.01,159-26.54,183.21s22.77,27.33,68.09,11.27l19.96-267.34-6.81-145.04Z"/>
            <path class="cls-72" d="m1193.73,568.62s3.24-12.55,19.14-23.14l-2.08,43.23s-8.83-22.12-17.06-20.09Z"/>
            <path class="cls-64" d="m1192.28,588.71l1.45-20.09c4.85-1.19,9.19,5.6,12.73,11.18l-14.17,8.92Z"/>
            <g>
              <polygon class="cls-31" points="1226.97 578.59 1228.27 576.16 1237.14 589.77 1229.52 592.48 1226.97 578.59"/>
              <path class="cls-31" d="m1206.45,579.79l-2.49-3.81s-9.47,7.96.47,16.5c0,0,0-7.04,2.01-12.69Z"/>
              <path class="cls-31" d="m1226.97,578.59s-7.52,6.68-20.52,1.2c-2.84,3.62-2.83,8.22-2.01,12.69l6.74,13.89h9.41l8.93-13.89s.92-3.06-2.54-13.89Z"/>
              <polygon class="cls-31" points="1220.59 606.37 1228.18 805.11 1212.32 835.99 1199.37 805.27 1211.17 606.37 1220.59 606.37"/>
            </g>
            <path class="cls-49" d="m1273.14,732.33l19.54-15.44s29.42-4.31,44.12-2.46c0,0,4.85,6.75-32.25,7.79,0,0,26.02,8.31,34.38,14.5,0,0,1.34,7.7-22.46-3.48l-10.83-.8,25.17,12.57s-.98,4.79-23.91-1.43l-22.99,2.52-10.77-13.76Z"/>
            <path class="cls-62" d="m1148,735.19l125.92-15.06c6.3,7.69,12.37,21.65,9.67,36.26l-160.85,51.02s-42.5,7.54-31.29-43.64c0,0,17.95-26.1,56.55-28.58Z"/>
            <path class="cls-51" d="m1148,735.19s22.63,12.2,31.11,13.16l13.16-22.72-17.99-11.67-12.33-2.84s-20.29-5.23-25.63,22.6l11.67,1.46Z"/>
            <path class="cls-31" d="m1373.14,779.26c7.6,46.01-25.86,34.39-25.86,34.39l-170.63-61.41c4.81-26.44,15.63-30.58,15.63-30.58l145.94,27.84s27.46,8.63,34.92,29.75Z"/>
          </g>
        </g>
        <g>
          <path class="cls-35" d="m1440.93,491.51s20.34,18.75,18.16,79.66v184.28s1.2,18.87,16.84,31.36c0,0-133.61,39.26-145.02-20.65v-191.15s-6.2-80.43,24.77-94.88c0,0,54.81-22.59,85.25,11.37Z"/>
          <path class="cls-69" d="m1455.82,649.52c27.67,13.24,12.88,44.52,12.88,44.52l-35.98,130.93s-33.61,13.74-92.6,6.86c-8.19-11.73-25.03-60.84-30.67-98.35-4.64-30.89-19.07-61.33-3.36-78.55,6.02-6.6,51.93-13.19,52.16-14.27l54.19-.22,43.38,9.08Z"/>
          <path class="cls-69" d="m1415.93,983.13s-17.49,144.84-73.41,226.93c0,0-26.08,43.82-57.84,10.49,0,0-5.09-235.87,34.68-308.83,0,0,113.65-5.61,96.57,71.41Z"/>
          <path class="cls-69" d="m1333.85,644.64c-19.15-.53-44.59,18.37-45.12,37.53-.53,19.15,9.9,68.55,24.48,56.13,28.67-24.41,42.98-39.1,43.51-58.25.54-19.15-3.72-34.88-22.87-35.41Z"/>
          <path class="cls-69" d="m1298.77,674.01l34.95-1.54,18.24,30.96s-36.55,109.02-54.36,129.07c-18.98,21.36-20.86-2.63-22.72-12.12,0,0,10.66-128.36,23.88-146.36Z"/>
          <g>
            <g>
              <path class="cls-69" d="m1300.21,1546.36c-17.9,3.05-35.05-2.72-35.05-2.72l18.56-10.92s20.16-24.51,23.92-33.17c2.41-5.54,3.09-23.55,3.09-23.55l22.95,1.36.05,12.86,8.35,19.53s.78,9.21-15.91,11.06c0,0-11.74,13.13-25.96,25.55Z"/>
              <path class="cls-71" d="m1283.72,1532.72c6.18,2.89,17.06,3.65,22.7-2.04,22.74-22.89,27.3-40.47,27.3-40.47,11.52,12.65,8.47,23.21,8.47,23.21l-.85,4.36-6.55,33.63-2.36-.14-6.53-27.79-15.95,25.77c-38.14,5-47.24-5.34-47.24-5.34l21.02-11.2Z"/>
            </g>
            <path class="cls-69" d="m1284.68,1220.55s23.54,244.06,26.05,255.46c0,0,23.17,7.87,22.95,1.36-.51-15.72,22.33-116.29,23.83-140.94,2.39-39.58-4.05-65.93-24.64-119.13,0,0-37.88-26.26-48.19,3.26Z"/>
          </g>
          <path class="cls-60" d="m1362.63,823.27c-4.39-.8-22.51,8.56-22.51,8.56,0,0-22.64,72.73-23.6,83.79-.98,11.05,75.08,68.31,160.05,35.71,0,0-39.34-102.43-41.75-127.65-2.41-25.23-72.19-.41-72.19-.41Z"/>
          <path class="cls-39" d="m1340.12,831.83s-21.7,65.59-23.6,83.79c-6.78,64.44,80.42,91.46,165.39,58.86,0,0,5.51-88.59-47.08-150.8,0,0-13.97,12.74-94.7,8.15Z"/>
          <path class="cls-69" d="m1420.45,1022.29l61.45-33.73s-9.97,194.41-17.76,249.02c0,0-34.38,9.57-45.02,2.5-31.87-74.76-50.33-237.09-50.33-237.09l51.66,19.3Z"/>
          <path class="cls-49" d="m1457.68,931.67s29.49,8.51,23.38,63.15c-5.96,53.36-104.1,58.43-113.26,3.72-9.86-58.87,37.9-90.07,89.87-66.86Z"/>
          <path class="cls-69" d="m1416.24,644.64h-59.14c2.69-8.62,8.26-30.9-.36-46.07l59.75-39.23s-10.62,65.84-.25,85.31Z"/>
          <path class="cls-75" d="m1361.35,618.78c.16-6.59-.92-13.72-4.61-20.21l59.75-39.23s-4.33,26.83-4.77,51.3c-21.58,6.86-30.45,9.52-50.37,8.14Z"/>
          <g>
            <path class="cls-69" d="m1347.55,603.94l-3.59-8.72-8.98-25.74c-1.27-4.1-2.05-9.74-.84-13.87,1.46-4.96,2.38-12.97.11-21.75-6.08-23.53,3.85-36.49,3.85-36.49,12.78-22.58,45.54-24.13,45.54-24.13,40.61.05,45.91,39.1,45.91,39.1,7.83,25.76-11.87,48.48-11.91,48.52-2.5,2.87-2.55,7.33-3.65,10.79-1.17,3.69-3.05,7.18-5.44,10.21-5.36,6.82-12.48,13.45-19.91,17.72-7.05,4.06-20.89,8.55-30.85,8.95-4.13.17-8.19.42-10.24-4.58Z"/>
            <path class="cls-35" d="m1413.88,576.2c-.73-18.51-1.14-17.35-1.14-17.35-.7-5.38-10.71,6.81-10.86-.24-.63-32.28-13.12-47.02-17.82-49.27-12.78-6.09-25.99-7.36-36.3-4.99-16.15,3.72-14.43,25.39-14.43,25.39-17.92-78.72,71.95-57.84,71.95-57.84,43.71,9.14,41.33,50.01,41.33,50.01,7.5,43.38-34.2,70.7-34.2,70.7l1.46-16.41Z"/>
            <path class="cls-69" d="m1410.72,570.05c1.51,1.04,3.39,1.58,5.72,1.42,6.27-.4,11.17-6.55,10.96-13.69-.21-7.13-5.46-12.59-11.72-12.19-2.97.2-5.63,1.68-7.59,3.94-2.86,3.31-2.65,9.13-1.74,13.09.73,3.17,2.13,5.86,4.38,7.43Z"/>
            <path class="cls-14" d="m1410.49,571.37c.1,2.12,1.91,3.75,4.04,3.64,2.12-.1,3.75-1.91,3.63-4.03-.1-2.12-1.91-3.75-4.03-3.65-2.12.11-3.75,1.92-3.64,4.04Z"/>
          </g>
          <path class="cls-74" d="m1348.53,642.87l-11.5,1.77s-22.32,43.14-27.59,88.84c5.64,37.51,16.95,94.29,30.67,98.35,46.5,13.75,95.04-7.87,95.04-7.87l22.24-88.79c-59.73-23.25-29.54-91.51-29.54-91.51l-12.54-3.01s-44.37,32.53-66.77,2.21Z"/>
          <path class="cls-74" d="m1324.94,672.32s-23.33,32.32-27.41,48.98c-2.68,10.94,16.41,35.59,31.81,39.94,8.42,2.37,8.61-86.74-4.41-88.91Z"/>
          <g>
            <path class="cls-69" d="m1431.55,1550.8c-17.68,4.1-35.15-.63-35.15-.63l17.89-12s18.67-25.66,21.91-34.52c2.08-5.68,1.68-23.7,1.68-23.7h22.99l.82,12.83,9.5,18.99s1.32,9.15-15.22,11.99c0,0-10.94,13.8-24.41,27.04Z"/>
            <path class="cls-71" d="m1414.29,1538.16c6.33,2.52,17.24,2.63,22.54-3.38,21.33-24.2,24.86-42.02,24.86-42.02,12.24,11.94,9.82,22.66,9.82,22.66l-.59,4.41-4.55,33.96h-2.37l-8.16-27.35-14.4,26.67c-37.78,7.26-47.47-2.53-47.47-2.53l20.32-12.43Z"/>
          </g>
          <path class="cls-69" d="m1466.54,1217.29l-50.21,14.87s19.33,236.33,21.56,247.78c0,0,23.05,6.52,22.99,0-.13-15.73,20.13-112.35,21.9-136.99,3.05-42.33,14.56-70.72-16.24-125.66Z"/>
          <path class="cls-39" d="m1480.99,949.48l9.92,233.69s-127.29,29.46-215.68-10.94c0,0,8.08-199.92,44.02-266.21,0,0,154.53-14.3,161.74,43.47Z"/>
          <path class="cls-69" d="m1422.89,663.2c-10.8,15.82-4.72,31.16,4.02,47.86,8.88,16.97,63.02,28.71,60.45,9.73-5.05-37.32-8.87-58.57-25.49-68.09-14.1-8.07-28.19-5.34-38.98,10.5Z"/>
          <path class="cls-69" d="m1421.2,694.55l27.23-21.97,33.05,14.1s35.24,109.44,32.8,136.15c-2.61,28.46-18.36,10.26-25.48,3.72,0,0-67.56-109.66-67.6-132Z"/>
          <path class="cls-69" d="m1513.64,820.67s4.3,77.03-7.47,128.51c0,0-14.9,8.85-16.09-1.97-2-18.37-17.43-108.88-13.51-140.98,1.26-10.37,37.07,14.43,37.07,14.43Z"/>
          <path class="cls-69" d="m1499.22,1012.21s-4.01,1.96-1.3-7.44l3.17-14.68s-3.19,24.45-11.55,29.1c0,0-1.5,1.37-3.12-1.88,0,0,7.09-20.84,7.05-29.31,0,0-1.84,25.48-11.26,32.81,0,0-4.77,2.03-4.71-3,0,0,7.24-18.03,7.9-32.38,0,0-5.63,24.9-10.84,31.81,0,0-5.31,1.1-4.17-4.81,0,0,4.05-14.92,7.13-32.11,0,0-9.73,8.23-17.13,4.39l21.99-32.08,7.69-5.43,16.09,1.97,1.87,19.04s1.15,19.94-4.77,38.65c0,0-1.55,4.75-4.04,5.34Z"/>
          <polygon class="cls-42" points="1320.04 754.68 1367.78 859.74 1270.6 850.77 1226.79 747.66 1320.04 754.68"/>
          <path class="cls-69" d="m1242.19,780.19c1.85,3.4,3.83,6.48,6.81,8.84,3.39,2.68,9.06,1.87,11.24,3.83,3.8,3.41,1.1,12.63-6.92,21.88-6.96,8.03-12.09-2.48-14.43-8.94-3.46-9.54-3.23-13.81.72-21.51l2.59-4.11Z"/>
        </g>
        <g>
          <path class="cls-70" d="m1497.08,567.84c3.96,3.94,5.44,9.87,7.35,15.12,14.76-19.47,25.62-57.7,4.6-75.23-31.59-26.34-32.23,39.92-11.95,60.11Z"/>
          <g>
            <g>
              <g>
                <g>
                  <path class="cls-21" d="m1429.34,1091.4l-2.44,16.45,9.57,21.82s-4.05,3.63-8.53-3.53l-8.53-17.99,1.2-18.53,8.73,1.79Z"/>
                  <path class="cls-21" d="m1424.95,1096.96l-3.35,16.29,8.33,22.32s-4.24,3.39-8.3-4.01l-7.52-18.44,2.23-18.43,8.61,2.26Z"/>
                  <path class="cls-69" d="m1406.56,1100.61l2.98-19.13,3.28-23.73,14.85-2.05,5.1,25.02,1.24,13.14,1.49,17.95.8,5.8s-4.65,1.5-8.27-7.73l-3.79-16.93-6.44,13.31,5.45,23.36s-1.39,12.19-5.05,7.59l-12.29-32.78.64-3.82Z"/>
                </g>
                <path class="cls-53" d="m1463.7,896.08s-32.87,129.53-36.03,159.61c0,0-12.77,15.15-14.85,2.05-4.18-26.15,1.76-163.07,8.45-173.91,6.68-10.84,42.43,12.25,42.43,12.25Z"/>
              </g>
              <g>
                <path class="cls-53" d="m1437.03,740.03l-10.79,3.52s-17.08,132.86-2.63,162.53c14.46,29.68,31.09-.14,36.51-3.51,5.41-3.36,39.98-153.83,39.98-153.83l-63.08-8.71Z"/>
                <path class="cls-16" d="m1413.81,890.66l6.9-166.44c7.81-40.86,49.64-28.69,49.64-28.69,33.92,8.83,32.3,46.84,32.3,46.84l-29.17,159.42s-6.11,24.38-37.49,24.38c0,0-23.15-3.12-22.17-35.51Z"/>
              </g>
              <rect class="cls-14" x="1412.83" y="1053.77" width="15.15" height="26.37" transform="translate(305.26 2449.84) rotate(-88.03)"/>
              <path class="cls-16" d="m1470.59,907.4s-14.55,97.84-35.43,157.77c0,0-17.91,1.68-28.11-.97,0,0-1.55-140.29,10-185.68,0,0,57.69,1.2,53.54,28.88Z"/>
            </g>
            <path class="cls-63" d="m1449.38,1526.31s-5.89,22.92-13.12,29.12c-7.24,6.22-34.84,15.36-34.84,15.36l-15.29,2.19s-10.63,7.62,18.55,15.64c29.17,8.02,80.37-16.18,80.37-16.18l-11.54-46.84-24.12.7Z"/>
            <path class="cls-63" d="m1605.25,1589.33c5.15-8.02,15.93-51.74,15.93-51.74l23.84-.72,14.91,48.14s2.39,8.06-2.47,11.08c0,0-29.73,10.31-55.11-.49,0,0,.27-2.15,2.9-6.26Z"/>
            <path class="cls-69" d="m1457.48,925.44l-30.43-186s-10.49-27.96,10.48-41.94l79.93-37.57h56.37l96.1,56.79-62.98,208.71h-149.47Z"/>
            <path class="cls-19" d="m1606.95,925.44s17.26,39.41,21.42,130.02c0,0-129.91,40.75-170.66,0l-.23-130.02h149.47Z"/>
            <g>
              <path class="cls-19" d="m1521.78,1055.06c-.22,30.4,23.46,55.23,52.89,55.45,29.44.21,53.48-24.26,53.7-54.66.22-30.4-23.46-55.22-52.89-55.44-29.44-.22-53.48,24.26-53.7,54.65Z"/>
              <path class="cls-19" d="m1628.32,1062.55l14.13,231.53s-25.02,60.21-69.3,23.19l-48.08-238.17s23.34-80.05,103.25-16.55Z"/>
            </g>
            <path class="cls-19" d="m1642.45,1294.08s13.32,43.47,9.36,119.17l3.96,141.52-49.04.97-33.35-237.74s33.39-77.06,69.07-23.92Z"/>
            <g>
              <path class="cls-19" d="m1457.95,1055.6c-3.08,30.24,7.73,56.12,37.01,59.11,29.29,2.99,55.52-19.11,58.61-49.36,3.08-30.25-18.15-57.19-47.43-60.17-29.28-2.99-45.1,20.18-48.19,50.42Z"/>
              <path class="cls-19" d="m1541.07,1095.42l-26.9,213.31s-58.33,25.86-68.69-10.33c0,0,1.36-162.49,12.47-242.81,0,0,72.03-35.08,83.12,39.82Z"/>
            </g>
            <path class="cls-19" d="m1514.17,1300.02s8.19,31.29-.65,88.41l-20.24,161.67-51.67-2.74,3.87-257.54s32.17-33.75,68.69,10.19Z"/>
            <g>
              <path class="cls-49" d="m1657.55,908.87c10.98,110.15,6.48,117.45,5.34,161.63,0,0,5.87,15.55,15.85,6.82,9.99-8.72,25.92-155.42,20.9-167.12-7.46-17.37-42.08-1.32-42.08-1.32Z"/>
              <path class="cls-69" d="m1664.51,1066.1l-15.49,15.49-13.17,19.29c6.52,4.39,13.35-6.41,13.35-6.41-4.26,17-12.52,32.01-12.52,32.01-2,6.1,3.76,5.64,3.76,5.64,6.43-6.6,14.65-26.06,14.65-26.06-3.09,11.6-10.96,30.07-10.96,30.07-.74,5.3,4.58,3.79,4.58,3.79,10.93-6.47,14.56-30.08,14.56-30.08-1.09,8.96-8.15,27.35-8.15,27.35,1.27,3.64,3.05,2.4,3.05,2.4,9.44-3.79,12.87-26.53,12.87-26.53l-1.5,8.48c-3.09,11.42,3.99,8.48,3.99,8.48l2.55-5.73c7.47-17.58,5.22-33.4,5.22-33.4l-.05-20.56-16.72-4.23Z"/>
              <path class="cls-49" d="m1633.17,720.14c37.1-8.45,49.77,25.84,49.77,25.84,0,0,18.63,114.14,18.4,163.05-.15,33.01-40.43,6.42-43.07.62-5.83-12.8-48.16-150.28-48.16-150.28,0,0-2.2-32.3,23.06-39.23Z"/>
              <path class="cls-66" d="m1651.99,911.58l-48.11-155.99c1.08-38.78,39.03-44.56,39.03-44.56,35.68-3.42,43.5,27.29,43.5,27.29l17.26,156.16s5.85,35.1-14.43,35.61c0,0-34.03,3.69-37.24-18.51Z"/>
              <rect class="cls-14" x="1664.38" y="1052.92" width="15.15" height="26.37" transform="translate(298.56 2496.41) rotate(-78.69)"/>
              <path class="cls-66" d="m1649.07,902.11s6.23,131.04,8.48,157.84l29.25,6.15s26.45-131.33,16.86-171.63c0,0-38.22-20.86-54.59,7.64Z"/>
            </g>
            <path class="cls-69" d="m1574.12,618.85v60.25h-63.72s15.67-23.88,7.83-60.25h55.89Z"/>
            <path class="cls-75" d="m1541.8,670.02c-5.74,3.69-17.95,11.56-24.91,6.96-1.87-1.24-2.74-2.87-3.02-4.68,4.1-9.54,9.73-28.58,4.37-53.45h55.89v5.46c-6.97,17.64-15.91,35.13-32.32,45.71Z"/>
            <g>
              <path class="cls-69" d="m1575.64,619.7s10.85-4.71,23.12-31.55c0,0,26.66-31.74,7.77-67.77,0,0-11.17-30.47-65.26-21.94,0,0-4.87,81.66,34.37,121.26Z"/>
              <path class="cls-69" d="m1509.02,635.99l-3.61-9.44s-9.96-35.16-9.96-35.16c-1.25-4.42-1.32-10.33-.52-14.87.87-4.95,1.43-10.11.14-15.32-6.28-25.28,6.67-39.63,6.67-39.63,14.28-23.84,49.42-24.64,49.42-24.64,43.51,1.13,48.14,43.1,48.14,43.1,7.71,27.81-14.01,51.62-14.05,51.67-1.73,1.89-.61,11.08-1.08,13.71-2.03,11.22-12.56,18.33-21.91,23.27-10.28,5.43-22.73,11.25-34.33,12.58-4.4.51-16.85.15-18.92-5.27Z"/>
            </g>
            <path class="cls-14" d="m1617.29,920.39c-.13,6.2,9.27,71.02,5.33,71.86-.02,0-107.56,24.78-164.91,0l-.23-66.81-30.43-186s-10.49-27.96,10.48-41.94l79.93-37.57-5.39,16.2,11.56,32.87,50.21-49.07,96.1,56.79c-5.37,17.8-10.71,35.6-16.08,53.39-9.9,32.81-19.55,65.71-29.75,98.42,0,0-8.44,35.48-6.81,51.84Z"/>
            <polygon class="cls-68" points="1530.56 671.63 1531.23 701.57 1542.26 690.79 1530.56 671.63"/>
            <g>
              <path class="cls-72" d="m1516.52,719.92c0,2.36,1.91,4.27,4.27,4.27s4.27-1.91,4.27-4.27-1.92-4.27-4.27-4.27-4.27,1.91-4.27,4.27Z"/>
              <path class="cls-72" d="m1516.52,797.51c0,2.36,1.91,4.27,4.27,4.27s4.27-1.91,4.27-4.27-1.92-4.27-4.27-4.27-4.27,1.91-4.27,4.27Z"/>
              <path class="cls-72" d="m1516.52,875.1c0,2.36,1.91,4.28,4.27,4.28s4.27-1.92,4.27-4.28-1.92-4.27-4.27-4.27-4.27,1.91-4.27,4.27Z"/>
              <circle class="cls-72" cx="1520.79" cy="952.69" r="4.27" transform="translate(-248.82 654.5) rotate(-22.5)"/>
            </g>
            <line class="cls-1" x1="1530.56" y1="704.99" x2="1530.56" y2="999.46"/>
            <g>
              <path class="cls-15" d="m1458.38,998.38s54.92,25.73,167.33-.57c1.85-.44,1.07-5.23,1.07-5.23l-1.07-10.82c-.49-3.47-2.43-3.31-2.43-3.31-.03,0-107.56,24.79-164.9,0,0,0-2.32-.4-2.41,3.07v13.49s0,2.7,2.41,3.37Z"/>
              <g>
                <path class="cls-4" d="m1514.17,1006.55c0,1.71,1.35,3.1,3.03,3.1h21.87c1.67,0,3.03-1.39,3.03-3.1v-15.76c0-1.71-1.36-3.1-3.03-3.1h-21.87c-1.68,0-3.03,1.39-3.03,3.1v15.76Z"/>
                <line class="cls-4" x1="1542.11" y1="997.67" x2="1530.52" y2="997.67"/>
              </g>
            </g>
            <path class="cls-72" d="m1530.56,670.96s35.26-13.7,43.56-27.33l10.42,19.86-37.17,35.65-16.8-27.5"/>
            <path class="cls-70" d="m1565.17,528.49c1.19,2.14,5.92,17.1.1,24.59,12.28,9.44,6.35,28.55,6.35,28.55l2.98.17c17.23-4.46,11.44,28.13,11.44,28.15.13-.75,3-2.57,3.57-3.12,3.37-3.23,10.47-14.83,12.71-18.91,12.13-22.24,10.98-23.37,14.24-36.5,2.22-8.97,1.26-33.25-11.79-45.45,0,0-15.21,0-39.6,22.53Z"/>
            <path class="cls-69" d="m1578.74,595.79c1.54,1.3,3.56,2.11,6.13,2.19,6.93.22,12.98-6,13.51-13.89.53-7.87-4.65-14.44-11.57-14.65-3.29-.1-6.39,1.24-8.77,3.52-3.48,3.33-3.89,9.74-3.31,14.2.47,3.57,1.71,6.67,4.02,8.63Z"/>
            <path class="cls-66" d="m1589.81,669.37l-42.74,150.14,6.34,272.81s66.42-4.07,95.44-30.33l-20.47-159.35,41.56-185.92-80.13-47.35Z"/>
            <path class="cls-24" d="m1589.81,669.37l-42.74,150.14.18,7.13,53.84-55.1s5.66-9.56-2.01-15.22l-12.72-12.17,9.07-6.51s12.73-6.17,11.18-17.73l-3.64-43.48-13.15-7.07Z"/>
            <path class="cls-66" d="m1495.14,670.43l-48.67,22.88s-27.7,7.31-22.04,36.02l16.01,159-8.02,168.47s-6.86,31.31,49.57,26l19.97-267.33-6.82-145.04Z"/>
            <path class="cls-72" d="m1500.79,672.48s3.24-12.55,19.14-23.14l-2.08,43.23s-8.82-22.11-17.06-20.09Z"/>
            <path class="cls-68" d="m1499.34,692.57l1.45-20.09c4.85-1.19,9.19,5.6,12.73,11.17l-14.18,8.92Z"/>
            <path class="cls-24" d="m1495.14,670.43l-12.55,5.9-9.06,41.86s-4.54,10.84,2.03,13.67l11.83,6.9-16.67,10.55s-8.77,5.5-3.37,13.59l33.44,65.29,1.05-11.16-6.7-146.6Z"/>
            <path class="cls-22" d="m1579.25,602.11l-4.65-20.31-2.98-.17s-3.01,13.46-19.11,15.84c0,0-6.96,1.05-9.93,1.45-.39.06-4.68-4.19-5.23-4.54-4.76-3.1-10.49-3.94-16.05-4.38-5.68-.44-11.75-.99-17.19,1.08-.73.28-7.68,3.8-7.91,2.81,0,0,7.36,32.55,12.54,41.86,0,0,2.26,7.16,19,5.41,0,0,28.73-2.55,51.03-23.34,3.7-2.79.48-15.71.48-15.71Zm-74.98-1.39c.66-3.38.8-5.52,3.69-6.05,5.73-1.05,11.99-.08,17.7.65,4.62.59,10.33,1.18,12.22,6.22,1.66,4.43.44,10.9-1.89,14.95-3.94,6.84-16.71,10.35-23.17,5.93-5.51-3.77-9.78-15.31-8.54-21.7Z"/>
            <g>
              <polygon class="cls-34" points="1534.03 682.46 1535.33 680.03 1544.2 693.63 1536.57 696.35 1534.03 682.46"/>
              <path class="cls-34" d="m1513.52,683.65l-2.49-3.81s-9.47,7.96.48,16.5c0,0,0-7.04,2.01-12.69Z"/>
              <path class="cls-34" d="m1534.03,682.46s-7.52,6.67-20.51,1.2c-2.85,3.62-2.83,8.22-2.01,12.69l6.73,13.89h9.4l8.93-13.89s.92-3.06-2.54-13.89Z"/>
              <polygon class="cls-34" points="1527.64 710.24 1535.24 908.98 1519.38 939.85 1506.43 909.14 1518.24 710.24 1527.64 710.24"/>
            </g>
          </g>
          <path class="cls-70" d="m1562.67,525.77l14.51-7.22,27.58-12.59s0-18.91-34.8-26.21c0,0-42.66-6.73-76.61,11.22,0,0-9.25,5.05-16.55.56,0,0,11.79,49.39,85.86,34.24Z"/>
        </g>
        <g>
          <polyline class="cls-10" points="471.72 555.64 472.09 561.33 466.47 561.34"/>
          <path class="cls-40" d="m443.76,520.83s10.76-.42,10.72,3.04c0,0-.11,2.34-9.49,2.57-9.38.23-11.79-.38-12.55-2.6-.76-2.22,6.29-3.11,11.33-3Z"/>
          <path class="cls-40" d="m486.69,522.24s-8.83-.95-9.69,2.28c0,0-.52,2.19,7.22,2.88,7.73.69,10.29-.02,11.1-1.78.92-1.99-4.42-3.23-8.63-3.38Z"/>
          <path class="cls-12" d="m453.74,543.39s-4.8-6.85-13.68-.23"/>
          <path class="cls-12" d="m490.52,544.79s-4.27-6.79-10.22-.45"/>
          <path class="cls-12" d="m462.8,571.46s-7.34,1.74-13.3-5.65"/>
        </g>
      </g>
      <g class="cls-38">
        <g>
          <g>
            <path class="cls-69" d="m887.53,1232.21s-1.1,34.28-5.48,49.64l-34.61,24.22,130.3,19.56-31.08-43.07s-9.38-45.96-4.46-62.97c4.92-17-54.67,12.61-54.67,12.61Z"/>
            <path class="cls-57" d="m887.34,1236.95s10.3,24.88,29.71,24.34c19.41-.55,23.82-22.57,23.82-22.57l-53.54-1.77Z"/>
            <path class="cls-70" d="m875.76,1216.8s-6.27-31.39-10.64-40.9c-4.37-9.51-8.02-51.92,40.46-54.12,0,0,18.59,2.19,28.79-4.02,0,0,0,6.22-2.55,8.41,0,0,16.77-4.02,29.89,10.6,13.12,14.63-8.75,65.82-7.65,77.89l-78.29,2.14Z"/>
            <path class="cls-69" d="m941.66,1157.62h-53.65c-7.22,0-13.12,6.95-13.12,15.45v36.3c0,23.26,25.89,42.05,39.95,42.3,16.13.29,39.95-19.96,39.95-44.35v-34.25c0-8.49-5.9-15.45-13.12-15.45Z"/>
            <path class="cls-70" d="m874.88,1192.45s.07-21.81,17.3-25.17c17.22-3.35,55.77,10.63,61.23-5.27,5.47-15.91-74.5-15.63-78.53-5.48-4.03,10.15,0,35.93,0,35.93Z"/>
            <path class="cls-31" d="m818.02,1563.15s5.48,168.01-2.72,263.87c-8.2,95.86.06,229.27.06,229.27,0,0,26.23,14.51,54.66,0,0,0,31.18-185.2,30.98-229.27-.21-46.94,33.94-256.55,33.94-256.55l-116.92-7.32Z"/>
            <path class="cls-31" d="m1011.98,2056.29s-26.22,14.51-54.65,0c0,0-31.17-185.19-30.98-229.27.09-19.82-5.95-68.67-12.96-118.47-9.59-68.13-20.99-138.07-20.99-138.07l121.45-7.61s-10.01,168.3-1.82,264.15c8.2,95.87-.07,229.27-.07,229.27Z"/>
            <path class="cls-18" d="m852.58,1596.5c-19.7-2.62-33.83-5.4-33.83-5.4,0,0-10.5.92-4.3-51,4.71-39.51,3.24-75.19,2.18-111.89-.12-4.08-.03-8.91.22-14.28,3.02,4.85,36.65,59.35,45.71,99.85,6.59,29.54-3.35,64.34-9.98,82.72Z"/>
            <path class="cls-14" d="m990.96,1290.69v.07c-15.76-3.98-30.59-6.6-44.29-8.2-12.09,16.12-20.78,19.86-31.83,24.24-17.79-2.47-32.78-24.45-32.78-24.96-19.38,1.99-32.45,5.56-37.77,7.22-1.06.13-57.9,7.66-138.37,171.98,0,0,4.33,15.13,25.43,41.51,15.01,18.76,38.53,43.22,75.01,71.97,0,0,3.44-7.38,6.58-19.33,0,0-21.68-42.33-34.74-71-6.34-13.95-10.65-24.66-9.42-25.69,2.35-1.96,28.58-24.81,47.95-41.69-.16,4.22-.2,8.06-.1,11.39,1.05,36.71,2.53,72.38-2.18,111.89-6.2,51.92,4.3,51,4.3,51,0,0,14.13,2.78,33.83,5.4,17.82,2.39,40.21,4.66,60.81,4.66,47.24,0,99.01-10.06,99.01-10.06,14.9.19-4.18-93.04-6.97-149.13-.65-13.03-1.25-24.91-1.81-35.78,17.81,15.51,57.24,49.88,60.15,52.31,1.23,1.03-3.07,11.74-9.42,25.69-13.06,28.67-34.74,71-34.74,71,3.14,11.95,6.58,19.33,6.58,19.33,36.48-28.75,60-53.22,75.01-71.97,21.1-26.38,25.43-41.51,25.43-41.51-81.22-165.86-135.69-170.35-135.69-170.35Z"/>
            <path class="cls-79" d="m926.35,1827.02c.09-19.82-5.95-68.67-12.96-118.47,7.27-29.75,24.98-58.38,24.98-58.38,22.42,63.08-12.03,176.86-12.03,176.86Z"/>
            <path class="cls-69" d="m808.62,1557.29s19.68-18.28,27.7-8.05c8.02,10.24,9.48,26.33,3.28,25.23-6.2-1.1-18.95-6.95-20.78-4.02-1.82,2.92-9.99,8.52-12.46,4.08-2.48-4.44,2.26-17.24,2.26-17.24Z"/>
            <path class="cls-69" d="m812.95,1555.2c-3.14,11.94-6.58,19.33-6.58,19.33-36.48-28.75-60-53.22-75.01-71.97,11.32-.84,27.84-4.9,46.86-18.35,13.05,28.67,34.74,71,34.74,71Z"/>
            <path class="cls-51" d="m1023.94,1557.29s-19.68-18.28-27.7-8.05c-8.02,10.24-9.48,26.33-3.28,25.23,6.2-1.1,18.95-6.95,20.78-4.02,1.82,2.92,9.99,8.52,12.47,4.08,2.48-4.44-2.26-17.24-2.26-17.24Z"/>
            <path class="cls-65" d="m1019.61,1555.2c3.14,11.94,6.58,19.33,6.58,19.33,36.48-28.75,60-53.22,75.01-71.97-11.32-.84-27.84-4.9-46.85-18.35-13.06,28.67-34.74,71-34.74,71Z"/>
            <path class="cls-77" d="m1063.77,1458.51c-2.92-2.44-42.62-37.05-60.34-52.48,0,0,17.68-13.3,28.62,6.09,10.94,19.38,31.72,46.39,31.72,46.39Z"/>
            <path class="cls-77" d="m1126.65,1461.05s-4.33,15.13-25.43,41.51c-24.43-.34,25.43-41.51,25.43-41.51Z"/>
            <path class="cls-31" d="m883.87,1273.5s-5.79,2.42-7.43,9c0,0,23.21,23.95,38.39,24.32l-30.97-33.31Z"/>
            <path class="cls-31" d="m914.83,1306.81l29.95-34.53s6.18,4.08,6.1,10.8c0,0-23.17,24.64-36.05,23.72Z"/>
            <path class="cls-31" d="m909.43,1304.27s-22.86,198.01-14.9,222.14c4.1,12.42,9.58,23.17,13.94,30.68,3.14,5.4,10.92,5.38,14.03-.03,6.07-10.58,14.01-25.88,14.01-33.64,0-12.58-17.35-219.32-17.35-219.32l-9.73.17Z"/>
            <path class="cls-31" d="m903.45,1294.56s13.82-1.39,22.23-.53c1.67.17,2.6,2,1.78,3.47-2.36,4.26-7.17,11.64-12.2,11.64-7.07,0-18.08-14.09-11.81-14.58Z"/>
          </g>
          <g>
            <polygon class="cls-65" points="662.51 1999.42 677.71 2063.67 700.49 2063.54 701.32 1999.42 662.51 1999.42"/>
            <polygon class="cls-65" points="854.07 2002.16 897.33 2063.67 914.2 2041.95 888.16 1993.7 854.07 2002.16"/>
            <path class="cls-35" d="m698.57,1197.31c-8.59-2.84-17.92-1.45-24.3.24,1.32-2.06,4.46-3.35,4.46-3.35-4.13.21-12.27,6.01-12.27,6.01-60.05-10.27-52.27,73.81-47.26,92.7,5,18.89-13.63,29.15-39.59,50.08-49.54,39.93-46.66,79.41-46.66,79.41.48.17.99.37,1.53.6,1.81-5.22,5.7-15.12,10.2-17.41-.1.46-3.21,13.2-3.9,20.28,18.82,9.15,54.89,30.57,80.1,45.84-.86-3.8-1.8-9.27-.99-12.41l5.82,15.35c13.5,8.2,22.83,14,22.83,14-4.51-15.17,50.18-111.09,82.35-143.01,6.35-15.16,4.82-39.36,4.69-41.26,2.19,18.99,1.11,30.11-.55,36.58,25.57-35.34-13.7-136.12-36.47-143.64Z"/>
            <path class="cls-51" d="m722.33,1352c.19.09-18.26,9.7-32.14,5.89-13.06-3.57-21.59-20.55-21.41-20.59,5.53-1.1,7.12-8.73,7.01-41.48l2.5.49,42.03,8.35s-.96,13.27-.98,25.77c-.03,10.5.6,20.45,3,21.57Z"/>
            <path class="cls-26" d="m720.31,1304.66s-.96,13.27-.98,25.77c-23.52-.67-35.95-22.19-41.04-34.12l42.03,8.35Z"/>
            <path class="cls-35" d="m669.63,1297.79s-15.93-16.71-22.12-32.5c-4.42-11.27-7.19-55.81,37.47-58.35,0,0,12.86-1.3,26.32,4.33,10.71,4.48,27.08,15.52,19.47,56.41l-1.38,13.57-59.76,16.53Z"/>
            <path class="cls-14" d="m910.14,2027.9s-11.17,1.93-20.34,2.63c-2.04.15-3.97.25-5.66.25-4.42,0-12.37-1.67-17.71-2.92l-.4-.09c-2.34-.56-4.13-1.01-4.8-1.18l-.28-.07s-55.71-62.22-86.95-161.95c-.73-2.33-1.5-4.67-2.31-7.04-17.1-50.02-52.55-112.81-71.23-169.64-2.97-9.04-5.64-17.57-8.03-25.63-.77-2.58-1.52-5.12-2.23-7.61-13.77-47.99-17.75-79.5-21.42-113.16l112.32,28.67s47.15,205.09,129.06,457.75Z"/>
            <path class="cls-51" d="m727.67,1311.33s-54.36,11.93-61.25-22.15c-6.89-34.08-18.54-55.49,15.88-64.55,34.42-9.06,43.81,2.57,48.87,13.38,5.06,10.81,10.47,69.33-3.5,73.32Z"/>
            <g>
              <circle cx="689.1" cy="1274.14" r="3.1"/>
              <circle cx="717.94" cy="1267.9" r="3.1"/>
              <path d="m698.26,1253.38s-1.45.96-8.57,2.5-10.07,3.23-10.15,2.2c-.37-4.41,11.86-9.31,14.08-9.31,2.22,0,4.93,1.66,4.65,4.62Z"/>
              <path d="m709.44,1250.96s1.72.27,8.84-1.27c7.12-1.54,10.5-1.23,10.15-2.2-1.49-4.17-14.65-3.57-16.67-2.65s-3.8,3.55-2.32,6.12Z"/>
              <path d="m711.3,1294.89s-8.23.95-14.46-1.14c0,0,3.45,9.41,14.46,1.14Z"/>
              <path d="m710.91,1288.93c1.9-.41,3.49-1.42,4.24-2.53.54-.8.63-1.61.24-2.29-1.02-1.77-8.06-12.42-8.09-12.47l-.91.57c.03.05,7.06,10.68,8.07,12.44.22.39.02.84-.2,1.16-.91,1.34-3.51,2.56-6.13,2.18l-.15,1.06c1,.14,2,.09,2.93-.11Z"/>
            </g>
            <path class="cls-35" d="m706.97,1218.77s-6.9,43.01-28.63,53.56c-21.73,10.55-32.91,6.4-32.91,6.4,0,0,14.77-17.57,13.5-42.76,0,0,32.95-33.95,48.04-17.19Z"/>
            <path class="cls-35" d="m703.92,1222.77s12.95,6.67,17.41,14.8c4.46,8.13,9.28,25.75,14.35,24.1,0,0,5.79-29.46-9.95-42.28-16.69-13.59-21.81,3.38-21.81,3.38Z"/>
            <path class="cls-56" d="m889.8,2030.53c-2.04.15-3.97.25-5.66.25-4.42,0-12.37-1.67-17.71-2.92l-.4-.09-4.8-1.18-.28-.07s-55.71-62.22-86.95-161.95c-.73-2.33-1.5-4.67-2.31-7.04-17.1-50.02-52.55-112.81-71.23-169.64-2.97-9.04-5.64-17.57-8.03-25.63-.77-2.58-1.52-5.12-2.23-7.61l19.86-15.13s59.64,96.88,78.1,188.06c15.31,75.57,81.19,173.55,101.64,202.96Z"/>
            <path class="cls-14" d="m712.13,1836.07c.34,44.33-1.9,146.27-7.65,188.48,0,0-5.46,4.84-18.99,4.9-13.86.06-20.06-5.08-20.06-5.08-14.44-73.38-24.71-134.09-32.19-186.41-6.14-42.93-11.59-79.74-15.78-111.43-3.72-28.08-6.44-52.14-7.75-72.88-.17-2.82-.33-5.57-.46-8.26-.16-3.56-.29-7.01-.35-10.36-.06-3.37-.08-6.66-.05-9.84l.48-.05,27.9-2.73,88.16-8.63c-1.47,77.69-13.44,196.5-13.25,222.27Z"/>
            <path class="cls-56" d="m685.49,2029.45c-11.79.68-20.06-5.08-20.06-5.08-14.44-73.38-24.71-134.09-32.19-186.41-6.14-42.93-11.59-79.74-15.78-111.43-3.72-28.08-6.44-52.14-7.75-72.88-.16-10.22-.26-20.02-.38-28.51-.13-8.61-.26-15.89-.5-20.96l28.4,18.24,29.89,19.18s-42.39,38.69-31.98,111.83c10.41,73.14,35.86,265.66,50.35,276.02Z"/>
            <path class="cls-31" d="m708.59,1335.88s45.31-7.21,60.51,7.96c18.64,18.6,53.63,125.24,52.24,137.41-.53,4.65-18.92,2.48-25.22-4.15-31.42-33.06-76.48-116.49-87.52-141.23Z"/>
            <path class="cls-31" d="m796.59,1633.65c-33.82,8.82-191.65,26.22-193.01-13.43-.34-9.67,0-21.36.76-34,2.35-39.17,8.76-87.58,11.83-114.22,1.41-12.21-3.27-66.89.32-96.69.53-4.41,1.24-8.29,2.18-11.39,6.82-22.49,37.45-28.59,53.17-29.12l47.45-1.62s49,54.91,55.82,71.78c6.82,16.87,9.05,74.62,14.34,102.58,5.3,27.97,23.59,121.83,7.14,126.12Z"/>
            <path class="cls-79" d="m703.38,1499.62s-26.38,81.27-99.04,86.59c2.35-39.17,8.76-87.58,11.83-114.22,1.41-12.21-3.27-66.89.32-96.69.95.2,1.8.73,2.79.92,80.01,15.5,91.36,106.46,84.09,123.4Z"/>
            <path class="cls-26" d="m819.05,1483.26s-47.63,15.67-105.66-9.46c0,0-15.81-1.5-23.65.5,0,0,1.69-15.73,9.36-20.01,7.67-4.28,40.66,4.98,50.52,3.62,21.56-2.97,59.11-5.3,69.43,25.35Z"/>
            <path class="cls-79" d="m776.6,1446.66s4.47-38.83-10.68-62.23c0,0,5.35-1.82,9.19,4.26,3.84,6.08,30.59,63.76,17.85,68.01-12.74,4.25-16.36-10.03-16.36-10.03Z"/>
            <path class="cls-26" d="m707.07,1453.15c-.68,0-22.49,2.86-26.36,5.59-3.86,2.74-.45,12.31,6.82,13.22,7.27.91,19.54-18.82,19.54-18.82Z"/>
            <path class="cls-51" d="m647.45,1467.86s62.12-2.28,118.48-13.22c0,0,10.3.09,9.09,9.12-1.21,9.03-97.67,59.54-118.88,49.82l-8.69-45.72Z"/>
            <path class="cls-51" d="m765.92,1454.64s6.59-7.98,10.68-7.98,14.77,5.24,16.36,10.03c1.59,4.79-12.64,1.37-17.95,7.07-5.31,5.7-9.09-9.12-9.09-9.12Z"/>
            <path class="cls-31" d="m671.85,1334.79s-52.21.12-59.84,18.94c-13.94,34.35,32,148.3,44.12,159.85,5.21,4.97,29.35-2.86,29.35-35.69,0-17.02-1.22-116.47-13.63-143.1Z"/>
          </g>
          <g>
            <path class="cls-69" d="m1255.09,1238.97s-1.1,34.28-5.48,49.64l-34.61,24.22,130.3,19.56-31.08-43.07s-9.38-45.96-4.46-62.97c4.92-17-54.67,12.61-54.67,12.61Z"/>
            <path class="cls-57" d="m1254.9,1243.71s10.3,24.88,29.71,24.34c19.41-.55,23.83-22.57,23.83-22.57l-53.54-1.77Z"/>
            <path class="cls-70" d="m1243.31,1223.56s-6.27-31.39-10.64-40.9c-4.37-9.51-8.02-51.92,40.46-54.12,0,0,18.59,2.19,28.79-4.02,0,0,0,6.22-2.55,8.41,0,0,16.77-4.02,29.89,10.6,13.12,14.63-8.75,65.82-7.65,77.89l-78.29,2.14Z"/>
            <path class="cls-69" d="m1282.39,1258.43c-14.06-.25-39.95-19.04-39.95-42.3v-36.3c0-8.5,5.9-15.45,13.12-15.45h53.65c7.22,0,13.12,6.95,13.12,15.45v34.25c0,24.39-23.82,44.64-39.95,44.35Z"/>
            <path class="cls-70" d="m1242.44,1199.21s.07-21.81,17.3-25.17c17.22-3.35,55.77,10.63,61.23-5.27,5.47-15.91-74.5-15.63-78.53-5.48-4.03,10.15,0,35.93,0,35.93Z"/>
            <path class="cls-79" d="m1185.57,1569.91s5.49,168.01-2.72,263.87c-8.2,95.86.06,229.27.06,229.27,0,0,26.23,14.51,54.66,0,0,0,31.18-185.2,30.98-229.27-.21-46.94,33.94-256.55,33.94-256.55l-116.92-7.32Z"/>
            <path class="cls-79" d="m1379.53,2063.05s-26.22,14.51-54.65,0c0,0-31.17-185.19-30.98-229.27.09-19.82-5.95-68.67-12.96-118.47-9.59-68.13-20.98-138.07-20.98-138.07l121.45-7.61s-10.02,168.3-1.82,264.15c8.2,95.87-.07,229.27-.07,229.27Z"/>
            <path class="cls-50" d="m1379.96,1597.86s-51.78,10.06-99.01,10.06c-20.6,0-42.98-2.27-60.81-4.66-19.7-2.62-33.83-5.4-33.83-5.4,0,0-10.5.92-4.3-51,4.71-39.51,3.24-75.19,2.19-111.89-.12-4.08-.03-8.91.22-14.28,2.01-42.79,14.91-119.83,24.74-123.97,0,0,14.62-5.45,40.45-8.11,0,.5,14.99,22.49,32.78,24.96,11.05-4.39,19.74-8.13,31.83-24.24,15.32,1.79,32.03,4.84,49.89,9.65,0,0,1.86,8.16,8.88,149.76,2.79,56.09,21.87,149.31,6.97,149.13Z"/>
            <path class="cls-52" d="m1293.9,1833.78c.09-19.82-5.95-68.67-12.96-118.47,7.27-29.75,24.99-58.38,24.99-58.38,22.42,63.08-12.03,176.86-12.03,176.86Z"/>
            <path class="cls-77" d="m1136.35,1465.27c-1.24,1.03,3.07,11.74,9.41,25.69,13.06,28.67,34.74,71,34.74,71-3.14,11.94-6.58,19.33-6.58,19.33-36.48-28.75-60-53.22-75.01-71.97-21.1-26.38-25.43-41.51-25.43-41.51,81.22-165.86,138.38-171.98,138.38-171.98l-6.75,109.62s-65,56.69-68.76,59.83Z"/>
            <path class="cls-31" d="m1394.48,1641.22c-12.11,24.31-57.76,23.43-57.76,23.43-8.38-64.58-10.24-373.66-10.24-373.66,15.44,1.86,35.97,7.41,35.97,7.41,14.83,28.77,20.08,82.64,21.37,120.6.71,21.26.19,37.52-.59,41.6-1.16,6.06.31,34.95,2.53,67.9,3.45,51.41,8.73,112.72,8.73,112.72Z"/>
            <path class="cls-31" d="m1237.6,1290.14s-3.06,309.92-11.44,374.5c0,0-45.65.88-57.76-23.42,0,0,18.75-190.73,15.79-206.25-2.06-10.81,3.29-99.71,23.02-137.91,0,0,17.27-5.37,30.38-6.92Z"/>
            <path class="cls-65" d="m1176.18,1564.05s19.68-18.28,27.7-8.05c8.02,10.24,9.48,26.33,3.28,25.23-6.2-1.1-18.95-6.95-20.78-4.02-1.82,2.92-9.99,8.52-12.47,4.08-2.48-4.44,2.26-17.24,2.26-17.24Z"/>
            <path class="cls-65" d="m1180.5,1561.96c-3.14,11.94-6.58,19.33-6.58,19.33-36.48-28.75-60-53.22-75.01-71.97,11.32-.84,27.84-4.9,46.85-18.35,13.06,28.67,34.74,71,34.74,71Z"/>
            <path class="cls-31" d="m1494.2,1467.8s-4.33,15.13-25.43,41.51c-15.01,18.76-38.53,43.22-75.01,71.97,0,0-3.44-7.38-6.58-19.33,0,0,21.68-42.33,34.74-71,6.34-13.95,10.65-24.66,9.42-25.69-2.92-2.44-42.62-37.05-60.34-52.48-5.14-4.49-8.42-7.35-8.42-7.35l-4.06-107.99s54.47,4.49,135.69,170.35Z"/>
            <path class="cls-69" d="m1391.5,1564.05s-19.68-18.28-27.7-8.05c-8.02,10.24-9.48,26.33-3.28,25.23,6.2-1.1,18.95-6.95,20.78-4.02,1.82,2.92,9.99,8.52,12.47,4.08,2.48-4.44-2.26-17.24-2.26-17.24Z"/>
            <path class="cls-69" d="m1387.17,1561.96c3.14,11.94,6.58,19.33,6.58,19.33,36.48-28.75,60-53.22,75.01-71.97-11.32-.84-27.84-4.9-46.85-18.35-13.05,28.67-34.74,71-34.74,71Z"/>
            <path class="cls-79" d="m1431.33,1465.27c-2.92-2.44-42.62-37.05-60.34-52.48,0,0,17.68-13.3,28.62,6.09,10.94,19.38,31.72,46.39,31.72,46.39Z"/>
            <path class="cls-79" d="m1494.2,1467.8s-4.33,15.13-25.43,41.51c-24.43-.34,25.43-41.51,25.43-41.51Z"/>
            <path class="cls-79" d="m1385.75,1528.5c-25.87-73.17-14.76-115.71-14.76-115.71l12.82,6.21c.71,21.26.19,37.52-.59,41.6-1.16,6.06.31,34.95,2.53,67.9Z"/>
          </g>
          <g>
            <path class="cls-28" d="m1069.16,1212.69s-30.51-55.52-2.53-80.04c27.98-24.52,77.25-9.89,86.32,0,9.06,9.89,21.14,38-3.89,77.98l-79.9,2.05Z"/>
            <path class="cls-51" d="m1081.81,1235.54s-1.1,34.28-5.48,49.64l-34.62,24.22,130.3,19.56-31.08-43.07s-9.38-45.96-4.46-62.97c4.92-17-54.67,12.61-54.67,12.61Z"/>
            <path class="cls-26" d="m1081.62,1240.27s10.3,24.88,29.71,24.34c19.41-.55,23.83-22.57,23.83-22.57l-53.54-1.77Z"/>
            <path class="cls-51" d="m1135.94,1160.94h-53.65c-7.22,0-13.12,6.95-13.12,15.45v36.3c0,23.26,25.88,42.05,39.95,42.3,16.13.29,39.95-19.96,39.95-44.35v-34.25c0-8.49-5.9-15.45-13.12-15.45Z"/>
            <path class="cls-17" d="m1012.29,1566.48s5.49,168.01-2.72,263.87c-8.2,95.86.06,229.27.06,229.27,0,0,26.23,14.51,54.66,0,0,0,31.18-185.2,30.98-229.27-.21-46.94,33.94-256.55,33.94-256.55l-116.92-7.32Z"/>
            <path class="cls-17" d="m1206.26,2059.62s-26.22,14.51-54.65,0c0,0-31.17-185.19-30.98-229.27.09-19.82-5.95-68.67-12.96-118.47-9.59-68.13-20.98-138.07-20.98-138.07l121.45-7.61s-10.02,168.3-1.81,264.15c8.2,95.87-.07,229.27-.07,229.27Z"/>
            <path class="cls-74" d="m1185.24,1294.02v.07c-15.76-3.98-30.59-6.6-44.3-8.2-12.09,16.12-20.78,19.86-31.83,24.24-17.79-2.47-32.78-24.45-32.78-24.96-19.38,1.99-32.45,5.56-37.77,7.22-1.05.13-57.9,7.66-138.37,171.98,0,0,4.33,15.13,25.43,41.51,15.01,18.76,38.53,43.22,75.01,71.97,0,0,3.44-7.38,6.58-19.33,0,0-21.68-42.33-34.74-71-6.34-13.95-10.65-24.66-9.42-25.69,2.35-1.96,28.58-24.81,47.95-41.69-.16,4.22-.2,8.06-.1,11.39,1.05,36.71,2.53,72.38-2.19,111.89-6.2,51.92,4.3,51,4.3,51,0,0,14.13,2.78,33.83,5.4,17.82,2.39,40.21,4.66,60.81,4.66,47.24,0,99.01-10.06,99.01-10.06,14.9.19-4.18-93.04-6.97-149.13-.65-13.03-1.25-24.91-1.81-35.78,17.81,15.51,57.23,49.88,60.14,52.31,1.24,1.03-3.07,11.74-9.41,25.69-13.06,28.67-34.74,71-34.74,71,3.14,11.95,6.58,19.33,6.58,19.33,36.48-28.75,60-53.22,75.01-71.97,21.1-26.38,25.43-41.51,25.43-41.51-81.22-165.86-135.69-170.35-135.69-170.35Z"/>
            <path class="cls-58" d="m1046.86,1599.83c-19.7-2.62-33.83-5.4-33.83-5.4,0,0-10.5.92-4.3-51,4.71-39.51,3.24-75.19,2.19-111.89-.12-4.08-.03-8.91.22-14.28,3.02,4.85,36.65,59.35,45.71,99.85,6.59,29.54-3.35,64.34-9.98,82.72Z"/>
            <path class="cls-54" d="m1120.63,1830.35c.09-19.82-5.95-68.67-12.96-118.47,7.27-29.75,24.99-58.38,24.99-58.38,22.42,63.08-12.03,176.86-12.03,176.86Z"/>
            <path class="cls-51" d="m1002.9,1560.61s19.68-18.28,27.7-8.05c8.02,10.24,9.48,26.33,3.28,25.23-6.2-1.1-18.95-6.95-20.78-4.02-1.82,2.92-9.99,8.52-12.47,4.08-2.48-4.44,2.26-17.24,2.26-17.24Z"/>
            <path class="cls-51" d="m1007.22,1558.53c-3.14,11.94-6.58,19.33-6.58,19.33-36.48-28.75-60-53.22-75.01-71.97,11.32-.84,27.84-4.9,46.86-18.35,13.06,28.67,34.74,71,34.74,71Z"/>
            <path class="cls-51" d="m1218.22,1560.61s-19.68-18.28-27.7-8.05c-8.02,10.24-9.48,26.33-3.28,25.23,6.2-1.1,18.95-6.95,20.78-4.02,1.82,2.92,9.99,8.52,12.47,4.08,2.48-4.44-2.26-17.24-2.26-17.24Z"/>
            <path class="cls-51" d="m1213.89,1558.53c3.14,11.94,6.58,19.33,6.58,19.33,36.48-28.75,60-53.22,75.01-71.97-11.32-.84-27.84-4.9-46.86-18.35-13.06,28.67-34.74,71-34.74,71Z"/>
            <path class="cls-58" d="m1258.05,1461.84c-2.92-2.44-42.62-37.05-60.34-52.48,0,0,17.68-13.3,28.62,6.09,10.94,19.38,31.72,46.39,31.72,46.39Z"/>
            <path class="cls-58" d="m1320.93,1464.37s-4.33,15.13-25.43,41.51c-24.43-.34,25.43-41.51,25.43-41.51Z"/>
            <path class="cls-28" d="m1069.16,1191.11s9.76-29.89,41.74-25.23c31.98,4.66,34.75,11.52,38.15,19.47,3.4,7.95,9.96-29.07,9.96-29.07l-37.72-11.24s-45.65,5.21-48.93,12.89l-3.28,7.68.08,25.5Z"/>
          </g>
        </g>
      </g>
      <line class="cls-3" x1="267.77" y1="1079.91" x2="1732.98" y2="1079.91"/>
      <line class="cls-6" x1="999.62" y1="261.94" x2="999.62" y2="1079.91"/>
      <polygon class="cls-31" points="1058.14 486.99 1016.08 486.99 1016.08 444.66 983.16 444.66 983.16 486.99 941.11 486.99 941.11 520.14 983.16 520.14 983.16 562.48 1016.08 562.48 1016.08 520.14 1058.14 520.14 1058.14 486.99"/>
      <path class="cls-74" d="m531.56,1240.04c.4-4.5,1.18-8.39,2.36-11.66,1.17-3.27,2.8-7.08,4.88-11.44,1.5-3.23,2.66-5.87,3.49-7.92.82-2.05,1.4-4.28,1.74-6.66.33-2.39.25-4.86-.26-7.43l-.02-.08c-.87-4.47-2.7-7.71-5.47-9.73-2.77-2.02-6.21-2.62-10.32-1.82s-7.09,2.97-8.77,6.48c-1.69,3.5-2.01,8.06-.96,13.67l.02.08-15.95,3.12-.02-.08c-1.12-6.82-.97-12.86.45-18.13,1.42-5.26,4.02-9.57,7.79-12.93,3.77-3.35,8.58-5.6,14.44-6.75,6.11-1.2,11.57-1.09,16.38.31,4.81,1.41,8.78,4.03,11.9,7.87,3.12,3.84,5.28,8.79,6.47,14.85l.02.08c.71,3.65.88,7.03.51,10.14-.38,3.11-1.04,5.88-1.97,8.31-.94,2.42-2.29,5.41-4.05,8.95-1.93,3.79-3.43,7.11-4.53,9.97-1.09,2.85-1.83,6.17-2.21,9.95-.38,3.78-.11,8.01.8,12.68l-15.72,3.08c-1.07-5.44-1.4-10.42-1-14.92Zm3.02,27.25l16.49-3.23,3.23,16.49-16.49,3.23-3.23-16.49Z"/>
      <path class="cls-74" d="m1473.89,1316.85c.67-1.12,1.36-2.04,2.08-2.74.72-.7,1.62-1.49,2.71-2.37.8-.65,1.43-1.19,1.9-1.63.47-.43.9-.94,1.29-1.52s.67-1.24.87-1.97v-.02c.34-1.27.27-2.35-.2-3.22-.47-.87-1.29-1.46-2.46-1.77s-2.22-.11-3.1.59c-.88.7-1.54,1.85-1.97,3.44v.02s-4.55-1.19-4.55-1.19v-.02c.57-1.92,1.37-3.47,2.4-4.67,1.03-1.19,2.25-1.99,3.65-2.39,1.4-.4,2.94-.38,4.61.05s3.15,1.17,4.23,2.14c1.08.97,1.78,2.15,2.11,3.54.33,1.39.27,2.95-.18,4.68v.02c-.28,1.04-.66,1.94-1.15,2.71-.49.76-1.01,1.4-1.56,1.92-.55.51-1.28,1.12-2.18,1.82-.98.75-1.79,1.42-2.43,2.03-.64.61-1.25,1.38-1.83,2.32-.57.94-1.03,2.07-1.38,3.4l-4.48-1.17c.41-1.55.94-2.89,1.61-4.01Zm-2.64,7.48l4.7,1.23-1.23,4.7-4.7-1.23,1.23-4.7Z"/>
      <path class="cls-74" d="m776.55,1229.28c-.7-.82-1-1.78-.91-2.87s.54-1.99,1.36-2.69,1.78-1,2.87-.91,1.92.54,2.6,1.36c.68.82.97,1.78.88,2.87s-.53,1.99-1.33,2.69c-.8.7-1.73,1.01-2.78.92s-1.99-.54-2.69-1.36Zm9.13-42.87l-3.25,31.57-4.81-.39,1.86-31.68,6.2.5Z"/>
      <g>
        <circle cx="758.71" cy="468.31" r="3.5"/>
        <circle cx="792.03" cy="468.31" r="3.5"/>
        <path d="m773.78,447.59s-1.83.71-10.05.71-11.88,1.15-11.73,0c.65-4.96,15.31-7.44,17.76-6.91s5.04,3.01,4.02,6.2Z"/>
        <path d="m786.7,447.59s1.83.71,10.05.71c8.22,0,11.88,1.15,11.73,0-.65-4.96-15.31-7.44-17.76-6.91-2.45.53-5.04,3.01-4.02,6.2Z"/>
        <path d="m778.25,496.51s-9.31-.92-15.68-4.71c0,0,1.56,11.21,15.68,4.71Z"/>
        <path d="m779.25,489.84c2.19,0,4.19-.74,5.28-1.78.79-.75,1.08-1.63.81-2.47-.7-2.2-5.93-15.63-5.95-15.69l-1.14.41c.02.07,5.24,13.47,5.94,15.65.15.48-.18.93-.49,1.23-1.33,1.26-4.49,1.98-7.28.94l-.42,1.13c1.07.4,2.19.57,3.26.57Z"/>
      </g>
      <g>
        <circle cx="1238.81" cy="474.67" r="4.11"/>
        <circle cx="1199.68" cy="474.67" r="4.11"/>
        <path d="m1221.11,450.34s2.15.83,11.81.83c9.66,0,13.95,1.35,13.78,0-.76-5.82-17.98-8.74-20.86-8.12-2.88.62-5.92,3.54-4.72,7.28Z"/>
        <path d="m1205.94,450.34s-2.15.83-11.81.83c-9.66,0-13.95,1.35-13.78,0,.76-5.82,17.98-8.74,20.86-8.12s5.92,3.54,4.72,7.28Z"/>
        <path d="m1215.86,507.79s10.93-1.08,18.41-5.54c0,0-1.83,13.16-18.41,5.54Z"/>
        <path d="m1214.69,499.96c-2.57,0-4.92-.86-6.2-2.09-.93-.88-1.27-1.91-.95-2.9.82-2.58,6.96-18.35,6.99-18.43l1.34.48c-.03.08-6.16,15.82-6.97,18.38-.18.57.21,1.1.58,1.44,1.56,1.48,5.27,2.33,8.55,1.11l.5,1.33c-1.26.47-2.57.67-3.82.67Z"/>
      </g>
      <g>
        <circle cx="1542.62" cy="573.29" r="4.45"/>
        <circle cx="1500.28" cy="573.29" r="4.45"/>
        <path d="m1523.47,546.97s2.33.9,12.78.9,15.1,1.47,14.9,0c-.82-6.3-19.45-9.46-22.57-8.78-3.12.68-6.4,3.83-5.11,7.88Z"/>
        <path d="m1507.05,546.97s-2.33.9-12.78.9-15.1,1.47-14.9,0c.82-6.3,19.45-9.46,22.57-8.78,3.12.68,6.4,3.83,5.11,7.88Z"/>
        <path d="m1517.79,609.13s11.82-1.17,19.92-5.99c0,0-1.98,14.24-19.92,5.99Z"/>
        <path d="m1516.53,600.65c-2.78,0-5.33-.93-6.71-2.26-1-.96-1.37-2.07-1.03-3.14.89-2.8,7.53-19.86,7.56-19.94l1.45.52c-.03.08-6.66,17.12-7.54,19.89-.19.61.23,1.19.62,1.56,1.69,1.61,5.7,2.52,9.25,1.2l.54,1.44c-1.36.51-2.78.73-4.14.73Z"/>
      </g>
      <g>
        <circle cx="1377.98" cy="557.36" r="3.71"/>
        <circle cx="1342.65" cy="557.36" r="3.71"/>
        <path d="m1362,535.4s1.94.75,10.66.75,12.59,1.22,12.44,0c-.69-5.26-16.23-7.89-18.83-7.33-2.6.56-5.34,3.19-4.27,6.58Z"/>
        <path d="m1348.3,535.4s-1.94.75-10.66.75c-8.72,0-12.59,1.22-12.44,0,.69-5.26,16.23-7.89,18.83-7.33s5.34,3.19,4.27,6.58Z"/>
        <path d="m1357.26,587.26s9.87-.98,16.62-5c0,0-1.65,11.88-16.62,5Z"/>
        <path d="m1356.21,580.19c-2.32,0-4.44-.78-5.6-1.88-.84-.8-1.14-1.73-.86-2.62.74-2.33,6.28-16.57,6.31-16.64l1.21.43c-.03.07-5.56,14.28-6.29,16.59-.16.51.19.99.52,1.3,1.41,1.34,4.76,2.1,7.72,1l.45,1.2c-1.14.42-2.32.61-3.45.61Z"/>
      </g>
      <g>
        <g>
          <path class="cls-37" d="m663.31,482.01c0,2.82,2.28,5.1,5.1,5.1,2.82,0,5.1-2.28,5.1-5.1,0-2.82-2.28-5.1-5.1-5.1s-5.1,2.28-5.1,5.1Z"/>
          <path class="cls-37" d="m616.1,482.01c0,2.82,2.28,5.1,5.1,5.1,2.82,0,5.1-2.28,5.1-5.1,0-2.82-2.28-5.1-5.1-5.1-2.82,0-5.1,2.28-5.1,5.1Z"/>
        </g>
        <path class="cls-5" d="m647.36,493.12v6.88c0,1.73-1.55,3.03-3.19,2.69l-3.66-.77"/>
        <path class="cls-37" d="m653.26,466.21l30.9,3.71s-2.48-8.2-15.11-9.6c-12.63-1.41-15.79,5.89-15.79,5.89Z"/>
        <path class="cls-37" d="m635.44,466.21l-30.9,3.71s2.48-8.2,15.11-9.6c12.63-1.41,15.8,5.89,15.8,5.89Z"/>
        <path class="cls-14" d="m660.25,510.58h-31.2s-.53,11.61,15.64,10.93c16.17-.68,15.56-10.93,15.56-10.93Z"/>
      </g>
      <g>
        <g>
          <path class="cls-37" d="m1096.62,1203.57c0,2.15-1.74,3.89-3.89,3.89s-3.89-1.74-3.89-3.89,1.74-3.89,3.89-3.89,3.89,1.74,3.89,3.89Z"/>
          <path class="cls-37" d="m1132.65,1203.57c0,2.15-1.74,3.89-3.89,3.89s-3.89-1.74-3.89-3.89,1.74-3.89,3.89-3.89,3.89,1.74,3.89,3.89Z"/>
        </g>
        <path class="cls-11" d="m1108.79,1212.05v5.25c0,1.32,1.18,2.32,2.44,2.05l2.79-.59"/>
        <path class="cls-37" d="m1104.29,1191.51l-23.59,2.83s1.89-6.26,11.53-7.33c9.64-1.07,12.06,4.5,12.06,4.5Z"/>
        <path class="cls-37" d="m1117.89,1191.51l23.59,2.83s-1.89-6.26-11.53-7.33c-9.64-1.07-12.06,4.5-12.06,4.5Z"/>
        <path class="cls-14" d="m1098.96,1225.38h23.81s.4,8.86-11.94,8.34c-12.34-.52-11.87-8.34-11.87-8.34Z"/>
      </g>
      <g>
        <g>
          <path class="cls-37" d="m1270.13,1205.31c0,2.15-1.74,3.89-3.89,3.89s-3.89-1.74-3.89-3.89,1.74-3.89,3.89-3.89,3.89,1.74,3.89,3.89Z"/>
          <path class="cls-37" d="m1306.16,1205.31c0,2.15-1.74,3.89-3.89,3.89s-3.89-1.74-3.89-3.89,1.74-3.89,3.89-3.89,3.89,1.74,3.89,3.89Z"/>
        </g>
        <path class="cls-11" d="m1282.3,1213.79v5.25c0,1.32,1.18,2.32,2.44,2.05l2.79-.59"/>
        <path class="cls-37" d="m1277.8,1193.25l-23.59,2.83s1.89-6.26,11.53-7.33c9.64-1.07,12.06,4.5,12.06,4.5Z"/>
        <path class="cls-37" d="m1291.4,1193.25l23.59,2.83s-1.89-6.26-11.53-7.33c-9.64-1.07-12.06,4.5-12.06,4.5Z"/>
        <path class="cls-14" d="m1272.47,1227.12h23.81s.4,8.86-11.94,8.34c-12.34-.52-11.87-8.34-11.87-8.34Z"/>
      </g>
      <g>
        <g>
          <path class="cls-37" d="m902.24,1202.46c0,2.15-1.74,3.89-3.89,3.89s-3.89-1.74-3.89-3.89,1.74-3.89,3.89-3.89,3.89,1.74,3.89,3.89Z"/>
          <path class="cls-37" d="m938.27,1202.46c0,2.15-1.74,3.89-3.89,3.89s-3.89-1.74-3.89-3.89,1.74-3.89,3.89-3.89,3.89,1.74,3.89,3.89Z"/>
        </g>
        <path class="cls-11" d="m914.41,1210.94v5.25c0,1.32,1.18,2.32,2.44,2.05l2.79-.59"/>
        <path class="cls-37" d="m909.91,1190.41l-23.59,2.83s1.89-6.26,11.53-7.33c9.64-1.07,12.06,4.5,12.06,4.5Z"/>
        <path class="cls-37" d="m923.51,1190.41l23.59,2.83s-1.89-6.26-11.53-7.33c-9.64-1.07-12.06,4.5-12.06,4.5Z"/>
        <path class="cls-14" d="m904.58,1224.27h23.81s.4,8.86-11.94,8.34c-12.34-.52-11.87-8.34-11.87-8.34Z"/>
      </g>
    </g>
  </g>
</svg>