<?xml version="1.0" encoding="UTF-8"?>
<svg id="Layer_1" data-name="Layer 1" xmlns="http://www.w3.org/2000/svg" viewBox="0 0 2000 2000">
  <defs>
    <style>
      .cls-1, .cls-2 {
        opacity: .7;
      }

      .cls-3, .cls-2 {
        fill: #fff;
      }

      .cls-4 {
        fill: #d1d1d1;
      }

      .cls-5 {
        fill: #0f1e51;
      }

      .cls-6 {
        fill: none;
        stroke: #8ec0f5;
        stroke-linecap: round;
        stroke-linejoin: round;
        stroke-width: 7.69px;
      }

      .cls-7 {
        fill: #0b5b07;
      }

      .cls-8 {
        fill: #d1edfc;
      }

      .cls-9 {
        fill: #fcfcfc;
      }
    </style>
  </defs>
  <path class="cls-8" d="m1737,1000c0,114.46-26.09,222.82-72.65,319.47-119.02,247.05-371.77,417.53-664.35,417.53s-545.33-170.48-664.35-417.53c-46.56-96.65-72.65-205.01-72.65-319.47,0-407.03,329.97-737,737-737s737,329.97,737,737Z"/>
  <path class="cls-3" d="m646.77,1050.16v-2.58c6.64,0,13.34-.31,19.91-.92l.24,2.57c-6.65.61-13.43.92-20.15.93Zm-20.15-.9c-6.69-.61-13.41-1.53-19.98-2.75l.47-2.53c6.5,1.2,13.14,2.12,19.75,2.72l-.23,2.57Zm60.28-2.8l-.47-2.53c6.51-1.21,13.04-2.75,19.41-4.56l.71,2.48c-6.44,1.83-13.05,3.38-19.64,4.61Zm-99.91-4.54c-6.44-1.83-12.88-3.98-19.14-6.39l.93-2.4c6.18,2.39,12.54,4.52,18.91,6.32l-.7,2.48Zm138.68-6.49l-.93-2.4c6.17-2.4,12.3-5.11,18.23-8.07l1.15,2.3c-5.99,2.99-12.2,5.74-18.45,8.16Zm-176.28-8.06c-6-2.99-11.93-6.29-17.63-9.82l1.36-2.19c5.63,3.49,11.49,6.75,17.42,9.71l-1.15,2.31Zm212.33-9.95l-1.36-2.19c5.62-3.49,11.15-7.29,16.44-11.29l1.55,2.05c-5.35,4.05-10.94,7.89-16.63,11.42Zm-246.61-11.28c-5.35-4.04-10.57-8.37-15.53-12.89l1.73-1.9c4.9,4.46,10.06,8.75,15.34,12.74l-1.55,2.05Zm278.75-13.05l-1.74-1.9c4.89-4.46,9.63-9.21,14.1-14.1l1.9,1.74c-4.51,4.95-9.31,9.75-14.26,14.27Zm-308.56-14.09c-4.52-4.95-8.87-10.17-12.91-15.5l2.05-1.56c4,5.28,8.29,10.43,12.76,15.32l-1.9,1.74Zm335.72-15.69l-2.05-1.55c4-5.29,7.79-10.82,11.28-16.44l2.19,1.36c-3.53,5.69-7.37,11.29-11.41,16.64Zm-360.06-16.43c-3.54-5.69-6.85-11.62-9.85-17.61l2.3-1.15c2.96,5.92,6.24,11.77,9.73,17.4l-2.19,1.36Zm381.3-17.83l-2.31-1.15c2.96-5.93,5.67-12.07,8.06-18.24l2.4.93c-2.42,6.25-5.16,12.46-8.16,18.46Zm-399.33-18.22c-2.43-6.25-4.59-12.68-6.43-19.12l2.48-.71c1.82,6.37,3.95,12.72,6.35,18.9l-2.4.93Zm413.89-19.37l-2.48-.7c1.81-6.37,3.34-12.9,4.55-19.41l2.53.47c-1.22,6.59-2.77,13.2-4.6,19.64Zm-424.94-19.39c-1.23-6.58-2.17-13.3-2.78-19.98l2.57-.24c.61,6.6,1.54,13.25,2.75,19.74l-2.53.47Zm432.3-20.23l-2.57-.23c.6-6.57.91-13.27.91-19.91v-.5s2.58,0,2.58,0v.5c0,6.72-.31,13.5-.92,20.15Zm-433.45-19.9h-2.58v-.25c0-6.63.3-13.33.89-19.9l2.57.23c-.59,6.49-.88,13.11-.88,19.67v.25Zm430.84-20.67c-.62-6.6-1.55-13.24-2.77-19.74l2.53-.48c1.24,6.57,2.18,13.3,2.81,19.98l-2.57.24Zm-427.25-19l-2.53-.47c1.22-6.59,2.76-13.2,4.58-19.65l2.48.7c-1.8,6.37-3.32,12.9-4.52,19.41Zm419.89-20.14c-1.82-6.37-3.97-12.72-6.37-18.89l2.4-.94c2.44,6.24,4.61,12.67,6.45,19.12l-2.48.71Zm-409.06-18.19l-2.4-.93c2.41-6.25,5.15-12.46,8.14-18.47l2.31,1.15c-2.95,5.93-5.65,12.07-8.04,18.25Zm394.58-18.91c-2.97-5.92-6.25-11.77-9.75-17.39l2.19-1.36c3.55,5.69,6.87,11.61,9.87,17.6l-2.3,1.15Zm-376.85-16.76l-2.19-1.36c3.52-5.7,7.36-11.3,11.39-16.65l2.06,1.55c-3.99,5.29-7.78,10.83-11.26,16.46Zm355.78-17.04c-4-5.27-8.3-10.42-12.78-15.31l1.9-1.74c4.53,4.94,8.88,10.15,12.93,15.49l-2.05,1.56Zm-331.79-14.76l-1.91-1.73c4.51-4.96,9.3-9.77,14.25-14.29l1.74,1.9c-4.89,4.47-9.62,9.22-14.08,14.12Zm304.89-14.61c-4.9-4.45-10.07-8.73-15.36-12.72l1.55-2.06c5.35,4.03,10.58,8.36,15.54,12.87l-1.73,1.91Zm-275.49-12.27l-1.56-2.05c5.34-4.05,10.93-7.9,16.62-11.44l1.36,2.19c-5.62,3.5-11.14,7.3-16.42,11.31Zm243.67-11.7c-5.64-3.48-11.5-6.74-17.43-9.68l1.15-2.31c6,2.98,11.93,6.28,17.64,9.8l-1.35,2.19Zm-209.85-9.35l-1.15-2.3c5.99-3,12.2-5.76,18.44-8.19l.94,2.4c-6.17,2.4-12.29,5.12-18.22,8.09Zm174.17-8.36c-6.18-2.38-12.54-4.5-18.92-6.3l.7-2.48c6.45,1.82,12.89,3.96,19.14,6.37l-.93,2.4Zm-137.06-6.09l-.71-2.48c6.44-1.84,13.05-3.4,19.63-4.64l.47,2.53c-6.51,1.22-13.04,2.76-19.4,4.58Zm98.73-4.72c-6.5-1.2-13.15-2.1-19.75-2.69l.23-2.57c6.68.6,13.41,1.52,19.99,2.73l-.47,2.53Zm-59.58-2.63l-.24-2.56c6.65-.62,13.43-.94,20.15-.95v2.58c-6.64.01-13.34.33-19.91.94Z"/>
  <g class="cls-1">
    <path class="cls-3" d="m1096.66,622.68c-81.22-1.72-148.7,62.95-150.42,144.17-1.72,81.22,62.95,148.7,144.17,150.42,81.22,1.72,148.69-62.95,150.42-144.17,1.72-81.22-62.95-148.7-144.17-150.42Zm-.66,258.38h0c-61.35,1.36-112.19-47.26-113.55-108.62h0c-1.36-61.35,47.27-112.19,108.62-113.56h0c61.35-1.36,112.19,47.26,113.56,108.62h0c1.36,61.35-47.27,112.19-108.62,113.56Z"/>
    <path class="cls-3" d="m1337.63,731.91c-2.36-4.32-6.44-4.68-17.43-5.54-13.59-1.06-27.21-1.65-40.77-2.98-2.48-.24-5.85-2.55-6.85-4.78-6.47-14.4-12.12-29.17-18.69-43.52-1.91-4.18-2.19-6.77.78-10.43,10.47-12.89,20.6-26.05,30.84-39.13,1.66-2.12,3.25-4.3,6.06-8.04-18-16.89-35.8-33.59-54.05-50.71-15.27,13.16-29.34,24.9-42.9,37.2-4.78,4.34-8.13,5.39-14.54,2.31-13.09-6.3-27.06-10.77-40.5-16.38-2.06-.86-4.33-3.67-4.65-5.86-2.47-16.67-4.97-33.36-6.41-50.13-.7-8.05-4.1-10.66-11.51-10.39-2.85.1-5.74-.82-8.61-1.27-12.89.29-25.79.57-38.68.86-1.38.46-2.73,1.15-4.15,1.33-14.85,1.9-12.47.68-13.62,14.63-1.39,16.99-2.5,34-3.57,48.76-19.45,8.74-37.63,16.91-56.4,25.35-16.03-12.56-32.79-25.68-49.65-38.89-20.1,15.26-36.21,33.44-50.55,53.86,12.98,14.99,25.59,29.64,38.31,44.19,2.28,2.61,3.12,4.5,1.45,8.31-6.54,14.91-12.7,30.01-18.19,45.33-1.58,4.42-3.57,5.56-7.68,6.04-16.99,2.01-33.93,4.41-50.9,6.48-4.22.52-6.37,1.87-7.01,6.64-2.85,21.4-1.09,42.54,2.5,63.66.71,4.18,3.23,4.74,6.82,4.95,16.58,1.01,33.14,2.42,49.73,3.31,4.78.26,6.95,1.58,8.81,6.51,6.45,17.03,13.9,33.69,21.53,51.84-11.41,14.57-24.37,31.11-37.31,47.64,15.45,20.53,33.03,37.68,53.94,51.68,16.29-14.24,32.13-28.09,46.48-40.63,16.75,5.94,32.17,11.86,47.92,16.75,5.95,1.85,8.3,4.46,8.9,10.57,1.59,16.28,3.82,32.5,5.95,48.73.42,3.21.06,7.42,5.35,7.26,21.52-.64,43.03-1.26,64.55-1.91,4.57-.14,6.12-2.58,6.37-7.1.94-16.83,2.61-33.63,3.26-50.47.25-6.5,3.35-8.5,8.72-10.65,13.27-5.33,26.5-10.95,39.07-17.7,5.42-2.91,8.17-2.63,12.67,1.11,14.47,12,29.41,23.43,43.86,34.84,13.26-7.52,42.97-39.31,51.4-54.78-12.63-14.34-25.26-28.98-38.28-43.25-3.26-3.57-3.04-6.02-1.3-10.27,5.61-13.7,10.25-27.79,15.72-41.54.92-2.31,3.93-5.01,6.28-5.34,14.97-2.15,30.01-3.77,45.05-5.39,8.41-.91,11.8-1.24,13.41-4.45l-1.53-68.64Zm-138.54,148.19c-29.42,28.19-68.05,43.25-108.79,42.38-40.74-.86-78.7-17.54-106.89-46.96-28.2-29.42-43.25-68.05-42.38-108.79.86-40.74,17.54-78.7,46.96-106.9,29.42-28.19,68.05-43.25,108.79-42.38,40.74.86,78.7,17.54,106.9,46.96,28.19,29.42,43.25,68.05,42.38,108.79-.86,40.74-17.54,78.7-46.96,106.9Z"/>
  </g>
  <g class="cls-1">
    <path class="cls-3" d="m700.09,1252.67c-40.71-.86-74.54,31.55-75.4,72.27-.86,40.71,31.56,74.54,72.27,75.4,40.71.86,74.54-31.55,75.4-72.27.86-40.71-31.55-74.54-72.27-75.4Zm-.33,129.52h0c-30.75.68-56.24-23.69-56.92-54.45h0c-.68-30.75,23.69-56.24,54.45-56.92h0c30.75-.68,56.24,23.69,56.92,54.45h0c.68,30.75-23.69,56.24-54.45,56.92Z"/>
    <path class="cls-3" d="m820.88,1307.43c-1.18-2.17-3.23-2.35-8.74-2.78-6.81-.53-13.64-.83-20.44-1.49-1.24-.12-2.93-1.28-3.43-2.4-3.25-7.22-6.08-14.62-9.37-21.81-.96-2.09-1.1-3.4.39-5.23,5.25-6.46,10.33-13.06,15.46-19.61.83-1.06,1.63-2.15,3.04-4.03-9.02-8.47-17.94-16.84-27.09-25.42-7.65,6.6-14.7,12.48-21.5,18.65-2.4,2.17-4.07,2.7-7.29,1.16-6.56-3.16-13.56-5.4-20.3-8.21-1.03-.43-2.17-1.84-2.33-2.94-1.24-8.35-2.49-16.72-3.22-25.13-.35-4.03-2.06-5.34-5.77-5.21-1.43.05-2.88-.41-4.31-.64-6.46.14-12.93.29-19.39.43-.69.23-1.37.58-2.08.67-7.45.95-6.25.34-6.83,7.33-.7,8.52-1.25,17.05-1.79,24.44-9.75,4.38-18.86,8.48-28.27,12.71-8.04-6.29-16.43-12.87-24.89-19.49-10.07,7.65-18.15,16.76-25.34,27,6.5,7.51,12.83,14.86,19.2,22.15,1.14,1.31,1.56,2.26.73,4.17-3.28,7.47-6.37,15.04-9.12,22.72-.79,2.21-1.79,2.79-3.85,3.03-8.51,1.01-17.01,2.21-25.52,3.25-2.11.26-3.19.94-3.51,3.33-1.43,10.73-.55,21.32,1.25,31.91.36,2.1,1.62,2.37,3.42,2.48,8.31.51,16.61,1.21,24.93,1.66,2.4.13,3.48.79,4.42,3.26,3.23,8.54,6.97,16.89,10.79,25.98-5.72,7.31-12.21,15.59-18.7,23.88,7.75,10.29,16.56,18.89,27.04,25.91,8.16-7.14,16.11-14.08,23.3-20.37,8.4,2.98,16.13,5.94,24.02,8.4,2.98.93,4.16,2.23,4.46,5.3.8,8.16,1.91,16.29,2.98,24.43.21,1.61.03,3.72,2.68,3.64,10.78-.32,21.57-.63,32.36-.96,2.29-.07,3.07-1.29,3.2-3.56.47-8.44,1.31-16.86,1.63-25.3.13-3.26,1.68-4.26,4.37-5.34,6.65-2.67,13.28-5.49,19.59-8.87,2.72-1.46,4.1-1.32,6.35.56,7.25,6.02,14.74,11.75,21.98,17.46,6.65-3.77,21.54-19.7,25.77-27.46-6.33-7.19-12.66-14.53-19.19-21.68-1.63-1.79-1.52-3.02-.65-5.15,2.81-6.87,5.14-13.93,7.88-20.82.46-1.16,1.97-2.51,3.15-2.68,7.5-1.08,15.04-1.89,22.58-2.7,4.21-.45,5.92-.62,6.72-2.23l-.77-34.41Zm-69.45,74.28c-14.74,14.13-34.11,21.68-54.53,21.24-20.42-.43-39.45-8.79-53.58-23.54-14.13-14.75-21.68-34.11-21.24-54.53.43-20.42,8.79-39.45,23.54-53.58,14.75-14.13,34.11-21.68,54.53-21.24,20.42.43,39.45,8.79,53.58,23.54,14.13,14.75,21.68,34.11,21.24,54.53-.43,20.42-8.79,39.45-23.54,53.58Z"/>
  </g>
  <g>
    <g>
      <path class="cls-4" d="m1166.21,426.64l-11.86,25.17,23.01-7.69,66.43-10.99-45.48-10.03s-24.26-1.7-25.83-.99c-1.57.72-6.28,4.52-6.28,4.52Z"/>
      <polygon class="cls-9" points="1151.69 404.54 1243.79 433.14 1166.21 426.64 1151.69 404.54"/>
      <polygon class="cls-9" points="1187.32 462.49 1169.41 435.48 1243.79 433.14 1187.32 462.49"/>
    </g>
    <g>
      <path class="cls-3" d="m1008.05,480.31c.94-2,2.02-3.99,3.19-5.9,1.08-1.76,2.27-3.5,3.54-5.17l1.81,1.37c-1.22,1.61-2.37,3.29-3.41,4.99-1.13,1.84-2.16,3.75-3.07,5.68-.27.57-.53,1.14-.77,1.71l-2.08-.9c.26-.61.53-1.2.8-1.78Zm16.93-21.89c3.62-3.13,7.67-6.04,12.04-8.67l1.17,1.95c-4.26,2.56-8.21,5.4-11.72,8.44l-1.49-1.72Zm69.99,17.54c-.1-.12-.2-.24-.3-.36l1.77-1.42c.08.11.17.21.24.3,0,0,.05.05.2.14,1.08.66,4.18,1.65,6.25,1.17,1.74-.41,3.34-1.37,4.76-2.85l1.64,1.57c-1.71,1.79-3.75,3-5.89,3.5-2.87.67-6.59-.61-7.95-1.44-.32-.2-.56-.39-.73-.59Zm-44.72-32.87c4.47-1.87,9.17-3.5,13.99-4.84l.61,2.19c-4.72,1.31-9.34,2.91-13.72,4.74l-.88-2.09Zm41.46,13.24c.66-2.08,1.6-4.13,2.81-6.1.65-1.06,1.39-2.12,2.19-3.14l1.78,1.41c-.75.95-1.44,1.93-2.04,2.92-1.11,1.81-1.98,3.7-2.58,5.6-.43,1.35-.72,2.75-.86,4.18l-2.26-.23c.16-1.58.48-3.13.96-4.63Zm13.9-7.71l-.23-.22,1.54-1.67.25.24c3.78,3.58,6.32,8.35,6.97,13.08l-2.25.31c-.58-4.22-2.88-8.5-6.28-11.74Zm-26.5-11.67c2.64.03,7.41.18,9.74.8,1.81.48,3.46.99,5.02,1.54l-.76,2.14c-1.51-.53-3.1-1.02-4.85-1.49-1.53-.41-4.88-.67-9.18-.72l.03-2.27Zm28.88.28c4.24-2.63,8.86-4.63,13.72-5.92l.59,2.19c-4.64,1.24-9.05,3.14-13.1,5.66l-1.2-1.93Z"/>
      <path class="cls-3" d="m1136.47,431.92c2.48.1,4.91.4,7.24.89l.47-2.22c-2.45-.52-5.02-.83-7.62-.93l-.09,2.27Z"/>
    </g>
  </g>
  <path class="cls-2" d="m1527.65,695c-6.05-2.16-12.17-4.1-18.18-6.37-1.1-.42-2.35-1.88-2.53-3.02-1.17-7.34-1.92-14.76-3.15-22.09-.36-2.13-.16-3.35,1.64-4.65,6.35-4.57,12.57-9.31,18.84-14,1.02-.76,2.01-1.56,3.75-2.91-6.11-9.9-12.15-19.68-18.34-29.71-8.56,4.11-16.4,7.72-24.09,11.64-2.71,1.38-4.36,1.45-6.9-.74-5.18-4.47-10.98-8.22-16.4-12.43-.83-.65-1.52-2.2-1.4-3.24.93-7.88,1.84-15.78,3.25-23.59.67-3.75-.55-5.35-3.96-6.14-1.31-.3-2.51-1.08-3.76-1.64-5.9-1.46-11.8-2.91-17.7-4.37-.68.04-1.39.19-2.05.1-6.99-.96-5.76-1.22-7.99,4.98-2.72,7.56-5.32,15.16-7.62,21.74-9.92,1.58-19.19,3.06-28.77,4.59-5.75-7.68-11.75-15.71-17.8-23.79-11.02,4.47-20.58,10.75-29.62,18.28,4.06,8.41,7.99,16.63,11.99,24.81.72,1.47.86,2.43-.36,3.96-4.81,5.98-9.47,12.09-13.85,18.38-1.26,1.81-2.31,2.09-4.24,1.8-7.97-1.18-15.97-2.17-23.95-3.31-1.98-.28-3.13.07-4,2.16-3.93,9.38-5.73,19.21-6.69,29.26-.19,1.99.89,2.55,2.49,3.09,7.42,2.5,14.78,5.18,22.21,7.63,2.14.7,2.96,1.57,3.21,4.05.84,8.54,2.18,17.03,3.42,26.23-6.98,5.22-14.91,11.15-22.83,17.08,4.5,11.24,10.39,21.2,18.17,30.14,9.16-4.47,18.07-8.82,26.14-12.76,6.89,4.76,13.17,9.35,19.73,13.51,2.48,1.57,3.23,3.05,2.74,5.9-1.28,7.6-2.26,15.25-3.29,22.89-.2,1.51-.88,3.38,1.54,3.96,9.86,2.35,19.73,4.72,29.59,7.07,2.1.5,3.1-.42,3.77-2.45,2.5-7.54,5.32-14.97,7.69-22.55.91-2.92,2.57-3.45,5.28-3.77,6.69-.79,13.4-1.72,19.95-3.25,2.82-.66,4.04-.19,5.63,2.06,5.1,7.24,10.49,14.27,15.66,21.24,6.96-1.79,24.38-12.59,30.12-18.59-3.98-8.08-7.92-16.29-12.09-24.38-1.04-2.02-.64-3.11.67-4.83,4.24-5.54,8.08-11.38,12.26-16.96.7-.94,2.4-1.79,3.51-1.66,7.07.86,14.11,1.98,21.15,3.09,3.93.62,5.52.89,6.65-.37l7.75-31.4c-.54-2.26-2.35-2.92-7.25-4.66Zm-57.62,4.49c-6.93,28.07-35.3,45.21-63.37,38.28h0c-28.07-6.93-45.21-35.3-38.28-63.37h0c6.93-28.07,35.3-45.21,63.37-38.28h0c28.07,6.93,45.21,35.3,38.28,63.37h0Z"/>
  <path class="cls-2" d="m1129.33,1411.06c-8.6-3.06-17.31-5.82-25.84-9.06-1.56-.59-3.33-2.67-3.59-4.29-1.67-10.44-2.74-20.98-4.48-31.4-.51-3.03-.23-4.76,2.33-6.61,9.03-6.5,17.87-13.24,26.78-19.9,1.45-1.08,2.85-2.21,5.33-4.14-8.68-14.07-17.27-27.98-26.08-42.24-12.17,5.84-23.32,10.97-34.24,16.55-3.85,1.97-6.2,2.07-9.8-1.05-7.37-6.36-15.61-11.69-23.32-17.67-1.18-.92-2.16-3.13-1.98-4.6,1.32-11.21,2.62-22.43,4.62-33.53.96-5.33-.79-7.61-5.63-8.73-1.86-.43-3.56-1.53-5.34-2.33-8.39-2.07-16.77-4.14-25.16-6.21-.97.05-1.97.27-2.92.14-9.94-1.37-8.18-1.74-11.36,7.08-3.87,10.74-7.57,21.55-10.84,30.9-14.1,2.25-27.28,4.35-40.9,6.53-8.17-10.92-16.71-22.34-25.3-33.82-15.66,6.35-29.26,15.29-42.11,25.98,5.77,11.96,11.36,23.64,17.04,35.27,1.02,2.09,1.23,3.46-.52,5.63-6.83,8.5-13.46,17.18-19.69,26.13-1.8,2.58-3.28,2.97-6.02,2.56-11.33-1.67-22.7-3.08-34.04-4.71-2.82-.4-4.44.1-5.69,3.07-5.59,13.34-8.14,27.31-9.52,41.59-.27,2.83,1.26,3.63,3.54,4.39,10.55,3.55,21.01,7.36,31.57,10.84,3.04,1,4.21,2.24,4.56,5.75,1.19,12.14,3.09,24.21,4.86,37.28-9.93,7.43-21.19,15.85-32.46,24.28,6.4,15.98,14.76,30.14,25.84,42.85,13.02-6.36,25.68-12.54,37.16-18.14,9.79,6.77,18.73,13.29,28.05,19.21,3.52,2.24,4.59,4.33,3.9,8.39-1.82,10.81-3.21,21.68-4.67,32.55-.29,2.15-1.26,4.81,2.19,5.63,14.02,3.35,28.04,6.71,42.07,10.05,2.98.71,4.41-.6,5.36-3.48,3.55-10.72,7.57-21.29,10.93-32.06,1.3-4.16,3.65-4.91,7.5-5.36,9.51-1.12,19.05-2.45,28.36-4.61,4.01-.93,5.74-.27,8,2.93,7.25,10.29,14.92,20.29,22.26,30.2,9.89-2.54,34.66-17.9,42.81-26.43-5.66-11.48-11.26-23.15-17.19-34.66-1.48-2.88-.91-4.43.95-6.87,6.02-7.87,11.49-16.17,17.43-24.11,1-1.33,3.42-2.55,5-2.36,10.05,1.23,20.06,2.81,30.07,4.39,5.59.88,7.85,1.26,9.45-.53l11.02-44.64c-.77-3.21-3.34-4.15-10.3-6.63Zm-81.92,6.38c-9.85,39.9-50.18,64.27-90.08,54.42h0c-39.91-9.85-64.27-50.18-54.42-90.08h0c9.85-39.9,50.18-64.27,90.08-54.42h0c39.9,9.85,64.27,50.18,54.42,90.08h0Z"/>
  <g>
    <path class="cls-3" d="m1496.22,1324.31v-1.52c3.93,0,7.88-.18,11.77-.54l.14,1.52c-3.93.36-7.93.55-11.91.55Zm-11.91-.54c-3.95-.36-7.92-.91-11.81-1.62l.28-1.5c3.84.71,7.77,1.25,11.67,1.61l-.14,1.52Zm35.62-1.65l-.28-1.5c3.85-.72,7.71-1.62,11.47-2.69l.42,1.46c-3.81,1.08-7.71,2-11.6,2.72Zm-59.04-2.68c-3.81-1.08-7.61-2.35-11.31-3.78l.55-1.42c3.65,1.41,7.41,2.67,11.17,3.73l-.42,1.46Zm81.94-3.83l-.55-1.42c3.65-1.42,7.27-3.02,10.77-4.77l.68,1.36c-3.54,1.77-7.21,3.39-10.9,4.82Zm-104.16-4.76c-3.54-1.76-7.05-3.72-10.42-5.8l.8-1.29c3.33,2.06,6.79,3.99,10.29,5.73l-.68,1.36Zm125.47-5.88l-.8-1.29c3.32-2.06,6.59-4.31,9.71-6.67l.92,1.21c-3.16,2.39-6.47,4.66-9.83,6.75Zm-145.72-6.66c-3.16-2.38-6.25-4.95-9.18-7.61l1.02-1.13c2.9,2.64,5.95,5.17,9.07,7.52l-.92,1.21Zm164.71-7.71l-1.03-1.12c2.89-2.64,5.69-5.44,8.33-8.33l1.12,1.03c-2.67,2.93-5.5,5.76-8.43,8.43Zm-182.33-8.33c-2.67-2.92-5.24-6.01-7.63-9.16l1.21-.92c2.36,3.12,4.9,6.16,7.54,9.05l-1.12,1.03Zm198.37-9.27l-1.21-.92c2.36-3.12,4.6-6.39,6.67-9.72l1.29.8c-2.09,3.36-4.36,6.67-6.74,9.83Zm-212.76-9.71c-2.09-3.36-4.05-6.87-5.82-10.4l1.36-.68c1.75,3.5,3.68,6.96,5.75,10.28l-1.29.8Zm225.31-10.53l-1.36-.68c1.75-3.5,3.35-7.13,4.76-10.78l1.42.55c-1.43,3.69-3.05,7.36-4.82,10.91Zm-235.96-10.77c-1.44-3.69-2.71-7.49-3.8-11.3l1.46-.42c1.07,3.76,2.34,7.52,3.75,11.17l-1.42.55Zm244.57-11.44l-1.46-.42c1.07-3.76,1.97-7.62,2.69-11.47l1.5.28c-.72,3.9-1.64,7.8-2.72,11.61Zm-251.1-11.46c-.73-3.89-1.28-7.86-1.65-11.81l1.52-.14c.36,3.9.91,7.83,1.63,11.67l-1.5.28Zm255.45-11.96l-1.52-.14c.35-3.88.54-7.84.54-11.77v-.3s1.52,0,1.52,0v.3c0,3.97-.18,7.98-.54,11.91Zm-256.13-11.76h-1.52v-.15c0-3.92.18-7.87.53-11.76l1.52.14c-.35,3.84-.52,7.75-.52,11.62v.15Zm254.58-12.21c-.37-3.9-.92-7.83-1.64-11.66l1.49-.28c.73,3.89,1.29,7.86,1.66,11.8l-1.51.14Zm-252.46-11.23l-1.5-.28c.72-3.9,1.63-7.8,2.7-11.61l1.47.41c-1.06,3.76-1.96,7.62-2.67,11.47Zm248.11-11.9c-1.08-3.76-2.34-7.52-3.77-11.16l1.42-.55c1.44,3.69,2.72,7.49,3.81,11.3l-1.46.42Zm-241.71-10.75l-1.42-.55c1.43-3.69,3.04-7.36,4.81-10.91l1.36.68c-1.74,3.51-3.34,7.13-4.75,10.78Zm233.16-11.18c-1.75-3.5-3.69-6.95-5.76-10.27l1.29-.8c2.1,3.36,4.06,6.86,5.83,10.4l-1.36.68Zm-222.68-9.9l-1.29-.8c2.08-3.37,4.35-6.68,6.73-9.84l1.21.92c-2.36,3.13-4.6,6.4-6.65,9.72Zm210.23-10.07c-2.37-3.11-4.91-6.16-7.55-9.05l1.12-1.03c2.67,2.92,5.25,6,7.64,9.15l-1.21.92Zm-196.05-8.72l-1.13-1.02c2.67-2.93,5.5-5.77,8.42-8.44l1.03,1.12c-2.89,2.64-5.69,5.45-8.32,8.34Zm180.16-8.64c-2.9-2.63-5.95-5.16-9.08-7.51l.92-1.22c3.16,2.38,6.25,4.94,9.18,7.6l-1.02,1.13Zm-162.79-7.25l-.92-1.21c3.16-2.39,6.46-4.67,9.82-6.76l.8,1.29c-3.32,2.07-6.58,4.32-9.7,6.68Zm143.98-6.91c-3.33-2.06-6.8-3.98-10.3-5.72l.68-1.36c3.54,1.76,7.05,3.71,10.42,5.79l-.8,1.3Zm-124-5.53l-.68-1.36c3.54-1.77,7.21-3.4,10.89-4.84l.55,1.42c-3.64,1.42-7.27,3.03-10.76,4.78Zm102.92-4.94c-3.65-1.41-7.41-2.66-11.18-3.72l.41-1.46c3.81,1.07,7.62,2.34,11.31,3.77l-.55,1.42Zm-80.99-3.6l-.42-1.46c3.81-1.09,7.71-2.01,11.6-2.74l.28,1.5c-3.85.72-7.7,1.63-11.46,2.71Zm58.34-2.79c-3.84-.71-7.77-1.24-11.67-1.59l.14-1.52c3.95.35,7.92.9,11.81,1.61l-.28,1.5Zm-35.21-1.55l-.14-1.51c3.93-.37,7.94-.56,11.91-.56v1.52c-3.92,0-7.88.19-11.77.56Z"/>
    <path class="cls-3" d="m1434.36,1257.8v-2.04c5.26,0,10.57-.25,15.78-.73l.19,2.03c-5.27.49-10.64.73-15.97.74Zm-15.97-.72c-5.3-.48-10.63-1.21-15.84-2.18l.37-2.01c5.15.95,10.41,1.68,15.65,2.15l-.19,2.03Zm47.77-2.22l-.37-2.01c5.16-.96,10.33-2.18,15.38-3.61l.56,1.96c-5.11,1.45-10.34,2.68-15.56,3.65Zm-79.18-3.6c-5.11-1.45-10.21-3.15-15.16-5.07l.74-1.9c4.9,1.89,9.94,3.58,14.98,5.01l-.56,1.96Zm109.9-5.14l-.74-1.9c4.89-1.9,9.75-4.05,14.44-6.39l.91,1.83c-4.75,2.37-9.67,4.55-14.62,6.47Zm-139.69-6.38c-4.75-2.37-9.45-4.98-13.97-7.78l1.07-1.74c4.46,2.77,9.11,5.35,13.8,7.69l-.91,1.83Zm168.27-7.88l-1.08-1.73c4.45-2.76,8.83-5.77,13.02-8.94l1.23,1.63c-4.24,3.21-8.67,6.25-13.18,9.05Zm-195.43-8.94c-4.24-3.2-8.38-6.63-12.3-10.21l1.37-1.51c3.88,3.54,7.97,6.93,12.16,10.09l-1.23,1.63Zm220.9-10.34l-1.38-1.51c3.88-3.54,7.64-7.3,11.17-11.18l1.51,1.38c-3.58,3.92-7.38,7.73-11.3,11.31Zm-244.52-11.17c-3.58-3.92-7.03-8.06-10.23-12.29l1.63-1.23c3.17,4.18,6.57,8.27,10.11,12.14l-1.51,1.38Zm266.04-12.44l-1.63-1.23c3.17-4.19,6.17-8.57,8.94-13.03l1.73,1.08c-2.8,4.51-5.84,8.95-9.05,13.19Zm-285.33-13.02c-2.8-4.51-5.43-9.21-7.8-13.95l1.83-.91c2.35,4.69,4.94,9.33,7.71,13.79l-1.73,1.08Zm302.17-14.13l-1.83-.91c2.34-4.7,4.49-9.56,6.39-14.45l1.9.74c-1.92,4.95-4.09,9.87-6.46,14.63Zm-316.45-14.44c-1.92-4.95-3.64-10.05-5.09-15.16l1.96-.56c1.44,5.04,3.13,10.08,5.03,14.97l-1.9.74Zm328-15.35l-1.96-.56c1.43-5.04,2.64-10.22,3.6-15.38l2.01.37c-.97,5.22-2.2,10.46-3.65,15.57Zm-336.75-15.37c-.97-5.21-1.72-10.54-2.21-15.83l2.03-.19c.48,5.23,1.22,10.5,2.18,15.65l-2.01.38Zm342.59-16.03l-2.03-.19c.48-5.21.72-10.52.72-15.78v-.4s2.04,0,2.04,0v.4c0,5.33-.24,10.7-.73,15.97Zm-343.5-15.77h-2.04v-.2c0-5.26.24-10.56.71-15.77l2.03.18c-.46,5.15-.7,10.39-.7,15.58v.2Zm341.43-16.38c-.49-5.23-1.23-10.49-2.2-15.64l2.01-.38c.98,5.21,1.73,10.54,2.23,15.83l-2.03.19Zm-338.58-15.06l-2.01-.37c.96-5.23,2.18-10.46,3.63-15.57l1.96.56c-1.43,5.05-2.63,10.22-3.58,15.39Zm332.75-15.96c-1.44-5.04-3.14-10.08-5.05-14.97l1.9-.74c1.93,4.95,3.65,10.04,5.11,15.15l-1.96.56Zm-324.16-14.41l-1.9-.74c1.91-4.95,4.08-9.88,6.45-14.63l1.83.91c-2.34,4.7-4.48,9.57-6.37,14.46Zm312.69-14.99c-2.35-4.69-4.95-9.32-7.73-13.78l1.73-1.08c2.81,4.51,5.44,9.2,7.82,13.94l-1.83.91Zm-298.64-13.28l-1.74-1.07c2.79-4.51,5.83-8.95,9.03-13.2l1.63,1.23c-3.16,4.19-6.16,8.58-8.92,13.04Zm281.94-13.51c-3.17-4.18-6.58-8.26-10.13-12.13l1.51-1.38c3.59,3.92,7.03,8.05,10.25,12.28l-1.63,1.23Zm-262.94-11.7l-1.51-1.37c3.57-3.93,7.37-7.74,11.29-11.32l1.38,1.51c-3.87,3.54-7.63,7.31-11.16,11.19Zm241.61-11.58c-3.89-3.53-7.98-6.92-12.17-10.08l1.23-1.63c4.24,3.19,8.38,6.62,12.32,10.2l-1.37,1.51Zm-218.32-9.73l-1.23-1.63c4.23-3.21,8.66-6.26,13.17-9.07l1.08,1.73c-4.45,2.77-8.83,5.79-13.01,8.96Zm193.1-9.27c-4.47-2.76-9.12-5.34-13.81-7.67l.91-1.83c4.75,2.36,9.46,4.97,13.98,7.77l-1.07,1.74Zm-166.3-7.41l-.91-1.82c4.75-2.38,9.67-4.56,14.61-6.49l.74,1.9c-4.89,1.9-9.74,4.06-14.44,6.41Zm138.02-6.62c-4.9-1.89-9.94-3.57-14.99-4.99l.55-1.96c5.11,1.44,10.21,3.14,15.17,5.05l-.73,1.91Zm-108.61-4.83l-.56-1.96c5.1-1.46,10.34-2.69,15.56-3.67l.38,2.01c-5.16.97-10.33,2.19-15.38,3.63Zm78.24-3.74c-5.15-.95-10.42-1.67-15.65-2.14l.18-2.03c5.3.47,10.63,1.2,15.84,2.16l-.37,2.01Zm-47.22-2.08l-.19-2.03c5.27-.49,10.64-.74,15.97-.75v2.04c-5.26,0-10.57.26-15.78.75Z"/>
    <path class="cls-3" d="m1430.01,1087.45l5.91-10.85-5.56-11.03c-.63-1.26.45-2.7,1.83-2.44l12.12,2.28,8.75-8.71c1-.99,2.7-.41,2.87.99l1.58,12.26,10.97,5.65c1.25.64,1.22,2.44-.05,3.05l-11.14,5.29-1.97,12.2c-.22,1.39-1.94,1.92-2.9.9l-8.46-8.99-12.18,1.9c-1.39.22-2.42-1.26-1.75-2.49Z"/>
    <path class="cls-3" d="m1440.2,981.02l3.04-4.93-2.44-.99c-.53-.22-.79-.83-.57-1.36h0c.22-.53.82-.79,1.36-.57l2.81,1.14,2.72-4.43-2.61-1.06c-.53-.22-.79-.83-.57-1.36h0c.22-.53.82-.79,1.36-.57l2.98,1.21,3.15-5.07c.27-.43.81-.61,1.28-.42l.45.18c.6.24.83.96.5,1.51l-2.93,4.79,4.32,1.75,3.15-5.07c.27-.43.81-.61,1.28-.42l.5.2c.6.24.83.96.5,1.51l-2.93,4.79,2.44.99c.53.22.79.82.57,1.36h0c-.22.53-.82.79-1.36.57l-2.81-1.14-2.67,4.45,2.61,1.06c.53.22.79.82.57,1.36h0c-.22.53-.83.79-1.36.57l-2.98-1.21-3.22,5.23c-.27.43-.81.61-1.28.42l-.53-.22c-.6-.24-.83-.96-.5-1.51l3.04-4.93-4.32-1.75-3.22,5.23c-.27.43-.81.61-1.28.42l-.53-.22c-.6-.24-.83-.96-.5-1.51Zm11.01-3.95l2.72-4.43-4.32-1.75-2.72,4.43,4.32,1.75Z"/>
    <path class="cls-3" d="m1603.64,884.54c10.62,9.23,3.65,16.07-.53,13.61-1.79-1.06-2.32-3.39-.75-4.88.72-.68,2.19-.11,2.05.95-.12.88.86.92,1.08-.04.29-1.28-.83-2.59-1.56-3.52-1.68-2.19-3.83-5.05-6.91-4.94-4.6.16-8.57,5.57-4.79,11.9,5.45,9.14,21.34,5.92,22.22-4.93.48-5.9-2.95-11.56-8.18-14.23-1.02-.52-.17-1.91.8-1.71,7.35,1.58,11.48,9.94,10.29,17.02-1.22,7.27-7.84,11.92-14.97,12.1-7.48.19-14.62-5.02-15.15-12.8-.58-8.52,8.96-15.01,16.39-8.55Z"/>
  </g>
  <g>
    <g>
      <path class="cls-5" d="m674.42,640.41h651.16c40.57,0,73.51,32.94,73.51,73.51v572.16c0,40.57-32.94,73.51-73.51,73.51h-651.16c-40.57,0-73.51-32.94-73.51-73.51v-572.16c0-40.57,32.94-73.51,73.51-73.51Z"/>
      <path class="cls-6" d="m707.67,688.31h595.98c23.33,0,42.28,18.94,42.28,42.28v527.51c0,29.58-24.01,53.59-53.59,53.59h-584.67c-29.58,0-53.59-24.01-53.59-53.59v-516.19c0-29.58,24.01-53.59,53.59-53.59Z"/>
      <g>
        <g>
          <rect class="cls-7" x="1105.33" y="525.96" width="37.87" height="114.45" transform="translate(2248.54 1166.37) rotate(180)"/>
          <rect class="cls-7" x="1022.49" y="525.96" width="37.87" height="114.45" transform="translate(2082.85 1166.37) rotate(180)"/>
          <rect class="cls-7" x="939.64" y="525.96" width="37.87" height="114.45" transform="translate(1917.15 1166.37) rotate(180)"/>
          <rect class="cls-7" x="856.8" y="525.96" width="37.87" height="114.45" transform="translate(1751.46 1166.37) rotate(180)"/>
        </g>
        <g>
          <rect class="cls-7" x="856.8" y="1359.59" width="37.87" height="114.45"/>
          <rect class="cls-7" x="939.64" y="1359.59" width="37.87" height="114.45"/>
          <rect class="cls-7" x="1022.49" y="1359.59" width="37.87" height="114.45"/>
          <rect class="cls-7" x="1105.33" y="1359.59" width="37.87" height="114.45"/>
        </g>
      </g>
      <g>
        <g>
          <rect class="cls-5" x="524.75" y="818.51" width="37.87" height="114.45" transform="translate(1419.42 332.05) rotate(90)"/>
          <rect class="cls-5" x="524.75" y="901.35" width="37.87" height="114.45" transform="translate(1502.26 414.89) rotate(90)"/>
          <rect class="cls-5" x="524.75" y="984.2" width="37.87" height="114.45" transform="translate(1585.11 497.74) rotate(90)"/>
          <rect class="cls-5" x="524.75" y="1067.04" width="37.87" height="114.45" transform="translate(1667.95 580.58) rotate(90)"/>
        </g>
        <g>
          <rect class="cls-5" x="1437.38" y="1067.04" width="37.87" height="114.45" transform="translate(332.05 2580.58) rotate(-90)"/>
          <rect class="cls-5" x="1437.38" y="984.2" width="37.87" height="114.45" transform="translate(414.89 2497.74) rotate(-90)"/>
          <rect class="cls-5" x="1437.38" y="901.35" width="37.87" height="114.45" transform="translate(497.74 2414.89) rotate(-90)"/>
          <rect class="cls-5" x="1437.38" y="818.51" width="37.87" height="114.45" transform="translate(580.58 2332.05) rotate(-90)"/>
        </g>
      </g>
    </g>
    <g>
      <path class="cls-3" d="m890.11,1068.28h-94.45l-17.55,43.39h-64.45l98.59-223.35h62.22l98.91,223.35h-65.73l-17.55-43.39Zm-18.51-46.58l-28.72-71.47-28.72,71.47h57.43Z"/>
      <path class="cls-3" d="m1192.55,970.97c0,50.73-38.28,82.32-99.22,82.32h-38.93v58.39h-63.17v-223.35h102.1c60.94,0,99.22,31.59,99.22,82.64Zm-63.81,0c0-20.74-13.08-32.86-39.25-32.86h-35.09v65.41h35.09c26.17,0,39.25-12.12,39.25-32.54Z"/>
      <path class="cls-3" d="m1223.17,888.33h63.17v223.35h-63.17v-223.35Z"/>
    </g>
  </g>
</svg>