<?xml version="1.0" encoding="UTF-8"?>
<svg id="Layer_1" data-name="Layer 1" xmlns="http://www.w3.org/2000/svg" xmlns:xlink="http://www.w3.org/1999/xlink" viewBox="0 0 2000 2000">
  <defs>
    <style>
      .cls-1 {
        fill: #46332f;
      }

      .cls-2 {
        fill: #95a1b0;
      }

      .cls-3 {
        fill: #f5b58f;
      }

      .cls-4 {
        fill: #d4d9df;
      }

      .cls-5 {
        opacity: .5;
      }

      .cls-6 {
        fill: #f1d9d5;
      }

      .cls-7 {
        fill: #bd3e6f;
      }

      .cls-8 {
        fill: #fff6eb;
      }

      .cls-9 {
        clip-path: url(#clippath-2);
      }

      .cls-10 {
        fill: #d7cdc7;
      }

      .cls-11 {
        fill: #1c2040;
      }

      .cls-12 {
        fill: #feecd5;
      }

      .cls-13 {
        fill: #a2a9b2;
      }

      .cls-14 {
        fill: #331b19;
      }

      .cls-15 {
        fill: #a7b0ba;
      }

      .cls-16 {
        fill: #3d577a;
      }

      .cls-17 {
        fill: #fff8ef;
      }

      .cls-18 {
        fill: #f0ad82;
      }

      .cls-19 {
        fill: #cc7646;
      }

      .cls-20 {
        fill: #ffbb8e;
      }

      .cls-21 {
        fill: #f7b690;
      }

      .cls-22 {
        clip-path: url(#clippath);
      }

      .cls-23 {
        fill: #de8768;
      }

      .cls-24 {
        fill: none;
      }

      .cls-25 {
        fill: #232850;
      }

      .cls-26 {
        clip-path: url(#clippath-3);
      }

      .cls-27 {
        fill: #fcf5e3;
      }

      .cls-28 {
        fill: #47668f;
      }

      .cls-29 {
        fill: #89797e;
      }

      .cls-30 {
        fill: #336b2e;
      }

      .cls-31 {
        fill: #f8c790;
      }

      .cls-32 {
        fill: url(#_Áåçûìÿííûé_ãðàäèåíò_12);
      }

      .cls-33 {
        fill: #0b5b07;
      }

      .cls-34 {
        fill: #a1c9de;
      }

      .cls-35 {
        fill: #fdd19d;
      }

      .cls-36 {
        fill: #fee5c6;
      }

      .cls-37 {
        fill: #d1edfc;
      }
    </style>
    <clipPath id="clippath">
      <path class="cls-24" d="m1737,1000c0,114.46-26.09,222.82-72.65,319.47-119.02,247.05-371.77,417.53-664.35,417.53s-545.33-170.48-664.35-417.53c-46.56-96.65-72.65-205.01-72.65-319.47,0-407.03,329.97-737,737-737s737,329.97,737,737Z"/>
    </clipPath>
    <clipPath id="clippath-2">
      <rect class="cls-24" x="329.78" y="780.25" width="229.87" height="229.87" rx="8.07" ry="8.07"/>
    </clipPath>
    <clipPath id="clippath-3">
      <rect class="cls-24" x="607.49" y="567.52" width="627.54" height="358.87" rx="21.15" ry="21.15" transform="translate(174.31 1668.21) rotate(-90)"/>
    </clipPath>
    <radialGradient id="_Áåçûìÿííûé_ãðàäèåíò_12" data-name="Áåçûìÿííûé ãðàäèåíò 12" cx="1316.1" cy="1320.82" fx="1316.1" fy="1320.82" r="126.11" gradientUnits="userSpaceOnUse">
      <stop offset="0" stop-color="#1e2245"/>
      <stop offset="1" stop-color="#232850"/>
    </radialGradient>
  </defs>
  <g class="cls-22">
    <path class="cls-34" d="m1594.73,1435.36c-134.11,182.9-350.56,301.64-594.73,301.64s-460.62-118.74-594.73-301.64h1189.46Z"/>
    <path class="cls-37" d="m1737,1000c0,114.46-26.09,222.82-72.65,319.47-119.02,247.05-371.77,417.53-664.35,417.53s-545.33-170.48-664.35-417.53c-46.56-96.65-72.65-205.01-72.65-319.47,0-407.03,329.97-737,737-737s737,329.97,737,737Z"/>
    <path class="cls-34" d="m1591.09,1440.71c-133.29,179.66-348.42,296.29-591.1,296.29s-457.81-116.63-591.1-296.29h1182.21Z"/>
    <g id="plant3">
      <path class="cls-30" d="m579.24,1458.75c-19.43-8.24-29.32-21.38-31.43-29.35-6.8-25.69,8.31-34.53,12.56-46.55,6.29-17.79-23.24-34.01-24.61-56.73-1.97-32.55,46.18-46.71,47.63-57.14,2.96-21.26-22.59-25.89-22.98-43.36-.6-27.53,28.34-22.03,37.13-40.7,6.12-13,.61-42.48,27.49-48.01,14.92-3.07,25.57,11.19,28.37,23.58,3.23,14.28-5.5,24.56-.55,36.67,5.34,13.08,33.72,24.5,32.44,56.13-1.25,31.08-26.33,43.84-23.12,64.25,1.99,12.67,32.17,9.7,35.85,23.06,4.95,17.95-28.33,32.62-25.03,45.09,3.91,14.75,24.4,14.6,24.4,45.62,0,15.87-20.04,32.06-46.48,27.42-38.42,10.56-67.11,1.94-71.69,0Z"/>
      <path class="cls-33" d="m571.96,1428.28c1.52-3.81,4.39-6.9,6.7-10.29,8.74-12.85,8.73-31.06-.04-43.89-3.16-4.62-27.42-21.12-29.78-26.19-10.83-23.28,39.63-34.35,33-58.31-3.09-11.16-32.7-36.46-27.5-46.81,6.63-13.18,29.22,1.26,34.13-3.87,11.89-12.43-14.09-48.9-8.67-64.48,1.54-4.41,5.67-8.22,10.33-8,7.97.38,11,10.75,10.34,18.7-.66,7.95-2.4,17.2,3.19,22.9,4,4.07,10.25,4.58,15.59,6.57,14.56,5.44,21.96,24.75,14.76,38.53-3.54,6.76-9.69,11.75-14.16,17.93-4.47,6.19-7.09,15-2.75,21.28,3.61,5.24,31.31-1.81,33.76,4.06,5.88,14.11-46.73,43.91-44.32,50.53,1.72,4.73,6.5,7.51,9.89,11.24,7.55,8.28,7.41,22.43-.3,30.57-2.78,2.93-6.31,5.08-8.92,8.16-2.6,3.08-4.11,7.7-2.01,11.14,19.78,13.36,30.86,17.77,21.16,34.15-4.47,7.54-10.33,14.55-18.09,18.62-19.83,10.41-45.12-10.44-36.32-32.54Z"/>
      <path class="cls-23" d="m577.32,1460.67l2.4,4.51s1.62,47.54,13.58,47.54h43.56c11.82,0,13.59-46.94,13.59-46.94l2.4-5.11c0-1.06-.86-1.92-1.92-1.92h-71.69c-1.06,0-1.92.86-1.92,1.92Z"/>
      <path class="cls-18" d="m598.9,1460.67l2.4,4.51s1.62,47.54,13.58,47.54h21.98c11.82,0,13.59-46.94,13.59-46.94l2.4-5.11c0-1.06-.86-1.92-1.92-1.92h-50.11c-1.06,0-1.92.86-1.92,1.92Z"/>
    </g>
    <g id="plant2">
      <path class="cls-30" d="m1744.4,1493.89c23.51-9.97,57.73-41.6,60.29-51.25,8.23-31.09-32.31-26.06-37.45-40.61-7.61-21.53,42.93-56.53,44.6-84.03,2.39-39.39-70.69-41.16-72.45-53.78-3.58-25.73,40.67-55.87,41.13-77.01.73-33.32-47.63-2.12-58.26-24.71-7.41-15.73-.74-51.41-33.27-58.1-18.05-3.71-30.95,13.54-34.34,28.54-3.91,17.28,6.67,57.48.68,72.14-6.47,15.83-60.25-8.2-58.71,30.08,1.52,37.61,51.3,63.16,47.41,87.86-2.41,15.34-27.02,6.46-31.48,22.62-5.99,21.72,22.38,44.76,18.38,59.86-4.73,17.85-43.88-.4-43.88,37.15,0,19.2,38.6,56.87,70.6,51.25,46.5,12.78,81.22,2.35,86.76,0Z"/>
      <path class="cls-33" d="m1768.22,1463.51c-1.18-16.02-32.17-29.77-33.7-34.5-4.29-13.31,36.31-54.89,36.24-69.73-.11-24.82-36.54-44.72-29.51-70.1,3.74-13.51,21.39-29.92,19.33-43.79-2.32-15.61-25.05-32.08-24.61-40.32,1.11-20.54,20.02-32.15,16.55-45.97-2.66-10.6-13.44-30.38-19.09-30.11-9.65.46-24.13,20.06-23.33,29.69.8,9.63,6.8,22.36,4.73,31.8-2.95,13.48-39.54,14.6-39.54,34.15,0,24.39,23.29,46.06,23.19,51.93-.24,13.63-34.47,11.41-34.47,31.16,0,14.25,46.93,42.35,47.33,50.87.54,11.45-20.33,22.32-18.72,32.16,2.94,17.94,21.81,37.14,20.33,41.79-4.81,15.1-27.76,17.65-28.3,38.28-.28,10.61,15.2,20.65,24.59,25.58,24,12.6,60.66-9.88,58.96-32.89Z"/>
      <path class="cls-23" d="m1746.72,1496.22l-2.9,5.46s-1.96,57.53-16.44,57.53h-52.71c-14.3,0-16.44-56.81-16.44-56.81l-2.91-6.19c0-1.29,1.04-2.32,2.32-2.32h86.76c1.29,0,2.32,1.04,2.32,2.32Z"/>
      <path class="cls-18" d="m1720.61,1496.22l-2.9,5.46s-1.96,57.53-16.44,57.53h-26.6c-14.3,0-16.44-56.81-16.44-56.81l-2.91-6.19c0-1.29,1.04-2.32,2.32-2.32h60.65c1.29,0,2.32,1.04,2.32,2.32Z"/>
    </g>
    <g class="cls-5">
      <rect class="cls-10" x="297.95" y="748.41" width="293.54" height="293.54" rx="15.06" ry="15.06"/>
      <g class="cls-9">
        <rect class="cls-4" x="323.16" y="764.12" width="236.49" height="260.74"/>
        <rect class="cls-2" x="323.16" y="967.26" width="236.49" height="57.61"/>
        <path class="cls-12" d="m456.57,914.2c-1.52-4.55,3.03-9.1,3.03-9.1h-45.48s4.55,4.55,3.03,9.1c-1.52,4.55-9.1,18.19-6.06,33.35,3.03,15.16,6.06,43.96,6.06,43.96,0,0,9.1,3.03,19.71,3.03s19.71-3.03,19.71-3.03c0,0,3.03-28.8,6.06-43.96,3.03-15.16-4.55-28.8-6.06-33.35Z"/>
        <path class="cls-13" d="m415.21,919.02c-7.45-1.23-19.63,13.79-26.46,5.81-7-8.18,10.86-11.23,14.2-15.4-.72.9-29.93,10.47-31.8,9.68-.95-.41-4.08-6.98-3.91-8.1.84-5.68,10.51-6.71,13.51-10.39-.33.41-20-11.4-21.69-13.52-2.62-3.3.59-3.91-1.87-7.28-2.51-3.43-12.79-9.59-11.33-14.17.74-2.34,9.12-3.52,11.59-5.74,2.3-2.06,4.58-6.03,5.75-8.87-.07.18-1.81,1.44-2.12.92-.86-1.43,5.75-21.42,7.53-23.47,3.76-4.34,10.92-.61,14.07-3.78,6.97-7.03-6.79-11.87,1.12-16.62,4.24-2.54,9.04,1.26,13.22.85,7-.69,12.36-4.72,18.24-8.24,4.24-2.54,8.49-5.21,12.72-7.64,1.4-.81,1.07-5.37,3.1-5.68,8.37-1.29,16.41,14.46,25.94,13.69,1.99-.16,2.96-2.65,4.48-2.82,4.31-.49,8.31-2.06,13.26-2.27,4.56-.2,15.49-2.41,18.07,1.22,8.08,11.38-7.94,31.76,4.95,41.06,7.25,5.23,10.97-.26,7.3,13.81-2.59,9.94-10.76,15.52-14.51,24.06-3.57,8.14,1.32,8.8,2.55,15.25,2.35,12.38-6.33,18.34-13.81,25.88-4.56,4.6-8.62,14.83-15.28,9.33-3.65-3.01-3.51-16.37-4.43-21.45-7.23,4.19-15.72,10.91-24,12.28-6.66,1.11-19.15-7.77-20.39,1.63Z"/>
        <path class="cls-6" d="m411.09,821.73c-6.01.85-15.73,3.63-18.89,9.63-1.21,2.29-2.35-.42-2.84,1.77-.49,2.19,9.09,12.65,10.77,14.25,9.33,8.91,9.53,4.78,12.78-5.33,1.54-4.78-.95-5.04,2.73-8.19,2.57-2.2,4.5,5.39,5.17,5.39,5.53,0-4.32-33.2-9.71-17.52Z"/>
        <path class="cls-6" d="m444.44,871.75c-1.81,4.53-4.82,7.52-.9,12.36,5.33,6.59,5.93,1.4,8.48.16-.55.27-1.1-4.17,0-4.94,2.68-1.88,4.92,1.18,7.19.67,1.4-.31,11.63-1.62,12.18-2.92-1.66,3.87-11.13-22.34-10.6-21.84-2.13-1.99-15.07,13.31-16.35,16.51Z"/>
        <path class="cls-6" d="m456.57,827.79c-3.94,3.94-8.07-6.33-5.38,5.23,1.18,5.06,6.21,10.48,12.39,7.46,13.52-6.6-4.5-27.7-7.01-12.7Z"/>
        <path class="cls-6" d="m400.47,882.37c-7.96-8.81-9.31,13.93,5.45,10.61,12.05-2.71,2.19-8.43-5.45-10.61Z"/>
        <path class="cls-12" d="m421.7,853.56c-9.13-1.91-7.42,8.57-.19,9.66,8.16,1.23,4.9-6.95.19-9.66Z"/>
        <path class="cls-12" d="m389.11,860.64c-3.27,4.86,2.3,11.11,7.5,8.42-.82-3.55-3.05-5.32-6.7-5.31l-.8-3.12Z"/>
        <path class="cls-12" d="m482.76,848.14c-1.39,4.01,3.05,9.08,7.21,8.22,1.01-5.51-4.94-9.94-9.93-7.4l2.73-.82Z"/>
      </g>
    </g>
    <g class="cls-5">
      <rect class="cls-10" x="311" y="366.67" width="244.35" height="244.35" rx="14.87" ry="14.87"/>
      <rect class="cls-29" x="364.05" y="419.72" width="138.24" height="138.24" rx="9.95" ry="9.95"/>
      <path class="cls-17" d="m400.72,465.79s-9.98,13.51-7.16,16.42c2.82,2.91-6.27,5.51-6.27,10.88s3.58,2.27,2.69,7.18c-.89,4.9-5.37,3.46-.89,9.11,4.48,5.64,10.29,7.43,11.64,14.15,1.34,6.71,6.27,12.05,15.22,16.54,8.95,4.49,7.73.88,12.14,0,4.42-.88,5.31-.88,8-.88s2.24,7.16,6.71-2.24c4.48-9.4,9.3-10.74,11.81-12.08,2.51-1.34,3.85-.45,7.43-7.61,3.58-7.16,3.58-5.87,4.48-13.23.9-7.36.9-4.23,2.24-10.05,1.34-5.82-1.34-5.82,0-9.85,1.34-4.03,3.91-3.58.39-9.85-3.52-6.27-2.18-4.03-6.65-8.5-4.48-4.48-.9-8.88-13.87-7.61-12.98,1.28-47.88,7.61-47.88,7.61Z"/>
      <path class="cls-35" d="m406.44,465.49s-1.44.97-3.58,6.9c-2.14,5.93-2.14,11.3-3.93,14.88-1.79,3.58-5.37,10.74-3.58,12.53,1.79,1.79-1.79-1.79-1.79-7.16s3.58-7.16,5.37-12.53c1.79-5.37,3.58-7.16,1.79-14.32-1.79-7.16,1.79-16.11,5.37-14.32,0,0,3.58-8.95,10.74-10.29,0,0,.9-3.13,8.73-4.03,7.83-.9,17.68,2.46,19.91,6.27,2.24,3.8,2.24,5.59,2.24,5.59,0,0,3.93,2.69,6.89,10.29,2.96,7.61,2.85,15.12,0,20.37-2.85,5.25-35.08-4.03-35.08-4.03l-13.08-10.14Z"/>
      <path class="cls-31" d="m427.57,455.05s-7.16,3.58-14.32,5.37c-7.16,1.79-14.32,14.32-10.74,26.85s8.95,25.06,23.27,21.48c14.32-3.58,17.9-19.69,17.9-19.69,0,0,12.53-3.58,10.74-10.74-1.79-7.16-8.95,0-8.95,0,0,0-8.95-10.74-8.95-16.11s-8.95-7.16-8.95-7.16Z"/>
    </g>
    <g class="cls-5">
      <rect class="cls-10" x="1226.01" y="373.27" width="400.05" height="400.05" rx="25.15" ry="25.15"/>
      <rect class="cls-29" x="1293.97" y="446.53" width="264.11" height="251.56"/>
      <g>
        <path class="cls-17" d="m1458.1,596.13s12.57,12.27,12.57,19.78-21.49,28.09-27.95,27c-6.45-1.09-16.99-8.59-14.37-14.04s8.58-22.5,11.22-25.23c2.65-2.73,18.52-7.5,18.52-7.5Z"/>
        <path class="cls-17" d="m1374.09,580.45s-21.12,15.68-21.12,28.64,29.06,30.69,35.68,33.41c6.62,2.73,13.23-8.86,13.89-18.75.66-9.89,2.65-19.44-3.97-22.85-6.62-3.41-24.48-20.46-24.48-20.46Z"/>
        <path class="cls-17" d="m1509.05,509.58c-10.37,15.06-19.84,13.92-21.17,30.79-1.33,16.88-15.21,49.61-25.8,58.49-10.59,8.88-25.76,21.82-33.73,19.79-7.97-2.08-31.76-10.25-31.76-10.25,0,0-36.39-25.89-35.06-45.02,1.33-19.09-4.54-30.62-8.57-53.81-4.03-23.24,17.4-63.22,21.34-63.22h123.77c3.47,0,6.86.35,10.16,1.06,2.74,13.34,9.17,49.92.81,62.16Z"/>
        <path class="cls-17" d="m1503.2,698.09c-5.78-12.94-44.22-63.62-89.42-59.68-39.21,3.41-58.58,45.77-63.92,59.68h153.34Z"/>
        <path class="cls-31" d="m1450.5,698.09c7.55-12.99,18.61-32.13,24.23-33.24,6.41-1.27-39.12-29.85-38.46-38.03.66-8.18,9.26-15.68,14.55-30.69,5.29-15,6.61-39.55-7.94-47.73-14.55-8.18-15.88-16.37-29.77-9.55-13.89,6.82-21.17,2.73-27.12,34.78,0,0-9.26-4.77-8.6,4.77.66,9.55,8.6,8.86,8.6,8.86,0,0,0,7.5,5.29,21.14,5.29,13.64,6.62,32.73,3.97,36.82-2.65,4.09-20.51,25.91-26.46,47.73-.51,1.87-.37,3.57.25,5.13h81.46Z"/>
      </g>
    </g>
    <g>
      <rect class="cls-8" x="540.98" y="520.12" width="760.56" height="453.67" rx="35.15" ry="35.15" transform="translate(174.31 1668.21) rotate(-90)"/>
      <g class="cls-26">
        <polygon class="cls-36" points="422.7 427.52 1211.61 427.52 1211.61 1209.38 538.93 1209.38 422.7 427.52"/>
        <path class="cls-35" d="m827.72,483.87s-98.61,49.31-77.48,165.53c21.13,116.22,73.96,119.74,102.13,151.44,28.18,31.7-88.05,123.27-126.79,154.96-38.74,31.7-98.61,88.05-133.83,116.22-35.22,28.18,274.71,95.09,292.32,38.74,17.61-56.35,7.04-239.49,42.26-271.19,35.22-31.7,7.04-59.87,49.31-14.09,42.26,45.78,31.7,10.57,38.74,3.52,7.04-7.04,24.65,35.22,84.53,119.74,59.87,84.53,70.44,147.92,70.44,154.96s-14.09-91.57-49.31-179.62c-35.22-88.05-116.22-172.57-84.53-190.18,31.7-17.61,52.83-28.18,38.74-49.31-14.09-21.13-38.74,21.13-14.09-17.61,24.65-38.74,21.13-52.83,31.7-49.31,10.57,3.52,7.04,77.48,35.22,0,28.18-77.48,49.31-70.44,10.57-95.09-38.74-24.65-52.83-52.83-73.96-38.74-21.13,14.09,3.52,7.04-31.7-3.52-35.22-10.57-81-70.44-204.27,3.52Z"/>
        <path class="cls-1" d="m894.83,534.1s-14.29-22.06-24.85-29.1c-10.57-7.04,0-28.18,14.09-42.26,14.09-14.09,24.65-21.13,24.65-21.13,0,0,29.94-14.09,50.19-14.09s20.25,14.09,13.21,31.7c-7.04,17.61,24.65,17.61,38.74,35.22,14.09,17.61-14.09,28.18-24.65,38.74-10.57,10.57-10.57,7.04-10.57,7.04l-80.81-6.12Z"/>
        <path class="cls-27" d="m894.64,512.04s-3.52,56.35,17.61,70.44c21.13,14.09,42.26-7.04,45.78-21.13,3.52-14.09,14.09-3.52,17.61-17.61,3.52-14.09-10.57-14.09-10.57-14.09,0,0,0-17.61-10.57-17.61s-31.7,0-38.74-14.09c-7.04-14.09-21.13,14.09-21.13,14.09Z"/>
        <path class="cls-27" d="m915.77,610.65s17.61,7.04,31.7,0c14.09-7.04,10.57-10.57,24.65-7.04,14.09,3.52,24.65,14.09,35.22,31.7,10.57,17.61-28.18,28.18-42.26,35.22-14.09,7.04-38.74,10.57-38.74,10.57,0,0,10.57,31.7,14.09,38.74,3.52,7.04-24.65,3.52-24.65,0s-14.09-21.13-21.13-28.18c-7.04-7.04-17.61-21.13-24.65-14.09-7.04,7.04-10.57,31.7,0,49.31,10.57,17.61-21.13,0-21.13,0,0,0-21.13-59.87,3.52-70.44,24.65-10.57,45.78-35.22,63.39-45.78Z"/>
      </g>
    </g>
    <g>
      <path class="cls-15" d="m715.69,1373.47c-14.29,0-28.71-1.02-43.25-3.07-55.53-7.83-112.72-30.74-169.99-68.1l2.17-3.32c128.5,83.83,231.87,77.65,295.96,57.71,69.38-21.59,108.86-63.42,109.26-63.84l2.9,2.7c-.4.43-40.61,43.02-110.98,64.92-27.82,8.66-56.63,13-86.06,13Z"/>
      <g>
        <rect class="cls-15" x="902.69" y="1300.63" width="17.17" height="248.94"/>
        <circle class="cls-15" cx="911.28" cy="1294.2" r="18.24" transform="translate(-531.9 1944.29) rotate(-79.1)"/>
      </g>
      <g>
        <rect class="cls-15" x="486.36" y="1300.63" width="17.17" height="248.94"/>
        <circle class="cls-15" cx="494.95" cy="1294.2" r="18.24" transform="translate(-890.14 1256.2) rotate(-67.5)"/>
      </g>
    </g>
    <g>
      <path class="cls-15" d="m1323.15,1373.47c-14.29,0-28.71-1.02-43.25-3.07-55.53-7.83-112.72-30.74-169.99-68.1l2.17-3.32c128.5,83.83,231.87,77.65,295.96,57.71,69.38-21.59,108.86-63.42,109.26-63.84l2.9,2.7c-.4.43-40.61,43.02-110.98,64.92-27.82,8.66-56.63,13-86.06,13Z"/>
      <g>
        <rect class="cls-15" x="1510.15" y="1300.63" width="17.17" height="248.94"/>
        <circle class="cls-15" cx="1518.74" cy="1294.2" r="18.24" transform="translate(-261.27 2195.92) rotate(-67.3)"/>
      </g>
      <g>
        <rect class="cls-15" x="1093.82" y="1300.63" width="17.17" height="248.94"/>
        <path class="cls-15" d="m1120.65,1294.2c0,10.07-8.17,18.24-18.24,18.24s-18.24-8.17-18.24-18.24,8.17-18.24,18.24-18.24,18.24,8.17,18.24,18.24Z"/>
      </g>
    </g>
    <g id="character6">
      <path class="cls-11" d="m1147.77,1608.87h79.33c4.26,0-6.5-20.77-8.44-28.91-1.06-4.45-16.23-8.22-20.33-3.8-16.46,17.75-59.12,17.92-55.89,30.98.15.61,1.78,1.73,5.33,1.73Z"/>
      <path class="cls-11" d="m1403.81,1608.87c9.46,0-2.38-23.55-4.53-37.38-.2-1.32-21.36,1.93-21.95,2.8-4.21,6.19-33.71,17.24-54.02,24.5-6.48,2.32-1.57,10.08,2.46,10.08h78.04Z"/>
      <path class="cls-32" d="m1386.08,1146.78c17.73,100.36-.58,182.6,10.63,200.09,11.21,17.5,22.19,51.88,21.93,70.03-.23,15.96,0,112.64-5.48,157.29-.8,6.52-56.2,6.62-57.02.1-3.88-30.59-10.72-92.13-23.35-152.72-2.62-12.55-3.19-42.37-5.81-54.69-15.72-73.86-58.39-185.12-58.39-185.12l117.49-34.98Z"/>
      <path class="cls-25" d="m1350.69,1159.71c-9.1,55.88-78.84,176.68-72.77,196.55,6.07,19.87,10.63,53.55,8.39,69.36-2.24,15.81-26.29,117.28-45.68,156-2.9,5.79-56.05-4.28-55.46-10.73,7.44-81.34,15.13-192.81,15.43-198.51,3.97-75.92,23.72-251.88,23.72-251.88l126.37,39.21Z"/>
      <path class="cls-16" d="m1406.09,903.97c26.7,22.86,56.56,140.59,49.16,166.71-12.9,45.52-145.19,20.98-145.19,20.98,0,0,77.48-203.55,96.02-187.68Z"/>
      <path class="cls-28" d="m1270.21,867.76c-3.16,1.58-4.79,14.71-8.13,16.29-23.1,10.94-44.15,18.94-55.05,34.2-18.21,25.49,4.75,93.99,5.39,108.93.67,15.79,6.3,157.25,4.71,168.59-2.37,16.96,184.86,6.36,184.86-5.88,0-15.95,7.34-155.52,9.46-176.34.45-4.44,22.37-85.31-5.37-109.58-10.58-9.26-34.8-20.12-59.47-24.4-3.84-.66-4.68-12.8-8.33-15.19-7.54-4.94-51.37-4.96-68.08,3.38Z"/>
      <g>
        <path class="cls-25" d="m1247.14,791.4c-1.7-9.88,3.56-21.05,13.9-27.85,20.42-13.43,66.02-13.49,73.53-5.52,6.51,6.9,7.52,53.52-2.87,73.92-1.76,4.86-8.18,15.26-9.49,16.25-5.94,4.49-36.96-20.77-50.84-53.63-4.07-2.95-22.07,9.46-24.24-3.17Z"/>
        <path class="cls-19" d="m1332.92,864.47c-1.55-9.74-1.15-17.22-1.21-32.51-3.15,6.69-9.02,9.09-13.69,9.09-11.72,0-24.72-15.94-28.87-27.43,1.28.6,2.79.27,4.11-1.42,2.74-3.5,1.99-18.24-1.25-19.35-2.83-.97-6.24,2.62-6.88,4.59-.86,2.63,0,11.25-2.36,10.82-5.08-.92-7.31-33.53-13.91-30.45-15.8,7.39-4.42,69.91-2.12,72.97,1.46,1.94,5.26,2.87,10.06,2.87-.27,9.7.03,9.69-1.35,14.52-2.46,8.6,58.56,3.2,57.46-3.71Z"/>
      </g>
      <path class="cls-3" d="m1098.48,1045.66c-10.89-8.05-23.5-15.5-28.09-16.07-4.59-.57-20.64,4.61-26.94,8.03-6.31,3.43,4.21,25.97,9.56,33.04,5.35,7.07,47.45,0,47.45,0l-1.98-25.01Z"/>
      <path class="cls-28" d="m1207.04,918.25c-24.96,32.76-28.21,98.15-40.2,112-11.58,13.38-66.17,5.26-72.99,12.03-15.72,15.61-4.23,45.21-4.23,45.21,0,0,102.01,27.17,131.51,4.16,22.3-17.39,44.47-104,44.47-104l-58.56-69.4Z"/>
      <path class="cls-16" d="m1221.13,1093.37c-.64,0-1.26-.36-1.55-.98-.41-.86-.05-1.88.81-2.29,19.36-9.25,32.78-40.93,43.52-102.74.16-.93,1.05-1.56,1.99-1.4.94.16,1.56,1.05,1.4,1.99-10.95,63.02-24.96,95.48-45.42,105.25-.24.11-.49.17-.74.17Z"/>
    </g>
    <g id="character5">
      <g>
        <path class="cls-21" d="m1022.25,1313.69c1.69,12.6-1.59,67.88,1.98,91.74,10.33,69.01,14.29,112.18,20.96,147.67.72,3.82,15.04,4.81,15.34.94,3.02-39.93,30.81-131.13,25.35-163.29-1.82-10.73-15.93-38.62-29.24-59.75-11.11-17.64-34.38-17.3-34.38-17.3Z"/>
        <path class="cls-21" d="m1095.58,1320.13c3.28,12.23-6.74,60.95-.16,84.05,19.04,66.82,42.87,117.75,51.31,149.84,1,3.79,15.49,3.92,15.51,0,.21-31.72,1.74-148.86-5.88-170.49-3.6-10.21-12.92-33.04-25.84-49.95-12.53-16.41-34.95-13.46-34.95-13.46Z"/>
        <path class="cls-33" d="m1137.87,1066.39c-.02,29.58.87,62.52.11,99.11-.06,2.93,12.07-4.43,12.25-4.71,8.66-13.44,21.34-43.92,25.82-84.95,1.14-10.47-4.06-19.01-22.61-19.89-5.2-.25-15.57-.02-15.58,10.44Z"/>
        <path class="cls-1" d="m1135.86,1142.15c-1.56,0-2.87-1.22-2.96-2.8-.06-1.09-6.34-110.01-14.29-183.96-.18-1.63,1.01-3.1,2.64-3.27,1.64-.18,3.1,1.01,3.27,2.64,7.97,74.1,14.26,183.16,14.32,184.26.09,1.64-1.16,3.04-2.8,3.14-.06,0-.12,0-.17,0Z"/>
        <path class="cls-25" d="m1036.94,1079.71c-13.2,18.86-34.68,56.35-34.72,105.31-.04,51.94,18,171.64,19.25,176.35,2.74,10.36,97.43,1,119.35-11.89,2.46-1.45-13.26-24.73-13.53-32.65-.37-10.93,37.32-118.66,19.49-175.34-10.18-32.35-33.33-56.83-38.91-60.92-13.79-10.11-70.93-.86-70.93-.86Z"/>
        <g>
          <path class="cls-20" d="m1047.23,1546.08c-4.46,12.77-12.18,54.51-12.18,54.51,0,0,24.05-10.62,29,.79,3.54-9.77-.66-44.66-5.68-52.11-5.02-7.45-11.15-3.19-11.15-3.19Z"/>
          <path class="cls-1" d="m1057.36,1552.49c5.31-2.12,11.26,6.99,12.02,14.54.26,2.6-.4,9.72-.97,12.03-1.72,6.99-2.1,18.54-.37,27.9.56,3-1.89,5.62-3.79,5.62h-32.64c-1.67,0-4.1-7.31,1.31-10.76,6.41-4.08,11.65-44.23,24.43-49.33Z"/>
          <path class="cls-7" d="m1033.7,1612.58c6.04,0,12.03-4.9,13.03-11.2,1-6.3,1.84-22.04,4.2-22.06,3.07-.02,4,30.11,2.57,33.26h-19.8,19.8-19.8Z"/>
          <path class="cls-7" d="m1062.81,1612.58c-.98-17.72.48-32.32,1.81-32.32s.02,10.82.24,13.38c.22,2.55,1,7.55,1,10.55,0,6.11-1.65,8.39-1.65,8.39h-1.4Z"/>
        </g>
        <g>
          <path class="cls-20" d="m1149,1546.08c-4.46,12.77-9.58,48.89-9.58,48.89,0,0,14.55-3.37,26.19,8.33,3.54-9.77-.45-46.58-5.46-54.03-5.02-7.45-11.15-3.19-11.15-3.19Z"/>
          <path class="cls-1" d="m1159.13,1552.49c4.11-.32,9.93,6.37,10.69,13.92.26,2.6-.64,9.34-1.08,12.02-2.49,15.04.72,20.99.48,27.63-.15,4.18-3.42,6.52-4.98,6.52h-30.85c-3.29,0-2.68-12.58,2.72-16.02,6.41-4.08,10.63-43.1,23.02-44.07Z"/>
          <path class="cls-7" d="m1133.39,1612.58c6.04,0,12.03-4.9,13.03-11.2,1-6.3,1.84-22.04,4.2-22.06,3.07-.02,4,30.11,2.57,33.26h-19.8,19.8-19.8Z"/>
          <path class="cls-7" d="m1162.5,1612.58c-.98-17.72.48-32.32,1.81-32.32s.87,10.6,1.09,13.16c.22,2.55,1,7.55,1,10.55,0,6.11-2.5,8.62-2.5,8.62h-1.4Z"/>
        </g>
      </g>
      <path class="cls-33" d="m986.54,1062.95c15.59-17.35,38.12-27.32,67.53-49.11,2.36-1.75,15.33-17.36,22.91-20.08,4.54-.83,3.1,20.03,2.08,19.81-3.66-.79-9.54,14.92-21.38,12.07-29.94,35.5-25.52,41.65-43.75,57.3-7.99,6.86-30.81,18.05-39.55,9.15-3.65-3.72,5.17-21.36,12.16-29.14Z"/>
      <path class="cls-33" d="m1008.49,945.5c1.63-3.27,29.05-14.64,56.07-16.2,30.31-1.75,60.63,6.61,63.64,9.13,12.88,10.74-10.93,85.69-18.26,131.67-.48,3.04,31.51,48.16,31.19,50.91-1.28,10.91-131.74,18.38-133.21,9.24-.44-2.76,26.94-53.84,26.18-57.53-7.76-37.68-30-118.43-25.61-127.23Z"/>
      <path class="cls-20" d="m1052.37,878.4c3.61,15.81,3.82,45.39-3.36,52.78-2.33,2.4,2.51,6.94,20.17,5.78,17.46-1.14,25.39-1.8,21.13-7.91-6.85-9.83-8.45-49.85-7.25-66.14-4.96-1.35-30.68,15.48-30.68,15.48Z"/>
      <path class="cls-33" d="m1119.15,951.6c1.21-7.43.76-19.19,9.05-13.17,18.81,13.66,60.63,132.24,45.68,140.21-5.7,3.03-34.27,6.39-36.01-9.56-2.01-18.49-13.98-45.02-16.16-53.31-7.52-28.55-9.64-20.55-2.56-64.17Z"/>
      <path class="cls-33" d="m1020.17,952.09c-1.21-7.43-3.92-13.26-11.69-6.59-12.21,10.48-54.88,130.59-32.23,148.49,4.07,3.22,15.1,2.24,22.29-8.81,7.26-11.16,10.67-32.48,13.54-43.41,7.52-28.55,15.17-46.07,8.08-89.69Z"/>
      <path class="cls-1" d="m1124.65,1149.52c-1.55,0-2.86-1.2-2.96-2.77-1.02-15.03-2.26-40.58-3.7-70.16-2.49-51.11-5.58-114.73-8.61-142.84-.18-1.63,1-3.1,2.64-3.27,1.64-.17,3.1,1.01,3.27,2.64,3.04,28.29,6.14,92,8.63,143.19,1.44,29.55,2.68,55.08,3.7,70.05.11,1.64-1.13,3.05-2.76,3.17-.07,0-.14,0-.2,0Z"/>
      <path class="cls-14" d="m1061.88,814.31c54.64-12.87,64.09,75.85,61.88,82.73-4.66,14.55-94.67,14.09-103.88,0-5.65-8.63,10.53-75.32,42-82.73Z"/>
      <path class="cls-1" d="m1121.56,1134.37c-5.71,22.62-2.86,104.96,6.26,110.91,9.12,5.94,28.57,3.56,34.69-10.1,6.12-13.67-.49-115.22-10.93-114.69-10.45.54-27.84,5.27-30.01,13.88Z"/>
    </g>
  </g>
</svg>