<?xml version="1.0" encoding="UTF-8"?>
<svg id="Layer_1" data-name="Layer 1" xmlns="http://www.w3.org/2000/svg" xmlns:xlink="http://www.w3.org/1999/xlink" viewBox="0 0 2000 2000">
  <defs>
    <style>
      .cls-1 {
        fill: #3b3735;
      }

      .cls-2 {
        fill: #fff;
      }

      .cls-3 {
        fill: #d8d8d8;
      }

      .cls-4 {
        fill: #424dbf;
      }

      .cls-5 {
        fill: #242449;
      }

      .cls-6 {
        fill: #427ccc;
      }

      .cls-7 {
        fill: #d33535;
      }

      .cls-8 {
        fill: #111c35;
      }

      .cls-9 {
        stroke: #021833;
        stroke-linecap: round;
        stroke-linejoin: round;
        stroke-width: 1.42px;
      }

      .cls-9, .cls-10 {
        fill: none;
      }

      .cls-11 {
        fill: #141a46;
      }

      .cls-12 {
        fill: #ffb359;
      }

      .cls-13 {
        fill: #331b19;
      }

      .cls-14 {
        fill: #0b181b;
      }

      .cls-15 {
        fill: #2b2b2b;
      }

      .cls-16 {
        clip-path: url(#clippath);
      }

      .cls-17 {
        fill: #0b4407;
      }

      .cls-18 {
        fill: #343b5e;
      }

      .cls-19 {
        fill: #336b2e;
      }

      .cls-20 {
        fill: #f8ba8c;
      }

      .cls-21 {
        fill: #9c9b9b;
      }

      .cls-22 {
        fill: #0b5b07;
      }

      .cls-23 {
        fill: #a1c9de;
      }

      .cls-24 {
        fill: #d1edfc;
      }

      .cls-25 {
        fill: #2f3787;
      }
    </style>
    <clipPath id="clippath">
      <path class="cls-10" d="m1737,1000c0,114.46-26.09,222.82-72.65,319.47-119.02,247.05-371.77,417.53-664.35,417.53s-545.33-170.48-664.35-417.53c-46.56-96.65-72.65-205.01-72.65-319.47,0-407.03,329.97-737,737-737s737,329.97,737,737Z"/>
    </clipPath>
  </defs>
  <g class="cls-16">
    <path class="cls-24" d="m1737,1000c0,114.46-26.09,222.82-72.65,319.47-119.02,247.05-371.77,417.53-664.35,417.53s-545.33-170.48-664.35-417.53c-46.56-96.65-72.65-205.01-72.65-319.47,0-407.03,329.97-737,737-737s737,329.97,737,737Z"/>
    <path class="cls-23" d="m1594.73,1435.36c-134.11,182.9-350.56,301.64-594.73,301.64s-460.62-118.74-594.73-301.64h1189.46Z"/>
    <g>
      <rect class="cls-6" x="361.32" y="790.45" width="554.28" height="9.87" transform="translate(-381.24 773.79) rotate(-50.03)"/>
      <rect class="cls-6" x="127.14" y="580.14" width="9.87" height="686.08" transform="translate(-788.07 771.41) rotate(-72.49)"/>
      <rect class="cls-6" x="329.92" y="310.65" width="9.87" height="710.99" transform="translate(-214.61 162.2) rotate(-20.79)"/>
      <rect class="cls-6" x="513.59" y="135.94" width="9.87" height="645.66" transform="translate(-104.44 760.85) rotate(-67.37)"/>
      <rect class="cls-6" x="769.62" y="429.65" width="668.33" height="9.87" transform="translate(-78.45 532.24) rotate(-26.21)"/>
      <rect class="cls-6" x="1126.74" y="406.77" width="9.87" height="739.93" transform="translate(-122.67 1334.06) rotate(-58.42)"/>
      <rect class="cls-6" x="1365.51" y="734.43" width="737.94" height="9.87" transform="translate(-80.7 1249.46) rotate(-38.78)"/>
      <circle class="cls-11" cx="840.91" cy="553.86" r="208.17" transform="translate(-145.34 756.83) rotate(-45)"/>
      <circle class="cls-25" cx="2022.05" cy="507.84" r="146.12" transform="translate(233.15 1578.55) rotate(-45)"/>
      <circle class="cls-4" cx="224.45" cy="337.46" r="157.54" transform="translate(-172.88 257.55) rotate(-45)"/>
      <circle class="cls-12" cx="1403.59" cy="286.99" r="115.48" transform="translate(208.17 1076.54) rotate(-45)"/>
      <circle class="cls-22" cx="1437.2" cy="899.38" r="309.81" transform="translate(-215.01 1279.67) rotate(-45)"/>
      <circle class="cls-22" cx="442.28" cy="949.13" r="175.03" transform="translate(-541.6 590.73) rotate(-45)"/>
      <path class="cls-2" d="m218.45,472.98c38.02,2.44,73.43-10.74,99.96-34.03-3.48-13.14-7.7-26.01-12.62-38.11-8.28-20.39-23.69-36.65-42.48-46.03.15-.23.33-.44.48-.67,8.15-13.11,10.63-28.35,10.51-43.2-.12-14.13-2.66-28.69-11.28-40.6-8.62-11.92-24.31-20.66-40.5-19.19-17.37,1.57-31.35,14.41-37.29,28.73-5.94,14.31-5.34,29.94-4.17,45.07.84,10.85,3.82,21.87,8.99,31.07-11.43,6.9-21.54,17.01-31.2,29.48-9.89,12.76-9.48,13.35-15.7,28.39-3.06,7.39-6.09,15.04-8.72,23.45,22.36,20.35,51.5,33.56,84.02,35.64Z"/>
      <path class="cls-2" d="m2014.71,627.53c35.29,2.27,68.15-9.97,92.78-31.59-3.23-12.2-7.15-24.14-11.71-35.37-7.68-18.93-21.99-34.02-39.43-42.73.14-.21.31-.41.44-.63,7.57-12.17,9.87-26.31,9.75-40.1-.11-13.12-2.47-26.63-10.47-37.69-8-11.06-22.57-19.17-37.59-17.82-16.12,1.46-29.1,13.38-34.62,26.67-5.51,13.29-4.96,27.79-3.87,41.83.78,10.08,3.54,20.3,8.35,28.84-10.61,6.4-19.99,15.79-28.96,27.37-9.18,11.84-8.8,12.39-14.57,26.35-2.84,6.86-5.66,13.96-8.1,21.77,20.76,18.89,47.8,31.15,77.99,33.09Z"/>
      <path class="cls-2" d="m1397.67,383.04c28.24,1.81,54.54-7.98,74.25-25.28-2.59-9.76-5.72-19.32-9.37-28.3-6.15-15.15-17.6-27.22-31.55-34.19.11-.17.25-.33.35-.5,6.05-9.74,7.9-21.06,7.8-32.08-.09-10.5-1.98-21.31-8.38-30.16-6.4-8.85-18.06-15.34-30.08-14.26-12.9,1.17-23.29,10.71-27.7,21.34-4.41,10.63-3.97,22.24-3.1,33.48.63,8.06,2.84,16.24,6.68,23.08-8.49,5.12-16,12.63-23.17,21.9-7.34,9.48-7.04,9.92-11.66,21.09-2.27,5.49-4.53,11.17-6.48,17.42,16.61,15.11,38.25,24.92,62.41,26.47Z"/>
      <g>
        <path class="cls-17" d="m1574.3,1069.08c49.97,3.21,96.51-14.12,131.39-44.73-4.58-17.28-10.12-34.19-16.58-50.09-10.88-26.81-31.14-48.17-55.83-60.51.2-.3.44-.58.63-.89,10.72-17.24,13.98-37.26,13.81-56.78-.15-18.58-3.5-37.71-14.83-53.37-11.32-15.66-31.96-27.15-53.23-25.23-22.83,2.06-41.21,18.95-49.02,37.76-7.81,18.82-7.02,39.35-5.48,59.24,1.11,14.27,5.02,28.74,11.82,40.84-15.02,9.06-28.31,22.36-41.01,38.76-12.99,16.77-12.46,17.55-20.64,37.32-4.02,9.72-8.01,19.77-11.47,30.82,29.39,26.75,67.7,44.11,110.44,46.85Z"/>
        <path class="cls-19" d="m1524,1112.49c59.98,3.85,115.84-16.95,157.71-53.69-5.5-20.74-12.15-41.03-19.9-60.12-13.06-32.17-37.38-57.82-67.02-72.63.23-.36.52-.7.75-1.06,12.86-20.69,16.78-44.73,16.58-68.15-.18-22.3-4.2-45.26-17.79-64.06-13.59-18.8-38.36-32.59-63.89-30.28-27.41,2.48-49.46,22.74-58.84,45.32-9.37,22.58-8.43,47.23-6.57,71.11,1.33,17.13,6.02,34.5,14.18,49.02-18.03,10.88-33.98,26.84-49.23,46.52-15.6,20.13-14.95,21.06-24.77,44.79-4.83,11.66-9.61,23.73-13.76,37,35.28,32.1,81.25,52.94,132.56,56.23Z"/>
        <path class="cls-17" d="m1306.84,1071.9c-49.97,3.21-96.51-14.12-131.39-44.73,4.58-17.28,10.12-34.19,16.58-50.09,10.88-26.81,31.14-48.17,55.83-60.51-.2-.3-.44-.58-.63-.89-10.72-17.24-13.98-37.26-13.81-56.78.15-18.58,3.5-37.71,14.83-53.37,11.32-15.66,31.96-27.15,53.23-25.23,22.83,2.06,41.21,18.95,49.02,37.76,7.81,18.82,7.02,39.35,5.48,59.24-1.11,14.27-5.02,28.74-11.82,40.84,15.02,9.06,28.31,22.36,41.01,38.76,12.99,16.77,12.46,17.55,20.64,37.32,4.02,9.72,8.01,19.77,11.47,30.82-29.39,26.75-67.7,44.11-110.44,46.85Z"/>
        <path class="cls-19" d="m1357.14,1115.32c-59.98,3.85-115.84-16.95-157.71-53.69,5.5-20.74,12.15-41.03,19.9-60.12,13.06-32.17,37.38-57.82,67.02-72.63-.23-.36-.52-.7-.75-1.06-12.86-20.69-16.78-44.73-16.58-68.15.18-22.3,4.2-45.26,17.79-64.06,13.59-18.8,38.36-32.59,63.89-30.28,27.41,2.48,49.46,22.74,58.84,45.32,9.37,22.58,8.43,47.23,6.57,71.11-1.33,17.13-6.02,34.5-14.18,49.02,18.03,10.88,33.98,26.84,49.23,46.52,15.6,20.13,14.95,21.06,24.77,44.79,4.83,11.66,9.61,23.73,13.76,37-35.28,32.1-81.25,52.94-132.56,56.23Z"/>
        <path class="cls-2" d="m1420.47,1178.65c79.78,5.12,154.09-22.54,209.78-71.41-7.31-27.58-16.16-54.58-26.48-79.97-17.37-42.8-49.72-76.91-89.14-96.6.31-.48.7-.93,1-1.41,17.11-27.52,22.32-59.49,22.05-90.65-.25-29.66-5.59-60.2-23.67-85.21-18.08-25.01-51.03-43.35-84.98-40.28-36.46,3.29-65.79,30.25-78.27,60.29-12.46,30.04-11.21,62.83-8.74,94.58,1.77,22.78,8.01,45.89,18.87,65.2-23.98,14.47-45.2,35.7-65.48,61.88-20.74,26.77-19.89,28.02-32.95,59.58-6.42,15.51-12.79,31.57-18.31,49.21,46.93,42.7,108.08,70.42,176.32,74.8Z"/>
      </g>
    </g>
    <g>
      <g>
        <g>
          <g>
            <path class="cls-5" d="m784.01,1554.21c-2.41-2.66-5.23-4.1-8.41-3.6-3.05.48-5.8,2.55-7.06,5.32-.86,1.89-1.04,3.99-1.21,6.05-.88,10.66-.8,35.98,13.4,39.62,5.97,1.53,10.91-2.71,12.5-8.07,2.4-8.08-1.15-30.44-9.22-39.32Z"/>
            <path class="cls-20" d="m789.06,1393.36l-.74,65.04c.86,28.89-3.65,57.94-2.78,86.83.2,6.64,1.93,13.65.26,20.23-1.64,6.44-6.87,7.58-12.24,4.32-7.2-4.37-6.04-14.57-7.24-22.02-3.29-20.46-7.16-40.82-10.59-61.25-1.69-10.02,1.79-24.06,1.03-34.19,0,0-10.51-54.5-10.51-54.5l42.82-4.45Z"/>
          </g>
          <polygon class="cls-15" points="714.75 1288.27 743.06 1414.01 749.07 1532.75 793.95 1531.74 806.16 1199.61 719.15 1201.19 714.75 1288.27"/>
          <g>
            <g>
              <path class="cls-5" d="m848.2,1551.85c-2.52-2.52-5.39-3.8-8.53-3.11-3.02.66-5.68,2.9-6.81,5.74-.78,1.94-.87,4.06-.95,6.13-.42,10.72.74,36.05,15.05,38.86,6.01,1.18,10.75-3.36,12.11-8.81,2.05-8.22-2.45-30.4-10.87-38.81Z"/>
              <path class="cls-20" d="m824.55,1402.49l3.81,64.93c.31,18.04,2.72,35.95,4.58,53.87,1.74,16.65-.97,33.99,7.74,49.13,2.73,4.75,8.24,7.91,12.1,2.14,2.97-4.45,1.21-11.86,1.78-16.91,2.33-20.59,5.22-41.11,7.7-61.68,1.21-10.08-2.92-23.95-2.64-34.11,0,0,7.93-54.93,7.93-54.93l-42.98-2.45Z"/>
            </g>
            <polygon class="cls-15" points="881.35 1280.58 885 1402.64 865.84 1526.07 820.19 1527.43 822.2 1393.85 798.04 1283.08 789.93 1210.57 862.38 1202.02 881.35 1280.58"/>
          </g>
          <polygon class="cls-2" points="824.04 952.23 745.99 950.37 700.74 1034.52 716.82 1113.35 719.69 1207.68 831.02 1209.2 867.65 1203.25 857.92 1102.46 863.5 967.82 824.04 952.23"/>
          <polygon class="cls-2" points="743.4 956.17 680.05 1052.67 689.57 1106.42 787.69 1174.4 806.16 1158.25 740.56 1075.33 743.1 1022.92 743.4 956.17"/>
          <g>
            <path class="cls-20" d="m813.81,879.4c-15.36-32.75-58.89-15.16-64.88,16.12-3.91,20.4,14.11,44.39,35.19,47.86.17.77,2.43,7.41,2.5,8.02.36,3.17,1.08,6.25,1.9,9.37.3,1.16,17.84-4.21,19.8-4.82.68-.21,1.44-.49,1.76-1.11.6-1.2-3.04-10.31-3.3-11.55-.31-1.46-.63-2.92-.94-4.38,9.56-6.02,14.8-17.2,15.43-28.08.63-10.93-2.83-21.6-7.44-31.44Z"/>
            <g>
              <path class="cls-13" d="m781.2,851.82c-2.14,2.7-2.72,6.21-3.06,9.56-.2,2-.34,4.06.28,5.95,2.5,7.54,10.11,6.31,16.3,8.16,7.63,2.28,14.54,7.25,19.33,13.32,7.5,9.5,6.03,22.92,4.65,34.44-.49,4.06-1.7,10.15,1.76,13.35,3.51,3.25,10.66,1.92,14.2-.33,3.23-2.06,5.7-5.48,9.39-6.51,3.9-1.09,9.45.07,10.91-3.77.4-1.07.32-2.31.87-3.31,1.86-3.37,7.71-.29,10.56-2.83,1.75-1.56,1.43-4.46.54-6.69-.89-2.22-2.22-4.43-2.03-6.81.17-2.05,1.44-3.79,2.14-5.71,1.38-3.79.26-8.42-2.7-11.18-5.5-5.13-14.84-3.04-20.65-7.79-3.03-2.48-4.52-6.36-5.94-10.04-1.42-3.67-3.08-7.53-6.27-9.78-3.94-2.78-9.09-1.68-13.05-5.05-2.33-1.98-4.03-4.71-6.58-6.37-3.36-2.2-9.61-3.49-13.6-4.37-6.32-1.39-12.99.65-17.05,5.76Z"/>
              <path class="cls-13" d="m758.65,909.16c1,11.22,7.86,22.72,3.77,33.13-4.13,10.5-16.91,13.7-27.91,15.41-1.81.28-24.93,4.81-25.07,4.38-2.59-7.61-5.25-15.37-10.06-21.77-4.81-6.41-12.24-11.35-20.09-10.99,2.21-.63,3.05-3.51,2.54-5.81-.51-2.3-1.94-4.26-2.88-6.42-2.3-5.3-1.33-11.88,2.39-16.18,7.43-8.58,22.73-7,28.86-16.6,3.8-5.95,2.42-13.84,4-20.78,3.05-13.41,16.92-17.65,26.87-24.63,10.51-7.37,20.66-11.88,33.79-11.12,16.27.94,29.91,15.93,25.4,31.91-5.79,20.5-37.59,22.21-41.36,42.79-.4,2.21-.44,4.44-.24,6.69Z"/>
            </g>
          </g>
        </g>
        <polygon class="cls-3" points="769.08 951.78 788.89 1120.78 806.7 1120.78 823.64 950.37 769.08 951.78"/>
      </g>
      <polygon class="cls-20" points="806.65 1168.92 806.23 1182.08 829.46 1190.54 842.86 1180.39 842.86 1165.07 829.94 1164.35 829.53 1160.98 825.3 1158.25 806.65 1168.92"/>
      <path class="cls-2" d="m823.64,950.37l44.01,2.39s49.4,24.29,52.66,22.47,56.64-108.69,56.64-108.69l26.14,8.49-32.68,122.24-31.59,32.66-89.32-14.87-25.87-64.7Z"/>
      <path class="cls-20" d="m979.08,867.44s0-12.41,0-12.6c0-4.6,11.58-15.34,14.52-19.2,1.68-2.2,9.39,9.79,9.49,11.78.16,3.38-4.72,10.63-6.06,14.14l4.12,5.88-5.83,7.13-16.24-7.13Z"/>
    </g>
  </g>
  <g>
    <rect class="cls-7" x="1044.64" y="1124.83" width="152.01" height="152.01" rx="76" ry="76" transform="translate(-147.26 156.68) rotate(-7.51)"/>
    <g>
      <path class="cls-1" d="m1147.17,1230.8c1.29.29,2.4-.91,2.04-2.19-2.97-10.62-14.44-17.62-27.01-15.96-12.56,1.66-21.83,11.38-21.95,22.4-.01,1.32,1.37,2.2,2.54,1.58l11.26-5.93c6.28-3.31,13.53-4.27,20.45-2.73l12.66,2.83Z"/>
      <g>
        <ellipse class="cls-1" cx="1094.48" cy="1195.63" rx="5.09" ry="8.57" transform="translate(-146.8 153.21) rotate(-7.51)"/>
        <ellipse class="cls-1" cx="1144.92" cy="1188.98" rx="5.09" ry="8.57" transform="translate(-145.5 159.75) rotate(-7.51)"/>
        <path class="cls-1" d="m1099.38,1188.7c-3.34-1.92-11.07-5.23-22.75-3.72-.59.08-1.2-.12-1.6-.58-.73-.83-1.46-2.29.43-3.76,0,0,5.27-4.13,12.36-2.42,0,0,7.95,2.74,11.57,7.13.16.19.28.42.37.65l.67,1.77c.25.66-.46,1.27-1.07.92Z"/>
        <path class="cls-1" d="m1138.03,1183.61c2.73-2.72,9.33-7.92,21.01-9.48.59-.08,1.13-.43,1.39-.97.49-.99.82-2.59-1.39-3.52,0,0-6.16-2.62-12.57.86,0,0-6.96,4.71-9.33,9.88-.1.23-.16.47-.19.73l-.19,1.88c-.07.7.77,1.1,1.27.61Z"/>
      </g>
    </g>
  </g>
  <g>
    <rect class="cls-7" x="465.59" y="664.28" width="89.88" height="89.88" rx="44.94" ry="44.94" transform="translate(227.91 -117.68) rotate(16.88)"/>
    <g>
      <path class="cls-1" d="m517.49,731.83c.62.47,1.51.09,1.63-.68.99-6.44-3.48-13.01-10.65-15.19-7.17-2.18-14.53.8-17.29,6.71-.33.71.2,1.52.98,1.47l7.51-.45c4.19-.25,8.33,1,11.68,3.52l6.13,4.61Z"/>
      <g>
        <ellipse class="cls-1" cx="497.71" cy="700.03" rx="5.07" ry="3.01" transform="translate(-316.67 973.05) rotate(-73.12)"/>
        <ellipse class="cls-1" cx="526.49" cy="708.76" rx="5.07" ry="3.01" transform="translate(-304.6 1006.79) rotate(-73.12)"/>
        <path class="cls-1" d="m502.04,697.5c-1.33-1.85-4.68-5.52-11.34-7.55-.34-.1-.62-.36-.72-.7-.19-.62-.23-1.59,1.15-1.92,0,0,3.84-.94,7.25,1.71,0,0,3.61,3.42,4.49,6.67.04.14.05.29.04.44l-.07,1.12c-.03.41-.55.57-.8.23Z"/>
        <path class="cls-1" d="m524.1,704.19c2.13-.8,6.96-1.99,13.63.02.34.1.71.04.99-.18.5-.41,1.07-1.2.11-2.23,0,0-2.68-2.92-6.98-2.6,0,0-4.9.84-7.44,3.05-.11.1-.2.22-.28.34l-.56.97c-.21.36.14.78.53.64Z"/>
      </g>
    </g>
  </g>
  <g>
    <rect class="cls-7" x="1435.78" y="509.32" width="53.41" height="53.41" rx="26.71" ry="26.71" transform="translate(-47.18 152.48) rotate(-5.87)"/>
    <g>
      <path class="cls-1" d="m1471.5,546.82c.45.11.85-.3.74-.75-.94-3.76-4.9-6.33-9.33-5.88-4.43.46-7.78,3.78-7.93,7.65-.02.47.46.79.88.58l4.02-1.97c2.24-1.1,4.79-1.37,7.21-.75l4.42,1.12Z"/>
      <g>
        <ellipse class="cls-1" cx="1453.35" cy="533.94" rx="1.79" ry="3.01" transform="translate(-47.01 151.53) rotate(-5.87)"/>
        <ellipse class="cls-1" cx="1471.13" cy="532.11" rx="1.79" ry="3.01" transform="translate(-46.73 153.34) rotate(-5.87)"/>
        <path class="cls-1" d="m1455.14,531.55c-1.15-.71-3.83-1.95-7.95-1.53-.21.02-.42-.06-.55-.22-.25-.3-.49-.82.19-1.32,0,0,1.89-1.4,4.37-.73,0,0,2.76,1.04,3.99,2.62.05.07.09.15.12.23l.22.63c.08.23-.17.44-.38.31Z"/>
        <path class="cls-1" d="m1468.77,530.15c.99-.93,3.36-2.69,7.47-3.12.21-.02.4-.14.5-.33.18-.34.31-.9-.45-1.25,0,0-2.14-.98-4.42.18,0,0-2.49,1.58-3.38,3.38-.04.08-.06.17-.07.25l-.09.66c-.03.24.26.4.44.23Z"/>
      </g>
    </g>
  </g>
  <g>
    <path class="cls-21" d="m579.21,1250.49h-.04c-33.18-10.08-51.91-45.14-41.84-78.31h0c10.07-33.18,45.13-51.91,78.3-41.84h.04c33.16,10.08,51.89,45.11,41.85,78.28h0c-10.05,33.2-45.12,51.95-78.31,41.87Z"/>
    <g>
      <circle class="cls-1" cx="578.04" cy="1178.62" r="6.24" transform="translate(-731.43 1086.1) rotate(-59.83)"/>
      <circle class="cls-1" cx="619.86" cy="1191.31" r="6.24" transform="translate(-113.61 66.38) rotate(-5.62)"/>
    </g>
    <path class="cls-1" d="m576.32,1202.55c11.81-.43,24.17,3.56,33.72,10.48,3.46,2.51,6.59,5.51,9.08,9,.77,1.09,2.13,3.29,3.78,2.13.95-.67.82-2.3.6-3.28-.52-2.38-2.09-4.42-3.51-6.33-1.87-2.51-4.11-4.74-6.53-6.71-4.11-3.36-8.86-5.9-13.82-7.78-1.87-.71-3.77-1.32-5.7-1.84-.06-.01-.11-.03-.17-.04-2.74-.74-5.54-1.28-8.36-1.62-5.38-.65-10.88-.42-16.17.76-.58.13-1.15.27-1.73.41-1.92.5-3.78,1.02-5.23,2.46-.53.52-.94,1.21-.95,1.95-.01,1.26,1.11,2.07,2.27,2.17,1.83.15,3.52-.41,5.28-.8,1.86-.41,3.74-.69,5.64-.85.6-.05,1.2-.09,1.79-.11Z"/>
    <path class="cls-1" d="m591.42,1172.99c.49.02.91-.34.98-.84.17-1.34.07-2.72-.3-4.03-.39-1.4-18.06,1.06-19.86,1.34-4.32.67-9.07,1.4-13.49,2.67-1.13.33-.79,2.06.39,1.96,4.39-.36,8.83-1.03,13.17-1.18,6.36-.23,12.74-.2,19.12.09Z"/>
    <path class="cls-1" d="m612.98,1178.8c-.4-.28-.52-.82-.26-1.26.68-1.16,1.61-2.2,2.7-3.02,1.16-.87,13.67,11.84,14.93,13.16,3.02,3.17,6.34,6.63,9.06,10.34.7.95-.63,2.11-1.5,1.32-3.26-2.96-6.37-6.2-9.72-8.96-4.91-4.06-9.98-7.92-15.21-11.58Z"/>
  </g>
  <g>
    <path class="cls-21" d="m1167.51,643.53h-.03c-26.61,2.25-50-17.5-52.25-44.11h0c-2.25-26.61,17.51-50,44.12-52.25h.03c26.6-2.25,49.98,17.49,52.24,44.08h0c2.26,26.62-17.49,50.03-44.11,52.28Z"/>
    <g>
      <circle class="cls-1" cx="1146.2" cy="592.43" r="4.81" transform="translate(391.59 1639) rotate(-81.54)"/>
      <circle class="cls-1" cx="1179.73" cy="589.6" r="4.81" transform="translate(-139.01 607.28) rotate(-27.32)"/>
    </g>
    <path class="cls-1" d="m1151.78,610.04c8.33-3.67,18.31-4.34,27.12-2.1,3.19.81,6.29,2.06,9.06,3.85.86.56,2.46,1.75,3.31.44.49-.75-.07-1.88-.5-2.52-1.05-1.55-2.75-2.57-4.32-3.53-2.05-1.27-4.29-2.22-6.58-2.94-3.9-1.23-8.02-1.7-12.1-1.63-1.54.03-3.07.13-4.6.3-.04,0-.09.01-.13.02-2.17.25-4.33.66-6.45,1.22-4.03,1.06-7.91,2.8-11.35,5.15-.38.26-.75.52-1.12.79-1.23.9-2.42,1.8-3.04,3.25-.23.53-.33,1.14-.12,1.67.35.91,1.38,1.16,2.24.9,1.35-.41,2.4-1.3,3.55-2.07,1.21-.82,2.48-1.56,3.79-2.21.41-.21.83-.4,1.25-.59Z"/>
    <path class="cls-1" d="m1154.17,584.59c.36-.12.56-.5.46-.88-.26-1.01-.73-1.97-1.37-2.8-.68-.89-12.62,5.9-13.83,6.62-2.9,1.71-6.09,3.58-8.89,5.75-.71.55.02,1.7.83,1.29,3.04-1.51,6.03-3.25,9.09-4.6,4.49-1.97,9.06-3.77,13.7-5.38Z"/>
    <path class="cls-1" d="m1171.25,582.6c-.37-.09-.61-.44-.55-.83.16-1.03.52-2.03,1.07-2.93.58-.95,13.16,4.58,14.44,5.17,3.06,1.41,6.43,2.94,9.43,4.81.77.48.15,1.69-.7,1.37-3.18-1.19-6.33-2.62-9.51-3.64-4.67-1.51-9.4-2.83-14.18-3.96Z"/>
  </g>
  <g>
    <path class="cls-8" d="m922.85,667.25c31.26,2.01,60.39-8.83,82.21-27.99-2.87-10.81-6.33-21.39-10.38-31.34-6.81-16.77-19.48-30.14-34.93-37.86.12-.19.27-.36.39-.55,6.7-10.78,8.75-23.31,8.64-35.53-.1-11.62-2.19-23.59-9.28-33.39-7.09-9.8-20-16.99-33.3-15.79-14.29,1.29-25.78,11.85-30.67,23.63-4.88,11.77-4.39,24.62-3.43,37.07.69,8.93,3.14,17.98,7.39,25.55-9.4,5.67-17.71,13.99-25.66,24.25-8.13,10.49-7.8,10.98-12.91,23.35-2.52,6.08-5.01,12.37-7.17,19.29,18.39,16.73,42.36,27.6,69.1,29.31Z"/>
    <path class="cls-18" d="m891.37,694.42c37.53,2.41,72.48-10.6,98.67-33.59-3.44-12.97-7.6-25.67-12.45-37.62-8.17-20.13-23.38-36.18-41.93-45.44.15-.23.33-.44.47-.67,8.05-12.94,10.5-27.98,10.37-42.64-.12-13.95-2.63-28.32-11.13-40.08-8.5-11.76-24-20.39-39.97-18.95-17.15,1.55-30.95,14.23-36.81,28.36-5.86,14.13-5.27,29.55-4.11,44.49.83,10.71,3.77,21.59,8.87,30.67-11.28,6.81-21.26,16.79-30.8,29.1-9.76,12.59-9.36,13.18-15.5,28.02-3.02,7.3-6.01,14.85-8.61,23.15,22.07,20.09,50.84,33.12,82.94,35.18Z"/>
    <path class="cls-8" d="m755.5,669.02c-31.26,2.01-60.39-8.83-82.21-27.99,2.87-10.81,6.33-21.39,10.38-31.34,6.81-16.77,19.48-30.14,34.93-37.86-.12-.19-.27-.36-.39-.55-6.7-10.78-8.75-23.31-8.64-35.53.1-11.62,2.19-23.59,9.28-33.39,7.09-9.8,20-16.99,33.3-15.79,14.29,1.29,25.78,11.85,30.67,23.63,4.88,11.77,4.39,24.62,3.43,37.07-.69,8.93-3.14,17.98-7.39,25.55,9.4,5.67,17.71,13.99,25.66,24.25,8.13,10.49,7.8,10.98,12.91,23.35,2.52,6.08,5.01,12.37,7.17,19.29-18.39,16.73-42.36,27.6-69.1,29.31Z"/>
    <path class="cls-18" d="m786.97,696.18c-37.53,2.41-72.48-10.6-98.67-33.59,3.44-12.97,7.6-25.67,12.45-37.62,8.17-20.13,23.38-36.18,41.93-45.44-.15-.23-.33-.44-.47-.67-8.05-12.94-10.5-27.98-10.37-42.64.12-13.95,2.63-28.32,11.13-40.08,8.5-11.76,24-20.39,39.97-18.95,17.15,1.55,30.95,14.23,36.81,28.36,5.86,14.13,5.27,29.55,4.11,44.49-.83,10.71-3.77,21.59-8.87,30.67,11.28,6.81,21.26,16.79,30.8,29.1,9.76,12.59,9.36,13.18,15.5,28.02,3.02,7.3,6.01,14.85,8.61,23.15-22.07,20.09-50.84,33.12-82.94,35.18Z"/>
    <path class="cls-2" d="m826.6,735.81c49.92,3.21,96.41-14.1,131.25-44.68-4.57-17.26-10.11-34.15-16.56-50.03-10.87-26.78-31.11-48.12-55.77-60.44.19-.3.44-.58.63-.89,10.7-17.22,13.96-37.22,13.8-56.72-.15-18.56-3.49-37.66-14.81-53.31-11.31-15.65-31.93-27.12-53.17-25.2-22.81,2.06-41.17,18.92-48.97,37.72-7.8,18.79-7.01,39.31-5.47,59.18,1.11,14.25,5.01,28.71,11.8,40.8-15,9.05-28.28,22.34-40.97,38.71-12.98,16.75-12.45,17.53-20.62,37.28-4.02,9.71-8,19.75-11.45,30.79,29.36,26.72,67.62,44.06,110.32,46.8Z"/>
  </g>
  <g>
    <path class="cls-17" d="m511.52,1043.65c25.31,1.63,48.88-7.15,66.54-22.65-2.32-8.75-5.13-17.31-8.4-25.37-5.51-13.58-15.77-24.4-28.28-30.64.1-.15.22-.29.32-.45,5.43-8.73,7.08-18.87,6.99-28.76-.08-9.41-1.77-19.1-7.51-27.03-5.73-7.93-16.19-13.75-26.96-12.78-11.56,1.05-20.87,9.59-24.83,19.12-3.95,9.53-3.56,19.93-2.77,30,.56,7.23,2.54,14.56,5.98,20.68-7.61,4.59-14.34,11.32-20.77,19.63-6.58,8.49-6.31,8.89-10.45,18.9-2.04,4.92-4.06,10.01-5.81,15.61,14.89,13.55,34.28,22.34,55.93,23.73Z"/>
    <path class="cls-19" d="m486.04,1065.64c30.37,1.95,58.67-8.58,79.87-27.19-2.78-10.5-6.15-20.78-10.08-30.45-6.61-16.29-18.93-29.28-33.94-36.78.12-.18.27-.35.38-.54,6.51-10.48,8.5-22.65,8.4-34.51-.09-11.29-2.13-22.92-9.01-32.44-6.88-9.52-19.43-16.5-32.36-15.34-13.88,1.25-25.05,11.52-29.8,22.95-4.74,11.44-4.27,23.92-3.33,36.01.67,8.67,3.05,17.47,7.18,24.83-9.13,5.51-17.21,13.59-24.93,23.56-7.9,10.19-7.57,10.67-12.55,22.68-2.44,5.91-4.87,12.02-6.97,18.74,17.87,16.26,41.15,26.81,67.13,28.48Z"/>
    <path class="cls-17" d="m376.06,1045.08c-25.31,1.63-48.88-7.15-66.54-22.65,2.32-8.75,5.13-17.31,8.4-25.37,5.51-13.58,15.77-24.4,28.28-30.64-.1-.15-.22-.29-.32-.45-5.43-8.73-7.08-18.87-6.99-28.76.08-9.41,1.77-19.1,7.51-27.03,5.73-7.93,16.19-13.75,26.96-12.78,11.56,1.05,20.87,9.59,24.83,19.12,3.95,9.53,3.56,19.93,2.77,30-.56,7.23-2.54,14.56-5.98,20.68,7.61,4.59,14.34,11.32,20.77,19.63,6.58,8.49,6.31,8.89,10.45,18.9,2.04,4.92,4.06,10.01,5.81,15.61-14.89,13.55-34.28,22.34-55.93,23.73Z"/>
    <path class="cls-19" d="m401.54,1067.07c-30.37,1.95-58.67-8.58-79.87-27.19,2.78-10.5,6.15-20.78,10.08-30.45,6.61-16.29,18.93-29.28,33.94-36.78-.12-.18-.27-.35-.38-.54-6.51-10.48-8.5-22.65-8.4-34.51.09-11.29,2.13-22.92,9.01-32.44,6.88-9.52,19.43-16.5,32.36-15.34,13.88,1.25,25.05,11.52,29.8,22.95,4.74,11.44,4.27,23.92,3.33,36.01-.67,8.67-3.05,17.47-7.18,24.83,9.13,5.51,17.21,13.59,24.93,23.56,7.9,10.19,7.57,10.67,12.55,22.68,2.44,5.91,4.87,12.02,6.97,18.74-17.87,16.26-41.15,26.81-67.13,28.48Z"/>
    <path class="cls-2" d="m433.61,1099.14c40.4,2.6,78.04-11.41,106.24-36.17-3.7-13.97-8.19-27.64-13.41-40.5-8.8-21.67-25.18-38.95-45.14-48.92.16-.24.35-.47.51-.72,8.66-13.94,11.3-30.13,11.17-45.91-.12-15.02-2.83-30.49-11.99-43.15-9.16-12.66-25.84-21.95-43.04-20.4-18.46,1.67-33.32,15.32-39.64,30.53-6.31,15.21-5.68,31.82-4.43,47.9.9,11.54,4.06,23.24,9.55,33.02-12.14,7.33-22.89,18.08-33.16,31.34-10.51,13.56-10.07,14.19-16.69,30.17-3.25,7.86-6.48,15.99-9.27,24.92,23.77,21.63,54.74,35.66,89.3,37.88Z"/>
  </g>
  <g>
    <g>
      <path class="cls-14" d="m778.87,907.08c.23,1.53-.83,2.96-2.36,3.19-1.53.23-2.96-.83-3.19-2.36-.23-1.53.83-2.96,2.36-3.19,1.53-.23,2.96.83,3.19,2.36Z"/>
      <path class="cls-14" d="m804.56,903.24c.23,1.53-.83,2.96-2.36,3.19-1.53.23-2.96-.83-3.19-2.36s.83-2.96,2.36-3.19,2.96.83,3.19,2.36Z"/>
    </g>
    <path class="cls-9" d="m788.46,911.83l.56,3.74c.14.94,1.09,1.53,1.95,1.2l1.93-.72"/>
    <path class="cls-14" d="m783.06,897.67l-16.51,4.54s.68-4.66,7.44-6.46c6.76-1.79,9.07,1.92,9.07,1.92Z"/>
    <path class="cls-14" d="m792.75,896.22l17.12-.5s-2.02-4.26-9-3.99c-6.99.26-8.11,4.49-8.11,4.49Z"/>
    <path class="cls-2" d="m782.87,922.38l16.98-2.54s1.23,6.28-7.62,7.22c-8.85.95-9.36-4.68-9.36-4.68Z"/>
  </g>
</svg>