<?xml version="1.0" encoding="UTF-8"?>
<svg xmlns="http://www.w3.org/2000/svg" xmlns:xlink="http://www.w3.org/1999/xlink" viewBox="0 0 2000 2000">
  <defs>
    <style>
      .cls-1 {
        fill: #3b3735;
      }

      .cls-2 {
        fill: #f2936b;
      }

      .cls-3 {
        fill: #ddeef6;
      }

      .cls-4 {
        fill: #fff;
      }

      .cls-5 {
        fill: #eb808b;
      }

      .cls-6 {
        fill: #1e3865;
      }

      .cls-7 {
        opacity: .6;
      }

      .cls-8 {
        fill: #d33535;
      }

      .cls-9 {
        fill: #0b101d;
      }

      .cls-10 {
        clip-path: url(#clippath-2);
      }

      .cls-11 {
        isolation: isolate;
      }

      .cls-12 {
        fill: #e0e0e0;
      }

      .cls-13 {
        fill: #141a46;
      }

      .cls-14 {
        opacity: .8;
      }

      .cls-15 {
        fill: #333;
      }

      .cls-16 {
        fill: #ffebde;
      }

      .cls-17 {
        clip-path: url(#clippath-1);
      }

      .cls-18 {
        fill: #171c2d;
      }

      .cls-19 {
        opacity: .4;
      }

      .cls-20 {
        fill: #cc7646;
      }

      .cls-21 {
        fill: #fbfbfb;
      }

      .cls-22 {
        clip-path: url(#clippath);
      }

      .cls-23, .cls-24 {
        fill: #b5cbd6;
      }

      .cls-25 {
        fill: #d5dce0;
      }

      .cls-26 {
        fill: none;
      }

      .cls-27 {
        fill: #467743;
      }

      .cls-28 {
        fill: #ebebeb;
      }

      .cls-28, .cls-24, .cls-29 {
        mix-blend-mode: multiply;
      }

      .cls-29 {
        fill: #f0ddd5;
      }

      .cls-30 {
        fill: #352e35;
      }

      .cls-31 {
        fill: #31558a;
      }

      .cls-32 {
        fill: #9c9b9b;
      }

      .cls-33 {
        fill: #0b5b07;
      }

      .cls-34 {
        fill: #a1c9de;
      }

      .cls-35 {
        fill: #d1edfc;
      }

      .cls-36 {
        fill: #2f3787;
      }
    </style>
    <clipPath id="clippath">
      <path class="cls-26" d="m-399,1000c0,114.46-26.09,222.82-72.65,319.47-119.02,247.05-371.77,417.53-664.35,417.53s-545.33-170.48-664.35-417.53c-46.56-96.65-72.65-205.01-72.65-319.47,0-407.03,329.97-737,737-737S-399,592.97-399,1000Z"/>
    </clipPath>
    <clipPath id="clippath-1">
      <path class="cls-26" d="m1737-1541.18c0,114.46-26.09,222.82-72.65,319.47-119.02,247.05-371.77,417.53-664.35,417.53s-545.33-170.48-664.35-417.53c-46.56-96.65-72.65-205.01-72.65-319.47,0-407.03,329.97-737,737-737s737,329.97,737,737Z"/>
    </clipPath>
    <clipPath id="clippath-2">
      <path class="cls-26" d="m1737,1003.36c0,114.98-26.03,223.83-72.5,320.92-118.76,248.17-370.97,419.43-662.92,419.43s-544.16-171.26-662.92-419.43c-46.46-97.09-72.5-205.94-72.5-320.92,0-408.88,329.26-740.35,735.42-740.35s735.42,331.47,735.42,740.35Z"/>
    </clipPath>
    <clipPath id="clippath-3">
      <path class="cls-26" d="m3854.65,1000c0,114.46-26.09,222.82-72.65,319.47-119.02,247.05-371.77,417.53-664.35,417.53s-545.33-170.48-664.35-417.53c-46.56-96.65-72.65-205.01-72.65-319.47,0-407.03,329.97-737,737-737s737,329.97,737,737Z"/>
    </clipPath>
  </defs>
  <g class="cls-11">
    <g id="Layer_1" data-name="Layer 1">
      <g class="cls-22">
        <circle class="cls-36" cx="-113.95" cy="507.84" r="146.12" transform="translate(-392.47 68.17) rotate(-45)"/>
      </g>
      <path class="cls-35" d="m1737,1000c0,114.46-26.09,222.82-72.65,319.47-119.02,247.05-371.77,417.53-664.35,417.53s-545.33-170.48-664.35-417.53c-46.56-96.65-72.65-205.01-72.65-319.47,0-407.03,329.97-737,737-737s737,329.97,737,737Z"/>
      <path class="cls-34" d="m1594.73,1435.36c-134.11,182.9-350.56,301.64-594.73,301.64s-460.62-118.74-594.73-301.64h1189.46Z"/>
      <g class="cls-7">
        <g>
          <path class="cls-21" d="m776.31,958.32s4.43,6.66,0,7.11c-4.44.44-2.66-1.34-5.33,2.66-2.67,4-.88,4.88-5.77,6.22-4.88,1.33-6.21.89-8.87,3.1-2.67,2.22-4.45,2.67-2.67,7.55,1.78,4.89,4.89,7.99,3.56,10.22-1.33,2.22-2.32,6.66-4.26,9.32-1.95,2.67-1.61,3.55,0,7.99,1.6,4.44-2.4,9.76,2.05,10.65,4.44.89,6.58,2.22,9.95,0,3.36-2.22,6.03,1.33,7.36-7.1,1.34-8.44,4.39-13.32,5.98-19.98,1.58-6.66,7.8-11.1,5.13-15.98-2.67-4.88-5.32-7.99-2.67-7.99s5.32-1.33,3.33-3.11c-1.99-1.77-.65-4-2.43-7.99-1.78-4-6.86-5.64-5.33-2.67Z"/>
          <path class="cls-21" d="m726.15,647.26s8.88-1.03,6.67,2.07c-2.23,3.11.35,3.11-3.16,4-3.51.89-6.17-4.88-6.17,0s3.1,7.1,0,7.99c-3.11.89-1.34-1.33-5.78,0-4.44,1.33-5.77.22-5.77.22,0,0-2.66-5.35,0-7,2.67-1.65,8.49-7.42,10.02-4.31,1.53,3.1,4.19-2.96,4.19-2.96Z"/>
          <g>
            <path class="cls-21" d="m660.44,708.38c-.55.83-1.62-.41-2.89-1.68,1.38,5.54,3.73.42,2.89,1.68Z"/>
            <path class="cls-21" d="m1436.49,483.02c-.9-2.4-1.34-9.06-5.33-9.5-4-.45-4.44-2.66-7.99,0-3.55,2.66-4.88,4.44-7.55,3.11-2.66-1.34.89-10.21-1.77-10.65-2.66-.45-28.86-22.2-34.17-24.42-5.33-2.22-1.34-3.1-9.32-4.44-8-1.33-.46-4-9.33-3.55-8.89.44-14.67-4.54-14.22-.05.45,4.49,1.34,4.49.45,8.49-.9,3.99-2.66,11.1-5.33,9.77-2.66-1.33-2.22-4.44-4.89-7.99-2.67-3.55-1.34-9.32-7.1-6.21-5.77,3.11-1.77.89-9.33,1.33-7.53.44-10.65-3.11-12.43,0-1.77,3.11-4.44,7.1-4.44,8.43s-4.44,6.22-4.44,6.22l.88-7.55s1.78-9.32,0-7.99c-1.77,1.33-5.77,1.33-4.88-4,.88-5.33,10.65-11.1-.89-11.99-11.54-.89-14.66.89-20.43,0-5.77-.89-8.88-1.84-10.65-.26-1.77,1.58-4.44.7-4.89-3.3-.45-4-1.34-2.22-4.44-4.44-3.11-2.22-3.55-4.44-2.67-5.77.89-1.33-1.33-4.88-9.32-5.77-8-.89-1.77,4.88-8-.89-6.22-5.77-6.65-9.77-12.42-9.77s-9.33-5.33-11.99-2.22c-2.67,3.11,1.77.45-2.67,3.11-4.43,2.66-6.66,1.77-7.09,5.33-.45,3.55.44,5.77,2.22,4.88,1.77-.89.88-.89.44,2.22-.44,3.11-.89,3.55-.44,6.22.44,2.66-1.79,4.88-4.02,3.1-2.2-1.77-1.32-2.22-4.87-1.77-3.56.44-1.78-10.21-8.88-4.44-7.1,5.77-6.66,9.76-9.33,5.77-2.66-4-1.78-10.21-4.88-7.1-3.1,3.11-3.1,4.44-5.33,8.44-2.22,3.99-.89,7.1-4.01,5.77-3.1-1.33-4.88-3.55-6.2-7.99-1.34-4.44-7.55-5.77-4.44-8.88,3.1-3.11,4.44-2.22,3.1-6.66-1.33-4.44,1.78-5.5-1.33-8.96-3.1-3.47-6.21-11.9-8.43-7.91-2.22,4,1.78,7.1-4.44,3.55-6.22-3.55-4.89-10.65-7.99-6.66-3.11,3.99-5.77,6.66-6.21,9.77-.45,3.11-3.56,4.44-4.89,5.33-1.34.89,1.33-1.34-5.77-1.78-7.11-.44-7.11,0-11.1-4.44-3.99-4.44,6.22-4,1.34-7.11-4.89-3.11-4.89-4.59-8.89-2.96-3.99,1.63-11.55-2.97-13.32-.67-1.78,2.3-2.22-2.28-5.77-.66-3.56,1.62-7.11-1.89-9.76-.35-2.67,1.53-4.01,5.53-4.01,5.53,0,0-3.1,4.88-5.32,5.77-2.22.89-12.87,3.11-11.54-1.34,1.33-4.44,3.54-3.11,6.21-5.33,2.67-2.22,4.44-2.09,6.22-5.04,1.77-2.95,3.1-4.28,6.22-6.5,3.1-2.22,5.77-4.88,8.42-6.21,2.67-1.33,4.89-4.88,5.32-8.88.46-4,3.56-7.11,1.35-8.88-2.22-1.78-1.35-7.55-4.89-12.43-3.56-4.89,2.22-10.21-4.44-10.21h-11.1c-6.21,0-4.88,2.22-7.98,3.11-3.12.89-5.77,4.44-5.33.89.43-3.55,8.43-4.88,2.65-7.55-5.76-2.66-6.21-1.77-8.43-3.11-2.22-1.33,0-2.22,2.22-4.89,2.22-2.66,7.55-3.55,1.34-5.77-6.21-2.22-7.99-9.32-10.66-4.44-2.67,4.88-5.33,6.66-7.55,9.77-2.22,3.11-4.88,12.43-4.88,12.43l2.66,6.21s4.89,1.33,2.22,2.66c-2.65,1.33-3.55-.45-7.54-.45s-8.89-3.99-7.99-.44c.89,3.55,4.44,9.77-3.55,8.88-8-.89-2.23-8.88-7.55-8.44-5.33.45-8.87,4.88-10.65,5.33-1.78.45-6.22,1.78-8.88,4-2.67,2.22-9.77,3.55-11.54,6.66-1.78,3.11-9.32,6.66-8.88,9.77,0,0-1.78,1.78-4.44,4.44-2.66,2.67-4.75,2.67-3.7,4.88,1.04,2.22,6.36.44,5.03,5.33-1.33,4.89,1.33,5.77-2.66,6.66-4,.89-3.11,0-7.55,1.33-4.44,1.33-3.55.89-9.32,2.22-5.78,1.34-22.64-4-16.87,1.34,5.76,5.32.88,9.77,2.66,12.43,1.77,2.66,5.77,2.66,7.1,5.33,1.33,2.67,5.33,4,5.33,6.22s3.1-5.77,3.55.44c.45,6.22,3.11,6.22,1.77,8.89-1.33,2.66-1.33.44-1.33,4.88s3.1,10.65-.89,8c-4-2.67-3.1-1.34-3.55-7.11-.45-5.77,1.77-.44-.45-5.77-2.21-5.33-.88-1.78-4.44-6.21-3.56-4.44-1.33-7.11-6.22-7.11s-7.99-5.77-9.31-1.77c-1.34,3.99,4.87,8.88-1.79,6.66-6.65-2.22-6.21,4.44-6.65-2.22-.45-6.66-3.99-16.87-6.66-15.1-2.66,1.78-3.99,2.67-2.22,6.66,1.77,4,5.33,4.88,1.33,8.88-3.99,4-5.78,1.33-5.78,5.32s-4,5.78-1.77,7.55c2.22,1.78,8.88,8.88,6.66,10.66-2.22,1.78-4,1.78-3.55,5.32.44,3.56-.89,7.55,1.33,8.88,2.22,1.33,4.44.89,7.99,1.33,3.56.44,5.78-1.78,7.11,3.11,1.34,4.88,5.32,4,4,8.88-1.34,4.88-4,.44-1.34,4.88,2.66,4.44.44,9.33-2.22,5.33-2.67-3.99,1.77-9.33-1.77-12.43-3.56-3.1-2.66-6.66-5.78-3.1-3.11,3.55-1.77,5.77-4,10.21-2.22,4.44-.44,7.11-3.99,8.88-3.56,1.78-3.11,8.44-8.45,9.77-5.32,1.33-6.66.44-11.09-1.33-4.46-1.78-5.78-6.66-1.79-6.66s7.99,6.66,9.33,2.67c1.33-4,4.44-5.78,5.32-8.88.9-3.1,1.78-5.32,2.22-9.77.45-4.44,3.55,1.33.45-4.44-3.1-5.77-1.33-3.99-2.22-10.65-.88-6.66,0-6.21-.88-11.54-.9-5.33.43-13.32-2.22-14.21-2.66-.89-4.44-1.78-3.55-4,.89-2.22.89-3.11,3.55-4.88,2.66-1.78,7.11-2.22,4-7.1-3.12-4.89,0-7.1-4.89-7.1s-7.11-3.55-10.21.44c-3.1,4,0,7.1-3.1,11.1-3.11,4-2.66,9.77-5.77,11.1-3.11,1.33-4.88-.44-4.88,4.44s-.46,4.44.88,7.55c1.33,3.11,2.21,5.78,1.33,7.99-.88,2.22-3.1,6.21-1.33,7.1,1.77.89,5.32-1.33,5.77,1.78.44,3.11,3.1.89,3.99,5.32.89,4.44,2.66,7.99-.46,8.88-3.09.89-4.43,1.33-7.54-3.11-3.11-4.44-5.32-7.1-9.32-9.32-4-2.22-3.56-2.22-7.99-4.88-4.44-2.66-6.22-4.44-8.88-3.55-2.67.89-7.56-6.22-7.11-.89.45,5.33.89,6.21.89,9.77s1.77,4.88-2.22,6.22c-4,1.33-1.78-4-4.88-3.11-3.11.89-1.33,0-4.89,3.55-3.55,3.55-3.1-.44-7.54.44-4.44.89-2.66,1.78-6.22,4-3.55,2.22.45,4.89-3.55,2.22-3.99-2.67.88-4-.89-7.11-1.77-3.1,1.77-5.32-1.77-3.1-3.56,2.22-3.12,2.66-6.67,5.33-3.55,2.66,3.11,0-3.55,2.66-6.66,2.67-6.66,0-9.33,3.55-2.66,3.55-5.77,2.67-7.1,5.77-1.33,3.11-.89,7.99-4.88,8.44-4,.44-9.33.44-7.55-5.33q1.77-5.77,4.44-8.44c2.67-2.66.89-4.88-1.33-4.88s-4-3.55-5.77-.89c-1.78,2.67-2.22,5.33-2.22,8.44s-1.34,7.55-1.34,7.55c0,0,3.12,2.22,3.12,4.88s0,4.44-1.78,6.66-3.11-5.33-5.33-3.55c-2.22,1.78-4.88.89-4.88,3.11s-3.11,3.56-5.77,4c-2.67.44-2.22,1.78-4.45,4.88-2.21,3.11,4.89.89,2.67,5.77-2.22,4.88-1.34,4-7.1,3.11-5.77-.89-5.33-4.88-8-4.88s-5.33,1.77-2.21,4.44c3.1,2.66,7.99,1.33,5.77,5.33-2.22,3.99-4.44,6.66-7.99,3.11-3.56-3.56-.44.88-4.44-6.22-3.99-7.1-3.99-4.44-3.99-9.77s1.33-9.32-2.22-10.66c-3.56-1.33-7.99-1.33-7.99-5.77s1.34-4.44,3.56-1.33c2.23,3.11,4,2.66,7.99,3.55,4,.89.88,2.66,8.44,3.99,7.54,1.34,7.99,5.33,12.43,2.22,4.44-3.11,13.32-.89,11.1-7.99-2.22-7.1,6.21-9.32-1.33-13.32-7.54-4-5.78-7.1-11.54-10.66-5.77-3.55-16.43-18.2-19.54-13.32-3.1,4.88-5.77,7.99-9.76,4-4-4-6.21-4.88-8.88-7.1-2.67-2.22-6.22-1.33-4.44-6.22,1.77-4.88.44-6.66-2.67-6.66s-7.54-4.88-11.98-3.1c-4.44,1.77-11.99-3.55-15.99,4.89-3.99,8.43-3.11,9.32-9.32,9.77-6.21.44-16.87,5.77-19.98,11.54-3.11,5.77-9.76,3.55-11.98,7.99-2.22,4.44-5.77,5.33-5.77,7.55s.44,0,5.32-1.34c4.89-1.33,10.66-7.99,8.88-2.21-1.77,5.77-3.11,7.1-5.77,10.65-2.66,3.55-5.78,4.88-6.66,9.32-.89,4.44-3.28,6.22-5.2,7.55-1.9,1.33-2.35,2.22-2.35,6.66s-.44,6.66-3.11,7.55c-2.67.89-2.67-5.77-2.67.89s3.12,5.33,0,6.66c-3.09,1.33-4.42-.89-5.76,2.22-1.33,3.11-8.44,2.22-9.33,5.77-.89,3.56-4.44,5.34-5.77,7.55-1.33,2.22-3.55,4.44-3.11,6.66.45,2.22-1.77,11.54,0,14.21,1.78,2.66-1.77,6.22-3.55,10.21-1.77,4,0,3.11,2.66,7.1,2.67,3.99,3.11,7.99,8.44,4.44,5.33-3.55,7.1-9.32,9.77-9.32s2.66-1.77,4.43-4c1.79-2.22,4-6.21,4.45,1.33.44,7.55-.89,5.77,2.22,9.32,3.12,3.55,4.71,5.77,3.69,9.33-1.02,3.55-3.85,3.11,0,6.21q3.86,3.11,2.08,5.78c-1.78,2.66,0,9.76,3.55,4.44,3.56-5.33,4.44-9.76,7.55-9.76s8.44-2.22,7.99-5.33c-.44-3.11.89-9.77,2.22-10.21,0,0,7.11-3.11,7.11-7.55s3.55-3.99,0-7.1c-3.55-3.11-3.99-1.78-6.21-5.33-2.22-3.55,5.77-7.99,2.66-10.65-3.11-2.66-4.88-2.66-2.66-7.99,2.22-5.33-2.22-2.22,2.22-5.33,4.44-3.11,5.78-1.33,7.99-5.77,2.21-4.44,3.54-6.66,5.32-6.66s5.77-4,4.45-4.88c-1.34-.89-1.34-11.1,1.33-11.98,2.66-.89,3.56-2.22,7.1-1.78,3.56.44,5.33-.44,6.66,2.66,1.34,3.11,4.45,6.21,2.22,8.43-2.22,2.22-2.22,2.66-6.21,6.22-3.99,3.55-4,4-7.11,6.66-3.11,2.66-.89,4.88-1.77,6.21-.89,1.34-.44-2.22-3.1,1.78-2.67,4-4.44,4.88-.89,7.99,3.56,3.11,3.11,7.99,1.34,9.32-1.78,1.33-7.11-3.11-1.78,1.33,5.33,4.44,11.55,3.99,10.21,7.1-1.33,3.1-4.44,4.88,1.79,3.1,6.21-1.77,5.32-3.55,10.64-4.88,5.33-1.33,7.11-.89,9.78-1.33,2.65-.44,5.33-.89,3.99,3.11-1.34,4-.88,5.33-5.32,6.66-4.44,1.33-2.67-.44-8.88.89-6.22,1.34-7.1-1.33-8.88.89-1.78,2.22-5.33,2.66-1.78,4.88,3.56,2.22,5.77-3.11,3.56,2.22-2.22,5.33-1.33,7.99-.89,10.21.45,2.22-.89,6.22-4.44,3.99-3.56-2.22-.89-8.88-4.89-6.66-3.99,2.22-1.33,4.88-5.77,7.99-4.45,3.11-3.12.89-3.12,6.66s2.67,7.99-1.77,9.32c-4.44,1.33-9.76,1.33-9.76,1.33,0,0-6.65-1.33-11.99,2.22-5.32,3.55-8.44,3.11-10.66,3.11s.28-3.55-3.86-2.66c-4.13.89-11.68,1.77-11.23-2.22.44-4-.9-3.55,2.21-7.1,3.11-3.55,1.34-4.89,0-8-1.34-3.1.45-3.1,0-5.32-.44-2.22.45-7.99-2.67-5.33-3.1,2.67-3.54,6.22-5.32,7.55-1.79,1.34-2.22,4.44-2.22,7.99s3.56,6.66,1.77,8.88c-1.77,2.22.89,3.99-2.22,6.21-3.12,2.22-7.1,3.56-9.33,4.44-2.22.89-2.67.89-6.22,4.44-3.55,3.55.89,6.66-4.44,9.32-5.33,2.66-12.43,2.66-12.43,4.44s.88,4.88-1.77,6.22c-2.67,1.33-2.67,1.77-6.22,3.55-3.56,1.77-6.21-2.67-6.21,0s3.55,2.22.44,5.78c-3.1,3.54-7.1-3.12-8.44.44-1.33,3.55-7.98.89-6.21,2.66,1.77,1.78.44,6.22,2.67,6.22s4.89-3.11,5.77.44c.89,3.55,1.77,4,3.54,6.22,1.78,2.22,3.12,2.66,3.12,6.21s0,4.88.89,7.1c.88,2.22,2.66,4.44,0,6.22-2.67,1.77-1.77,0-5.33,1.33-3.56,1.34-4-.89-7.11-.44-3.1.44-2.66,1.33-8,.44-5.32-.89-5.77-6.22-9.32-3.55-3.56,2.67-4.44,3.99-6.22,5.77-1.77,1.78-3.55,3.11-1.33,7.11,2.22,3.99.45,5.77,0,7.1-.44,1.33,1.78,3.11.45,5.77-1.33,2.66-3.56,4.88-2.22,7.55,1.33,2.66,4.44,2.66,3.56,5.33-.89,2.66-.45,6.22,2.21,5.33,2.67-.89,5.33-1.34,8-.89,2.66.44,3.1,5.33,6.66,4.88,3.56-.44,3.11-.89,7.1-2.22,4-1.33,6.66-.88,8.88-3.11,2.22-2.22,6.66-4.88,6.66-4.88,0,0,3.11-1.78,3.11-4s-2.67-2.22-.88-6.21c1.77-4,3.55-2.22,5.76-7.11,2.22-4.88,5.78-2.78,7.55-4.5,1.78-1.72,2.66.06,2.22-4.83-.45-4.88-1.33-5.33,1.33-6.21,2.67-.89,2.67-1.33,7.11-.45,4.44.89,4.44,1.78,7.1,1.33,2.67-.44,6.66-2.66,10.66-4.88,4-2.22,6.21-3.11,6.65.44.45,3.56-3.54,0,.45,3.56,4,3.55,5.77,3.1,6.22,7.1.45,4,1.6,5.77,3.24,5.77s4.75-.89,6.97,1.33c2.22,2.22,8.43,2.22,8.43,2.22,0,0,.89.89.89,4.88s4,4.88,2.23,7.1c-1.79,2.22-3.12,5.77-.89,5.33,2.22-.45,8.43-8.44,6.21-8.44s-5.77-3.11-3.55-5.33c2.22-2.22,1.78-3.1,4.89-1.77,3.11,1.33,5.77-5.77,1.33-3.55-4.44,2.22-5.77-2.78-7.99-3.61-2.23-.83.44-3.05-1.34-3.49-1.78-.44-6.22,2.22-8.88-1.77-2.67-4-.44-4-3.11-5.77-2.67-1.78-4.17-3.11-5.2-5.33-1.02-2.22-1.64-6.66,0-7.99,1.64-1.33,4.31-6.21,5.63-3.55,1.34,2.66-1.33,3.55,3.11,4.88,4.44,1.34,2.22,4,4.89,6.22,2.66,2.22,5.78,3.56,7.54,4.44,1.78.89.89.89,4.43,4,3.56,3.11,6.67,0,7.11,5.77.44,5.77-.89,8.44,1.33,10.65,2.22,2.22,5.33,2.66,4.44,4.44-.89,1.78,4.44,6.22,4.44,6.22-3.56,2.66-2.66,6.22-.45,7.54,2.22,1.33,7.55,5.33,7.55,3.11s-.44-6.22-.44-6.22l-4.45-3.11s2.22-2.66,4.45-1.77c.82.33,1.67,1.11,2.43,1.87-.07-.3-.15-.62-.21-.99-1.34-7.1,2.22-7.54-.89-10.21-3.11-2.66-3.11-6.21.89-5.32,4,.88,4-.44,7.1,0,3.11.44,6.22,2.22,8,1.78,1.77-.44,4.44,0,6.22-1.33,1.77-1.33,5.76-2.66,5.32,0-.44,2.67-4.44,4-8.44,5.33-3.99,1.33-9.32.44-5.77,3.55,3.56,3.11,6.22,6.22,4.44,7.1-1.77.89-2.67,2.67,1.33,4.89,4,2.22,3.12.44,4,2.22.89,1.77,2.67.89,5.33,3.1,2.66,2.22,6.22,4,7.1,2.66l.89-1.33s-2.66-2.22,0-3.11c2.66-.89,1.33-1.78,3.99.89,2.67,2.66,2.67,4.88,5.33,3.99,2.67-.89,7.1-3.99,8.87-4.88,1.78-.89,4.89-4.88,5.78-.89.88,4,.44,3.55-.89,7.1-1.22,3.26,3.53,4.65,2.96,6.57-.36.47-1,1.32-2.07,2.76-5.32,7.1-7.1,8.88-5.78,10.65,1.33,1.78.89,1.78-2.21,3.11-3.11,1.33-1.34,3.11-4.44,4.88-3.12,1.78-2.23,4-4.89.44-2.67-3.55-2.22-9.32-5.33-7.55-3.1,1.78-2.22,1.33-7.1,4-4.89,2.66-.89,7.1-4.89,2.66-4-4.44-5.77-3.55-8.44-4.44-2.66-.89-3.56-2.66-6.66-1.77-3.11.89-5.32.44-7.54.89-2.22.44-2.67-4.88-4-4.88s-4.44-2.73-6.21-2.48c-1.78.25-2.22,3.36-4.88,3.81-2.67.44-2.23-.44-3.11,2.22-.89,2.66.88,4.44-.89,6.66-1.78,2.22,4,4.88-3.56,2.22-7.55-2.67-1.33-3.56-9.76-4-8.44-.44-4-4.88-7.99-6.22-4-1.33,4.43.89-4-1.33-8.43-2.22-2.23.44-8.43-2.22-6.22-2.66-2.22,1.78-6.22-2.66l-3.99-4.44s-4.89-1.33-2.22-3.1c2.66-1.78,3.09-1.78,2.66-4.88-.44-3.11-1.79-4-.44-5.77,1.33-1.77,3.99-4.44,2.22-4.44s-3.12.45-5.33,1.33c-2.21.89-4.44,0-9.76,0s-4.44-2.22-8.44.89c-3.99,3.11-3.99,2.22-7.1.45-3.11-1.78.88-3.55-5.78.44-6.65,4,1.33,2.22-6.65,4-8,1.77-4.45.89-11.99,4-7.55,3.11-3.11,0-8.44,0s-5.33,4.88-9.32,1.33c-3.99-3.55-7.92-4.19-8.43-1.34,0,0-.89,6.66-2.67,7.99-1.78,1.33-2.66-.88-4.89,1.78-2.22,2.66-.88,3.11-4.43,5.33-3.56,2.22-13.32,6.66-10.22,9.77,3.12,3.1,7.99,7.1,3.56,7.99-4.43.89-3.99,3.55-7.1,6.66-3.11,3.1-6.66,1.78-6.66,3.99s-1.78,7.11-4.43,7.99c-2.66.88-4.01,2.67-3.56,5.33.44,2.67-5.77,7.99-5.77,9.77s2.66,3.55,0,5.33c-2.67,1.77-7.55,3.99-5.78,5.77,1.79,1.78,3.56,7.02,3.56,9.28s0,6.7-.88,9.81c-.88,3.11-5.2,13.76-3.04,15.09,2.16,1.33,6.15,9.77,6.15,11.1s.88,1.78,5.32,5.77c4.44,4,5.33,4.88,5.33,8.44s-.44,1.78,4,4.89c4.44,3.1,9.32,6.22,12.88,7.99,3.55,1.78,4,7.55,9.76,7.99,5.78.45,10.65,1.78,12.88,0,2.22-1.77,8.43,1.35,12.88.9,4.43-.45,7.1-3.12,9.77-4.44,2.67-1.33,7.09-4.89,7.09-4.89,0,0,4.01-.88,7.11-.88s9.77-3.56,11.55-.44c1.78,3.1,4.44,9.88,7.54,10.71,3.11.83,10.21-1.28,11.99,0,1.78,1.28,4.44.39,4.44,3.5s3.12,3.55,0,6.21c-3.1,2.67-3.1,4-2.21,5.77.88,1.77.88,3.1-1.33,5.33-2.22,2.22-3.11-2.22-2.22,2.22.89,4.44,3.56,6.66,4,9.77.44,3.11,2.22,4.44,5.77,6.66,3.55,2.22,5.32,1.78,5.78,5.32.44,3.56-.89,0,.44,3.56,1.33,3.55,5.32,1.78,4.44,5.33-.88,3.55,1.59,4.89.13,7.54-1.46,2.66-4.26,5.78.47,8.44,4.73,2.66,1.93,3.55,0,7.1-1.93,3.55-4.59,6.21-5.47,8.88-.89,2.66.44,6.21-.89,7.99-1.33,1.77-1.33,5.32-.89,8.88.45,3.55,5.77,3.99,6.21,7.99.45,4,0,6.22,1.79,8,1.77,1.77-1.15,3.99,1.87,7.99,3.01,3.99,3.9,5.77,3.46,10.21-.44,4.44-2.45,7.55.11,9.32,2.55,1.78,4.77,5.33,4.77,7.99s5.33,4.44,6.66,7.55c1.34,3.11.45,4.44,2.22,7.55,1.78,3.1,5.33,6.66,5.33,7.99s2.22,3.55,0,5.33c-2.22,1.77-2.67,2.66-1.33,4.88,1.33,2.22,3.11,4.88,5.33,5.77,2.22.89,3.98-.89,7.1-1.78,3.11-.88,3.11-1.33,7.55-2.21,4.44-.89,7.55-2.23,11.1,0,3.56,2.21,10.66.44,11.54-2.23.89-2.66,8.44-6.21,9.78-9.32,1.34-3.11,1.34-2.22,3.99-6.21,2.66-4,5.32-7.1,5.76-8.88.46-1.77,3.13.45,4.45-3.99,1.34-4.44,2.66-11.55,2.66-11.55,0,0-2.22-1.33,0-3.55,2.23-2.22,8.87-4.88,10.21-6.66,1.33-1.77,5.33-3.99,3.11-7.1-2.22-3.1-3.11-11.55-3.11-11.55,0,0-3.1-1.32-2.66-3.55.45-2.22,1.32-1.78,6.44-5.32,5.11-3.55,11.32-9.77,15.32-11.1,3.99-1.33,8.88-5.33,7.55-9.33-1.34-4,1.33-.89.22-7.99-1.12-7.1,3.89-11.54.27-14.65-3.61-3.1-3.61,8.88-5.39-3.99-1.77-12.88-1.77-13.32-3.55-13.32s-.44-2.66.89-4.88c1.33-2.22,1.78-10.65,4.89-15.09,3.1-4.44,4.44-4.44,9.77-8.88,5.32-4.44,18.65-13.76,23.08-17.76,4.44-4,10.21-7.99,9.33-11.54-.89-3.55,0-2.67,3.11-7.11,3.1-4.44,7.55-6.21,7.1-11.54-.45-5.33,3.56-12.87-2.22-9.32-5.78,3.55-8.89,3.99-10.22,3.99,0,0-1.33,3.55-1.33,5.77s.89,5.77-2.67,7.55c-3.55,1.78-2.66.89-8.43.89s-3.1-1.33-7.54-3.55c-4.45-2.22-6.66-.89-7.11-6.22-.44-5.33,1.78-4,.89-7.99-.89-3.99-1.78-6.22-4.89-8.44-3.11-2.22-.88-6.21-5.32-6.66-4.45-.44-5.78.44-7.11-2.66-1.33-3.11-.88-11.54-5.32-13.32-4.45-1.78-8.88-9.32-8.44-14.21.45-4.88,5.77-5.33-.88-11.99-6.66-6.66-9.32-9.77-11.55-12.87-2.21-3.11-.44-9.77-4.88-13.33-4.45-3.55-4.89-7.55-3.12-7.55s2.67,2.22,5.33,5.33c2.67,3.11.46,1.33,2.67,3.11,2.22,1.78,5.32-7.55,5.32-7.55l-.89,8.44s2.66,1.33,3.56,4.88c.88,3.55,1.77,3.55,4.44,6.22,2.66,2.67,3.55,5.77,3.99,7.1.44,1.33,2.67,2.22,4.44,3.11,1.78.89,4.45,1.33,4.45,6.22s-5.33,4-.89,8.88c4.44,4.88,8.88,4.8,9.33,10.17.44,5.37,2.66,9.36,4.43,11.14,1.78,1.77,3.11,3.11,3.56,7.1.45,4,.78,6.66,3.27,8.88,2.5,2.22,4.28,4.89,7.39,2.67,3.1-2.22,5.07-5.33,9.19-5.77,4.11-.44,10.78-2.66,13.89-3.55,3.11-.89,7.99,1.33,9.76-3.11,1.77-4.44,3.56-4.89,5.34-5.77,1.77-.88,3.1,0,7.54-2.66,4.44-2.66,5.33-1.33,8.88-4,3.55-2.66,6.65,3.02,7.54-4.92.89-7.95,3.56-6.62,4.89-10.61,1.32-4,4.44-5.33,2.22-7.1-2.22-1.78-.89-2.22-4-4.44-3.1-2.22-2.22-2.66-4.88-2.66s-4.44.89-6.22-2.66c-1.77-3.55.45-8.44-1.77-8-2.22.45-.44.89-4,3.99-3.56,3.11-5.33,5.78-7.55,6.66-2.22.89-5.32.44-8.44-1.78-3.1-2.22-1.33-2.67-2.21-5.77-.89-3.11-4.85-6.66-4.43-4.88.43,1.78.43,5.77-1.79,5.77s-2.66-2.22-2.66-4.88,0-4.44-1.34-5.77c-1.33-1.33-1.77-3.55-4.89-6.66-3.1-3.1-4.44-4.88-1.78-6.21,2.67-1.33,3.56-2.66,5.33-3.99,1.78-1.33.89-3.99,4.44,0,3.55,3.99-1.74,4.44,2.68,7.1,4.43,2.66,4.87,3.1,6.2,6.21,1.34,3.11,5.77,4,5.77,4,0,0,4.44,2.66,7.1,2.66s6.66-2.22,8-1.78c1.33.44,2.66.89,4,4,1.34,3.11,7.55,4.89,10.65,5.33,3.11.45,8-.89,11.54-.44,3.55.44,9.78,0,13.77,0s5.32-.89,7.98-1.33c2.67-.45,4.45,2.22,5.78,4.88,1.33,2.67-.9,5.33,3.1,5.78,4.01.44,6.22.88,7.1,2.22.9,1.33,2.23,3.99,0,4.88-2.22.89-6.2-2.66-2.22.89,4,3.55,4.89,8.88,8,7.11,3.1-1.77,3.55-4.44,5.32-6.21,1.78-1.78,3.11-4.44,3.11,1.33s1.33,7.54,0,10.65c-1.33,3.11-1.47,3.55.6,7.99,2.06,4.44,1.62,4.44,2.06,11.1.45,6.66,3.56,7.99,4.89,11.1,1.33,3.11,3.11,6.66,3.56,8.88.44,2.22.44,3.11,2.67,7.1,2.22,4,2.67,4,5.32,6.66,2.66,2.66.45,6.66,2.66,2.66,2.22-4,2.66-5.33,4.88-6.66,2.24-1.33-.43-.89,3.12-4,3.55-3.11.89,4.44,4.45-5.33,3.55-9.77,7.98-8.88,5.32-13.32-2.67-4.44-6.22-7.1-3.1-8.88,3.1-1.78,3.99.44,6.22-3.55,2.22-4,4.88-4.88,8.43-8.44,3.56-3.55-.44-6.66,3.56-7.99,3.99-1.33,6.21,1.77,8.44-1.33,2.21-3.11,3.99-6.66,6.21-7.55,2.22-.89,3.11,2.66,6.66.45,3.56-2.22,7.11-3.11,7.11-3.11,0,0-2.22-3.55,0-4.44,2.21-.89,2.66-3.55,3.99,1.33,1.33,4.88-.88,5.33,2.67,8.88,3.56,3.55,6.21,3.99,6.66,8.44.45,4.44,3.1,4.44,4.44,7.55q1.33,3.11,0,6.22c-1.34,3.11-4.44,3.99-.88,4.88,3.55.89,6.21.44,7.99-.44,1.77-.89.88.89,3.98-4.88,3.11-5.77,5.33-6.21,5.33-2.66v9.77c0,3.11-1.77,2.66,0,6.66,1.77,4,2.22,4.88,2.22,8.88s.44,7.99,0,11.1c-.46,3.1-2.26,4.88.19,6.21,2.47,1.34,4.69.89,4.69,3.56s3.56,11.99,7.55,15.98c3.99,4,4.89,6.66,8.88,9.77,4,3.11,9.77,7.99,6.66,4-3.11-4-5.33-8.44-4.44-11.99.89-3.55,1.78-4.88-2.22-7.99-4-3.11-4.44-4.44-7.11-6.22-2.66-1.77-1.77-4.44-4.44-7.1-2.67-2.66-5.77-3.55-6.22-6.22-.45-2.66,2.67-12.43,2.67-12.43,0,0,.44-7.99,3.99-5.77,3.56,2.22,6.67,4,10.22,6.22,3.56,2.22,3.56,4.88,6.21,7.99,2.67,3.11,2.66,5.77,2.22,7.55-.45,1.77-.45,4.88,3.11,2.66,3.55-2.22,9.32-4.89,10.65-7.99,1.33-3.11,3.11-2.22,5.78-6.66,2.66-4.44,3.99-7.11,2.66-10.66-1.34-3.55-3.11-9.33-5.32-10.66-2.22-1.33-3.11-3.55-4.89-5.33-1.77-1.78-3.55-5.77-3.55-5.77,0,0-2.65-1.77-1.32-6.66,1.32-4.89,3.55-4.89,5.32-7.99,1.77-3.11,1.77-3.99,4.89-3.99s.89-4.44,3.1,0c2.22,4.44-1.61,4.89,2.3,6.21,3.92,1.33,6.58-4.44,9.25-4.44s9.77,2.22,9.33-2.22c-.45-4.44-4.46-5.77-.45-4.44,3.99,1.33,1.77,4,6.65,2.22,4.89-1.78,14.66-4.44,16.88-9.32,0,0,1.33-4.88,3.98-6.66,2.67-1.78,2.67-3.56,3.55-6.66.88-3.11,1.34-3.11,5.33-6.21,3.99-3.11,9.33-7.11,6.66-9.33-2.67-2.22-5.77-2.22-7.11-1.77-1.34.44,0-4.89,2.66-5.77,0,0,3.56-4.44-.44-6.22-3.99-1.77-3.55-1.38-4.44-5.13-.88-3.75,1.34-8.63-2.22-9.52-3.56-.89-7.99,1.33-3.56-3.55,4.45-4.88,2.67-5.33,6.22-7.1,3.56-1.78,11.2-1.78,9.6-4.44-1.61-2.67-5.61-6.22-8.71-4-3.12,2.22-5.34,7.11-7.56,6.66-2.21-.44,2.22-8.94-2.21-7.36-4.45,1.58-5.33,5.57-5.33-.2s-.44-6.21,3.1-7.54c3.56-1.33,5.33-2.66,7.56-4,2.22-1.33,2.67-5.77,7.1-4.44,4.44,1.33,5.33,3.11,2.65,5.77-2.65,2.66-7.09,3.11-1.77,5.33,5.33,2.22,11.99-2.22,14.21-1.33,2.22.89,1.77,1.33,4.88,6.21,3.11,4.89,5.78,4,3.99,8.44-1.77,4.44-4.19,6.66.57,9.32,4.77,2.66,10.09,7.1,11.86-.89,1.78-7.99,4.45-11.99,0-15.54-4.44-3.55-9.76-7.99-7.1-9.77,2.66-1.78,13.32-7.1,11.99-11.99-1.34-4.88-.44-7.99,3.55-9.77,4-1.78.89-6.66,6.22-3.1,5.32,3.55,1.33,2.22,5.32,3.55,4.01,1.33,8.44,1.91,10.66-4.82,2.23-6.73,5.33-9.84,8.88-15.61,3.55-5.77,6.22-5.77,8.88-12.88,2.67-7.1,5.76-8.88,4.88-13.32-.88-4.44-5.02-3.11.15-9.32,5.18-6.22,7.39-9.33,3.84-11.54-3.56-2.22,1.34-2.67-3.56-7.11-4.87-4.44,1.34-6.66-4.87-4.44-6.22,2.22-2.67,5.33-9.78,2.22-7.1-3.11-.89-7.55-7.54-7.55s-7.55-.44-3.12-4c4.45-3.55,14.65-11.1,15.54-14.21.87-3.11,7.99-7.55,9.76-10.21,1.77-2.66,12.43-10.21,12.43-10.21,0,0,11.11-2.67,16.88-2.22,5.77.44,6.21,5.67,15.09-.05,8.89-5.73,11.1-3.16,8.89,0-2.22,3.16-8.89.94-2.22,3.16,6.66,2.22,13.76.44,15.99-1.78,2.22-2.22-5.77-1.33,0-7.99,5.77-6.66,6.21-16.42,12.87-15.09,6.66,1.33,11.99-4.69,10.66-.12-1.33,4.56-8.43,11.22-1.77,9.89,6.67-1.33,13.77-2.66,15.54-8.44,1.79-5.77-2.22-11.1,2.22-11.1s11.1-.89,8.44,1.78c-2.67,2.67-3.55,1.33-4.44,7.1-.89,5.77,1.33,7.55-1.33,8.88-2.67,1.33-2.22,3.11-7.1,5.33-4.89,2.22-5.77,6.21-8.88,8.88-3.1,2.66-3.55,4.44-7.54,8.44-4,4-4,.89-7.99,5.77-4,4.88-1.34,6.21-4.89,9.76-3.54,3.55-3.54,11.99-1.77,17.76,1.77,5.77,2.22,10.21,1.77,13.76-.43,3.55-.89,6.66,1.34,10.21,2.22,3.56,2.22,3.99,4.89-.44,2.66-4.44,6.22-3.11,5.32-7.54-.89-4.44,0-6.22,2.66-7.1,2.67-.89,3.11-6.22,5.33-7.55,2.22-1.33,2.22,1.78,5.33-2.66,3.11-4.44,3.11-.89,3.55-7.1.45-6.22.45-5.33,2.67-8,2.23-2.66,1.77-3.11,2.66-7.1.89-4,1.34-4.89-1.33-4-2.67.89-1.79,7.1-2.67.89-.89-6.22,0-4.44,2.67-9.33,2.66-4.89-.45-9.77,4.44-10.21,4.89-.45,7.11,0,8.43-2.67,1.33-2.66-1.77-5.33,1.33-2.66,3.11,2.66-1.33,5.33,0,5.77,1.33.44,5.33-2.66,7.55-3.99,2.22-1.33,6.22-3.11,7.99.44,1.77,3.55,2.67,8.43,4.43,4.88,1.79-3.55-.88-6.21,5.78-9.32,6.66-3.11,10.21-8.44,16.43-10.66,6.22-2.22,9.77-9.46,9.77-9.46,0,0-3.55-4.74,0-1.64,3.55,3.11-.88,3.11,3.55,3.11s11.1-1.22,8-4.16c-3.1-2.94-4.89-4.72-4.89-7.83s2.67-5.32-2.21-5.77c-4.89-.44-8.88-4.88-4.89-5.77,3.99-.89,7.55,4.88,11.1,0,3.55-4.88,6.22-6.21,5.32-9.77-.88-3.55-3.21-4.44.18-4.88,3.38-.44,4.71-.89,4.71,3.55s0,4.89,3.54,4.89,11.55-1.78,11.55,1.77-.45,8.44,2.22,8.88c2.66.44,12.88,6.22,13.77,1.33.88-4.88,2.22-10.66,0-11.55-2.23-.88-2.91-2.66,1.21-2.66s5.9-4.09,5.01-6.48Zm-717.61,244.85c-.06.16-.14.32-.27.48-.79.99-.18.15.27-.48Zm22.37-39.02c-7.11,2.22-3.99,3.1-11.98,2.22-7.99-.88-6.22-3.66-11.1-4.5-4.89-.83-4.45-5.92-8.88-4.48-4.44,1.44-2.66,3.09-8.43,4.48-5.78,1.39-1.77.5-9.33,2.28-7.55,1.77-13.32-4.2-13.32-6.76s-3.1-7,0-7.89c3.11-.89,3.56-1.78,4.44-6.66.88-4.88,1.33-4.58,2.67-5.62,1.34-1.04,3.99-5.29,6.21-7.38,2.23-2.09,6.67-6.09,6.67-2.98s-5.33-1.14-3.56,2.98c1.79,4.12,4.45-.57,7.11,0,0,0,5.33.13,5.33,2.79,0,0-7.99,1.31-6.22,4.65,0,0,3.56-.65,3.99,2.46.44,3.11.89,5.33,3.56,4.44,2.65-.89,4.44-4.09,8.87-3.38,4.44.71,5.32-6.93,9.32,0,3.99,6.93,6.66,6.93,8.43,8.26,1.78,1.33,3.56,0,5.33,3.55,1.77,3.55,4.43.69,2.66,4.78-1.77,4.1,5.33,4.54-1.77,6.76Zm53.46,5.33c2.04,2.22,7.36,3.55,6.48,4.88-.89,1.34-2.66,4.89-1.34,6.66,1.34,1.78,1.34,6.22,1.34,6.22,0,0,6.66,5.77.88,4.88-5.77-.88-.97-4-7.36-2.22-6.4,1.77-4.79,3.55-10.48,0-5.68-3.55-1.69,1.33-5.68-3.55-4-4.88-4.45-7.1-1.78-9.77,2.67-2.66,0-5.33,2.22-6.21,2.22-.89,8-.44,5.33-2.22-2.66-1.78,1.78.89-2.66-1.78-4.44-2.66-4.69-1.45-6.56-4.5-1.87-3.05.35-4.38-2.77-6.6-3.1-2.22-2.66,3.1-3.1-2.22-.45-5.33.89-.89-.45-5.33-1.33-4.44-2.66.89-1.33-4.44,1.33-5.33,1.77-6.21,3.56-7.99,1.76-1.77,6.21-2.22,6.21-2.22l2.22-3.1,5.32-4.44s2.22-1.34,4.45,0c2.21,1.33,1.34,0,4.43,0s4.01-6.66,3.11,0c-.88,6.66.46,5.77-1.77,8.88-2.22,3.11-4.43.89-2.22,3.11,2.22,2.22-3.11,4.44-4.88,4.44s-4.89-.44-3.12,1.78c1.79,2.22,1.79,2.66,3.56,6.21,1.78,3.56,7.1,1.78,6.22,4.44-.9,2.66-6.42,6.54-3.88,7.49,1.13.42,2.53,1.18,3.72,1.89.03-.48.34-1.1,1.04-1.89,3.12-3.49,5.77-8.82,6.22-4.38.44,4.44,3.56-.56,3.56,4.38s-2.22,4.94-4.44,5.83c-2.22.89-8.08-.44-6.04,1.78Z"/>
          </g>
          <path class="cls-21" d="m1142.81,970.53c4.04.21,6.66,2.66,11.32-4,4.65-6.66.67-8.14,6.65-9.73,6-1.59,3.34-6.92,9.33-3.58,5.99,3.33,9.98,2.51,13.32,3.58,3.33,1.08,9.32-8.4,5.99,0-3.32,8.4-4.65,10.25-5.99,13.99-1.34,3.74,4.61,3.74,6.96,4.41,2.36.67.36,2.66,5.02,5.33,4.65,2.66,7.33,4.66,9.32,4.66s-.66,4.66,3.98-3.33c4.68-7.99,4-3.33,4.68-7.99.67-4.66.67-3.33,0-7.33-.67-3.99,1-8.14.5-9.73-.5-1.59-3.31-10.39.09-4.66,3.41,5.73,5.39,6.4,7.39,11.06,2.01,4.65,2.01,3.32,4.67,7.99,2.66,4.66,3.98.67,5.32,7.99,1.34,7.32-7.33,14.65,0,14.65s6.66-7.32,10.66,0c4,7.33,5.99,6,7.32,10.66,1.34,4.66,4,1.33,6,6.66,2,5.32,8.66,3.1,11.32,13.21,2.67,10.1,4,12.77,0,22.09-3.99,9.32-.66,15.32-5.32,18.65-4.67,3.33-4.67,0-5.33,6.66-.66,6.66-1.99,11.99-4.66,15.98-2.66,4-4.66,2.66-7.98,4-3.34,1.33-4.67,3.33-8,5.99-3.34,2.66-2.67-8-7.32-5.33-4.67,2.66-4,6.19-10,5.76-5.99-.43-6.8-7.76-12.05-7.76s-3.26-7.32-6.6-8.66c-3.33-1.33-5.99-1.51-5.33-6.41l.67-4.9s-3.33-7.32-6-3.33c-2.65,4-3.32,11.32-7.99,5.33-4.65-5.99.67-11.99-6.65-12.65-7.33-.67-4.67,1.33-13.33-3.33-8.65-4.66-11.98,0-13.98,2-2,2-5.33-3.33-7.33,0-2,3.33-7.32,6-11.31,10.66-4,4.66,0,7.14-10.66,6.24-10.66-.91-7.33,3.75-15.99,4.42-8.66.66-13.32-4.66-15.32-9.99-2-5.32-2.65.67,0-6.66,2.67-7.33-1.52-7.99-1.76-15.32-.24-7.32,4.23-5.32,0-10.65-4.24-5.33-7.57-6-4.89-8.66,2.65-2.66,5.32,5.47,1.99-4.26-3.34-9.73-8.57-19.05-2.96-19.05s6.95-1.33,11.61-3.33c4.67-1.99,9.32-3.33,13.32-3.99,3.98-.67,9.99-.67,13.98-.67s13.98-6.53,9.99-6.6c-4-.07-6.66-6.06-2-8.05,4.65-2,7.32-4.66,9.99-6,2.65-1.33,2.6-6.24,7.32-5.99Z"/>
          <path class="cls-21" d="m1224.05,1109.71s1.34,1.33,9.99,0c8.66-1.33,7.33-4.66,8.66-1.33,1.33,3.33,2,7.99,0,9.99-2,2,.68,3.34-2,5.33-2.65,2-1.39,4-6.68,3.33-5.3-.66-9.29-6.63-9.96-9.97-.67-3.34-4.71-7.9,0-7.34Z"/>
          <path class="cls-21" d="m925.71,855.32s5.32,4.66,3.99,9.32c-1.33,4.66,2,.67-1.33,4.66-3.33,4-5.33,4.66-5.99,0-.67-4.66-2.01-13.32,3.33-13.98Z"/>
          <path class="cls-21" d="m992.31,872.56c2.06-.55,6.66-4.08,11.32,0,4.67,4.07-.67,7.4,6.66,10.73,7.32,3.33,1.33-3.33,7.32,3.33,5.99,6.66,11.32,5.99,11.98,10.66.67,4.66,6.65-.67,6.65,7.33s2.67,4.66,6,8.65c3.33,4,4.65,4.67,3.33,10.66-1.34,5.99.66,11.99-6,6.66-6.65-5.33-.66-2.66-11.32-10.65-10.65-7.99-1.48-8.66-9.07-13.99-7.57-5.33.41-2.66-7.57-5.33-7.99-2.66-.66-5.33-9.99-11.99-9.32-6.66-14-14.81-9.32-16.06Z"/>
          <path class="cls-21" d="m1050.23,927.91c2.83-.16,2.67,4.13,10,4.73,7.32.6,3.33-.6,10.65,0,7.33.6,5.34-4.92,10.67.17,5.32,5.09,14.65,7.76,14.65,7.76,0,0-7.32,3.99,0,3.99s9.33-3.99,14.65-4.66c5.34-.67,12.66-5.99,10-.67-2.67,5.33-6.66.67-10,5.33-3.33,4.66-6.65,10.66-14.65,5.67-7.99-5-6.1-10.1-10.37-10.21-4.27-.11.85.11-9.7,0-10.56-.11-18.56-5.44-21.88-4.11-3.33,1.33-15.32-7.32-4.01-7.99Z"/>
          <path class="cls-21" d="m1126.83,940.01c.94.26,2.48,1.19,4.2,1.67,1.91.53,4.03.49,5.79-1.67l3.33-4.11s4.66-2.66,4.66,0,1.34,8.01-3.33,6.06c-4.66-1.96-14.65-1.96-14.65-1.96Z"/>
          <path class="cls-21" d="m1076.12,914.59c5.32-2.26,6.76,4,10.75,4.66,3.99.67,7.99-7.99,7.99-7.99,0,0-6,0,0-4.66,5.99-4.66,5.32-1.29,7.99-4.97,2.66-3.69,3.99-3.69,0-6.35-4-2.67-3.34,3.99-4-2.67-.67-6.66-.67-11.32,1.32-11.99,2-.66,6.38,2.66,5.19-2.66-1.18-5.33-1.85-4.15-4.51-5.41-2.67-1.25,0-4.63-5.99-1.94-6,2.68,0-2.64-6,2.68-5.99,5.33-10.18,3.33-12.75,8.66-2.57,5.32-7.22.67-7.22,5.32s-4.66,7.16-4.66,7.16c0,0-6.67-2.83-6.67,0s1.34,4.2,4.01,7.18c2.67,2.98,2-4.35,2.67,2.98.66,7.32-2,9.32,0,10.65,2,1.33,2.46,3.33,11.89-.67Z"/>
          <path class="cls-21" d="m1216.73,599.6c2.1,2.1-3.33,2.66,0,9.32,3.33,6.66,0-4,3.33,6.66,3.33,10.66,6.66,15.32,4.66,19.98-2,4.66-1.1-6.66-4.22,0-3.11,6.66-.21,4.42,0,11.53.22,7.11-1.85,8.43-4.82,7.44-2.96-.99-4.29.1-4.29-7.44s-1.33-4.87,0-12.87c1.33-7.99-.29-12.45-.6-18.65-.29-6.2,1.92-19.97,5.93-15.97Z"/>
          <path class="cls-21" d="m1213.4,661.97c1.51,1.38-.68,2.89,4.65,4.23,5.33,1.33,5.87,2.66,7.27,5.33,1.39,2.66,10.05,0,4.71,3.33-5.32,3.33-.94,5.99-7.46,7.99-6.52,2-7.08-.67-11.79,0-4.71.67-6.05.78-6.05,3.72s3.42,1.61,6.05,5.6c2.61,3.99,2.71,8.66,0,11.32-2.71,2.67-8.7,1.33-6.05,7.99,2.66,6.66,12.09,4.66,6.05,11.32-6.05,6.66-4.71,9.32-10.72,6.66-5.99-2.66-2.65-10.66-5.99-6-3.33,4.67,8-1.99-3.33,4.67-11.31,6.66-13.98,3.37-13.98,2.35s2.42-5.01-4.13-2.35c-6.53,2.66-13.19,4.07-13.19,4.07,0,0,2.66-4.07,7.32-8.06,4.65-4,4.65-5.99,9.33-5.33,4.65.67,4.65,4,9.99,2.67,5.32-1.33,6.65-4.66,6.65-6.66s1.72-4.29,2.86-5.48c1.14-1.18,4.46-8.5,4.46-8.5,0,0,5.34-.15,4.01-3.74-1.34-3.58-4.01-10.52-4.01-10.52l6-9.72,4.71-3.33s-2.04-15.77,2.61-11.55Z"/>
          <path class="cls-21" d="m1112.73,814.03c.33,1.2.88,1.67,0,2.55-.89.88-1.33,1.22-.89,1.77.44.56,1.49.56.58,1.67-.91,1.11-1.38,2.44-.76,3.22.61.78,1.71.78.61,1.11-1.11.33-1.66-1.78-2.33-1.11-.66.67-.66,1-.55,2.33.11,1.33.11,1.55.66,3,.56,1.44.95,1.11,1.19,2.22.26,1.11-.3,1.55.59,1.66.89.11,0-2.55.89-2.1.88.44,2.44-.45,1.67,1.44-.78,1.89-1.56,1.66-1.33,2.66.21,1,.75,1.55,1.54,1.33.79-.22,1.34,1,1.79.78.44-.22-.12-2.11,1.21-1.77,1.34.33,2.89-1,2.22.77-.67,1.78-2.45,2.56-1.12,2.78,1.33.22,2.11-2.22,3.01-1.33.88.89.77,2.44.88.89.11-1.55-1.12-3.1,0-2.66,1.12.44,1.55.78,1.89,1.78.33,1,1,.54,1.21,1.55.23,1,.12,1.67,1.11,1.78,1,.11,1.67-.88,1.78,0,.11.89,1.67.91.77,0-.88-.89.23-2.11-1.1-2.67-1.34-.56-2.33.22-1.89-1.11.45-1.33,2.44.22,2.22-.55-.23-.78-.77,0-1.78-.78-1-.78-.45-1.67-1-.78-.56.89.11.89-.56.89s-.22-.34-1.33-1.22c-1.11-.89-1.22-1.67-2.33-1.56-1.12.11-1.45.11-2.12-.67-.66-.78-1.65-1.44-1.33-2,.34-.56.89-1.32-.32-2.38-1.23-1.06-1.78-1.61-.89-2.17.89-.56.89-.89,1.77-1.44.89-.55,1.45-.78,1.89-2.77.44-2,1.79-3.89.44-4.11-1.33-.23-2.67-.44-1.56-1.33,1.12-.89,2.34-1.33,1.45-2.11-.89-.78-.45-1.22-1.45-.67-.99.56-.44,1-1.65.34-1.23-.67-2.67-3.11-3.66-2.22-1,.89-1.66,2.22-1.44,3Z"/>
        </g>
        <path class="cls-21" d="m1132.82,891.95c-1.11.88.32,1.34-3.16,2.5-3.49,1.16-3.82.5-6.16,1.5-2.32,1-4.99-1.66-6.65,0-1.67,1.67-2.66-2.2-3.66.23-1,2.43-4.34,4.14-3.83,5.45.49,1.31.83,1.31,0,3.64-.83,2.33-2.16,3.67-2.16,4.67s-1.61,4-1.61,4c0,0-.28,1.67,0,3,.27,1.34,2.27.08,1.93,2.37-.32,2.3.67-.36-.32,2.3-1,2.66-1.67,7.31-.34,6.32,1.33-.99,4.33-5.32,5-6.32.67-1-2.66-3.66-2.5-5,.17-1.33.49-5.99,2.83-4.33,2.33,1.67,2.33,3.33,2.33,5s-.33-.26,2,2.03c2.33,2.3.6,3.96,2.63,3.96s4.03-4.59,5.03-3.96c1,.63-.54.3-2.77-1.36-2.23-1.67.37-1.67-2.26-5-2.63-3.33-1.3-6.66-3.29-6.66s-3.67-4.61-1.34-4.64c2.33-.02,3.93,2.98,4.63,4.31.7,1.33,4.03-4.31,4.03-4.31,0,0,1.67.69,3.66,0,1.99-.69,5.99-.69,5.99-3.02s3.17-9.16,0-6.66Z"/>
        <path class="cls-21" d="m1164.46,901.63c2.33-1.02,4.33-3.35,6.32-1.35,2,2,3.33,1.67,4.99,3.67,1.67,1.99,2.67,4.58,2,5.79-.67,1.2.33,3.53,2.32,4.53,2,1,3,3,5,0,2-2.99,2.33-2.74,4.65-4.53,2.34-1.79,3.34-2.66,5-2.06,1.66.6,6.65-.81,8.66,2.06,2,2.87.67,2.53,5.99,4.2,5.33,1.67,13.65,4.73,16.32,5.36,2.67.63,6,1.63,5.32,3.3-.66,1.67-2.83,2.33.08,3.33,2.92,1,7.25.93,7.92,2.13.66,1.2,3.99,4.32,1.65,4.59-2.32.27-6.32-3.59-5.32,0,1,3.6,3.33,5.57,4.65,5.92,1.34.35-1.36-1.43,1.49,1.46,2.85,2.88,6.5,1.88,7.83,3.88,1.34,2,2,2,3.34,4,1.33,1.99,1.99,4.12,0,4.22-2,.11-.34-1.88-4-1.88-3.65,0-3.65,2.34-6.66,0-2.99-2.34-3.99-4-5.32-6-1.33-2-.67-3.69-3.33-5.67-2.66-1.98-1.34-5.02-4.67-3.83-3.32,1.18-6.99.49-7.65,3.83-.67,3.34,2.33.99-3.01,3.83-5.33,2.84-8.32,1.49-10.66,0-2.32-1.49,1.67-5.18-4.32-3.83-5.99,1.35-7.33,4.56-8.99,1.46-1.66-3.11-.33-3.48,2.67-5.29,3-1.81,4.66,2.48,6.32,0,1.67-2.48.67-4.81-2-4.48-2.66.33-3.33-.4-4.66-2.2-1.33-1.8-.34-.35-3.32-2.24-3-1.89-.67-1.89-5.66-2.89-5-1-3.34-1.67-7.33-2-3.99-.34-6.56-3.66-7.45-3.33-.87.34-2.2,1.34-3.86-.33-1.67-1.67-1.34-3.33,1-3.66,2.33-.34,4.66-3.07,4-3.87-.67-.79-1.67-1.54-3.33,0-1.66,1.54-2,2.13-3.66,0-1.66-2.13-3.66-3.13-4.66-3.13s-6.99-1.34-4.33-2c2.67-.66,8.33-.34,8.33-.34l-1.66-2.64Z"/>
      </g>
      <g>
        <polygon class="cls-23" points="1006.43 425.65 406.72 762.55 1006.43 762.55 1606.13 762.55 1006.43 425.65"/>
        <rect class="cls-24" x="586.81" y="776.59" width="839.24" height="585.7"/>
        <rect class="cls-24" x="693.46" y="879.16" width="66.44" height="228.46"/>
        <g>
          <rect class="cls-24" x="1252.95" y="879.16" width="66.44" height="228.46"/>
          <polygon class="cls-24" points="1263.44 886.15 1319.39 886.15 1319.39 879.16 1252.95 879.16 1252.95 1107.62 1263.44 1107.62 1263.44 886.15"/>
        </g>
        <g>
          <rect class="cls-24" x="973.21" y="879.16" width="66.44" height="228.46"/>
          <polygon class="cls-24" points="983.7 886.15 1039.65 886.15 1039.65 879.16 973.21 879.16 973.21 1107.62 983.7 1107.62 983.7 886.15"/>
        </g>
        <polygon class="cls-24" points="1426.05 776.59 1426.05 993.39 586.81 879.16 586.81 776.59 1426.05 776.59"/>
        <polygon class="cls-24" points="920.75 850.78 920.75 844.67 938.81 844.67 938.81 824.67 938.81 818.55 948.73 818.55 948.73 776.59 833.33 776.59 833.33 818.55 843.25 818.55 843.25 824.67 843.25 844.67 861.31 844.67 861.31 850.78 861.31 1288.09 861.31 1294.21 843.25 1294.21 843.25 1314.2 843.25 1320.32 833.33 1320.32 833.33 1362.28 948.73 1362.28 948.73 1320.32 938.81 1320.32 938.81 1314.2 938.81 1294.21 920.75 1294.21 920.75 1288.09 920.75 850.78"/>
        <polygon class="cls-24" points="641.01 850.78 641.01 844.67 659.06 844.67 659.06 824.67 659.06 818.55 668.98 818.55 668.98 776.59 553.59 776.59 553.59 818.55 563.51 818.55 563.51 824.67 563.51 844.67 581.56 844.67 581.56 850.78 581.56 1288.09 581.56 1294.21 563.51 1294.21 563.51 1314.2 563.51 1320.32 553.59 1320.32 553.59 1362.28 668.98 1362.28 668.98 1320.32 659.06 1320.32 659.06 1314.2 659.06 1294.21 641.01 1294.21 641.01 1288.09 641.01 850.78"/>
        <g>
          <g>
            <rect class="cls-3" x="557.08" y="818.55" width="59.45" height="489.56"/>
            <rect class="cls-3" x="539.03" y="809.92" width="95.56" height="34.75"/>
            <rect class="cls-3" x="539.03" y="1294.21" width="95.56" height="34.75" transform="translate(1173.61 2623.16) rotate(180)"/>
            <rect class="cls-3" x="529.11" y="776.59" width="115.4" height="41.96"/>
            <rect class="cls-3" x="529.11" y="1320.32" width="115.4" height="41.96" transform="translate(1173.61 2682.61) rotate(180)"/>
            <rect class="cls-23" x="539.03" y="818.55" width="95.56" height="6.12"/>
            <rect class="cls-23" x="539.03" y="1314.2" width="95.56" height="6.12"/>
            <rect class="cls-23" x="557.08" y="844.67" width="59.45" height="6.12"/>
            <rect class="cls-23" x="557.08" y="1288.09" width="59.45" height="6.12"/>
          </g>
          <g>
            <rect class="cls-3" x="836.83" y="818.55" width="59.45" height="489.56"/>
            <rect class="cls-3" x="818.78" y="809.92" width="95.56" height="34.75"/>
            <rect class="cls-3" x="818.78" y="1294.21" width="95.56" height="34.75" transform="translate(1733.11 2623.16) rotate(180)"/>
            <rect class="cls-3" x="808.86" y="776.59" width="115.4" height="41.96"/>
            <rect class="cls-3" x="808.86" y="1320.32" width="115.4" height="41.96" transform="translate(1733.11 2682.61) rotate(180)"/>
            <rect class="cls-23" x="818.78" y="818.55" width="95.56" height="6.12"/>
            <rect class="cls-23" x="818.78" y="1314.2" width="95.56" height="6.12"/>
            <rect class="cls-23" x="836.83" y="844.67" width="59.45" height="6.12"/>
            <rect class="cls-23" x="836.83" y="1288.09" width="59.45" height="6.12"/>
          </g>
        </g>
        <polygon class="cls-24" points="1200.5 850.78 1200.5 844.67 1218.56 844.67 1218.56 824.67 1218.56 818.55 1228.48 818.55 1228.48 776.59 1113.08 776.59 1113.08 818.55 1123 818.55 1123 824.67 1123 844.67 1141.05 844.67 1141.05 850.78 1141.05 1288.09 1141.05 1294.21 1123 1294.21 1123 1314.2 1123 1320.32 1113.08 1320.32 1113.08 1362.28 1228.48 1362.28 1228.48 1320.32 1218.56 1320.32 1218.56 1314.2 1218.56 1294.21 1200.5 1294.21 1200.5 1288.09 1200.5 850.78"/>
        <g>
          <g>
            <rect class="cls-3" x="1116.58" y="818.55" width="59.45" height="489.56"/>
            <rect class="cls-3" x="1098.52" y="809.92" width="95.56" height="34.75"/>
            <rect class="cls-3" x="1098.52" y="1294.21" width="95.56" height="34.75" transform="translate(2292.6 2623.16) rotate(180)"/>
            <rect class="cls-3" x="1088.6" y="776.59" width="115.4" height="41.96"/>
            <rect class="cls-3" x="1088.6" y="1320.32" width="115.4" height="41.96" transform="translate(2292.6 2682.61) rotate(180)"/>
            <rect class="cls-23" x="1098.52" y="818.55" width="95.56" height="6.12"/>
            <rect class="cls-23" x="1098.52" y="1314.2" width="95.56" height="6.12"/>
            <rect class="cls-23" x="1116.58" y="844.67" width="59.45" height="6.12"/>
            <rect class="cls-23" x="1116.58" y="1288.09" width="59.45" height="6.12"/>
          </g>
          <g>
            <rect class="cls-3" x="1396.32" y="818.55" width="59.45" height="489.56"/>
            <rect class="cls-3" x="1378.27" y="809.92" width="95.56" height="34.75"/>
            <rect class="cls-3" x="1378.27" y="1294.21" width="95.56" height="34.75" transform="translate(2852.09 2623.16) rotate(180)"/>
            <rect class="cls-3" x="1368.35" y="776.59" width="115.4" height="41.96"/>
            <rect class="cls-3" x="1368.35" y="1320.32" width="115.4" height="41.96" transform="translate(2852.09 2682.61) rotate(180)"/>
            <rect class="cls-23" x="1378.27" y="818.55" width="95.56" height="6.12"/>
            <rect class="cls-23" x="1378.27" y="1314.2" width="95.56" height="6.12"/>
            <rect class="cls-23" x="1396.32" y="844.67" width="59.45" height="6.12"/>
            <rect class="cls-23" x="1396.32" y="1288.09" width="59.45" height="6.12"/>
          </g>
        </g>
        <polygon class="cls-24" points="703.95 886.15 759.9 886.15 759.9 879.16 693.46 879.16 693.46 1107.62 703.95 1107.62 703.95 886.15"/>
        <rect class="cls-3" x="680.35" y="1107.62" width="92.67" height="19.52"/>
        <rect class="cls-3" x="1239.84" y="1107.62" width="92.67" height="19.52"/>
        <rect class="cls-3" x="960.09" y="1107.62" width="92.67" height="19.52"/>
        <path class="cls-24" d="m1006.43,1143.75c-30.24,0-54.76,24.52-54.76,54.76v163.77h109.53v-163.77c0-30.24-24.52-54.76-54.76-54.76Z"/>
        <rect class="cls-3" x="529.11" y="747.45" width="954.64" height="29.14"/>
        <rect class="cls-3" x="529.11" y="1362.28" width="954.64" height="29.14"/>
        <rect class="cls-23" x="495.69" y="732.88" width="1021.48" height="15.59"/>
        <polygon class="cls-3" points="1006.43 455.35 529.11 723.49 1006.43 723.49 1483.74 723.49 1006.43 455.35"/>
        <rect class="cls-23" x="495.69" y="1391.42" width="1021.48" height="46.55"/>
        <g>
          <path class="cls-24" d="m1061.19,625c0,30.24-24.52,54.76-54.76,54.76s-54.76-24.52-54.76-54.76,24.52-54.76,54.76-54.76,54.76,24.52,54.76,54.76Z"/>
          <path class="cls-24" d="m963.83,637.17c0-30.24,24.52-54.76,54.76-54.76,12.01,0,23.09,3.91,32.12,10.47-9.95-13.7-26.06-22.64-44.29-22.64-30.24,0-54.76,24.52-54.76,54.76,0,18.23,8.94,34.33,22.64,44.29-6.56-9.03-10.47-20.1-10.47-32.12Z"/>
        </g>
        <path class="cls-24" d="m1015.17,1144.52c-2.85-.46-5.76-.76-8.74-.76-30.24,0-54.76,24.52-54.76,54.76v163.77h17.48v-163.77c0-27.26,19.94-49.81,46.02-54Z"/>
        <polygon class="cls-24" points="1068.79 1362.28 993.09 1437.98 1517.16 1437.98 1517.16 1391.42 1483.74 1391.42 1483.74 1362.28 1068.79 1362.28"/>
        <polygon class="cls-24" points="1028.8 467.87 580.39 723.49 529.11 723.49 1006.51 455.35 1028.8 467.87"/>
      </g>
      <g>
        <g>
          <path class="cls-20" d="m1275.29,718.37s-36.79,19.78-64.26,20.88c-27.45,1.1-60.13-22.23-60.13-22.23,0,0,30.2-8.25,33.79-17.87.5-1.35.85-3.18,1.05-5.36.88-8.52-.18-22.08-1.03-30.55-.45-4.64-.85-7.74-.85-7.74l55.32-25.49c-2.18,16.44-5.06,59.33.43,66.87,5.49,7.54,35.69,21.51,35.69,21.51Z"/>
          <path class="cls-29" d="m1221.93,663.23c-3.16,11.71-19.1,31-36.19,30.55.88-8.52-.18-22.08-1.03-30.55h37.22Z"/>
          <path class="cls-20" d="m1172.83,583.54c-5.36,13.25-8.08,36.28-8.44,49.03-.36,12.75,7,41.84,11.67,45.08,4.67,3.23,17.06,4.31,23.35,1.08,6.29-3.23,33.76-21.01,36.99-32.68,3.23-11.67,27.12-61.6-12.21-70.04-39.33-8.44-48.74,1.05-51.36,7.54Z"/>
          <path class="cls-30" d="m1236.4,635.02c-5.66-8.2-8.89-20.59-7.54-29.75,1.35-9.16.81-15.89-9.43-14.28-10.24,1.62-21.01-3.91-25.05-10.78-4.04-6.87-18,14.24-25.23,14.06-7.23-.18-12.33-18.28-5.85-28.69,6.48-10.42,20.13-24.24,37.19-18.86,17.06,5.39,30.62.54,43.06,6.47,12.43,5.93,19.44,23.53,21.95,30.71,2.51,7.18-8.26,37.17-12.75,42.56-4.49,5.39-16.34,8.56-16.34,8.56Z"/>
          <path class="cls-33" d="m1104.34,729.19c-20.72,11.21-62.94,146.94-72.02,170.54-9.08,23.6-9.98,81.39,16.04,81.39s68.08-127.38,68.08-127.38l-12.09-124.55Z"/>
          <path class="cls-33" d="m1310.2,727.88c20.72,11.21,50.7,121.02,58.4,200.89,2.43,25.17-25.21,69.74-45.82,53.86-21.99-16.94-29.65-102.47-29.65-102.47l17.07-152.28Z"/>
          <g>
            <path class="cls-20" d="m954.98,782.01c-8.79-4.55-18.98-10.98-24-15.31-5.02-4.33-16.22-14.27-21.93-15.17-3.49-.55-5.85-1.58-7.79-.71-2.95,1.34.63,5.36.23,7.7-.73,4.29,3.16,8.07,6.94,11.44,3.98,3.55,15.09,24.05,36.18,29.61,21.09,5.56,27.18,9.15,28.15,3.51.97-5.64-3.7-15.46-17.79-21.07"/>
            <path class="cls-20" d="m986.35,814.74c-2.49-9.67-2.63-17.1-6.83-23.71-4.2-6.61-12.51-15.32-15.83-16.8-3.33-1.47-21.89-18.13-24.15-19.18-2.25-1.05-1.83,1.92-.78,6.28,1.04,4.36,14.05,18.89,15.55,23.88,1.5,4.98,9.84,9.92,9.14,11.71s22.9,17.82,22.9,17.82"/>
            <path class="cls-20" d="m963.38,824.65c-4.5-6.02-1.01-8.57-14.55-14.59-13.54-6.02-17.32-7.55-23.02-12.76-5.7-5.21-18.87-22.73-21.22-27.26-2.35-4.53,4.2-3.95,11.06,4.7,6.86,8.65,12.32,13.61,17.25,13.69s23.1,10.19,30.55,8.49c6.12-1.4,22.9,17.82,22.9,17.82l-22.97,9.91"/>
          </g>
          <path class="cls-20" d="m1236.4,628.17c4.04-10.51,13.74-12.66,16.7-7.27,2.96,5.39-.27,14.84-8.35,24.51-8.08,9.68-11.85,6.73-11.85,3.5s3.5-20.74,3.5-20.74Z"/>
          <path class="cls-4" d="m1102.66,731.19c.81-6.47,72.06-26.92,75.11-25.1,14.63,8.71,69.06,1.94,71.26-1.71.15-.2.5-.33,1.06-.35,8.51-.23,64.15,22.89,63.02,26.87-.6,2.1-57.47,197.71-109.78,198.08-52.82.37-101.07-194.54-100.67-197.77Z"/>
          <polygon class="cls-13" points="1200.53 731.77 1184.71 865.12 1197.18 961.62 1220.47 860.23 1213.39 731.77 1207.88 725.08 1200.53 731.77"/>
          <polygon class="cls-16" points="1238.72 693.79 1207.88 710.58 1185.74 696.69 1176.53 707.79 1189.62 734.08 1207.88 717.29 1226.77 734.68 1250.35 705.88 1238.72 693.79"/>
          <path class="cls-33" d="m1288.09,951.38c0,15.11,5.84,83.69,5.84,88.53,0,2.57-52.19,2.77-101.52,1.84h-.02s16.11-144.4,18.68-153.21c.4-1.38,1.21-5.94,2.32-12.79,5.97-36.61,21.13-138.71,35.63-171.36l1.06-.35c1.99-.05,6.57,1.18,12.39,3.12v.03c19.06,6.4,51.49,20.67,50.63,23.72-1.21,4.23-25,205.36-25,220.49Z"/>
          <path class="cls-27" d="m1250.88,748.37l9.37,32.73-46.86,94.65c5.97-36.61,21.13-138.71,35.63-171.36l1.06-.35c1.99-.05,6.57,1.18,12.39,3.12v.03l3.4,30.82-14.98,10.37Z"/>
          <path class="cls-33" d="m1192.39,865.12v176.63c-44.16-.81-86.04-2.52-86.04-4.26,0-3.63,1.61-54.06,2.82-76.64,1.21-22.59-7.33-223.21-6.52-229.65.6-4.78,40.26-17.7,61.71-22.99v-.03c7.5-1.84,12.77-2.74,13.4-2.09l14.3,155.43.33,3.6Z"/>
          <path class="cls-27" d="m1150.9,780.7l15.23-32.73-10.93-16.19,9.16-23.57v-.03c7.5-1.84,12.77-2.74,13.4-2.09l14.3,155.43-41.17-80.82Z"/>
          <path class="cls-33" d="m1048.35,981.12c-37.15,5.45-88.95-147.65-91.98-155.52-3.03-7.87,28.44-28.44,32.68-23.6,4.24,4.84,73.83,96.22,75.64,105.29,1.82,9.08,6.77,70.44-16.34,73.83Z"/>
          <path class="cls-13" d="m1197.18,716.9c2.1,8.81,3.36,14.87,3.36,14.87h12.86s6.45-14.03,6.45-14.87-11.33-5.57-11.33-5.57l-11.33,5.57Z"/>
          <path class="cls-33" d="m1367.61,919.36c2.92,17.59,7.6,57.32-6.45,69.14-5.8,4.88-33.86,7.2-55.64,1.83-18.66-4.6-32.78-10.74-33.99-13.16-1.21-2.42,3.76-36.83,8.09-36.83,5.01,0,37.1-3.7,51.33-8.14,14.23-4.44,36.67-12.85,36.67-12.85Z"/>
          <polygon class="cls-4" points="1238.72 690.88 1207.88 707.67 1185.74 693.78 1177.76 706.09 1189.62 731.17 1207.88 714.38 1226.77 731.77 1249.02 704.38 1238.72 690.88"/>
        </g>
        <g>
          <path class="cls-12" d="m976.48,861.78h190.98v20.44c0,7.27-5.9,13.17-13.17,13.17h-164.65c-7.27,0-13.17-5.9-13.17-13.17v-20.44h0Z" transform="translate(2143.95 1757.17) rotate(180)"/>
          <path class="cls-4" d="m954.96,861.78h190.98v20.44c0,7.27-5.9,13.17-13.17,13.17h-164.65c-7.27,0-13.17-5.9-13.17-13.17v-20.44h0Z" transform="translate(2100.91 1757.17) rotate(180)"/>
          <rect class="cls-13" x="904.96" y="981.11" width="322.13" height="601.96" transform="translate(2132.06 2564.18) rotate(180)"/>
          <rect class="cls-13" x="1227.1" y="981.12" width="131.56" height="601.96"/>
          <path class="cls-13" d="m893.9,888.42h317.98c8.4,0,15.22,6.82,15.22,15.22v85.91c0,5.77-4.68,10.45-10.45,10.45h-322.75v-111.58h0Z" transform="translate(2120.99 1888.42) rotate(180)"/>
          <polygon class="cls-28" points="1227.1 981.12 1227.1 1015.77 1358.65 1066.55 1358.65 981.12 1227.1 981.12"/>
          <path class="cls-4" d="m1060.5,1000h0c65.16,0,118.07,52.9,118.07,118.07v240.44h-236.13v-240.44c0-65.16,52.9-118.07,118.07-118.07Z" transform="translate(2120.99 2358.51) rotate(-180)"/>
          <path class="cls-13" d="m1227.1,1000l129.48,50.21c6.92,2.68,14.37-2.42,14.37-9.84v-88.21c0-4.8-2.95-9.1-7.42-10.83l-136.44-52.91v111.58Z"/>
          <rect class="cls-13" x="890.21" y="1583.07" width="480.74" height="39.37"/>
          <rect class="cls-28" x="904.96" y="1000" width="322.13" height="15.77" transform="translate(2132.06 2015.77) rotate(180)"/>
          <rect class="cls-13" x="1227.1" y="1583.07" width="143.85" height="39.37"/>
        </g>
      </g>
      <g class="cls-17">
        <g>
          <g>
            <path class="cls-2" d="m699.36-266.39c-5.11,309.89-8.26,778.25-11.22,821.16l55.99-50.6s48.61-454.52,85.67-758.99l-130.43-11.57Z"/>
            <g>
              <g>
                <path class="cls-18" d="m688.87,534.66s5.79,11,29.16-25.01c0,0,8.7-21.16,26.83-10,0,0,28.53,42.5,55.57,60.95,0,0,5.5,9.8-1.88,20.82,0,0-29.63,8.09-108.68-10.46,0,0-7.3-25.34-1-36.31Z"/>
                <path class="cls-18" d="m798.55,581.43c3.12-4.65,3.88-9.02,3.79-12.59-26.89,11.45-114.58-7.72-114.66-7.75,1,5.7,2.19,9.88,2.19,9.88,79.05,18.55,108.68,10.46,108.68,10.46Z"/>
              </g>
              <path class="cls-2" d="m754.88,513.48c-7.8-3.22-19.45-6.15-26.67,1-11.64,11.51-23.18,28.01-28.06,29.15,0,0,24.86,7,29.67,6.88,0,0,26.13-15.08,40.42-18.16-5.92-6.73-11.18-13.34-15.35-18.87Z"/>
            </g>
            <path class="cls-2" d="m626.4-266.39c5.13,309.89,19.48,778.25,22.46,821.16l-56.02-50.6s-59.82-454.52-96.9-758.99l130.46-11.57Z"/>
            <g>
              <g>
                <path class="cls-18" d="m648.12,534.66s-5.8,11-29.17-25.01c0,0-8.69-21.16-26.81-10,0,0-28.54,42.5-55.56,60.95,0,0-5.51,9.8,1.85,20.82,0,0,29.64,8.09,108.69-10.46,0,0,7.27-25.34,1-36.31Z"/>
                <path class="cls-18" d="m538.43,581.43c-3.1-4.65-3.87-9.02-3.77-12.59,26.9,11.45,114.58-7.72,114.66-7.75-1.01,5.7-2.2,9.88-2.2,9.88-79.05,18.55-108.69,10.46-108.69,10.46Z"/>
              </g>
              <path class="cls-2" d="m582.13,513.48c7.79-3.22,19.42-6.15,26.63,1,11.66,11.51,23.18,28.01,28.07,29.15,0,0-24.86,7-29.64,6.88,0,0-26.15-15.08-40.42-18.16,5.89-6.73,11.15-13.34,15.35-18.87Z"/>
            </g>
          </g>
          <path class="cls-9" d="m686.31,437.84h72.65c35.88-182.41,106.01-901.42,121.04-1243.85l-440.27,70.71c-12.68,61.07,121.57,1164.04,127.04,1173.14h83.89l-13.84-857.12,37.64,9.51,11.84,847.61Z"/>
        </g>
        <g>
          <g>
            <path class="cls-5" d="m1438.39-242.05c22.71,315.05,47.2,661.62,48.03,705.44h59.01s16.21-393.06,26.4-705.44h-133.44Z"/>
            <g>
              <path class="cls-4" d="m1549.32,545.89s-3.92-74.36,0-96.59c0,0,6.49-15.53-.87-17.06-7.32-1.53-63.07-.67-63.07-.67,0,0-10.9,3.72-5.67,15.84,5.26,12.13,8.68,117.48,4.91,135.26l64.7-36.78Z"/>
              <g>
                <path class="cls-18" d="m1483.46,577.91s15.99,3.79,36.46-34.86c0,0,18.32-11.84,37.72-2.14,0,0,12.29,37,41.4,53.28,0,0,6.46,9.45,0,21.31,0,0-29.36,10.88-111.29-.81,0,0-9.69-25.08-4.3-36.79Z"/>
                <path class="cls-18" d="m1599.04,615.51c2.72-4.99,3.1-9.48,2.68-13.1-26.28,14.02-116.99,2.46-117.1,2.45,1.54,5.69,3.14,9.84,3.14,9.84,81.92,11.69,111.29.81,111.29.81Z"/>
              </g>
            </g>
          </g>
          <g>
            <path class="cls-5" d="m1310.92-242.05c-22.73,315.05-47.18,661.62-48.04,705.44h-59.03s-16.16-393.06-26.38-705.44h133.46Z"/>
            <g>
              <path class="cls-4" d="m1199.98,545.89s3.92-74.36,0-96.59c0,0-6.47-15.53.89-17.06,7.31-1.53,63.07-.67,63.07-.67,0,0,10.91,3.72,5.67,15.84-5.25,12.13-8.66,117.48-4.93,135.26l-64.69-36.78Z"/>
              <g>
                <path class="cls-18" d="m1265.87,577.91s-15.99,3.79-36.47-34.86c0,0-18.33-11.84-37.72-2.14,0,0-12.32,37-41.42,53.28,0,0-6.45,9.45,0,21.31,0,0,29.38,10.88,111.29-.81,0,0,9.71-25.08,4.33-36.79Z"/>
                <path class="cls-18" d="m1150.26,615.51c-2.71-4.99-3.1-9.48-2.68-13.1,26.27,14.02,116.99,2.46,117.09,2.45-1.53,5.69-3.12,9.84-3.12,9.84-81.91,11.69-111.29.81-111.29.81Z"/>
              </g>
            </g>
          </g>
          <path class="cls-31" d="m1601.91-837.71l-448.68,72.07c-12.96,62.23-.3,183.6-.3,183.6,2.43,42.83,33.55,1097.88,33.55,1097.88l94.86,9.24s56.16-812.22,67.48-860.71c11.33-48.5,25.82-225.8,25.82-225.8l7.97.82,77.62,1085.69h103.45s50.84-991.92,38.23-1362.79Z"/>
        </g>
        <g id="P297LW">
          <g>
            <path class="cls-6" d="m979.01,526.72c19.74-12.15,8.14-102.18,8.14-102.18,0,0-92.45-73.39-104.91-16.89-12.46,56.51-87.26,82.14-129.87,89.21-29.41,4.88-38.46,21.22-41.25,30.87l267.88-1.01Z"/>
            <path class="cls-6" d="m1262.3,526.72c19.74-12.15,8.14-102.18,8.14-102.18,0,0-92.45-73.39-104.92-16.89-12.46,56.51-87.26,82.14-129.86,89.21-29.41,4.88-38.46,21.22-41.25,30.87l267.88-1.01Z"/>
            <path class="cls-25" d="m1249.3-810.51v.13c0,.15-.02.31-.04.5-.04.17-.08.38-.15.56-.06.21-.15.42-.25.62-.08.23-.21.46-.33.69-.5.92-1.25,1.96-2.27,3.11-.42.44-.86.92-1.34,1.4s-1,.98-1.54,1.5c-1.13,1.02-2.4,2.11-3.82,3.27-1.69,1.34-3.59,2.75-5.68,4.26-.56.4-1.13.79-1.71,1.19h-.02c-.71.48-1.42.96-2.15,1.46-.73.48-1.48.98-2.27,1.48-.79.5-1.59,1-2.4,1.52-.83.5-1.67,1.02-2.52,1.54-.86.52-1.73,1.04-2.63,1.57-.9.52-1.81,1.06-2.75,1.61h-.02c-1.85,1.06-3.82,2.15-5.84,3.25-2.02,1.09-4.13,2.19-6.3,3.32h-.02c-2.9,1.48-5.93,2.98-9.1,4.51-3.17,1.5-6.47,3.02-9.89,4.55-1.71.75-3.44,1.52-5.22,2.27-.9.38-1.79.75-2.69,1.15-1.59.65-3.19,1.31-4.82,1.98-1.15.48-2.32.94-3.5,1.42h-.02c-1.9.75-3.82,1.5-5.76,2.26-2.94,1.13-5.95,2.25-9.01,3.36-1.52.54-3.09,1.09-4.65,1.65-4.71,1.65-9.55,3.25-14.54,4.84-1.57.5-3.15,1-4.76,1.48-.02,0-.04.02-.06.02-2.11.65-4.21,1.27-6.36,1.9-2.17.63-4.36,1.25-6.59,1.88-.02,0-.02.02-.04.02-.04.04-.08.08-.11.15-6.63,77.89-24.59,187.93-40.82,294.13v.04c-4.19,27.51-8.24,54.78-12,81.15-9.89,69.82-17.29,133.42-18.08,179.21v.48c-.36,21.01,17.38,73.41,18.71,85.51.81,7.41,1.48,15.25,1.96,23.45,1.79,30.5,1.27,66.17-.96,104.28v.02c-.17,2.86-.33,5.74-.52,8.61-2.11,32.65-5.38,66.92-9.45,101.26-1.34,11.33-2.77,22.65-4.28,33.92-19.07,143.65-49.69,278.76-62.64,286.23-.08.04-.17.1-.25.13-33.88,19.34-95.23-.17-126.46-4.72-1.56-.23-3.09-.6-4.57-1.08h-.02c-10.72-3.57-18.65-13.47-18.07-24.95,4.09-80.02,3.94-168.43.9-259.92-.36-11.2-.77-22.45-1.23-33.73-9.7-241.71-38.11-500.21-61.1-679.87-.86-6.68-1.71-13.22-2.54-19.65-3.92-30.27-6.53-58.51-8.16-83.98-1.5-22.34-2.21-42.62-2.54-60.2-.06-5.49-.13-10.72-.15-15.67-.04-7.11,2.44-31.67,5.28-98.57v-.02c.46-11.03.94-23.22,1.42-36.69.56-16.17,1.15-34.19,1.69-54.22.02-.67.04-1.31.06-1.98.33-12.6.69-25.99,1-40.22,1-42.91,1.88-93.43,2.57-152.91.08-8.57.19-17.34.27-26.28.37-38.88.67-81.36.83-127.71.08-20.63.15-42.06.17-64.27,0-5.57,2.27-10.64,5.94-14.29,3.67-3.67,8.74-5.94,14.29-5.94h294.57c28.45,0,51.36,23.28,51,51.75-.46,36.74.88,88.05,8.84,137.01,9.47,58.26,28.35,113.17,64.83,136.28,5.28,3.36,10.91,6.05,16.94,7.97.15.06.29.1.44.15.04.02.08.04.1.08.23.5,1.54,3.42,3.65,8.3,0,.02.02.04.02.06.44,12.1.96,24.41,1.52,36.94.1,2.52.21,5.07.33,7.59.06,1.5.15,2.96.21,4.46.13,2.54.25,5.11.38,7.68.19,4.21.42,8.47.65,12.77.19,3.38.37,6.74.56,10.14.35,6.51.75,13.12,1.17,19.78.02.37.04.75.06,1.13v.02c.1,1.75.21,3.48.36,5.26.56,8.62,1.15,17.36,1.81,26.14.19,2.71.4,5.4.6,8.14.08,1.31.19,2.61.29,3.92.27,3.44.54,6.91.83,10.37.29,3.67.61,7.36.94,11.08,1.17,13.52-.56,25.58-.21,35.05Z"/>
            <path class="cls-6" d="m1066.94,24.14v.02c-.17,2.86-.33,5.74-.52,8.61-2.11,32.65-5.38,66.92-9.45,101.26-1.34,11.33-2.77,22.65-4.28,33.92-19.07,143.65-49.69,278.76-62.64,286.23-.08.04-.17.1-.25.13-33.88,19.34-95.23-.17-126.46-4.72-1.56-.23-3.09-.6-4.57-1.08h-.02c-10.72-3.57-18.65-13.47-18.07-24.95,4.09-80.02,3.94-168.43.9-259.92-.36-11.2-.77-22.45-1.23-33.73-9.7-241.71-38.11-500.21-61.1-679.87-.86-6.68,69.34-223.4,149.21-13,0,.02.02.04.02.08,35.32,91.39,118.74,326.22,118.74,373.3v.48c-.36,21.01,17.38,73.41,18.71,85.51.81,7.41,1.48,15.25,1.96,23.45,1.79,30.5,1.27,66.17-.96,104.28Z"/>
            <path class="cls-13" d="m1319.02,142.98c-.5,11.58-1.11,23.11-1.75,34.54-7.97,137.62-26.03,261.3-36.84,269.62-2.32,1.77-4.82,3.36-7.47,4.78-32.86,17.44-89.49,7.7-118.74,7.3-6.34-.1-12.35-2.38-16.98-6.2-4.96-4.07-8.36-9.89-8.91-16.61-6.05-74.74-16.73-156.31-30.39-240.5-1.81-11.16-3.67-22.36-5.57-33.61-7.78-45.68-16.33-91.95-25.43-138.18-41.14-208.94-93.27-416.9-132.5-563.88-2.09-7.84-4.07-15.56-5.95-23.13,0-.04-.02-.06-.02-.08-17.9-72.34-26.01-131.42-29.54-164.53-.23-2.13-.44-4.13-.63-6.03-1.48-14.77-1.9-22.93-1.9-22.93,0,0,59.16-38.03,128.96-74.56,1.98-1.02,3.96-2.04,5.95-3.09,15.73-8.14,31.94-16.12,48.04-23.57,50.88-23.45,100.97-41.18,133.15-39.26,15.89.94,27.43,6.68,32.54,18.86,1.36,3.21,2.27,6.9,2.69,11.06,12.93,127.67,54.24,713.51,57.18,725.32,16.77,67.42,18.84,177.67,14.1,284.66Z"/>
          </g>
          <g class="cls-14">
            <path class="cls-4" d="m1319.02,142.98c-89.01,22.55-179.09,21.92-226.65,19.34,1.9,11.24,3.76,22.44,5.57,33.61,3.27.15,6.72.29,10.31.42,50.15,1.77,128.69.19,209.02-18.82l1.75-34.54Z"/>
          </g>
          <g class="cls-19">
            <path class="cls-4" d="m1056.97,134.03c-1.34,11.33-2.77,22.65-4.28,33.92-81.54,8.24-159.1,2.34-211.11-4.32-.36-11.2-.77-22.45-1.23-33.73,51.73,6.84,133.15,13.54,216.61,4.13Z"/>
          </g>
        </g>
      </g>
      <g>
        <rect class="cls-8" x="1390" y="1180.65" width="139.66" height="139.66" rx="69.83" ry="69.83" transform="translate(641.19 -488.67) rotate(24.21)"/>
        <g>
          <path class="cls-1" d="m1466.08,1286.71c.87.85,2.31.44,2.65-.72,2.81-9.73-2.78-20.74-13.4-25.52-10.62-4.77-22.56-1.65-27.97,6.91-.65,1.03,0,2.38,1.22,2.46l11.67.8c6.5.45,12.64,3.19,17.3,7.75l8.53,8.32Z"/>
          <g>
            <ellipse class="cls-1" cx="1441.89" cy="1233.77" rx="7.88" ry="4.67" transform="translate(-274.66 2042.9) rotate(-65.79)"/>
            <ellipse class="cls-1" cx="1484.52" cy="1252.94" rx="7.88" ry="4.67" transform="translate(-267 2093.09) rotate(-65.79)"/>
            <path class="cls-1" d="m1449.07,1230.73c-1.68-3.11-6.12-9.43-15.98-13.89-.5-.23-.88-.68-.97-1.22-.17-1-.03-2.5,2.15-2.73,0,0,6.11-.68,10.83,4.08,0,0,4.88,5.98,5.6,11.16.03.23.02.46-.02.69l-.33,1.71c-.12.63-.97.77-1.28.2Z"/>
            <path class="cls-1" d="m1481.74,1245.42c3.44-.8,11.12-1.68,21,2.74.5.22,1.09.21,1.56-.08.86-.54,1.89-1.63.61-3.42,0,0-3.55-5.02-10.24-5.4,0,0-7.72.32-12.07,3.22-.19.13-.36.29-.5.48l-1.06,1.38c-.39.51.07,1.23.7,1.09Z"/>
          </g>
        </g>
      </g>
      <g>
        <rect class="cls-8" x="770.81" y="1236.27" width="68.73" height="68.73" rx="34.36" ry="34.36" transform="translate(130.48 -73.84) rotate(5.71)"/>
        <g>
          <path class="cls-1" d="m813.75,1286.57c.54.26,1.15-.15,1.12-.75-.21-4.98-4.53-9.25-10.24-9.82-5.7-.57-10.79,2.75-11.98,7.59-.14.58.38,1.11.96.96l5.57-1.45c3.1-.81,6.4-.48,9.28.91l5.28,2.55Z"/>
          <g>
            <ellipse class="cls-1" cx="794.2" cy="1265.64" rx="3.88" ry="2.3" transform="translate(-544.21 1929.9) rotate(-84.29)"/>
            <ellipse class="cls-1" cx="817.09" cy="1267.93" rx="3.88" ry="2.3" transform="translate(-525.88 1954.74) rotate(-84.29)"/>
            <path class="cls-1" d="m797.07,1263.1c-1.27-1.19-4.33-3.45-9.63-3.99-.27-.03-.52-.18-.64-.42-.23-.44-.41-1.16.58-1.61,0,0,2.75-1.27,5.69.21,0,0,3.21,2.03,4.36,4.34.05.1.08.21.1.33l.11.85c.04.31-.33.51-.56.29Z"/>
            <path class="cls-1" d="m814.61,1264.85c1.48-.91,4.93-2.52,10.23-2,.27.03.54-.07.71-.28.32-.39.63-1.06-.25-1.69,0,0-2.44-1.79-5.62-.92,0,0-3.55,1.35-5.13,3.39-.07.09-.12.19-.16.3l-.28.81c-.1.3.22.57.49.4Z"/>
          </g>
        </g>
      </g>
      <g>
        <path class="cls-32" d="m506.19,1289.36h-.03c-29.98,9.57-62.03-6.97-71.59-36.95h0c-9.56-29.98,6.98-62.03,36.96-71.59h.03c29.96-9.57,62,6.96,71.58,36.92h0c9.59,29.98-6.96,62.06-36.95,71.62Z"/>
        <g>
          <circle class="cls-1" cx="468.3" cy="1236.26" r="5.66" transform="translate(-93.7 39.68) rotate(-4.41)"/>
          <circle class="cls-1" cx="506.08" cy="1224.2" r="5.66" transform="translate(-670.57 615.68) rotate(-40.19)"/>
        </g>
        <path class="cls-1" d="m479.33,1255.02c8.6-6.41,19.89-9.79,30.6-9.53,3.88.09,7.76.72,11.42,2.05,1.14.41,3.29,1.36,3.92-.36.36-.99-.57-2.14-1.24-2.76-1.61-1.51-3.84-2.23-5.88-2.93-2.69-.92-5.51-1.42-8.34-1.65-4.8-.39-9.66.15-14.33,1.3-1.76.43-3.5.95-5.21,1.56-.05.02-.1.03-.15.05-2.43.86-4.8,1.9-7.08,3.1-4.35,2.28-8.34,5.29-11.69,8.9-.37.39-.72.79-1.08,1.2-1.18,1.36-2.3,2.71-2.64,4.53-.12.66-.08,1.39.3,1.95.64.95,1.89.97,2.81.45,1.45-.83,2.42-2.12,3.53-3.31,1.18-1.26,2.44-2.44,3.77-3.53.42-.35.85-.68,1.28-1Z"/>
        <path class="cls-1" d="m475.4,1225.16c.38-.24.51-.72.3-1.13-.56-1.09-1.35-2.07-2.3-2.86-1.01-.84-12.95,10.09-14.15,11.23-2.89,2.73-6.06,5.72-8.7,8.94-.68.82.47,1.94,1.3,1.27,3.1-2.53,6.07-5.32,9.23-7.67,4.64-3.45,9.42-6.71,14.33-9.78Z"/>
        <path class="cls-1" d="m494.5,1218.39c-.45,0-.81-.35-.85-.8-.09-1.22.07-2.47.46-3.64.42-1.25,16.32,1.81,17.94,2.15,3.89.81,8.15,1.69,12.1,3.05,1.01.35.62,1.9-.44,1.76-3.96-.53-7.95-1.35-11.88-1.69-5.76-.5-11.54-.78-17.33-.82Z"/>
      </g>
      <g>
        <path class="cls-32" d="m1077.35,1454.43h-.02c-16.95-5.59-26.17-23.85-20.58-40.81h0c5.58-16.95,23.85-26.17,40.8-20.58h.02c16.94,5.59,26.16,23.84,20.59,40.79h0c-5.57,16.96-23.85,26.19-40.81,20.6Z"/>
        <g>
          <circle class="cls-1" cx="1077.62" cy="1417.43" r="3.21" transform="translate(-694.03 1595.3) rotate(-58.49)"/>
          <circle class="cls-1" cx="1098.98" cy="1424.46" r="3.21" transform="translate(-103.04 85.81) rotate(-4.27)"/>
        </g>
        <path class="cls-1" d="m1076.44,1429.72c6.08-.08,12.39,2.12,17.23,5.8,1.75,1.33,3.33,2.92,4.56,4.74.39.57,1.06,1.72,1.92,1.14.49-.33.45-1.17.35-1.68-.24-1.23-1.02-2.3-1.73-3.3-.93-1.31-2.06-2.49-3.28-3.53-2.08-1.78-4.49-3.14-7.02-4.17-.95-.39-1.92-.73-2.91-1.02-.03,0-.06-.02-.08-.03-1.4-.41-2.84-.72-4.28-.94-2.76-.4-5.59-.35-8.33.2-.3.06-.6.12-.89.19-.99.23-1.96.48-2.72,1.2-.28.26-.5.61-.51.99-.02.65.55,1.08,1.14,1.14.94.1,1.82-.17,2.72-.35.96-.19,1.93-.31,2.91-.37.31-.02.62-.03.92-.03Z"/>
        <path class="cls-1" d="m1084.57,1414.69c.25.02.47-.16.51-.42.1-.69.07-1.4-.11-2.08-.18-.72-9.31.33-10.24.45-2.23.29-4.68.61-6.97,1.21-.58.15-.43,1.05.18,1.01,2.26-.13,4.56-.42,6.79-.45,3.28-.04,6.56.05,9.84.27Z"/>
        <path class="cls-1" d="m1095.6,1417.94c-.2-.15-.26-.43-.12-.65.37-.59.85-1.11,1.42-1.52.61-.43,6.89,6.26,7.52,6.95,1.52,1.67,3.18,3.49,4.54,5.43.35.49-.35,1.08-.79.66-1.64-1.56-3.21-3.27-4.89-4.73-2.48-2.15-5.04-4.2-7.69-6.14Z"/>
      </g>
      <g>
        <path class="cls-32" d="m1402.14,1481.09h-.01c-13.08,3.19-26.27-4.84-29.45-17.92h0c-3.18-13.08,4.84-26.27,17.92-29.45h.01c13.08-3.19,26.26,4.83,29.45,17.91h0c3.19,13.09-4.83,26.28-17.92,29.47Z"/>
        <g>
          <circle class="cls-1" cx="1387.56" cy="1457.28" r="2.42" transform="translate(-10 9.59) rotate(-.39)"/>
          <circle class="cls-1" cx="1404.05" cy="1453.27" r="2.42" transform="translate(-587.13 1108.98) rotate(-36.18)"/>
        </g>
        <path class="cls-1" d="m1391.71,1465.63c3.86-2.48,8.79-3.58,13.35-3.15,1.65.16,3.29.54,4.81,1.22.47.21,1.36.68,1.68-.04.18-.41-.18-.93-.45-1.22-.64-.69-1.57-1.07-2.42-1.43-1.12-.47-2.31-.77-3.51-.96-2.04-.31-4.13-.22-6.16.13-.76.13-1.52.3-2.27.51-.02,0-.04.01-.06.02-1.06.3-2.11.67-3.12,1.11-1.93.84-3.72,2.01-5.26,3.45-.17.16-.33.32-.5.48-.54.55-1.06,1.09-1.26,1.86-.07.28-.08.59.07.84.25.43.78.47,1.19.28.64-.31,1.09-.83,1.61-1.31.54-.5,1.12-.97,1.72-1.4.19-.14.38-.26.58-.39Z"/>
        <path class="cls-1" d="m1390.92,1452.76c.17-.09.24-.29.16-.47-.21-.48-.52-.92-.9-1.29-.41-.39-5.83,3.92-6.38,4.37-1.31,1.08-2.76,2.26-3.98,3.56-.31.33.14.84.52.58,1.4-.99,2.75-2.09,4.17-3,2.08-1.33,4.22-2.58,6.41-3.75Z"/>
        <path class="cls-1" d="m1399.28,1450.44c-.19-.01-.34-.17-.34-.37,0-.52.1-1.05.31-1.54.22-.52,6.91,1.26,7.59,1.45,1.64.46,3.43.97,5.07,1.67.42.18.21.83-.24.74-1.68-.35-3.36-.81-5.02-1.08-2.44-.39-4.9-.68-7.37-.87Z"/>
      </g>
      <g class="cls-10">
        <path class="cls-15" d="m1905.95,1361.52c-.41,0-.81,0-1.19.02h-.32s-.32.08-.32.08c-10.06,2.27-17.72,9.31-20.45,12.1-16.25.23-24.43,7.22-25.53,8.22l-5.76,4.33,1.08.22-.3.28,5.89.87c-.84.99-1.68,2.06-2.49,3.19-2.36,3.24-4.49,6.97-6.18,10.79-3.12,7.07-4.6,13.67-4.12,18.18l.08.78.42.65c.5.8,1.23,1.59,2.28,2.51,1.24,1.09,2.96,2.31,5.12,3.64-1.33,5.41-4.09,16.73-5.07,21.47l-8.21-.47v28.02c-2.21,4.21-4.44,7.8-6.61,10.74-.12.14-.2.3-.2.3-2.03,3.47-.95,10.13-.4,12.83l.35,1.67,1.58.7c.28.14,2.56,1.09,6.03,1.42l.37,8.37c-.27.75-.58,1.89-.58,2.92,0,.45.03.87.13,1.26.16.8.51,1.47.95,2.06l-.23.47c-.08.35-.17.6-.23.85-.08.28-.15.52-.15.52l-.02.27c-.05.4-.07.8-.07,1.24,0,.12.02.25.02.37.03.48.1.92.18,1.24.01.1.07.28.07.28.15.49.33.95.6,1.44,0,0,.23.42.27.45-1.56,17.46,2.53,24.28,3.37,25.5l.47.65.7.37c2.41,1.3,6.39,1.91,12.54,1.91,4.45,0,9.25-.34,13.14-.69-1.05,1.44-1.96,2.74-2.67,3.84-.38.25-.73.6-1,1-4.77,3.46-19.65,13.69-35.42,21.85-14.39-20.9-29.46-37.88-42.73-48.11-7.03-17.88-24.29-42.79-66.6-61.82l-.73-.32c-7.28-3.31-26.61-19.2-33.11-24.76l-.47-.6-30.22-8.91-8.74-13.97-1.58-.2c-.18-.02-4.18-.5-10.85-.75l-.96-9.89c.05-.01,1.46-.75,1.46-.75l.38-1.44c.66-2.49,1.3-4.85,1.91-7.1,5.18-19.15,8.42-30.21,10.47-37.09,3.46-11.8,3.67-12.5,4.04-21.57.6-14.25-1.43-43.98-3.04-49.76-1.93-7-27.03-29.83-47-33.23-8.11-1.37-15.8-2.07-22.84-2.07-22.66,0-38.95,7-48.44,20.8l-1.86,2.69,3.99,2.88c-.13.88-.32,2.04-.51,3.43-.55,3.61-1.61,11.11-2.71,20.87-.8,3.16-8.04,32.97-7.23,69.04l.07,3.12,4.25.2c.34,5.83.85,11.38,1.56,16.52l-3.62,2.92-4.38-1.3-5.52-4.03-14.02-4.88-13.51,5.25-2.95,6.22-15.98,33.49c-2.42-.74-4.97-1.39-7.59-1.96l-2.23-.48-1.26,1.9c-12.48,19.15-16.99,26.62-18.46,29.11-1.44.62-4.09,1.89-7.29,3.94-5.48,3.51-13.24,9.74-19.14,19.52-9.45,15.76-34.68,56.56-37.24,60.67l-14.1,14.05-9.5,9.49-.22.97c-.1.44-1.94,9.11-3.15,21.29-15.17-40.52-33.76-65.78-55.32-75.18-1.68-1.3-3.36-2.62-5.05-3.91-.23-.84-.71-1.6-1.44-2.19-18.79-14.87-32.46-23.24-41.13-27.84.63-3.11,1.84-9.07,3.96-19.68l.58-2.92-2.83-.9c-6.44-2.09-13.61-3.64-21.33-4.63l-.12-2.81c4.65-1.3,9.3-2.86,13.89-4.68l3.19-1.27-7.39-17.16c2.03-3.81,7.29-14.35,11.55-28.82,5.28-18.01,9.02-42.12,3.01-66.93-9.65-28.27-40-38.25-46.38-40.05l-26.95-34.24v8.94c-1.11,2.71-5.45,13.7-6.46,24.11-5.53-1.25-12.16-2.66-13.59-2.66h-5.77l2.91,5.02c1.15,1.99,3.96,7.73,4.47,12.43-10.52,10.18-35.37,46.6-19.98,93.39,1.98,6.03,4.62,12.23,8.06,18.57l-8.75,23.49,2.26,1.45c.2.13,4.68,3.01,12.66,6.01l.41,8.99c-8.54,1.6-13.79,2.97-14.04,3.02l-3.41.89,5.27,16.68c-32.53,11.21-58.96,29.71-59.21,29.88-.95.67-1.55,1.69-1.73,2.76-1.61,1.27-3.26,2.6-4.9,4.03l-.17.15c-.71.59-5.07,4.22-11.01,9.17-.41-.98-.82-1.98-1.23-2.92-.45-1.05-.93-2.09-1.38-3.11l-.47-1.02c-.53-1.17-1.08-2.32-1.61-3.43-2.74-5.73-5.77-11.44-8.97-17.01-1.59-2.76-3.25-5.51-4.95-8.19l-1.44-2.24c-1.2-1.85-2.34-3.56-3.41-5.1l-1.2-1.74c-1.08-1.52-2.06-2.84-2.89-3.96l-.45-.6c-.15-.2-.3-.38-.35-.45-.33-.44-.65-.85-.9-1.15-.52-.69-.95-1.22-1.23-1.57l-.33-.42c-.08-.08-.8-.99-.8-.99l-30.22-8.91-8.74-13.97-1.56-.2c-.2-.02-4.2-.5-10.85-.75l-.98-9.89c.07-.03,1.48-.75,1.48-.75l.38-1.44c6.29-23.59,10.1-36.49,12.36-44.2,3.47-11.8,3.69-12.5,4.05-21.57.6-14.25-1.43-43.98-3.04-49.76-1.93-7-27.03-29.83-47-33.24-8.12-1.37-15.8-2.07-22.84-2.07-22.66,0-38.96,7-48.44,20.78l-1.86,2.71,3.99,2.87c-.15.89-.32,2.04-.53,3.43-.53,3.62-1.59,11.13-2.69,20.87-.8,3.17-8.04,32.97-7.24,69.04l.08,3.12,4.25.2c.37,6.68,1,12.96,1.86,18.7.75,4.91,1.68,9.52,2.81,13.75.3,1.1.62,2.17.93,3.21.33,1.06.67,2.09,1.01,3.09l.85,2.36,2.49-.15c.33-.01,3.11-.25,3.37-.27,6.23-.53,9.95-.9,12.59-1.47l1.78,16.13c-4.22,2.22-8.19,4.68-11.79,7.28h-16.99l-3.07,2.46c-.18.17-.38.37-.6.6-1.89,2-5.7,6.43-9.82,13.5-1.05,1.79-2.03,3.61-2.94,5.43-2.19,4.34-4.44,9.52-6.52,15.61-4.84-9.17-11.02-16.33-18.49-21.26-2.14-2.59-12.46-14.33-34.34-28.17-16.93-10.69-36.35-20.35-57.73-28.72l-3.19-15.36c-.25-1.54-1.41-2.42-2.41-2.92l-4.14-4.73-.32-3.41c-.07-1.49-.73-2.47-2.06-3.14-.1-.05-.2-.1-.3-.15l.28-1.52c.45-2.34,10.88-57.68,11.3-91.58.03-1.89.02-3.73-.02-5.47,4.15-6.37,5.55-13.67,4.65-24.08,0-.2-.02-.4-.03-.57,0,0-.02-.2-.03-.3v-1l-.75-.92c-3.32-4.09-6.01-6.63-8.14-8.2l4.04-4.08-3.24-2.27c-.8-.57-19.69-13.63-48.66-13.63-24.55,0-48.57,9.32-71.38,27.7l-2.01,1.62s4.45,9.81,4.5,9.92c-.03.05-.27.32-.27.32-.13.16-.66.88-.66.88-.13.17-.71,1-.71,1-.13.2-.27.42-.42.67l-.32.53c-.13.23-.28.48-.42.72-.1.2-.21.4-.33.62-.13.27-.27.53-.4.8-.1.23-.21.47-.33.72-.13.28-.25.58-.38.87-.12.27-.22.53-.33.82-.12.32-.23.64-.37.97-.1.28-.21.58-.31.9-.12.33-.22.69-.33,1.05-.1.32-.2.65-.3,1-.1.37-.2.74-.3,1.12-.08.37-.18.73-.27,1.14-.08.38-.17.78-.25,1.2-.08.4-.17.8-.23,1.22-.08.44-.15.87-.22,1.3-.07.44-.13.89-.18,1.35-.07.45-.12.91-.17,1.39-.05.47-.08.95-.13,1.45-.03.48-.07.97-.1,1.49-.03.5-.05,1.04-.07,1.57-.02.52-.03,1.04-.03,1.57-.02.55-.02,1.14,0,1.71,0,.55,0,1.1.02,1.67.02.6.05,1.2.08,1.84.03.57.07,1.15.1,1.75.05.6.1,1.23.17,1.97l.02.25c.05.53.1,1.07.17,1.6.07.67.15,1.34.25,2.11l.05.32c.07.53.13,1.09.21,1.64.1.64.2,1.29.32,1.94l.1.63c.1.58.2,1.15.3,1.74.13.67.27,1.37.4,2.06l.18.85c.1.55.22,1.08.35,1.65.15.7.32,1.41.48,2.12l.23.95c.13.58.27,1.15.41,1.74.18.74.4,1.49.6,2.24l.31,1.17c.15.55.3,1.1.47,1.67.22.78.46,1.59.7,2.39l.38,1.24c.17.57.35,1.14.53,1.72.27.82.55,1.67.83,2.52l.5,1.47c.17.54.35,1.07.55,1.64.3.87.65,1.79.98,2.69l.61,1.69c.18.5.35,1,.55,1.52.38,1,.8,2.04,1.21,3.07l.65,1.66c.18.48.38.97.58,1.47.51,1.27,1.08,2.59,1.64,3.91,0,0,.91,2.17,1.1,2.59.96,2.22,1.98,4.48,3.06,6.8l.62,1.32,1.38.45c1.68.53,3.6,1,5.75,1.39v12.65c-3.04.2-5.45.62-6.56,2.04-.45.53-.68,1.22-.71,2.11l-.38,5.61c-.75.14-1.46.29-2.11.44-.03-.01-3.79-2-3.79-2l-.88,3.21-.21.5c-1.36.83-2.09,1.92-2.18,3.24l-1.34,8.42c-10.2,3.56-56.03,21.22-74.21,56.18l-.32.62-.05.68c-.17,2.02-.28,4.04-.4,6.03-.05.1-.05.4-.05.4-.45,1.97-2.91,13.05-5.96,27.75-.95,4.49-1.96,9.37-2.97,14.46-6.05,30.11-9.84,52.56-11.36,67.04l-39.84-14.71-27.04,14.07c-1.46-42.12-4.72-87.76-18.84-131.49-3.31-10.19-11.51-17.38-22.59-19.8-5.23-5.2-11.21-9.43-17.79-12.6l-43.24-20.9,3.07-9.26.18-.53-1.33-1.44c-.17-.18-1.56-1.67-4.5-3.8v-13.38l12.77,4.41,1.35-2.44c.47-.83,11.48-20.92,15.68-50.06l6.76-3.19s-15.08-51.93-15.1-52c7.38-3.74,12.64-10.46,14.57-18.68,2.11-8.99-.08-18.18-6.03-25.2l-3.75-4.43-5.85-5.01.18,7.51c.03,1.55-.37,9.37-11.83,9.91l-41.93-1.5c-.51-.02-1.03-.02-1.54-.02-21.6,0-41.58,9.76-54.79,26.8-8.41,10.83-13.52,20.88-15.2,29.87l-.05.23v.25c-.93,24.41,1.53,52.03,26.71,71.75,1.66,1.3,3.41,2.56,5.22,3.76v4.79l-3.41.08,1.3,21.59c-.55.2-1.18.45-1.89.72-9.09,3.53-31.12,12.77-52.1,26.8-15.53,10.39-27.26,21.32-34.87,32.43l-.23.35-.15.38c-.5,1.37-12.08,33.27-11.45,60.52l-8.44,14.82,4.8,4.09c-.49,3.88-1.68,13.66-2.85,26.9l-27.85-24.65c-.09-4.01-.2-7.89-.32-11.54l-.76-13.28c-.13-4.53-.57-9.11-1.28-13.59v-.58l-.1-.2-.03-.32-1.01-6.98c-.28-1.49-.58-2.96-.88-4.45-.17-.8-.33-1.62-.51-2.47-.17-.82-.4-1.62-.63-2.42-.1-.37-.22-.74-.33-1.14l-.12-.45c-.28-1.02-.61-2.17-1.08-3.23l-.25-.62c-.36-.94-.78-1.97-1.46-3.01l-.1-.19c-.28-.48-.65-1.12-1.24-1.74-.4-.47-.82-.87-1.26-1.19-4.04-8.37-9.17-16.11-15.28-23.01-2.49-2.82-4.85-5.13-7.01-6.86l-.47-.37-.55-.18c-1.79-.6-3.69-1.29-5.63-2.04-24.47-9.48-60.32-30.73-78.34-41.81-4.65-2.86-8.11-5.04-9.88-6.17-.53-5.85.37-12.41.37-12.48l.48-3.44-3.44-.35s-1.69-.16-4.67-.45c-.03-.27-.45-3.79-.45-3.79h-1.93l.05-1.4c1.58.28,3.21.43,4.87.43h4.55l.96-1.65c8.22-14.19,14.35-29.39,18.24-45.25h4.27l.37-2.93c3.92-31.33-.41-56.74-.7-58.38-.3-2.59-.65-5.08-1.03-7.4-.55-3.33-1.1-5.92-1.51-7.65,2.59-1.91,4.52-4.56,5.53-7.69,4.47-13.68,16.01-59.95-22.44-80.37l-1.74-.92-20.6,13.78c-4.05-1.89-14.35-6.42-21.56-7.67-.21-.05-.45-.1-.73-.13l-1.16-.2-1.01.55c-5.41,2.97-8.42,6.32-9.93,8.47-4.45-.53-15.25-2.06-22.43-4.95l-1.18-.47-1.2.43c-3.52,1.29-33.18,12.98-47.68,46.33v86.3c6.08,19.08,15.65,39.53,28.71,61.31l.21.35-2.21,11.25c-4.19.67-7.53,1.52-10.17,2.56l-.98.38-13.64,20.43c-.65.25-1.3.5-1.93.75v344.55h2034.46v-381.3c-6.58-1.94-12.78-2.96-18.03-2.96Zm-387.79,322.95l-54.06,27.17-85.42-9.69c-1-7.07-2.71-18.13-5.29-31.31l-.07-.35c-2.41-12.35-5.13-24.34-8.09-35.72l29.67,12.06,1.08-.85c7.21-2.43,75.6-25.87,99.1-50.38l6.64-2.11s.41,2.06.55,2.66l.7,3.18.93,3.86.7,2.82c.3,1.12.61,2.31.95,3.56l.16.62c.19.67.38,1.35.57,1.99.38,1.37.78,2.78,1.21,4.25l1.06,3.48c.35,1.17.73,2.36,1.11,3.59,0,0,.9,2.73,1.18,3.61,0,0,.83,2.47,1.03,3.06l.02,2.82h.96c2.06,5.85,4.24,11.6,6.5,17.14-.98,12.59-1.23,24.11-1.19,34.55Zm28.75-240.93h-18.49c10.52-8.35,14.89-17.69,16.45-21.99,5.93-.5,9.5-.87,12.06-1.42l1.08,9.67-3.97-2.21,4.27,8.87c-4.09,2.17-7.91,4.55-11.39,7.07Zm222.84,240.41c-1.01,1.09-2.01,2.12-2.94,3.08-2.73,2.84-4.29,4.48-5.13,5.83l-.65.73v.67c-.05.2-.1.42-.13.63l-.75,3.91h.48c-.4,5.13-1.28,14.81-1.93,21.59l-.69,1.14-38.55-8.93c2.33-2.18,5.27-5.72,4.72-9.42-.36-2.37-2.19-5.34-4.12-8.5-.88-1.42-2.14-3.48-2.58-4.51.68-1.2,2.89-3.78,5.1-5.93l1.58-1.54-6.9-18.18c1.96-3.89,7.05-15.73,12.14-41.32,1.03.75,2.18,1.52,3.39,2.34.12.12.47.35.47.35,2.07,1.5,11.66,8.51,11.66,8.51l19.15,33.03,1.13,1.14,14.7,1.59c-2.19,5.3-7.79,11.28-10.17,13.8Z"/>
      </g>
      <g>
        <circle cx="1206.15" cy="628.07" r="3.44"/>
        <circle cx="1173.99" cy="622.25" r="3.44"/>
        <path d="m1195.23,605.44s1.64,1,9.58,2.44c7.94,1.44,11.27,3.19,11.32,2.05.24-4.9-13.48-9.86-15.94-9.77-2.46.08-5.39,2.03-4.97,5.28Z"/>
        <path d="m1182.75,603.18s-1.89.36-9.83-1.07c-7.94-1.44-11.67-.96-11.32-2.05,1.49-4.67,16.08-4.51,18.35-3.57s4.34,3.79,2.8,6.69Z"/>
        <path d="m1182.36,651.88s9.14.73,15.96-1.81c0,0-3.46,10.55-15.96,1.81Z"/>
        <path d="m1182.57,645.27c-2.11-.38-3.92-1.44-4.79-2.64-.63-.86-.76-1.76-.35-2.53,1.06-2,8.45-14.05,8.49-14.11l1.03.59c-.03.06-7.41,12.09-8.46,14.07-.23.44.01.93.26,1.27,1.06,1.45,3.99,2.7,6.87,2.18l.21,1.17c-1.11.2-2.21.17-3.24-.01Z"/>
      </g>
    </g>
  </g>
</svg>