<?xml version="1.0" encoding="UTF-8"?>
<svg id="Layer_1" data-name="Layer 1" xmlns="http://www.w3.org/2000/svg" viewBox="0 0 2000 2000">
  <defs>
    <style>
      .cls-1 {
        fill: #fff;
      }

      .cls-2 {
        opacity: .6;
      }

      .cls-3 {
        fill: #4f41c9;
      }

      .cls-4 {
        fill: #141a46;
      }

      .cls-5 {
        fill: #afeff0;
      }

      .cls-6 {
        fill: #fbfbfb;
      }

      .cls-7 {
        fill: none;
      }

      .cls-8 {
        fill: #0b5b07;
      }

      .cls-9 {
        fill: #d1edfc;
      }
    </style>
  </defs>
  <path class="cls-9" d="m1737,1000c0,114.46-26.09,222.82-72.65,319.47-119.02,247.05-371.77,417.53-664.35,417.53s-545.33-170.48-664.35-417.53c-46.56-96.65-72.65-205.01-72.65-319.47,0-407.03,329.97-737,737-737s737,329.97,737,737Z"/>
  <path class="cls-7" d="m1737,1000c0,114.46-26.09,222.82-72.65,319.47-119.02,247.05-371.77,417.53-664.35,417.53s-545.33-170.48-664.35-417.53c-46.56-96.65-72.65-205.01-72.65-319.47,0-407.03,329.97-737,737-737s737,329.97,737,737Z"/>
  <g class="cls-2">
    <path class="cls-6" d="m1253.48,1350.88l31.92-2c2.66-.14,5.17,1.22,6.5,3.52,1.69,2.94,3.52,5.83,5.49,8.67,3.65,5.28,7.6,10.19,11.87,14.66,2,2.1,2.54,5.15,1.34,7.77l-13.71,30.47c-1.5,3.24-.22,7.11,2.95,8.86l26.67,14.9c3.03,1.68,6.8.82,8.81-1.98l17.82-25.08c1.68-2.48,4.83-3.51,7.77-2.57,12.4,3.94,25.41,5.89,38.52,5.78,3.17-.02,6,2.17,6.8,5.23l4.72,18.12c.93,3.43,4.28,5.69,7.83,5.19l29.99-4.53c.62-.09,1.2-.23,1.74-.49,2.63-1.1,4.36-3.82,4.14-6.77l-1.47-23.84-.37-5.81c5.08-2.54,10.08-5.49,14.87-8.8,6.46-4.46,12.39-9.45,17.68-14.8,2.03-2.04,5.07-2.66,7.69-1.46l24.54,11.07c3.36,1.49,7.31.21,9.07-3.01l11.39-20.39,3.25-5.85c1.79-3.19.9-7.24-2.08-9.33l-20.95-14.91c-2.45-1.7-3.55-4.76-2.68-7.56,2.44-8.43,4-17.1,4.59-25.82.11-.76.14-1.45.18-2.2,0-.25.04-.5.08-.74.41-2.78,2.47-5.02,5.21-5.72l29.4-7.73c.34-.06.67-.2.96-.33,2.88-1.23,4.65-4.32,4.2-7.48l-4.47-29.91c-.55-3.61-3.73-6.2-7.41-5.99l-33.29,2.1c-2.82.21-5.44-1.37-6.66-3.92-2.72-5.59-5.9-11.06-9.58-16.37-1.94-2.81-3.98-5.52-6.12-8.11-1.72-2.12-2.12-5.03-.99-7.5l13.17-29.3c1.47-3.22.21-7.06-2.91-8.81l-26.41-14.7c-3.19-1.79-7.21-.91-9.36,2.1l-14.1,19.85c-1.89,2.66-5.31,3.67-8.33,2.49-11.82-4.76-24.31-7.62-37.01-8.56-3-.17-5.58-2.3-6.34-5.25l-6.95-26.5c-.93-3.56-4.4-5.82-8.04-5.3l-29.8,4.44c-3.58.52-6.15,3.75-5.9,7.3l.07,1.39,1.71,27.7c.19,2.97-1.46,5.68-4.17,6.91l-.03.02c-6.49,2.95-12.8,6.52-18.89,10.72-3.24,2.24-6.31,4.62-9.3,7.1-2.05,1.76-4.91,2.17-7.37,1.07l-24.91-11.24c-3.4-1.55-7.44-.2-9.23,3.03l-14.66,26.29c-.41.75-.66,1.56-.8,2.34-.39,2.56.67,5.26,2.86,6.84l16.77,11.86c2.04,1.47,3.14,3.93,2.92,6.38-.07.64-.21,1.29-.45,1.92-6.03,15.2-8.94,31.42-8.62,47.78.1,2.77-1.57,5.28-4.03,6.44-.36.16-.73.29-1.13.4l-23.81,6.24c-3.45.9-5.67,4.26-5.16,7.81l.1.7,4.34,29.15c.58,3.67,3.82,6.26,7.52,6.04Zm207.51-80.05c1.59,4.63,2.81,9.59,3.58,14.87,1.45,10.07-1.36,25.71-6.32,34.61-.53.96-1.07,1.88-1.62,2.81-33.91,56.11-114.75,40.6-124.92-25.11-1.32-8.59.38-20.92,3.89-30.26.84-2.15,1.74-4.17,2.73-5.87,4.56-8.07,10.04-14.74,16.18-20.09,35.02-30.45,90.36-17.17,106.48,29.04Z"/>
    <path class="cls-6" d="m684.41,979.6l84.96-9.57c7.08-.73,13.96,2.57,17.84,8.54,4.92,7.63,10.19,15.11,15.81,22.44,10.45,13.62,21.63,26.2,33.64,37.56,5.62,5.33,7.48,13.43,4.61,20.57l-32.58,83.2c-3.56,8.85.36,19.01,9.05,23.28l73.2,36.25c8.31,4.09,18.26,1.27,23.27-6.45l44.26-69.35c4.16-6.84,12.43-10,20.4-7.89,33.63,8.89,68.63,12.36,103.63,10.32,8.44-.48,16.31,5.01,18.84,13.06l15,47.75c2.94,9.04,12.18,14.64,21.6,12.82l79.49-16.08c1.64-.32,3.16-.78,4.59-1.52,6.89-3.28,11.13-10.77,10.17-18.62l-7.07-63.47-1.75-15.47c13.22-7.44,26.19-15.98,38.55-25.46,16.65-12.78,31.82-26.88,45.23-41.88,5.14-5.71,13.2-7.78,20.34-4.91l66.99,26.32c9.18,3.54,19.55-.42,23.84-9.24l27.73-55.96,7.9-16.06c4.35-8.74,1.43-19.44-6.8-24.65l-57.93-37.04c-6.77-4.22-10.1-12.24-8.17-19.84,5.4-22.84,8.41-46.19,8.83-69.56.2-2.03.18-3.9.18-5.9-.04-.67.04-1.33.13-1.98.72-7.49,5.93-13.72,13.14-15.96l77.48-24.53c.89-.22,1.75-.63,2.53-1,7.54-3.67,11.85-12.14,10.22-20.54l-15.91-79.27c-1.93-9.57-10.79-16.06-20.58-15.02l-88.61,10.02c-7.51.94-14.72-2.94-18.3-9.6-8-14.56-17.24-28.75-27.74-42.44-5.57-7.25-11.37-14.2-17.41-20.86-4.87-5.43-6.32-13.14-3.64-19.9l31.29-79.98c3.48-8.79-.38-18.88-8.93-23.13l-72.47-35.76c-8.74-4.35-19.36-1.48-24.72,6.86l-35.04,54.86c-4.7,7.37-13.69,10.5-21.91,7.76-32.2-11.16-65.94-17.13-99.96-17.95-8.04-.07-15.19-5.4-17.63-13.17l-22.07-69.84c-2.96-9.37-12.53-14.96-22.16-13.1l-78.99,15.81c-9.49,1.88-15.93,10.81-14.78,20.28l.38,3.71,8.25,73.74c.89,7.9-3.15,15.35-10.22,19.01l-.07.06c-16.92,8.75-33.32,19.1-49.01,31.13-8.36,6.42-16.24,13.17-23.88,20.21-5.24,4.97-12.82,6.43-19.53,3.82l-68-26.72c-9.29-3.69-19.88.44-24.25,9.32l-35.65,72.15c-1,2.06-1.56,4.25-1.83,6.35-.71,6.89,2.49,13.97,8.56,17.89l46.35,29.45c5.64,3.67,8.92,10.09,8.65,16.64-.09,1.72-.39,3.47-.95,5.2-14.1,41.39-19.72,85.09-16.69,128.74.62,7.4-3.48,14.31-9.92,17.72-.93.48-1.91.88-2.95,1.21l-62.76,19.81c-9.09,2.86-14.57,12.12-12.75,21.54l.36,1.84,15.44,77.28c2.05,9.72,11.04,16.22,20.89,15.13Zm543.53-241.25c4.85,12.15,8.78,25.24,11.53,39.24,5.2,26.7-.22,68.83-12.28,93.26-1.28,2.63-2.61,5.18-3.95,7.73-83.13,154.32-301.04,123.62-336.92-50.49-4.65-22.77-1.75-55.91,6.39-81.33,1.97-5.86,4.09-11.37,6.5-16.04,11.1-22.16,24.85-40.71,40.55-55.8,89.49-85.95,239.01-57.81,288.18,63.43Z"/>
  </g>
  <g class="cls-2">
    <path class="cls-6" d="m591.31,1036.4l-14.38-.4c-1.2-.04-2.27-.76-2.77-1.84-.64-1.39-1.34-2.76-2.11-4.11-1.42-2.51-2.99-4.87-4.73-7.05-.81-1.02-.93-2.41-.29-3.54l7.38-13.1c.8-1.39.39-3.18-.96-4.09l-11.35-7.76c-1.29-.88-3.01-.64-4.03.53l-9,10.52c-.85,1.04-2.3,1.38-3.58.84-5.39-2.27-11.15-3.67-17.03-4.15-1.42-.12-2.6-1.22-2.83-2.62l-1.38-8.31c-.28-1.57-1.69-2.72-3.3-2.64l-13.62.81c-.28.01-.55.06-.8.15-1.23.39-2.11,1.53-2.13,2.86l-.31,10.74-.07,2.62c-2.38.93-4.74,2.05-7.02,3.34-3.07,1.74-5.93,3.73-8.52,5.92-.99.83-2.38.99-3.5.34l-10.55-5.96c-1.45-.8-3.27-.39-4.19.98l-5.93,8.67-1.69,2.49c-.93,1.35-.69,3.21.56,4.27l8.78,7.53c1.03.86,1.4,2.28.9,3.5-1.43,3.68-2.48,7.5-3.1,11.38-.08.33-.12.65-.17.98,0,.11-.04.22-.07.33-.3,1.23-1.31,2.15-2.57,2.35l-13.49,2.27c-.15.01-.31.06-.44.11-1.34.43-2.26,1.75-2.19,3.18l.79,13.58c.1,1.64,1.42,2.93,3.08,2.99l15,.41c1.27.02,2.38.83,2.82,2.03.99,2.61,2.2,5.19,3.63,7.72.76,1.34,1.56,2.63,2.41,3.88.68,1.02.75,2.34.14,3.4l-7.09,12.59c-.79,1.38-.38,3.15.95,4.06l11.24,7.66c1.35.93,3.19.7,4.28-.56l7.12-8.32c.96-1.12,2.53-1.43,3.83-.78,5.1,2.61,10.59,4.4,16.24,5.34,1.34.2,2.41,1.25,2.63,2.61l2.04,12.15c.27,1.63,1.74,2.79,3.39,2.7l13.53-.78c1.63-.09,2.91-1.43,2.94-3.03l.02-.63.36-12.48c.04-1.34.88-2.49,2.15-2.93h.01c3.03-1.07,6-2.41,8.9-4.05,1.54-.87,3.01-1.81,4.45-2.81.99-.7,2.29-.77,3.34-.18l10.7,6.05c1.46.83,3.32.39,4.26-.98l7.63-11.19c.21-.32.36-.67.45-1.01.28-1.13-.09-2.39-1.01-3.18l-7.03-6c-.85-.74-1.25-1.89-1.05-2.98.06-.28.15-.57.28-.84,3.32-6.57,5.28-13.72,5.8-21.06.07-1.25.92-2.3,2.07-2.72.17-.06.34-.1.52-.13l10.92-1.83c1.58-.26,2.71-1.68,2.63-3.29l-.02-.32-.76-13.24c-.11-1.67-1.46-2.96-3.13-3.01Zm-96.23,27.46c-.52-2.14-.87-4.41-1-6.81-.24-4.57,1.65-11.47,4.23-15.25.28-.41.56-.8.84-1.19,17.47-23.77,53.06-13.54,54.96,16.31.24,3.9-1.02,9.36-2.97,13.4-.47.93-.95,1.8-1.46,2.52-2.37,3.43-5.1,6.2-8.07,8.35-16.93,12.22-41.18,4.03-46.53-17.33Z"/>
    <path class="cls-6" d="m831.25,1225.83l-38.46.84c-3.2.04-6.15-1.72-7.65-4.55-1.89-3.62-3.95-7.19-6.17-10.7-4.13-6.53-8.63-12.62-13.55-18.19-2.3-2.62-2.81-6.32-1.23-9.4l17.97-35.96c1.95-3.82.61-8.53-3.11-10.8l-31.33-19.21c-3.56-2.17-8.13-1.31-10.69,1.95l-22.64,29.28c-2.14,2.9-5.98,3.98-9.46,2.71-14.71-5.35-30.25-8.32-46.02-8.83-3.8-.13-7.1-2.9-7.91-6.62l-4.79-22c-.95-4.17-4.86-7.06-9.16-6.62l-36.27,3.98c-.75.07-1.45.22-2.12.5-3.22,1.19-5.42,4.38-5.31,7.93l.6,28.73.16,7c-6.23,2.8-12.38,6.1-18.3,9.85-7.98,5.05-15.35,10.75-21.97,16.93-2.54,2.35-6.23,2.95-9.31,1.37l-28.95-14.51c-3.97-1.96-8.78-.6-11.06,3.17l-14.69,23.95-4.19,6.87c-2.3,3.74-1.43,8.65,2.05,11.32l24.46,18.94c2.86,2.16,4.03,5.89,2.85,9.22-3.35,10.01-5.64,20.36-6.78,30.81-.17.9-.24,1.74-.32,2.63,0,.3-.07.59-.14.88-.62,3.33-3.21,5.91-6.54,6.62l-35.71,7.85c-.41.06-.81.21-1.17.34-3.52,1.34-5.8,4.96-5.41,8.79l3.91,36.17c.48,4.37,4.18,7.63,8.61,7.56l40.11-.9c3.4-.12,6.48,1.91,7.81,5.04,2.99,6.85,6.56,13.58,10.71,20.14,2.2,3.48,4.52,6.83,6.96,10.05,1.96,2.63,2.3,6.14.82,9.07l-17.26,34.57c-1.92,3.8-.6,8.47,3.06,10.73l31.02,18.96c3.74,2.3,8.62,1.45,11.36-2.07l17.92-23.16c2.4-3.11,6.56-4.15,10.13-2.59,13.97,6.31,28.85,10.35,44.06,12.1,3.6.36,6.59,3.03,7.36,6.62l7.06,32.19c.94,4.32,5.01,7.21,9.4,6.77l36.04-3.88c4.33-.46,7.57-4.2,7.44-8.49l-.02-1.68-.71-33.38c-.08-3.58,2.03-6.75,5.35-8.1l.04-.02c7.94-3.24,15.7-7.21,23.22-11.96,4.01-2.54,7.81-5.24,11.52-8.09,2.55-2.01,6.01-2.36,8.91-.92l29.39,14.73c4.02,2.03,8.93.61,11.24-3.19l18.9-30.88c.53-.88.87-1.84,1.08-2.77.6-3.06-.55-6.36-3.11-8.36l-19.58-15.08c-2.38-1.87-3.59-4.88-3.2-7.81.11-.77.32-1.54.64-2.29,8-17.97,12.29-37.33,12.7-57.01.02-3.34,2.14-6.27,5.16-7.54.43-.18.89-.32,1.37-.42l28.92-6.33c4.19-.91,7.02-4.84,6.59-9.14l-.08-.84-3.78-35.25c-.52-4.44-4.29-7.72-8.75-7.62Zm-253.33,86.07c-1.68-5.64-2.91-11.67-3.58-18.05-1.25-12.17,2.89-30.83,9.28-41.29.68-1.12,1.38-2.21,2.08-3.3,43.5-65.78,139.9-43.19,148.92,36.28,1.16,10.39-1.48,25.13-6.16,36.18-1.12,2.55-2.29,4.93-3.56,6.92-5.87,9.48-12.79,17.23-20.43,23.36-43.58,34.88-109.44,16.21-126.56-40.11Z"/>
  </g>
  <g>
    <path class="cls-8" d="m1152.89,678.53c-1.59,0-2.88-1.29-2.88-2.88v-37.06c0-28.88-23.5-52.37-52.38-52.37h-28.63c-1.59,0-2.88-1.29-2.88-2.88s1.29-2.88,2.88-2.88h28.63c32.06,0,58.14,26.08,58.14,58.14v37.06c0,1.59-1.29,2.88-2.88,2.88Z"/>
    <g>
      <path class="cls-8" d="m1097.64,1056.41h-37.06c-1.59,0-2.88-1.29-2.88-2.88s1.29-2.88,2.88-2.88h37.06c28.88,0,52.37-23.49,52.37-52.37v-28.63c0-1.59,1.29-2.88,2.88-2.88s2.88,1.29,2.88,2.88v28.63c0,32.06-26.08,58.14-58.14,58.14Z"/>
      <path class="cls-8" d="m595.73,1056.41h-28.63c-32.06,0-58.14-26.08-58.14-58.14v-37.06c0-1.59,1.29-2.88,2.88-2.88s2.88,1.29,2.88,2.88v37.06c0,28.88,23.5,52.37,52.38,52.37h28.63c1.59,0,2.88,1.29,2.88,2.88s-1.29,2.88-2.88,2.88Z"/>
    </g>
    <g>
      <path class="cls-8" d="m511.83,670.11c-1.59,0-2.88-1.29-2.88-2.88v-28.63c0-32.06,26.08-58.14,58.14-58.14h37.06c1.59,0,2.88,1.29,2.88,2.88s-1.29,2.88-2.88,2.88h-37.06c-28.88,0-52.37,23.49-52.37,52.37v28.63c0,1.59-1.29,2.88-2.88,2.88Z"/>
      <path class="cls-8" d="m1124.9,638.6v361.79c0,15.06-12.21,27.27-27.27,27.27h-333.65l-96.88,83.85c-6.91,5.98-17.65,1.07-17.65-8.06v-75.78h-82.37c-15.06,0-27.27-12.21-27.27-27.27v-361.79c0-15.06,12.21-27.27,27.27-27.27h530.55c15.06,0,27.27,12.21,27.27,27.27Z"/>
      <g>
        <rect class="cls-1" x="616.72" y="757.98" width="61.31" height="187.83" rx="8.93" ry="8.93"/>
        <rect class="cls-1" x="709.25" y="845.85" width="61.31" height="99.95" rx="8.93" ry="8.93"/>
        <rect class="cls-1" x="801.79" y="757.98" width="61.31" height="187.83" rx="8.93" ry="8.93"/>
        <rect class="cls-1" x="894.33" y="874.62" width="61.31" height="71.19" rx="8.93" ry="8.93"/>
        <g>
          <rect class="cls-1" x="905.25" y="668.4" width="155.33" height="22.92" rx="3.85" ry="3.85"/>
          <rect class="cls-1" x="905.25" y="714.68" width="155.33" height="22.92" rx="3.85" ry="3.85"/>
        </g>
      </g>
    </g>
  </g>
  <g>
    <g>
      <g>
        <path class="cls-4" d="m865.77,1152.94c-1.04,0-1.88-.84-1.88-1.88v-20.34c0-23.42,19.05-42.47,42.47-42.47h24.89c1.04,0,1.88.84,1.88,1.88s-.84,1.88-1.88,1.88h-24.89c-21.35,0-38.72,17.37-38.72,38.72v20.34c0,1.04-.84,1.88-1.88,1.88Z"/>
        <path class="cls-4" d="m1384.03,1157.49c-1.04,0-1.88-.84-1.88-1.88v-24.89c0-21.35-17.37-38.72-38.72-38.72h-20.34c-1.04,0-1.88-.84-1.88-1.88s.84-1.88,1.88-1.88h20.34c23.42,0,42.47,19.05,42.47,42.47v24.89c0,1.04-.84,1.88-1.88,1.88Z"/>
      </g>
      <g>
        <path class="cls-4" d="m1343.44,1505.16h-24.89c-1.04,0-1.88-.84-1.88-1.88s.84-1.88,1.88-1.88h24.89c21.35,0,38.72-17.37,38.72-38.72v-20.34c0-1.04.84-1.88,1.88-1.88s1.88.84,1.88,1.88v20.34c0,23.42-19.05,42.47-42.47,42.47Z"/>
        <path class="cls-4" d="m926.71,1505.16h-20.34c-23.42,0-42.47-19.05-42.47-42.47v-24.89c0-1.04.84-1.88,1.88-1.88s1.88.84,1.88,1.88v24.89c0,21.35,17.37,38.72,38.72,38.72h20.34c1.04,0,1.88.84,1.88,1.88s-.84,1.88-1.88,1.88Z"/>
      </g>
      <rect class="cls-4" x="886.85" y="1111.21" width="476.1" height="370.99" rx="19.51" ry="19.51"/>
    </g>
    <g>
      <path class="cls-1" d="m1316.67,1202.58h0c0,1.87-1.52,3.38-3.38,3.38h-86.06c-1.87,0-3.38-1.52-3.38-3.38h0c0-1.87,1.52-3.38,3.38-3.38h86.06c1.87,0,3.38,1.52,3.38,3.38Z"/>
      <path class="cls-1" d="m1316.67,1186.24h0c0,1.87-1.52,3.38-3.38,3.38h-37.82c-1.87,0-3.38-1.52-3.38-3.38h0c0-1.87,1.52-3.38,3.38-3.38h37.82c1.87,0,3.38,1.52,3.38,3.38Z"/>
      <path class="cls-1" d="m1316.67,1169.9h0c0,1.87-1.52,3.38-3.38,3.38h-71.71c-1.87,0-3.38-1.52-3.38-3.38h0c0-1.87,1.52-3.38,3.38-3.38h71.71c1.87,0,3.38,1.52,3.38,3.38Z"/>
    </g>
    <rect class="cls-1" x="952.43" y="1157.49" width="100.2" height="16.19" rx="3.89" ry="3.89"/>
    <rect class="cls-1" x="952.43" y="1197.87" width="201.56" height="16.19" rx="3.89" ry="3.89"/>
    <g>
      <path class="cls-1" d="m1286.24,1401.12l-15.14-6.18,2.71,4.66h-313.67v-126.31l4.66,2.71-6.18-15.14-6.19,15.14,4.66-2.71v127.83c0,.84.68,1.52,1.52,1.52h315.2l-2.71,4.66,15.14-6.19Z"/>
      <path class="cls-1" d="m966.42,1354.72c-.58,0-1.15-.24-1.55-.72-.72-.86-.61-2.14.24-2.86l55.97-47.24c.8-.67,1.98-.63,2.72.1l43.97,42.81,90.7-72.32c.8-.64,1.96-.58,2.69.14l31.95,31.56,54.76-.39,46.11-41.1c.84-.75,2.12-.67,2.87.16.75.84.67,2.12-.16,2.86l-46.68,41.61c-.37.33-.84.51-1.34.52l-56.37.4s0,0-.01,0c-.53,0-1.05-.21-1.43-.59l-31.27-30.89-90.69,72.31c-.8.64-1.95.58-2.68-.13l-43.93-42.78-54.57,46.05c-.38.32-.85.48-1.31.48Z"/>
      <g>
        <circle class="cls-3" cx="1022.39" cy="1305.85" r="6.95"/>
        <circle class="cls-5" cx="1022.39" cy="1305.85" r="3.64"/>
      </g>
      <g>
        <circle class="cls-3" cx="1067.12" cy="1349.78" r="6.95" transform="translate(-436.17 2186.91) rotate(-80.78)"/>
        <path class="cls-5" d="m1070.76,1349.78c0,2.01-1.63,3.64-3.64,3.64s-3.64-1.63-3.64-3.64,1.63-3.64,3.64-3.64,3.64,1.63,3.64,3.64Z"/>
      </g>
      <g>
        <circle class="cls-3" cx="1159.74" cy="1276.21" r="6.95"/>
        <circle class="cls-5" cx="1159.74" cy="1276.21" r="3.64"/>
      </g>
      <g>
        <circle class="cls-3" cx="1193.09" cy="1308.23" r="6.95"/>
        <circle class="cls-5" cx="1193.09" cy="1308.23" r="3.64"/>
      </g>
      <g>
        <circle class="cls-3" cx="1247.87" cy="1307.7" r="6.95"/>
        <circle class="cls-5" cx="1247.87" cy="1307.7" r="3.64"/>
      </g>
    </g>
  </g>
  <path class="cls-1" d="m282.88,418.44c3.22,0,3.22-5,0-5s-3.22,5,0,5h0Z"/>
</svg>