<?xml version="1.0" encoding="UTF-8"?>
<svg id="Layer_1" data-name="Layer 1" xmlns="http://www.w3.org/2000/svg" xmlns:xlink="http://www.w3.org/1999/xlink" viewBox="0 0 2000 2000">
  <defs>
    <style>
      .cls-1 {
        fill: #fff;
      }

      .cls-2 {
        fill: #dbdbdb;
      }

      .cls-3 {
        fill: #d9935c;
      }

      .cls-4 {
        fill: #e2e2e2;
      }

      .cls-5 {
        opacity: .6;
      }

      .cls-6 {
        fill: #f99746;
      }

      .cls-7 {
        stroke: #021833;
        stroke-linecap: round;
        stroke-linejoin: round;
        stroke-width: 3.65px;
      }

      .cls-7, .cls-8 {
        fill: none;
      }

      .cls-9 {
        fill: #bc6337;
      }

      .cls-10 {
        fill: #141a46;
      }

      .cls-11 {
        fill: #ffb359;
      }

      .cls-12 {
        fill: #331b19;
      }

      .cls-13 {
        fill: #0b181b;
      }

      .cls-14 {
        fill: #eaeaea;
      }

      .cls-15 {
        fill: #313963;
      }

      .cls-16 {
        fill: #cc7646;
      }

      .cls-17 {
        fill: #e58638;
      }

      .cls-18 {
        clip-path: url(#clippath);
      }

      .cls-19 {
        fill: #ed985f;
      }

      .cls-20 {
        fill: #e8e8e8;
      }

      .cls-21 {
        fill: #ed7d2b;
      }

      .cls-22 {
        fill: #ffb27d;
      }

      .cls-23 {
        fill: #cecece;
      }

      .cls-24 {
        fill: #f4a671;
      }

      .cls-25 {
        fill: #f8ba8c;
      }

      .cls-26 {
        fill: #352e35;
      }

      .cls-27 {
        fill: #233862;
      }

      .cls-28 {
        fill: #0b5b07;
      }

      .cls-29 {
        fill: #2b478b;
      }

      .cls-30 {
        fill: #a1c9de;
      }

      .cls-31 {
        fill: #fefefe;
      }

      .cls-32 {
        fill: #d1edfc;
      }
    </style>
    <clipPath id="clippath">
      <path class="cls-8" d="m1737,1000c0,114.46-26.09,222.82-72.65,319.47-119.02,247.05-371.77,417.53-664.35,417.53s-545.33-170.48-664.35-417.53c-46.56-96.65-72.65-205.01-72.65-319.47,0-407.03,329.97-737,737-737s737,329.97,737,737Z"/>
    </clipPath>
  </defs>
  <path class="cls-32" d="m1737,1000c0,114.46-26.09,222.82-72.65,319.47-119.02,247.05-371.77,417.53-664.35,417.53s-545.33-170.48-664.35-417.53c-46.56-96.65-72.65-205.01-72.65-319.47,0-407.03,329.97-737,737-737s737,329.97,737,737Z"/>
  <g class="cls-5">
    <path class="cls-1" d="m1010.57,851.6h-61.1c-5.08-21.1-13.4-40.93-24.42-58.93l43.21-43.21c7.75-7.75,7.75-20.3,0-28.05l-40.44-40.44c-7.75-7.75-20.3-7.75-28.05,0l-43.21,43.21c-18.01-11.02-37.84-19.34-58.93-24.42v-61.1c0-10.95-8.88-19.83-19.83-19.83h-57.18c-10.95,0-19.83,8.88-19.83,19.83v61.1c-21.1,5.08-40.93,13.4-58.93,24.42l-43.21-43.21c-7.75-7.75-20.3-7.75-28.05,0l-40.44,40.44c-7.75,7.75-7.75,20.3,0,28.05l43.21,43.21c-11.02,18.01-19.34,37.84-24.42,58.93h-61.1c-10.95,0-19.83,8.88-19.83,19.83v57.18c0,10.95,8.88,19.83,19.83,19.83h61.1c5.08,21.1,13.4,40.93,24.42,58.93l-43.21,43.21c-7.75,7.75-7.75,20.3,0,28.05l40.44,40.44c7.75,7.75,20.3,7.75,28.05,0l43.21-43.21c18.01,11.02,37.84,19.34,58.93,24.42v61.1c0,10.95,8.88,19.83,19.83,19.83h57.18c10.95,0,19.83-8.88,19.83-19.83v-61.1c21.1-5.08,40.93-13.4,58.93-24.42l43.21,43.21c7.75,7.75,20.3,7.75,28.05,0l40.44-40.44c7.75-7.75,7.75-20.3,0-28.05l-43.21-43.21c11.02-18.01,19.34-37.84,24.42-58.93h61.1c10.95,0,19.83-8.88,19.83-19.83v-57.18c0-10.95-8.88-19.83-19.83-19.83Zm-261.37,200.83c-84.17,0-152.4-68.23-152.4-152.4s68.23-152.4,152.4-152.4,152.4,68.23,152.4,152.4-68.23,152.4-152.4,152.4Z"/>
    <path class="cls-1" d="m1480.97,1152.17l-55.8-25.75c4.25-21.41,5.01-43.03,2.54-64.12l57.68-21.25c10.34-3.81,15.63-15.28,11.82-25.62l-19.89-53.97c-3.81-10.34-15.28-15.63-25.62-11.82l-57.68,21.25c-11.8-17.65-26.41-33.61-43.53-47.14l25.75-55.8c4.62-10,.25-21.86-9.75-26.47l-52.22-24.1c-10-4.62-21.86-.25-26.47,9.75l-25.75,55.8c-21.41-4.25-43.03-5.01-64.12-2.54l-21.25-57.68c-3.81-10.34-15.28-15.63-25.62-11.82l-53.97,19.89c-10.34,3.81-15.63,15.28-11.82,25.62l21.25,57.68c-17.65,11.8-33.61,26.41-47.14,43.53l-55.8-25.75c-10-4.62-21.86-.25-26.47,9.75l-24.1,52.22c-4.62,10-.25,21.86,9.75,26.47l55.8,25.75c-4.25,21.41-5.01,43.03-2.54,64.12l-57.68,21.25c-10.34,3.81-15.63,15.28-11.82,25.62l19.89,53.97c3.81,10.34,15.28,15.63,25.62,11.82l57.68-21.25c11.8,17.65,26.41,33.61,43.53,47.14l-25.75,55.8c-4.62,10-.25,21.86,9.75,26.47l52.22,24.1c10,4.62,21.86.25,26.47-9.75l25.75-55.8c21.41,4.25,43.03,5.01,64.12,2.54l21.25,57.68c3.81,10.34,15.28,15.63,25.62,11.82l53.97-19.89c10.34-3.81,15.63-15.28,11.82-25.62l-21.25-57.68c17.65-11.8,33.61-26.41,47.14-43.53l55.8,25.75c10,4.62,21.86.25,26.47-9.75l24.1-52.22c4.62-10,.25-21.86-9.75-26.47Zm-323.34,73.25c-76.87-35.48-110.43-126.55-74.95-203.42,35.48-76.87,126.55-110.43,203.42-74.95,76.87,35.48,110.43,126.55,74.95,203.42-35.48,76.87-126.55,110.43-203.42,74.95Z"/>
    <g>
      <path class="cls-1" d="m1012.47,796.8c-.33-.1-.63-.34-.8-.67l-16.94-32.35c-.35-.67-.09-1.49.58-1.84.67-.35,1.49-.09,1.84.58l16.94,32.35c.35.67.09,1.49-.58,1.84-.33.17-.71.2-1.04.09Z"/>
      <path class="cls-1" d="m1060.75,811.89c-.33-.1-.63-.34-.8-.67-.35-.67-.09-1.49.58-1.84l32.35-16.94c.67-.35,1.49-.09,1.84.58.35.67.09,1.49-.58,1.84l-32.35,16.94c-.33.17-.71.2-1.04.09Z"/>
      <path class="cls-1" d="m1037.86,804.74c-.72-.22-1.12-.99-.89-1.71l13.02-41.63c.22-.72.99-1.12,1.71-.89.72.22,1.12.99.89,1.71l-13.02,41.63c-.22.72-.99,1.12-1.71.89Z"/>
    </g>
    <g>
      <g>
        <path class="cls-1" d="m1143.63,637.86h-153.21c-4.14,0-7.49,3.36-7.49,7.49v82.91c0,4.14,3.36,7.49,7.49,7.49h36.34c.2.02.4.06.61.06h45.98c.53,0,1.04.22,1.41.61l38.22,40.47c1.23,1.3,3.33.38,3.33-1.46v-37.54c0-1.14.87-2.07,1.95-2.07h25.37c3.45,0,6.24-2.96,6.24-6.61v-84.75c0-3.65-2.79-6.61-6.24-6.61Z"/>
        <path class="cls-4" d="m1059.11,664.6h-52.56c-.91,0-1.64-.74-1.64-1.64s.74-1.64,1.64-1.64h52.56c.91,0,1.64.74,1.64,1.64s-.74,1.64-1.64,1.64Z"/>
        <path class="cls-4" d="m1124.08,686.61h-117.54c-.91,0-1.64-.74-1.64-1.64s.74-1.64,1.64-1.64h117.54c.91,0,1.64.74,1.64,1.64s-.74,1.64-1.64,1.64Z"/>
        <path class="cls-4" d="m1124.08,664.6h-52.56c-.91,0-1.64-.74-1.64-1.64s.74-1.64,1.64-1.64h52.56c.91,0,1.64.74,1.64,1.64s-.74,1.64-1.64,1.64Z"/>
        <path class="cls-4" d="m1059.11,709.32h-52.56c-.91,0-1.64-.74-1.64-1.64s.74-1.64,1.64-1.64h52.56c.91,0,1.64.74,1.64,1.64s-.74,1.64-1.64,1.64Z"/>
        <path class="cls-4" d="m1124.08,709.32h-52.56c-.91,0-1.64-.74-1.64-1.64s.74-1.64,1.64-1.64h52.56c.91,0,1.64.74,1.64,1.64s-.74,1.64-1.64,1.64Z"/>
      </g>
      <g>
        <path class="cls-1" d="m846.63,496.8h182.3c4.92,0,8.92,3.99,8.92,8.92v98.65c0,4.92-3.99,8.92-8.92,8.92h-43.24c-.24.02-.47.07-.72.07h-54.72c-.63,0-1.24.26-1.67.72l-45.48,48.15c-1.46,1.55-3.97.45-3.97-1.74v-44.67c0-1.36-1.04-2.46-2.32-2.46h-30.18c-4.1,0-7.42-3.52-7.42-7.86v-100.84c0-4.34,3.32-7.86,7.42-7.86Z"/>
        <g>
          <path class="cls-4" d="m1007.76,529.3h-138.46c-.91,0-1.64-.74-1.64-1.64s.74-1.64,1.64-1.64h138.46c.91,0,1.64.74,1.64,1.64s-.74,1.64-1.64,1.64Z"/>
          <path class="cls-4" d="m961.01,582.85h-91.71c-.91,0-1.64-.74-1.64-1.64s.74-1.64,1.64-1.64h91.71c.91,0,1.64.74,1.64,1.64s-.74,1.64-1.64,1.64Z"/>
          <path class="cls-4" d="m932.37,554.92h-63.08c-.91,0-1.64-.74-1.64-1.64s.74-1.64,1.64-1.64h63.08c.91,0,1.64.74,1.64,1.64s-.74,1.64-1.64,1.64Z"/>
          <path class="cls-4" d="m1008.24,554.92h-63.08c-.91,0-1.64-.74-1.64-1.64s.74-1.64,1.64-1.64h63.08c.91,0,1.64.74,1.64,1.64s-.74,1.64-1.64,1.64Z"/>
        </g>
      </g>
    </g>
    <g>
      <path class="cls-1" d="m893.94,1395.57l-4.16-27.23c9.06-3.7,17.33-8.76,24.6-14.9l22.2,16.32c3.98,2.92,9.58,2.07,12.5-1.91l15.27-20.77c2.92-3.98,2.07-9.58-1.91-12.5l-22.2-16.32c3.68-8.78,6.04-18.18,6.87-27.93l27.23-4.16c4.88-.75,8.23-5.31,7.49-10.19l-3.89-25.48c-.75-4.88-5.31-8.23-10.19-7.49l-27.23,4.16c-3.7-9.06-8.76-17.33-14.9-24.6l16.32-22.2c2.92-3.98,2.07-9.58-1.91-12.5l-20.77-15.27c-3.98-2.92-9.58-2.07-12.5,1.91l-16.32,22.2c-8.78-3.68-18.18-6.04-27.93-6.87l-4.16-27.23c-.75-4.88-5.31-8.23-10.19-7.49l-25.48,3.89c-4.88.75-8.23,5.31-7.49,10.19l4.16,27.23c-9.05,3.7-17.33,8.76-24.6,14.9l-22.2-16.32c-3.98-2.92-9.58-2.07-12.5,1.91l-15.27,20.77c-2.92,3.98-2.07,9.58,1.91,12.5l22.2,16.32c-3.68,8.78-6.04,18.18-6.87,27.93l-27.23,4.16c-4.88.75-8.23,5.31-7.49,10.19l3.89,25.48c.75,4.88,5.31,8.23,10.19,7.49l27.23-4.16c3.7,9.06,8.76,17.33,14.9,24.6l-16.32,22.2c-2.92,3.98-2.07,9.58,1.91,12.5l20.77,15.27c3.98,2.92,9.58,2.07,12.5-1.91l16.32-22.2c8.78,3.68,18.18,6.04,27.93,6.87l4.16,27.23c.75,4.88,5.31,8.23,10.19,7.49l25.48-3.89c4.88-.75,8.23-5.31,7.49-10.19Zm-107.3-102.8c-5.73-37.51,20.03-72.57,57.54-78.3,37.51-5.73,72.57,20.03,78.3,57.54,5.73,37.51-20.03,72.57-57.54,78.3-37.51,5.73-72.57-20.03-78.3-57.54Z"/>
      <path class="cls-1" d="m1284,752.9l-2.5-16.35c5.44-2.22,10.4-5.26,14.77-8.94l13.33,9.79c2.39,1.76,5.75,1.24,7.5-1.15l9.16-12.47c1.76-2.39,1.24-5.75-1.15-7.5l-13.33-9.79c2.21-5.27,3.63-10.91,4.12-16.76l16.35-2.5c2.93-.45,4.94-3.19,4.49-6.12l-2.34-15.3c-.45-2.93-3.19-4.94-6.12-4.49l-16.35,2.5c-2.22-5.44-5.26-10.4-8.94-14.77l9.79-13.33c1.76-2.39,1.24-5.75-1.15-7.5l-12.47-9.16c-2.39-1.76-5.75-1.24-7.5,1.15l-9.79,13.33c-5.27-2.21-10.91-3.63-16.76-4.12l-2.5-16.35c-.45-2.93-3.19-4.94-6.12-4.49l-15.3,2.34c-2.93.45-4.94,3.19-4.49,6.12l2.5,16.35c-5.44,2.22-10.4,5.26-14.77,8.94l-13.33-9.79c-2.39-1.76-5.75-1.24-7.5,1.15l-9.16,12.47c-1.76,2.39-1.24,5.75,1.15,7.5l13.33,9.79c-2.21,5.27-3.63,10.91-4.12,16.76l-16.35,2.5c-2.93.45-4.94,3.19-4.49,6.12l2.34,15.3c.45,2.93,3.19,4.94,6.12,4.49l16.35-2.5c2.22,5.44,5.26,10.4,8.94,14.77l-9.79,13.33c-1.76,2.39-1.24,5.75,1.15,7.5l12.47,9.16c2.39,1.76,5.75,1.24,7.5-1.15l9.79-13.33c5.27,2.21,10.91,3.63,16.76,4.12l2.5,16.35c.45,2.93,3.19,4.94,6.12,4.49l15.3-2.34c2.93-.45,4.94-3.19,4.49-6.12Zm-64.41-61.71c-3.44-22.52,12.02-43.56,34.54-47,22.52-3.44,43.56,12.02,47,34.54,3.44,22.52-12.02,43.56-34.54,47-22.52,3.44-43.56-12.02-47-34.54Z"/>
    </g>
  </g>
  <g class="cls-18">
    <path class="cls-30" d="m1594.73,1435.36c-134.11,182.9-350.56,301.64-594.73,301.64s-460.62-118.74-594.73-301.64h1189.46Z"/>
    <g>
      <path class="cls-28" d="m1323.59,586.6h-79.15l-43.17,28.04v-119.09c0-23.93,22.25-43.33,49.7-43.33h72.62c27.45,0,49.7,19.4,49.7,43.33v47.71c0,23.93-22.25,43.33-49.7,43.33Z"/>
      <path class="cls-31" d="m1299.14,509.89c0,.28-.03.55-.03.83,0,10.21,0,20.43,0,30.64,0,2.47,1.24,3.71,3.69,3.71,1.76,0,3.51.02,5.27-.01.5,0,.69.1.69.65-.03,2.79-.03,5.57,0,8.36,0,.56-.19.65-.69.65-12.4-.01-24.79-.01-37.19,0-.5,0-.7-.09-.69-.65.03-2.79.03-5.57,0-8.36,0-.55.19-.66.69-.65,1.91.03,3.81.03,5.72,0,1.83-.02,3.23-1.37,3.23-3.18.02-6.35.02-25.61,0-28.9,0-1.87-1.36-3.22-3.24-3.25-1.91-.03-3.81-.02-5.72,0-.51,0-.7-.11-.69-.66.03-2.78.02-5.57,0-8.35,0-.47.11-.65.62-.65,9.23.01,18.45.02,27.68,0,.58,0,.63.24.63.72,0,3.03.07,6.07.02,9.1Z"/>
      <path class="cls-31" d="m1289.4,493.65c-5.46-.05-9.62-4.28-9.56-9.71.06-5.4,4.31-9.61,9.67-9.55,5.46.06,9.65,4.28,9.6,9.69-.05,5.46-4.26,9.61-9.71,9.56Z"/>
    </g>
    <g>
      <path class="cls-28" d="m626.88,647.19h81.03s44.2,28.71,44.2,28.71v-121.92c0-24.5-22.78-44.36-50.88-44.36h-74.35c-28.1,0-50.88,19.86-50.88,44.36v48.85c0,24.5,22.78,44.36,50.88,44.36Z"/>
      <path class="cls-31" d="m675.86,568.82c0,.27-.03.54-.03.82,0,10.1,0,20.2,0,30.29,0,2.44,1.22,3.67,3.65,3.67,1.74,0,3.47.02,5.21,0,.49,0,.69.1.68.64-.03,2.75-.03,5.51,0,8.26,0,.55-.19.64-.68.64-12.26-.01-24.51-.01-36.77,0-.49,0-.69-.09-.69-.64.03-2.75.03-5.51,0-8.26,0-.54.18-.65.68-.64,1.89.03,3.77.03,5.66,0,1.81-.02,3.19-1.36,3.2-3.14.02-6.28.02-25.32,0-28.57,0-1.85-1.35-3.19-3.2-3.21-1.88-.03-3.77-.02-5.65,0-.5,0-.69-.11-.68-.65.03-2.75.02-5.5,0-8.25,0-.47.11-.64.61-.64,9.12.01,18.24.02,27.37,0,.57,0,.62.24.62.71,0,3,.07,6,.02,9Z"/>
      <path class="cls-31" d="m666.23,552.76c-5.4-.05-9.51-4.23-9.45-9.6.06-5.34,4.26-9.5,9.56-9.44,5.4.05,9.54,4.24,9.49,9.58-.05,5.4-4.21,9.5-9.6,9.46Z"/>
    </g>
    <path class="cls-8" d="m1737,1000c0,114.46-26.09,222.82-72.65,319.47-119.02,247.05-371.77,417.53-664.35,417.53s-545.33-170.48-664.35-417.53c-46.56-96.65-72.65-205.01-72.65-319.47,0-407.03,329.97-737,737-737s737,329.97,737,737Z"/>
    <g>
      <g>
        <g>
          <path class="cls-25" d="m856.24,1561.52l-32.28,5.98s-88.33-136.18-90.87-177.7c-2.45-39.65-82.05-213.18,11.14-321.52,4.2-4.91,8.77-9.69,13.73-14.3.16-.18.35-.35.53-.51,0,0,.16.25.46.76,1.89,3.16,9.3,16.54,17.97,46.11,13.58,46.22,30.38,132.03,34.34,280.23,0,0,21.68,126.88,44.97,180.95Z"/>
          <path class="cls-24" d="m856.24,1561.52s34.59,39.02,35.65,54.85c1.06,15.82-12.63,35.74-28,39.14-15.38,3.4-5.78-21-8.08-30.8-2.31-9.8-12.35-24.67-11.75-20.24.61,4.43,6.75,21.87,4.85,24.66-1.9,2.79-6.86,3.24-8.74-6.08-1.88-9.32-17.37-20.18-14.33-30.17,3.04-9.99.55-17.69-3.65-31.08-4.2-13.4-11.22-29.47-11.22-29.47l24.93-5.32,20.32,34.52Z"/>
        </g>
        <path class="cls-12" d="m622.76,856.7s-.77,16.47,9.11,19.69c9.88,3.22-10.18,38.77-8.6,62.77,1.57,24.01,12.2,33.64,12.2,33.64,0,0-5.1-13.2-2.25-21.37,0,0-.46,16.98,11.95,25.55,12.4,8.56,9.07,15.97,9.07,15.97,0,0,28.03-8.39,28.81-29.42,0,0,1.2,9.5.24,13.44,0,0,24.2-18.17,25.36-39.11,1.15-20.94-19.05-38.61-28.26-38.93-9.2-.32-29.74-18.39-29.18-25.22s-28.43-17.02-28.43-17.02Z"/>
        <path class="cls-29" d="m840.01,2566.25l-34.27,12.76s-148.88-206.49-167.21-388.16c-3.27-32.43-2.18-63.86,4.9-92.88,0,0-1.45-8.31-4-23-1.18-6.86-2.63-15.11-4.28-24.57-4.84-27.73-11.5-65.68-19.11-108.89-17.52-99.43-40.21-226.53-57.85-319.97l9.24-2.97,99.93-32.24,20.65-65.59,74.41-19.59s16.62,32.52,31.48,186.12c2.74,20.15,5.24,42.37,7.11,66.46,5.79,73.54,6.21,164.77-7.08,269.07-3.41,26.7-7.73,54.26-13.07,82.58-3.92,20.76-4.5,49.05-2.85,81.55,7.5,148.51,62.01,379.31,62.01,379.31Z"/>
        <path class="cls-27" d="m801,1753.74l-161.58,321.23c-1.18-6.86-2.63-15.11-4.28-24.57-4.84-27.73-11.5-65.68-19.11-108.89-17.52-99.43-40.21-226.53-57.85-319.97l9.24-2.97,99.93-32.24,20.65-65.59,88.88-26.44s2.15,39.36,17.01,192.97c2.74,20.15,5.24,42.37,7.11,66.46Z"/>
        <path class="cls-12" d="m664.43,741.85c-38.05,60.76-76.1,121.52-114.14,182.28-4.58-.66-11.35-1.96-19.14-4.77-32.47-11.71-59.12-41.17-67.63-74.23-5.65-21.95-2.88-43.86-2.04-50.11.72-5.36,1.63-9.78,2.34-12.89,4.98-12.39,16.84-36.93,42.59-56.93,11.21-8.71,40.95-31.8,82.62-27.49,45.16,4.67,70.89,38.06,75.4,44.14Z"/>
        <path class="cls-25" d="m714.64,1092.05c-15.99,14.65-36.75,27.76-63.67,37.95-100.9,38.23-152.8-44.38-176.01-102.78,13.1-10.06,26.22-13.67,33.82-15.64,7.41-1.91,15.25-3.58,21.76-4.79,10.48-10.55,22.92-49.59,19.03-107.05l5.08.64,85.15,11.31s-.21,26.61,1.3,51.52c1.2,19.5,3.49,37.98,7.76,41.99,6.6.52,10.56.9,10.56.9,0,0,0,.03.05.07,1.35,1.66,30.49,37.59,55.16,85.86Z"/>
        <path class="cls-19" d="m639.82,911.72s-.23,26.59,1.3,51.52c-47.15,1.67-74.76-39.68-86.46-62.83l85.16,11.3Z"/>
        <path class="cls-25" d="m657.04,934.32s-111.23,8.92-115.72-60.43c-4.49-69.35-21.87-114.91,48.96-123.54,70.83-8.63,86.35,16.94,93.48,39.72,7.13,22.79,2.1,140.14-26.72,144.25Z"/>
        <g>
          <circle cx="598.06" cy="855" r="5.93"/>
          <circle cx="653.96" cy="847.67" r="5.93"/>
          <path d="m618.78,816.92s-2.92,1.59-16.71,3.4c-13.8,1.81-19.68,4.55-19.68,2.58,0-8.46,24.05-15.86,28.28-15.5,4.23.35,9.12,3.95,8.11,9.52Z"/>
          <path d="m640.46,814.08s3.23.79,17.03-1.02c13.8-1.81,20.19-.68,19.68-2.58-2.17-8.18-27.32-9.12-31.32-7.69s-7.79,6.16-5.39,11.29Z"/>
          <path d="m637.05,898.02s-15.82.5-27.34-4.46c0,0,5.08,18.46,27.34,4.46Z"/>
          <path d="m637.25,886.6c3.67-.48,6.87-2.16,8.47-4.14,1.16-1.44,1.45-2.97.82-4.32-1.66-3.54-13.38-24.92-13.44-25.02l-1.82.93c.05.1,11.76,21.45,13.4,24.95.36.77-.1,1.61-.56,2.17-1.95,2.41-7.1,4.32-12.01,3.18l-.46,1.99c1.89.43,3.8.48,5.59.25Z"/>
        </g>
        <path class="cls-12" d="m677.99,751.72c-18.54-19.77-31.26-14.36-38.15-7.63-62.99-29.59-99.06,22.38-99.06,22.38-4.28,50.24-38.35,81.03-38.35,81.03,0,0,21.09,11.24,67.12-3.77,14.05-4.59,26.17-15.55,36.23-28.56-5.72,10.44-14.46,23.46-27.66,35.94-5.56,5.25-11.07,9.62-16.24,13.24,13.04-7.13,40.33-24.44,59.09-58.06,10.9-19.55,15.2-37.91,17.03-50.57,7.19,5.67,21.43,18.08,26.34,30.82,6.67,17.31,11.49,53.51,22,51.6,0,0,19.45-56.77-8.35-86.41Z"/>
        <path class="cls-1" d="m788.3,1110.17c-13.84-69.25-56.73-89.09-56.73-89.09,0,0-7.13-10.8-46.97-12.5-6.21-.26-12.98-1.54-20.53-2.15-1.51-.1-3.05-.22-4.63-.32,0,0,0,.02.05.08,1.51,2.33,41.71,64.13,39.48,80.74-2.28,16.91-148.59,11.12-159.2,2.58-8.5-6.88-23.27-52.77-28.77-70.72-1.39-4.47-2.22-7.21-2.22-7.21,0,0-51.09,8.91-75.12,28.82,0,0,18.38,20.18,30.67,44.98,1.16,2.37,2.28,4.73,3.3,7.13,2.19,5.09,4.02,10.29,5.36,15.51,1.76,6.89.17,14-3.55,21.65-3.35,6.99-8.54,14.5-14.52,22.64-3.94,5.29-8.18,10.9-12.5,16.89,3.04,10.1,7,22.19,11.39,35.88,9.04,28.16,19.79,62.93,27.47,100.38,2.88,14.11,2.51,28.63-.96,42.47-1.37,5.52-3.23,10.92-5.56,16.16-3.65,8.18-4.55,19.44-8.65,30.02-16.72,43.3-36.02,99.8-16.68,129.31,12.9,37.72,311.66-53.88,291.55-93.43,0,0,11.91-207.51,20.13-271.78.27-2.36.49-4.63.61-6.92.19-3.61.18-7.17-.01-10.66,25.89-11.79,26.59-30.43,26.59-30.43Z"/>
        <path class="cls-20" d="m582.15,1370.29c-43.03,13.79-84.93,19.71-118.17,22.11,4.1-10.57,7.13-20.15,10.78-28.33,2.33-5.24,4.19-10.65,5.56-16.16,3.47-13.83,3.85-28.35.96-42.47-7.68-37.44-28.07-101.33-37.11-129.48,24.14-53.84,49.08-24.47,49.08-24.47,0,0,72.96,32.72,104.02,93.04,31.06,60.32,22,113.86-15.13,125.76Z"/>
        <path class="cls-28" d="m489.02,1015.7s69.48,44.4,87.25,138.01l21.01-6.67s-8.13-66.82-88.5-135.45l-19.76,4.11Z"/>
        <path class="cls-28" d="m734.42,1156.09l-22,1.44c4.4-81.17-36.33-136.58-48.37-151.1,7.55.6,14.39,1.34,20.53,2.15,57.62,83.37,49.84,147.51,49.84,147.51Z"/>
        <path class="cls-28" d="m761.73,1507.89l15.61-6.73-15.33-232.58s-14.9-105.75-15.13-124.24c-.22-18.48-15.15-27.49-15.15-27.49,0,0-109.53,5.78-140.4,7.51-30.87,1.74-27.77,19.31-27.77,19.31,0,0,13.46,56.19,14.82,61.98,20.78,88.32-98.07,142.27-98.07,142.27,0,0-19.28,49.89-34.24,97.68-25.64,81.93-2.74,199.48-2.74,199.48,3.89,62.44,11,327.75,18.42,406.26,2.68,28.46,5.03,48.7,5.99,56.79.02.04.02.06.02.08.29,2.47-.57,4.8-1.82,6.95-10.93,18.54-19.97,37.86-27.4,57.61-72.85,194.13,11.22,433.2,11.22,433.2l21.81-8.79s47.84-266.06,86.72-383.6c6.6-19.93,12.92-35.6,18.72-44.96,16.9-27.28,32.59-71.85,46.82-124.86,26.91-100.23,48.57-230.61,62.98-331.25,1.99.09,22.71-141.06,74.65-203.28.46-.56.53-1,.25-1.35Z"/>
        <g>
          <g>
            <path class="cls-20" d="m575.41,1145.55c-1.54-4.86,1.15-10.04,6-11.59,4.86-1.54,10.04,1.14,11.59,6,1.54,4.86-1.14,10.04-6,11.59-4.86,1.54-10.04-1.14-11.59-6Z"/>
            <path class="cls-1" d="m576.99,1145.05c-1.54-4.86,1.15-10.04,6-11.59,4.86-1.54,10.04,1.14,11.59,6,1.54,4.86-1.15,10.04-6.01,11.59-4.85,1.54-10.04-1.14-11.59-6Z"/>
          </g>
          <path class="cls-10" d="m580.06,1142.25c0-.74.6-1.34,1.34-1.34s1.34.6,1.34,1.34c0,.74-.6,1.34-1.34,1.34-.74,0-1.34-.6-1.34-1.34Z"/>
          <path class="cls-10" d="m588.82,1142.26c0-.74.6-1.34,1.34-1.34s1.34.6,1.34,1.34-.6,1.34-1.34,1.34-1.34-.6-1.34-1.34Z"/>
        </g>
        <g>
          <g>
            <path class="cls-21" d="m711.22,1133.83c-1.54-4.85,1.14-10.04,6-11.58,4.86-1.54,10.04,1.14,11.59,6,1.54,4.86-1.14,10.04-6,11.59-4.86,1.54-10.04-1.14-11.59-6Z"/>
            <path class="cls-6" d="m712.79,1133.33c-1.54-4.85,1.14-10.04,6-11.58,4.85-1.54,10.04,1.14,11.59,6,1.54,4.86-1.15,10.04-6,11.59-4.85,1.54-10.04-1.14-11.59-6Z"/>
          </g>
          <path class="cls-29" d="m715.87,1130.53c0-.74.6-1.34,1.34-1.34.74,0,1.34.6,1.34,1.34,0,.74-.6,1.34-1.34,1.34s-1.34-.6-1.34-1.34Z"/>
          <path class="cls-29" d="m724.63,1130.54c0-.74.6-1.34,1.34-1.34s1.34.6,1.34,1.34c0,.74-.6,1.34-1.34,1.34s-1.34-.6-1.34-1.34Z"/>
        </g>
        <path class="cls-12" d="m474.45,869.92s-.76,16.47,9.11,19.69c9.88,3.22-10.17,38.77-8.6,62.77,1.57,24,12.2,33.64,12.2,33.64,0,0-5.1-13.21-2.25-21.37,0,0-.45,16.98,11.95,25.55,12.4,8.57,9.07,15.97,9.07,15.97,0,0,28.03-8.39,28.81-29.42,0,0,1.2,9.5.23,13.44,0,0,24.2-18.17,25.35-39.11,1.16-20.94-19.05-38.61-28.26-38.93-9.2-.32-29.73-18.39-29.18-25.22.55-6.83-28.43-17.02-28.43-17.02Z"/>
        <path class="cls-22" d="m474.58,1421.59s33.29,21.01,38.17,20.82c11.42-.43,33.97-25.38,52.75-13.84,18.77,11.54,37.16,30.76,30.66,38.45-6.5,7.69-28.55-1.38-39.12.15-10.58,1.54-36.65,14.5-55.04,8.4-17.69-5.86-55.9-29.98-55.9-29.98l28.5-24.01Z"/>
        <path class="cls-25" d="m433.66,1040.39s-123.93,146.37-164.94,228.82c0,0,49.31,107.36,209.16,194.58,0,0,7.1-1.55,17.95-9.3,16.91-12.08-1.83-20.93-5.53-23.32-40.56-26.28-111.42-139.43-113.47-149.25-2.05-9.82,88.81-97.88,116.43-130.44,27.61-32.56-16.67-127.87-59.6-111.1Z"/>
        <path class="cls-1" d="m433.66,1040.39l-55.67,54.38s12.71,80.31,96.97,90.8c0,0,69.16-55.37,27.84-113.04-41.32-57.68-69.13-32.14-69.13-32.14Z"/>
        <path class="cls-22" d="m512.75,1442.41s1.88-8.09,9.03-11.27c7.15-3.19,13.81-10.13,14.39-8.1.58,2.02,1.03,5.41-2.67,9.51-3.7,4.1-10,10.97-20.75,9.87Z"/>
      </g>
      <g>
        <path class="cls-23" d="m1331.69,771.36s-26.68-75.81-28.1-95.5c-1.43-19.7,7.43-76.5,73.06-82.56,65.63-6.06,90.06-13.06,90.06-13.06l-12.5,14.77s18.25-5.68,37.25,6.82c18.99,12.5,28.65,49.42,25.81,81.23-2.84,31.82-27.69,66.83-28.04,79.99-.35,13.16-157.54,8.32-157.54,8.32Z"/>
        <path class="cls-3" d="m1152.72,1557.94s-1.5,17.32-19.58,54.98c0,0-8.28,25.61,45.94,64.02,54.23,38.41,1.51-119,1.51-119h-27.87Z"/>
        <path class="cls-25" d="m1344.08,888.88s-30.41,162.83-63.6,332.92c-36.05,184.88-75.36,378.36-82.42,380.7-13.56,4.52-34.3-13.19-43.33-35.78-7.26-18.17-19.72-167.54-11.24-264.06,2.06-23.56,4.46-42.9,7.12-54.87,13.56-61.01,17.67-276.82,58.34-310.71,40.67-33.89,135.13-48.2,135.13-48.2Z"/>
        <path class="cls-1" d="m1344.08,888.88s-17.53,93.84-40.49,213.46c-7.28,37.96-15.11,78.5-23.11,119.47-32.51,63.72-60.4,107.04-69.02,98.89-17.58-16.6-48.44-18.65-67.98-18.03,2.06-23.56,4.46-42.9,7.12-54.87,1.07-4.82,2.08-10.6,3.06-17.19,11.37-76.76,17.82-262.31,55.28-293.52,40.67-33.89,135.13-48.2,135.13-48.2Z"/>
        <path class="cls-1" d="m1303.59,1102.34c-7.28,37.96-15.11,78.5-23.11,119.47-32.51,63.72-60.4,107.04-69.02,98.89-17.58-16.6-48.44-18.65-67.98-18.03,2.06-23.56,4.46-42.9,7.12-54.87,1.07-4.82,2.08-10.6,3.06-17.19l97.46-235.27,52.46,107.01Z"/>
        <path class="cls-16" d="m1478.98,886.48c.72-32.84.18-72.05-4.26-105.18l-131.08,21.42s0,40,.57,84.39c-.08,0-.13.02-.13.02,0,0-3.58,41.17,47.14,47.2,50.71,6.02,89.13-16.07,87.76-47.85Z"/>
        <path class="cls-9" d="m1343.27,810.81s30.88,63.26,66.28,63.26,68.54-59.5,68.54-59.5l-134.82-3.77Z"/>
        <path class="cls-16" d="m1347.53,815.5c12.74,10.02,50.08,19.97,60.88,21.14,0,0,55.38-12.35,65.45-18.42,15.59-9.45,14.59-28.58,15.39-55.17.96-31.48,4.13-56.2.61-74.34-4.18-21.71-17.94-34.06-56.47-37.41-70.74-6.14-100.21,11.57-101.44,35.29-.32,6.37-.61,12.44-.82,18.19-2.83,73.96,3.01,100.19,16.41,110.73Z"/>
        <path class="cls-29" d="m1350.56,2064.77c-3.13,17.26-5.12,31.42-5.65,41.57-7.15,139.56-117.48,458.66-137.21,466.1-30.53,11.52-78.62-12.97-103.77-20.99-10.43-3.33-17.46-13.84-15.14-24.51,54.63-251.16,74.71-612.83,82.02-826.95,3.69-107.85,22.2-182.35,22.2-182.35,0,0,269.07-71.79,270.67,19.02,1.41,80.36-89.13,395.53-113.13,528.1Z"/>
        <path class="cls-27" d="m1350.56,2064.77l-179.75-364.77c3.69-107.85,22.2-182.35,22.2-182.35,0,0,269.07-71.79,270.67,19.02,1.41,80.36-89.13,395.53-113.13,528.1Z"/>
        <path class="cls-29" d="m1290.69,1536.99l142.24,1030.93s62.47,15.06,111.05,3.01c0,0,41.64-548.3,38.17-680.86-3.47-132.56,29.89-354.69-7.61-379.19-37.5-24.5-283.85,26.1-283.85,26.1Z"/>
        <path class="cls-11" d="m1594.99,1510.88c.47,11.95-8.99,21.9-20.93,22.08l-224.15,3.42-164.64,2.52c-7.71.14,16.66-61.55,17.16-463.73.12-89.75,139.06-186.32,141.62-186.32l.03.03c0,12.92,20.36,36.79,51.74,38.83,37.24,2.44,82.92-16.08,82.92-37.54,0-.24,4.32,4.45,11.28,14.57,18.59,27.08,56.03,93.12,79.94,208.08,18.88,90.79,11.62,212.17,25.2,368.78.99,11.31-.47,21.36-.18,29.28Z"/>
        <path class="cls-1" d="m1586.72,1534.22s-29.79,13.34-85.53,24.9c-41.44,8.6-97.2,16.22-165.71,16.65-108.95.69-150.21-36.86-150.21-36.86-7.71.14,16.66-61.55,17.16-463.73.12-89.75,139.06-186.32,141.62-186.32l.03.03s-3.57,119.51,32.58,154.65c0,0,50.7-39.16,116.49-150.63,18.59,27.09,52.91,104.96,76.82,219.92,4.85,23.39,7.98,48.8,10.19,76.32,6.34,79.32,4.92,176.18,15.02,292.45.99,11.31-.47,21.36-.18,29.28.47,11.95,3.67,23.15-8.27,23.33Z"/>
        <path class="cls-14" d="m1586.72,1534.22s-29.79,13.34-85.53,24.9c-17.53-26.74-39.63-75-42.69-151.05-5.18-128.61,116.99-294.23,116.99-294.23l4.66,75.32c6.34,79.32,4.92,176.18,15.02,292.45.99,11.31-.47,21.36-.18,29.28.47,11.95,3.67,23.15-8.27,23.33Z"/>
        <rect class="cls-29" x="1339.01" y="1136.75" width="240.46" height="329.85" transform="translate(-455.34 904.02) rotate(-30)"/>
        <path class="cls-16" d="m1678.42,1365.88s-42.64,4.16-115.55-3.33c-52.6-5.41-120.96-16.88-200.4-40.35l23.23-39.66s94.96-4.19,164.5-14.37c17.33-2.53,33.07-5.44,45.37-8.74,15.12-4.05-59.94-194.28-97.8-306.16-9.04-26.69-15.96-48.93-19.02-63.1,0,0,6.61,1.07,17.01,3.12,29.48,5.82,89.38,19.49,114.89,38.77,34.49,26.08,120.59,320.15,67.78,433.82Z"/>
        <path class="cls-3" d="m1386.55,1282.54s-32.17-30.13-44.6-30.13-48.26,13.05-51.92,23.1c-3.65,10.04-5.11,28.12,5.12,32.13,10.24,4.02,52.65,14.06,63.61,15.06,10.97,1,38.02-5.02,27.79-40.17Z"/>
        <path class="cls-1" d="m1678.42,1365.88s-42.64,4.16-115.55-3.33c4.02-19.81,7.76-58.49-12.67-94.39,17.33-2.53,33.07-5.44,45.37-8.74,15.12-4.05-59.94-194.28-97.8-306.16-3.03-36.17-4.62-60.38-4.62-60.38l2.61.39c29.48,5.82,89.38,19.49,114.89,38.77,34.49,26.08,120.59,320.15,67.78,433.82Z"/>
        <path class="cls-2" d="m1376.66,1043.53s101.43-44.69,102.93-48.2c1.51-3.52-5.02-30.63-12.05-38.66,0,0,48.7,4.52,51.71-1.51,3.01-6.02,4.02-56.24,4.02-56.24,0,0-19.08-20.08-44.19-22.09,0,0-21.98,54.51-30.12,70.8-21.59,43.18-72.3,95.9-72.3,95.9Z"/>
        <path class="cls-2" d="m1352.56,955.16s6.53,52.22,24.1,88.37c0,0-52.97-36.9-57.49-48.95-4.52-12.05,12.8-35.4,12.8-35.4,0,0-31.63-.75-32.39-11.3-.75-10.54,9.79-51.97,9.79-51.97,0,0,27.21-19.87,34.74-19.11l8.44,78.36Z"/>
        <path class="cls-23" d="m1330.48,728.48s2.74-47.14,31.99-47.7c29.26-.57,80.13-3.42,101.28-23.3,21.14-19.87-125.65-10.79-125.65-10.79,0,0-17.75,56.78-7.62,81.79Z"/>
        <path class="cls-23" d="m1447.97,664.49s38.13,15.53,43.5,39.77c0,0,12.55-89.38-43.5-39.77Z"/>
      </g>
      <g>
        <path class="cls-26" d="m933.09,874.92s-78.75-3.95-80.97-49.39c-2.21-45.44-67.25-78.59-48.42-115.07,23.1-44.75,2.03-87.76,31.2-117.84,32.13-33.15,72.74-15.14,94.16-34.46,21.42-19.32,60.6-37.11,99.22-13.26,38.63,23.86,68.12,11.02,93.51,33.99,28.05,25.39,17.42,57.35,40.56,74.7,21.21,15.91,12.56,59.37-5.3,94.68-12.88,25.45,16.8,49.31-34.14,78.56-21.2,12.17-16.6,42.81-80.99,48.09-29,2.38-91.92-11.2-108.83,0Z"/>
        <path class="cls-25" d="m935.44,834.61s-2.29,71.01-11.38,102.82l-71.94,50.18,270.78,40.52-64.58-89.22s-19.5-95.21-9.27-130.43c10.23-35.22-113.61,26.13-113.61,26.13Z"/>
        <path class="cls-19" d="m935.04,844.42s21.41,51.54,61.74,50.41c40.33-1.14,49.51-46.74,49.51-46.74l-111.26-3.67Z"/>
        <path class="cls-25" d="m992.17,874.91c-29.23-.51-83.01-39.43-83.01-87.62v-75.2c0-17.6,12.27-32,27.27-32h111.49c15,0,27.27,14.4,27.27,32v70.94c0,50.53-49.5,92.47-83.01,91.87Z"/>
        <path class="cls-11" d="m790.98,1520.12s11.4,348.01-5.65,546.58c-17.04,198.57.12,474.91.12,474.91,0,0,54.5,30.05,113.58,0,0,0,64.79-383.61,64.38-474.91-.44-97.23,70.52-531.41,70.52-531.41l-242.96-15.17Z"/>
        <path class="cls-11" d="m1194.05,2541.6s-54.49,30.06-113.57,0c0,0-64.78-383.61-64.37-474.91.18-41.06-12.36-142.25-26.93-245.41-19.93-141.13-43.6-285.99-43.6-285.99l252.38-15.77s-20.81,348.62-3.77,547.17c17.04,198.58-.14,474.91-.14,474.91Z"/>
        <path class="cls-10" d="m1150.37,955.75v.15c-32.76-8.25-63.56-13.67-92.05-16.99-25.13,33.38-43.17,41.13-66.15,50.22-36.97-5.11-68.12-50.65-68.12-51.69-40.28,4.13-67.44,11.52-78.49,14.95-2.19.26-120.33,15.87-287.54,356.23,0,0,9,31.34,52.85,85.99,31.2,38.86,80.08,89.53,155.88,149.09,0,0,7.16-15.29,13.68-40.04,0,0-45.06-87.68-72.19-147.06-13.18-28.9-22.13-51.08-19.56-53.21,4.88-4.06,59.39-51.38,99.64-86.35-.32,8.74-.41,16.69-.21,23.59,2.18,76.03,5.25,149.93-4.55,231.77-12.89,107.55,8.93,105.64,8.93,105.64,0,0,29.36,5.75,70.3,11.18,37.04,4.95,83.55,9.65,126.36,9.65,98.16,0,205.75-20.83,205.75-20.83,30.97.39-8.68-192.71-14.47-308.9-1.34-26.98-2.59-51.61-3.76-74.11,37,32.13,118.94,103.33,124.98,108.36,2.57,2.13-6.38,24.31-19.57,53.21-27.13,59.38-72.19,147.06-72.19,147.06,6.52,24.75,13.68,40.04,13.68,40.04,75.8-59.56,124.68-110.23,155.88-149.09,43.86-54.65,52.85-85.99,52.85-85.99-168.79-343.57-281.97-352.86-281.97-352.86Z"/>
        <path class="cls-15" d="m862.82,1589.19c-40.95-5.43-70.3-11.18-70.3-11.18,0,0-21.81,1.91-8.93-105.64,9.79-81.84,6.73-155.74,4.55-231.77-.25-8.45-.07-18.45.45-29.59,6.27,10.04,76.17,122.93,94.98,206.82,13.7,61.19-6.95,133.27-20.74,171.35Z"/>
        <path class="cls-17" d="m1016.11,2066.69c.18-41.06-12.36-142.25-26.93-245.41,15.11-61.63,51.92-120.93,51.92-120.93,46.58,130.66-24.99,366.34-24.99,366.34Z"/>
        <path class="cls-25" d="m771.46,1507.97s40.9-37.87,57.56-16.66c16.66,21.21,19.69,54.53,6.82,52.26-12.88-2.28-39.39-14.39-43.17-8.33-3.79,6.06-20.75,17.64-25.9,8.44-5.15-9.2,4.7-35.71,4.7-35.71Z"/>
        <path class="cls-25" d="m780.44,1503.64c-6.52,24.74-13.68,40.04-13.68,40.04-75.8-59.56-124.68-110.23-155.88-149.09,23.52-1.75,57.85-10.16,97.37-38.02,27.13,59.38,72.19,147.07,72.19,147.07Z"/>
        <path class="cls-25" d="m1218.91,1507.97s-40.9-37.87-57.56-16.66c-16.66,21.21-19.7,54.53-6.82,52.26,12.87-2.28,39.39-14.39,43.17-8.33,3.79,6.06,20.75,17.64,25.9,8.44,5.15-9.2-4.7-35.71-4.7-35.71Z"/>
        <path class="cls-25" d="m1209.92,1503.64c6.52,24.74,13.68,40.04,13.68,40.04,75.8-59.56,124.68-110.23,155.88-149.09-23.52-1.75-57.85-10.16-97.37-38.02-27.13,59.38-72.19,147.07-72.19,147.07Z"/>
        <path class="cls-15" d="m1301.68,1303.36c-6.07-5.04-88.57-76.74-125.39-108.7,0,0,36.75-27.54,59.47,12.61,22.72,40.15,65.92,96.1,65.92,96.1Z"/>
        <path class="cls-15" d="m1432.34,1308.61s-9,31.34-52.85,85.99c-50.76-.7,52.85-85.99,52.85-85.99Z"/>
        <path class="cls-26" d="m909.15,742.58s20.28-61.92,86.75-52.26c66.46,9.66,72.22,23.86,79.28,40.33,7.07,16.47,20.7-60.22,20.7-60.22l-78.39-23.29s-94.87,10.79-101.69,26.7l-6.82,15.91.17,52.83Z"/>
      </g>
    </g>
  </g>
  <g>
    <g>
      <path class="cls-13" d="m967.76,772.54c0,3.98-3.23,7.21-7.21,7.21s-7.21-3.23-7.21-7.21,3.23-7.21,7.21-7.21,7.21,3.23,7.21,7.21Z"/>
      <path class="cls-13" d="m1034.5,772.54c0,3.98-3.23,7.21-7.21,7.21s-7.21-3.23-7.21-7.21,3.23-7.21,7.21-7.21,7.21,3.23,7.21,7.21Z"/>
    </g>
    <path class="cls-7" d="m990.31,788.24v9.73c.01,2.45,2.19,4.29,4.52,3.8l5.17-1.09"/>
    <path class="cls-13" d="m981.97,750.21l-43.69,5.25s3.51-11.59,21.36-13.58c17.85-1.99,22.33,8.33,22.33,8.33Z"/>
    <path class="cls-13" d="m1007.16,750.21l43.69,5.25s-3.51-11.59-21.36-13.58c-17.85-1.99-22.33,8.33-22.33,8.33Z"/>
    <path class="cls-1" d="m972.09,812.92h44.1s.75,16.42-22.11,15.45c-22.86-.97-21.99-15.45-21.99-15.45Z"/>
  </g>
  <g>
    <g>
      <path class="cls-13" d="m1384.06,742.98c0,3.98-3.23,7.21-7.21,7.21s-7.21-3.23-7.21-7.21,3.23-7.21,7.21-7.21,7.21,3.23,7.21,7.21Z"/>
      <path class="cls-13" d="m1450.8,742.98c0,3.98-3.23,7.21-7.21,7.21s-7.21-3.23-7.21-7.21,3.23-7.21,7.21-7.21,7.21,3.23,7.21,7.21Z"/>
    </g>
    <path class="cls-7" d="m1406.6,758.68v9.73c.01,2.45,2.19,4.29,4.52,3.8l5.17-1.09"/>
    <path class="cls-13" d="m1398.27,720.64l-43.69,5.25s3.51-11.59,21.36-13.58c17.85-1.99,22.33,8.33,22.33,8.33Z"/>
    <path class="cls-13" d="m1423.46,720.64l43.69,5.25s-3.51-11.59-21.36-13.58c-17.85-1.99-22.33,8.33-22.33,8.33Z"/>
    <path class="cls-1" d="m1388.39,783.36h44.1s.75,16.42-22.11,15.45c-22.86-.97-21.99-15.45-21.99-15.45Z"/>
  </g>
</svg>