<?xml version="1.0" encoding="UTF-8"?>
<svg id="Layer_1" data-name="Layer 1" xmlns="http://www.w3.org/2000/svg" xmlns:xlink="http://www.w3.org/1999/xlink" viewBox="0 0 2000 2000">
  <defs>
    <style>
      .cls-1 {
        fill: #ddd;
      }

      .cls-2 {
        fill: #fff;
      }

      .cls-3, .cls-4 {
        fill: none;
      }

      .cls-3, .cls-5 {
        stroke: #000;
        stroke-miterlimit: 10;
      }

      .cls-6 {
        opacity: .5;
      }

      .cls-7 {
        fill: #15173f;
      }

      .cls-8 {
        opacity: .2;
      }

      .cls-9 {
        fill: #dadce0;
      }

      .cls-10 {
        opacity: .35;
      }

      .cls-11 {
        fill: #141a46;
      }

      .cls-12 {
        fill: #ffb359;
      }

      .cls-13 {
        clip-path: url(#clippath-1);
      }

      .cls-14 {
        opacity: .15;
      }

      .cls-15 {
        fill: #fbfbfb;
      }

      .cls-16 {
        clip-path: url(#clippath);
      }

      .cls-17 {
        fill: #ed985f;
      }

      .cls-18 {
        fill: #fcd590;
      }

      .cls-19 {
        fill: #96b1cc;
      }

      .cls-20, .cls-5 {
        fill: #e2e6ed;
      }

      .cls-21 {
        fill: #f8ba8c;
      }

      .cls-22 {
        fill: #233862;
      }

      .cls-23 {
        fill: #0b5b07;
      }

      .cls-24 {
        fill: #2b478b;
      }

      .cls-25 {
        fill: #a1c9de;
      }

      .cls-26 {
        fill: #d1edfc;
      }
    </style>
    <clipPath id="clippath">
      <path class="cls-4" d="m1737-1507.29c0,114.46-26.09,222.82-72.65,319.47-119.02,247.05-371.77,417.53-664.35,417.53s-545.33-170.48-664.35-417.53c-46.56-96.65-72.65-205.01-72.65-319.47,0-407.03,329.97-737,737-737s737,329.97,737,737Z"/>
    </clipPath>
    <clipPath id="clippath-1">
      <path class="cls-4" d="m1737,1000c0,114.46-26.09,222.82-72.65,319.47-119.02,247.05-371.77,417.53-664.35,417.53s-545.33-170.48-664.35-417.53c-46.56-96.65-72.65-205.01-72.65-319.47,0-407.03,329.97-737,737-737s737,329.97,737,737Z"/>
    </clipPath>
  </defs>
  <g class="cls-16">
    <g>
      <g>
        <path class="cls-24" d="m840.01,58.96l-34.27,12.76s-148.88-206.49-167.21-388.16c-3.27-32.43-2.18-63.86,4.9-92.88,0,0-1.45-8.31-4-23-1.18-6.86-2.63-15.11-4.28-24.57-4.84-27.73-11.5-65.68-19.11-108.89-17.52-99.43-40.21-226.53-57.85-319.97l9.24-2.97,99.93-32.24,20.65-65.59,74.41-19.59s16.62,32.52,31.48,186.12c2.74,20.15,5.24,42.37,7.11,66.46,5.79,73.54,6.21,164.77-7.08,269.07-3.41,26.7-7.73,54.26-13.07,82.58-3.92,20.76-4.5,49.05-2.85,81.55,7.5,148.51,62.01,379.31,62.01,379.31Z"/>
        <path class="cls-22" d="m947.28,116.5h-172.64s-6.46-27.53,4.88-46.27c10.03-16.58,6.19-26.02-1.24-39.74,7.82,3.2,17.93,6.11,29.08,5.47,8.6-.5,17.7-4.4,25.67-9.03,7.43,8.47,39.25,44.53,49.19,51.67,11.28,8.1,61.59,5.22,65.06,37.89Z"/>
        <path class="cls-23" d="m761.73-999.41l15.61-6.73-15.33-232.58s-14.9-105.75-15.13-124.24c-.22-18.48-15.15-27.49-15.15-27.49,0,0-109.53,5.78-140.4,7.51-30.87,1.74-27.77,19.31-27.77,19.31,0,0,13.46,56.19,14.82,61.98,20.78,88.32-98.07,142.27-98.07,142.27,0,0-19.28,49.89-34.24,97.68-25.64,81.93-2.74,199.48-2.74,199.48,3.89,62.44,11,327.75,18.42,406.26,2.68,28.46,5.03,48.7,5.99,56.79.02.04.02.06.02.08.29,2.47-.57,4.8-1.82,6.95-10.93,18.54-19.97,37.86-27.4,57.61-72.85,194.13,11.22,433.2,11.22,433.2l21.81-8.79s47.84-266.06,86.72-383.6c6.6-19.93,12.92-35.6,18.72-44.96,16.9-27.28,32.59-71.85,46.82-124.86,26.91-100.23,48.57-230.61,62.98-331.25,1.99.09,22.71-141.06,74.65-203.28.46-.56.53-1,.25-1.35Z"/>
        <path class="cls-22" d="m576.61,116.5h-172.64s-4.14-26.31,4.88-46.27c8.64-19.15,22.17-27.86,18.93-51.03,10.97,11.3,28.85,23.94,53.81,20.58,3.06,4.96,19.74,31.49,29.95,38.83,11.28,8.1,61.59,5.22,65.07,37.89Z"/>
      </g>
      <g>
        <path class="cls-22" d="m1430.63,116.86s4.77-37.16,15.82-59.25c11.05-22.09,81.34-8.03,81.34-8.03,0,0,14.06,12.05,17.07,68.29l-114.23-1Z"/>
        <path class="cls-22" d="m1191.14,116.36c16.52-10.08,7.12-85.29,7.12-85.29,0,0-76.97-61.57-87.55-14.43-10.58,47.14-73.12,68.31-108.71,74.08-24.57,3.98-32.18,17.59-34.54,25.64h223.68Z"/>
        <path class="cls-24" d="m1350.56-442.53c-3.13,17.26-5.12,31.42-5.65,41.57-7.15,139.56-117.48,458.66-137.21,466.1-30.53,11.52-78.62-12.97-103.77-20.99-10.43-3.33-17.46-13.84-15.14-24.51,54.63-251.16,74.71-612.83,82.02-826.95,3.69-107.85,22.2-182.35,22.2-182.35,0,0,269.07-71.79,270.67,19.02,1.41,80.36-89.13,395.53-113.13,528.1Z"/>
        <path class="cls-24" d="m1290.69-970.31L1432.93,60.63s62.47,15.06,111.05,3.01c0,0,41.64-548.3,38.17-680.86-3.47-132.56,29.89-354.69-7.61-379.19-37.5-24.5-283.85,26.1-283.85,26.1Z"/>
      </g>
      <g>
        <path class="cls-22" d="m782.82,117.2s0-31.89,4.54-42.49c4.55-10.6,21.21-53.78,21.21-53.78h65.14s12.12,39.39,12.87,52.26c.76,12.88,0,44.01,0,44.01h-103.77Z"/>
        <path class="cls-22" d="m1196.4,117.2s0-31.89-4.54-42.49c-4.55-10.6-21.21-53.78-21.21-53.78h-65.14s-12.12,39.39-12.87,52.26c-.76,12.88,0,44.01,0,44.01h103.77Z"/>
        <path class="cls-12" d="m790.98-987.18s11.4,348.01-5.65,546.58c-17.04,198.57.12,474.91.12,474.91,0,0,54.5,30.05,113.58,0,0,0,64.79-383.61,64.38-474.91-.44-97.23,70.52-531.41,70.52-531.41l-242.96-15.17Z"/>
        <path class="cls-12" d="m1194.05,34.31s-54.49,30.06-113.57,0c0,0-64.78-383.61-64.37-474.91.18-41.06-12.36-142.25-26.93-245.41-19.93-141.13-43.6-285.99-43.6-285.99l252.38-15.77s-20.81,348.62-3.77,547.17c17.04,198.58-.14,474.91-.14,474.91Z"/>
      </g>
    </g>
  </g>
  <g class="cls-13">
    <path class="cls-26" d="m1737,1000c0,114.46-26.09,222.82-72.65,319.47-119.02,247.05-371.77,417.53-664.35,417.53s-545.33-170.48-664.35-417.53c-46.56-96.65-72.65-205.01-72.65-319.47,0-407.03,329.97-737,737-737s737,329.97,737,737Z"/>
    <g class="cls-8">
      <g>
        <g>
          <path class="cls-15" d="m402.84,289.32l-14.89,4.85-3.91-20.34,24.54-9.69h12.83v113.84h-18.56v-88.65Z"/>
          <path class="cls-15" d="m463.65,321.45c0-32.78,15.38-58.45,38.09-58.45s37.86,25.35,37.86,58.45-15.27,58.45-38.1,58.45-37.85-25.36-37.85-58.45Zm56.65,0c0-20.51-7.57-36.01-18.8-36.01s-18.56,15.02-18.56,36.01,7.45,36,18.81,36,18.56-15.18,18.56-36Z"/>
          <path class="cls-15" d="m577.21,321.45c0-32.78,15.39-58.45,38.09-58.45s37.86,25.35,37.86,58.45-15.27,58.45-38.1,58.45-37.85-25.36-37.85-58.45Zm56.66,0c0-20.51-7.57-36.01-18.8-36.01s-18.56,15.02-18.56,36.01,7.45,36,18.8,36,18.56-15.18,18.56-36Z"/>
          <path class="cls-15" d="m705.31,289.32l-14.9,4.85-3.91-20.34,24.55-9.69h12.82v113.84h-18.56v-88.65Z"/>
          <path class="cls-15" d="m1222.24,289.32l-14.89,4.85-3.91-20.34,24.54-9.69h12.82v113.84h-18.56v-88.65Z"/>
          <path class="cls-15" d="m1283.04,321.45c0-32.78,15.38-58.45,38.1-58.45s37.85,25.35,37.85,58.45-15.27,58.45-38.09,58.45-37.86-25.36-37.86-58.45Zm56.66,0c0-20.51-7.57-36.01-18.8-36.01s-18.56,15.02-18.56,36.01,7.45,36,18.8,36,18.56-15.18,18.56-36Z"/>
          <path class="cls-15" d="m1396.6,321.45c0-32.78,15.39-58.45,38.1-58.45s37.85,25.35,37.85,58.45-15.26,58.45-38.09,58.45-37.86-25.36-37.86-58.45Zm56.66,0c0-20.51-7.58-36.01-18.81-36.01s-18.56,15.02-18.56,36.01,7.45,36,18.8,36,18.56-15.18,18.56-36Z"/>
          <path class="cls-15" d="m1524.69,289.32l-14.9,4.85-3.91-20.34,24.55-9.69h12.82v113.84h-18.56v-88.65Z"/>
          <path class="cls-15" d="m766.11,321.45c0-32.78,15.38-58.45,38.1-58.45s37.85,25.35,37.85,58.45-15.26,58.45-38.09,58.45-37.85-25.36-37.85-58.45Zm56.66,0c0-20.51-7.57-36.01-18.81-36.01s-18.56,15.02-18.56,36.01,7.45,36,18.81,36,18.56-15.18,18.56-36Z"/>
          <path class="cls-15" d="m879.67,321.45c0-32.78,15.38-58.45,38.1-58.45s37.85,25.35,37.85,58.45-15.27,58.45-38.09,58.45-37.85-25.36-37.85-58.45Zm56.66,0c0-20.51-7.57-36.01-18.81-36.01s-18.56,15.02-18.56,36.01,7.45,36,18.81,36,18.56-15.18,18.56-36Z"/>
          <path class="cls-15" d="m993.23,321.45c0-32.78,15.38-58.45,38.1-58.45s37.85,25.35,37.85,58.45-15.27,58.45-38.1,58.45-37.85-25.36-37.85-58.45Zm56.66,0c0-20.51-7.57-36.01-18.81-36.01s-18.56,15.02-18.56,36.01,7.45,36,18.81,36,18.56-15.18,18.56-36Z"/>
          <path class="cls-15" d="m1106.79,321.45c0-32.78,15.38-58.45,38.1-58.45s37.85,25.35,37.85,58.45-15.26,58.45-38.09,58.45-37.85-25.36-37.85-58.45Zm56.65,0c0-20.51-7.57-36.01-18.8-36.01s-18.56,15.02-18.56,36.01,7.45,36,18.81,36,18.56-15.18,18.56-36Z"/>
        </g>
        <g>
          <path class="cls-15" d="m402.84,659.2l-14.89,4.85-3.91-20.34,24.54-9.69h12.83v113.85h-18.56v-88.65Z"/>
          <path class="cls-15" d="m463.65,691.34c0-32.78,15.38-58.45,38.09-58.45s37.86,25.35,37.86,58.45-15.27,58.45-38.1,58.45-37.85-25.35-37.85-58.45Zm56.65,0c0-20.5-7.57-36.01-18.8-36.01s-18.56,15.02-18.56,36.01,7.45,36.01,18.81,36.01,18.56-15.18,18.56-36.01Z"/>
          <path class="cls-15" d="m577.21,691.34c0-32.78,15.39-58.45,38.09-58.45s37.86,25.35,37.86,58.45-15.27,58.45-38.1,58.45-37.85-25.35-37.85-58.45Zm56.66,0c0-20.5-7.57-36.01-18.8-36.01s-18.56,15.02-18.56,36.01,7.45,36.01,18.8,36.01,18.56-15.18,18.56-36.01Z"/>
          <path class="cls-15" d="m705.31,659.2l-14.9,4.85-3.91-20.34,24.55-9.69h12.82v113.85h-18.56v-88.65Z"/>
          <path class="cls-15" d="m1222.24,659.2l-14.89,4.85-3.91-20.34,24.54-9.69h12.82v113.85h-18.56v-88.65Z"/>
          <path class="cls-15" d="m1283.04,691.34c0-32.78,15.38-58.45,38.1-58.45s37.85,25.35,37.85,58.45-15.27,58.45-38.09,58.45-37.86-25.35-37.86-58.45Zm56.66,0c0-20.5-7.57-36.01-18.8-36.01s-18.56,15.02-18.56,36.01,7.45,36.01,18.8,36.01,18.56-15.18,18.56-36.01Z"/>
          <path class="cls-15" d="m1396.6,691.34c0-32.78,15.39-58.45,38.1-58.45s37.85,25.35,37.85,58.45-15.26,58.45-38.09,58.45-37.86-25.35-37.86-58.45Zm56.66,0c0-20.5-7.58-36.01-18.81-36.01s-18.56,15.02-18.56,36.01,7.45,36.01,18.8,36.01,18.56-15.18,18.56-36.01Z"/>
          <path class="cls-15" d="m1524.69,659.2l-14.9,4.85-3.91-20.34,24.55-9.69h12.82v113.85h-18.56v-88.65Z"/>
          <path class="cls-15" d="m766.11,691.34c0-32.78,15.38-58.45,38.1-58.45s37.85,25.35,37.85,58.45-15.26,58.45-38.09,58.45-37.85-25.35-37.85-58.45Zm56.66,0c0-20.5-7.57-36.01-18.81-36.01s-18.56,15.02-18.56,36.01,7.45,36.01,18.81,36.01,18.56-15.18,18.56-36.01Z"/>
          <path class="cls-15" d="m879.67,691.34c0-32.78,15.38-58.45,38.1-58.45s37.85,25.35,37.85,58.45-15.27,58.45-38.09,58.45-37.85-25.35-37.85-58.45Zm56.66,0c0-20.5-7.57-36.01-18.81-36.01s-18.56,15.02-18.56,36.01,7.45,36.01,18.81,36.01,18.56-15.18,18.56-36.01Z"/>
          <path class="cls-15" d="m993.23,691.34c0-32.78,15.38-58.45,38.1-58.45s37.85,25.35,37.85,58.45-15.27,58.45-38.1,58.45-37.85-25.35-37.85-58.45Zm56.66,0c0-20.5-7.57-36.01-18.81-36.01s-18.56,15.02-18.56,36.01,7.45,36.01,18.81,36.01,18.56-15.18,18.56-36.01Z"/>
          <path class="cls-15" d="m1106.79,691.34c0-32.78,15.38-58.45,38.1-58.45s37.85,25.35,37.85,58.45-15.26,58.45-38.09,58.45-37.85-25.35-37.85-58.45Zm56.65,0c0-20.5-7.57-36.01-18.8-36.01s-18.56,15.02-18.56,36.01,7.45,36.01,18.81,36.01,18.56-15.18,18.56-36.01Z"/>
        </g>
        <g>
          <path class="cls-15" d="m789.28,474.36l-14.9,4.85-3.91-20.34,24.54-9.69h12.83v113.84h-18.56v-88.65Z"/>
          <path class="cls-15" d="m711.07,474.36l-14.89,4.85-3.9-20.34,24.54-9.69h12.83v113.84h-18.57v-88.65Z"/>
          <path class="cls-15" d="m850.09,506.49c0-32.78,15.38-58.45,38.09-58.45s37.85,25.36,37.85,58.45-15.26,58.46-38.09,58.46-37.85-25.36-37.85-58.46Zm56.65,0c0-20.51-7.57-36.01-18.81-36.01s-18.56,15.01-18.56,36.01,7.45,36.01,18.81,36.01,18.56-15.18,18.56-36.01Z"/>
          <path class="cls-15" d="m963.65,506.49c0-32.78,15.38-58.45,38.1-58.45s37.85,25.36,37.85,58.45-15.27,58.46-38.1,58.46-37.85-25.36-37.85-58.46Zm56.66,0c0-20.51-7.57-36.01-18.81-36.01s-18.56,15.01-18.56,36.01,7.45,36.01,18.81,36.01,18.56-15.18,18.56-36.01Z"/>
          <path class="cls-15" d="m1091.74,474.36l-14.89,4.85-3.91-20.34,24.54-9.69h12.83v113.84h-18.56v-88.65Z"/>
          <path class="cls-15" d="m1152.55,506.49c0-32.78,15.38-58.45,38.09-58.45s37.86,25.36,37.86,58.45-15.27,58.46-38.1,58.46-37.85-25.36-37.85-58.46Zm56.65,0c0-20.51-7.57-36.01-18.8-36.01s-18.56,15.01-18.56,36.01,7.45,36.01,18.81,36.01,18.56-15.18,18.56-36.01Z"/>
          <path class="cls-15" d="m1266.1,506.49c0-32.78,15.39-58.45,38.1-58.45s37.85,25.36,37.85,58.45-15.27,58.46-38.09,58.46-37.86-25.36-37.86-58.46Zm56.65,0c0-20.51-7.57-36.01-18.8-36.01s-18.56,15.01-18.56,36.01,7.44,36.01,18.8,36.01,18.56-15.18,18.56-36.01Z"/>
          <path class="cls-15" d="m1379.66,506.49c0-32.78,15.38-58.45,38.09-58.45s37.85,25.36,37.85,58.45-15.26,58.46-38.09,58.46-37.85-25.36-37.85-58.46Zm56.66,0c0-20.51-7.58-36.01-18.81-36.01s-18.56,15.01-18.56,36.01,7.44,36.01,18.8,36.01,18.56-15.18,18.56-36.01Z"/>
          <path class="cls-15" d="m375.16,506.49c0-32.78,15.38-58.45,38.1-58.45s37.85,25.36,37.85,58.45-15.26,58.46-38.09,58.46-37.85-25.36-37.85-58.46Zm56.65,0c0-20.51-7.57-36.01-18.8-36.01s-18.56,15.01-18.56,36.01,7.45,36.01,18.81,36.01,18.56-15.18,18.56-36.01Z"/>
          <path class="cls-15" d="m488.72,506.49c0-32.78,15.38-58.45,38.1-58.45s37.85,25.36,37.85,58.45-15.26,58.46-38.09,58.46-37.85-25.36-37.85-58.46Zm56.65,0c0-20.51-7.57-36.01-18.8-36.01s-18.56,15.01-18.56,36.01,7.45,36.01,18.81,36.01,18.56-15.18,18.56-36.01Z"/>
          <path class="cls-15" d="m602.27,506.49c0-32.78,15.38-58.45,38.1-58.45s37.85,25.36,37.85,58.45-15.27,58.46-38.1,58.46-37.85-25.36-37.85-58.46Zm56.65,0c0-20.51-7.57-36.01-18.8-36.01s-18.56,15.01-18.56,36.01,7.45,36.01,18.81,36.01,18.56-15.18,18.56-36.01Z"/>
          <path class="cls-15" d="m1493.22,506.49c0-32.78,15.39-58.45,38.09-58.45s37.86,25.36,37.86,58.45-15.27,58.46-38.1,58.46-37.85-25.36-37.85-58.46Zm56.66,0c0-20.51-7.58-36.01-18.81-36.01s-18.56,15.01-18.56,36.01,7.45,36.01,18.8,36.01,18.56-15.18,18.56-36.01Z"/>
        </g>
      </g>
      <g>
        <g>
          <path class="cls-15" d="m402.84,797.79l-14.89,4.85-3.91-20.34,24.54-9.69h12.83v113.84h-18.56v-88.65Z"/>
          <path class="cls-15" d="m463.65,829.93c0-32.78,15.38-58.45,38.09-58.45s37.86,25.35,37.86,58.45-15.27,58.45-38.1,58.45-37.85-25.36-37.85-58.45Zm56.65,0c0-20.51-7.57-36.01-18.8-36.01s-18.56,15.02-18.56,36.01,7.45,36,18.81,36,18.56-15.18,18.56-36Z"/>
          <path class="cls-15" d="m577.21,829.93c0-32.78,15.39-58.45,38.09-58.45s37.86,25.35,37.86,58.45-15.27,58.45-38.1,58.45-37.85-25.36-37.85-58.45Zm56.66,0c0-20.51-7.57-36.01-18.8-36.01s-18.56,15.02-18.56,36.01,7.45,36,18.8,36,18.56-15.18,18.56-36Z"/>
          <path class="cls-15" d="m705.31,797.79l-14.9,4.85-3.91-20.34,24.55-9.69h12.82v113.84h-18.56v-88.65Z"/>
          <path class="cls-15" d="m1222.24,797.79l-14.89,4.85-3.91-20.34,24.54-9.69h12.82v113.84h-18.56v-88.65Z"/>
          <path class="cls-15" d="m1283.04,829.93c0-32.78,15.38-58.45,38.1-58.45s37.85,25.35,37.85,58.45-15.27,58.45-38.09,58.45-37.86-25.36-37.86-58.45Zm56.66,0c0-20.51-7.57-36.01-18.8-36.01s-18.56,15.02-18.56,36.01,7.45,36,18.8,36,18.56-15.18,18.56-36Z"/>
          <path class="cls-15" d="m1396.6,829.93c0-32.78,15.39-58.45,38.1-58.45s37.85,25.35,37.85,58.45-15.26,58.45-38.09,58.45-37.86-25.36-37.86-58.45Zm56.66,0c0-20.51-7.58-36.01-18.81-36.01s-18.56,15.02-18.56,36.01,7.45,36,18.8,36,18.56-15.18,18.56-36Z"/>
          <path class="cls-15" d="m1524.69,797.79l-14.9,4.85-3.91-20.34,24.55-9.69h12.82v113.84h-18.56v-88.65Z"/>
          <path class="cls-15" d="m766.11,829.93c0-32.78,15.38-58.45,38.1-58.45s37.85,25.35,37.85,58.45-15.26,58.45-38.09,58.45-37.85-25.36-37.85-58.45Zm56.66,0c0-20.51-7.57-36.01-18.81-36.01s-18.56,15.02-18.56,36.01,7.45,36,18.81,36,18.56-15.18,18.56-36Z"/>
          <path class="cls-15" d="m879.67,829.93c0-32.78,15.38-58.45,38.1-58.45s37.85,25.35,37.85,58.45-15.27,58.45-38.09,58.45-37.85-25.36-37.85-58.45Zm56.66,0c0-20.51-7.57-36.01-18.81-36.01s-18.56,15.02-18.56,36.01,7.45,36,18.81,36,18.56-15.18,18.56-36Z"/>
          <path class="cls-15" d="m993.23,829.93c0-32.78,15.38-58.45,38.1-58.45s37.85,25.35,37.85,58.45-15.27,58.45-38.1,58.45-37.85-25.36-37.85-58.45Zm56.66,0c0-20.51-7.57-36.01-18.81-36.01s-18.56,15.02-18.56,36.01,7.45,36,18.81,36,18.56-15.18,18.56-36Z"/>
          <path class="cls-15" d="m1106.79,829.93c0-32.78,15.38-58.45,38.1-58.45s37.85,25.35,37.85,58.45-15.26,58.45-38.09,58.45-37.85-25.36-37.85-58.45Zm56.65,0c0-20.51-7.57-36.01-18.8-36.01s-18.56,15.02-18.56,36.01,7.45,36,18.81,36,18.56-15.18,18.56-36Z"/>
        </g>
        <g>
          <path class="cls-15" d="m402.84,1167.68l-14.89,4.85-3.91-20.34,24.54-9.69h12.83v113.85h-18.56v-88.65Z"/>
          <path class="cls-15" d="m463.65,1199.82c0-32.78,15.38-58.45,38.09-58.45s37.86,25.35,37.86,58.45-15.27,58.45-38.1,58.45-37.85-25.35-37.85-58.45Zm56.65,0c0-20.5-7.57-36.01-18.8-36.01s-18.56,15.02-18.56,36.01,7.45,36.01,18.81,36.01,18.56-15.18,18.56-36.01Z"/>
          <path class="cls-15" d="m577.21,1199.82c0-32.78,15.39-58.45,38.09-58.45s37.86,25.35,37.86,58.45-15.27,58.45-38.1,58.45-37.85-25.35-37.85-58.45Zm56.66,0c0-20.5-7.57-36.01-18.8-36.01s-18.56,15.02-18.56,36.01,7.45,36.01,18.8,36.01,18.56-15.18,18.56-36.01Z"/>
          <path class="cls-15" d="m705.31,1167.68l-14.9,4.85-3.91-20.34,24.55-9.69h12.82v113.85h-18.56v-88.65Z"/>
          <path class="cls-15" d="m1222.24,1167.68l-14.89,4.85-3.91-20.34,24.54-9.69h12.82v113.85h-18.56v-88.65Z"/>
          <path class="cls-15" d="m1283.04,1199.82c0-32.78,15.38-58.45,38.1-58.45s37.85,25.35,37.85,58.45-15.27,58.45-38.09,58.45-37.86-25.35-37.86-58.45Zm56.66,0c0-20.5-7.57-36.01-18.8-36.01s-18.56,15.02-18.56,36.01,7.45,36.01,18.8,36.01,18.56-15.18,18.56-36.01Z"/>
          <path class="cls-15" d="m1396.6,1199.82c0-32.78,15.39-58.45,38.1-58.45s37.85,25.35,37.85,58.45-15.26,58.45-38.09,58.45-37.86-25.35-37.86-58.45Zm56.66,0c0-20.5-7.58-36.01-18.81-36.01s-18.56,15.02-18.56,36.01,7.45,36.01,18.8,36.01,18.56-15.18,18.56-36.01Z"/>
          <path class="cls-15" d="m1524.69,1167.68l-14.9,4.85-3.91-20.34,24.55-9.69h12.82v113.85h-18.56v-88.65Z"/>
          <path class="cls-15" d="m766.11,1199.82c0-32.78,15.38-58.45,38.1-58.45s37.85,25.35,37.85,58.45-15.26,58.45-38.09,58.45-37.85-25.35-37.85-58.45Zm56.66,0c0-20.5-7.57-36.01-18.81-36.01s-18.56,15.02-18.56,36.01,7.45,36.01,18.81,36.01,18.56-15.18,18.56-36.01Z"/>
          <path class="cls-15" d="m879.67,1199.82c0-32.78,15.38-58.45,38.1-58.45s37.85,25.35,37.85,58.45-15.27,58.45-38.09,58.45-37.85-25.35-37.85-58.45Zm56.66,0c0-20.5-7.57-36.01-18.81-36.01s-18.56,15.02-18.56,36.01,7.45,36.01,18.81,36.01,18.56-15.18,18.56-36.01Z"/>
          <path class="cls-15" d="m993.23,1199.82c0-32.78,15.38-58.45,38.1-58.45s37.85,25.35,37.85,58.45-15.27,58.45-38.1,58.45-37.85-25.35-37.85-58.45Zm56.66,0c0-20.5-7.57-36.01-18.81-36.01s-18.56,15.02-18.56,36.01,7.45,36.01,18.81,36.01,18.56-15.18,18.56-36.01Z"/>
          <path class="cls-15" d="m1106.79,1199.82c0-32.78,15.38-58.45,38.1-58.45s37.85,25.35,37.85,58.45-15.26,58.45-38.09,58.45-37.85-25.35-37.85-58.45Zm56.65,0c0-20.5-7.57-36.01-18.8-36.01s-18.56,15.02-18.56,36.01,7.45,36.01,18.81,36.01,18.56-15.18,18.56-36.01Z"/>
        </g>
        <g>
          <path class="cls-15" d="m789.28,982.84l-14.9,4.85-3.91-20.34,24.54-9.69h12.83v113.84h-18.56v-88.65Z"/>
          <path class="cls-15" d="m711.07,982.84l-14.89,4.85-3.9-20.34,24.54-9.69h12.83v113.84h-18.57v-88.65Z"/>
          <path class="cls-15" d="m850.09,1014.97c0-32.78,15.38-58.45,38.09-58.45s37.85,25.36,37.85,58.45-15.26,58.46-38.09,58.46-37.85-25.36-37.85-58.46Zm56.65,0c0-20.51-7.57-36.01-18.81-36.01s-18.56,15.01-18.56,36.01,7.45,36.01,18.81,36.01,18.56-15.18,18.56-36.01Z"/>
          <path class="cls-15" d="m963.65,1014.97c0-32.78,15.38-58.45,38.1-58.45s37.85,25.36,37.85,58.45-15.27,58.46-38.1,58.46-37.85-25.36-37.85-58.46Zm56.66,0c0-20.51-7.57-36.01-18.81-36.01s-18.56,15.01-18.56,36.01,7.45,36.01,18.81,36.01,18.56-15.18,18.56-36.01Z"/>
          <path class="cls-15" d="m1091.74,982.84l-14.89,4.85-3.91-20.34,24.54-9.69h12.83v113.84h-18.56v-88.65Z"/>
          <path class="cls-15" d="m1152.55,1014.97c0-32.78,15.38-58.45,38.09-58.45s37.86,25.36,37.86,58.45-15.27,58.46-38.1,58.46-37.85-25.36-37.85-58.46Zm56.65,0c0-20.51-7.57-36.01-18.8-36.01s-18.56,15.01-18.56,36.01,7.45,36.01,18.81,36.01,18.56-15.18,18.56-36.01Z"/>
          <path class="cls-15" d="m1266.1,1014.97c0-32.78,15.39-58.45,38.1-58.45s37.85,25.36,37.85,58.45-15.27,58.46-38.09,58.46-37.86-25.36-37.86-58.46Zm56.65,0c0-20.51-7.57-36.01-18.8-36.01s-18.56,15.01-18.56,36.01,7.44,36.01,18.8,36.01,18.56-15.18,18.56-36.01Z"/>
          <path class="cls-15" d="m1379.66,1014.97c0-32.78,15.38-58.45,38.09-58.45s37.85,25.36,37.85,58.45-15.26,58.46-38.09,58.46-37.85-25.36-37.85-58.46Zm56.66,0c0-20.51-7.58-36.01-18.81-36.01s-18.56,15.01-18.56,36.01,7.44,36.01,18.8,36.01,18.56-15.18,18.56-36.01Z"/>
          <path class="cls-15" d="m375.16,1014.97c0-32.78,15.38-58.45,38.1-58.45s37.85,25.36,37.85,58.45-15.26,58.46-38.09,58.46-37.85-25.36-37.85-58.46Zm56.65,0c0-20.51-7.57-36.01-18.8-36.01s-18.56,15.01-18.56,36.01,7.45,36.01,18.81,36.01,18.56-15.18,18.56-36.01Z"/>
          <path class="cls-15" d="m488.72,1014.97c0-32.78,15.38-58.45,38.1-58.45s37.85,25.36,37.85,58.45-15.26,58.46-38.09,58.46-37.85-25.36-37.85-58.46Zm56.65,0c0-20.51-7.57-36.01-18.8-36.01s-18.56,15.01-18.56,36.01,7.45,36.01,18.81,36.01,18.56-15.18,18.56-36.01Z"/>
          <path class="cls-15" d="m602.27,1014.97c0-32.78,15.38-58.45,38.1-58.45s37.85,25.36,37.85,58.45-15.27,58.46-38.1,58.46-37.85-25.36-37.85-58.46Zm56.65,0c0-20.51-7.57-36.01-18.8-36.01s-18.56,15.01-18.56,36.01,7.45,36.01,18.81,36.01,18.56-15.18,18.56-36.01Z"/>
          <path class="cls-15" d="m1493.22,1014.97c0-32.78,15.39-58.45,38.09-58.45s37.86,25.36,37.86,58.45-15.27,58.46-38.1,58.46-37.85-25.36-37.85-58.46Zm56.66,0c0-20.51-7.58-36.01-18.81-36.01s-18.56,15.01-18.56,36.01,7.45,36.01,18.8,36.01,18.56-15.18,18.56-36.01Z"/>
        </g>
      </g>
      <g>
        <g>
          <path class="cls-15" d="m402.84,1306.27l-14.89,4.85-3.91-20.34,24.54-9.69h12.83v113.84h-18.56v-88.65Z"/>
          <path class="cls-15" d="m463.65,1338.41c0-32.78,15.38-58.45,38.09-58.45s37.86,25.35,37.86,58.45-15.27,58.45-38.1,58.45-37.85-25.36-37.85-58.45Zm56.65,0c0-20.51-7.57-36.01-18.8-36.01s-18.56,15.02-18.56,36.01,7.45,36,18.81,36,18.56-15.18,18.56-36Z"/>
          <path class="cls-15" d="m577.21,1338.41c0-32.78,15.39-58.45,38.09-58.45s37.86,25.35,37.86,58.45-15.27,58.45-38.1,58.45-37.85-25.36-37.85-58.45Zm56.66,0c0-20.51-7.57-36.01-18.8-36.01s-18.56,15.02-18.56,36.01,7.45,36,18.8,36,18.56-15.18,18.56-36Z"/>
          <path class="cls-15" d="m705.31,1306.27l-14.9,4.85-3.91-20.34,24.55-9.69h12.82v113.84h-18.56v-88.65Z"/>
          <path class="cls-15" d="m1222.24,1306.27l-14.89,4.85-3.91-20.34,24.54-9.69h12.82v113.84h-18.56v-88.65Z"/>
          <path class="cls-15" d="m1283.04,1338.41c0-32.78,15.38-58.45,38.1-58.45s37.85,25.35,37.85,58.45-15.27,58.45-38.09,58.45-37.86-25.36-37.86-58.45Zm56.66,0c0-20.51-7.57-36.01-18.8-36.01s-18.56,15.02-18.56,36.01,7.45,36,18.8,36,18.56-15.18,18.56-36Z"/>
          <path class="cls-15" d="m1396.6,1338.41c0-32.78,15.39-58.45,38.1-58.45s37.85,25.35,37.85,58.45-15.26,58.45-38.09,58.45-37.86-25.36-37.86-58.45Zm56.66,0c0-20.51-7.58-36.01-18.81-36.01s-18.56,15.02-18.56,36.01,7.45,36,18.8,36,18.56-15.18,18.56-36Z"/>
          <path class="cls-15" d="m1524.69,1306.27l-14.9,4.85-3.91-20.34,24.55-9.69h12.82v113.84h-18.56v-88.65Z"/>
          <path class="cls-15" d="m766.11,1338.41c0-32.78,15.38-58.45,38.1-58.45s37.85,25.35,37.85,58.45-15.26,58.45-38.09,58.45-37.85-25.36-37.85-58.45Zm56.66,0c0-20.51-7.57-36.01-18.81-36.01s-18.56,15.02-18.56,36.01,7.45,36,18.81,36,18.56-15.18,18.56-36Z"/>
          <path class="cls-15" d="m879.67,1338.41c0-32.78,15.38-58.45,38.1-58.45s37.85,25.35,37.85,58.45-15.27,58.45-38.09,58.45-37.85-25.36-37.85-58.45Zm56.66,0c0-20.51-7.57-36.01-18.81-36.01s-18.56,15.02-18.56,36.01,7.45,36,18.81,36,18.56-15.18,18.56-36Z"/>
          <path class="cls-15" d="m993.23,1338.41c0-32.78,15.38-58.45,38.1-58.45s37.85,25.35,37.85,58.45-15.27,58.45-38.1,58.45-37.85-25.36-37.85-58.45Zm56.66,0c0-20.51-7.57-36.01-18.81-36.01s-18.56,15.02-18.56,36.01,7.45,36,18.81,36,18.56-15.18,18.56-36Z"/>
          <path class="cls-15" d="m1106.79,1338.41c0-32.78,15.38-58.45,38.1-58.45s37.85,25.35,37.85,58.45-15.26,58.45-38.09,58.45-37.85-25.36-37.85-58.45Zm56.65,0c0-20.51-7.57-36.01-18.8-36.01s-18.56,15.02-18.56,36.01,7.45,36,18.81,36,18.56-15.18,18.56-36Z"/>
        </g>
        <g>
          <path class="cls-15" d="m402.84,1676.16l-14.89,4.85-3.91-20.34,24.54-9.69h12.83v113.85h-18.56v-88.65Z"/>
          <path class="cls-15" d="m463.65,1708.3c0-32.78,15.38-58.45,38.09-58.45s37.86,25.35,37.86,58.45-15.27,58.45-38.1,58.45-37.85-25.35-37.85-58.45Zm56.65,0c0-20.5-7.57-36.01-18.8-36.01s-18.56,15.02-18.56,36.01,7.45,36.01,18.81,36.01,18.56-15.18,18.56-36.01Z"/>
          <path class="cls-15" d="m577.21,1708.3c0-32.78,15.39-58.45,38.09-58.45s37.86,25.35,37.86,58.45-15.27,58.45-38.1,58.45-37.85-25.35-37.85-58.45Zm56.66,0c0-20.5-7.57-36.01-18.8-36.01s-18.56,15.02-18.56,36.01,7.45,36.01,18.8,36.01,18.56-15.18,18.56-36.01Z"/>
          <path class="cls-15" d="m705.31,1676.16l-14.9,4.85-3.91-20.34,24.55-9.69h12.82v113.85h-18.56v-88.65Z"/>
          <path class="cls-15" d="m1222.24,1676.16l-14.89,4.85-3.91-20.34,24.54-9.69h12.82v113.85h-18.56v-88.65Z"/>
          <path class="cls-15" d="m1283.04,1708.3c0-32.78,15.38-58.45,38.1-58.45s37.85,25.35,37.85,58.45-15.27,58.45-38.09,58.45-37.86-25.35-37.86-58.45Zm56.66,0c0-20.5-7.57-36.01-18.8-36.01s-18.56,15.02-18.56,36.01,7.45,36.01,18.8,36.01,18.56-15.18,18.56-36.01Z"/>
          <path class="cls-15" d="m1396.6,1708.3c0-32.78,15.39-58.45,38.1-58.45s37.85,25.35,37.85,58.45-15.26,58.45-38.09,58.45-37.86-25.35-37.86-58.45Zm56.66,0c0-20.5-7.58-36.01-18.81-36.01s-18.56,15.02-18.56,36.01,7.45,36.01,18.8,36.01,18.56-15.18,18.56-36.01Z"/>
          <path class="cls-15" d="m1524.69,1676.16l-14.9,4.85-3.91-20.34,24.55-9.69h12.82v113.85h-18.56v-88.65Z"/>
          <path class="cls-15" d="m766.11,1708.3c0-32.78,15.38-58.45,38.1-58.45s37.85,25.35,37.85,58.45-15.26,58.45-38.09,58.45-37.85-25.35-37.85-58.45Zm56.66,0c0-20.5-7.57-36.01-18.81-36.01s-18.56,15.02-18.56,36.01,7.45,36.01,18.81,36.01,18.56-15.18,18.56-36.01Z"/>
          <path class="cls-15" d="m879.67,1708.3c0-32.78,15.38-58.45,38.1-58.45s37.85,25.35,37.85,58.45-15.27,58.45-38.09,58.45-37.85-25.35-37.85-58.45Zm56.66,0c0-20.5-7.57-36.01-18.81-36.01s-18.56,15.02-18.56,36.01,7.45,36.01,18.81,36.01,18.56-15.18,18.56-36.01Z"/>
          <path class="cls-15" d="m993.23,1708.3c0-32.78,15.38-58.45,38.1-58.45s37.85,25.35,37.85,58.45-15.27,58.45-38.1,58.45-37.85-25.35-37.85-58.45Zm56.66,0c0-20.5-7.57-36.01-18.81-36.01s-18.56,15.02-18.56,36.01,7.45,36.01,18.81,36.01,18.56-15.18,18.56-36.01Z"/>
          <path class="cls-15" d="m1106.79,1708.3c0-32.78,15.38-58.45,38.1-58.45s37.85,25.35,37.85,58.45-15.26,58.45-38.09,58.45-37.85-25.35-37.85-58.45Zm56.65,0c0-20.5-7.57-36.01-18.8-36.01s-18.56,15.02-18.56,36.01,7.45,36.01,18.81,36.01,18.56-15.18,18.56-36.01Z"/>
        </g>
        <g>
          <path class="cls-15" d="m789.28,1491.31l-14.9,4.85-3.91-20.34,24.54-9.69h12.83v113.84h-18.56v-88.65Z"/>
          <path class="cls-15" d="m711.07,1491.31l-14.89,4.85-3.9-20.34,24.54-9.69h12.83v113.84h-18.57v-88.65Z"/>
          <path class="cls-15" d="m850.09,1523.45c0-32.78,15.38-58.45,38.09-58.45s37.85,25.36,37.85,58.45-15.26,58.46-38.09,58.46-37.85-25.36-37.85-58.46Zm56.65,0c0-20.51-7.57-36.01-18.81-36.01s-18.56,15.01-18.56,36.01,7.45,36.01,18.81,36.01,18.56-15.18,18.56-36.01Z"/>
          <path class="cls-15" d="m963.65,1523.45c0-32.78,15.38-58.45,38.1-58.45s37.85,25.36,37.85,58.45-15.27,58.46-38.1,58.46-37.85-25.36-37.85-58.46Zm56.66,0c0-20.51-7.57-36.01-18.81-36.01s-18.56,15.01-18.56,36.01,7.45,36.01,18.81,36.01,18.56-15.18,18.56-36.01Z"/>
          <path class="cls-15" d="m1091.74,1491.31l-14.89,4.85-3.91-20.34,24.54-9.69h12.83v113.84h-18.56v-88.65Z"/>
          <path class="cls-15" d="m1152.55,1523.45c0-32.78,15.38-58.45,38.09-58.45s37.86,25.36,37.86,58.45-15.27,58.46-38.1,58.46-37.85-25.36-37.85-58.46Zm56.65,0c0-20.51-7.57-36.01-18.8-36.01s-18.56,15.01-18.56,36.01,7.45,36.01,18.81,36.01,18.56-15.18,18.56-36.01Z"/>
          <path class="cls-15" d="m1266.1,1523.45c0-32.78,15.39-58.45,38.1-58.45s37.85,25.36,37.85,58.45-15.27,58.46-38.09,58.46-37.86-25.36-37.86-58.46Zm56.65,0c0-20.51-7.57-36.01-18.8-36.01s-18.56,15.01-18.56,36.01,7.44,36.01,18.8,36.01,18.56-15.18,18.56-36.01Z"/>
          <path class="cls-15" d="m1379.66,1523.45c0-32.78,15.38-58.45,38.09-58.45s37.85,25.36,37.85,58.45-15.26,58.46-38.09,58.46-37.85-25.36-37.85-58.46Zm56.66,0c0-20.51-7.58-36.01-18.81-36.01s-18.56,15.01-18.56,36.01,7.44,36.01,18.8,36.01,18.56-15.18,18.56-36.01Z"/>
          <path class="cls-15" d="m375.16,1523.45c0-32.78,15.38-58.45,38.1-58.45s37.85,25.36,37.85,58.45-15.26,58.46-38.09,58.46-37.85-25.36-37.85-58.46Zm56.65,0c0-20.51-7.57-36.01-18.8-36.01s-18.56,15.01-18.56,36.01,7.45,36.01,18.81,36.01,18.56-15.18,18.56-36.01Z"/>
          <path class="cls-15" d="m488.72,1523.45c0-32.78,15.38-58.45,38.1-58.45s37.85,25.36,37.85,58.45-15.26,58.46-38.09,58.46-37.85-25.36-37.85-58.46Zm56.65,0c0-20.51-7.57-36.01-18.8-36.01s-18.56,15.01-18.56,36.01,7.45,36.01,18.81,36.01,18.56-15.18,18.56-36.01Z"/>
          <path class="cls-15" d="m602.27,1523.45c0-32.78,15.38-58.45,38.1-58.45s37.85,25.36,37.85,58.45-15.27,58.46-38.1,58.46-37.85-25.36-37.85-58.46Zm56.65,0c0-20.51-7.57-36.01-18.8-36.01s-18.56,15.01-18.56,36.01,7.45,36.01,18.81,36.01,18.56-15.18,18.56-36.01Z"/>
          <path class="cls-15" d="m1493.22,1523.45c0-32.78,15.39-58.45,38.09-58.45s37.86,25.36,37.86,58.45-15.27,58.46-38.1,58.46-37.85-25.36-37.85-58.46Zm56.66,0c0-20.51-7.58-36.01-18.81-36.01s-18.56,15.01-18.56,36.01,7.45,36.01,18.8,36.01,18.56-15.18,18.56-36.01Z"/>
        </g>
      </g>
    </g>
    <g>
      <path class="cls-18" d="m907.65,776.48s1.15,18.37,12.51,20.75c11.36,2.37-6.58,44.27-1.91,70.73,4.67,26.46,17.63,35.86,17.63,35.86,0,0-7.27-14.04-5.1-23.45,0,0,1.56,18.91,16.37,26.91,14.81,8,12.01,16.63,12.01,16.63,0,0,30.09-12.73,28.4-36.16,0,0,2.49,10.4,1.9,14.89,0,0,24.65-23.12,23.39-46.5-1.27-23.38-25.85-40.54-36.11-39.77-10.25.77-35.25-16.79-35.47-24.44-.22-7.65-33.63-15.43-33.63-15.43Z"/>
      <path class="cls-18" d="m939.92,643.91c-34.84,72.08-69.68,144.16-104.52,216.25-5.17-.17-12.84-.79-21.83-2.96-37.47-9.04-70.64-38.5-84.12-74.17-8.95-23.68-8.54-48.34-8.37-55.38.15-6.03.62-11.06,1.03-14.6,4.02-14.36,14.2-43.05,40.35-68.38,11.38-11.03,41.59-40.29,88.37-40.57,50.7-.31,83.33,33.62,89.08,39.82Z"/>
      <path class="cls-21" d="m1038.3,1026.56c-15.96,18.21-37.42,35.29-66.06,49.88-11.88,6.05-45.72,20.66-83.73,16.22-76.29-8.92-115.53-90.46-118.79-97.49,7.26-4.63,14.52-9.25,21.78-13.88,6.35-4.05,12.71-8.1,19.06-12.14,8.53-5.43,17.06-10.87,25.59-16.3.03-13.15-.11-26.56-.44-40.22-.67-27.5-2.09-54-4.07-79.45l5.72.1,95.91,2.18s3,29.56,7.72,57.04c3.71,21.5,8.49,41.73,13.72,45.67,7.39-.23,11.84-.28,11.84-.28,0,0,.01.03.07.07,1.7,1.68,38.43,38.01,71.69,88.6Z"/>
      <path class="cls-17" d="m933.29,835.47s2.98,29.54,7.72,57.04c-52.14,7.59-87.82-34.95-103.63-59.22l95.92,2.18Z"/>
      <path class="cls-21" d="m955.15,858.47s-122.39,23.45-135.82-52.99c-13.43-76.44-38.27-124.9,39.3-143.11,77.58-18.2,97.93,8.29,108.61,32.72,10.69,24.43,19.39,155.32-12.1,163.39Z"/>
      <path class="cls-18" d="m956.18,653.22c-22.99-19.69-36.45-12.14-43.27-3.82-73.53-25.17-107.24,36.91-107.24,36.91,1.36,56.29-32.71,94.62-32.71,94.62,0,0,24.78,9.91,74.05-12.35,15.04-6.8,27.16-20.45,36.74-36.12-14.76,38.63-38.78,68.8-38.78,68.8,56.64-39.23,66.42-129.23,67.3-138.73,8.67,5.42,25.99,17.46,33,31,9.52,18.41,19.27,58,30.71,54.6,0,0,14.68-65.39-19.8-94.91Z"/>
      <path class="cls-18" d="m744.63,809.21s1.16,18.38,12.51,20.75c11.36,2.37-6.57,44.28-1.91,70.73,4.67,26.45,17.63,35.86,17.63,35.86,0,0-7.27-14.04-5.1-23.45,0,0,1.56,18.91,16.37,26.91,14.81,8,12.01,16.63,12.01,16.63,0,0,30.09-12.73,28.4-36.17,0,0,2.49,10.4,1.89,14.89,0,0,24.65-23.12,23.38-46.5-1.27-23.38-25.85-40.54-36.11-39.77-10.25.77-35.25-16.79-35.47-24.44-.22-7.65-33.64-15.43-33.64-15.43Z"/>
    </g>
    <path class="cls-25" d="m1594.73,1435.36c-134.11,182.9-350.56,301.64-594.73,301.64s-460.62-118.74-594.73-301.64h1189.46Z"/>
    <g>
      <path class="cls-23" d="m1451.08,934.14h102.47c8.12,0,14.72,6.59,14.72,14.72v105.78c0,8.12-6.59,14.72-14.72,14.72h-102.47c-8.12,0-14.72-6.59-14.72-14.72v-105.78c0-8.12,6.59-14.72,14.72-14.72Z"/>
      <g>
        <path class="cls-2" d="m1542.15,997.35c0,22-17.83,39.83-39.83,39.83s-39.83-17.83-39.83-39.83,17.83-39.83,39.83-39.83c2.5,0,4.95.23,7.32.68-4.97,18.12-11.57,42.12-12.01,43.61.82-1.29,25.05-12.15,41.59-19.47,1.89,4.63,2.93,9.71,2.93,15.02Z"/>
        <path class="cls-12" d="m1541.43,977.99c-14.61,6.44-38.81,17.22-39.58,18.45.42-1.42,7.11-25.75,11.6-42.06,12.42,3.41,22.62,12.15,27.98,23.62Z"/>
      </g>
    </g>
    <g>
      <path class="cls-23" d="m424.36,733.32h247.45c7.24,0,13.11,5.87,13.11,13.11v96.55c0,7.24-5.87,13.11-13.11,13.11h-247.45c-7.24,0-13.11-5.87-13.11-13.11v-96.55c0-7.24,5.87-13.11,13.11-13.11Z"/>
      <g>
        <path class="cls-2" d="m462.36,759.06l-2.31.75-.61-3.16,3.81-1.5h1.99v17.66h-2.88v-13.75Z"/>
        <path class="cls-2" d="m471.79,764.04c0-5.08,2.39-9.07,5.91-9.07s5.87,3.93,5.87,9.07-2.37,9.07-5.91,9.07-5.87-3.93-5.87-9.07Zm8.79,0c0-3.18-1.17-5.59-2.92-5.59s-2.88,2.33-2.88,5.59,1.16,5.58,2.92,5.58,2.88-2.35,2.88-5.58Z"/>
        <path class="cls-12" d="m489.4,764.04c0-5.08,2.39-9.07,5.91-9.07s5.87,3.93,5.87,9.07-2.37,9.07-5.91,9.07-5.87-3.93-5.87-9.07Zm8.79,0c0-3.18-1.17-5.59-2.92-5.59s-2.88,2.33-2.88,5.59,1.15,5.58,2.92,5.58,2.88-2.35,2.88-5.58Z"/>
        <path class="cls-12" d="m509.27,759.06l-2.31.75-.61-3.16,3.81-1.5h1.99v17.66h-2.88v-13.75Z"/>
        <path class="cls-2" d="m589.45,759.06l-2.31.75-.61-3.16,3.81-1.5h1.99v17.66h-2.88v-13.75Z"/>
        <path class="cls-2" d="m598.88,764.04c0-5.08,2.39-9.07,5.91-9.07s5.87,3.93,5.87,9.07-2.37,9.07-5.91,9.07-5.87-3.93-5.87-9.07Zm8.79,0c0-3.18-1.17-5.59-2.92-5.59s-2.88,2.33-2.88,5.59,1.15,5.58,2.92,5.58,2.88-2.35,2.88-5.58Z"/>
        <path class="cls-12" d="m616.5,764.04c0-5.08,2.39-9.07,5.91-9.07s5.87,3.93,5.87,9.07-2.37,9.07-5.91,9.07-5.87-3.93-5.87-9.07Zm8.79,0c0-3.18-1.18-5.59-2.92-5.59s-2.88,2.33-2.88,5.59,1.15,5.58,2.92,5.58,2.88-2.35,2.88-5.58Z"/>
        <path class="cls-12" d="m636.36,759.06l-2.31.75-.61-3.16,3.81-1.5h1.99v17.66h-2.88v-13.75Z"/>
        <path class="cls-2" d="m518.7,764.04c0-5.08,2.39-9.07,5.91-9.07s5.87,3.93,5.87,9.07-2.37,9.07-5.91,9.07-5.87-3.93-5.87-9.07Zm8.79,0c0-3.18-1.17-5.59-2.92-5.59s-2.88,2.33-2.88,5.59,1.16,5.58,2.92,5.58,2.88-2.35,2.88-5.58Z"/>
        <path class="cls-2" d="m536.32,764.04c0-5.08,2.39-9.07,5.91-9.07s5.87,3.93,5.87,9.07-2.37,9.07-5.91,9.07-5.87-3.93-5.87-9.07Zm8.79,0c0-3.18-1.17-5.59-2.92-5.59s-2.88,2.33-2.88,5.59,1.16,5.58,2.92,5.58,2.88-2.35,2.88-5.58Z"/>
        <path class="cls-2" d="m553.93,764.04c0-5.08,2.39-9.07,5.91-9.07s5.87,3.93,5.87,9.07-2.37,9.07-5.91,9.07-5.87-3.93-5.87-9.07Zm8.79,0c0-3.18-1.17-5.59-2.92-5.59s-2.88,2.33-2.88,5.59,1.16,5.58,2.92,5.58,2.88-2.35,2.88-5.58Z"/>
        <path class="cls-2" d="m571.54,764.04c0-5.08,2.39-9.07,5.91-9.07s5.87,3.93,5.87,9.07-2.37,9.07-5.91,9.07-5.87-3.93-5.87-9.07Zm8.79,0c0-3.18-1.17-5.59-2.92-5.59s-2.88,2.33-2.88,5.59,1.15,5.58,2.92,5.58,2.88-2.35,2.88-5.58Z"/>
      </g>
      <g>
        <path class="cls-2" d="m462.36,816.43l-2.31.75-.61-3.16,3.81-1.5h1.99v17.66h-2.88v-13.75Z"/>
        <path class="cls-2" d="m471.79,821.41c0-5.08,2.39-9.07,5.91-9.07s5.87,3.93,5.87,9.07-2.37,9.07-5.91,9.07-5.87-3.93-5.87-9.07Zm8.79,0c0-3.18-1.17-5.59-2.92-5.59s-2.88,2.33-2.88,5.59,1.16,5.59,2.92,5.59,2.88-2.35,2.88-5.59Z"/>
        <path class="cls-12" d="m489.4,821.41c0-5.08,2.39-9.07,5.91-9.07s5.87,3.93,5.87,9.07-2.37,9.07-5.91,9.07-5.87-3.93-5.87-9.07Zm8.79,0c0-3.18-1.17-5.59-2.92-5.59s-2.88,2.33-2.88,5.59,1.15,5.59,2.92,5.59,2.88-2.35,2.88-5.59Z"/>
        <path class="cls-12" d="m509.27,816.43l-2.31.75-.61-3.16,3.81-1.5h1.99v17.66h-2.88v-13.75Z"/>
        <path class="cls-2" d="m589.45,816.43l-2.31.75-.61-3.16,3.81-1.5h1.99v17.66h-2.88v-13.75Z"/>
        <path class="cls-2" d="m598.88,821.41c0-5.08,2.39-9.07,5.91-9.07s5.87,3.93,5.87,9.07-2.37,9.07-5.91,9.07-5.87-3.93-5.87-9.07Zm8.79,0c0-3.18-1.17-5.59-2.92-5.59s-2.88,2.33-2.88,5.59,1.15,5.59,2.92,5.59,2.88-2.35,2.88-5.59Z"/>
        <path class="cls-12" d="m616.5,821.41c0-5.08,2.39-9.07,5.91-9.07s5.87,3.93,5.87,9.07-2.37,9.07-5.91,9.07-5.87-3.93-5.87-9.07Zm8.79,0c0-3.18-1.18-5.59-2.92-5.59s-2.88,2.33-2.88,5.59,1.15,5.59,2.92,5.59,2.88-2.35,2.88-5.59Z"/>
        <path class="cls-12" d="m636.36,816.43l-2.31.75-.61-3.16,3.81-1.5h1.99v17.66h-2.88v-13.75Z"/>
        <path class="cls-2" d="m518.7,821.41c0-5.08,2.39-9.07,5.91-9.07s5.87,3.93,5.87,9.07-2.37,9.07-5.91,9.07-5.87-3.93-5.87-9.07Zm8.79,0c0-3.18-1.17-5.59-2.92-5.59s-2.88,2.33-2.88,5.59,1.16,5.59,2.92,5.59,2.88-2.35,2.88-5.59Z"/>
        <path class="cls-2" d="m536.32,821.41c0-5.08,2.39-9.07,5.91-9.07s5.87,3.93,5.87,9.07-2.37,9.07-5.91,9.07-5.87-3.93-5.87-9.07Zm8.79,0c0-3.18-1.17-5.59-2.92-5.59s-2.88,2.33-2.88,5.59,1.16,5.59,2.92,5.59,2.88-2.35,2.88-5.59Z"/>
        <path class="cls-2" d="m553.93,821.41c0-5.08,2.39-9.07,5.91-9.07s5.87,3.93,5.87,9.07-2.37,9.07-5.91,9.07-5.87-3.93-5.87-9.07Zm8.79,0c0-3.18-1.17-5.59-2.92-5.59s-2.88,2.33-2.88,5.59,1.16,5.59,2.92,5.59,2.88-2.35,2.88-5.59Z"/>
        <path class="cls-2" d="m571.54,821.41c0-5.08,2.39-9.07,5.91-9.07s5.87,3.93,5.87,9.07-2.37,9.07-5.91,9.07-5.87-3.93-5.87-9.07Zm8.79,0c0-3.18-1.17-5.59-2.92-5.59s-2.88,2.33-2.88,5.59,1.15,5.59,2.92,5.59,2.88-2.35,2.88-5.59Z"/>
      </g>
      <g>
        <path class="cls-2" d="m522.3,787.76l-2.31.75-.61-3.16,3.81-1.5h1.99v17.66h-2.88v-13.75Z"/>
        <path class="cls-2" d="m510.16,787.76l-2.31.75-.61-3.16,3.81-1.5h1.99v17.66h-2.88v-13.75Z"/>
        <path class="cls-2" d="m531.73,792.74c0-5.08,2.39-9.07,5.91-9.07s5.87,3.93,5.87,9.07-2.37,9.07-5.91,9.07-5.87-3.93-5.87-9.07Zm8.79,0c0-3.18-1.17-5.59-2.92-5.59s-2.88,2.33-2.88,5.59,1.16,5.59,2.92,5.59,2.88-2.35,2.88-5.59Z"/>
        <path class="cls-12" d="m549.34,792.74c0-5.08,2.39-9.07,5.91-9.07s5.87,3.93,5.87,9.07-2.37,9.07-5.91,9.07-5.87-3.93-5.87-9.07Zm8.79,0c0-3.18-1.17-5.59-2.92-5.59s-2.88,2.33-2.88,5.59,1.16,5.59,2.92,5.59,2.88-2.35,2.88-5.59Z"/>
        <path class="cls-12" d="m569.21,787.76l-2.31.75-.61-3.16,3.81-1.5h1.99v17.66h-2.88v-13.75Z"/>
        <path class="cls-2" d="m578.64,792.74c0-5.08,2.39-9.07,5.91-9.07s5.87,3.93,5.87,9.07-2.37,9.07-5.91,9.07-5.87-3.93-5.87-9.07Zm8.79,0c0-3.18-1.17-5.59-2.92-5.59s-2.88,2.33-2.88,5.59,1.16,5.59,2.92,5.59,2.88-2.35,2.88-5.59Z"/>
        <path class="cls-2" d="m596.25,792.74c0-5.08,2.39-9.07,5.91-9.07s5.87,3.93,5.87,9.07-2.37,9.07-5.91,9.07-5.87-3.93-5.87-9.07Zm8.79,0c0-3.18-1.17-5.59-2.92-5.59s-2.88,2.33-2.88,5.59,1.15,5.59,2.92,5.59,2.88-2.35,2.88-5.59Z"/>
        <path class="cls-2" d="m613.87,792.74c0-5.08,2.39-9.07,5.91-9.07s5.87,3.93,5.87,9.07-2.37,9.07-5.91,9.07-5.87-3.93-5.87-9.07Zm8.79,0c0-3.18-1.18-5.59-2.92-5.59s-2.88,2.33-2.88,5.59,1.15,5.59,2.92,5.59,2.88-2.35,2.88-5.59Z"/>
        <path class="cls-2" d="m458.06,792.74c0-5.08,2.39-9.07,5.91-9.07s5.87,3.93,5.87,9.07-2.37,9.07-5.91,9.07-5.87-3.93-5.87-9.07Zm8.79,0c0-3.18-1.17-5.59-2.92-5.59s-2.88,2.33-2.88,5.59,1.16,5.59,2.92,5.59,2.88-2.35,2.88-5.59Z"/>
        <path class="cls-2" d="m475.68,792.74c0-5.08,2.39-9.07,5.91-9.07s5.87,3.93,5.87,9.07-2.37,9.07-5.91,9.07-5.87-3.93-5.87-9.07Zm8.79,0c0-3.18-1.17-5.59-2.92-5.59s-2.88,2.33-2.88,5.59,1.16,5.59,2.92,5.59,2.88-2.35,2.88-5.59Z"/>
        <path class="cls-2" d="m493.29,792.74c0-5.08,2.39-9.07,5.91-9.07s5.87,3.93,5.87,9.07-2.37,9.07-5.91,9.07-5.87-3.93-5.87-9.07Zm8.79,0c0-3.18-1.17-5.59-2.92-5.59s-2.88,2.33-2.88,5.59,1.16,5.59,2.92,5.59,2.88-2.35,2.88-5.59Z"/>
        <path class="cls-2" d="m631.48,792.74c0-5.08,2.39-9.07,5.91-9.07s5.87,3.93,5.87,9.07-2.37,9.07-5.91,9.07-5.87-3.93-5.87-9.07Zm8.79,0c0-3.18-1.18-5.59-2.92-5.59s-2.88,2.33-2.88,5.59,1.15,5.59,2.92,5.59,2.88-2.35,2.88-5.59Z"/>
      </g>
    </g>
    <path class="cls-11" d="m1264.23,993.74v152.06l-60.75-10.03-78.53-12.97,47.92,405.7-71.35,5.28-334.35,24.75-11.44-263.11-.06-1.39-80.57,79.8-10.22,10.12-43.38,42.97-1.28-164.84,43.76-158.5,13.74-49.78,158.45-100.95c76.67,56.22,111.17-29.39,111.17-29.39l123.22-3.36c11.42-.31,22.8,1.81,33.34,6.25l124.83,52.47,5.95,2.5,29.56,12.42Z"/>
    <path class="cls-7" d="m664.88,1383.94l-43.38,42.97-1.28-164.84,43.76-158.5c26.18,77,17.7,212.66.89,280.36Z"/>
    <path class="cls-21" d="m652.05,1403.27s-52.95,78.6-86.26,0c-10.02-23.65-9.6-68.67,27.79-164.94,3-7.72,6.24-15.78,9.72-24.18l9.75-33.22,53.07,6.39s3.45,38.91,3.9,84.48c.47,50.03-2.67,108.06-17.97,131.47Z"/>
    <path class="cls-20" d="m606.25,1044.36l254.88-42.38c9.78-1.63,19.02,4.98,20.65,14.76l29.75,178.94c1.63,9.78-4.98,19.02-14.76,20.65l-254.88,42.38c-9.78,1.63-19.02-4.98-20.65-14.76l-29.75-178.94c-1.63-9.78,4.98-19.02,14.76-20.65Z"/>
    <path class="cls-7" d="m1264.23,993.74v152.06l-60.75-10.03c-10.81-16.8-9.53-44.91-9.53-44.91,2.44-29.3,21.22-70.28,40.72-109.53l29.56,12.42Z"/>
    <path class="cls-21" d="m622.14,1247.38l-2.56-12.78s47.28-33.22,43.45-56.22c0,0-3.83-7.67-17.89,6.39,0,0,24.28-29.39,20.44-39.61,0,0-5.11-10.22-23,5.11,0,0,12.84-26.19,8.13-41.73-.81-2.67-4.17-3.55-6.27-1.72-5.01,4.37-15.65,14.27-36.36,35.79,0,0,20.44-52.39,6.39-65.17,0,0-5.11-1.28-20.44,26.83,0,0-22.36,40.25-19.17,51.11,0,0,3.83,6.39,7.67,6.39,0,0-7.67,17.89,8.94,29.39,0,0-8.94,12.78,2.56,28.11,0,0,5.11,28.11,28.11,28.11Z"/>
    <path class="cls-21" d="m1304.48,829.54s-82.42,187.2-87.53,214.03c0,0-30.67,76.67,33.22,99.67,24.47,8.81,68.2,1.69,86.89-70.28,14.48-55.74,35.14-226.81,35.14-226.81,0,0,26.28-35.99,42.61-85.82,3.06-9.33-.31-19.55-8.27-25.29-16.29-11.75-43.12-27.29-50.96-9.01,0,0,11.5-106.06-11.5-95.83,0,0-11.5-3.83-14.06,44.72l-14.06,76.67s-20.44-62.61-42.17-54.95l11.5,66.45s-1.28,42.17,19.17,66.45Z"/>
    <circle class="cls-2" cx="750.55" cy="1130.46" r="23"/>
    <g class="cls-14">
      <path d="m1101.52,1533.77l-334.35,24.75-11.44-263.11c40.83,143,82.99,224.78,345.79,238.36Z"/>
    </g>
    <rect class="cls-7" x="1124.77" y="1063.6" width="6.39" height="159.6" transform="translate(-110.61 120.85) rotate(-5.85)"/>
    <rect class="cls-7" x="610.63" y="1191.54" width="46.69" height="3.83" transform="translate(-582.86 605.6) rotate(-36.24)"/>
    <rect class="cls-7" x="606.93" y="1156.65" width="48.3" height="3.83" transform="translate(-574.78 623.36) rotate(-37.49)"/>
    <rect class="cls-7" x="597.37" y="1127.64" width="51.58" height="3.83" transform="translate(-623.66 798.39) rotate(-46.24)"/>
    <path class="cls-7" d="m580.68,1136.7l-3.56-1.41c14.23-35.88,33.16-57.73,33.35-57.95l2.88,2.53c-.19.21-18.71,21.6-32.67,56.83Z"/>
    <path class="cls-7" d="m619.81,1248.81c-5.94,0-11.1-1.79-15.38-5.35-10.22-8.51-11.63-24.02-11.68-24.67l3.82-.32c.01.14,1.34,14.59,10.33,22.06,4.19,3.48,9.46,4.93,15.68,4.31l.38,3.81c-1.07.11-2.13.16-3.15.16Z"/>
    <g id="Laptop">
      <path class="cls-19" d="m1710.61,1248.18l-58.91,258.21c-1.5,6.58-7.37,11.24-14.14,11.24h-329.41c-9.3,0-16.2-8.61-14.14-17.64l58.91-258.21c1.5-6.58,7.37-11.24,14.14-11.24h329.41c9.3,0,16.2,8.61,14.14,17.64Z"/>
      <rect class="cls-19" x="1079.32" y="1490.34" width="258.71" height="27.29"/>
      <path class="cls-20" d="m1730.26,1247.16l-58.91,259.19c-1.5,6.6-7.37,11.28-14.14,11.28h-329.41c-9.3,0-16.2-8.64-14.14-17.71l58.91-259.19c1.5-6.6,7.37-11.28,14.14-11.28h329.41c9.3,0,16.2,8.64,14.14,17.71Z"/>
      <ellipse class="cls-2" cx="1531.24" cy="1375.72" rx="26.2" ry="19.65" transform="translate(-153.14 2559.01) rotate(-77.03)"/>
    </g>
    <g id="Chart">
      <g class="cls-6">
        <rect class="cls-20" x="1164.56" y="460.89" width="571.18" height="361.62"/>
      </g>
      <g class="cls-8">
        <circle class="cls-5" cx="1349.04" cy="646.98" r="133.05"/>
      </g>
      <g class="cls-10">
        <circle class="cls-3" cx="1349.04" cy="646.98" r="59.94" transform="translate(532.36 1900.58) rotate(-82.54)"/>
      </g>
      <rect class="cls-1" x="1535.12" y="514.56" width="72.83" height="12.78"/>
      <rect class="cls-1" x="1535.12" y="545.23" width="129.06" height="12.78"/>
      <rect class="cls-1" x="1535.12" y="575.9" width="129.06" height="12.78"/>
      <rect class="cls-1" x="1535.12" y="606.56" width="129.06" height="12.78"/>
    </g>
    <g id="Book">
      <path class="cls-20" d="m528.2,1427.79v-13.1h9.28v-10.91h-223.45c-16.12,0-29.19,13.07-29.19,29.19h0c0,16.12,13.07,29.19,29.19,29.19h223.45v-10.91h-9.28v-23.46Z"/>
      <path class="cls-19" d="m498.74,1484.53v-13.1h9.28v-10.91h-223.45c-16.12,0-29.19,13.07-29.19,29.19h0c0,16.12,13.07,29.19,29.19,29.19h223.45v-10.91h-9.28v-23.46Z"/>
      <path class="cls-2" d="m500.92,1471.17v37.1h-132.32c-10.25,0-18.55-8.31-18.55-18.55,0-3,.71-5.83,1.98-8.33,3.05-6.06,9.33-10.22,16.58-10.22h132.32Z"/>
      <g class="cls-14">
        <path d="m500.92,1471.17v18.19l-148.9-7.97c3.05-6.06,9.33-10.22,16.58-10.22h132.32Z"/>
      </g>
      <path class="cls-2" d="m530.38,1414.43v37.1h-132.32c-10.25,0-18.55-8.31-18.55-18.55,0-3,.71-5.83,1.98-8.33,3.05-6.06,9.33-10.22,16.58-10.22h132.32Z"/>
      <polygon class="cls-7" points="434.08 1414.4 451.54 1414.4 451.54 1437.89 470.09 1437.89 470.09 1492.45 461.36 1483.18 453.72 1492.45 453.72 1442.25 434.08 1442.25 434.08 1414.4"/>
      <g class="cls-14">
        <path d="m530.38,1414.43v18.19l-148.9-7.97c3.05-6.06,9.33-10.22,16.58-10.22h132.32Z"/>
      </g>
    </g>
    <g id="Plant">
      <path class="cls-20" d="m413.62,1211.68c-.23,4.88-1.62,10.67-4.59,17.5-5.62,12.93-24.96,50.61-24.96,50.61l-13.43-1.22s-.26-1.35-.69-3.65c-1.99-10.49-7.72-40.71-9.89-52.16-3.11-16.38,5.95-38.21,30.27-35.9,9.08.86,24.16,6.66,23.29,24.83Z"/>
      <path class="cls-20" d="m363.56,1272.28l-11.73,5.56-1.48-1.57-17.82-18.87c-1.52-1.61-2.83-3.42-3.84-5.39-2.47-4.8-5.62-13.61-1.03-21.55,2.08-3.6,5.45-6.25,9.29-7.83,3.91-1.61,9.9-3.25,15.26-1.28,5.23,1.92,9.85,7.27,11.35,19.44.96,7.81,0,31.49,0,31.49Z"/>
      <rect class="cls-2" x="368.04" y="1204.35" width="2.76" height="7.43" transform="translate(-99.09 34.87) rotate(-4.77)"/>
      <rect class="cls-2" x="387.15" y="1215" width="6.24" height="2.76" transform="translate(-870.7 1420.95) rotate(-81.43)"/>
      <rect class="cls-2" x="369.59" y="1227.21" width="2.76" height="6.17"/>
      <rect class="cls-2" x="388.72" y="1236.63" width="5.86" height="2.76" transform="translate(-906.68 1218.16) rotate(-71.57)"/>
      <rect class="cls-2" x="372.67" y="1252.52" width="2.76" height="6.17"/>
      <rect class="cls-2" x="385.02" y="1190.16" width="2.76" height="6.17"/>
      <rect class="cls-2" x="348.44" y="1232.03" width="2.76" height="5.78" transform="translate(-318.26 138.99) rotate(-15.55)"/>
      <rect class="cls-2" x="336.4" y="1247.33" width="2.76" height="5.75" transform="translate(-674.17 442.08) rotate(-36.27)"/>
      <rect class="cls-2" x="347.98" y="1255.34" width="2.76" height="6.08" transform="translate(-480.98 250.35) rotate(-23.96)"/>
      <rect class="cls-2" x="332.23" y="1229.85" width="2.76" height="5.82" transform="translate(-602.67 364.21) rotate(-32.01)"/>
      <path class="cls-9" d="m413.62,1211.68c-.23,4.88-1.62,10.67-4.59,17.5-5.62,12.93-24.96,50.61-24.96,50.61l-13.43-1.22s-.26-1.35-.69-3.65l4.1-2.64c27.74-27.44,37.25-47.3,39.57-60.6Z"/>
      <path class="cls-9" d="m363.56,1272.28l-11.73,5.56-1.48-1.57c3.67-6.19,14.44-38.59,1.86-54.92,5.23,1.92,9.85,7.27,11.35,19.44.96,7.81,0,31.49,0,31.49Z"/>
      <path class="cls-20" d="m408.63,1305c0,21.48-17.42,38.9-38.9,38.9-13.03,0-24.56-6.4-31.62-16.24-4.58-6.38-7.28-14.2-7.28-22.66,0-21.48,17.42-38.9,38.9-38.9,7.01,0,13.58,1.85,19.26,5.1,11.72,6.7,19.63,19.32,19.63,33.8Z"/>
      <rect class="cls-2" x="343.96" y="1282" width="2.76" height="5.86" transform="translate(-388.64 175.17) rotate(-18.44)"/>
      <rect class="cls-2" x="361.57" y="1287.66" width="2.76" height="6.9" transform="translate(-225.07 85.73) rotate(-10.3)"/>
      <rect class="cls-2" x="383.17" y="1285.24" width="2.76" height="6.17"/>
      <path class="cls-9" d="m408.63,1305c0,21.48-17.42,38.9-38.9,38.9-13.03,0-24.56-6.4-31.62-16.24,61.86-13.27,55.96-44.23,50.88-56.46,11.72,6.7,19.63,19.32,19.63,33.8Z"/>
      <path class="cls-20" d="m423.52,1313.35l-2.16,12.11-12.29,68.97c-.97,5.41-5.68,9.36-11.18,9.36h-55.08c-5.49,0-10.2-3.95-11.17-9.36l-14.46-81.07c-.61-3.39,2-6.51,5.44-6.51h95.46c3.44,0,6.05,3.12,5.45,6.51Z"/>
      <path class="cls-9" d="m421.36,1325.46l-12.29,68.97c-.97,5.41-5.68,9.36-11.18,9.36h-22.64l46.11-78.32Z"/>
      <rect class="cls-2" x="401.13" y="1205.95" width="5.82" height="2.76" transform="translate(-869.1 1209) rotate(-71.57)"/>
      <rect class="cls-2" x="371.84" y="1271.28" width="2.76" height="6.44"/>
      <rect class="cls-7" x="325.37" y="1305.25" width="93.85" height="3.83"/>
    </g>
    <g id="Table">
      <rect class="cls-20" x="199.82" y="1559.8" width="1695.64" height="186.02"/>
      <rect class="cls-19" x="199.82" y="1559.8" width="1695.64" height="70.28"/>
      <rect class="cls-20" x="130.72" y="1518.13" width="1833.89" height="63.57"/>
    </g>
  </g>
  <g>
    <circle cx="875.76" cy="777.55" r="6.61"/>
    <circle cx="936.32" cy="760.58" r="6.61"/>
    <path d="m916.08,725.64s3.69.36,18.63-3.83c14.94-4.19,22.18-3.95,21.32-5.97-3.7-8.68-31.61-5.73-35.8-3.52-4.19,2.22-7.62,8.04-4.15,13.32Z"/>
    <path d="m925.64,818.85s-17.38,3.06-30.89-.58c0,0,8.54,19.58,30.89.58Z"/>
    <path d="m924.05,806.22c3.98-1.12,7.24-3.47,8.7-5.92,1.05-1.77,1.13-3.51.22-4.9-2.39-3.64-18.73-25.38-18.81-25.49l-1.86,1.32c.08.11,16.39,21.81,18.76,25.42.52.8.14,1.79-.27,2.48-1.77,2.97-7.15,5.89-12.76,5.42l-.19,2.27c2.16.18,4.27-.07,6.21-.61Z"/>
  </g>
</svg>