<?xml version="1.0" encoding="UTF-8"?>
<svg id="Layer_1" data-name="Layer 1" xmlns="http://www.w3.org/2000/svg" xmlns:xlink="http://www.w3.org/1999/xlink" viewBox="0 0 2000 2000">
  <defs>
    <style>
      .cls-1 {
        fill: #6a6a6a;
      }

      .cls-2 {
        fill: #332c27;
      }

      .cls-3 {
        fill: #fff;
      }

      .cls-4 {
        fill: #cbc9ca;
      }

      .cls-5 {
        fill: #d1d1d1;
      }

      .cls-6 {
        fill: #b0b0af;
      }

      .cls-7 {
        opacity: .5;
      }

      .cls-8 {
        fill: #51bcd1;
      }

      .cls-9 {
        fill: #19140e;
      }

      .cls-10 {
        fill: #f5f5f5;
      }

      .cls-11 {
        fill: #380f00;
      }

      .cls-12 {
        fill: #868686;
      }

      .cls-13 {
        fill: #403834;
      }

      .cls-14 {
        fill: #a91f30;
      }

      .cls-15 {
        fill: #141a46;
      }

      .cls-16 {
        fill: #333b63;
      }

      .cls-17 {
        stroke-width: 11.45px;
      }

      .cls-17, .cls-18, .cls-19, .cls-20, .cls-21 {
        fill: none;
      }

      .cls-17, .cls-19, .cls-20, .cls-21 {
        stroke-linecap: round;
        stroke-linejoin: round;
      }

      .cls-17, .cls-20 {
        stroke: #1b172c;
      }

      .cls-22 {
        fill: #0b181b;
      }

      .cls-23 {
        fill: #181d3a;
      }

      .cls-24 {
        fill: #793641;
      }

      .cls-25 {
        fill: #f6ad76;
      }

      .cls-26 {
        fill: #2b2b2b;
      }

      .cls-27 {
        fill: #544e4c;
      }

      .cls-28 {
        fill: #cc7646;
      }

      .cls-29 {
        fill: #fbfbfb;
      }

      .cls-30 {
        fill: #1f2847;
      }

      .cls-31 {
        clip-path: url(#clippath);
      }

      .cls-19 {
        stroke: #fff;
        stroke-width: 3.89px;
      }

      .cls-32 {
        fill: #f7f7f7;
      }

      .cls-33 {
        fill: #49858a;
      }

      .cls-34 {
        fill: #e3e3e2;
      }

      .cls-20 {
        stroke-width: 9.13px;
      }

      .cls-35 {
        fill: #f8ba8c;
      }

      .cls-36 {
        fill: #352e35;
      }

      .cls-37 {
        fill: #ececec;
      }

      .cls-38 {
        fill: #0b5b07;
      }

      .cls-21 {
        stroke: #021833;
        stroke-width: 7.35px;
      }

      .cls-39 {
        fill: #a1c9de;
      }

      .cls-40 {
        fill: #ee7b86;
      }

      .cls-41 {
        fill: #d1edfc;
      }

      .cls-42 {
        fill: #dfdfdf;
      }
    </style>
    <clipPath id="clippath">
      <path class="cls-18" d="m1737,1000c0,114.46-26.09,222.82-72.65,319.47-119.02,247.05-371.77,417.53-664.35,417.53s-545.33-170.48-664.35-417.53c-46.56-96.65-72.65-205.01-72.65-319.47,0-407.03,329.97-737,737-737s737,329.97,737,737Z"/>
    </clipPath>
  </defs>
  <g class="cls-31">
    <path class="cls-41" d="m1737,1000c0,114.46-26.09,222.82-72.65,319.47-119.02,247.05-371.77,417.53-664.35,417.53s-545.33-170.48-664.35-417.53c-46.56-96.65-72.65-205.01-72.65-319.47,0-407.03,329.97-737,737-737s737,329.97,737,737Z"/>
    <path class="cls-39" d="m1594.73,1435.36c-134.11,182.9-350.56,301.64-594.73,301.64s-460.62-118.74-594.73-301.64h1189.46Z"/>
    <g class="cls-7">
      <path class="cls-29" d="m1594.62,840.44c-16.5-184.74-144.53-279.72-256.5-289.76-18.59-1.68-36.53-2.5-53.33-2.48-134.47.24-196.87,58.24-264.49,133.96l-14.39,16.16-.05-.07-14.38-15.99c-67.98-75.54-130.63-133.33-265.03-133.09-16.74.03-34.67.92-53.3,2.65-111.96,10.46-239.7,105.97-255.54,290.29l.11,63.46c8.46,97.15,55.78,199.42,140.6,303.94,97.81,120.54,248.91,248.52,449.11,380.45.02.03.04.02.05.04,199.72-132.63,350.37-261.2,447.79-382.07,84.48-104.82,131.39-207.32,139.46-304.05l-.11-63.46Zm-275.18,210.74l-99.27,220.69-63.41-387.56-85.65,196.05-36.1-81.87-28.55,37.3-140.19,183.19-14.86-315.69-66.12,158.49-232.22,11.15-1.95-34.2,208.01-10.06,121.8-292.18,17.9,380.26,107.53-140.43,37.54-49.08,27.04,61.33,102.34-234.17,63.78,390,57.34-127.48,154.05-.27.06,34.28-129.08.24Z"/>
    </g>
    <g>
      <g>
        <g>
          <g>
            <path class="cls-28" d="m1468.4,748.08c0,19.1-10.78,34.59-24.07,34.59s-24.05-15.49-24.05-34.59,10.77-34.59,24.05-34.59,24.07,15.48,24.07,34.59Z"/>
            <path class="cls-25" d="m1176.35,748.08c0,19.1-10.77,34.59-24.06,34.59s-24.06-15.49-24.06-34.59,10.77-34.59,24.06-34.59,24.06,15.48,24.06,34.59Z"/>
          </g>
          <path class="cls-28" d="m1444.61,773.82c0,29.19-65.58,146.49-146.49,146.49h0c-80.9,0-146.49-115.86-146.49-146.49v-94.03c0-80.91,65.59-146.49,146.49-146.49h0c80.91,0,146.49,65.57,146.49,146.49v94.03Z"/>
          <path class="cls-11" d="m1308.95,531.61c-2.02-.37-4.13-.61-6.39-.61-1.5,0-2.97.07-4.45.09-1.49-.03-2.95-.09-4.46-.09-2.27,0-4.37.25-6.38.61-88.34,6.77-136.02,70.34-136.02,129.26v97.18c3.68-1.05,17-6.5,17-30.65,0-28,3.79-67.54,86.14-67.54h101.25c82.36,0,72.33,39.54,72.33,67.54,0,24.15,13.31,29.59,17,30.65v-97.18c0-58.92-47.68-122.49-136.01-129.26Z"/>
          <g>
            <path class="cls-14" d="m1250.95,844.94s24.47,4.69,50.26-1.98c14.08-3.64,28.01-12.03,39.5-24.6,0,0,10.41,49.19-29.81,61.41-41.83,12.69-59.96-34.84-59.96-34.84Z"/>
            <path class="cls-3" d="m1305.08,855.89c13.46-5.12,16.88-6.2,29.71-14.99,8.54-5.83,5.93-22.53,5.93-22.53-11.5,12.56-25.42,20.96-39.5,24.6-25.8,6.66-50.27,1.98-50.27,1.98,0,0,6.02,10.51,14.72,13.47,6.52,2.21,19.18,5.17,39.41-2.51Z"/>
            <path class="cls-40" d="m1310.94,879.85c9.49-2.88,16.07-7.85,20.73-13.7-4.45-5.07-14.57-6.98-25.31-4.12-12.01,3.19-20.41,11.14-20.13,18.45,7.07,2.02,15.29,2.24,24.72-.63Z"/>
          </g>
          <path class="cls-38" d="m1298.18,517.77c-65.82,0-149.51,28.61-149.51,153.17,0,13.98.12,30.08.12,30.08,0,0,58.55-47.98,154.5-47.98,83.01,0,144.29,47.98,144.29,47.98,0,0,.11-16.11.11-30.08,0-124.56-84.14-153.17-149.5-153.17Z"/>
          <path class="cls-28" d="m1492.34,1049.42h-55.73c9.05,61.9,17.04,197.76,24.71,223.62l43.36-3.31c3.53-27.41-1.81-122.44-5.49-168-1.49-18.58-4.01-36.15-6.85-52.31Z"/>
          <path class="cls-28" d="m1459.13,1257.29c-2.18,25.52,1.23,144.17,1.23,175.65,0,60.35,12,92.37,13.88,125.66l22.23.25c3.11-34.32,6.06-68.01,6.06-128.39,0-31.47,4.2-147.65,2.03-173.17h-45.43Z"/>
          <path class="cls-38" d="m1498.04,1541.37s6.09,56.94-.57,66.46c-6.65,9.53-34.5,21.35-41.84,13.35-2.08-2.26,2.36-5.37,9.94-7.96,8.44-2.9,13.24-9.71,14.36-15.45.83-4.25,1.57-11.2-.84-12.28-2.39-1.08-7.17,3.84-9.53,8.81-3.38,7.12-6.75,10.75-10.1,9.25-2.6-1.17-2.55-4.68,1.36-12.91,3.89-8.21,11.65-49.41,11.65-49.41l25.56.14Z"/>
          <path class="cls-26" d="m1441.3,1484.69h-295.63s38.75,702.33,47.68,813.84h77.59s-1.32-473.94,14.63-709.98c0,0,15.57.23,16.16.09,16.63,232.78,10.65,709.89,10.65,709.89h73.72c8.95-111.51,55.19-813.84,55.19-813.84Z"/>
          <polygon class="cls-38" points="1441.3 995.67 1323.2 965.54 1293.48 965.54 1263.76 965.54 1145.67 995.67 1145.67 1549.13 1441.3 1549.13 1441.3 995.67"/>
          <path class="cls-38" d="m1513.26,1089.8l-17.67-65.7c-6.9-25.68-30.67-41.64-53.08-35.61-22.41,6.02-34.97,31.73-28.07,57.43l17.66,65.7,81.15-21.82Z"/>
          <g>
            <path class="cls-35" d="m1103.89,1049.42h55.74c-9.05,61.9-17.03,197.76-24.71,223.62l-43.37-3.31c-3.53-27.41,1.81-122.44,5.49-168,1.49-18.58,4.01-36.15,6.84-52.31Z"/>
            <path class="cls-25" d="m1137.11,1257.29c2.19,25.52-1.23,144.17-1.23,175.65,0,60.35-12.01,92.37-13.88,125.66l-22.22.25c-3.13-34.32-6.07-68.01-6.07-128.39,0-31.47-4.21-147.65-2.04-173.17h45.44Z"/>
          </g>
          <path class="cls-38" d="m1082.97,1089.8l17.66-65.7c6.91-25.68,30.68-41.64,53.08-35.61,22.41,6.02,34.97,31.73,28.07,57.43l-17.66,65.7-81.16-21.82Z"/>
          <path class="cls-28" d="m1321.74,911.6c-16.78-5.62-33.56-5.62-50.35,0,3.36,17.98-1.62,35.95-3.66,53.94.08,16.12,13.18,29.15,29.31,29.15s29.22-13.04,29.31-29.15c-2.04-17.99-7.98-35.95-4.62-53.94Z"/>
          <path class="cls-8" d="m1097.96,1541.37s-6.08,56.94.58,66.46c6.64,9.53,34.49,21.35,41.84,13.35,2.08-2.26-2.36-5.37-9.94-7.96-8.43-2.9-13.24-9.71-14.36-15.45-.83-4.25-1.57-11.2.85-12.28,2.37-1.08,7.16,3.84,9.52,8.81,3.38,7.12,6.76,10.75,10.1,9.25,2.58-1.17,2.54-4.68-1.37-12.91-3.88-8.21-11.64-49.41-11.64-49.41l-25.56.14Z"/>
          <g>
            <path class="cls-38" d="m1214.67,815.07l-35.46,24.48c27.05,40.42,70.53,82.45,119.6,82.45s91.2-41.25,118.34-81.21l-38.5-25.72h-163.97Z"/>
            <g>
              <line class="cls-19" x1="1378.65" y1="815.07" x2="1444.33" y2="713.5"/>
              <line class="cls-19" x1="1214.36" y1="815.07" x2="1148.67" y2="713.5"/>
            </g>
          </g>
          <g>
            <path class="cls-37" d="m1305.56,585.62c-90.98,0-148.24,43.07-153.93,47.54-1.23,3.92-2.96,20.15-2.96,26.42,0,13.97.12,13.57.12,13.57,0,0,58.55-47.98,154.5-47.98,83.01,0,144.29,47.98,144.29,47.98,0,0,.11-1.91.11-15.88,0-6.27-1.01-18.6-2.72-24.09-5.73-4.32-60.53-47.56-139.4-47.56Z"/>
            <g>
              <path class="cls-12" d="m1341.09,607.9c0,22.03-17.86,39.88-39.88,39.88s-39.87-17.85-39.87-39.88,17.85-39.88,39.87-39.88,39.88,17.85,39.88,39.88Z"/>
              <path class="cls-37" d="m1322.79,607.9c0,11.92-9.66,21.59-21.59,21.59s-21.58-9.66-21.58-21.59,9.66-21.59,21.58-21.59,21.59,9.66,21.59,21.59Z"/>
            </g>
          </g>
        </g>
        <g>
          <path class="cls-35" d="m862.5,1417.34l-27.89-82.92-239.44,2.73-31.77,80.19h.05c3.38,33.51-.87,62.58,3.05,102.41,13.24,134.57,61.77,638.1,71.83,757.84,0,0-.02,0-.02.01,0,0,3.76,31.47-2.84,41.32-5.59,8.34-31.75,21.36-31.75,21.36l47.35-1.69,28.41-41.72s.38-10.45.77-22.44h-.07c1.69-62.22,14.77-528.96,31.99-759.64,17.16,229.78,38.69,782.08,38.69,782.08l28.41,41.72,47.37,1.69s-26.17-13.01-31.76-21.36c-5.01-7.48-4.06-27.38-3.31-36.55h.07c.12-1.5.25-3.11.38-4.73v-.04h0c10.55-126.75,48.9-624.75,61.99-757.85,4.09-41.43,3.53-54.2,8.48-102.42Z"/>
          <path class="cls-13" d="m762.83,497.91c-24.83,0-35.05,8.1-36.87,9.75-1.83-1.65-12.04-9.75-36.86-9.75-109.58,0-128.57,116.4-128.57,179.82v427.96h330.87v-427.96c0-63.43-18.99-179.82-128.57-179.82Z"/>
          <g>
            <path class="cls-35" d="m870.32,773.98c0,45.09-100.85,155.75-152.58,155.75h-2.6c-56.17,0-155.19-101.11-155.19-155.75v-95.03c0-89.7,69.46-162.42,155.19-162.42h0c85.71,0,155.18,72.72,155.18,162.42v95.03Z"/>
            <g>
              <path class="cls-25" d="m889.08,746.12c0,17-9.6,30.79-21.42,30.79s-21.41-13.78-21.41-30.79,9.59-30.78,21.41-30.78,21.42,13.79,21.42,30.78Z"/>
              <path class="cls-35" d="m581.29,746.12c0,17-9.58,30.79-21.4,30.79s-21.41-13.78-21.41-30.79,9.59-30.78,21.41-30.78,21.4,13.79,21.4,30.78Z"/>
            </g>
            <path class="cls-13" d="m874.36,616.46c-12.84-5.29-22.46-22.65-22.46-22.65-.02.02-.06.07-.08.1-.5-.87-.95-1.74-1.49-2.62-49.73-83.11-126.41-80.76-135.75-80.59-9.34-.17-86.03-2.53-135.76,80.59-.51.85-.96,1.69-1.45,2.54,0,0,0-.02-.02-.02,0,0-9.63,17.36-22.46,22.65-20.6,8.47-12.86,134.76,1.75,152.29.25.28.64.36,1.03.42v4.37s10.88-1.44,15.66-13.73c6.78-10.54,11.57-37.05,13.66-66.02,15.48-35.42,50.59-72.56,127.58-72.56,96.76,0,120.98,32.44,127.03,61.8.45,9.35,1.18,18.63,2.18,27.41.1,1.46.28,2.97.54,4.53,2.79,22,7.25,40.12,13.03,46.86,0,0,6.3,4.9,10.92,6.74,1.92,3.08,3.2,4.97,3.2,4.97v-4.32c.44-.07.86-.17,1.12-.47,14.62-17.53,22.37-143.82,1.76-152.29Z"/>
            <g>
              <path class="cls-27" d="m853.63,725.93c4.64-7.09,8.31-15.97,11.2-24.64,2.89-8.79,5.07-17.87,6.62-27.09,3.13-18.44,3.88-37.36,3.01-56.22,2.35,18.72,3.09,37.77,1.39,56.8-.83,9.5-2.34,18.99-4.62,28.35-2.4,9.42-5.15,18.48-10.17,27.64-1.17,2.16-3.89,2.95-6.05,1.77-2.14-1.19-2.93-3.89-1.76-6.04.05-.1.11-.2.18-.3l.19-.26Z"/>
              <path class="cls-27" d="m859.61,750.08c4.56-8.42,8.3-17.98,11.4-27.45,3.1-9.56,5.55-19.36,7.34-29.29,3.58-19.89,4.54-40.33,2.8-60.66,3.2,20.14,3.77,40.79,1.59,61.28-1.09,10.24-2.85,20.43-5.32,30.48-2.54,10.1-5.51,19.88-9.95,29.75-1,2.25-3.64,3.23-5.86,2.22-2.25-1.01-3.24-3.63-2.24-5.87.04-.09.09-.19.15-.29l.1-.18Z"/>
              <path class="cls-27" d="m872.58,619.81c.2,15.45-.7,30.94-3.1,46.37-1.22,7.7-2.86,15.4-5.34,22.98-2.54,7.52-5.78,15.14-11.67,21.7-1.62,1.84-4.44,2-6.27.36-1.83-1.63-2-4.44-.36-6.27.11-.12.22-.24.35-.34,4.95-4.51,8.74-11.04,11.73-17.84,3-6.83,5.31-14.11,7.23-21.49,3.77-14.81,6.16-30.09,7.43-45.47Z"/>
            </g>
            <g>
              <path class="cls-27" d="m567.64,731.64c-4.78-9.3-7.37-18.46-9.62-27.96-2.13-9.44-3.53-18.99-4.31-28.56-1.57-19.13-.84-38.28,1.41-57.14-.8,18.98-.07,38.01,2.9,56.62,1.47,9.31,3.55,18.48,6.3,27.39,2.73,8.79,6.21,17.81,10.74,25.13l.15.25c1.27,2.05.63,4.73-1.41,5.99-2.04,1.25-4.72.63-5.99-1.42-.06-.09-.12-.2-.16-.29Z"/>
              <path class="cls-27" d="m561.57,755.31c-4.22-10.02-7.02-19.91-9.41-30.1-2.31-10.15-3.96-20.41-4.98-30.72-2.02-20.6-1.46-41.37,1.6-61.68-1.62,20.47-.69,41.03,2.7,61.11,1.71,10.03,4.03,19.93,6.96,29.62,2.96,9.61,6.52,19.31,10.91,27.94l.08.16c1.09,2.15.23,4.76-1.9,5.85-2.14,1.08-4.76.24-5.84-1.9-.06-.09-.1-.19-.13-.28Z"/>
              <path class="cls-27" d="m556.89,619.84c1.23,15.43,3.5,30.79,7.08,45.72,1.81,7.44,4,14.79,6.85,21.75,2.86,6.89,6.44,13.61,11.27,18.32l.03.02c1.72,1.68,1.75,4.43.08,6.15-1.68,1.71-4.43,1.75-6.16.08-.1-.11-.2-.23-.3-.33-5.67-6.79-8.66-14.47-11.05-22.06-2.32-7.62-3.84-15.36-4.98-23.11-2.21-15.48-3.03-31.03-2.81-46.53Z"/>
            </g>
            <g>
              <path class="cls-8" d="m882.38,775.04c0,4.59-3.72,8.31-8.3,8.31s-8.31-3.72-8.31-8.31,3.72-8.31,8.31-8.31,8.3,3.72,8.3,8.31Z"/>
              <path class="cls-15" d="m561.69,775.04c0,4.59-3.71,8.31-8.3,8.31s-8.31-3.72-8.31-8.31,3.72-8.31,8.31-8.31,8.3,3.72,8.3,8.31Z"/>
            </g>
          </g>
          <path class="cls-5" d="m566.49,1519.77c3.24,32.99,7.87,87.52,13.15,152.75h261.8c4.94-65.22,9.33-119.76,12.58-152.75,4.09-41.43,3.53-54.2,8.48-102.42l-27.89-82.92-239.44,2.73-31.77,80.19h.05c3.38,33.51-.87,62.58,3.05,102.41Z"/>
          <polygon class="cls-32" points="867.93 1418.76 796.5 1213.65 811.3 1070.95 828.97 990.23 738.52 968.5 690.03 968.5 599.59 990.23 618.23 1071.46 632.05 1213.64 559.64 1418.76 867.93 1418.76"/>
          <path class="cls-15" d="m705.33,1011.04l8.7,4.6.19.11v.26c1.05,26.6,1.54,53.2,2.06,79.81l.55,79.81c-.25,26.6-.16,53.2-.69,79.82-.46,26.59-1.05,53.19-2.25,79.81-1.23-26.61-1.82-53.21-2.3-79.81-.55-26.61-.47-53.22-.74-79.82l.51-79.81c.51-26.6.99-53.21,2.01-79.81l.22.37-8.26-5.35Z"/>
          <g>
            <path class="cls-15" d="m706.43,1044.71c0,2.25-1.82,4.06-4.06,4.06s-4.05-1.82-4.05-4.06,1.81-4.06,4.05-4.06,4.06,1.82,4.06,4.06Z"/>
            <path class="cls-15" d="m706.43,1094.62c0,2.24-1.82,4.06-4.06,4.06s-4.05-1.82-4.05-4.06,1.81-4.06,4.05-4.06,4.06,1.82,4.06,4.06Z"/>
            <path class="cls-15" d="m706.43,1144.52c0,2.25-1.82,4.05-4.06,4.05s-4.05-1.81-4.05-4.05,1.81-4.06,4.05-4.06,4.06,1.82,4.06,4.06Z"/>
            <path class="cls-15" d="m706.43,1194.44c0,2.23-1.82,4.05-4.06,4.05s-4.05-1.82-4.05-4.05,1.81-4.07,4.05-4.07,4.06,1.82,4.06,4.07Z"/>
            <path class="cls-15" d="m706.43,1244.32c0,2.25-1.82,4.06-4.06,4.06s-4.05-1.81-4.05-4.06,1.81-4.06,4.05-4.06,4.06,1.82,4.06,4.06Z"/>
            <path class="cls-15" d="m706.43,1294.23c0,2.25-1.82,4.06-4.06,4.06s-4.05-1.81-4.05-4.06,1.81-4.05,4.05-4.05,4.06,1.82,4.06,4.05Z"/>
          </g>
          <path class="cls-35" d="m737.72,968.5h-4.23c-2.12-16.81-1.82-33.6,1.23-50.4-14.43-4.95-28.86-4.95-43.29,0,3.06,16.8,3.37,33.59,1.24,50.4h-3.46l-27.81,6.18,15.1,18.87,37.3,22.47,24.05-19.26,23.79-20.58-23.93-7.67Z"/>
          <g>
            <path class="cls-34" d="m732.44,955.98h-.08c.22,4.17.59,8.35,1.13,12.53h4.23l11.18,3.63c2.86-2.97,4.87-5.87,6.62-8.22-4.83-10.48-22.94-5.94-22.94-5.94l-.14-1.99Z"/>
            <path class="cls-42" d="m763.1,955.2c-3.8-2.58-7.71-4.72-7.71-4.72l-23.29.41.48,7.07s18.11-4.54,22.94,5.94c-12.09,16.18-36.6,48.28-36.6,48.28,0,0,3.75-4.66,7.9-3.72,3.88.89,12.61,19.7,12.61,19.7,0,0,6.95-15.49,20.01-33.84,13.43-18.88,16.78-30.2,3.66-39.12Z"/>
          </g>
          <g>
            <path class="cls-34" d="m693.63,955.98h.08c-.21,4.17-.59,8.35-1.11,12.53h-4.25l-11.18,3.63c-2.86-2.97-4.87-5.87-6.61-8.22,4.82-10.48,22.94-5.94,22.94-5.94l.12-1.99Z"/>
            <path class="cls-42" d="m662.98,955.2c3.78-2.58,7.69-4.72,7.69-4.72l23.3.41-.47,7.07s-18.12-4.54-22.94,5.94c12.08,16.18,36.59,48.28,36.59,48.28,0,0-3.94-2.96-9.4-3.24-4.91-.25-11.1,19.22-11.1,19.22,0,0-6.95-15.49-20.02-33.84-13.43-18.88-16.77-30.2-3.65-39.12Z"/>
          </g>
          <g>
            <path class="cls-35" d="m846.75,1005.09c-4.63-21.94-49.35-23.94-41.58,24.39,1.57,19.19,32.33,167.97,42,192.91l40.45-6.81c.97-26.72-35.38-184.46-40.87-210.49Z"/>
            <path class="cls-35" d="m844.95,1211.14c-3.89,24.49-4.18,71.67-6.45,102.05-4.36,58.29,4.63,90.05,3.99,122.3l20.9,1.83c5.4-32.92,10.6-65.26,14.96-123.53,2.27-30.4,9.55-74.66,9.34-99.45l-42.73-3.2Z"/>
            <path class="cls-35" d="m863.26,1435.64s4.47,40.31-2.47,49.05c-6.96,8.73-33.98,18.19-40.32,9.93-1.78-2.32,2.61-5.01,9.92-6.98,8.14-2.21,13.15-8.44,14.62-13.92,1.09-4.03,2.28-10.71.11-11.91-2.18-1.21-7.03,3.2-9.61,7.83-3.69,6.64-7.13,9.92-10.17,8.23-2.34-1.31-2.05-4.69,2.22-12.37,4.24-7.65,14.84-31.55,14.84-31.55l20.85,1.68Z"/>
          </g>
          <path class="cls-32" d="m870.12,1083.36l-11.15-58.78c-4.22-22.25-20.38-37.88-36.07-34.92-15.69,2.99-25,23.45-20.77,45.7l13.6,66.13,54.39-18.13Z"/>
          <g>
            <path class="cls-35" d="m575.72,1005.09c4.62-21.94,49.34-23.94,41.59,24.39-1.59,19.19-32.34,167.97-42,192.91l-40.45-6.81c-.98-26.72,35.38-184.46,40.86-210.49Z"/>
            <path class="cls-35" d="m577.52,1211.14c3.89,24.49,4.18,71.67,6.45,102.05,4.35,58.29-4.63,90.05-3.99,122.3l-20.9,1.83c-5.4-32.92-10.6-65.26-14.96-123.53-2.27-30.4-9.55-74.66-9.33-99.45l42.73-3.2Z"/>
            <path class="cls-35" d="m559.21,1435.64s-4.46,40.31,2.48,49.05c6.96,8.73,33.98,18.19,40.33,9.93,1.77-2.32-2.62-5.01-9.93-6.98-8.15-2.21-13.15-8.44-14.62-13.92-1.1-4.03-2.29-10.71-.11-11.91,2.18-1.21,7.03,3.2,9.6,7.83,3.7,6.64,7.14,9.92,10.17,8.23,2.35-1.31,2.05-4.69-2.21-12.37-4.25-7.65-14.85-31.55-14.85-31.55l-20.85,1.68Z"/>
          </g>
          <path class="cls-32" d="m552.36,1083.36l11.15-58.78c4.23-22.25,20.38-37.88,36.08-34.92,15.69,2.99,25,23.45,20.77,45.7l-13.61,66.13-54.39-18.13Z"/>
          <g>
            <path class="cls-34" d="m822.34,625.51c-65.1-45.62-146-45.62-211.1,0-16.79-33.63-33.57-67.27-50.35-100.9,96.16-67.38,215.66-67.38,311.8,0-16.78,33.63-33.56,67.27-50.35,100.9Z"/>
            <polygon class="cls-15" points="757.77 520.91 728.32 520.91 728.32 491.27 705.26 491.27 705.26 520.91 675.82 520.91 675.82 544.13 705.26 544.13 705.26 573.78 728.32 573.78 728.32 544.13 757.77 544.13 757.77 520.91"/>
          </g>
        </g>
      </g>
      <g>
        <path class="cls-33" d="m1090.69,1106.86c0,8.08-30.8,14.64-68.82,14.64s-68.81-6.56-68.81-14.64,30.8-14.65,68.81-14.65,68.82,6.56,68.82,14.65Z"/>
        <g>
          <path class="cls-25" d="m1224.65,1155.09s-4.99-33.99-35.96-30.41c-25.33,2.93-27.22,26.55-24.53,37.4,17.26,69.34,40.21,214.79,51.53,249.45l50.1-9.79c-4.43-39.34-14.88-143.19-24.58-192.2-3.96-19.97-11.44-37.28-16.55-54.45Z"/>
          <path class="cls-25" d="m1215.45,1403.96c1.07,45.43,5.94,88.67,5.94,123.04,0,65.97,8.63,130,10.66,166.35l24.3.3c3.4-37.5,11.8-266.43,9.43-294.32l-50.34,4.63Z"/>
          <path class="cls-35" d="m1256.06,1691.78s8.65,44.98,1.37,55.4c-7.28,10.41-37.67,23.33-45.72,14.57-2.26-2.47,2.59-5.86,10.87-8.69,9.21-3.17,14.46-10.61,15.69-16.89.9-4.64,1.71-12.25-.91-13.42-2.62-1.18-7.83,4.2-10.4,9.62-3.69,7.78-7.38,11.76-11.04,10.12-2.82-1.28-2.77-5.12,1.49-14.1,4.25-8.98,14.42-36.76,14.42-36.76l24.24.15Z"/>
        </g>
        <path class="cls-15" d="m1205.81,1407.36c.6,17.61,1.7,34.57,2.76,50.98,1.31,20.32,2.55,39.49,2.55,56.07,0,43.24,8.55,173.01,8.95,177.5h52.61c3.67-68.68,6.46-275.81,4.47-299.21l-1.29-12.08-.28.02-.83-7.53c-4.93-45.45-13.18-121.51-21.02-161.13-2.62-13.18-6.64-24.87-10.52-36.16-1.83-5.29-3.61-10.49-5.18-15.68-2.52-14.67-14.98-41.73-47.14-38-15.12,1.74-23.38,9.46-27.66,15.62-7.85,11.34-8.06,25.73-5.85,34.61,7.81,31.34,16.76,78.86,25.42,124.81,9.25,49.03,17.27,91.58,23.02,110.2Z"/>
        <g>
          <path class="cls-25" d="m822.61,1155.09s4.99-33.99,35.97-30.41c25.33,2.93,27.22,26.55,24.52,37.4-17.26,69.34-40.21,214.79-51.53,249.45l-50.1-9.79c4.43-39.34,14.88-143.19,24.59-192.2,3.95-19.97,11.44-37.28,16.55-54.45Z"/>
          <path class="cls-25" d="m831.8,1403.96c-1.07,45.43-5.95,88.67-5.95,123.04,0,65.97-8.63,130-10.67,166.35l-24.29.3c-3.4-37.5-11.8-266.43-9.43-294.32l50.34,4.63Z"/>
          <path class="cls-35" d="m791.19,1691.78s-8.64,44.98-1.37,55.4c7.27,10.41,37.67,23.33,45.71,14.57,2.26-2.47-2.59-5.86-10.86-8.69-9.21-3.17-14.46-10.61-15.69-16.89-.9-4.64-1.7-12.25.92-13.42,2.61-1.18,7.83,4.2,10.41,9.62,3.68,7.78,7.38,11.76,11.04,10.12,2.82-1.28,2.77-5.12-1.5-14.1-4.24-8.98-14.42-36.76-14.42-36.76l-24.24.15Z"/>
        </g>
        <path class="cls-15" d="m842.25,1407.09c-.6,17.61-1.7,34.58-2.76,50.99-1.32,20.31-2.56,39.48-2.56,56.06,0,43.23-8.54,173.02-8.95,177.5h-52.61c-3.67-68.68-6.47-275.82-4.47-299.22l1.28-12.09.29.03.82-7.53c4.93-45.45,13.18-121.52,21.03-161.14,2.62-13.18,6.63-24.87,10.53-36.16,1.81-5.3,3.61-10.49,5.16-15.67,2.52-14.68,14.97-41.73,47.14-38.02,15.12,1.75,23.39,9.46,27.65,15.63,7.86,11.34,8.06,25.72,5.86,34.6-7.81,31.34-16.77,78.86-25.43,124.81-9.24,49.03-17.26,91.59-23,110.2Z"/>
        <g>
          <g>
            <path class="cls-35" d="m1193.02,867.45c0,20.87-11.1,37.79-24.81,37.79s-24.8-16.92-24.8-37.79,11.1-37.79,24.8-37.79,24.81,16.91,24.81,37.79Z"/>
            <path class="cls-35" d="m891.89,867.45c0,20.87-11.1,37.79-24.81,37.79s-24.82-16.92-24.82-37.79,11.11-37.79,24.82-37.79,24.81,16.91,24.81,37.79Z"/>
          </g>
          <path class="cls-35" d="m1168.5,885.63c0,31.88-67.63,160.07-151.06,160.07h0c-83.42,0-151.05-126.62-151.05-160.07v-132.63c0-88.39,67.63-160.05,151.05-160.05h0c83.43,0,151.06,71.66,151.06,160.05v132.63Z"/>
          <path class="cls-36" d="m1130.77,650.88c-29.44-51.24-122.31-93.86-204.18-32.31-6.35,4.77-11.74,9.36-16.48,13.71-47.93,31.07-83.33-6.77-83.33-6.77,1.11,23.6,12.22,39.06,23.2,48.7-14.28.53-28.5-3.75-46.16-12.73,0,0,17.63,53.75,62.88,74.34v139.6s17.6-1.56,17.6-27.72v-37.13c0-49.32,40.36-63.17,57.15-66.81,51.61.09,86.94.36,112.39.36,2.4,0,4.96-.05,7.59-.14,1.16.08,2.34.14,3.64.14,67.36,0,89.36,67,89.36,97.6,0,26.37,13.87,32.33,17.72,33.49v-161.12c0-49.43-26.75-60.7-41.37-63.2Z"/>
        </g>
        <path class="cls-2" d="m1183.11,1570.25h-323.01s38,753.19,47.77,875.03h84.78s-1.44-503.65,15.99-761.55c0,0,17.02.26,17.67.1,18.17,254.35,11.63,761.45,11.63,761.45h80.54c9.78-121.85,64.64-875.03,64.64-875.03Z"/>
        <polygon class="cls-15" points="1183.11 1122.71 1054.09 1098.3 1021.6 1098.3 989.12 1098.3 860.09 1122.71 860.09 1886.76 1183.11 1886.76 1183.11 1122.71"/>
        <polygon class="cls-10" points="1102.71 1107.51 1054.09 1098.3 989.12 1098.3 938.61 1107.87 1021.16 1336.98 1102.71 1107.51"/>
        <path class="cls-35" d="m1048.14,1039.36c-18.32-6.13-36.67-6.13-55.01,0,3.67,19.64-1.77,39.3-4,58.94,0,5.24,32.03,37.12,32.03,37.12,0,0,32.03-31.34,32.03-37.12-2.23-19.64-8.71-39.3-5.05-58.94Z"/>
        <path class="cls-16" d="m1021.16,1336.98l65.1-105.91-15.59-13.43,22.85-1.86,24.41-105.4s-12.83-14.01-33.71-21.85c-17.92-6.73-33.01-3.45-33.01-3.45,1.01,5.98,1.86,13.74,1.86,13.74,0,0,15.96-4.82,24.91,1.66,4.8,3.48,5.53,9.01,4.35,14.4-4.57,20.91-61.17,222.09-61.17,222.09Z"/>
        <path class="cls-16" d="m1020.66,1336.98l-65.1-105.91,15.59-13.43-22.85-1.86-24.42-105.4s12.83-14.01,33.71-21.85c17.93-6.73,33.39-3.45,33.39-3.45-1,5.98-1.85,13.22-1.85,13.22,0,0-16.34-4.3-25.28,2.19-4.8,3.48-5.54,9.01-4.36,14.4,4.58,20.91,61.18,222.09,61.18,222.09Z"/>
        <path class="cls-16" d="m1021.16,1336.98c.96,21.93,1.37,43.87,2.07,65.8l1.18,65.8c.7,43.87.63,87.73.99,131.6-.33,43.87-.3,87.73-.97,131.6l-1.19,65.8c-.7,21.93-1.12,43.87-2.08,65.8-.96-21.93-1.38-43.87-2.08-65.8l-1.19-65.8c-.68-43.87-.64-87.73-.97-131.6.36-43.87.29-87.73.99-131.6l1.18-65.8c.7-21.93,1.12-43.87,2.07-65.8Z"/>
        <g>
          <g>
            <rect class="cls-16" x="889.43" y="1611.24" width="98.35" height="116.89"/>
            <rect class="cls-30" x="884.64" y="1599.83" width="107.92" height="22.82"/>
          </g>
          <g>
            <rect class="cls-16" x="1056.81" y="1611.24" width="98.35" height="116.89"/>
            <rect class="cls-30" x="1052.02" y="1599.83" width="107.92" height="22.82"/>
          </g>
        </g>
        <g>
          <polygon class="cls-4" points="1021.15 1135.43 1053.19 1097.7 1080.77 1103.35 1049.42 1163.06 1021.15 1135.43"/>
          <polygon class="cls-4" points="1021.16 1135.43 989.12 1097.7 961.53 1103.35 992.89 1163.06 1021.16 1135.43"/>
        </g>
        <polygon class="cls-9" points="1036.8 1190.42 1056.47 1170.74 1021.16 1135.43 985.84 1170.74 1005.52 1190.42 1036.8 1190.42"/>
        <polygon class="cls-2" points="1036.8 1190.42 1021.6 1190.42 1020.66 1190.42 1005.47 1190.42 993.61 1240.33 1020.66 1337.88 1048.31 1239.95 1036.8 1190.42"/>
        <g>
          <g>
            <path class="cls-12" d="m877.81,1232.71l75.96-14.86c17.33-3.39,25.74,7.3,27.77,13.44.25.7,28.71,79.01,39.27,107.31,2.22,5.91,2.18,11.2-.06,15.7-3.52,6.98-11.17,9.21-11.5,9.3l-23.44,4.58-1.21-6.19,23.18-4.52c-.09,0,5.16-1.61,7.37-6.07,1.42-2.86,1.35-6.42-.21-10.61-10.56-28.31-39.05-106.65-39.33-107.45-.2-.58-4.51-12.46-20.65-9.31l-75.95,14.86c-16.3,3.19-15.66,15.77-15.61,16.3.02.94,3.17,84.23,4.04,114.45.14,4.46,1.42,7.8,3.81,9.91,3.77,3.32,9.32,2.79,9.37,2.79l22.94-4.48,1.2,6.19-23.18,4.53c-.59.08-8.52.91-14.39-4.24-3.8-3.32-5.81-8.21-6-14.52-.86-30.18-4.03-113.45-4.05-114.3-.43-6.35,3.33-19.42,20.66-22.81Z"/>
            <path class="cls-3" d="m877.34,1230.39l75.96-14.85c18.93-3.69,28.2,8.2,30.45,15.02h0s8.99,24.73,18.77,51.49c1.04,2.86-.41,6.02-3.24,7.07-2.86,1.04-5.98-.43-7.03-3.29-9.8-26.85-18.82-51.67-18.82-51.67-.42-1.17-4.2-10.51-18.01-7.81l-75.95,14.86c-14.32,2.79-13.76,13.38-13.72,13.84,0,.17.99,26.46,2.02,54.98.11,3.02-2.24,5.58-5.27,5.68-3.02.11-5.56-2.28-5.66-5.31-1.04-28.49-2.04-54.8-2.04-54.8-.46-7,3.62-21.51,22.55-25.22Z"/>
            <g>
              <path class="cls-36" d="m887.42,1379.01c-.05-1.24,1.04-2.72,2.32-3.22,6.26-3.79,12.21-6.99,17.82-7.8,1.27.14,2.87,1.22,3.46,2.35,2.81,5.63,3.99,11.58,3.49,17.85-.13,1.27-1.21,2.89-2.32,3.49-5.5,1.36-12.21.64-19.44-.51-1.37,0-2.94-.96-3.37-2.11-1.18-3.25-1.84-6.59-1.96-10.05Z"/>
              <path class="cls-36" d="m1000,1356.99c-.43-1.16-1.99-2.13-3.36-2.11-7.23-1.16-13.95-1.87-19.45-.51-1.12.6-2.2,2.2-2.32,3.48-.49,6.27.68,12.22,3.49,17.85.59,1.13,2.2,2.23,3.47,2.35,5.61-.81,11.56-4,17.82-7.8,1.27-.51,2.36-1.97,2.33-3.22-.13-3.45-.8-6.8-1.97-10.04Z"/>
            </g>
            <rect class="cls-12" x="902.59" y="1204.33" width="22.58" height="22.4" transform="translate(-216.41 198.12) rotate(-11.07)"/>
          </g>
          <path class="cls-12" d="m993.44,1067.93c-8.39,1.99-13.79,4.08-22.97,8.39-77.74,36.43-62.5,138.16-62.34,139.18l8.4-1.34c-.15-.96-14.46-96.4,57.55-130.14,7.92-3.72,11.23-5.57,18.49-7.44l.87-8.64Z"/>
        </g>
        <g>
          <path class="cls-12" d="m1139.09,1228.65c-13.64-12.55-8.97-32.54-3.54-55.68.82-3.54,1.67-7.13,2.46-10.78,5.17-23.69-5.37-57.38-50.5-80.87-8.61-4.49-20.96-11.78-39.47-15.4l1.54,9.94c16.22,3.47,25.59,8.6,34.01,12.99,34.71,18.08,51.94,44.82,46.12,71.53-.78,3.6-1.62,7.15-2.43,10.64-5.77,24.67-11.24,47.97,6.06,63.88,4.11,3.77,6.18,8.43,6.35,14.21.39,13.54-9.8,32.08-27.96,50.87l6.11,5.91c19.75-20.42,30.81-41.2,30.35-57.02-.24-8.08-3.3-14.89-9.09-20.22Z"/>
          <g>
            <path class="cls-1" d="m1069.54,1310.73c0-21.86,17.62-39.59,39.35-39.59s39.34,17.74,39.34,39.59-17.61,39.61-39.34,39.61-39.35-17.73-39.35-39.61Z"/>
            <path class="cls-6" d="m1076.53,1310.73c0-17.97,14.49-32.57,32.36-32.57s32.35,14.59,32.35,32.57-14.48,32.58-32.35,32.58-32.36-14.59-32.36-32.58Z"/>
            <path class="cls-1" d="m1083.93,1310.73c0-13.87,11.17-25.13,24.96-25.13s24.96,11.25,24.96,25.13-11.18,25.14-24.96,25.14-24.96-11.25-24.96-25.14Z"/>
          </g>
        </g>
      </g>
    </g>
  </g>
  <circle class="cls-23" cx="1357.38" cy="767.12" r="11.33"/>
  <path class="cls-23" d="m1260.93,769.56c0-6.26-5.07-11.33-11.33-11.33-6.26,0-11.33,5.07-11.33,11.33,0,6.26,5.07,11.33,11.33,11.33,6.26,0,11.33-5.07,11.33-11.33Z"/>
  <path class="cls-23" d="m1322.51,726.54s5.93,2.29,32.52,2.29c26.6,0,38.43,3.73,37.94,0-2.09-16.03-49.51-24.08-57.45-22.36-7.94,1.72-16.3,9.74-13.01,20.06Z"/>
  <path class="cls-23" d="m1277.62,725.5s-5.93,2.29-32.52,2.29c-26.6,0-38.43,3.73-37.94,0,2.09-16.03,49.51-24.08,57.45-22.36,7.94,1.72,16.3,9.74,13.01,20.06Z"/>
  <g>
    <g>
      <path class="cls-22" d="m967.63,864.14c0,8.02-6.5,14.52-14.52,14.52s-14.52-6.5-14.52-14.52,6.5-14.52,14.52-14.52,14.52,6.5,14.52,14.52Z"/>
      <path class="cls-22" d="m1102.11,864.14c0,8.02-6.5,14.52-14.52,14.52s-14.53-6.5-14.53-14.52,6.5-14.52,14.53-14.52,14.52,6.5,14.52,14.52Z"/>
    </g>
    <path class="cls-21" d="m1013.06,895.79l.02,19.6c0,4.94,4.39,8.65,9.08,7.66l10.42-2.19"/>
    <path class="cls-22" d="m996.26,819.14l-88.03,10.58s7.07-23.35,43.04-27.36c35.97-4.01,45,16.78,45,16.78Z"/>
    <path class="cls-22" d="m1047.02,819.14l88.03,10.58s-7.07-23.35-43.03-27.36c-35.97-4.01-45,16.78-45,16.78Z"/>
    <path class="cls-3" d="m976.35,945.52h88.88s1.5,33.08-44.56,31.14c-46.06-1.95-44.32-31.14-44.32-31.14Z"/>
  </g>
  <g>
    <polyline class="cls-20" points="748.42 802.1 749.52 818.92 732.9 818.95"/>
    <path class="cls-24" d="m665.77,699.19s31.81-1.25,31.69,8.98c0,0-.32,6.92-28.06,7.59-27.73.67-34.86-1.12-37.11-7.69-2.24-6.57,18.6-9.2,33.48-8.88Z"/>
    <path class="cls-24" d="m792.69,703.35s-26.09-2.8-28.65,6.74c0,0-1.53,6.47,21.33,8.52,22.86,2.05,30.42-.07,32.81-5.26,2.71-5.88-13.06-9.54-25.5-10.01Z"/>
    <path class="cls-17" d="m695.28,765.9s-14.18-20.25-40.44-.67"/>
    <path class="cls-17" d="m804.01,770.02s-12.62-20.08-30.21-1.32"/>
    <path class="cls-17" d="m722.06,848.87s-21.69,5.14-39.31-16.7"/>
  </g>
</svg>