<?xml version="1.0" encoding="UTF-8"?>
<svg id="Layer_1" data-name="Layer 1" xmlns="http://www.w3.org/2000/svg" xmlns:xlink="http://www.w3.org/1999/xlink" viewBox="0 0 2000 2000">
  <defs>
    <style>
      .cls-1 {
        fill: #f2936b;
      }

      .cls-2 {
        fill: #fff;
      }

      .cls-3 {
        fill: #1e3865;
      }

      .cls-4 {
        opacity: .5;
      }

      .cls-5 {
        opacity: .9;
      }

      .cls-6 {
        fill: #3c6aab;
      }

      .cls-7 {
        fill: #0b101d;
      }

      .cls-8 {
        opacity: .05;
      }

      .cls-9 {
        fill: #141a46;
      }

      .cls-10 {
        fill: #ffb359;
      }

      .cls-11 {
        stroke-width: 4.21px;
      }

      .cls-11, .cls-12, .cls-13, .cls-14, .cls-15, .cls-16, .cls-17, .cls-18 {
        fill: none;
      }

      .cls-11, .cls-14, .cls-15, .cls-18 {
        stroke-linecap: round;
        stroke-linejoin: round;
      }

      .cls-11, .cls-18 {
        stroke: #021833;
      }

      .cls-19 {
        fill: #455c78;
      }

      .cls-20 {
        fill: #331b19;
      }

      .cls-12 {
        stroke-dasharray: 0 12;
      }

      .cls-12, .cls-13, .cls-17 {
        stroke: #000;
        stroke-miterlimit: 10;
        stroke-width: 2px;
      }

      .cls-21 {
        fill: #0b181b;
      }

      .cls-22 {
        fill: #793641;
      }

      .cls-14 {
        stroke-width: 6.46px;
      }

      .cls-14, .cls-15 {
        stroke: #1b172c;
      }

      .cls-23 {
        fill: #cc7646;
      }

      .cls-24 {
        fill: #fbfbfb;
      }

      .cls-15 {
        stroke-width: 8.1px;
      }

      .cls-25 {
        fill: #285389;
      }

      .cls-26 {
        clip-path: url(#clippath);
      }

      .cls-27 {
        fill: #d5dce0;
      }

      .cls-28 {
        fill: #467743;
      }

      .cls-29 {
        fill: #f8ba8c;
      }

      .cls-30 {
        fill: #99aef9;
      }

      .cls-31 {
        fill: #352e35;
      }

      .cls-17 {
        stroke-dasharray: 0 0 12.02 12.02;
      }

      .cls-32 {
        fill: #31558a;
      }

      .cls-33 {
        fill: #0b5b07;
      }

      .cls-34 {
        fill: #e5f4fd;
      }

      .cls-35 {
        fill: #a1c9de;
      }

      .cls-18 {
        stroke-width: 5.29px;
      }

      .cls-36 {
        fill: #d1edfc;
      }

      .cls-37 {
        fill: #dfdfdf;
      }
    </style>
    <clipPath id="clippath">
      <path class="cls-16" d="m1737,1000c0,114.46-26.09,222.82-72.65,319.47-119.02,247.05-371.77,417.53-664.35,417.53s-545.33-170.48-664.35-417.53c-46.56-96.65-72.65-205.01-72.65-319.47,0-407.03,329.97-737,737-737s737,329.97,737,737Z"/>
    </clipPath>
  </defs>
  <path class="cls-36" d="m1737,1000c0,114.46-26.09,222.82-72.65,319.47-119.02,247.05-371.77,417.53-664.35,417.53s-545.33-170.48-664.35-417.53c-46.56-96.65-72.65-205.01-72.65-319.47,0-407.03,329.97-737,737-737s737,329.97,737,737Z"/>
  <path class="cls-35" d="m1594.73,1435.36c-134.11,182.9-350.56,301.64-594.73,301.64s-460.62-118.74-594.73-301.64h1189.46Z"/>
  <g class="cls-5">
    <g>
      <path class="cls-24" d="m759.99,1007.12s4.75,7.13,0,7.61c-4.76.47-2.85-1.43-5.71,2.85-2.86,4.28-.95,5.23-6.18,6.66-5.23,1.43-6.65.95-9.51,3.32-2.87,2.38-4.76,2.86-2.87,8.08,1.9,5.24,5.23,8.56,3.81,10.94-1.43,2.37-2.48,7.13-4.57,9.99-2.08,2.86-1.72,3.81,0,8.56,1.72,4.76-2.57,10.46,2.19,11.41,4.76.95,7.05,2.38,10.66,0,3.6-2.37,6.46,1.43,7.88-7.6,1.43-9.04,4.7-14.26,6.4-21.4,1.69-7.14,8.36-11.89,5.5-17.12-2.87-5.23-5.7-8.56-2.87-8.56s5.69-1.43,3.56-3.33c-2.13-1.9-.7-4.28-2.6-8.56-1.9-4.28-7.34-6.04-5.71-2.86Z"/>
      <path class="cls-24" d="m706.26,673.94s9.51-1.11,7.15,2.22c-2.39,3.33.37,3.33-3.39,4.28-3.76.95-6.61-5.23-6.61,0s3.33,7.61,0,8.56c-3.33.95-1.44-1.43-6.19,0-4.76,1.43-6.19.23-6.19.23,0,0-2.85-5.73,0-7.5,2.86-1.77,9.1-7.95,10.73-4.62,1.64,3.33,4.48-3.17,4.48-3.17Z"/>
      <g>
        <path class="cls-24" d="m635.88,739.41c-.59.89-1.74-.44-3.1-1.8,1.48,5.93,4,.45,3.1,1.8Z"/>
        <path class="cls-24" d="m1467.11,498.02c-.96-2.57-1.43-9.7-5.71-10.18-4.28-.48-4.75-2.85-8.56,0-3.8,2.85-5.23,4.76-8.09,3.33-2.85-1.43.96-10.94-1.9-11.41-2.85-.48-30.91-23.78-36.6-26.16-5.71-2.38-1.43-3.33-9.98-4.76-8.57-1.42-.49-4.28-9.99-3.8-9.52.48-15.71-4.87-15.23-.06.48,4.81,1.43,4.81.48,9.09-.97,4.28-2.85,11.89-5.71,10.46-2.85-1.43-2.38-4.76-5.23-8.56-2.86-3.8-1.43-9.98-7.61-6.66-6.18,3.33-1.9.95-9.99,1.43-8.07.47-11.41-3.33-13.31,0-1.9,3.33-4.75,7.6-4.75,9.03s-4.76,6.66-4.76,6.66l.95-8.09s1.91-9.98,0-8.56c-1.9,1.42-6.18,1.42-5.22-4.28.95-5.71,11.41-11.89-.95-12.84-12.36-.95-15.7.95-21.88,0-6.18-.95-9.51-1.98-11.41-.27-1.9,1.7-4.76.75-5.23-3.53s-1.43-2.38-4.76-4.76c-3.33-2.37-3.8-4.75-2.86-6.18.96-1.43-1.42-5.23-9.98-6.18-8.56-.95-1.9,5.23-8.56-.95-6.66-6.18-7.12-10.46-13.3-10.46s-9.99-5.71-12.84-2.38c-2.86,3.33,1.9.48-2.86,3.33-4.75,2.85-7.13,1.9-7.6,5.71-.48,3.8.47,6.18,2.38,5.23,1.9-.95.94-.95.47,2.38-.47,3.33-.95,3.8-.47,6.66.47,2.85-1.91,5.23-4.3,3.33-2.35-1.9-1.41-2.38-5.21-1.9-3.81.47-1.91-10.94-9.52-4.76-7.61,6.18-7.13,10.46-9.99,6.18-2.85-4.28-1.91-10.93-5.22-7.61-3.33,3.33-3.33,4.76-5.71,9.04-2.38,4.28-.96,7.6-4.29,6.18-3.32-1.42-5.22-3.8-6.65-8.56-1.43-4.76-8.09-6.18-4.76-9.51,3.33-3.33,4.76-2.38,3.33-7.13-1.43-4.76,1.91-5.89-1.43-9.6-3.33-3.71-6.65-12.75-9.03-8.47-2.37,4.28,1.91,7.61-4.76,3.81-6.66-3.81-5.23-11.41-8.56-7.13-3.33,4.28-6.19,7.13-6.65,10.46-.48,3.33-3.81,4.76-5.23,5.71-1.43.95,1.43-1.43-6.18-1.91-7.62-.47-7.62,0-11.89-4.75-4.28-4.76,6.66-4.28,1.43-7.61-5.24-3.33-5.24-4.91-9.52-3.17-4.28,1.75-12.37-3.18-14.27-.72-1.9,2.46-2.37-2.44-6.18-.7-3.81,1.74-7.61-2.03-10.46-.38-2.86,1.64-4.29,5.92-4.29,5.92,0,0-3.32,5.23-5.7,6.18-2.37.95-13.79,3.33-12.36-1.43,1.42-4.75,3.79-3.33,6.65-5.71,2.86-2.38,4.76-2.24,6.66-5.4,1.9-3.16,3.33-4.58,6.66-6.96,3.32-2.38,6.18-5.23,9.02-6.66,2.86-1.43,5.23-5.23,5.7-9.51.49-4.28,3.81-7.61,1.44-9.51-2.38-1.9-1.44-8.09-5.24-13.32-3.81-5.23,2.37-10.94-4.76-10.94h-11.89c-6.65,0-5.22,2.38-8.55,3.33-3.34.95-6.18,4.76-5.71.95.46-3.8,9.03-5.23,2.84-8.09-6.17-2.85-6.65-1.9-9.03-3.33-2.38-1.43,0-2.38,2.38-5.23,2.38-2.85,8.09-3.8,1.43-6.18-6.65-2.38-8.56-9.98-11.41-4.76-2.86,5.23-5.71,7.13-8.09,10.46-2.37,3.33-5.22,13.31-5.22,13.31l2.85,6.66s5.23,1.43,2.37,2.85c-2.84,1.43-3.8-.48-8.08-.48s-9.52-4.28-8.56-.48c.96,3.81,4.75,10.47-3.8,9.51-8.57-.95-2.39-9.51-8.09-9.03-5.71.48-9.51,5.23-11.41,5.71-1.9.48-6.66,1.9-9.51,4.28-2.86,2.38-10.46,3.8-12.36,7.13-1.91,3.33-9.98,7.13-9.51,10.46,0,0-1.9,1.9-4.76,4.75-2.85,2.86-5.09,2.86-3.96,5.23,1.11,2.38,6.82.48,5.39,5.7-1.43,5.24,1.43,6.18-2.85,7.14-4.28.95-3.33,0-8.09,1.43-4.76,1.43-3.8.95-9.98,2.38-6.19,1.43-24.25-4.28-18.06,1.43,6.17,5.7.95,10.46,2.85,13.31,1.9,2.85,6.18,2.85,7.61,5.71,1.42,2.86,5.71,4.28,5.71,6.66s3.33-6.18,3.8.47c.48,6.66,3.33,6.66,1.9,9.52-1.42,2.85-1.42.47-1.42,5.23s3.32,11.41-.95,8.57c-4.28-2.86-3.33-1.43-3.8-7.61-.48-6.18,1.9-.47-.48-6.18-2.37-5.71-.94-1.91-4.75-6.66-3.81-4.76-1.43-7.61-6.66-7.61s-8.56-6.18-9.97-1.9c-1.43,4.27,5.22,9.51-1.91,7.13-7.13-2.38-6.65,4.75-7.13-2.38-.48-7.13-4.28-18.07-7.14-16.17-2.85,1.9-4.27,2.86-2.37,7.14,1.9,4.28,5.71,5.23,1.43,9.51-4.28,4.28-6.19,1.42-6.19,5.7s-4.28,6.19-1.9,8.09c2.38,1.91,9.51,9.51,7.13,11.41-2.37,1.9-4.28,1.9-3.8,5.7.47,3.81-.95,8.09,1.43,9.52,2.37,1.43,4.75.95,8.55,1.43,3.81.47,6.19-1.9,7.61,3.33,1.43,5.23,5.7,4.28,4.29,9.51-1.43,5.23-4.29.48-1.43,5.23,2.85,4.76.47,9.99-2.38,5.71-2.86-4.28,1.9-9.99-1.9-13.32-3.81-3.32-2.85-7.13-6.19-3.32-3.33,3.8-1.9,6.18-4.28,10.93-2.37,4.76-.47,7.61-4.27,9.51-3.81,1.9-3.33,9.04-9.05,10.46-5.69,1.43-7.13.48-11.87-1.42-4.77-1.9-6.19-7.14-1.91-7.14s8.56,7.14,9.99,2.86c1.42-4.28,4.75-6.19,5.7-9.52.96-3.32,1.91-5.7,2.38-10.46.48-4.76,3.8,1.43.48-4.76-3.32-6.18-1.43-4.28-2.38-11.41-.94-7.14,0-6.65-.94-12.36-.96-5.7.46-14.26-2.38-15.22-2.85-.95-4.75-1.9-3.8-4.28.95-2.38.95-3.33,3.8-5.23,2.85-1.9,7.61-2.38,4.28-7.61-3.34-5.23,0-7.61-5.23-7.61s-7.62-3.8-10.94.48c-3.32,4.28,0,7.61-3.32,11.89-3.33,4.28-2.85,10.46-6.18,11.89-3.33,1.43-5.22-.48-5.22,4.75s-.49,4.76.95,8.09c1.42,3.33,2.37,6.19,1.42,8.56-.94,2.38-3.32,6.65-1.42,7.6,1.89.95,5.7-1.42,6.19,1.91.47,3.33,3.33.95,4.27,5.7.95,4.76,2.85,8.56-.49,9.51-3.31.95-4.74,1.43-8.08-3.33-3.33-4.76-5.69-7.61-9.98-9.99-4.28-2.38-3.81-2.38-8.56-5.23-4.76-2.85-6.66-4.76-9.51-3.8-2.87.95-8.1-6.66-7.62-.95.48,5.71.95,6.66.95,10.46s1.9,5.23-2.38,6.66c-4.28,1.43-1.9-4.28-5.23-3.33-3.33.95-1.43,0-5.24,3.81-3.8,3.8-3.32-.48-8.08.48-4.76.95-2.85,1.9-6.66,4.28-3.8,2.38.48,5.24-3.8,2.38-4.27-2.86.95-4.28-.95-7.61-1.9-3.32,1.9-5.7-1.9-3.32-3.81,2.38-3.34,2.85-7.15,5.7-3.8,2.85,3.33,0-3.8,2.85-7.13,2.86-7.13,0-9.99,3.81-2.85,3.81-6.18,2.86-7.61,6.19-1.43,3.33-.95,8.56-5.22,9.03-4.29.47-9.99.47-8.09-5.71q1.9-6.18,4.75-9.04c2.86-2.85.96-5.23-1.43-5.23s-4.28-3.81-6.18-.95c-1.9,2.86-2.38,5.71-2.38,9.04s-1.43,8.09-1.43,8.09c0,0,3.34,2.38,3.34,5.23s0,4.76-1.91,7.13c-1.91,2.38-3.33-5.71-5.71-3.81-2.37,1.9-5.23.95-5.23,3.33s-3.33,3.81-6.18,4.28c-2.86.47-2.38,1.9-4.76,5.23-2.37,3.33,5.24.95,2.86,6.18-2.38,5.23-1.43,4.28-7.61,3.33-6.18-.95-5.71-5.23-8.56-5.23s-5.71,1.9-2.37,4.76c3.32,2.85,8.56,1.43,6.18,5.71-2.38,4.28-4.75,7.13-8.56,3.33-3.81-3.81-.47.95-4.76-6.66-4.28-7.61-4.28-4.75-4.28-10.46s1.42-9.99-2.38-11.41c-3.81-1.43-8.56-1.43-8.56-6.18s1.43-4.76,3.81-1.43c2.39,3.33,4.29,2.85,8.56,3.81,4.29.95.95,2.85,9.04,4.28,8.08,1.43,8.56,5.71,13.31,2.38,4.75-3.33,14.27-.95,11.89-8.56-2.37-7.61,6.65-9.98-1.43-14.27-8.08-4.28-6.19-7.61-12.36-11.41-6.18-3.8-17.6-19.49-20.93-14.26-3.33,5.23-6.18,8.56-10.46,4.28-4.28-4.28-6.65-5.23-9.51-7.61-2.86-2.38-6.66-1.43-4.75-6.66,1.9-5.23.47-7.14-2.87-7.14s-8.08-5.23-12.83-3.33c-4.76,1.9-12.84-3.8-17.13,5.23-4.28,9.03-3.33,9.98-9.98,10.46-6.65.48-18.07,6.18-21.4,12.36-3.33,6.18-10.46,3.8-12.83,8.56-2.38,4.76-6.18,5.71-6.18,8.09s.47,0,5.7-1.43c5.23-1.42,11.42-8.56,9.51-2.37-1.89,6.18-3.33,7.61-6.18,11.41-2.85,3.8-6.19,5.23-7.13,9.98-.95,4.75-3.51,6.66-5.57,8.09-2.04,1.42-2.52,2.38-2.52,7.13s-.47,7.13-3.33,8.09c-2.87.95-2.87-6.18-2.87.95s3.34,5.71,0,7.13c-3.31,1.43-4.74-.95-6.17,2.38-1.43,3.33-9.04,2.38-9.99,6.18-.95,3.81-4.75,5.71-6.18,8.09-1.43,2.38-3.8,4.76-3.33,7.13.48,2.38-1.9,12.36,0,15.22,1.91,2.85-1.9,6.66-3.8,10.94-1.9,4.28,0,3.33,2.85,7.61,2.86,4.28,3.33,8.56,9.04,4.76,5.71-3.8,7.61-9.99,10.46-9.99s2.85-1.9,4.75-4.28c1.91-2.38,4.29-6.66,4.76,1.43.47,8.09-.95,6.18,2.37,9.98,3.34,3.81,5.05,6.18,3.95,9.99-1.09,3.8-4.12,3.33,0,6.65q4.13,3.33,2.23,6.19c-1.9,2.85,0,10.46,3.8,4.75,3.81-5.7,4.76-10.46,8.09-10.46s9.04-2.38,8.56-5.71c-.47-3.33.96-10.46,2.38-10.94,0,0,7.61-3.33,7.61-8.09s3.8-4.28,0-7.61c-3.8-3.33-4.28-1.9-6.65-5.71-2.38-3.8,6.18-8.56,2.85-11.41-3.33-2.85-5.23-2.85-2.85-8.56,2.37-5.71-2.38-2.38,2.37-5.71,4.76-3.33,6.19-1.42,8.56-6.18,2.37-4.76,3.79-7.13,5.7-7.13s6.19-4.28,4.76-5.23c-1.43-.95-1.43-11.89,1.42-12.84,2.85-.95,3.81-2.38,7.61-1.9,3.81.48,5.71-.48,7.13,2.85,1.43,3.33,4.76,6.66,2.38,9.03-2.38,2.38-2.38,2.85-6.65,6.66-4.28,3.81-4.29,4.28-7.61,7.14-3.33,2.85-.95,5.23-1.9,6.65-.95,1.43-.47-2.37-3.33,1.91-2.86,4.28-4.76,5.23-.96,8.56,3.81,3.33,3.33,8.56,1.43,9.99-1.91,1.43-7.62-3.33-1.91,1.43,5.71,4.75,12.37,4.28,10.94,7.61-1.42,3.32-4.76,5.23,1.91,3.32,6.65-1.9,5.69-3.8,11.4-5.23,5.71-1.43,7.62-.95,10.47-1.43,2.84-.48,5.71-.95,4.27,3.33-1.43,4.28-.94,5.71-5.7,7.13-4.76,1.43-2.86-.48-9.52.95-6.66,1.43-7.61-1.43-9.51.95-1.9,2.38-5.71,2.85-1.9,5.23,3.81,2.38,6.18-3.33,3.81,2.38-2.38,5.71-1.43,8.56-.95,10.94.48,2.38-.95,6.66-4.76,4.28-3.81-2.38-.95-9.51-5.23-7.13-4.28,2.38-1.43,5.23-6.18,8.56-4.76,3.33-3.34.95-3.34,7.14s2.87,8.56-1.9,9.98c-4.75,1.43-10.45,1.43-10.45,1.43,0,0-7.13-1.43-12.84,2.38-5.7,3.81-9.04,3.33-11.41,3.33s.3-3.8-4.13-2.85c-4.42.95-12.51,1.9-12.03-2.38.47-4.28-.96-3.81,2.37-7.61,3.33-3.8,1.43-5.23,0-8.57-1.43-3.33.48-3.33,0-5.7-.47-2.38.48-8.56-2.86-5.71-3.32,2.86-3.79,6.66-5.69,8.08-1.91,1.43-2.38,4.76-2.38,8.56s3.81,7.13,1.9,9.51c-1.9,2.38.95,4.28-2.37,6.65-3.34,2.38-7.61,3.81-9.99,4.76-2.38.95-2.86.95-6.66,4.76-3.8,3.8.96,7.13-4.75,9.99-5.71,2.85-13.31,2.85-13.31,4.75s.94,5.23-1.9,6.66c-2.86,1.43-2.86,1.9-6.66,3.81-3.81,1.9-6.65-2.86-6.65,0s3.8,2.38.47,6.19c-3.32,3.8-7.61-3.34-9.04.47-1.43,3.81-8.55.95-6.65,2.85,1.9,1.9.47,6.66,2.86,6.66s5.23-3.33,6.18.47c.95,3.81,1.9,4.28,3.79,6.66,1.9,2.38,3.34,2.85,3.34,6.66s0,5.23.96,7.61c.94,2.38,2.85,4.76,0,6.66-2.86,1.9-1.9,0-5.71,1.43-3.81,1.43-4.28-.95-7.61-.47-3.32.47-2.85,1.42-8.57.47-5.7-.95-6.18-6.66-9.98-3.81-3.81,2.86-4.75,4.28-6.66,6.18-1.9,1.9-3.8,3.33-1.43,7.61,2.38,4.27.48,6.18,0,7.6-.47,1.43,1.91,3.33.48,6.18-1.42,2.85-3.81,5.23-2.38,8.09,1.43,2.85,4.76,2.85,3.81,5.71-.96,2.85-.48,6.66,2.37,5.7,2.86-.95,5.71-1.43,8.56-.95,2.85.47,3.32,5.7,7.13,5.23,3.81-.47,3.33-.95,7.61-2.38,4.28-1.42,7.14-.95,9.52-3.33,2.37-2.38,7.13-5.23,7.13-5.23,0,0,3.33-1.91,3.33-4.28s-2.86-2.38-.95-6.65c1.9-4.28,3.8-2.38,6.17-7.61,2.38-5.23,6.19-2.98,8.09-4.82,1.9-1.84,2.85.06,2.38-5.17-.48-5.23-1.43-5.71,1.43-6.65,2.86-.96,2.86-1.43,7.61-.48,4.75.95,4.75,1.9,7.6,1.43,2.86-.48,7.13-2.85,11.41-5.23,4.29-2.38,6.65-3.33,7.12.47.48,3.81-3.79,0,.48,3.81,4.28,3.8,6.18,3.32,6.66,7.61.48,4.28,1.72,6.18,3.47,6.18s5.09-.95,7.46,1.43c2.38,2.38,9.03,2.38,9.03,2.38,0,0,.95.95.95,5.23s4.28,5.23,2.39,7.61c-1.92,2.38-3.34,6.18-.96,5.71,2.38-.48,9.03-9.04,6.65-9.04s-6.18-3.33-3.8-5.71c2.38-2.37,1.9-3.33,5.23-1.9,3.33,1.43,6.18-6.18,1.43-3.8-4.76,2.38-6.18-2.98-8.55-3.87-2.39-.89.47-3.27-1.43-3.74-1.91-.47-6.66,2.38-9.51-1.9-2.86-4.28-.47-4.28-3.33-6.18-2.87-1.9-4.47-3.33-5.57-5.71-1.09-2.38-1.76-7.14,0-8.56,1.76-1.42,4.61-6.65,6.03-3.8,1.43,2.85-1.42,3.8,3.33,5.22,4.75,1.43,2.37,4.28,5.23,6.66,2.85,2.38,6.19,3.81,8.08,4.76,1.91.95.96.95,4.75,4.28,3.81,3.33,7.15,0,7.62,6.18.47,6.18-.96,9.04,1.42,11.41,2.37,2.38,5.71,2.85,4.76,4.76-.95,1.9,4.76,6.66,4.76,6.66-3.81,2.85-2.85,6.66-.48,8.08,2.38,1.43,8.09,5.71,8.09,3.33s-.47-6.66-.47-6.66l-4.76-3.33s2.38-2.85,4.76-1.9c.88.36,1.78,1.19,2.6,2-.08-.32-.16-.67-.23-1.06-1.43-7.6,2.38-8.08-.95-10.94-3.33-2.85-3.33-6.65.95-5.7,4.28.95,4.28-.48,7.61,0,3.33.47,6.66,2.38,8.56,1.9,1.9-.48,4.75,0,6.66-1.43,1.9-1.43,6.17-2.85,5.7,0-.47,2.86-4.76,4.28-9.04,5.71-4.28,1.43-9.98.48-6.18,3.8,3.81,3.33,6.66,6.66,4.76,7.61-1.9.95-2.86,2.86,1.42,5.23,4.28,2.38,3.34.47,4.28,2.38.96,1.9,2.86.95,5.71,3.32,2.85,2.38,6.66,4.28,7.6,2.85l.96-1.43s-2.85-2.37,0-3.33c2.85-.95,1.43-1.91,4.28.95,2.86,2.85,2.86,5.23,5.71,4.28,2.86-.95,7.61-4.28,9.51-5.23,1.91-.95,5.23-5.23,6.19-.95.95,4.28.47,3.81-.96,7.61-1.31,3.49,3.78,4.98,3.17,7.04-.38.5-1.07,1.41-2.21,2.95-5.7,7.6-7.61,9.51-6.19,11.41,1.43,1.9.95,1.9-2.37,3.33-3.33,1.43-1.43,3.33-4.75,5.23-3.34,1.9-2.39,4.28-5.24.48-2.86-3.81-2.38-9.99-5.71-8.09-3.33,1.9-2.38,1.43-7.61,4.28-5.23,2.85-.96,7.61-5.23,2.85-4.28-4.76-6.18-3.81-9.04-4.76-2.85-.95-3.81-2.85-7.13-1.9-3.33.95-5.7.47-8.08.95-2.38.47-2.86-5.23-4.29-5.23s-4.76-2.92-6.65-2.65c-1.91.27-2.38,3.6-5.23,4.08-2.87.47-2.39-.48-3.33,2.38-.95,2.85.94,4.76-.95,7.13-1.9,2.38,4.28,5.23-3.81,2.38-8.09-2.86-1.42-3.81-10.45-4.28-9.04-.47-4.28-5.23-8.56-6.66-4.28-1.42,4.75.95-4.28-1.42-9.03-2.38-2.39.48-9.03-2.38-6.66-2.85-2.38,1.91-6.66-2.85l-4.27-4.76s-5.23-1.42-2.38-3.32c2.85-1.9,3.31-1.9,2.85-5.23-.47-3.33-1.91-4.28-.47-6.18,1.43-1.9,4.27-4.76,2.37-4.76s-3.34.48-5.71,1.43c-2.37.95-4.75,0-10.45,0s-4.76-2.38-9.04.95c-4.28,3.33-4.28,2.38-7.61.48-3.33-1.9.95-3.81-6.19.48-7.13,4.28,1.43,2.38-7.13,4.28-8.57,1.9-4.77.95-12.84,4.28-8.09,3.33-3.33,0-9.04,0s-5.71,5.23-9.98,1.43c-4.28-3.81-8.48-4.49-9.03-1.43,0,0-.96,7.13-2.86,8.55-1.9,1.43-2.85-.95-5.24,1.91-2.37,2.85-.94,3.33-4.74,5.7-3.81,2.38-14.27,7.13-10.95,10.47,3.34,3.32,8.55,7.6,3.81,8.56-4.75.95-4.28,3.8-7.61,7.13-3.33,3.33-7.14,1.9-7.14,4.28s-1.9,7.61-4.75,8.56c-2.85.95-4.29,2.86-3.81,5.7.47,2.86-6.18,8.56-6.18,10.46s2.85,3.8,0,5.71c-2.86,1.9-8.09,4.28-6.19,6.18,1.91,1.9,3.81,7.52,3.81,9.94s0,7.18-.95,10.51c-.95,3.33-5.57,14.74-3.26,16.17,2.31,1.43,6.59,10.47,6.59,11.89s.95,1.9,5.7,6.18c4.76,4.28,5.71,5.23,5.71,9.03s-.47,1.9,4.28,5.23c4.76,3.33,9.98,6.66,13.79,8.56,3.8,1.9,4.29,8.08,10.46,8.56,6.19.48,11.41,1.9,13.79,0,2.38-1.9,9.03,1.45,13.79.96,4.75-.48,7.61-3.34,10.46-4.76,2.86-1.43,7.6-5.24,7.6-5.24,0,0,4.29-.95,7.62-.95s10.47-3.81,12.37-.48c1.9,3.33,4.76,10.58,8.08,11.47,3.33.89,10.94-1.37,12.84,0,1.91,1.37,4.75.42,4.75,3.75s3.34,3.8,0,6.65c-3.32,2.86-3.32,4.28-2.37,6.18.94,1.9.94,3.33-1.43,5.71-2.38,2.38-3.33-2.38-2.38,2.38.95,4.76,3.81,7.13,4.28,10.46.47,3.33,2.38,4.75,6.19,7.13,3.8,2.38,5.7,1.9,6.19,5.7.47,3.81-.96,0,.47,3.81,1.43,3.81,5.7,1.9,4.75,5.71-.95,3.8,1.71,5.23.14,8.08-1.57,2.85-4.56,6.19.5,9.04,5.07,2.85,2.07,3.8,0,7.61-2.07,3.8-4.92,6.65-5.86,9.52-.96,2.85.47,6.65-.96,8.55-1.43,1.9-1.43,5.7-.96,9.51.48,3.81,6.18,4.28,6.65,8.56.48,4.28,0,6.66,1.91,8.56,1.9,1.89-1.23,4.28,2.01,8.56,3.23,4.27,4.18,6.18,3.7,10.93-.47,4.76-2.63,8.09.11,9.98,2.74,1.91,5.11,5.71,5.11,8.56s5.71,4.75,7.13,8.08c1.43,3.33.48,4.76,2.38,8.09,1.91,3.32,5.71,7.13,5.71,8.56s2.38,3.81,0,5.71c-2.37,1.9-2.86,2.85-1.43,5.23,1.43,2.38,3.33,5.23,5.71,6.18,2.38.95,4.27-.95,7.6-1.91,3.33-.95,3.33-1.42,8.09-2.37,4.76-.95,8.09-2.38,11.89,0,3.81,2.37,11.42.47,12.36-2.38.96-2.85,9.04-6.65,10.47-9.99,1.43-3.33,1.43-2.38,4.27-6.65,2.85-4.28,5.7-7.61,6.17-9.52.49-1.9,3.35.48,4.77-4.27,1.43-4.76,2.85-12.37,2.85-12.37,0,0-2.38-1.42,0-3.8,2.39-2.38,9.51-5.23,10.93-7.13,1.43-1.9,5.71-4.28,3.33-7.61-2.37-3.32-3.33-12.37-3.33-12.37,0,0-3.32-1.42-2.85-3.8.48-2.38,1.42-1.9,6.89-5.7,5.48-3.81,12.13-10.47,16.41-11.89,4.28-1.43,9.52-5.71,8.09-9.99-1.43-4.28,1.43-.95.24-8.56-1.2-7.61,4.16-12.36.29-15.69-3.87-3.33-3.87,9.51-5.77-4.28-1.9-13.79-1.9-14.27-3.8-14.27s-.47-2.85.95-5.23c1.42-2.38,1.91-11.41,5.23-16.17,3.33-4.75,4.76-4.75,10.46-9.51,5.7-4.76,19.97-14.74,24.72-19.02,4.76-4.28,10.94-8.56,9.99-12.36-.96-3.81,0-2.86,3.33-7.61,3.32-4.75,8.09-6.65,7.61-12.36-.48-5.7,3.81-13.79-2.37-9.98-6.2,3.81-9.52,4.28-10.95,4.28,0,0-1.43,3.81-1.43,6.18s.95,6.18-2.86,8.08c-3.8,1.9-2.85.95-9.03.95s-3.32-1.43-8.08-3.8c-4.76-2.38-7.14-.95-7.62-6.66-.47-5.71,1.91-4.28.95-8.56-.95-4.28-1.9-6.66-5.23-9.03-3.33-2.38-.95-6.66-5.7-7.13-4.76-.47-6.19.48-7.62-2.85-1.42-3.33-.94-12.36-5.69-14.27-4.76-1.9-9.52-9.99-9.04-15.22.48-5.23,6.18-5.71-.95-12.84-7.13-7.13-9.98-10.46-12.37-13.79-2.37-3.33-.47-10.47-5.22-14.27-4.76-3.8-5.24-8.08-3.34-8.08s2.86,2.38,5.71,5.71c2.86,3.33.49,1.43,2.86,3.33,2.38,1.9,5.7-8.09,5.7-8.09l-.95,9.03s2.85,1.43,3.81,5.23c.95,3.81,1.9,3.81,4.76,6.66,2.85,2.86,3.8,6.18,4.28,7.61.47,1.43,2.86,2.38,4.76,3.33,1.91.95,4.76,1.43,4.76,6.66s-5.71,4.28-.96,9.51c4.75,5.23,9.52,5.14,9.99,10.89.47,5.75,2.85,10.03,4.75,11.94,1.9,1.9,3.33,3.33,3.81,7.6.48,4.28.84,7.13,3.5,9.51,2.68,2.38,4.58,5.23,7.91,2.86,3.33-2.38,5.43-5.71,9.85-6.18,4.41-.48,11.54-2.85,14.87-3.81,3.33-.95,8.56,1.43,10.46-3.33,1.9-4.76,3.81-5.23,5.72-6.18,1.9-.95,3.32,0,8.08-2.85,4.75-2.85,5.71-1.43,9.52-4.28,3.8-2.85,7.12,3.24,8.08-5.27.95-8.51,3.81-7.09,5.23-11.37,1.42-4.28,4.75-5.7,2.37-7.61-2.37-1.9-.96-2.38-4.28-4.76-3.32-2.38-2.37-2.85-5.23-2.85s-4.76.95-6.66-2.85c-1.9-3.81.48-9.04-1.9-8.56-2.38.48-.47.95-4.28,4.28-3.81,3.33-5.71,6.19-8.09,7.14-2.37.95-5.7.47-9.04-1.9-3.33-2.38-1.42-2.86-2.37-6.19-.96-3.33-5.2-7.13-4.75-5.23.46,1.9.46,6.18-1.92,6.18s-2.85-2.38-2.85-5.22,0-4.76-1.43-6.19c-1.43-1.43-1.89-3.8-5.23-7.14-3.33-3.32-4.75-5.23-1.9-6.65,2.86-1.43,3.81-2.85,5.71-4.28,1.9-1.43.96-4.28,4.76,0,3.81,4.28-1.86,4.76,2.87,7.61,4.75,2.85,5.22,3.32,6.64,6.66,1.43,3.33,6.18,4.28,6.18,4.28,0,0,4.76,2.85,7.61,2.85s7.14-2.38,8.56-1.9c1.43.47,2.85.95,4.28,4.28,1.43,3.33,8.09,5.24,11.41,5.7,3.33.48,8.56-.95,12.36-.47,3.8.47,10.47,0,14.75,0s5.7-.95,8.55-1.43c2.86-.48,4.76,2.38,6.19,5.23,1.43,2.86-.97,5.71,3.32,6.19,4.29.47,6.66.95,7.61,2.38.96,1.43,2.39,4.28,0,5.23-2.37.95-6.65-2.85-2.37.95,4.28,3.81,5.23,9.52,8.56,7.61,3.33-1.9,3.8-4.76,5.7-6.66,1.91-1.9,3.33-4.76,3.33,1.43s1.43,8.08,0,11.41c-1.42,3.33-1.58,3.8.64,8.56,2.21,4.76,1.74,4.76,2.21,11.89.48,7.13,3.81,8.56,5.23,11.89,1.43,3.33,3.33,7.13,3.81,9.51.47,2.38.47,3.33,2.86,7.61,2.37,4.28,2.86,4.28,5.7,7.13,2.85,2.85.48,7.14,2.85,2.85,2.38-4.28,2.85-5.71,5.22-7.13,2.4-1.43-.46-.95,3.34-4.28,3.8-3.33.95,4.76,4.76-5.71,3.8-10.46,8.55-9.51,5.7-14.27-2.86-4.76-6.66-7.61-3.33-9.51,3.33-1.91,4.27.47,6.66-3.81,2.38-4.28,5.22-5.23,9.03-9.03,3.81-3.81-.47-7.14,3.81-8.56,4.27-1.43,6.65,1.9,9.04-1.43,2.37-3.33,4.28-7.13,6.65-8.09,2.38-.95,3.33,2.85,7.13.48,3.81-2.38,7.61-3.33,7.61-3.33,0,0-2.37-3.8,0-4.75,2.37-.95,2.85-3.81,4.28,1.43,1.43,5.23-.94,5.71,2.86,9.51,3.81,3.8,6.65,4.28,7.13,9.04.48,4.76,3.32,4.76,4.76,8.08q1.43,3.33,0,6.66c-1.43,3.33-4.76,4.28-.95,5.23,3.8.95,6.65.48,8.56-.47,1.9-.95.94.95,4.27-5.23,3.33-6.18,5.71-6.66,5.71-2.85v10.46c0,3.33-1.9,2.85,0,7.13,1.89,4.28,2.38,5.23,2.38,9.51s.47,8.56,0,11.89c-.49,3.33-2.42,5.23.2,6.65,2.65,1.43,5.02.95,5.02,3.81s3.81,12.84,8.09,17.12c4.28,4.28,5.23,7.13,9.52,10.46,4.28,3.33,10.46,8.56,7.13,4.28-3.33-4.28-5.71-9.03-4.76-12.84.95-3.8,1.91-5.23-2.37-8.56-4.28-3.33-4.76-4.76-7.62-6.66-2.85-1.9-1.9-4.76-4.75-7.61-2.87-2.85-6.18-3.8-6.66-6.66-.48-2.85,2.86-13.32,2.86-13.32,0,0,.47-8.56,4.27-6.18,3.81,2.38,7.14,4.28,10.95,6.66,3.81,2.38,3.81,5.23,6.65,8.56,2.86,3.33,2.85,6.18,2.38,8.09-.48,1.9-.48,5.23,3.33,2.85,3.8-2.38,9.98-5.23,11.41-8.56,1.43-3.33,3.33-2.38,6.19-7.13,2.85-4.76,4.27-7.61,2.85-11.42-1.43-3.81-3.33-9.99-5.7-11.41-2.38-1.42-3.33-3.8-5.24-5.7-1.9-1.9-3.8-6.18-3.8-6.18,0,0-2.84-1.9-1.42-7.13,1.42-5.23,3.8-5.23,5.7-8.56,1.9-3.33,1.9-4.28,5.23-4.28s.95-4.76,3.32,0c2.38,4.75-1.72,5.23,2.46,6.65,4.2,1.43,7.05-4.75,9.91-4.75s10.46,2.38,9.99-2.38c-.48-4.76-4.77-6.18-.48-4.76,4.28,1.43,1.89,4.28,7.12,2.38,5.23-1.9,15.71-4.76,18.08-9.99,0,0,1.43-5.23,4.27-7.13,2.86-1.91,2.86-3.81,3.81-7.14.95-3.33,1.43-3.33,5.71-6.65,4.27-3.33,9.99-7.61,7.14-9.99-2.87-2.38-6.18-2.38-7.61-1.9-1.43.47,0-5.23,2.85-6.18,0,0,3.81-4.76-.47-6.66-4.28-1.9-3.8-1.48-4.76-5.5-.95-4.01,1.43-9.24-2.37-10.2-3.81-.95-8.55,1.42-3.81-3.8,4.77-5.23,2.87-5.7,6.66-7.61,3.81-1.9,11.99-1.9,10.28-4.75-1.72-2.86-6.01-6.66-9.33-4.28-3.34,2.38-5.72,7.61-8.09,7.14-2.36-.47,2.37-9.58-2.36-7.88-4.76,1.7-5.71,5.96-5.71-.21s-.47-6.65,3.32-8.08c3.82-1.43,5.71-2.85,8.1-4.28,2.37-1.43,2.86-6.18,7.61-4.76,4.76,1.43,5.71,3.33,2.84,6.18-2.84,2.85-7.59,3.33-1.9,5.71,5.71,2.38,12.84-2.38,15.22-1.43,2.37.95,1.9,1.43,5.23,6.65,3.33,5.24,6.19,4.29,4.28,9.04-1.9,4.76-4.48,7.13.61,9.99,5.1,2.85,10.81,7.61,12.71-.95,1.91-8.56,4.76-12.84,0-16.64-4.75-3.81-10.46-8.56-7.6-10.46,2.85-1.9,14.27-7.61,12.84-12.84-1.43-5.23-.47-8.56,3.8-10.46,4.29-1.9.95-7.13,6.66-3.33,5.7,3.8,1.43,2.38,5.7,3.8,4.29,1.43,9.04,2.05,11.42-5.16,2.39-7.21,5.71-10.54,9.51-16.72,3.8-6.18,6.66-6.18,9.52-13.79,2.86-7.61,6.17-9.51,5.23-14.27-.95-4.76-5.37-3.33.17-9.98,5.55-6.66,7.92-9.99,4.11-12.36-3.81-2.38,1.43-2.86-3.81-7.61-5.22-4.76,1.43-7.13-5.22-4.76-6.66,2.38-2.87,5.7-10.47,2.38-7.61-3.33-.95-8.09-8.08-8.09s-8.09-.48-3.34-4.28c4.76-3.8,15.69-11.89,16.65-15.22.93-3.33,8.55-8.09,10.45-10.94,1.89-2.85,13.31-10.93,13.31-10.93,0,0,11.9-2.86,18.08-2.38,6.18.47,6.65,6.07,16.16-.05,9.52-6.13,11.89-3.38,9.52,0-2.38,3.38-9.52,1-2.38,3.38,7.14,2.38,14.74.47,17.12-1.91,2.38-2.38-6.18-1.42,0-8.56,6.18-7.13,6.65-17.59,13.78-16.17,7.14,1.43,12.85-5.02,11.42-.13-1.42,4.88-9.03,12.02-1.9,10.59,7.14-1.43,14.74-2.85,16.64-9.03,1.91-6.18-2.37-11.89,2.38-11.89s11.89-.95,9.04,1.9c-2.86,2.86-3.8,1.43-4.76,7.61-.95,6.18,1.43,8.08-1.43,9.51-2.86,1.43-2.38,3.33-7.61,5.7-5.23,2.38-6.18,6.65-9.52,9.51-3.32,2.85-3.8,4.75-8.08,9.03-4.28,4.28-4.28.95-8.56,6.18-4.28,5.23-1.43,6.66-5.24,10.46-3.79,3.81-3.79,12.84-1.9,19.03,1.9,6.18,2.37,10.94,1.9,14.74-.46,3.81-.95,7.13,1.43,10.94,2.38,3.81,2.38,4.28,5.24-.48,2.85-4.75,6.66-3.33,5.7-8.08-.96-4.76,0-6.66,2.85-7.61,2.86-.95,3.33-6.66,5.71-8.09,2.37-1.42,2.37,1.9,5.71-2.85,3.33-4.76,3.33-.95,3.8-7.61.48-6.66.48-5.71,2.86-8.56,2.39-2.85,1.9-3.33,2.85-7.61.96-4.28,1.43-5.23-1.42-4.28-2.86.95-1.91,7.61-2.86.95-.95-6.66,0-4.76,2.86-9.99,2.85-5.23-.48-10.46,4.75-10.93,5.23-.48,7.62,0,9.03-2.86,1.43-2.85-1.9-5.7,1.43-2.85,3.33,2.85-1.43,5.71,0,6.18,1.43.47,5.71-2.85,8.09-4.28,2.38-1.43,6.66-3.33,8.56.48,1.9,3.8,2.86,9.03,4.74,5.23,1.92-3.8-.94-6.65,6.19-9.98,7.14-3.33,10.94-9.03,17.6-11.41,6.66-2.38,10.46-10.14,10.46-10.14,0,0-3.8-5.08,0-1.75,3.8,3.33-.95,3.33,3.8,3.33s11.89-1.31,8.57-4.45c-3.33-3.15-5.24-5.06-5.24-8.38s2.86-5.7-2.37-6.18c-5.24-.48-9.51-5.23-5.24-6.18,4.28-.95,8.09,5.23,11.89,0,3.8-5.23,6.66-6.65,5.7-10.46-.94-3.8-3.44-4.76.2-5.23,3.62-.48,5.05-.95,5.05,3.8s0,5.24,3.79,5.24,12.37-1.91,12.37,1.9-.48,9.03,2.37,9.51c2.85.47,13.8,6.66,14.75,1.43.94-5.23,2.37-11.41,0-12.37-2.39-.95-3.11-2.85,1.29-2.85s6.31-4.38,5.36-6.94Zm-768.64,262.26c-.06.17-.15.34-.29.52-.84,1.06-.19.16.29-.52Zm23.96-41.8c-7.61,2.37-4.28,3.32-12.84,2.37-8.56-.95-6.66-3.93-11.89-4.82-5.23-.89-4.76-6.34-9.52-4.8-4.75,1.54-2.85,3.31-9.03,4.8-6.19,1.49-1.9.54-9.99,2.44-8.09,1.9-14.27-4.5-14.27-7.24s-3.32-7.5,0-8.45c3.33-.95,3.81-1.9,4.76-7.14.95-5.23,1.42-4.9,2.86-6.02,1.43-1.12,4.27-5.67,6.65-7.91,2.39-2.24,7.14-6.52,7.14-3.19s-5.71-1.22-3.82,3.19c1.91,4.42,4.77-.61,7.62,0,0,0,5.71.14,5.71,2.99,0,0-8.56,1.4-6.66,4.98,0,0,3.81-.7,4.28,2.63.47,3.33.95,5.7,3.81,4.76,2.84-.95,4.75-4.38,9.51-3.62,4.75.77,5.7-7.42,9.98,0,4.28,7.42,7.14,7.42,9.03,8.85,1.9,1.42,3.81,0,5.71,3.8,1.9,3.81,4.75.74,2.85,5.12s5.71,4.86-1.9,7.24Zm57.26,5.7c2.18,2.38,7.89,3.8,6.94,5.23-.95,1.43-2.85,5.23-1.43,7.13,1.43,1.9,1.43,6.66,1.43,6.66,0,0,7.13,6.18.95,5.23-6.18-.95-1.04-4.28-7.89-2.38-6.85,1.9-5.13,3.8-11.22,0-6.09-3.81-1.81,1.43-6.09-3.81-4.28-5.23-4.76-7.61-1.91-10.46,2.86-2.85,0-5.7,2.38-6.66,2.37-.95,8.56-.48,5.71-2.38-2.85-1.9,1.91.95-2.85-1.9-4.76-2.85-5.02-1.55-7.03-4.82-2.01-3.26.38-4.69-2.96-7.07-3.33-2.38-2.85,3.32-3.33-2.38-.48-5.71.95-.95-.48-5.71-1.42-4.76-2.85.95-1.42-4.76,1.42-5.7,1.9-6.65,3.81-8.56,1.89-1.9,6.65-2.38,6.65-2.38l2.37-3.32,5.7-4.75s2.38-1.43,4.76,0c2.37,1.42,1.43,0,4.74,0s4.29-7.14,3.33,0c-.94,7.13.49,6.18-1.9,9.51-2.38,3.33-4.75.95-2.38,3.33,2.38,2.38-3.33,4.76-5.22,4.76s-5.24-.48-3.34,1.9c1.91,2.38,1.91,2.85,3.81,6.65,1.9,3.81,7.61,1.91,6.66,4.76-.97,2.85-6.88,7.01-4.16,8.02,1.21.45,2.7,1.26,3.99,2.03.04-.52.36-1.18,1.11-2.03,3.34-3.74,6.19-9.45,6.66-4.69.47,4.76,3.81-.6,3.81,4.69s-2.38,5.29-4.76,6.25c-2.37.95-8.65-.48-6.47,1.9Z"/>
      </g>
      <path class="cls-24" d="m1152.55,1020.2c4.33.23,7.13,2.85,12.13-4.28,4.98-7.13.71-8.72,7.12-10.42,6.43-1.7,3.58-7.41,10-3.84,6.42,3.57,10.69,2.68,14.27,3.84,3.57,1.15,9.98-9,6.41,0-3.56,9-4.98,10.98-6.41,14.98-1.43,4.01,4.94,4.01,7.45,4.72,2.52.71.38,2.85,5.38,5.71,4.98,2.85,7.85,4.99,9.98,4.99s-.71,4.99,4.27-3.57c5.01-8.56,4.29-3.57,5.01-8.56.71-4.99.71-3.57,0-7.85-.72-4.27,1.07-8.72.53-10.42-.53-1.7-3.54-11.13.1-4.99,3.65,6.14,5.78,6.85,7.92,11.85,2.15,4.98,2.15,3.56,5,8.56,2.85,4.99,4.27.71,5.7,8.56,1.43,7.85-7.85,15.69,0,15.69s7.14-7.84,11.41,0c4.29,7.85,6.42,6.43,7.84,11.41,1.43,4.99,4.28,1.43,6.43,7.14,2.14,5.7,9.28,3.32,12.12,14.14,2.86,10.82,4.28,13.68,0,23.66-4.28,9.98-.71,16.41-5.7,19.97-5,3.57-5,0-5.71,7.14-.71,7.13-2.13,12.84-4.99,17.12-2.85,4.28-4.99,2.85-8.54,4.28-3.58,1.43-5,3.57-8.56,6.42-3.58,2.85-2.86-8.56-7.85-5.71-5,2.85-4.29,6.63-10.71,6.17-6.42-.46-7.28-8.31-12.91-8.31s-3.49-7.84-7.06-9.27c-3.57-1.42-6.42-1.62-5.71-6.87l.72-5.25s-3.57-7.85-6.43-3.57c-2.84,4.29-3.56,12.13-8.56,5.71-4.99-6.42.72-12.84-7.13-13.55-7.85-.72-5,1.43-14.28-3.57-9.26-4.99-12.83,0-14.97,2.14-2.14,2.14-5.71-3.56-7.85,0-2.14,3.57-7.85,6.42-12.12,11.41-4.28,4.99,0,7.65-11.42,6.68-11.41-.98-7.85,4.02-17.12,4.73-9.27.71-14.27-4.99-16.41-10.7-2.14-5.7-2.84.72,0-7.13,2.86-7.85-1.62-8.56-1.88-16.41-.26-7.84,4.53-5.7,0-11.41-4.54-5.71-8.1-6.42-5.24-9.28,2.84-2.85,5.7,5.86,2.13-4.56-3.58-10.42-9.18-20.4-3.17-20.4s7.45-1.43,12.44-3.57c5-2.14,9.98-3.57,14.27-4.28,4.27-.71,10.7-.71,14.98-.71s14.98-6.99,10.7-7.07c-4.29-.07-7.14-6.49-2.14-8.63,4.98-2.14,7.84-4.99,10.7-6.42,2.84-1.43,2.78-6.68,7.84-6.42Z"/>
      <path class="cls-24" d="m1239.57,1169.28s1.43,1.42,10.7,0c9.27-1.43,7.86-4.99,9.27-1.43,1.43,3.57,2.14,8.56,0,10.7-2.14,2.15.73,3.57-2.14,5.71-2.84,2.14-1.49,4.28-7.16,3.56-5.68-.71-9.95-7.1-10.67-10.68-.71-3.58-5.04-8.46,0-7.86Z"/>
      <path class="cls-24" d="m920.01,896.8s5.7,5,4.28,9.98c-1.43,4.99,2.14.71-1.43,4.99-3.57,4.28-5.71,4.99-6.42,0-.71-4.99-2.15-14.27,3.57-14.98Z"/>
      <path class="cls-24" d="m991.35,915.26c2.21-.59,7.13-4.37,12.12,0,5,4.36-.71,7.93,7.14,11.5,7.84,3.57,1.42-3.56,7.84,3.57,6.42,7.14,12.12,6.42,12.84,11.41.71,4.99,7.12-.71,7.12,7.85s2.86,4.99,6.43,9.27c3.57,4.28,4.99,5,3.57,11.41-1.43,6.42.71,12.84-6.43,7.13-7.12-5.7-.71-2.85-12.12-11.41-11.41-8.56-1.58-9.27-9.71-14.98-8.11-5.71.44-2.85-8.11-5.71-8.56-2.85-.71-5.71-10.7-12.84-9.98-7.13-14.99-15.87-9.98-17.2Z"/>
      <path class="cls-24" d="m1053.39,974.55c3.03-.17,2.87,4.42,10.71,5.06,7.85.65,3.57-.64,11.41,0,7.85.65,5.72-5.27,11.42.19,5.7,5.45,15.69,8.31,15.69,8.31,0,0-7.85,4.28,0,4.28s9.99-4.28,15.69-4.99c5.72-.71,13.56-6.42,10.71-.71-2.86,5.71-7.13.71-10.71,5.71-3.57,4.99-7.12,11.42-15.69,6.07-8.56-5.36-6.54-10.82-11.11-10.94-4.58-.12.91.12-10.39,0-11.31-.12-19.88-5.83-23.43-4.4-3.57,1.43-16.41-7.85-4.29-8.56Z"/>
      <path class="cls-24" d="m1135.43,987.51c1.01.28,2.65,1.28,4.5,1.79,2.04.57,4.31.52,6.2-1.79l3.57-4.4s4.99-2.85,4.99,0,1.43,8.58-3.56,6.49c-4.99-2.09-15.69-2.09-15.69-2.09Z"/>
      <path class="cls-24" d="m1081.12,960.28c5.69-2.42,7.24,4.28,11.52,4.99,4.28.71,8.56-8.56,8.56-8.56,0,0-6.42,0,0-5,6.42-4.99,5.69-1.38,8.56-5.33,2.85-3.95,4.28-3.95,0-6.8-4.28-2.86-3.57,4.28-4.28-2.86-.72-7.13-.72-12.12,1.42-12.84,2.14-.71,6.83,2.85,5.56-2.85-1.26-5.71-1.98-4.45-4.83-5.79-2.86-1.34,0-4.96-6.42-2.08-6.42,2.87,0-2.83-6.42,2.87-6.41,5.7-10.9,3.57-13.65,9.28-2.75,5.7-7.74.71-7.74,5.7s-4.99,7.67-4.99,7.67c0,0-7.15-3.03-7.15,0s1.43,4.5,4.29,7.69c2.86,3.19,2.14-4.66,2.86,3.19.71,7.85-2.14,9.98,0,11.41,2.14,1.43,2.64,3.57,12.73-.71Z"/>
      <path class="cls-24" d="m1231.73,622.89c2.25,2.25-3.57,2.85,0,9.98,3.56,7.13,0-4.28,3.56,7.13,3.56,11.41,7.13,16.41,4.99,21.4-2.14,4.99-1.18-7.13-4.52,0-3.33,7.14-.23,4.74,0,12.36.23,7.62-1.99,9.03-5.16,7.97-3.17-1.06-4.59.11-4.59-7.97s-1.43-5.22,0-13.78c1.42-8.56-.31-13.34-.64-19.98-.31-6.64,2.06-21.39,6.35-17.11Z"/>
      <path class="cls-24" d="m1228.16,689.69c1.62,1.48-.73,3.1,4.99,4.53,5.71,1.42,6.29,2.85,7.79,5.71,1.49,2.85,10.77,0,5.05,3.56-5.69,3.56-1,6.42-7.99,8.56-6.98,2.14-7.59-.71-12.63,0-5.05.71-6.48.84-6.48,3.99s3.66,1.72,6.48,6c2.8,4.28,2.91,9.27,0,12.12-2.91,2.86-9.32,1.43-6.48,8.56,2.85,7.14,12.95,4.99,6.48,12.13-6.48,7.13-5.05,9.98-11.48,7.13-6.41-2.85-2.84-11.41-6.41-6.42-3.57,5,8.57-2.14-3.57,5-12.11,7.13-14.97,3.61-14.97,2.52s2.59-5.37-4.42-2.52c-6.99,2.85-14.13,4.36-14.13,4.36,0,0,2.85-4.36,7.85-8.64,4.99-4.28,4.99-6.42,9.99-5.71,4.99.71,4.99,4.28,10.7,2.86,5.7-1.43,7.12-4.99,7.12-7.14s1.84-4.6,3.06-5.87c1.22-1.26,4.78-9.11,4.78-9.11,0,0,5.72-.17,4.3-4.01-1.43-3.84-4.3-11.26-4.3-11.26l6.43-10.41,5.05-3.56s-2.18-16.89,2.8-12.38Z"/>
      <path class="cls-24" d="m1120.34,852.57c.35,1.28.95,1.78,0,2.74-.95.95-1.43,1.31-.95,1.9.47.6,1.59.6.62,1.78-.98,1.19-1.48,2.61-.81,3.45.66.83,1.83.83.66,1.19-1.19.35-1.78-1.9-2.5-1.19-.71.71-.71,1.07-.59,2.5.12,1.42.12,1.66.71,3.21.6,1.54,1.02,1.19,1.27,2.38.28,1.19-.32,1.66.63,1.78.95.12,0-2.73.95-2.25.95.47,2.61-.48,1.78,1.54-.84,2.02-1.67,1.78-1.43,2.85.23,1.07.8,1.66,1.65,1.43.84-.24,1.43,1.07,1.92.83.47-.23-.13-2.26,1.3-1.9,1.43.36,3.09-1.07,2.38.83-.71,1.9-2.62,2.74-1.2,2.98,1.43.23,2.26-2.38,3.22-1.43.95.95.83,2.61.95.95.11-1.66-1.2-3.33,0-2.85,1.2.48,1.66.83,2.02,1.9.36,1.07,1.07.58,1.3,1.66.24,1.07.12,1.79,1.19,1.9,1.08.12,1.79-.95,1.9,0,.12.95,1.78.97.83,0-.94-.96.24-2.26-1.18-2.86-1.43-.6-2.5.24-2.03-1.19.48-1.42,2.61.24,2.38-.59-.24-.83-.83,0-1.9-.83-1.07-.83-.48-1.78-1.07-.83-.6.95.12.95-.6.95s-.23-.36-1.42-1.31c-1.19-.95-1.31-1.79-2.49-1.67-1.2.12-1.55.12-2.27-.71-.7-.83-1.77-1.55-1.43-2.14.37-.6.96-1.42-.35-2.55-1.32-1.13-1.91-1.72-.96-2.32.96-.6.96-.95,1.9-1.55.96-.59,1.55-.83,2.02-2.97.47-2.14,1.91-4.16.47-4.4-1.43-.24-2.86-.48-1.67-1.43,1.2-.95,2.51-1.43,1.55-2.26-.96-.83-.48-1.31-1.55-.72-1.06.6-.47,1.07-1.77.36-1.32-.71-2.86-3.33-3.92-2.38-1.07.95-1.78,2.38-1.55,3.21Z"/>
    </g>
    <path class="cls-24" d="m1141.84,936.03c-1.19.94.34,1.43-3.39,2.68-3.74,1.25-4.09.53-6.6,1.6-2.49,1.07-5.34-1.78-7.13,0-1.78,1.78-2.85-2.36-3.92.25-1.07,2.6-4.65,4.44-4.1,5.84.52,1.4.89,1.4,0,3.9-.89,2.5-2.32,3.93-2.32,5s-1.72,4.28-1.72,4.28c0,0-.3,1.78,0,3.21.29,1.43,2.43.08,2.06,2.53-.34,2.46.72-.39-.34,2.46-1.07,2.85-1.78,7.83-.36,6.77,1.43-1.06,4.64-5.7,5.35-6.77.71-1.07-2.85-3.92-2.68-5.35.18-1.43.52-6.42,3.03-4.64,2.5,1.78,2.5,3.57,2.5,5.35s-.35-.28,2.14,2.18c2.5,2.46.64,4.24,2.82,4.24s4.31-4.92,5.39-4.24c1.07.68-.58.32-2.96-1.46-2.39-1.79.4-1.79-2.42-5.35-2.82-3.57-1.39-7.14-3.53-7.14s-3.93-4.94-1.43-4.97c2.5-.02,4.21,3.19,4.96,4.61.75,1.43,4.31-4.61,4.31-4.61,0,0,1.79.74,3.92,0,2.13-.74,6.42-.74,6.42-3.24s3.4-9.81,0-7.13Z"/>
    <path class="cls-24" d="m1175.74,946.4c2.49-1.09,4.64-3.59,6.77-1.45,2.14,2.14,3.56,1.78,5.35,3.93,1.78,2.14,2.86,4.91,2.14,6.2-.72,1.29.35,3.78,2.49,4.85,2.14,1.07,3.21,3.21,5.36,0,2.14-3.2,2.5-2.93,4.98-4.85,2.5-1.92,3.58-2.85,5.36-2.21,1.78.64,7.13-.86,9.27,2.21,2.14,3.07.72,2.71,6.42,4.5,5.71,1.78,14.62,5.07,17.48,5.74,2.86.68,6.43,1.75,5.7,3.53-.71,1.78-3.03,2.5.09,3.57,3.12,1.07,7.77,1,8.48,2.28.7,1.28,4.27,4.63,1.77,4.92-2.48.29-6.77-3.85-5.69,0,1.07,3.86,3.56,5.96,4.99,6.34,1.43.37-1.45-1.53,1.6,1.56,3.05,3.09,6.96,2.02,8.39,4.16,1.43,2.14,2.14,2.14,3.57,4.28,1.43,2.14,2.13,4.41,0,4.52-2.14.12-.36-2.01-4.29-2.02-3.91,0-3.91,2.5-7.13,0-3.21-2.5-4.28-4.29-5.7-6.43-1.43-2.14-.71-3.96-3.57-6.08-2.85-2.12-1.43-5.37-5-4.11-3.56,1.27-7.48.52-8.2,4.11-.72,3.58,2.49,1.06-3.22,4.1-5.71,3.04-8.91,1.59-11.41,0-2.49-1.6,1.79-5.55-4.63-4.1-6.42,1.44-7.85,4.89-9.63,1.56-1.77-3.33-.36-3.73,2.86-5.67,3.21-1.94,4.99,2.66,6.77,0,1.78-2.65.72-5.15-2.14-4.79-2.85.36-3.56-.43-4.99-2.35-1.43-1.93-.36-.38-3.56-2.4-3.21-2.03-.71-2.03-6.06-3.09-5.35-1.07-3.57-1.79-7.85-2.14-4.27-.36-7.03-3.92-7.98-3.57-.93.36-2.36,1.43-4.14-.35-1.78-1.78-1.43-3.57,1.07-3.93,2.5-.36,4.99-3.29,4.28-4.14-.71-.85-1.78-1.65-3.57,0-1.78,1.65-2.14,2.28-3.92,0-1.78-2.28-3.92-3.35-4.99-3.35s-7.49-1.43-4.64-2.14c2.86-.71,8.92-.36,8.92-.36l-1.78-2.83Z"/>
  </g>
  <g class="cls-4">
    <g>
      <path class="cls-13" d="m1094.65,483.35c-1.97,0-3.97,0-6,.02"/>
      <path class="cls-17" d="m1076.64,483.58c-60.79,1.57-144.4,12.04-234.69,50.6-202.5,86.48-300.06,255.11-333.56,322.38"/>
      <path class="cls-13" d="m505.72,861.95c-.93,1.9-1.8,3.71-2.6,5.4"/>
    </g>
    <path class="cls-12" d="m765.71,503.12c47.35-3.48,134.02-3.64,232.94,33.88,95.44,36.2,158.76,90.96,192,124.24"/>
    <path class="cls-12" d="m905.47,884.29c-21.37-56.95-27.67-105.24-29.65-136.94-2.02-32.52-13.32-213.86,101.65-300.71,17.33-13.09,33.48-20.98,43.76-25.41"/>
    <path class="cls-12" d="m1224.53,432.53c9.18,19.34,17.93,42.47,24,69.18,19.62,86.32-.14,160.14-14.12,199.06"/>
  </g>
  <g class="cls-26">
    <g>
      <path class="cls-20" d="m555.41,778.33s-4.24,193.3-59.25,208.22l350.53,4.51s-54.81-4.93-50.91-215.9l-240.37,3.17Z"/>
      <path class="cls-7" d="m686.31,2979.01h72.65c35.88-182.41,106.01-901.42,121.04-1243.85l-440.27,70.71c-12.68,61.07,121.57,1164.04,127.04,1173.14h83.89l-13.84-857.12,37.64,9.51,11.84,847.61Z"/>
      <g>
        <g>
          <g>
            <g>
              <path class="cls-29" d="m760.94,975.68c-29.43-23.53-32.16-87.87-34.99-152.04-.67-15.98-97.63-85.53-97.63-85.53,0,0-6.03,191.04-44.68,223.05,0,0-12.79,3.3-30.89,8.68v111.45l255.92,38.91v-127.23c-24.09-5.37-42.78-13.34-47.73-17.29Z"/>
              <path class="cls-8" d="m611.14,895.19c26.71,25.85,81.39,69.07,128.16,44.26-9.41-30.17-11.41-71.68-13.25-113.42l-102.52-16.45c-2.62,27.3-6.53,58.39-12.38,85.61Z"/>
            </g>
            <path class="cls-37" d="m794.97,986.55s-120.08,86.72-134.66,85.67c-9.03-.65-54.96-37.83-88.52-65.97v860.58c87.12,6.39,176.52.34,237.93-6.22v-869.64c-4.63-1.48-9.48-2.93-14.74-4.42Z"/>
            <path class="cls-33" d="m600.34,1029.81c-32.22-26.11-65.01-54.62-65.01-54.62,0,0-125.49,23.27-115.8,60.3,14.82,56.63,10.62,865.89,10.62,865.89,48.64,14.67,114.51,41.99,170.19,44.41v-915.99Z"/>
            <path class="cls-33" d="m888.51,1097.83l4.16-81.04c-36.5-28.97-75.37-34.25-113.08-44.94,0,0-8.63,34.88-40.29,56.31l-5.69,917.63c88.14-5.27,154.39-16.73,154.39-16.73,0,0,10.61-14.23,6.34-41.99,0,0-10.59-737.7-5.82-789.26Z"/>
          </g>
          <path class="cls-29" d="m777.37,722.33s11.05-102.94-41.94-137.84c-14.87-9.81-37.23-15.75-60.95-16.41v.3c-23.73.65-46.1,6.6-60.98,16.4-52.99,34.91-41.94,137.86-41.94,137.86-30.21-26.91-42.69,13.46-33.03,42.33,9.61,28.79,32.65,24.98,32.65,24.98,15.38,61.52,63.05,108.34,94.29,113.48,3.31.54,6.3.96,9,1.25v-.3c2.71-.3,5.67-.7,8.98-1.24,31.25-5.15,78.96-51.97,94.26-113.5,0,0,23.09,3.83,32.68-24.96,9.66-28.88-2.81-69.24-33.03-42.33Z"/>
        </g>
        <path class="cls-1" d="m247.97,1316.4s64.8,98.34,171.03,393.38l-28.63,25.38s-167.13-295.46-172.3-314.05c-11.12-39.66-3.28-71.82,29.91-104.71Z"/>
        <path class="cls-2" d="m398.89,1642.83l10.71,26.97s-13.09,31.34-40.43,38.07l-15.1-30.14,44.82-34.9Z"/>
        <path class="cls-1" d="m386.23,1727.84s16.82,45.8,36.65,38.99c19.84-6.81,19.84-25.86,19.84-25.86,0,0,38.6-14.27,30.15-36.48,0,0-8.49-16.67-45.49-19.7,0,0-16.38-1.97-19.02,21.82l-22.13,21.23Z"/>
      </g>
      <polygon class="cls-28" points="600.34 933.46 600.34 1481.03 519.46 1316.4 546.39 1247.86 474.06 1190.76 527.73 976.73 600.34 933.46"/>
      <polygon class="cls-28" points="735.73 926 733.61 1476.73 814.5 1312.1 787.52 1243.55 859.87 1186.46 806.19 972.43 735.73 926"/>
      <path class="cls-33" d="m426.03,1016.8l-228.59,370.65s61.03,136.06,150.71,293.46c20.32,35.66,52.7-22.17,58.69-31.72,5.24-8.4-113.46-257.46-101.52-253.8l151.7-203.43-30.98-175.16Z"/>
      <path class="cls-1" d="m1070.72,1316.4s-64.8,98.34-171.02,393.38l28.63,25.38s167.13-295.46,172.32-314.05c11.12-39.66,3.25-71.82-29.93-104.71Z"/>
      <path class="cls-2" d="m919.8,1642.83l-10.7,26.97s13.09,31.34,40.44,38.07l15.07-30.14-44.82-34.9Z"/>
      <path class="cls-1" d="m932.46,1727.84s-16.82,45.8-36.65,38.99c-19.83-6.81-19.83-25.86-19.83-25.86,0,0-38.61-14.27-30.15-36.48,0,0,8.45-16.67,45.45-19.7,0,0,16.41-1.97,19.05,21.82l22.13,21.23Z"/>
      <path class="cls-19" d="m892.67,1016.8l228.59,370.65s-61.06,136.06-150.72,293.46c-20.32,35.66-52.68-22.17-58.68-31.72-5.26-8.4,113.46-257.46,101.52-253.8l-151.68-203.43,30.96-175.16Z"/>
      <path class="cls-20" d="m571.56,722.63l.23,32.7,25.66-90s40.99,1.73,70.57,0l11.7-41.92,6.55,44.41s43.1,6.34,78.51-.53l7.41,81.44,7.51-28.34,14.06-6.78s26.71-219.75-114.04-186.96c0,0-131.17-46.54-126.97,187.17l18.82,8.81Z"/>
    </g>
    <g>
      <path class="cls-32" d="m1148.28,996.18s-49.55,8.8-61.38,22.81c-11.86,14.02-130.41,414.93-120.72,438.64,9.69,23.71,71.15,45.27,103.47-5.39,32.32-50.65,176.67-439,78.63-456.06Z"/>
      <path class="cls-32" d="m1618.11,998.06s49.55,8.81,61.4,22.82c11.87,14.02,130.41,414.93,120.72,438.63-9.71,23.72-71.13,45.26-103.48-5.39-32.32-50.65-176.64-439.01-78.63-456.07Z"/>
      <g>
        <g>
          <g>
            <g>
              <g>
                <path class="cls-32" d="m1601.91,1703.47l-448.68,72.07c-12.96,62.23-.3,183.6-.3,183.6,2.43,42.83,33.55,1097.88,33.55,1097.88l94.86,9.24s56.16-812.22,67.48-860.71c11.33-48.5,25.82-225.8,25.82-225.8l7.97.82,77.62,1085.69h103.45s50.84-991.92,38.23-1362.79Z"/>
                <path class="cls-23" d="m1526.73,998.41c-24.55-5.47-45.93-11.79-48.65-17.63-10.38-22.2-25.18-88.9-29.12-154.29-.96-16.29-118.24-87.82-118.24-87.82,0,0,2.38,156.52-33.34,227.32,0,0-36.04,9.3-73.02,22.2v93.92l302.37,45.96v-129.66Z"/>
                <path class="cls-8" d="m1468.65,952.65c-8.37-31.34-16.87-79.03-19.69-126.15-.1-1.61-1.34-3.77-3.49-6.32h-117.6c-2.24,30.21-6.26,64.46-13.32,94.95,37.63,30.84,108.78,77.84,154.09,37.52Z"/>
                <path class="cls-34" d="m1297.38,965.99l89.1,65.94,91.08-56.58,33.21,26.06-33.94,763.03s-96.84,21.01-228.67,0l49.22-798.45Z"/>
                <polygon class="cls-10" points="1375.38 1103.05 1339.21 1271.19 1377.29 1338.26 1432.57 1275.22 1405.89 1103.05 1375.38 1103.05"/>
                <polygon class="cls-10" points="1356.56 1062 1375.38 1103.05 1405.89 1103.05 1423.36 1062 1397.5 1031.93 1375.38 1031.93 1356.56 1062"/>
                <g>
                  <polygon class="cls-2" points="1291.92 1054.77 1330.44 1158.02 1386.49 1031.93 1297.38 965.99 1291.92 1054.77"/>
                  <polygon class="cls-2" points="1477.56 975.35 1386.49 1031.93 1449.54 1141.31 1491.22 986.06 1477.56 975.35"/>
                </g>
              </g>
              <path class="cls-9" d="m1481.86,968.25l-94.87,308.47c-18.46-65.06-86.17-303.5-89.61-310.74l-171.14,34.66c0,429.23,14.33,859.71,14.33,859.71,0,0,79.77,37.71,115.33,49.57l141.32-50.31,114.09,50.31c37.72-10.77,112.08-49.57,112.08-49.57l21.27-855.92c-40.75-9.69-112.93-32.35-162.81-36.19Z"/>
              <path class="cls-23" d="m1448.02,1358.07s42.47-17.67,56.48-19.82c0,0,71.72,3.27,80,16.21l12.47,14.97s-58.1,26.35-121.86,21.48l-27.09-32.85Z"/>
              <path class="cls-2" d="m1379.45,1374.64h42.09s9.14,23.71,4.83,46.34l-24.23,4.5-22.69-50.84Z"/>
            </g>
            <path class="cls-23" d="m1494.81,722.6s11.28-104.91-42.72-140.49c-15.17-10-37.96-16.04-62.14-16.72v.31c-24.17.67-46.97,6.72-62.14,16.71-54,35.58-42.71,140.49-42.71,140.49-30.82-27.43-43.53,13.7-33.66,43.13,9.78,29.33,33.25,25.46,33.25,25.46,15.64,62.7,64.27,110.41,96.11,115.66,3.38.55,6.4.96,9.16,1.27v-.31c2.76-.3,5.81-.71,9.16-1.27,31.87-5.24,80.47-52.96,96.11-115.67,0,0,23.48,3.89,33.27-25.44,9.85-29.44-2.85-70.57-33.68-43.14Z"/>
          </g>
          <path class="cls-31" d="m1271.46,583.38c-14.13,39.38-2.4,130.72-2.4,130.72,8.83,7.71,18.62,11.16,18.62,11.16,0,0,10.52-46.35,8.09-68.99-2.43-22.62,4.38-20.2,7.61-30.71,3.22-10.52,32.39-7.49,32.39-7.49,59.55,24.25,106.85-1.47,119.8-1.47s20.45,20.28,20.45,36.43,6.49,77.6,12.15,79.8c5.64,2.19,22.71-19.05,22.71-19.05.95-10.38,5.69-76.3,5.69-76.3,0,0,3.6-75.76-51.23-100.18-58.53-26.07-170.43-20.21-193.88,46.08Z"/>
        </g>
        <path class="cls-25" d="m1303.4,952.42l86.55,333.48-102.88-102.83-2.24-86.44-53.35-48.49,32.98-79.9s22.07-10.19,38.94-15.83Z"/>
        <path class="cls-25" d="m1470.56,959.53l-86.39,326.37,125.51-134.84-17.77-38.8,53.34-48.49-37.93-97.79s-22.99-3.56-36.78-6.46Z"/>
      </g>
      <path class="cls-6" d="m974.27,1403.74s-47.35,78.17,53.37,79.39c81.88.99,382.32-55.05,382.32-55.05,0,0,.81-37.72-11.05-58.2,0,0-418.08-14.61-424.63,33.86Z"/>
      <path class="cls-1" d="m1354.17,1362.05s-50.1-9.85-63.98-12.94c0,0-55.77.56-64.9,12.91l-.56,8.16s56.17,30.2,120.16,29.62l9.27-37.74Z"/>
      <path class="cls-2" d="m1391.54,1360.71l-41.96-2.83s-10.75,23.05-7.97,45.92l23.89,6.11,26.04-49.2Z"/>
      <path class="cls-6" d="m1793.87,1416.98s41.99,81.18-58.58,75.63c-81.8-4.52-377.77-80.64-377.77-80.64,0,0,1.72-37.69,14.92-57.32,0,0,418.13,13.53,421.42,62.34Z"/>
    </g>
    <g id="P297LW">
      <g>
        <path class="cls-29" d="m944.96,997.6s-125.3,22.12-169.99,93.47c-44.69,71.35-140.21,331.8-130.08,377.7,10.13,45.89,129.41,151.47,129.41,151.47l170.66-622.64Z"/>
        <path class="cls-3" d="m1124.63,788.37s39.7-83.67,8.6-135.16c-31.11-51.49-154.47-54.71-154.47-54.71,0,0,10.73,5.9,11.26,11.26.53,5.36-35.4-13.94-60.07,29.5-24.67,43.44-23.5,84.11,2.73,144.22,26.23,60.12,191.94,4.88,191.94,4.88Z"/>
        <path class="cls-9" d="m1239.81,1582.83c4.92,75.06,9.37,143.54,9.49,147.86.33,8.51-42.05,38.36-113.23,60.93-17.19,5.44-36.09,10.47-56.45,14.64-36.53,7.51-77.85,12.35-122.81,12.18-14.69-.06-28.62-.79-41.76-2.11-96.98-9.51-133.13-115.38-135.76-543.17-69.07-11.52-83.86-45-83.86-45,0,0,48.96-118.11,101.01-177.31,22.55-25.66,54.17-41.35,82.78-50.84,16.92-5.63,32.77-9.1,45.06-11.2,14.87-2.57,24.51-3.13,24.51-3.13,0,0,80.67-7.15,195.02,2.65,35.84,3.09,107.04,23.36,137.6,46.46,29.04,21.95-11.99,99.56-37.42,197.54-10.76,41.45,89.01,130.01,90.32,145.15.65,7.41-100.43,114.36-94.5,205.33Z"/>
        <path class="cls-29" d="m1110.34,982.87c.86-39.33.21-86.29-5.1-125.97l-156.99,25.65s0,47.9.69,101.06c-.1.01-.16.02-.16.02,0,0-4.28,49.31,56.45,56.53,60.74,7.22,106.74-19.24,105.1-57.3Z"/>
        <path class="cls-27" d="m1249.3,1730.67v.13c0,.15-.02.31-.04.5-.04.17-.08.38-.15.56-.06.21-.15.42-.25.62-.08.23-.21.46-.33.69-.5.92-1.25,1.96-2.27,3.11-.42.44-.86.92-1.34,1.4s-1,.98-1.54,1.5c-1.13,1.02-2.4,2.11-3.82,3.27-1.69,1.34-3.59,2.75-5.68,4.26-.56.4-1.13.79-1.71,1.19h-.02c-.71.48-1.42.96-2.15,1.46-.73.48-1.48.98-2.27,1.48-.79.5-1.59,1-2.4,1.52-.83.5-1.67,1.02-2.52,1.54-.86.52-1.73,1.04-2.63,1.57-.9.52-1.81,1.06-2.75,1.61h-.02c-1.85,1.06-3.82,2.15-5.84,3.25-2.02,1.09-4.13,2.19-6.3,3.32h-.02c-2.9,1.48-5.93,2.98-9.1,4.51-3.17,1.5-6.47,3.02-9.89,4.55-1.71.75-3.44,1.52-5.22,2.27-.9.38-1.79.75-2.69,1.15-1.59.65-3.19,1.31-4.82,1.98-1.15.48-2.32.94-3.5,1.42h-.02c-1.9.75-3.82,1.5-5.76,2.26-2.94,1.13-5.95,2.25-9.01,3.36-1.52.54-3.09,1.09-4.65,1.65-4.71,1.65-9.55,3.25-14.54,4.84-1.57.5-3.15,1-4.76,1.48-.02,0-.04.02-.06.02-2.11.65-4.21,1.27-6.36,1.9-2.17.63-4.36,1.25-6.59,1.88-.02,0-.02.02-.04.02-.04.04-.08.08-.11.15-6.63,77.89-24.59,187.93-40.82,294.13v.04c-4.19,27.51-8.24,54.78-12,81.15-9.89,69.82-17.29,133.42-18.08,179.21v.48c-.36,21.01,17.38,73.41,18.71,85.51.81,7.41,1.48,15.25,1.96,23.45,1.79,30.5,1.27,66.17-.96,104.28v.02c-.17,2.86-.33,5.74-.52,8.61-2.11,32.65-5.38,66.92-9.45,101.26-1.34,11.33-2.77,22.65-4.28,33.92-19.07,143.65-49.69,278.76-62.64,286.23-.08.04-.17.1-.25.13-33.88,19.34-95.23-.17-126.46-4.72-1.56-.23-3.09-.6-4.57-1.08h-.02c-10.72-3.57-18.65-13.47-18.07-24.95,4.09-80.02,3.94-168.43.9-259.92-.36-11.2-.77-22.45-1.23-33.73-9.7-241.71-38.11-500.21-61.1-679.87-.86-6.68-1.71-13.22-2.54-19.65-3.92-30.27-6.53-58.51-8.16-83.98-1.5-22.34-2.21-42.62-2.54-60.2-.06-5.49-.13-10.72-.15-15.67-.04-7.11,2.44-31.67,5.28-98.57v-.02c.46-11.03.94-23.22,1.42-36.69.56-16.17,1.15-34.19,1.69-54.22.02-.67.04-1.31.06-1.98.33-12.6.69-25.99,1-40.22,1-42.91,1.88-93.43,2.57-152.91.08-8.57.19-17.34.27-26.28.37-38.88.67-81.36.83-127.71.08-20.63.15-42.06.17-64.27,0-5.57,2.27-10.64,5.94-14.29,3.67-3.67,8.74-5.94,14.29-5.94h294.57c28.45,0,51.36,23.28,51,51.75-.46,36.74.88,88.05,8.84,137.01,9.47,58.26,28.35,113.17,64.83,136.28,5.28,3.36,10.91,6.05,16.94,7.97.15.06.29.1.44.15.04.02.08.04.1.08.23.5,1.54,3.42,3.65,8.3,0,.02.02.04.02.06.44,12.1.96,24.41,1.52,36.94.1,2.52.21,5.07.33,7.59.06,1.5.15,2.96.21,4.46.13,2.54.25,5.11.38,7.68.19,4.21.42,8.47.65,12.77.19,3.38.37,6.74.56,10.14.35,6.51.75,13.12,1.17,19.78.02.37.04.75.06,1.13v.02c.1,1.75.21,3.48.36,5.26.56,8.62,1.15,17.36,1.81,26.14.19,2.71.4,5.4.6,8.14.08,1.31.19,2.61.29,3.92.27,3.44.54,6.91.83,10.37.29,3.67.61,7.36.94,11.08,1.17,13.52-.56,25.58-.21,35.05Z"/>
        <path class="cls-3" d="m1066.94,2565.32v.02c-.17,2.86-.33,5.74-.52,8.61-2.11,32.65-5.38,66.92-9.45,101.26-1.34,11.33-2.77,22.65-4.28,33.92-19.07,143.65-49.69,278.76-62.64,286.23-.08.04-.17.1-.25.13-33.88,19.34-95.23-.17-126.46-4.72-1.56-.23-3.09-.6-4.57-1.08h-.02c-10.72-3.57-18.65-13.47-18.07-24.95,4.09-80.02,3.94-168.43.9-259.92-.36-11.2-.77-22.45-1.23-33.73-9.7-241.71-38.11-500.21-61.1-679.87-.86-6.68,69.34-223.4,149.21-13,0,.02.02.04.02.08,35.32,91.39,118.74,326.22,118.74,373.3v.48c-.36,21.01,17.38,73.41,18.71,85.51.81,7.41,1.48,15.25,1.96,23.45,1.79,30.5,1.27,66.17-.96,104.28Z"/>
        <path class="cls-9" d="m1319.02,2684.16c-.5,11.58-1.11,23.11-1.75,34.54-7.97,137.62-26.03,261.3-36.84,269.62-2.32,1.77-4.82,3.36-7.47,4.78-32.86,17.44-89.49,7.7-118.74,7.3-6.34-.1-12.35-2.38-16.98-6.2-4.96-4.07-8.36-9.89-8.91-16.61-6.05-74.74-16.73-156.31-30.39-240.5-1.81-11.16-3.67-22.36-5.57-33.61-7.78-45.68-16.33-91.95-25.43-138.18-41.14-208.94-93.27-416.9-132.5-563.88-2.09-7.84-4.07-15.56-5.95-23.13,0-.04-.02-.06-.02-.08-17.9-72.34-26.01-131.42-29.54-164.53-.23-2.13-.44-4.13-.63-6.03-1.48-14.77-1.9-22.93-1.9-22.93,0,0,59.16-38.03,128.96-74.56,1.98-1.02,3.96-2.04,5.95-3.09,15.73-8.14,31.94-16.12,48.04-23.57,50.88-23.45,100.97-41.18,133.15-39.26,15.89.94,27.43,6.68,32.54,18.86,1.36,3.21,2.27,6.9,2.69,11.06,12.93,127.67,54.24,713.51,57.18,725.32,16.77,67.42,18.84,177.67,14.1,284.66Z"/>
        <path class="cls-27" d="m1154.41,989.78s-91.14,106.18-96.49,198.83h46.32s11.8-100.72,80.4-192.48l-30.24-6.35Z"/>
        <path class="cls-27" d="m924.27,988.83c-62.02,100.11-69.49,199.78-69.49,199.78h-46.31c3.67-71.64,45-147.71,70.74-188.58,16.92-5.63,32.77-9.1,45.06-11.2Z"/>
        <path class="cls-8" d="m1109.06,897.47s-38.89,45.99-80.39,46.09c-51.72.12-79.89-49.66-79.89-49.66l160.28,3.57Z"/>
        <path class="cls-29" d="m952.91,897.86c15.26,12,59.98,23.92,72.91,25.31,0,0,66.32-14.79,78.38-22.06,18.67-11.32,17.47-34.23,18.43-66.08,1.15-37.7,4.95-67.31.74-89.04-5-26-21.49-40.79-67.63-44.81-84.72-7.35-120.01,13.86-121.49,42.26-.38,7.63-.74,14.9-.98,21.79-3.39,88.58,3.61,119.99,19.65,132.62Z"/>
        <path class="cls-3" d="m1124.63,788.37s6.99-75.62-37.53-75.62-104.58,56.85-131.4,20.38c-26.82-36.47-23.01,50.37-23.01,50.37l-2.73-116.33,171.63-6.44,35.93,26.82-12.89,100.83Z"/>
        <polygon class="cls-3" points="1057.92 1807.62 796.18 1807.71 695.43 1427.14 957.18 1427.04 1057.92 1807.62"/>
        <path class="cls-29" d="m1361.5,1221.22s38.24,238.82,31.99,305.76c-6.26,66.95-310.9,164.99-310.9,164.99l-24.67-64.47s196.54-127.7,192-148.43c-4.54-20.73-41.44-208.16-41.2-216.29.24-8.13,38.61,20.96,152.78-41.55Z"/>
        <path class="cls-29" d="m1057.92,1627.5s-72.68-2.98-109.15,15.8c-36.47,18.77-66.9,43.96-52.38,59.88,14.52,15.92,69.85-6.34,93.33,6.18,23.48,12.52,92.86-17.38,92.86-17.38l-24.67-64.47Z"/>
        <path class="cls-29" d="m1057.92,1627.5s-58-26.62-58-19.66,5.56,16.69,17.38,23.64c11.82,6.95,40.62-3.98,40.62-3.98Z"/>
        <path class="cls-9" d="m1265.56,1024.87s29.19,7.21,65.35,86.48c36.16,79.27,51.46,140.25,51.46,140.25,0,0-29.69,55.84-197.72,71.14,0,0-53.09-150.2,0-219.73,53.09-69.53,80.92-78.14,80.92-78.14Z"/>
        <path class="cls-29" d="m761.27,1675.83s28.7,3.82,44.03-8c15.34-11.82-43.15-63.12-61.25-57.04-18.1,6.08-1.3,52.42,17.22,65.04Z"/>
        <path class="cls-30" d="m945.86,1400.81s20.03,3.28,11.32,26.23h-89.37l28.59-26.23h49.46Z"/>
        <path class="cls-2" d="m945.86,1400.81s-39.46,0-53.16,31.79c-16.75,38.85-9.59,147.42-9.59,147.42h-210s-33.15-127.58,36.16-179.21h236.59Z"/>
        <path class="cls-9" d="m1161.03,734.39l-264.66,2.83s-3.88-79.8,41.98-130.69c2.09-2.36,4.31-4.63,6.66-6.85,9.9-9.4,21.82-17.52,36.15-23.49,52.9-22.07,96.78-1.7,124.2,19.16,2.7,2.04,5.25,4.1,7.61,6.14,14.91,12.67,23.23,23.97,23.23,23.97,0,0,25.7,35.05,24.84,108.94Z"/>
        <path class="cls-3" d="m987.59,736.31l-15.66.16c-2.22-58.33-25.59-120.86-31.8-131.79,2.09-2.36,2.54-2.79,4.88-5.01,4.3,7.2,40.09,71.79,42.58,136.63Z"/>
        <path class="cls-3" d="m1086.76,735.16l-14.54.16c-.3-4.22.41-100.27,36.24-137.56,2.7,2.04,2.14,1.68,4.5,3.72-34.02,32.84-26.27,132.69-26.2,133.67Z"/>
        <path class="cls-3" d="m896.37,737.22s-.08,26.7,122.33,26.46c137.74-.28,142.33-29.29,142.33-29.29l-264.66,2.83Z"/>
      </g>
    </g>
  </g>
  <g>
    <g>
      <path class="cls-21" d="m1351.16,740.5c0,5.78-4.68,10.46-10.46,10.46s-10.46-4.68-10.46-10.46,4.68-10.46,10.46-10.46,10.46,4.68,10.46,10.46Z"/>
      <path class="cls-21" d="m1447.99,740.5c0,5.78-4.68,10.46-10.46,10.46s-10.46-4.68-10.46-10.46,4.68-10.46,10.46-10.46,10.46,4.68,10.46,10.46Z"/>
    </g>
    <path class="cls-18" d="m1383.87,763.28v14.11c.02,3.56,3.18,6.22,6.55,5.52l7.5-1.57"/>
    <path class="cls-21" d="m1371.78,708.1l-63.38,7.62s5.09-16.81,30.98-19.7c25.9-2.89,32.39,12.08,32.39,12.08Z"/>
    <path class="cls-21" d="m1408.32,708.1l63.38,7.62s-5.09-16.81-30.98-19.7c-25.9-2.89-32.4,12.08-32.4,12.08Z"/>
    <path class="cls-2" d="m1357.45,799.09h63.99s1.08,23.82-32.08,22.42c-33.16-1.4-31.91-22.42-31.91-22.42Z"/>
  </g>
  <g>
    <g>
      <path class="cls-21" d="m998.66,821.57c0,4.6-3.73,8.33-8.33,8.33s-8.33-3.73-8.33-8.33,3.73-8.33,8.33-8.33,8.33,3.73,8.33,8.33Z"/>
      <path class="cls-21" d="m1075.76,821.57c0,4.6-3.73,8.33-8.33,8.33s-8.33-3.73-8.33-8.33,3.73-8.33,8.33-8.33,8.33,3.73,8.33,8.33Z"/>
    </g>
    <path class="cls-11" d="m1024.71,839.71v11.24c.02,2.83,2.53,4.96,5.22,4.39l5.98-1.25"/>
    <path class="cls-21" d="m1015.08,795.76l-50.47,6.07s4.05-13.39,24.67-15.68c20.62-2.3,25.8,9.62,25.8,9.62Z"/>
    <path class="cls-21" d="m1044.18,795.76l50.47,6.07s-4.05-13.39-24.67-15.68c-20.62-2.3-25.8,9.62-25.8,9.62Z"/>
    <path class="cls-2" d="m1003.66,868.22h50.96s.86,18.97-25.55,17.85c-26.41-1.12-25.41-17.85-25.41-17.85Z"/>
  </g>
  <g>
    <polyline class="cls-14" points="694.68 785.28 695.46 797.19 683.69 797.21"/>
    <path class="cls-22" d="m636.19,712.46s22.51-.89,22.42,6.36c0,0-.23,4.9-19.86,5.37-19.63.47-24.67-.79-26.26-5.44-1.59-4.65,13.17-6.51,23.7-6.29Z"/>
    <path class="cls-22" d="m726.01,715.4s-18.47-1.99-20.27,4.77c0,0-1.08,4.58,15.1,6.03,16.18,1.45,21.53-.05,23.22-3.72,1.92-4.16-9.24-6.75-18.05-7.08Z"/>
    <path class="cls-15" d="m657.07,759.66s-10.03-14.33-28.62-.47"/>
    <path class="cls-15" d="m734.02,762.58s-8.93-14.21-21.38-.93"/>
    <path class="cls-15" d="m676.02,818.39s-15.35,3.64-27.82-11.82"/>
  </g>
</svg>