<?xml version="1.0" encoding="UTF-8"?>
<svg xmlns="http://www.w3.org/2000/svg" xmlns:xlink="http://www.w3.org/1999/xlink" viewBox="0 0 2000 2000">
  <defs>
    <style>
      .cls-1 {
        fill: #b8b9c1;
      }

      .cls-2 {
        fill: #fff;
      }

      .cls-3 {
        fill: #d9d9d9;
      }

      .cls-3, .cls-4 {
        mix-blend-mode: multiply;
      }

      .cls-5 {
        fill: #b0b0af;
      }

      .cls-6 {
        isolation: isolate;
      }

      .cls-7 {
        fill: #868686;
      }

      .cls-8 {
        fill: #403834;
      }

      .cls-9 {
        fill: #141a46;
      }

      .cls-10 {
        fill: #331b19;
      }

      .cls-11 {
        stroke-width: 11.45px;
      }

      .cls-11, .cls-12 {
        stroke: #1b172c;
      }

      .cls-11, .cls-12, .cls-13 {
        fill: none;
        stroke-linecap: round;
        stroke-linejoin: round;
      }

      .cls-14 {
        fill: #0b181b;
      }

      .cls-15 {
        fill: #181d3a;
      }

      .cls-16 {
        fill: #793641;
      }

      .cls-17 {
        opacity: .4;
      }

      .cls-18 {
        fill: #cc7646;
      }

      .cls-19 {
        fill: #605f5f;
      }

      .cls-4 {
        fill: #683ccf;
        opacity: .28;
      }

      .cls-20 {
        fill: #23100b;
      }

      .cls-21 {
        fill: #f7f7f7;
      }

      .cls-12 {
        stroke-width: 9.13px;
      }

      .cls-22 {
        fill: url(#linear-gradient);
      }

      .cls-23 {
        fill: #f8ba8c;
      }

      .cls-24 {
        fill: #352e35;
      }

      .cls-25 {
        fill: #e4a47f;
      }

      .cls-26 {
        fill: #9c9b9b;
      }

      .cls-27 {
        fill: #0b5b07;
      }

      .cls-13 {
        stroke: #021833;
        stroke-width: 7.35px;
      }

      .cls-28 {
        fill: #c6c6c5;
      }

      .cls-29 {
        fill: #a1c9de;
      }

      .cls-30 {
        fill: #d1edfc;
      }

      .cls-31 {
        fill: #dfdfdf;
      }
    </style>
    <linearGradient id="linear-gradient" x1="402.33" y1="937.71" x2="1595.82" y2="937.71" gradientUnits="userSpaceOnUse">
      <stop offset="0" stop-color="#d5dbff"/>
      <stop offset="1" stop-color="#f0f3ff"/>
    </linearGradient>
  </defs>
  <g class="cls-6">
    <g id="Layer_1" data-name="Layer 1">
      <path class="cls-30" d="m1737,1000c0,114.46-26.09,222.82-72.65,319.47-119.02,247.05-371.77,417.53-664.35,417.53s-545.33-170.48-664.35-417.53c-46.56-96.65-72.65-205.01-72.65-319.47,0-407.03,329.97-737,737-737s737,329.97,737,737Z"/>
      <path class="cls-29" d="m1594.73,1435.36c-134.11,182.9-350.56,301.64-594.73,301.64s-460.62-118.74-594.73-301.64h1189.46Z"/>
      <g class="cls-17">
        <path class="cls-22" d="m703.59,440.06h592.94c.47,141.18.94,282.35,1.41,423.53,98.82.47,197.65.94,296.47,1.41.47,188.71.94,377.41,1.41,566.12-397.65,1.41-795.29,2.82-1192.94,4.24-.18-188.87-.37-377.73-.55-566.6,99.95-.78,199.9-1.56,299.85-2.34.47-142.12.94-284.24,1.41-426.35Z"/>
        <path class="cls-2" d="m952.76,925.71c30.35-.47,60.71-.94,91.06-1.41.47,23.76.94,47.53,1.41,71.29,23.06.24,46.12.47,69.18.71.24,29.88.47,59.76.71,89.65-22.12.47-44.24.94-66.35,1.41-1.65,24-3.29,48-4.94,72-27.76-.47-55.53-.94-83.29-1.41-1.65-23.06-3.29-46.12-4.94-69.18-23.76-.47-47.53-.94-71.29-1.41-.24-29.65-.47-59.29-.71-88.94,22.35.71,44.71,1.41,67.06,2.12.71-24.94,1.41-49.88,2.12-74.82Z"/>
        <rect class="cls-2" x="1383.66" y="1238.8" width="141.56" height="141.56"/>
        <rect class="cls-2" x="1383.66" y="913.82" width="141.56" height="141.56"/>
        <rect class="cls-2" x="1088.19" y="761.52" width="141.56" height="141.31"/>
        <rect class="cls-2" x="1088.19" y="498.91" width="141.56" height="141.56"/>
        <rect class="cls-2" x="770.59" y="761.52" width="141.56" height="141.31"/>
        <rect class="cls-2" x="770.59" y="498.91" width="141.56" height="141.56"/>
        <rect class="cls-2" x="474.79" y="1238.8" width="141.56" height="141.56"/>
        <rect class="cls-2" x="475.12" y="913.69" width="141.56" height="141.56"/>
        <path class="cls-1" d="m1535.09,1075.01h-161.07c-5.43,0-9.88-4.45-9.88-9.88v-161.07c0-5.43,4.45-9.88,9.88-9.88h161.07c5.43,0,9.88,4.45,9.88,9.88v161.07c0,5.43-4.45,9.88-9.88,9.88Zm-9.88-161.32h-141.56v141.56h141.56v-141.56Z"/>
        <path class="cls-1" d="m1525.21,1380.36v-141.56h-141.56v141.56h141.56Zm19.76-151.19v161.07c0,5.44-4.45,9.88-9.88,9.88h-161.07c-5.43,0-9.88-4.45-9.88-9.88v-161.07c0-5.43,4.45-9.88,9.88-9.88h161.07c5.43,0,9.88,4.45,9.88,9.88Z"/>
        <path class="cls-1" d="m1287.06,912.71v-8.9c0-5.19,4.45-9.63,9.88-9.63s9.88,4.45,9.88,9.63v284.59c0,5.43-4.45,9.88-9.88,9.88s-9.88-4.45-9.88-9.88v-275.7Z"/>
        <path class="cls-1" d="m1287.06,1229.17c0-5.43,4.45-9.88,9.88-9.88s9.88,4.45,9.88,9.88v161.07c0,5.44-4.45,9.88-9.88,9.88s-9.88-4.45-9.88-9.88v-161.07Z"/>
        <path class="cls-1" d="m1181.33,1219.29c5.43,0,9.88,5.26,9.88,11.68v195.09h-19.52v-195.09c0-6.42,4.2-11.68,9.63-11.68Z"/>
        <path class="cls-4" d="m1123.27,1230.97c0-6.42,4.2-11.68,9.63-11.68s9.88,5.26,9.88,11.68v195.09h-19.52v-195.09Z"/>
        <path class="cls-1" d="m1088.19,640.47h141.56v-141.56h-141.56v141.56Zm-19.52,9.88v-161.32c0-5.19,4.45-9.63,9.88-9.63h161.07c5.43,0,9.88,4.45,9.88,9.63v161.32c0,5.43-4.45,9.63-9.88,9.63h-161.07c-5.43,0-9.88-4.2-9.88-9.63Z"/>
        <path class="cls-1" d="m1068.68,751.64c0-5.44,4.45-9.88,9.88-9.88h161.07c5.43,0,9.88,4.45,9.88,9.88v161.07c0,5.43-4.45,9.88-9.88,9.88h-161.07c-4.2,0-7.66-2.47-9.14-5.93-.49-1.24-.74-2.72-.74-3.95v-161.07Zm19.52,151.19h141.56v-141.31h-141.56v141.31Z"/>
        <path class="cls-1" d="m1107.46,1008.06h-62.75c-5.43,0-9.88-4.2-9.88-9.63v-62.99h-69.67v62.99c0,5.43-4.45,9.63-9.88,9.63h-62.75v69.91h62.75c5.43,0,9.88,4.45,9.88,9.88v62.75h69.67v-62.75c0-5.43,4.45-9.88,9.88-9.88h62.75v-69.91Zm-234.44,79.79v-89.43c0-5.43,4.2-9.88,9.63-9.88h62.99v-63c0-2.72.99-4.94,2.72-6.67,1.73-1.98,4.2-2.97,6.92-2.97h89.43c2.72,0,5.19.99,6.92,2.97,1.98,1.73,2.96,3.95,2.96,6.67v63h62.75c5.43,0,9.88,4.45,9.88,9.88v89.43c0,5.43-4.45,9.63-9.88,9.63h-62.75v62.99c0,5.44-4.45,9.63-9.88,9.63h-89.43c-5.43,0-9.63-4.2-9.63-9.63v-62.99h-62.99c-5.43,0-9.63-4.2-9.63-9.63Z"/>
        <path class="cls-1" d="m867.09,1219.29c5.43,0,9.63,5.26,9.63,11.68v195.09h-19.52v-195.09c0-6.42,4.45-11.68,9.88-11.68Z"/>
        <path class="cls-1" d="m818.67,1219.29c5.44,0,9.88,5.26,9.88,11.68v195.09h-19.76v-195.09c0-6.42,4.45-11.68,9.88-11.68Z"/>
        <path class="cls-1" d="m770.25,640.47h141.56v-141.56h-141.56v141.56Zm151.44,19.52h-161.32c-5.43,0-9.63-4.2-9.63-9.63v-161.32c0-5.19,4.2-9.63,9.63-9.63h161.32c5.19,0,9.63,4.45,9.63,9.63v161.32c0,5.43-4.45,9.63-9.63,9.63Z"/>
        <path class="cls-1" d="m911.81,902.82v-141.31h-141.56v141.31h141.56Zm-151.44-161.07h161.32c5.19,0,9.63,4.45,9.63,9.88v161.07c0,1.23-.25,2.72-.74,3.95-1.48,3.46-4.94,5.93-8.89,5.93h-161.32c-5.43,0-9.63-4.45-9.63-9.88v-161.07c0-5.44,4.2-9.88,9.63-9.88Z"/>
        <path class="cls-1" d="m693.42,903.81c0-5.19,4.2-9.63,9.63-9.63s9.88,4.45,9.88,9.63v284.59c0,5.43-4.45,9.88-9.88,9.88s-9.63-4.45-9.63-9.88v-284.59Z"/>
        <path class="cls-1" d="m693.42,1229.17c0-5.43,4.2-9.88,9.63-9.88s9.88,4.45,9.88,9.88v161.07c0,5.44-4.45,9.88-9.88,9.88s-9.63-4.45-9.63-9.88v-161.07Z"/>
        <path class="cls-1" d="m616.34,1055.25v-141.56h-141.56v141.56h141.56Zm-151.44-161.07h161.32c5.44,0,9.63,4.45,9.63,9.63v161.32c0,5.43-4.2,9.63-9.63,9.63h-161.32c-5.43,0-9.63-4.2-9.63-9.63v-161.32c0-5.19,4.2-9.63,9.63-9.63Z"/>
        <path class="cls-1" d="m474.79,1380.36h141.56v-141.56h-141.56v141.56Zm-19.52-151.19c0-5.43,4.2-9.88,9.63-9.88h161.32c5.44,0,9.63,4.45,9.63,9.88v161.07c0,5.44-4.2,9.88-9.63,9.88h-161.32c-5.43,0-9.63-4.45-9.63-9.88v-161.07Z"/>
      </g>
      <g>
        <g>
          <path class="cls-9" d="m1410.89,1389.17s-48.91,40.72-145.31,40.72-136.05-40.72-136.05-40.72c0,0-90.15-286.75-72.9-333.36,17.25-46.61,126.36-52.09,126.36-52.09h175.78s99.31,9.97,117.74,52.09c18.45,42.11-65.61,333.36-65.61,333.36Z"/>
          <path class="cls-25" d="m1358.77,1003.72c.64.52,3.44,1.65,4.51,4.39,3.98,10.22-19.85,28.19-21.9,29.72-25.66,19.06-55.71,19.4-74.16,19.6-6.68.07-35.88.04-66.98-13.48,0,0-24.29-10.56-30.96-27.02-.45-1.11-1.7-4.19-.74-7.54.97-3.36,3.66-5.27,4.19-5.67,51.38-39.48,34.26-100.57,34.26-100.57h121.42s-16.76,62.4,30.37,100.57Z"/>
          <path class="cls-23" d="m1399.85,771.21s20.38-35.77,34.26-28.83c29.1,14.56,4.89,91.6-11.87,99.55-16.76,7.96-23.18-18.15-23.18-18.15"/>
          <path class="cls-23" d="m1123.77,771.21s-20.38-35.77-34.25-28.83c-29.1,14.56-4.9,91.6,11.87,99.55,16.76,7.96,23.18-18.15,23.18-18.15"/>
          <path class="cls-23" d="m1105.97,723.85s24.91,169.29,40.47,187.97c15.57,18.67,93.56,75.49,118.47,75.49s107.47-57.2,121.47-82.88c15.04-27.6,30.92-180.57,30.92-180.57,0,0,17.88-170.6-152.39-170.6s-158.94,170.6-158.94,170.6Z"/>
          <g>
            <path class="cls-8" d="m1398.31,563.74c27.75,31.59,27.21,116.93,21.49,174.52-.14.28-9.84,24.09-14.78,41.82,0,0-16.84-129.04-48.03-139.24-31.23-10.05-27.86,18.58-100.34,18.58v-153.84c45.51,1.24,104.95,16.41,141.65,58.16Z"/>
            <path class="cls-8" d="m1115,563.74c-27.78,31.59-27.22,116.93-21.42,174.52.04.28,9.74,24.09,14.67,41.82,0,0,16.88-129.04,48.11-139.24,31.19-10.05,27.82,18.58,100.3,18.58v-153.84c-45.51,1.24-104.95,16.41-141.65,58.16Z"/>
          </g>
        </g>
        <g>
          <path class="cls-20" d="m613.76,1085.61c58.78,84.06,168.06,71.21,204.31-7.01,36.25-78.22,63.49-273.36,63.49-273.36l-361.54-7.98s34.96,204.28,93.74,288.35Z"/>
          <path class="cls-21" d="m848.42,1393.97s-48.91,40.72-145.31,40.72-136.06-40.72-136.06-40.72c0,0-90.15-286.75-72.89-333.36,17.24-46.61,126.35-52.09,126.35-52.09h175.78s99.31,9.97,117.74,52.09c18.44,42.11-65.62,333.36-65.62,333.36Z"/>
          <path class="cls-25" d="m796.3,1008.52c23.93,19.38-93.17,100.44-93.17,100.44,0,0-118.16-80.99-92.87-100.44,51.37-39.48,34.25-100.57,34.25-100.57h121.42s-16.77,62.4,30.37,100.57Z"/>
          <path class="cls-23" d="m837.39,776.01s20.37-35.77,34.25-28.83c29.1,14.56,4.89,91.6-11.86,99.55-16.76,7.96-23.18-18.15-23.18-18.15"/>
          <path class="cls-23" d="m561.3,776.01s-20.38-35.77-34.25-28.83c-29.1,14.56-4.89,91.6,11.86,99.55,16.76,7.96,23.18-18.15,23.18-18.15"/>
          <path class="cls-23" d="m543.5,728.66s24.91,169.29,40.47,187.97c15.57,18.67,93.56,75.49,118.46,75.49s107.47-57.2,121.48-82.88c15.05-27.6,30.92-180.57,30.92-180.57,0,0,17.88-170.6-152.39-170.6s-158.93,170.6-158.93,170.6Z"/>
          <path class="cls-10" d="m547.95,757.4c2.37,41.01,24.17,70.59,24.17,70.59,0,0-10.12-49.04-6.23-98.85,3.89-49.82,46.7-70.82,53.7-72.39,7.01-1.56,14.01,7.01,14.01,7.01,0,0,14.28-14.01,23.49-14.01s14.65,28.8,82.37,49.04c62.71,18.74,70.05-6.23,87.17,25.68,22.48,41.91-3.89,92.62-3.89,92.62,0,0,17.73-.61,27.85-51.19,7-22.58,21.04-18.71,21.04-18.71,0,0-12.16-98.21-41.89-146.47-33.22-53.9-112.43-60.67-148.66-60.71-95.31-.09-152.07,102.74-158.29,132.32-6.22,29.58,0,77.8,0,77.8,0,0,22.48-9.17,25.16,7.28Z"/>
          <path class="cls-31" d="m582.28,536.53s41.98-41.67,110.86-41.67c72.39,0,109.71,41.67,109.71,41.67l-19.17,107.77s-38.31-22.99-86.44-22.99-92.4,20.39-92.4,20.39l-22.56-105.17Z"/>
          <path class="cls-9" d="m722.79,541.44h-13.61v-13.61c0-2.9-2.35-5.25-5.25-5.25h-22.74c-2.89,0-5.24,2.35-5.24,5.25v13.61h-13.62c-2.9,0-5.24,2.35-5.24,5.25v22.73c0,2.9,2.34,5.25,5.24,5.25h13.62v13.61c0,2.9,2.34,5.25,5.24,5.25h22.74c2.9,0,5.25-2.35,5.25-5.25v-13.61h13.61c2.89,0,5.25-2.35,5.25-5.25v-22.73c0-2.9-2.35-5.25-5.25-5.25Z"/>
          <path class="cls-31" d="m805.67,1009.74l-18.35-36.21s-42.26,63.37-60.7,85.23c-13.57,16.07-18.68,46.81-18.68,46.81,0,0,33.85-9.06,70.32-48.54,23.76-25.72,27.41-47.28,27.41-47.28Z"/>
          <path class="cls-31" d="m601.61,1009.74l20.5-28.99s40.11,56.15,58.55,78.01c13.57,16.07,18.68,46.81,18.68,46.81,0,0-33.86-9.06-70.32-48.54-23.76-25.72-27.41-47.28-27.41-47.28Z"/>
          <rect class="cls-31" x="764.37" y="1231.55" width="91.01" height="16.34"/>
          <path class="cls-9" d="m717.14,1152.76c0,7.74-6.28,14.02-14.02,14.02s-14.02-6.28-14.02-14.02,6.28-14.03,14.02-14.03,14.02,6.28,14.02,14.03Z"/>
          <path class="cls-9" d="m717.14,1245.64c0,7.74-6.28,14.02-14.02,14.02s-14.02-6.28-14.02-14.02,6.28-14.02,14.02-14.02,14.02,6.28,14.02,14.02Z"/>
          <path class="cls-9" d="m717.14,1338.52c0,7.74-6.28,14.03-14.02,14.03s-14.02-6.28-14.02-14.03,6.28-14.02,14.02-14.02,14.02,6.27,14.02,14.02Z"/>
        </g>
        <path class="cls-3" d="m1320.57,1199.27c-12.73-26.83-68.96-53.33-117.17-71.81-8.72-21.15-24.63-47.62-49.16-57.79-15.82-6.57-33.02-5.29-49.72,3.68-5.32-10.59-7.71-21.52-8.27-31.92,29.11-19.16,55.42-40.58,63.52-54.28,7.22-12.22,14.58-45.6,20.94-82.22,4.49,7.44,12.25,14.88,24.18,9.65,21.09-9.24,51.55-98.71,14.93-115.63,0,0-15.29-114.05-52.71-170.09-41.79-62.6-141.47-70.46-187.06-70.5-119.93-.11-191.35,119.32-199.2,153.66-7.83,34.34,0,90.32,0,90.36-27.94,23.03.35,103.47,20.29,112.21,16.19,7.1,24.69-9.11,27.77-17.03h.01s-.01,0-.01,0h.01c9.47,45.48,20.33,88.67,28.92,98.19,9.46,10.47,37.25,31.27,66.98,49.99.03,9.48-1.11,19.02-4.15,27.73-7.44-3.18-25.23-7.06-42.74-.08-16.23,6.48-27.93,20.11-34.79,40.52-.72,2.15-1.37,4.61-1.95,7.29-55.13,17.51-126.23,45.75-139.21,78.1-9.36,23.32,6.38,96.11,27.32,171.4-3.38,6.17-6.48,12.4-9.11,18.6l3.07.07c-7.32,17.2-11.62,34.42-10.2,49.62,2.27,24.3,20.99,44.84,55.71,61.19,14.22,43.55,24.95,73.87,24.95,73.87,0,0,73.38,49.62,217.83,49.62,131.75,0,226.43-49.62,226.43-49.62,0,0,105.78-325.84,82.58-374.74Zm-175.97-109.82c10.44,4.33,19.71,14.64,27.07,26.5-24.59-8.45-42.23-13.49-42.23-13.49-4.63-3.46-8.6-7.1-12.11-10.85,9.77-4.98,18.7-5.71,27.27-2.16Zm-34.43-6.64c-1.36-1.94-2.6-3.9-3.73-5.88l3.73,5.88Zm-312.67-283.36c6.83.19,13.48,2.7,15.01,11.36h0c-4.69-4.86-9.88-9.18-15.01-11.36Zm118.54,283.95l2.43-4.61c-.73,1.58-1.55,3.11-2.43,4.61Zm-28.77,9.87c8.83-3.52,17.78-1.96,21.82-.75-3.75,3.85-8.26,7.23-13.76,9.93-2.13,1.05-3.54,2.52-4.38,4.33-6.19,1.62-13.83,3.69-22.38,6.13,4.62-9.89,10.86-16.52,18.7-19.64Zm-151.98,343.93c-.82-8.83,1.06-18.96,4.63-29.58,6.46,21.83,13.07,43.22,19.35,63.01-12.81-8.88-22.72-19.98-23.97-33.43Z"/>
        <g>
          <circle class="cls-15" cx="1317.62" cy="799.9" r="11.33"/>
          <path class="cls-15" d="m1221.17,799.9c0-6.26-5.07-11.33-11.33-11.33-6.26,0-11.33,5.07-11.33,11.33,0,6.26,5.07,11.33,11.33,11.33,6.26,0,11.33-5.07,11.33-11.33Z"/>
          <path class="cls-15" d="m1268.88,732.88s5.93,2.29,32.52,2.29c26.6,0,38.43,3.73,37.94,0-2.09-16.03-49.51-24.08-57.45-22.36-7.94,1.72-16.3,9.74-13.01,20.06Z"/>
          <path class="cls-15" d="m1227.08,732.88s-5.93,2.29-32.52,2.29c-26.6,0-38.43,3.73-37.94,0,2.09-16.03,49.51-24.08,57.45-22.36,7.94,1.72,16.3,9.74,13.01,20.06Z"/>
          <path class="cls-15" d="m1254.41,891.12s30.1-2.98,50.71-15.25c0,0-5.04,36.26-50.71,15.25Z"/>
          <path class="cls-15" d="m1251.2,869.54c-7.08,0-13.56-2.38-17.09-5.74-2.56-2.43-3.49-5.27-2.62-7.99,2.27-7.12,19.17-50.55,19.25-50.76l3.68,1.32c-.08.21-16.96,43.57-19.2,50.63-.5,1.56.59,3.02,1.59,3.97,4.29,4.09,14.52,6.42,23.56,3.05l1.36,3.67c-3.47,1.29-7.08,1.86-10.53,1.86Z"/>
        </g>
        <g>
          <path class="cls-27" d="m1217.46,1566.84s-87.2,49.53-208.57,49.53c-133.06,0-200.65-49.53-200.65-49.53,0,0-104.5-320-84.5-374.03,20-54.04,189.99-96.63,189.99-96.63h203.74s154.67,47.8,176.05,96.63c21.37,48.81-76.06,374.03-76.06,374.03Z"/>
          <path class="cls-18" d="m1117.47,1096.18c27.74,22.47-106.6,145.79-106.6,145.79,0,0-141.66-128.39-109.04-145.79,49.79-26.52,15.96-116.57,15.96-116.57h179.99s-34.94,72.34,19.69,116.57Z"/>
          <path class="cls-18" d="m1161.03,826.68s23.61-41.46,39.69-33.42c33.74,16.89,5.68,106.18-13.75,115.4-19.42,9.22-26.87-21.05-26.87-21.05"/>
          <path class="cls-18" d="m841.01,826.68s-23.61-41.46-39.69-33.42c-33.74,16.89-5.68,106.18,13.75,115.4,19.43,9.22,26.86-21.05,26.86-21.05"/>
          <path class="cls-18" d="m820.39,771.78s28.86,196.23,46.91,217.88c18.04,21.65,108.44,87.49,137.31,87.49s124.56-66.3,140.79-96.06c17.45-31.99,35.85-209.31,35.85-209.31,0,0,20.73-197.73-176.64-197.73s-184.22,197.73-184.22,197.73Z"/>
          <path class="cls-24" d="m825.55,805.1c2.75,47.54,15.1,86.57,15.1,86.57,0,0-4.42-42.48,11.28-79.13,15.81-36.9,51.76-68.17,56.66-124.09,41.68,104.25,220.14,41.5,239.97,78.49,26.07,48.58,17.29,124.74,17.29,124.74,0,0-1.25-18.08,10.47-76.73,8.13-26.16,24.4-21.68,24.4-21.68,0,0-14.08-113.83-48.54-169.77-38.5-62.48-130.31-70.33-172.31-70.37-110.47-.11-176.26,119.09-183.48,153.37-7.22,34.28,0,90.18,0,90.18,0,0,26.05-10.62,29.17,8.43Z"/>
          <path class="cls-28" d="m1223.38,1376.82c0,33.15-26.88,60.03-60.04,60.03s-60.04-26.88-60.04-60.03,26.88-60.04,60.04-60.04,60.04,26.87,60.04,60.04Z"/>
          <path class="cls-5" d="m1218.48,1376.82c0,30.44-24.68,55.14-55.14,55.14s-55.14-24.69-55.14-55.14,24.68-55.15,55.14-55.15,55.14,24.68,55.14,55.15Z"/>
          <path class="cls-26" d="m1196.3,1376.82c0,18.19-14.76,32.96-32.97,32.96s-32.96-14.76-32.96-32.96,14.75-32.98,32.96-32.98,32.97,14.77,32.97,32.98Z"/>
          <path class="cls-7" d="m866.7,1267.13c26.83-2.31,53.81,2.06,67.31,14.21,38.76,34.89,85.7,85.04,89.21,125.82,2.05,23.98-16.6,49.09-55.47,74.66l-11.28-17.16c31.18-20.5,47.61-40.3,46.29-55.73-2.26-26.23-32.33-67.17-82.49-112.31-16.86-15.19-84.19-11.82-104.35,9.61-23.06,24.5-64.76,86.05-61.49,124.06,2.08,24.18,29.96,40.79,52.99,50.45l-7.96,18.94c-41.09-17.25-63.13-40.01-65.5-67.64-4.11-47.56,43.37-114.78,67-139.9,13.23-14.06,39.43-22.74,65.75-25.01Z"/>
          <path class="cls-2" d="m1001.44,1349.84c-28.44-32.59-44.34-50.41-66.32-70.21-13.5-12.14-41.59-14.8-68.43-12.49-26.32,2.27-54.08,9.62-67.33,23.69-16.07,17.09-44.46,55-58.85,91.63l28.42.66c13.38-30,32.29-61.29,46.97-76.89,20.16-21.43,87.49-24.8,104.35-9.61,27.03,24.32,44.57,50.23,58.71,70.46,5.15-4.6,17.11-12.93,22.48-17.24Z"/>
          <path class="cls-24" d="m932.69,1463.53c18.9-3.86,37.08-8.49,37.08-8.49,0,0,3.62,1.55,6.6,7.87,2.96,6.23,2.58,10.97,2.58,10.97,0,0-12.76,16.58-20.46,27.45-8.3,11.73-15.85-1.58-22.98-12.02-7.13-10.43-18.62-22.55-2.82-25.77Z"/>
          <path class="cls-24" d="m830.92,1476.07c-19.29-.59-37.99-2.03-37.99-2.03,0,0-3.29,2.14-5.17,8.88-1.84,6.64-.66,11.25-.66,11.25,0,0,15.4,14.15,24.84,23.55,10.18,10.14,15.35-4.27,20.59-15.77,5.24-11.5,14.5-25.39-1.61-25.88Z"/>
          <path class="cls-7" d="m851.05,1268.89c-.36-5.08-8.62-124.77,2.71-161.31,6.32-20.37,17.09-33.97,32.05-40.44,16.46-7.12,33.27-2.93,39.84.28l-9.48,19.46c-2.15-1.04-12.07-4.07-21.77.13-8.89,3.84-15.6,12.92-19.96,26.98-8.41,27.12-4.14,119.92-1.78,153.38l-21.6,1.52Z"/>
          <path class="cls-7" d="m1153.99,1373.93c.68-7.53,7.8-73.59,9.77-93.65,4.17-42.35,11.16-113.23,7.49-131.85-4.13-20.94-19.65-56.16-39.83-65.24-8.2-3.7-16.78-2.8-26.21,2.74l-10.95-18.68c15.47-9.08,31.41-10.4,46.05-3.8,32.63,14.67,48.73,63.29,52.18,80.79,3.96,20.08-1.14,76.81-7.19,138.16-1.83,18.5-7.84,79.52-9.89,94.95-2.05,15.44-23.13,15.32-21.43-3.42Z"/>
          <path class="cls-19" d="m832.25,1289.11c-1.89-21.97,17.98-41.62,31.41-42.78,13.45-1.15,36.38,14.82,38.27,36.8,1.38,16.06-14.56,13.49-33.79,15.15-19.25,1.66-34.51,6.9-35.88-9.16Z"/>
        </g>
      </g>
      <g>
        <g>
          <path class="cls-14" d="m955.08,869.03c0,8.02-6.5,14.52-14.52,14.52s-14.52-6.5-14.52-14.52,6.5-14.52,14.52-14.52,14.52,6.5,14.52,14.52Z"/>
          <path class="cls-14" d="m1089.57,869.03c0,8.02-6.5,14.52-14.52,14.52s-14.53-6.5-14.53-14.52,6.5-14.52,14.53-14.52,14.52,6.5,14.52,14.52Z"/>
        </g>
        <path class="cls-13" d="m1000.51,900.67l.02,19.6c0,4.94,4.39,8.65,9.08,7.66l10.42-2.19"/>
        <path class="cls-14" d="m983.72,824.02l-88.03,10.58s7.07-23.35,43.04-27.36c35.97-4.01,45,16.78,45,16.78Z"/>
        <path class="cls-14" d="m1034.47,824.02l88.03,10.58s-7.07-23.35-43.03-27.36c-35.97-4.01-45,16.78-45,16.78Z"/>
        <path class="cls-2" d="m963.81,950.4h88.88s1.5,33.08-44.56,31.14c-46.06-1.95-44.32-31.14-44.32-31.14Z"/>
      </g>
      <g>
        <polyline class="cls-12" points="723.21 859.23 724.31 876.04 707.68 876.08"/>
        <path class="cls-16" d="m640.56,756.32s31.81-1.25,31.69,8.98c0,0-.32,6.92-28.06,7.59-27.73.67-34.86-1.12-37.11-7.69-2.24-6.57,18.6-9.2,33.48-8.88Z"/>
        <path class="cls-16" d="m767.47,760.48s-26.09-2.8-28.65,6.74c0,0-1.53,6.47,21.33,8.52,22.86,2.05,30.42-.07,32.81-5.26,2.71-5.88-13.06-9.54-25.5-10.01Z"/>
        <path class="cls-11" d="m670.07,823.03s-14.18-20.25-40.44-.67"/>
        <path class="cls-11" d="m778.79,827.15s-12.62-20.08-30.21-1.32"/>
        <path class="cls-11" d="m696.84,906s-21.69,5.14-39.31-16.7"/>
      </g>
    </g>
  </g>
</svg>