<?xml version="1.0" encoding="UTF-8"?>
<svg xmlns="http://www.w3.org/2000/svg" xmlns:xlink="http://www.w3.org/1999/xlink" viewBox="0 0 2000 2000">
  <defs>
    <style>
      .cls-1 {
        stroke-width: 1.94px;
      }

      .cls-1, .cls-2 {
        stroke: #1b172c;
        stroke-linecap: round;
        stroke-linejoin: round;
      }

      .cls-1, .cls-2, .cls-3 {
        fill: none;
      }

      .cls-4 {
        fill: #fff;
      }

      .cls-5 {
        fill: #3f3f3f;
      }

      .cls-6 {
        opacity: .5;
      }

      .cls-7 {
        fill: #565656;
      }

      .cls-8 {
        isolation: isolate;
      }

      .cls-9 {
        fill: #020202;
      }

      .cls-10 {
        fill: #d9e6e8;
      }

      .cls-11 {
        fill: #141a46;
      }

      .cls-12 {
        fill: #ffb359;
      }

      .cls-13 {
        fill: #331b19;
      }

      .cls-14 {
        fill: #00307f;
      }

      .cls-15 {
        fill: #793641;
      }

      .cls-16 {
        opacity: .15;
      }

      .cls-2 {
        stroke-width: 2.44px;
      }

      .cls-17 {
        fill: #feb542;
      }

      .cls-18 {
        fill: #8dadb2;
      }

      .cls-19 {
        fill: #2b2b2b;
      }

      .cls-20 {
        fill: #fbfbfb;
      }

      .cls-21 {
        fill: #e5e5e5;
      }

      .cls-22 {
        fill: #f5f9fa;
      }

      .cls-23 {
        fill: #788696;
      }

      .cls-24 {
        fill: #494949;
      }

      .cls-25 {
        fill: #e2e2e2;
        mix-blend-mode: multiply;
        opacity: .27;
      }

      .cls-26 {
        fill: #f8ba8c;
      }

      .cls-27 {
        fill: #0b5b07;
      }

      .cls-28 {
        fill: #a1c9de;
      }

      .cls-29 {
        fill: #d1edfc;
      }
    </style>
    <clipPath id="clippath">
      <path class="cls-3" d="m-358.06,1000c0,114.46-26.09,222.82-72.65,319.47-119.02,247.05-371.77,417.53-664.35,417.53s-545.33-170.48-664.35-417.53c-46.56-96.65-72.65-205.01-72.65-319.47,0-407.03,329.97-737,737-737S-358.06,592.97-358.06,1000Z"/>
    </clipPath>
  </defs>
  <g class="cls-8">
    <g id="Layer_1" data-name="Layer 1">
      <path class="cls-29" d="m1737,1000c0,114.46-26.09,222.82-72.65,319.47-119.02,247.05-371.77,417.53-664.35,417.53s-545.33-170.48-664.35-417.53c-46.56-96.65-72.65-205.01-72.65-319.47,0-407.03,329.97-737,737-737s737,329.97,737,737Z"/>
      <path class="cls-28" d="m1594.73,1435.36c-134.11,182.9-350.56,301.64-594.73,301.64s-460.62-118.74-594.73-301.64h1189.46Z"/>
      <g class="cls-6">
        <g>
          <path class="cls-20" d="m1388.76,568.41l52.45-33.89-37.53-58.09-52.45,33.89c-16.64-17.23-36.23-30.58-57.46-39.72l13.13-61.03-67.61-14.54-13.12,61.03c-23.12-.4-46.46,3.72-68.71,12.59l-33.89-52.45-58.09,37.53,33.89,52.45c-17.23,16.64-30.58,36.22-39.72,57.46l-61.03-13.12-14.54,67.61,61.03,13.12c-.4,23.11,3.72,46.46,12.58,68.71l-52.45,33.89,37.53,58.09,52.45-33.89c16.64,17.23,36.22,30.58,57.46,39.72l-13.12,61.03,67.61,14.54,13.12-61.03c23.11.4,46.46-3.72,68.71-12.58l33.89,52.45,58.09-37.53-33.89-52.45c17.23-16.64,30.58-36.22,39.72-57.46l61.03,13.13,14.54-67.61-61.03-13.13c.4-23.11-3.72-46.46-12.58-68.71Zm-213.78,96.94c-17.21-26.65-9.57-62.2,17.08-79.42,26.65-17.22,62.2-9.57,79.42,17.08,17.22,26.65,9.57,62.2-17.08,79.42-26.65,17.21-62.2,9.57-79.42-17.08Z"/>
          <path class="cls-25" d="m1372.27,731.48c-39.65,2.36-81.85-4.92-125.61-24.08-11.36-4.97-21.8-10.57-31.56-16.6-15.87-2.29-30.74-10.92-40.12-25.45-2.56-3.97-4.4-8.16-5.88-12.43-54.95-60.12-67.27-145.04-56.54-229.61l-47.08,30.42,33.89,52.45c-17.23,16.64-30.58,36.22-39.72,57.46l-61.03-13.12-14.54,67.61,61.03,13.12c-.4,23.12,3.72,46.46,12.58,68.71l-52.45,33.89,37.53,58.09,52.45-33.89c16.64,17.23,36.22,30.58,57.46,39.72l-13.12,61.03,67.61,14.54,13.12-61.03c23.11.4,46.46-3.72,68.71-12.58l33.89,52.45,58.09-37.53-33.89-52.45c9.69-9.35,18.01-19.72,25.18-30.71Z"/>
          <path class="cls-25" d="m1260.35,500.33c21.06,5.2,38.6,16.48,52.38,33.19,9.09,11.02,24.71-4.75,15.69-15.69-16.03-19.43-37.73-32.85-62.17-38.89-13.86-3.42-19.77,17.96-5.9,21.39h0Z"/>
          <path class="cls-25" d="m1330.48,558.49c19.93,30.8,22.54,67.79,5.89,100.65-6.44,12.71,12.69,23.95,19.16,11.2,20.16-39.78,18.43-85.46-5.89-123.05-7.73-11.95-26.94-.84-19.16,11.2h0Z"/>
        </g>
        <g>
          <path class="cls-20" d="m876.77,939.93l72.54-21-23.25-80.34-72.54,21c-13.27-25.74-31.31-48.02-52.73-66l36.44-66.12-73.25-40.37-36.44,66.12c-26.63-8.51-55.1-11.86-83.96-9.33l-21-72.54-80.34,23.25,21,72.54c-25.74,13.27-48.02,31.31-65.99,52.73l-66.12-36.44-40.37,73.25,66.12,36.44c-8.51,26.63-11.86,55.1-9.33,83.96l-72.54,20.99,23.25,80.34,72.54-20.99c13.27,25.74,31.31,48.02,52.73,66l-36.44,66.12,73.25,40.37,36.44-66.12c26.63,8.51,55.11,11.86,83.96,9.33l21,72.54,80.34-23.25-21-72.54c25.74-13.27,48.02-31.31,65.99-52.73l66.12,36.44,40.37-73.25-66.12-36.44c8.51-26.63,11.86-55.1,9.33-83.96Zm-281.34,37.89c-10.67-36.85,10.56-75.38,47.42-86.04,36.85-10.67,75.38,10.56,86.04,47.42,10.67,36.85-10.56,75.38-47.42,86.04-36.85,10.67-75.37-10.56-86.04-47.42Z"/>
          <path class="cls-20" d="m704.48,1013.54c-6.69,5.15-14.4,9.2-23,11.69-36.85,10.67-75.37-10.56-86.04-47.42-7.9-27.31,1.73-55.5,22.23-72.63-28.31-69.91-26.27-151.42-14.21-228.3l-61.2,17.71,21,72.54c-25.74,13.27-48.02,31.31-65.99,52.73l-66.12-36.44-40.37,73.25,66.12,36.44c-8.51,26.63-11.86,55.1-9.33,83.96l-72.54,21,23.25,80.34,72.54-21c13.27,25.74,31.31,48.02,52.73,66l-36.44,66.12,73.25,40.37,36.44-66.12c26.63,8.51,55.1,11.86,83.96,9.33l21,72.54,80.34-23.25-21-72.54c25.74-13.27,48.03-31.31,66-52.73l66.12,36.44,40.37-73.25-21.29-11.73c-62.46,27.5-151.17,2.79-207.8-35.05Z"/>
          <path class="cls-25" d="m685.5,792.71c32.18,4.92,60.81,18.34,84.6,40.64,10.41,9.76,26.13-5.9,15.69-15.69-26.4-24.74-58.57-40.87-94.39-46.35-13.97-2.14-19.99,19.24-5.9,21.39h0Z"/>
          <path class="cls-25" d="m795.75,857.39c26.55,37.37,17.31,96.59,12.8,139.5-1.49,14.18,20.71,14.08,22.18,0,4.98-47.42,13.63-109.24-15.83-150.7-8.2-11.54-27.45-.48-19.16,11.2h0Z"/>
        </g>
        <g>
          <path class="cls-20" d="m1357.89,1191.69l48.17-5.55-6.15-53.34-48.17,5.55c-5.66-17.72-14.7-33.75-26.34-47.41l30.12-37.97-42.07-33.37-30.13,37.98c-15.95-8.23-33.62-13.39-52.16-14.87l-5.55-48.17-53.34,6.15,5.55,48.17c-17.71,5.66-33.75,14.7-47.41,26.34l-37.98-30.13-33.37,42.07,37.97,30.12c-8.23,15.95-13.39,33.62-14.87,52.16l-48.17,5.55,6.15,53.34,48.17-5.55c5.66,17.71,14.7,33.75,26.34,47.41l-30.12,37.97,42.07,33.37,30.12-37.97c15.95,8.23,33.62,13.39,52.16,14.87l5.55,48.17,53.34-6.15-5.55-48.17c17.71-5.66,33.75-14.7,47.41-26.34l37.97,30.13,33.37-42.07-37.97-30.13c8.23-15.95,13.39-33.62,14.87-52.16Zm-182.17-6.03c-2.82-24.47,14.73-46.6,39.2-49.42,24.47-2.82,46.6,14.73,49.42,39.2,2.82,24.47-14.73,46.6-39.2,49.42-24.47,2.82-46.6-14.73-49.42-39.2Z"/>
          <path class="cls-25" d="m1232.21,1223.32c-2.3.65-4.62,1.26-7.06,1.54-24.47,2.82-46.6-14.73-49.42-39.2-.66-5.69-.11-11.22,1.27-16.44-21.64-29.13-35.68-62.86-38.47-100.28-2.76,2.02-5.51,4.04-8.1,6.24l-37.98-30.13-33.37,42.07,37.98,30.12c-8.23,15.95-13.39,33.62-14.87,52.16l-48.17,5.55,6.15,53.34,48.17-5.55c5.66,17.71,14.7,33.75,26.34,47.41l-30.12,37.97,42.07,33.37,30.12-37.97c15.95,8.23,33.62,13.39,52.16,14.87l5.55,48.17,53.34-6.15-5.55-48.17c17.72-5.66,33.75-14.7,47.41-26.34l37.97,30.12,26.26-33.11c-50.13-8.81-100.45-29.4-141.68-59.62Z"/>
          <path class="cls-25" d="m1212.37,1086.63c22.46-4.64,44.29,3.05,59.74,19.74,9.72,10.5,25.38-5.22,15.69-15.69-20.94-22.63-51.31-31.65-81.32-25.44-13.97,2.89-8.06,24.28,5.9,21.39h0Z"/>
          <path class="cls-25" d="m1296.01,1142.42c12.06,25.24,12.32,52.45,2.44,78.4-5.09,13.35,16.35,19.13,21.39,5.9,12.07-31.67,9.86-65.09-4.67-95.5-6.15-12.88-25.29-1.63-19.16,11.2h0Z"/>
        </g>
      </g>
      <g>
        <g class="cls-16">
          <ellipse class="cls-9" cx="1023.83" cy="1503.42" rx="477.73" ry="30.8"/>
        </g>
        <path class="cls-10" d="m1166.37,1475.13c-7.42,3.14-15.42,5.91-23.9,8.39-1.12.33-2.23.66-3.38.97-58.6,16.29-139.13,18.41-210.97,15.69-2.05-.09-4.07-.18-6.09-.27-53.2-2.23-101.11-7-131.01-10.5-11.19-1.3-16.78-14.39-9.84-23.29,7.6-9.78,16.78-24.47,26.76-46.56,28.39-62.82-3.92-117.74-3.92-117.74,0,0,46.41-200.74,49.42-205.75,3.02-5.04,304.45-50.36,286.07,5.19-18.35,55.55-17.53,210.04-12.49,262.33,3.41,35.6,28.76,70.27,44.57,88.8,6.37,7.42,3.77,18.98-5.22,22.75Z"/>
        <path class="cls-19" d="m1103.24,1165.59s-181.38,214.93-283.86,203.14c0,0-1.13-49.26-17.44-67.12,0,0,42.91,8.07,90.84-9.23,47.93-17.3,210.46-126.79,210.46-126.79Z"/>
        <path class="cls-21" d="m1237.16,994.47l-123.71,79.96-220.66-539.01s6.97-4.01,23.2-8.3c8.09-2.11,18.47-4.31,31.41-6.06,6.49-.94,13.61-1.72,21.42-2.32,9.66-.81,20.34-1.36,32.13-1.51,6.55-.12,13.49-.12,20.79.03,5.22.09,10.65.24,16.26.48,6.22.27,12.31.75,18.25,1.48,140.55,16.32,209.55,146.37,209.55,146.37,84.48,167.46-28.66,328.89-28.66,328.89Z"/>
        <polygon class="cls-27" points="1033.49 568.66 1050.9 538.81 1089.54 551.44 1080.77 580.13 1105.75 591.02 1125.83 568.05 1156.87 590.27 1140.73 614.85 1156 630.42 1171.44 615.86 1197.46 646.93 1160.97 682.87 1073.03 656 1033.49 568.66"/>
        <path class="cls-11" d="m1056.27,519.22l-17.5,69.22-70.24-3.74-46.83-39.44-5.7-18.13c8.09-2.11,18.47-4.31,31.41-6.06l8.14,29.87,13.58-6.54-.29-25.66c9.66-.81,20.34-1.36,32.13-1.51l-1.17,37.98,9.81,13.58,12.15-51.53c5.22.09,10.65.24,16.26.48,6.22.27,12.31.75,18.25,1.48Z"/>
        <path class="cls-11" d="m1198.1,686.64l24.14-25.19,24.14,27.78,25.84-8.1,1.38-35.4,37.87,3.79-4.04,36.11,19.01,10.9,27.13-21.9,21.47,25.92-24.05,25.8,3.36,17.81,30.49,11.29-14.68,35.33-25.88-14.7-7.79,12.95c2.51,4.53,15.84,26.4,15.84,26.4l-28.13,17.41-13.76-29.8-13.28,3.82v28.77l-33.52-.91.44-29.27-16.69-3.6-17.27,21.76-25.95-22.6,21.1-23.83-4.21-10.17-26.53,4.86-10.16-47.97,37.3-5.66-3.95-6.41-19.61-25.22Z"/>
        <path class="cls-4" d="m1284.53,793.02c-26.6,0-48.24-21.64-48.24-48.24s21.64-48.24,48.24-48.24,48.24,21.64,48.24,48.24-21.64,48.24-48.24,48.24Zm0-93.46c-24.93,0-45.22,20.29-45.22,45.22s20.29,45.22,45.22,45.22,45.22-20.29,45.22-45.22-20.29-45.22-45.22-45.22Z"/>
        <circle class="cls-21" cx="1284.53" cy="744.78" r="20.57"/>
        <path class="cls-7" d="m843.56,556.42c0,1.43,1.16,2.6,2.6,2.6s2.6-1.16,2.6-2.6-1.16-2.6-2.6-2.6-2.6,1.16-2.6,2.6Z"/>
        <circle class="cls-7" cx="846.16" cy="603.82" r="2.6"/>
        <path class="cls-18" d="m1143.5,1482.41c-67.65-62.49-78.85-144.58-76.33-202.44,2.67-60.71,20.4-108.01,22.44-113.29l.52-1.38-5.61-2.17-.55,1.42c-2.05,5.27-20.11,53.31-22.83,115.08-2.6,58.63,8.64,141.94,76.93,205.96l.61.57.81-.22c1.16-.31,2.29-.64,3.42-.98l2.54-.76-1.95-1.8Z"/>
        <path class="cls-18" d="m928.12,1500.18c-2.05-.09-4.07-.18-6.09-.27,36.81-182-29.45-204.42-30.11-204.63-1.6-.48-2.5-2.17-2.02-3.74.48-1.6,2.14-2.5,3.74-2.05,2.96.88,72.11,23.35,34.49,210.7Z"/>
        <polygon class="cls-4" points="1204.79 728.71 1221.05 767.03 1210.64 769.29 1207.65 769.96 1163.99 779.49 1116.47 691.38 1143.62 669.78 1135.69 657.38 1133.76 654.39 1126.4 648.24 1180.86 648.24 1178.9 677.2 1191.72 685.17 1219.84 674.91 1236.41 714.86 1204.79 728.71"/>
        <path class="cls-11" d="m1212.93,688.43l-24.5,8.51c-.51.18-1.06.09-1.48-.24l-19.49-16.2c-.36-.3-.57-.75-.54-1.21l1.03-22.48-32.26.57-6.37.12c-.84-.03-1.54-.63-1.54-1.48s.63-1.51,1.48-1.54l4.5-.09,35.73-.63c.39-.03.84.18,1.12.45.3.3.45.72.42,1.15l-1.06,23.29,18.28,15.18,25.04-8.72c.72-.27,1.57.09,1.87.84l9.96,24.44c.15.36.15.78-.03,1.18-.15.36-.45.66-.84.81l-31.5,11.77,17.89,45.14-2.99.66-18.28-46.1c-.15-.39-.15-.81.03-1.18.15-.36.45-.66.84-.78l31.5-11.8-8.81-21.66Z"/>
        <path class="cls-19" d="m1182.78,713.27c0,10.33-8.37,18.7-18.7,18.7s-18.7-8.37-18.7-18.7,8.37-18.7,18.7-18.7,18.7,8.37,18.7,18.7Z"/>
        <path class="cls-4" d="m1181.34,940.16c-.06,1.18-.15,2.44-.27,3.83-3.65,39.98-38.41,169.51-66.11,208.89-28.66,40.73-211.21,138.8-242.89,147.85-12.34,3.53-31.89,8.93-53.44,11.07-33.76,3.38-72.45-1.24-95.92-33.7-2.72-3.74-6-9.47-9.66-16.75-3.32-6.67-6.88-14.63-10.53-23.5-.84-2.05-1.69-4.19-2.53-6.37-11.41-29.12-22.72-66.59-27.07-101.23-3.89-31.08-5.79-95.92-8.84-199.69-.06-1.69-.09-3.38-.15-5.07-.09-3.44-.21-6.91-.3-10.44-.09-3.89-.21-7.85-.33-11.83-.3-9.53-.6-19.34-.94-29.45-1.15-34.97,2.87-66.8,9.53-94.83.51-2.17,1.06-4.31,1.6-6.43.54-2.02,1.09-4.04,1.6-6.03.18-.57.33-1.18.48-1.75,20.61-73.5,57.69-117.25,57.69-117.25,87.5-125.22,202.16-116.17,202.16-116.17,72.42,6.03,117.68,25.65,191.6,114.66,73.92,89.01,55.82,259.49,54.31,294.19Z"/>
        <path class="cls-10" d="m724.21,1025.19c-20.25,31.44-6.46,42.48,5.16,52.05,4.41,3.62,21.34,5.27,14.8,5.84-55.12,4.77-28.57,60.98,8.51,126.76,1.33,2.32,2.86,7.59,2.83,10.94-.03,1.9,3.52,1.99,3.09,4.07-31.83-.66-53.32,10.59-53.68,10.77-1.18.63-2.56.39-3.5-.48-.3-.75-.6-1.54-.91-2.32-11.62-29.3-19.68-47.12-27.61-102.56-4.43-31.01-5.79-95.92-8.84-199.69-.06-1.69-.09-3.38-.15-5.07-.09-3.44-.21-6.91-.3-10.44-.09-3.89-.21-7.85-.33-11.83-.3-9.53-.6-19.34-.94-29.45-1.15-34.97,2.87-66.8,9.53-94.83.51-2.17,1.06-4.31,1.6-6.43.54-2.02,1.09-4.04,1.6-6.03,6.19-.94,10.89-.78,10.89-.78,0,0,32.53-33.46,86.87,19.43,28.3,27.55,18.1,105.15,5.28,134.09-12.04,27.19-32.47,72.66-53.92,105.97Z"/>
        <g>
          <path class="cls-18" d="m938.61,759.72c0,7.59-6.15,13.74-13.74,13.74s-13.74-6.15-13.74-13.74,6.15-13.74,13.74-13.74,13.74,6.15,13.74,13.74Z"/>
          <path class="cls-24" d="m932.24,759.72c0,4.07-3.3,7.37-7.37,7.37s-7.37-3.3-7.37-7.37,3.3-7.37,7.37-7.37,7.37,3.3,7.37,7.37Z"/>
        </g>
        <g>
          <circle class="cls-18" cx="1034.36" cy="1388.75" r="10.74"/>
          <path class="cls-24" d="m1040.12,1388.75c0,3.18-2.58,5.76-5.76,5.76s-5.76-2.58-5.76-5.76,2.58-5.76,5.76-5.76,5.76,2.58,5.76,5.76Z"/>
        </g>
        <g>
          <circle class="cls-18" cx="955.16" cy="1467.01" r="10.74"/>
          <path class="cls-24" d="m960.92,1467.01c0,3.18-2.58,5.76-5.76,5.76s-5.76-2.58-5.76-5.76,2.58-5.76,5.76-5.76,5.76,2.58,5.76,5.76Z"/>
        </g>
        <g>
          <path class="cls-18" d="m1123.87,1374.77c0,5.93-4.81,10.74-10.74,10.74s-10.74-4.81-10.74-10.74,4.81-10.74,10.74-10.74,10.74,4.81,10.74,10.74Z"/>
          <path class="cls-24" d="m1118.89,1374.77c0,3.18-2.58,5.76-5.76,5.76s-5.76-2.58-5.76-5.76,2.58-5.76,5.76-5.76,5.76,2.58,5.76,5.76Z"/>
        </g>
        <g>
          <path class="cls-18" d="m1049.33,789.74c0,5.04-4.09,9.13-9.13,9.13s-9.13-4.09-9.13-9.13,4.09-9.13,9.13-9.13,9.13,4.09,9.13,9.13Z"/>
          <path class="cls-24" d="m1045.1,789.74c0,2.71-2.19,4.9-4.9,4.9s-4.9-2.19-4.9-4.9,2.19-4.9,4.9-4.9,4.9,2.19,4.9,4.9Z"/>
        </g>
        <g>
          <path class="cls-18" d="m997.46,769.17c0,5.63-4.56,10.19-10.19,10.19s-10.19-4.56-10.19-10.19,4.56-10.19,10.19-10.19,10.19,4.56,10.19,10.19Z"/>
          <path class="cls-24" d="m992.73,769.17c0,3.02-2.45,5.47-5.47,5.47s-5.47-2.45-5.47-5.47,2.45-5.47,5.47-5.47,5.47,2.45,5.47,5.47Z"/>
        </g>
        <g>
          <path class="cls-18" d="m718.91,739.7c0,5.63-4.56,10.19-10.19,10.19s-10.19-4.56-10.19-10.19,4.56-10.19,10.19-10.19,10.19,4.56,10.19,10.19Z"/>
          <path class="cls-24" d="m714.18,739.7c0,3.02-2.45,5.47-5.47,5.47s-5.47-2.45-5.47-5.47,2.45-5.47,5.47-5.47,5.47,2.45,5.47,5.47Z"/>
        </g>
        <g>
          <path class="cls-18" d="m787.49,745.01c0,7.59-6.15,13.74-13.74,13.74s-13.74-6.15-13.74-13.74,6.15-13.74,13.74-13.74,13.74,6.15,13.74,13.74Z"/>
          <path class="cls-24" d="m781.12,745.01c0,4.07-3.3,7.37-7.37,7.37s-7.37-3.3-7.37-7.37,3.3-7.37,7.37-7.37,7.37,3.3,7.37,7.37Z"/>
        </g>
        <path class="cls-10" d="m1143.62,669.77s-52.8,25.02-67.89,94.15c-15.09,69.13,34.92,171.06,105.34,180.06,0,0,14.46-80.07,13.16-100-8.05-123.57-50.61-174.22-50.61-174.22Z"/>
        <path class="cls-4" d="m1129.35,863.73l32.38,26.64-31.92,28.85s-18.95-14.3-36.48-48.82c-.48-.88-.94-1.78-1.39-2.72-1.84-3.77-3.68-7.78-5.46-12.01-.33-.75-.66-1.63-1.03-2.59-1.69-4.56-3.68-10.89-5.1-14.88-5.88-16.6-8.42-31.47-8.66-44.93v-.54c-.06-4.34.12-8.54.48-12.58.12-1.03.21-2.05.33-3.08,2.96-24.68,13.28-44.23,22.72-61.16l32.8,20.16-15.66,32.82,16.46,19.55,39.43-6.34,9.65,51.52-40.67,4.47-7.88,25.65Z"/>
        <path class="cls-11" d="m1077.06,776.87c-1.54,0-3.05.06-4.56.21-.12,1.03-.21,2.05-.33,3.08,1.6-.18,3.23-.27,4.89-.27,24.89,0,45.17,20.25,45.17,45.17,0,19.67-12.67,36.48-30.29,42.63.45.94.91,1.84,1.39,2.72,18.59-6.67,31.92-24.5,31.92-45.35,0-26.58-21.6-48.19-48.19-48.19Z"/>
        <path class="cls-4" d="m1292.47,853.87c-.33,2.32-1.09,6.03-2.14,10.65-.21,1.03-.45,2.11-.72,3.23-5.82,25.1-18.47,70.18-23.54,72.54-1.42.63-41.49,13.49-60.2,19.46-1.03.33-1.99.63-2.87.94-4.07,1.3-6.58,2.08-6.58,2.08l-20.76-56.54,48.79-21.24,11.38,28.09,16.08-13.13,4.13-38.71,36.42-7.36Z"/>
        <path class="cls-11" d="m1290.33,864.52c-.21,1.03-.45,2.11-.72,3.23l-21.57,3.92-2.35,38.17c-.03.36-.18.69-.45.97l-27.97,27.91c-.36.33-.88.51-1.36.39-.51-.09-.94-.42-1.12-.91l-14.94-36.78-30.44,12.91,16.47,45.41,2.53,7c.27.78-.12,1.66-.91,1.93-.18.06-.33.09-.51.09-.6,0-1.21-.36-1.42-1l-2.56-7.09-16.93-46.65c-.27-.75.09-1.6.81-1.9l33.19-14.09c.36-.15.78-.15,1.18,0,.36.15.66.45.81.84l14.63,36.09,25.98-25.89,2.38-38.77c.03-.69.54-1.27,1.24-1.39l24.02-4.41Z"/>
        <path class="cls-4" d="m1167.76,949.19s73.92-34.17,105.1-3.99c31.18,30.17,18.1,74.43-8.05,105.61-26.15,31.18-99.57,107.62-135.78,107.62s-34.65-9.12-27.61-32.26c7.04-23.13,66.33-176.97,66.33-176.97Z"/>
        <path class="cls-18" d="m1247.27,1038.6c-.42,0-.86-.09-1.27-.28-1.51-.7-2.17-2.5-1.46-4.01,12.37-26.56,14.37-45.14,5.93-55.22-12.75-15.24-45.84-6.69-46.17-6.6-1.61.42-3.26-.53-3.69-2.15-.43-1.61.53-3.26,2.15-3.69,1.51-.4,37.16-9.59,52.35,8.56,10.07,12.03,8.36,32.78-5.09,61.64-.51,1.1-1.6,1.74-2.74,1.74Z"/>
        <path class="cls-18" d="m1170.66,1112.57c-1.08,0-2.13-.58-2.67-1.61-.78-1.47-.22-3.3,1.26-4.08,26.21-13.85,46.02-37.89,46.22-38.13,1.05-1.29,2.95-1.48,4.25-.43,1.29,1.05,1.48,2.96.43,4.25-.84,1.02-20.79,25.23-48.07,39.64-.45.24-.93.35-1.41.35Z"/>
        <path class="cls-18" d="m1110.79,1095.58c.03.81-.24,1.6-.75,2.17-6.58,7.48-142.78,160.52-239.64,160.52-14.27,0-27.67-3.32-39.68-10.89-26.46-16.69-51.45-22.12-72.11-22.54-31.83-.66-53.32,10.59-53.68,10.77-.33.18-1.27,1.06-2.41,2.23-.84-2.05-1.69-4.19-2.53-6.37,1.09-.6,1.87-1.03,2.08-1.15.36-.21,23.32-12.31,57.21-11.47,21.48.48,47.37,6.19,74.68,23.41,86.27,54.46,257.5-132.88,270.74-147.61-.42-12.46-.66-112.15,68.46-152.37,2.14.51,6.43,1.18,7.91,1.69-71.48,40.34-70.36,150.44-70.27,151.59Z"/>
        <path class="cls-18" d="m901.23,1139.31c9.3-4.53-64.74-10.15-82.16-20.18-33.69-19.4-37.13,7.35-49.85,7.35-9.55,0-8.1-14.91-20.3-18.86-12.11-3.92-25.79,6.26-33.3,11.44-2.29,1.58-1.52,5.13,1.21,5.65,9.03,1.71,24.33,4.95,30.02,8.18,1.85,1.06,18.86,25.65,47.9,9.05,0,0,96.82,2.06,106.49-2.64Z"/>
        <path class="cls-18" d="m775.47,1179.66c-11.62-1.07-19.25-6.2-24.72-9.88l-1.02-.68c-1.39-.92-1.76-2.8-.84-4.18.92-1.39,2.8-1.76,4.19-.83l1.04.7c8.86,5.96,22.26,14.99,50.3,3.55,1.54-.62,3.3.11,3.93,1.65.63,1.54-.11,3.3-1.65,3.93-12.83,5.23-23.03,6.5-31.23,5.75Z"/>
        <path class="cls-5" d="m1107.77,823.3c0,14.12-9.41,26.04-22.33,29.78-1.69-4.56-3.68-10.89-5.1-14.88-5.88-16.6-8.42-31.47-8.66-44.93v-.54c1.66-.27,3.38-.42,5.1-.42,17.14,0,30.99,13.88,30.99,30.99Z"/>
        <path class="cls-10" d="m775.5,1079.8c.67-.11,15.72-10.09,30.55-11.28,18.48-1.49,40.1,5.03,40.1,5.03,0,0-31.04-13.05-35.95-15.57-4.9-2.51-14.41,1.9-19.16,5-4.75,3.09-15.54,16.82-15.54,16.82Z"/>
        <path class="cls-10" d="m857.91,1072.83c-.18,1.66-1.6,2.93-3.29,2.72-22.63-2.17-26.85-4.77-33.22-8.69-2.23-1.39-4.77-2.99-8.69-4.77-11.53-5.31-20.04,2.53-27.73,11.01-2.35,2.59-3.92,4.34-5.58,5.1-8.36,3.74-17.32,5.64-25.92,5.64-8.15,0-15.96-1.69-22.6-5.1-8.93-4.59-14.78-11.83-16.53-20.4-4.16-20.64,7.3-37.17,20.55-56.27,9.11-13.13,19.4-27.97,26.46-46.71.81-2.11,1.72-4.47,2.69-6.97,14.54-37.87,44.84-116.65,9.6-156.36-18.1-20.37-38.56-30.6-60.86-30.14-13.94.24-27.31,4.59-39.29,10.62.69-2.63,1.39-5.22,2.08-7.78,11.41-5.13,23.93-8.63,37.08-8.87,24.08-.45,46.16,10.41,65.48,32.19,37.72,42.45,6.52,123.53-8.45,162.51-.97,2.5-1.87,4.83-2.66,6.94-7.33,19.4-17.89,34.61-27.19,48.01-12.97,18.71-23.23,33.49-19.58,51.63,1.39,6.73,6.12,12.49,13.37,16.23,12.07,6.16,28.63,5.91,43.27-.69.6-.3,2.29-2.14,3.62-3.62,6.37-7.03,18.19-20.07,34.73-12.46,4.22,1.96,6.94,3.62,9.35,5.13,5.82,3.59,9.35,5.76,30.6,7.81,1.66.15,2.87,1.63,2.72,3.29Z"/>
        <g>
          <path class="cls-18" d="m756.74,888.46c2.17-.87,7.2,4.36-3.37,16.24-11.65,13.11-41.26,34.47-87.7,44.25-1.32-6.51-1.77-23.27-1.89-27.25,25.98-4.25,69.3-23.8,92.95-33.24Z"/>
          <path class="cls-18" d="m737.53,872.26c11.11,6.17,23.48,10.18,22.32,21.49,0,0-12.42,7.34-12.13,3.78,1.01-12.61-1.16-16.28-13.58-21.75-5.19-2.28-1.56-6.27,3.39-3.52Z"/>
        </g>
        <g>
          <path class="cls-18" d="m889.87,891.18c-6.53-2.95-7.11,9.91-1.63,16.34,53.05,62.36,165.12,35.83,165.12,35.83,5.2-1.1,5.89-8.25.99-10.32h0c-9.33-3.94-19.29-6.13-29.41-6.46-22.2-.71-70.22-6.15-135.06-35.39Z"/>
          <path class="cls-18" d="m907.81,872.75c-11.11,6.17-21.04,12.22-22.94,21.17,0,0,12.97,7.67,12.76,4.1-.74-12.56,1.62-16.79,14.04-22.26,5.19-2.28,1.1-5.76-3.85-3.01Z"/>
        </g>
        <g>
          <path class="cls-18" d="m1274.91,961.5c0,5.93-4.81,10.74-10.74,10.74s-10.74-4.81-10.74-10.74,4.81-10.74,10.74-10.74,10.74,4.81,10.74,10.74Z"/>
          <path class="cls-24" d="m1269.93,961.5c0,3.18-2.58,5.76-5.76,5.76s-5.76-2.58-5.76-5.76,2.58-5.76,5.76-5.76,5.76,2.58,5.76,5.76Z"/>
        </g>
        <g>
          <path class="cls-18" d="m1149.16,1135.1c0,5.93-4.81,10.74-10.74,10.74s-10.74-4.81-10.74-10.74,4.81-10.74,10.74-10.74,10.74,4.81,10.74,10.74Z"/>
          <path class="cls-24" d="m1144.18,1135.1c0,3.18-2.58,5.76-5.76,5.76s-5.76-2.58-5.76-5.76,2.58-5.76,5.76-5.76,5.76,2.58,5.76,5.76Z"/>
        </g>
        <g id="woman_2">
          <path class="cls-13" d="m1327.88,747.07s-21.4,8.29-26.62,37.77c-3.54,19.98-3.52,57.43-.44,70.12,1.23,5.06,40.07.22,40.07.22l27.08-6.27s20.2-1.08,13.9-40.08c-6.3-38.99-39.89-63.96-53.99-61.76Z"/>
          <path class="cls-12" d="m1281.97,1070.22s-13.27,144.35-14.34,186.72c-.17,6.57,2.77,14.98,6.29,19.43,24.73,31.24,116.52,141.48,116.52,141.48l21.12-19.28-82.42-131.64c-2.35-3.76-3.39-8.2-2.95-12.61l12.36-123.52-4.97-60.58h-54.27,2.65Z"/>
          <path class="cls-11" d="m1216.32,948.79l1.88,3.43c.65,1.18,2.28,1.37,3.18.36l62.06-69.66c7.17-8.08,16.47-13.98,26.83-17.03l16.54-4.87,50.96,9.53,15.22,9.08s-3.47,16.6-4.15,25.43c-.72,9.3-.47,18.71-.02,28.02.49,10.39,3.08,19.92,6.52,29.33l-107.35-9.98-65.91,47.24c-8.84,6.45-16.7,4.28-20.96-5.8l-6.78-21.92,21.98-23.15Z"/>
          <path class="cls-12" d="m1401.19,1070.22s6.75,46.22,3.58,68.69c-.67,4.79,2.64,0-33.41,291.04h-30.79l-7.29-299.15-.37-60.58h68.28Z"/>
          <path class="cls-11" d="m1361.72,862.32l16.05,8.23,20.12,12,3.41,187.67-31.17,3.27c-24.31,2.55-48.83,2.44-73.12-.34l-15.04-2.93,3.79-85.24c.34-4.53-.37-9.09-2.08-13.3l-7.25-17.86c-2.55-6.28-2.85-13.25-.86-19.73l18.61-60.6,14.7-7.2,17.91-5.27,34.92,1.3Z"/>
          <path class="cls-26" d="m1184.54,870.55v-19.93c0-2.67-.95-5.24-2.68-7.27l-32.84-38.53v.11c-.65,5.64.39,11.34,2.98,16.39l6.43,12.57-8.27,13.93c-1.87,3.14-2.08,6.99-.58,10.32l9.01,20.01,13.27,15.81,22.49,77.98,21.98-23.15-31.78-78.24Z"/>
          <path class="cls-11" d="m1397.89,882.55c5.98.96,13.26,10.67,16.13,22.33l36.07,112.93c1.23,3.85-.39,8.04-3.89,10.07l-15.71,9.1-25.38-18.92,2.57-1.68c1.81-1.18,2.46-3.51,1.52-5.45-4.92-10.15-19.35-41.92-24.76-75.78-2.59-16.23-.37-52.61,13.44-52.59Z"/>
          <path class="cls-14" d="m1359.78,1089.55v45.87c0,1.92-1.56,3.15-3.48,2.74l-85.37-18.15c-1.92-.41-3.48-2.3-3.48-4.23v-45.87c0-1.92,1.56-3.15,3.48-2.74l85.37,18.15c1.92.41,3.48,2.3,3.48,4.23Z"/>
          <polygon class="cls-26" points="1405.12 1018.06 1337.9 1060.11 1305.05 1069.35 1286.85 1096.21 1313.96 1102.67 1325.22 1090.7 1347.71 1080.75 1351.93 1074.51 1430.49 1036.97 1405.12 1018.06"/>
          <polygon class="cls-26" points="1411.56 1398.56 1437.25 1434.95 1452.65 1456.54 1409.69 1508.78 1380.41 1508.78 1394.59 1491.19 1412.47 1449.84 1390.44 1417.84 1411.56 1398.56"/>
          <path class="cls-26" d="m1370.44,817.99s-4.71,39.89-3.44,44.32c1.27,4.43,10.76,8.23,10.76,8.23,0,0-1.49,26.99-41.42,25.15-36.42-1.68-26.11-29.8-26.11-29.8l16.57-4.87s2.84-11.36,3.48-22.13c.63-10.76,40.16-20.89,40.16-20.89Z"/>
          <path class="cls-26" d="m1371.36,1429.95l-4.27,78.84h-76.86l.21-.82c1.97-7.54,7.65-13.54,15.07-15.92l33.41-10.71,1.65-51.39h30.79Z"/>
          <path class="cls-13" d="m1317.45,756.44c-9.91,15.19,7.28,14.62,16.35,16.84,12.33,3.03,25.59,13.04,26.53,29.52,1.48,25.96-4.03,36.42-5.34,56.79-.61,9.41,35.94.22,38.91-6.22,5.53-11.99,10.79-65.46-4.34-92.86-11.79-21.36-38.43-26.53-61.68-13.44-6.61,3.72-8.56,6.49-10.44,9.37Z"/>
          <path class="cls-26" d="m1308.58,771.49c-2.43,4.55-3.27,9.76-2.76,14.89,1.49,14.81,6.3,54.27,15.61,57.08,11.48,3.46,27.97-4.64,30.02-6.5,2.05-1.86,11.31-18.85,11.31-18.85,0,0,7.45,2.24,13.46-7.02,7.09-10.92-3.88-17.6-8.63-11.55-5.62,7.14-4.16-3.73-8.83-10.82-12.8-19.44-32.38-16.12-43.53-24.09-2.96,1.27-5.11,4-6.64,6.87Z"/>
          <path class="cls-11" d="m1440.38,1439.3s-31.25,52.94-45.76,51.89c0,0-14.18,5.56-14.18,17.59h29.28l42.96-52.24-12.3-17.24Z"/>
          <path class="cls-11" d="m1307.22,1491.51h0l-1.68.54c-7.42,2.38-13.1,8.38-15.07,15.92l-.21.82h76.86l1.46-26.92c-1.72.64-51.27,18.99-61.35,9.64Z"/>
        </g>
      </g>
      <g>
        <rect class="cls-22" x="1460.95" y="1048.68" width="161.32" height="161.32" rx="20.91" ry="20.91"/>
        <g>
          <path class="cls-27" d="m1529.25,1183.85c3.66.74,7.88,1.44,11.76,1.44,14.82,0,26.88-5.19,37.98-15.31l-37.18-37.23-12.56,51.11Z"/>
          <path class="cls-23" d="m1578.56,1170.1l-1.81,1.81c.78-.64,1.53-1.3,2.27-1.99l-.14-.14-.32.32Z"/>
          <g>
            <path class="cls-17" d="m1524.79,1183.04l13.52-55.04v-56.69c-30.21,1.2-54.42,26.29-54.42,56.96,0,25.54,16.71,47.74,40.9,54.76Z"/>
            <path class="cls-11" d="m1573.58,1170.35l-2.69,2.71-2.28,2.29-2.69,2.71-2.28,2.29-.07.06c2.08-.93,4.1-2,6.05-3.18l.43-.43,2.28-2.29,2.7-2.71,2.28-2.29.52-.53-1.45-1.46-.53.53-2.28,2.29Z"/>
            <path class="cls-11" d="m1568.61,1165.34l-2.69,2.71-2.28,2.29-2.7,2.71-2.28,2.29-2.69,2.71-2.28,2.29-2.7,2.71-1.51,1.52c1.2-.19,2.39-.41,3.57-.68l2.08-2.09,2.28-2.29,2.69-2.71,2.28-2.29,2.69-2.71,2.28-2.29,2.7-2.71,2.28-2.29.53-.53-1.45-1.46-.53.53-2.28,2.29Z"/>
            <path class="cls-11" d="m1563.64,1160.34l-2.7,2.71-2.28,2.29-2.69,2.71-2.28,2.29-2.7,2.71-2.28,2.29-2.69,2.71-2.28,2.29-2.69,2.71-2.17,2.19c.57.02,1.13.04,1.69.04.4,0,.79-.02,1.19-.03l.74-.75,2.7-2.71,2.28-2.29,2.69-2.71,2.28-2.29,2.69-2.71,2.28-2.29,2.69-2.71,2.28-2.29,2.69-2.71,2.28-2.29.53-.53-1.45-1.46-.53.53-2.28,2.29Z"/>
            <path class="cls-11" d="m1558.66,1155.34l-2.69,2.71-2.28,2.29-2.7,2.71-2.28,2.29-2.69,2.71-2.28,2.29-2.69,2.71-2.28,2.29-2.69,2.71-2.28,2.29-2.69,2.71-1.19,1.2c.82.16,1.65.3,2.47.43l.16-.17,2.7-2.71,2.28-2.29,2.7-2.71,2.28-2.29,2.7-2.71,2.28-2.29,2.69-2.71,2.28-2.29,2.69-2.71,2.28-2.29,2.69-2.71,2.28-2.29.53-.53-1.45-1.46-.53.53-2.28,2.29Z"/>
            <polygon class="cls-11" points="1553.69 1150.34 1550.99 1153.05 1548.71 1155.34 1546.02 1158.05 1543.74 1160.34 1541.05 1163.05 1538.77 1165.34 1536.07 1168.05 1533.79 1170.35 1532.17 1171.98 1531.22 1175.85 1532.55 1174.51 1535.24 1171.8 1537.52 1169.51 1540.22 1166.8 1542.49 1164.51 1545.19 1161.8 1547.47 1159.5 1550.16 1156.79 1552.44 1154.5 1555.14 1151.79 1557.41 1149.5 1557.94 1148.97 1556.5 1147.52 1555.97 1148.04 1553.69 1150.34"/>
            <path class="cls-11" d="m1555.83,1183.2c1.45-.4,2.87-.87,4.28-1.39h0s2.28-2.3,2.28-2.3l2.69-2.71,2.28-2.29,2.7-2.71,2.28-2.29,2.7-2.71.32-.32-1.45-1.46-.32.32-2.69,2.71-2.28,2.29-2.69,2.71-2.28,2.29-2.7,2.71-2.28,2.29-2.69,2.71-.14.14Z"/>
            <polygon class="cls-11" points="1548.71 1145.34 1546.02 1148.04 1543.74 1150.34 1541.05 1153.05 1538.77 1155.34 1536.07 1158.05 1535.43 1158.69 1534.48 1162.56 1535.24 1161.8 1537.52 1159.5 1540.22 1156.79 1542.49 1154.5 1545.19 1151.79 1547.47 1149.5 1550.16 1146.79 1552.44 1144.5 1552.97 1143.97 1551.52 1142.51 1550.99 1143.04 1548.71 1145.34"/>
            <polygon class="cls-11" points="1543.74 1140.33 1541.05 1143.04 1538.77 1145.34 1538.69 1145.41 1537.75 1149.28 1540.22 1146.79 1542.49 1144.5 1545.19 1141.79 1547.47 1139.5 1547.99 1138.97 1546.55 1137.51 1546.02 1138.04 1543.74 1140.33"/>
            <path class="cls-11" d="m1543.91,1185.18c1.06-.06,2.12-.16,3.17-.28l.39-.39,2.69-2.71,2.28-2.29,2.69-2.71,2.28-2.29,2.69-2.71,2.28-2.29,2.69-2.71,2.28-2.29,2.7-2.71.32-.32-1.45-1.46-.32.32-2.69,2.71-2.28,2.29-2.7,2.71-2.28,2.29-2.69,2.71-2.28,2.29-2.7,2.71-2.28,2.29-2.69,2.71-2.11,2.12Z"/>
            <polygon class="cls-11" points="1541 1135.99 1542.49 1134.49 1543.02 1133.97 1541.81 1132.74 1541 1135.99"/>
            <polygon class="cls-11" points="1539.38 1142.63 1540.22 1141.79 1542.49 1139.5 1545.19 1136.79 1545.51 1136.47 1544.06 1135.01 1543.74 1135.33 1541.05 1138.04 1540.32 1138.77 1539.38 1142.63"/>
            <polygon class="cls-11" points="1537.52 1154.5 1540.22 1151.79 1542.49 1149.5 1545.19 1146.79 1547.47 1144.5 1550.16 1141.79 1550.48 1141.47 1549.03 1140.01 1548.71 1140.33 1546.02 1143.04 1543.74 1145.34 1541.05 1148.04 1538.77 1150.34 1537.06 1152.05 1536.11 1155.92 1537.52 1154.5"/>
            <polygon class="cls-11" points="1533.8 1165.34 1532.85 1169.2 1535.24 1166.8 1537.52 1164.51 1540.22 1161.8 1542.49 1159.5 1545.19 1156.79 1547.47 1154.5 1550.16 1151.79 1552.44 1149.5 1555.14 1146.79 1555.46 1146.47 1554.01 1145.01 1553.69 1145.34 1550.99 1148.04 1548.71 1150.34 1546.02 1153.05 1543.74 1155.34 1541.05 1158.05 1538.77 1160.34 1536.07 1163.05 1533.8 1165.34"/>
            <path class="cls-11" d="m1534.23,1184.92c.88.1,1.77.18,2.66.23l.63-.64,2.7-2.71,2.28-2.29,2.7-2.71,2.28-2.29,2.69-2.71,2.28-2.29,2.69-2.71,2.28-2.29,2.69-2.71,2.28-2.29,2.69-2.71.32-.32-1.45-1.46-.32.32-2.7,2.71-2.28,2.29-2.69,2.71-2.28,2.29-2.7,2.71-2.28,2.29-2.69,2.71-2.28,2.29-2.69,2.71-2.28,2.29-2.69,2.71-1.85,1.86Z"/>
            <polygon class="cls-11" points="1529.59 1182.49 1530.27 1181.8 1532.55 1179.51 1535.24 1176.8 1537.52 1174.51 1540.22 1171.8 1542.49 1169.51 1545.19 1166.8 1547.47 1164.51 1550.16 1161.8 1552.44 1159.5 1555.14 1156.79 1557.41 1154.5 1560.11 1151.79 1560.43 1151.47 1558.98 1150.02 1558.66 1150.34 1555.97 1153.05 1553.69 1155.34 1550.99 1158.05 1548.71 1160.34 1546.02 1163.05 1543.74 1165.34 1541.05 1168.05 1538.77 1170.35 1536.07 1173.06 1533.79 1175.35 1531.1 1178.06 1530.54 1178.62 1529.59 1182.49"/>
            <path class="cls-27" d="m1542.83,1127.34l39.39,39.61c9.71-10.56,15.03-24.2,15.03-38.67,0-15.23-5.9-29.55-16.6-40.31-10.17-10.23-23.53-16.09-37.82-16.65v56.02Z"/>
          </g>
        </g>
      </g>
      <g>
        <rect class="cls-22" x="465.22" y="1164.96" width="166.59" height="166.59" rx="21.59" ry="21.59"/>
        <g>
          <rect class="cls-27" x="489.26" y="1255.05" width="16.67" height="47.44"/>
          <rect class="cls-27" x="511.91" y="1265.1" width="18.78" height="37.39"/>
          <rect class="cls-27" x="536.94" y="1250.08" width="18.78" height="52.41"/>
          <rect class="cls-27" x="561.97" y="1236.11" width="18.78" height="66.38"/>
          <rect class="cls-27" x="587" y="1212.34" width="18.78" height="90.15"/>
          <path class="cls-17" d="m599.34,1197.58l1.49,1.97,5.94-9.81-11.07,3.01.85,1.13.64.85-75.9,57.2-35.3-26.14v4.68l35.32,26.02c.08.05,78.04-58.9,78.04-58.9Z"/>
        </g>
      </g>
      <g>
        <rect class="cls-22" x="556.28" y="516.02" width="123.72" height="123.72" rx="16.03" ry="16.03"/>
        <g>
          <rect class="cls-23" x="581.94" y="580.81" width="10.71" height="32.08"/>
          <rect class="cls-23" x="600.5" y="564.77" width="12.22" height="32.08"/>
          <rect class="cls-23" x="619.85" y="547.76" width="12.22" height="32.08"/>
          <rect class="cls-23" x="637.16" y="559.9" width="12.22" height="32.08"/>
          <path class="cls-27" d="m655.19,613.17h-5.81v-21.2h-.91l.91-.91v-2.22l-.27.27-2.07,2.07-.8.8h-1.59l1.75-1.75,1.75-1.75,1.22-1.22v-2.22l-.27.27-2.07,2.07-1.75,1.75-2.07,2.07-.8.8h-1.59l1.75-1.75,1.75-1.75,2.07-2.07,1.75-1.75,1.22-1.22v-2.22l-.27.27-2.07,2.07-1.75,1.75-2.07,2.07-1.75,1.75-2.07,2.07-.8.8h-1.46v21.2h-5.09v-34.94h-.36l.36-.36v-2.22l-.28.28-1.75,1.75-.56.56h-1.59l1.2-1.2,2.07-2.07.91-.91v-2.22l-.28.28-1.75,1.75-2.07,2.07-1.75,1.75-.56.56h-1.59l1.2-1.2,2.07-2.07,1.75-1.75,2.07-2.07.91-.91v-2.22l-.28.28-1.75,1.75-2.07,2.07-1.75,1.75-2.07,2.07-1.75,1.75-.56.56h-1.59l1.19-1.2,2.07-2.07,1.75-1.75,2.07-2.07,1.75-1.75,2.07-2.07.91-.91v-2.22l-.28.28-1.75,1.75-2.07,2.07-1.75,1.75-2.07,2.07-1.75,1.75-2.07,2.07-.5.5v36.75h-7.13v-19.66h-.11l.11-.11v-2.22l-1.75,1.75-.58.58h-1.59l1.22-1.22,2.07-2.07.64-.64v-2.22l-1.75,1.75-2.07,2.07-1.75,1.75-.58.58h-1.59l1.22-1.22,2.07-2.07,1.75-1.75,2.07-2.07.64-.64v-2.22l-1.75,1.75-2.07,2.07-1.75,1.75-2.07,2.07-1.75,1.75-.58.58h-1.59l1.22-1.22,2.07-2.07,1.75-1.75,2.07-2.07,1.75-1.75,2.07-2.07.64-.64v-2.22l-1.75,1.75-2.07,2.07-1.75,1.75-2.07,2.07-1.75,1.75-2.07,2.07-.78.78v21.22h-7.84v-10.41h-.74l.74-.74v-2.22l-.76.76-2.07,2.07-.14.14h-1.59l1.1-1.1,1.75-1.75,1.71-1.71v-2.22l-.76.75-2.07,2.07-1.75,1.75-2.07,2.07-.14.14h-1.59l1.1-1.1,1.75-1.75,2.07-2.07,1.75-1.75,1.37-1.37h.34v-14.72h-10.71v14.72h.52l-.26.26-.26.26v2.22l1.37-1.37,1.37-1.37h1.59l-.26.26-1.75,1.75-2.07,2.07-.26.26v2.22l1.37-1.37,2.07-2.07,1.75-1.75,1.37-1.37h1.59l-.26.26-1.75,1.75-2.07,2.07-1.75,1.75-2.07,2.07-.14.14h-.12v10.41h-6.67v-71.12h1.53l-2.23-5.56-2.22,5.56h1.53v72.51h81.3v1.53l5.56-2.23-5.56-2.22v1.53Zm-71.97-19.71v-12.18h8.17v12.18h-8.17Z"/>
          <path class="cls-27" d="m612.39,567.03h.33v-10.18h-12.22v10.63l.14-.14.31-.31h1.59l-1.27,1.27-.78.78v2.22l.14-.14,1.75-1.75,2.07-2.07.31-.31h1.59l-1.27,1.27-1.75,1.75-2.07,2.07-.78.78v2.22l.14-.14,1.75-1.75,2.07-2.07,1.75-1.75,2.07-2.07.31-.31h1.59l-1.27,1.27-1.75,1.75-2.07,2.07-1.75,1.75-2.07,2.07-.78.78v2.22l.14-.14,1.75-1.75,2.07-2.07,1.75-1.75,2.07-2.07,1.75-1.75,2.07-2.07.31-.31Zm-.94-1.27h-9.68v-7.63h9.68v7.63Z"/>
          <polygon class="cls-27" points="612.72 570.52 612.72 568.29 610.97 570.04 608.9 572.11 607.15 573.86 605.09 575.92 603.34 577.67 601.27 579.73 600.5 580.51 600.5 582.73 600.64 582.59 602.38 580.85 604.45 578.78 606.2 577.03 608.26 574.97 610.01 573.22 612.08 571.15 612.72 570.52"/>
          <polygon class="cls-27" points="612.72 574.33 612.72 572.11 610.97 573.86 608.9 575.92 607.15 577.67 605.09 579.73 603.34 581.48 601.27 583.55 600.5 584.33 600.5 586.55 600.64 586.41 602.38 584.66 604.45 582.59 606.2 580.85 608.26 578.78 610.01 577.03 612.08 574.97 612.72 574.33"/>
          <polygon class="cls-27" points="612.72 578.14 612.72 575.92 610.97 577.67 608.9 579.73 607.15 581.48 605.09 583.55 603.34 585.3 601.27 587.36 600.5 588.14 600.5 590.36 600.64 590.22 602.38 588.47 604.45 586.41 606.2 584.66 608.26 582.59 610.01 580.85 612.08 578.78 612.72 578.14"/>
          <path class="cls-27" d="m632.06,551.17v-9.6h-12.22v10.37l1.21-1.21h1.59l-.24.24-2.07,2.07-.5.5v2.22l1.61-1.61,2.07-2.07,1.35-1.35h1.59l-.24.24-2.07,2.07-1.75,1.75-2.07,2.07-.5.5v2.22l1.61-1.61,2.07-2.07,1.75-1.75,2.07-2.07,1.35-1.35h1.59l-.24.24-2.07,2.07-1.75,1.75-2.07,2.07-1.75,1.75-2.07,2.07-.5.5v2.22l1.61-1.61,2.07-2.07,1.75-1.75,2.07-2.07,1.75-1.75,2.07-2.07.91-.91Zm-10.95-8.32h9.68v6.62h-9.68v-6.62Z"/>
          <polygon class="cls-27" points="632.06 554.98 632.06 552.76 631.79 553.04 630.04 554.79 627.97 556.85 626.23 558.6 624.16 560.66 622.41 562.41 620.34 564.48 619.85 564.98 619.85 567.2 621.45 565.59 623.52 563.52 625.27 561.78 627.33 559.71 629.08 557.96 631.15 555.9 632.06 554.98"/>
          <polygon class="cls-27" points="632.06 558.8 632.06 556.57 631.79 556.85 630.04 558.6 627.97 560.66 626.23 562.41 624.16 564.48 622.41 566.23 620.34 568.29 619.85 568.79 619.85 571.01 621.45 569.4 623.52 567.34 625.27 565.59 627.33 563.52 629.08 561.78 631.15 559.71 632.06 558.8"/>
          <polygon class="cls-27" points="632.06 562.61 632.06 560.39 631.79 560.66 630.04 562.41 627.97 564.48 626.23 566.23 624.16 568.29 622.41 570.04 620.34 572.11 619.85 572.61 619.85 574.83 621.45 573.22 623.52 571.15 625.27 569.4 627.33 567.34 629.08 565.59 631.15 563.52 632.06 562.61"/>
          <polygon class="cls-27" points="648.15 573.22 649.38 572 649.38 569.78 649.11 570.04 647.04 572.11 645.3 573.86 643.23 575.92 641.48 577.67 639.41 579.73 637.67 581.48 637.16 581.99 637.16 584.22 638.78 582.59 640.52 580.85 642.59 578.78 644.34 577.03 646.4 574.97 648.15 573.22"/>
          <polygon class="cls-27" points="648.15 577.03 649.38 575.81 649.38 573.59 649.11 573.86 647.04 575.92 645.3 577.67 643.23 579.73 641.48 581.48 639.41 583.55 637.67 585.3 637.16 585.81 637.16 588.03 638.78 586.41 640.52 584.66 642.59 582.59 644.34 580.85 646.4 578.78 648.15 577.03"/>
          <polygon class="cls-27" points="648.15 580.85 649.38 579.62 649.38 577.4 649.11 577.67 647.04 579.73 645.3 581.48 643.23 583.55 641.48 585.3 639.41 587.36 637.67 589.11 637.16 589.62 637.16 591.84 638.78 590.22 640.52 588.47 642.59 586.41 644.34 584.66 646.4 582.59 648.15 580.85"/>
          <path class="cls-27" d="m637.16,567.03v1.93l1.62-1.62.31-.31h1.59l-1.27,1.27-1.75,1.75-.51.51v2.22l1.62-1.62,1.75-1.75,2.07-2.07.31-.31h1.59l-1.27,1.27-1.75,1.75-2.07,2.07-1.75,1.75-.51.51v2.22l1.62-1.62,1.75-1.75,2.07-2.07,1.75-1.75,2.07-2.07.31-.31h1.59l-1.27,1.27-1.75,1.75-2.07,2.07-1.75,1.75-2.07,2.07-1.75,1.75-.51.51v2.22l1.62-1.62,1.75-1.75,2.07-2.07,1.75-1.75,2.07-2.07,1.75-1.75,1.22-1.22v-8.28h-12.22v7.13Zm10.95-5.86v4.58h-9.68v-4.58h9.68Z"/>
          <rect class="cls-23" x="581.94" y="580.01" width="10.71" height="14.72"/>
          <rect class="cls-23" x="600.5" y="554.09" width="12.22" height="12.94"/>
          <rect class="cls-23" x="619.85" y="541.64" width="12.22" height="12.94"/>
          <rect class="cls-23" x="637.16" y="559.9" width="12.22" height="12.94"/>
        </g>
      </g>
      <g>
        <polyline class="cls-1" points="1319.94 814.87 1319.71 818.45 1323.25 818.46"/>
        <path class="cls-15" d="m1337.54,792.97s-6.77-.27-6.75,1.91c0,0,.07,1.47,5.97,1.62,5.9.14,7.42-.24,7.9-1.64.48-1.4-3.96-1.96-7.13-1.89Z"/>
        <path class="cls-15" d="m1310.52,793.85s5.55-.6,6.1,1.44c0,0,.33,1.38-4.54,1.81-4.87.44-6.48-.01-6.99-1.12-.58-1.25,2.78-2.03,5.43-2.13Z"/>
        <path class="cls-2" d="m1331.26,807.17s3.02-4.31,8.61-.14"/>
        <path class="cls-2" d="m1308.11,808.04s2.69-4.27,6.43-.28"/>
        <path class="cls-2" d="m1325.55,824.83s4.62,1.09,8.37-3.56"/>
      </g>
    </g>
  </g>
</svg>